<?xml version="1.0" encoding="UTF-8" standalone="no"?>
<!-- Generator: Adobe Illustrator 13.0.2, SVG Export Plug-In . SVG Version: 6.00 Build 14948)  -->
<svg id="svg2" xml:space="preserve" height="48" xmlns:dc="http://purl.org/dc/elements/1.1/" viewBox="0 0 40.425 46.214" width="48" version="1.0" xmlns:xlink="http://www.w3.org/1999/xlink" xmlns:cc="http://creativecommons.org/ns#" xmlns:rdf="http://www.w3.org/1999/02/22-rdf-syntax-ns#" xmlns="http://www.w3.org/2000/svg" y="0px" x="0px" enable-background="new 0 0 40.425 46.214"><metadata id="metadata44"><rdf:RDF><cc:Work rdf:about=""><dc:format>image/svg+xml</dc:format><dc:type rdf:resource="http://purl.org/dc/dcmitype/StillImage"/></cc:Work></rdf:RDF></metadata><defs id="defs42">
<linearGradient id="linearGradient2378"><stop id="stop2386" style="stop-color:#fff" offset="0"/><stop id="stop2382" style="stop-color:#27dc16" offset="1"/></linearGradient><radialGradient id="radialGradient86956" xlink:href="#linearGradient2378" gradientUnits="userSpaceOnUse" cy="5.57" cx="26.49" gradientTransform="matrix(1.006 5.3782e-7 -9.4577e-7 1.1767 -.15859 -.98428)" r="4.0552"/></defs>
<g id="g35" style="stroke:#31ae00;stroke-miterlimit:4;stroke-width:.45245;fill:url(#radialGradient86956)" stroke-miterlimit="3.8637" transform="matrix(1.1825 0 0 1.3364 -20.636 -.79475)">
		<circle id="circle37" style="stroke:#31ae00;stroke-miterlimit:4;stroke-width:.45245;fill:url(#radialGradient86956)" cx="26.49" cy="5.57" r="3.829"/>
	</g>
<g id="g7" style="fill:#2f2f2f">
		<path id="path9" style="fill:#2f2f2f;fill-rule:evenodd" clip-rule="evenodd" d="m20.569 13.286c0.274 2.173 0.222 4.548 0.251 5.256 0.045 0.375 1.093 0.699 1.274 0.335 0.207-1.363 0.492-4.03 0.826-5.422 0.452-3.538 0.966-5.208 1.152-6.198 0.508-2.69 0.942-4.137 2.69-4.137 1.622 0 1.861 2.047 1.391 5.045-0.128 1.214-0.117 4.075-0.72 6.729-0.268 1.797-0.471 6.384-0.294 10.087 0.05 1.064 0.53 2.334 1.103 2.964 1.22-0.172 2.137-3.568 3.746-5.098 0.821-1.383 2.895-3.548 4.963-3.548 2.292 0 2.341 1.701 1.394 2.963-1.158 1.544-1.82 2.266-2.266 3.54s-2.321 3.976-2.608 5.407c-0.569 2.845-1 3.896-4.187 6.452-1.501 1.204-1.982 1.976-2.429 2.74-0.508 0.872-0.446 4.32-0.446 5.811h-15.769s0.127-2.625-0.127-4.154c-0.052-0.312-0.408-2.445-1.337-3.827-0.859-1.277-3.274-5.925-3.274-11.395 0-2.81-1.512-5.118-2.048-7.303-0.263-1.7-1.216-4.11-1.284-4.824-0.886-3.15-0.438-4.591 1.171-4.591 1.391 0 1.787 1.809 2.352 3.504 0.165 0.898 1.412 3.312 1.695 4.611 0.25 0.855 1.109 3.323 1.649 3.494 0.313 0.057 0.714-0.204 0.854-0.684 0.229-0.783-0.473-2.098-0.752-5.783-0.452-2.917-0.369-5.121-0.423-6.311-0.463-3.525 0.017-5.351 1.577-5.351 1.483 0 1.875 0.857 2.327 4.338 0.169 1.582 0.734 4.159 1.017 6.928 0.176 1.5 0.602 3.737 0.943 4.306 0.305 0.333 0.939 0.028 0.92-0.322-0.006-2.471-0.168-3.871 0.058-5.849-0.113-2.712 0.261-5.176 0.261-6.532 0-2.973 0.283-4.994 2.139-4.994 1.975 0 1.929 2.303 1.929 5.333 0.112 0.739 0.169 3.281 0.282 6.48z"/>
	</g>
</svg>
