<?xml version="1.0" encoding="UTF-8" standalone="no"?>
<!-- Generator: Adobe Illustrator 13.0.2, SVG Export Plug-In . SVG Version: 6.00 Build 14948)  -->
<svg id="svg2419" xml:space="preserve" height="48" xmlns:dc="http://purl.org/dc/elements/1.1/" viewBox="0 0 36.184 43.865" width="48" version="1.0" xmlns:xlink="http://www.w3.org/1999/xlink" xmlns:cc="http://creativecommons.org/ns#" xmlns:rdf="http://www.w3.org/1999/02/22-rdf-syntax-ns#" xmlns="http://www.w3.org/2000/svg" y="0px" x="0px" enable-background="new 0 0 36.184 43.865"><metadata id="metadata2435"><rdf:RDF><cc:Work rdf:about=""><dc:format>image/svg+xml</dc:format><dc:type rdf:resource="http://purl.org/dc/dcmitype/StillImage"/></cc:Work></rdf:RDF></metadata><defs id="defs2433">
	<filter id="filter3471"><feGaussianBlur id="feGaussianBlur3473" stdDeviation="0.057808254"/></filter><radialGradient id="radialGradient84134" gradientUnits="userSpaceOnUse" cy="39.098" cx="26.184" gradientTransform="matrix(1.0862 -2.5925e-8 1.5465e-8 .81863 -2.2581 7.302)" r="10.5"><stop id="stop84078" style="stop-color:#73d216" offset="0"/><stop id="stop84090" style="stop-color:#73d216" offset=".31459"/><stop id="stop84080" style="stop-color:#4e9a06" offset="1"/></radialGradient><filter id="filter84266" height="2.0553" width="1.1421" y="-.52766" x="-.071031"><feGaussianBlur id="feGaussianBlur84268" stdDeviation="0.45756194"/></filter><linearGradient id="linearGradient84277" y2="30.467" gradientUnits="userSpaceOnUse" x2="26.456" y1="24.322" x1="26.456"><stop id="stop3265" style="stop-color:#fff" offset="0"/><stop id="stop3267" style="stop-color:#fff;stop-opacity:0" offset="1"/></linearGradient><linearGradient id="linearGradient84279" y2="40.661" gradientUnits="userSpaceOnUse" x2="34.488" y1="23.091" x1="21.516"><stop id="stop84106" style="stop-color:#fffffc" offset="0"/><stop id="stop84108" style="stop-color:#fffffc;stop-opacity:0" offset="1"/></linearGradient></defs>
<path id="path84140" style="opacity:0.243;filter:url(#filter84266)" d="m34.824 38.811a7.7301 1.0406 0 1 1 -15.46 0 7.7301 1.0406 0 1 1 15.46 0z" transform="matrix(1.1912 0 0 2.1266 -5.0626 -41.775)"/>
<path id="path2424" style="fill:#a1a1a1" d="m11.472 8.6588c0.386-0.1525 6.581-1.0972 6.062 6.1452-0.711 9.932-7.349 7.044-9.0907 13.272 0.696-0.236 0.8749-0.907 1.3134-1.458 1.3203-1.662 2.1423-2.489 3.4283-3.042 4.579-1.971 7.063-10.355 3.206-14.226-1.446-1.4524-4.134-1.3141-4.919-0.6912zm-11.901 21.948c-0.20512-0.549-0.39469-1.114-0.56967-1.69 1.2667 1.578 3.394 0.579 4.7654 0.919 3.9991 0.991 6.4216-0.151 8.7166-2.85 2.042-2.401 3.234-0.975 5.196-4.586 0.494-0.91 1.835-1.9 2.357-5.937 0.286-2.212 1.681-2.471 1.511-4.071-0.26-2.4526-0.351-2.8064-1.378-4.4615-1.476-2.3825-3.74-3.0212-5.786-3.0273-1.722-0.0047-2.553 0.69-3.136 0.9177 4.13-1.0009 7.717 0.4253 8.717 2.8379 0.508 1.226 0.767 1.5982 0.857 2.9042 0.143 2.066-0.527 2.837-0.571 2.212-0.184-2.677-1.111-5.9856-4.213-7.0517-1.956-0.6719-4.748-0.1609-6.4203 1.1065-2.0396 1.9534-3.1352 4.7712-3.1352 6.6292 0 3.563-0.0262 4.694-0.6406 8.019-0.2586 1.403-1.1918 2.864-0.6523 4.785 0.7952-0.293 1.5087-1.4 1.7926-2.167 1.9919-5.384 3.2978-4.119 5.3488-6.283 0.488-0.514 1.326-1.906 1.428-2.419 0.247-1.242 0.857-4.21-1.214-4.14-1.725 1.099-1.001 3.38-2.32 5.602 2.034-0.908 1.901-4.744 2.647-4.834 0.649-0.078 0.609 1.467 0.467 2.291-0.305 1.772-0.929 2.773-2.332 3.792-1.1191 0.813-2.1593 0.945-3.1713 2.653-0.1905 0.3-1.5457 3.572-1.7138 3.881-0.8487 1.562-0.7466-0.09 0.1866-2.708 0 0 0.9099-2.836 0.7904-5.932-0.0545-1.433 0.0252-7.0944 3.7321-9.0996 1.595-0.8628 4.071-1.4048 5.776-0.1383 5.338 3.9639 2.853 13.687-1.214 16.437-1.635 1.107-2.992 1.176-4.386 3.303-1.087 1.659-4.1696 2.773-6.3122 1.805 0.8574-0.476 2.1882-0.519 2.5713-1.583 2.8069-7.807 8.2519-4.433 8.9049-12.772 0.231-2.958-1.306-5.2713-3.486-5.2713-2.231 0-3.7313 2.9803-4.0696 5.7453-0.1624 1.333-0.2498 3.088-0.3568 4.009 1.7844-1.036 0.2139-8.287 4.2134-8.702 3.479-0.361 3.182 4.217 2.785 6.214-0.302 1.522-0.999 2.834-3.999 4.555-1.5801 0.906-2.6271 2.057-3.4281 3.94-0.4695 1.105-1.43 2.995-3.2955 3.176-0.2139 0.021-0.6203-2.059-0.7466-3.16-0.1867-1.625 0.6532-2.708 0.9322-4.457 0.3111-1.943 0.5289-3.49 0.5454-6.818-0.7845-5.1083 0.0136-6.6185 2.1445-9.0414 2.4916-2.8341 4.6231-3.0857 6.0861-3.0991 2.144-0.0178 3.39 1.4938 2.755 1.3706-1.64-0.3171-4.634-0.7368-7.2059 1.8668-1.4349 1.4509-3.0175 3.3178-2.8494 5.5921 0.6718-3.267 4.1263-7.1349 7.5393-7.1349 3.829 0 6.229 1.4196 7.372 3.2638 1.161 1.8734 1.642 3.2821 1.642 5.8061 0 1.864-1.031 2.629-1.499 4.141-0.18 0.58-0.799 2.083-1.071 3.249-1.094 4.685-1.882 6.941-5.92 10.008-1.76 1.337-3.16 1.427-4.092 1.066 0.008-0.153 2.187-0.351 3.544-2.348 1.279-1.882 2.926-1.93 3.673-4.097-0.774 0.938-1.977 1.833-2.982 2.275-0.284 0.125-0.797 0.771-0.993 1.001-2.053 2.415-3.7087 2.987-6.0759 3.257 0.3763 0.177 0.7651 0.313 1.1773 0.366 3.0086 0.385 4.8646 0.424 7.2516-1.684 3.368-2.974 3.922-4.854 4.273-7.088 0.26-1.654 1.622-5.531 2.214-7.099 0.833-2.209 0.309 2.237 0.071 2.82-1.394 3.427-0.833 8.047-4.377 11.692-2.432 2.502-5.632 3.431-10.82 2.257-1.3832-0.314-0.8825-0.78-2.4642-1.264-0.4744-0.214-3.0175-0.36-3.3091-0.362-0.63971-0.004-1.2424-0.136-1.7781-0.389zm4.6838-25.475c-1.3999 1.5686-1.1238 2.7833-2.0522 4.0969-1.8247 2.582-0.7641 6.149-1.15 8.755-0.49972 3.379-0.54307 2.11-1.0593-0.009-0.76125-3.126-0.20841-4.259-0.083005-5.583 0.69508-3.2778 1.3027-4.6516 2.9456-6.7188 1.3561-1.706 3.2799-2.6516 1.3989-0.5411zm19.769 31.302c-0.549 0.634-1.141 1.224-1.774 1.762l-0.787 0.295c-3.234 1.205-4.895 1.315-9.618 0.576-1.925-0.301-4.5527-0.671-6.3599 0.195 1.0861 0.232 4.8979-0.917 6.0789 0.709-0.117 0.17-2.3653-0.103-4.4807 0.361-0.5123-0.289-1.0071-0.616-1.4844-0.981-0.4589-0.357-0.7943-0.646-1.119-0.953 2.4644-1.383 6.4121-0.906 8.8561-0.594 4.233 0.542 5.912 0.362 8.616-0.631 0.732-0.269 1.423-0.518 2.072-0.739zm2.058-28.552c1.056 2.0833 2.163 3.6775 2.163 6.8365 0 3.478-2.499 5.174-2.897 7.488-0.374 2.167-0.433 3.971-0.761 3.971-0.467 0-0.616-2.068-0.545-3.519 0.072-1.469 0.259-2.27 0.601-3.364 0.384-1.229 0.967-3.979 0.848-6.059-0.155-2.746 0.087-2.162 0.799-0.506 0.467 1.083-0.041 3.205 0 4.739 1.027-1.836 0.833-4.602 0.047-6.607-0.262-0.673-0.623-2.0329-0.255-2.9795zm-1.473 1.3607c-0.136-0.6041-0.898-2.7652-1.895-4.0562-1.494-1.9336-0.149-1.53 0.923-0.3557 1.047 1.148 1.823 2.513 1.852 3.8331 0.059 2.7126-0.379 2.7906-0.88 0.5788zm3.703 7.6158c0.278-0.359 0.55 1.891 0.046 2.682-1.344 2.108-0.861 5.572-1.731 8.337-1.385 4.4-5.791 7.725-10.641 7.635 3.545-1.174 6.716-1.715 8.185-8.688 0.129-0.615 0.991-0.284 0.213 2.619 0.858-1.236 1.602-4.335 1.715-6.836 0.075-1.693 1.618-4.121 2.213-5.749zm-27.974-9.797c2.7657-5.066 8.3409-6.5348 12.864-6.5348 2.827-0.00005 5.293 0.4845 7.604 1.8122 0.356 0.2597 0.894 0.5806 1.184 0.8704 0.936 0.94-0.633 0.5192-2.598-0.35-3.603-1.5943-6.18-1.3512-8.347-1.004-1.6033 0.2569-2.625 1.5393-3.428 2.3175-2.9592 2.8624-3.42 5.4217-3.0642 8.6327 0.4414 3.985-0.2974 8.194-1.2287 10.488-0.4764 1.175-0.4132 2.702-0.2003 3.669 0.385 1.744 1.8809 2.47 0.0117 2.23-3.2742-0.421-3.2722-4.919-2.1543-8.099 1.1423-3.249 0.515-5.143 0.7554-7.532 1.0671-10.688 1.3775 2.264 1.3162 2.831-0.3577 3.318-0.8315 4.2-1.3269 5.676-1.0658 3.176 0.1928 5.026 0.5276 5.282-1.3552-4.317 1.0132-5.711 1.1999-10.718 0.0456-1.215 0.0651-1.96-0.1206-3.602-0.5706-5.0666 0.7359-7.9892 3.627-10.337-1.7537 0.0171-3.1001 1.2855-4.29 2.4381-1.3056 1.2637-2.5178 4.1458-2.895 5.2549-0.56384 1.659-1.0587-0.356 0.56286-3.325zm-1.4602 21.436c-0.9031-3.145-1.3551-6.652-1.2803-10.297 0.0292-1.451 0.1594-3.045 0.6066-4.911 0.87106-3.6357 1.1015-1.719 1.0432-1.273-1.1521 8.809 2.3548 7.106 0.21574 13.711-0.74664-0.541 0.04151-4.233-1.1315-6.431 0.3052 2.422-0.3607 6.43 2.2855 8.959 0.7563 0.723 2.2388 1.118 0.09329 0.937-0.73688-0.062-1.3406-0.307-1.8325-0.695zm1.5972 4.239c-0.17012-0.354-0.33247-0.716-0.48898-1.086 1.0091-0.119 3.0584-0.224 4.8286 0.521 1.0285 0.433-1.0305 0.222-2.827 0.332-0.6436 0.039-1.1744 0.193-1.5127 0.233zm0.85357 1.614c-0.1964-0.337-0.385-0.683-0.56679-1.038 4.4466-0.791 6.3986-0.009 9.8545 0.278 3.562 0.296 7.421-1.509 8.635-3.586 0.623-1.067 0.798-1.326 0.923-1.606 0.109-0.243 0.181-0.502 0.475-1.317 0.654-1.805 0.623 0.656 0.458 1.263-1.111 4.098-2.043 3.375-3.909 5.182 4.291-1.535 4.944-4.605 4.385-8.882-0.134-1.023 0.662-3.791 1.027-4.781 0 0 0.768-2.482 0.773-6.883 0.003-2.87-0.935-7.2947-4.774-8.946-1.286-0.5533-3.072-2.0738-3.072-2.0738 0.796 0.4237 2.714 0.6906 4.571 1.7972 0.071 0.0423 4.091 2.2836 4.492 8.1496 0.19 2.772 0.211 2.901 0.024 4.707 0 0-0.114 1.857-0.766 3.392-0.315 0.854-0.653 3.374-0.466 4.638 0.431 2.928-1.341 10.236-8.559 10.236-3.188 0-5.1288-0.409-6.6551-0.646-1.3823-0.214-4.1763-0.334-6.8496 0.116zm2.5888 3.485c-0.3694-0.386-0.7243-0.796-1.0645-1.229 1.046-0.593 1.9647-0.603 3.8282-0.552 2.1349 0 5.3512 0.846 4.3642 1.125-0.048 0.012-4.5771-0.617-7.1279 0.656zm10.803 3.802c-0.422 0.063-0.851 0.11-1.289 0.138-2.082 0.136-4.0126-0.276-5.7586-1.136 0.8516-0.117 2.4986-0.174 4.0596 0.047 0.925 0.13 1.978 0.586 2.988 0.951zm6.029-2.313c-1.429 0.944-3.023 1.652-4.756 2.066-1.272-0.377-4.021-0.821-4-1.652 0.016-0.622 3.488 0.577 5.483 0.322 1.367-0.174 2.404-0.441 3.273-0.736zm6-7.337c0.548-0.531-0.11 2.62-3.188 3.934-2.084 0.738-5.18 2.387-10.503 0.98-0.653-0.173-2.723-0.721-3.1837-0.814-3.5872-0.721-5.4498-0.506-7.4806-0.091-0.2362-0.328-0.4647-0.667-0.6853-1.017 0.6542-0.265 2.2981-0.367 3.4792-0.369 3.7612-0.007 8.8024 1.354 10.796 1.444 4.674 0.212 7.684-3.07 8.057-3.07 0.933 0-0.874 1.632-1.375 2.082-0.427 0.385 1.682-0.566 4.083-3.079zm1.77-6.982c-0.124 2.127-0.284 5.08-2.064 6.556-2.84 2.355-1.668 0.7-0.429-0.943 2.156-2.86 1.259-9.302 2.67-10.549 0.016 1.352-0.088 3.413-0.177 4.936z"/>
<circle id="circle2428" style="fill-rule:evenodd;stroke:#448c00;stroke-width:1.3173;fill:url(#radialGradient84134)" cx="26.184" transform="matrix(1.1264 0 0 1.1511 -2.2714 -9.1998)" cy="33.865" r="10" clip-rule="evenodd"/><path id="path3253" style="opacity:.50746;fill:url(#linearGradient84277)" d="m32.6 27.394a6.1445 3.0723 0 1 1 -12.289 0 6.1445 3.0723 0 1 1 12.289 0z" transform="matrix(1.1111 0 0 1.2759 -2.2388 -10.924)"/><path id="path2430" style="opacity:.42786;fill-rule:evenodd;filter:url(#filter3471);stroke:#398800;fill:#398800" transform="matrix(1.1264 0 0 1.1511 -2.2714 -9.1998)" clip-rule="evenodd" d="m21.777 33.576c0.651 0.647 1.553 2.021 2.235 2.634 1.252-1.311 3.587-4.297 7.065-6.71 0.677-0.47 2.381-0.037 1.48 0.988-2.711 2.8-5.225 6.205-7.172 8.9-0.917 1.269-1.679 0.607-2.477-0.409-0.996-1.296-2.011-2.907-2.399-3.967-0.227-0.619 0.465-2.226 1.268-1.436z"/><path id="path3469" style="fill:#fff;fill-rule:evenodd" clip-rule="evenodd" d="m21.969 28.185c0.734 0.745 1.75 2.327 2.518 3.032 1.41-1.509 4.04-4.946 7.958-7.724 0.762-0.541 2.682-0.042 1.667 1.138-3.054 3.223-5.886 7.142-8.079 10.244-1.032 1.461-1.891 0.699-2.79-0.47-1.122-1.492-2.265-3.347-2.702-4.567-0.255-0.712 0.524-2.562 1.428-1.653z"/><path id="path84102" style="opacity:.36816;stroke:url(#linearGradient84279);stroke-width:1.2184;fill:none" d="m38.213 31.917a10.028 10.241 0 1 1 -20.055 0 10.028 10.241 0 1 1 20.055 0z" transform="matrix(1.0117 0 0 1.019 -1.4418 -2.7101)"/></svg>
