<?xml version="1.0" encoding="UTF-8" standalone="no"?>
<!-- Generator: Adobe Illustrator 13.0.2, SVG Export Plug-In . SVG Version: 6.00 Build 14948)  -->
<svg id="svg2419" xml:space="preserve" height="48" xmlns:dc="http://purl.org/dc/elements/1.1/" viewBox="0 0 36.184 43.865" width="48" version="1.0" xmlns:xlink="http://www.w3.org/1999/xlink" xmlns:cc="http://creativecommons.org/ns#" xmlns:rdf="http://www.w3.org/1999/02/22-rdf-syntax-ns#" xmlns="http://www.w3.org/2000/svg" y="0px" x="0px" enable-background="new 0 0 36.184 43.865"><metadata id="metadata2435"><rdf:RDF><cc:Work rdf:about=""><dc:format>image/svg+xml</dc:format><dc:type rdf:resource="http://purl.org/dc/dcmitype/StillImage"/></cc:Work></rdf:RDF></metadata><defs id="defs2433">
	<filter id="filter84266" height="2.0553" width="1.1421" y="-.52766" x="-.071031"><feGaussianBlur id="feGaussianBlur84268" stdDeviation="0.45756194"/></filter><linearGradient id="linearGradient84277" y2="30.467" gradientUnits="userSpaceOnUse" x2="26.456" y1="24.322" x1="26.456"><stop id="stop3265" style="stop-color:#fff" offset="0"/><stop id="stop3267" style="stop-color:#fff;stop-opacity:0" offset="1"/></linearGradient>
<radialGradient id="radialGradient8812" gradientUnits="userSpaceOnUse" cy="39.797" cx="26.184" gradientTransform="matrix(.94443 0 0 .72205 1.455 11.505)" r="10.659"><stop id="stop5173" style="stop-color:#fe3a00" offset="0"/><stop id="stop5175" style="stop-color:#c00" offset="1"/></radialGradient>
	</defs>
<path id="path2424" style="fill:#a1a1a1" d="m11.485 8.6744c0.387-0.1524 6.582-1.0972 6.062 6.1456-0.71 9.931-7.348 7.044-9.09 13.272 0.6961-0.236 0.8749-0.907 1.3134-1.459 1.3206-1.661 2.1426-2.489 3.4286-3.042 4.579-1.97 7.063-10.354 3.206-14.225-1.446-1.4528-4.134-1.3145-4.92-0.6916zm-11.901 21.949c-0.20512-0.55-0.39469-1.114-0.56967-1.69 1.2667 1.578 3.3939 0.579 4.7654 0.919 3.9992 0.991 6.4219-0.151 8.7169-2.85 2.042-2.401 3.234-0.976 5.195-4.586 0.495-0.91 1.836-1.901 2.358-5.937 0.286-2.213 1.681-2.471 1.511-4.072-0.261-2.452-0.352-2.8058-1.378-4.4609-1.477-2.3825-3.74-3.0212-5.786-3.0273-1.723-0.0047-2.553 0.69-3.136 0.9177 4.129-1.0009 7.716 0.4253 8.717 2.8379 0.508 1.226 0.767 1.5986 0.857 2.9036 0.143 2.066-0.528 2.838-0.571 2.212-0.184-2.677-1.112-5.985-4.214-7.0511-1.956-0.6719-4.748-0.1609-6.4196 1.1065-2.0396 1.9534-3.1352 4.7716-3.1352 6.6286 0 3.564-0.0262 4.695-0.6406 8.02-0.2586 1.403-1.1918 2.863-0.6523 4.785 0.7952-0.294 1.5088-1.4 1.7926-2.167 1.9919-5.384 3.2971-4.12 5.3491-6.283 0.488-0.515 1.326-1.906 1.428-2.419 0.247-1.242 0.857-4.21-1.215-4.14-1.724 1.099-1 3.38-2.319 5.602 2.034-0.909 1.9-4.744 2.647-4.834 0.648-0.079 0.609 1.466 0.467 2.291-0.306 1.772-0.93 2.773-2.332 3.792-1.1194 0.813-2.1596 0.944-3.1716 2.652-0.1905 0.3-1.5456 3.573-1.7138 3.882-0.8487 1.562-0.7466-0.091 0.1866-2.708 0 0 0.9099-2.836 0.7904-5.932-0.0545-1.433 0.0252-7.0948 3.7324-9.1 1.595-0.8628 4.071-1.4048 5.776-0.1383 5.338 3.9643 2.852 13.687-1.214 16.437-1.635 1.107-2.992 1.175-4.386 3.303-1.0873 1.659-4.1699 2.773-6.3125 1.804 0.8574-0.476 2.1883-0.518 2.5713-1.582 2.8062-7.807 8.2512-4.433 8.9052-12.773 0.231-2.957-1.306-5.2707-3.487-5.2707-2.231 0-3.7306 2.9797-4.0689 5.7457-0.1623 1.333-0.2498 3.088-0.3568 4.009 1.7847-1.037 0.2139-8.288 4.2137-8.703 3.479-0.36 3.181 4.218 2.785 6.214-0.303 1.523-1 2.834-4 4.555-1.5794 0.907-2.6263 2.057-3.4274 3.941-0.4695 1.105-1.43 2.995-3.2955 3.176-0.2139 0.02-0.6202-2.059-0.7466-3.16-0.1867-1.625 0.6533-2.708 0.9323-4.457 0.311-1.943 0.5288-3.49 0.5453-6.818-0.7845-5.1087 0.0136-6.6189 2.1446-9.0418 2.4915-2.8341 4.6223-3.0857 6.0863-3.0991 2.144-0.0178 3.39 1.4939 2.754 1.3706-1.64-0.3171-4.633-0.7368-7.2052 1.8668-1.4349 1.451-3.0175 3.3178-2.8493 5.5925 0.6717-3.2674 4.1265-7.1353 7.5395-7.1353 3.829 0 6.229 1.4196 7.372 3.2638 1.161 1.8734 1.642 3.2825 1.642 5.8065 0 1.864-1.031 2.629-1.499 4.14-0.18 0.581-0.799 2.083-1.071 3.249-1.094 4.685-1.882 6.942-5.921 10.009-1.759 1.336-3.159 1.427-4.091 1.065 0.007-0.152 2.187-0.351 3.544-2.347 1.278-1.882 2.926-1.93 3.673-4.097-0.774 0.938-1.978 1.833-2.983 2.275-0.284 0.125-0.796 0.771-0.992 1-2.053 2.416-3.709 2.988-6.0761 3.258 0.3762 0.177 0.765 0.313 1.1772 0.366 3.0089 0.385 4.8649 0.423 7.2509-1.685 3.369-2.974 3.923-4.854 4.274-7.088 0.259-1.654 1.622-5.53 2.213-7.099 0.834-2.209 0.309 2.237 0.071 2.821-1.394 3.427-0.832 8.047-4.376 11.692-2.433 2.502-5.632 3.431-10.82 2.256-1.3835-0.313-0.8828-0.78-2.4644-1.263-0.4745-0.215-3.0176-0.361-3.3092-0.363-0.6397-0.003-1.2424-0.135-1.7781-0.388zm4.6838-25.475c-1.3999 1.5686-1.1238 2.7833-2.0522 4.0969-1.8247 2.5824-0.7641 6.1494-1.15 8.7544-0.49972 3.38-0.54306 2.111-1.0593-0.009-0.76124-3.125-0.2084-4.258-0.082998-5.583 0.69508-3.2772 1.3027-4.651 2.9456-6.7182 1.3561-1.706 3.28-2.6516 1.3989-0.5411zm19.768 31.302c-0.548 0.633-1.14 1.223-1.774 1.762l-0.786 0.295c-3.234 1.204-4.895 1.314-9.618 0.576-1.9253-0.301-4.553-0.671-6.3602 0.195 1.0861 0.232 4.8972-0.917 6.0792 0.708-0.117 0.17-2.3656-0.102-4.481 0.361-0.5123-0.288-1.0071-0.616-1.4844-0.98-0.4589-0.358-0.7943-0.646-1.119-0.953 2.4644-1.383 6.4124-0.906 8.8564-0.594 4.232 0.542 5.911 0.361 8.616-0.631 0.732-0.269 1.423-0.519 2.071-0.739zm2.058-28.552c1.057 2.0833 2.163 3.6769 2.163 6.8369 0 3.478-2.498 5.173-2.897 7.488-0.373 2.167-0.432 3.971-0.761 3.971-0.466 0-0.615-2.068-0.544-3.519 0.072-1.469 0.259-2.27 0.6-3.364 0.384-1.229 0.968-3.979 0.849-6.06-0.155-2.746 0.087-2.162 0.799-0.505 0.467 1.083-0.041 3.204 0 4.739 1.027-1.836 0.832-4.602 0.047-6.607-0.263-0.673-0.623-2.0333-0.256-2.9799zm-1.472 1.3607c-0.136-0.6041-0.899-2.7652-1.895-4.0562-1.494-1.9336-0.149-1.53 0.922-0.3557 1.047 1.148 1.823 2.513 1.852 3.8331 0.06 2.713-0.378 2.791-0.879 0.5788zm3.703 7.6162c0.278-0.36 0.55 1.891 0.046 2.681-1.344 2.109-0.861 5.573-1.731 8.338-1.385 4.4-5.791 7.724-10.641 7.635 3.544-1.174 6.715-1.715 8.184-8.689 0.13-0.614 0.992-0.283 0.214 2.62 0.858-1.237 1.602-4.335 1.715-6.836 0.075-1.694 1.618-4.121 2.213-5.749zm-27.975-9.7974c2.7657-5.066 8.3409-6.5348 12.865-6.5348 2.827-0.00004 5.293 0.4845 7.604 1.8122 0.355 0.2597 0.894 0.5806 1.184 0.8704 0.936 0.94-0.633 0.5192-2.598-0.35-3.603-1.5943-6.181-1.3512-8.348-1.004-1.6026 0.2569-2.6243 1.5394-3.4273 2.3175-2.9592 2.8624-3.42 5.4217-3.0642 8.6331 0.4414 3.985-0.2974 8.194-1.2287 10.488-0.4764 1.175-0.4132 2.701-0.2003 3.669 0.385 1.744 1.8809 2.47 0.0117 2.23-3.2742-0.421-3.2722-4.92-2.1543-8.099 1.1423-3.249 0.5151-5.143 0.7554-7.532 1.0671-10.689 1.3775 2.264 1.3162 2.831-0.3577 3.318-0.8315 4.199-1.3269 5.676-1.0658 3.176 0.1928 5.025 0.5276 5.282-1.3552-4.318 1.0132-5.711 1.1999-10.718 0.0457-1.216 0.0651-1.96-0.1206-3.602-0.5706-5.067 0.7359-7.9896 3.6271-10.337-1.7538 0.0167-3.1002 1.2851-4.2901 2.4377-1.3056 1.2637-2.5178 4.1458-2.895 5.2553-0.56384 1.659-1.0587-0.357 0.56287-3.3254zm-1.4602 21.435c-0.9031-3.144-1.3551-6.651-1.2803-10.297 0.0292-1.45 0.1594-3.044 0.6066-4.91 0.87107-3.6361 1.1015-1.72 1.0432-1.274-1.152 8.81 2.3548 7.107 0.21575 13.712-0.74665-0.542 0.04151-4.234-1.1316-6.431 0.3054 2.422-0.3606 6.43 2.2856 8.958 0.7563 0.724 2.2388 1.118 0.0933 0.938-0.73688-0.063-1.3406-0.307-1.8325-0.696zm1.5972 4.239c-0.17012-0.354-0.33247-0.716-0.48898-1.086 1.009-0.118 3.0583-0.224 4.8286 0.522 1.0285 0.432-1.0305 0.222-2.827 0.332-0.6436 0.038-1.1744 0.193-1.5127 0.232zm0.85356 1.615c-0.1964-0.337-0.38499-0.683-0.56678-1.038 4.4466-0.791 6.3986-0.009 9.8548 0.278 3.562 0.296 7.421-1.51 8.634-3.586 0.623-1.067 0.798-1.326 0.924-1.607 0.109-0.242 0.181-0.501 0.475-1.316 0.653-1.806 0.622 0.656 0.458 1.263-1.111 4.098-2.043 3.375-3.909 5.182 4.291-1.535 4.943-4.605 4.384-8.882-0.134-1.024 0.662-3.791 1.028-4.781 0 0 0.768-2.482 0.773-6.883 0.003-2.871-0.935-7.2951-4.774-8.9464-1.286-0.5533-3.072-2.0738-3.072-2.0738 0.795 0.4237 2.714 0.6906 4.571 1.7972 0.071 0.0423 4.09 2.2836 4.492 8.149 0.189 2.772 0.21 2.902 0.024 4.708 0 0-0.114 1.856-0.767 3.391-0.315 0.855-0.652 3.374-0.465 4.639 0.431 2.927-1.341 10.236-8.559 10.236-3.189 0-5.1291-0.41-6.6554-0.646-1.3823-0.214-4.1763-0.335-6.8496 0.116zm2.5888 3.485c-0.3694-0.387-0.7243-0.797-1.0645-1.23 1.046-0.593 1.9647-0.602 3.8283-0.551 2.1348 0 5.3514 0.846 4.3634 1.124-0.047 0.013-4.5763-0.616-7.1272 0.657zm10.803 3.801c-0.423 0.064-0.851 0.111-1.289 0.139-2.082 0.135-4.0129-0.277-5.7589-1.136 0.8516-0.118 2.4989-0.174 4.0599 0.046 0.924 0.131 1.978 0.586 2.988 0.951zm6.028-2.312c-1.429 0.943-3.022 1.652-4.755 2.066-1.272-0.377-4.022-0.821-4-1.652 0.015-0.622 3.487 0.576 5.483 0.321 1.367-0.174 2.403-0.441 3.272-0.735zm6-7.338c0.549-0.531-0.11 2.621-3.187 3.934-2.085 0.739-5.18 2.387-10.503 0.981-0.654-0.173-2.723-0.721-3.184-0.814-3.5872-0.722-5.4498-0.506-7.4806-0.091-0.2362-0.328-0.4646-0.668-0.6853-1.018 0.6542-0.264 2.2981-0.367 3.4793-0.368 3.7611-0.007 8.8026 1.354 10.797 1.444 4.674 0.212 7.684-3.07 8.057-3.07 0.932 0-0.874 1.631-1.376 2.082-0.426 0.385 1.683-0.567 4.083-3.08zm1.771-6.982c-0.124 2.128-0.284 5.081-2.064 6.557-2.84 2.355-1.668 0.7-0.429-0.944 2.155-2.859 1.259-9.301 2.67-10.549 0.016 1.352-0.088 3.414-0.177 4.936z"/><path id="path84140" style="opacity:0.243;filter:url(#filter84266)" d="m34.824 38.811a7.7301 1.0406 0 1 1 -15.46 0 7.7301 1.0406 0 1 1 15.46 0z" transform="matrix(1.1912 0 0 2.1266 -5.0626 -41.775)"/>
<circle id="circle2428" style="fill-rule:evenodd;stroke:#a40000;stroke-width:1.3173;fill:url(#radialGradient8812)" cx="26.184" transform="matrix(1.1264 0 0 1.1511 -2.2714 -9.1998)" cy="33.865" r="10" clip-rule="evenodd"/><path id="path3253" style="opacity:.5;fill:url(#linearGradient84277)" d="m32.6 27.394a6.1445 3.0723 0 1 1 -12.289 0 6.1445 3.0723 0 1 1 12.289 0z" transform="matrix(1.1247 0 0 1.4388 -2.5144 -14.969)"/><path id="path84102" style="opacity:.48;stroke:#e64837;stroke-width:1.2184;fill:none" d="m38.213 31.917a10.028 10.241 0 1 1 -20.055 0 10.028 10.241 0 1 1 20.055 0z" transform="matrix(.99624 0 0 .99570 -.83940 -2.0505)"/><path id="path7993" style="opacity:.55;fill-rule:evenodd;stroke:#a40000;stroke-width:1.1423;fill:#a40000" d="m27.144 37.653c-0.436 0-0.817-0.135-1.145-0.403-0.321-0.276-0.482-0.658-0.482-1.147 0-0.426 0.153-0.787 0.46-1.084 0.314-0.303 0.696-0.454 1.146-0.455 0.448 0 0.831 0.152 1.145 0.455 0.321 0.296 0.481 0.658 0.481 1.084 0 0.482-0.16 0.861-0.481 1.136-0.321 0.276-0.697 0.414-1.124 0.414zm-1.188-6.795l-0.342-4.946c-0.064-0.964-0.096-1.656-0.096-2.076 0-0.571 0.153-1.015 0.46-1.331 0.314-0.324 0.724-0.485 1.231-0.486 0.613 0 1.023 0.207 1.23 0.619 0.206 0.407 0.31 0.996 0.31 1.766 0 0.455-0.024 0.916-0.074 1.384l-0.461 5.091c-0.05 0.605-0.157 1.07-0.321 1.394-0.164 0.323-0.435 0.485-0.813 0.485-0.385 0-0.653-0.155-0.803-0.465-0.15-0.316-0.257-0.794-0.321-1.435z"/><path id="path8814" style="fill:#fff;fill-rule:evenodd" d="m27.144 36.993c-0.436 0-0.817-0.135-1.145-0.404-0.321-0.275-0.482-0.657-0.482-1.146 0-0.426 0.153-0.787 0.46-1.084 0.314-0.303 0.696-0.454 1.146-0.455 0.448 0 0.831 0.152 1.145 0.455 0.321 0.296 0.481 0.658 0.481 1.084 0 0.482-0.16 0.861-0.481 1.136-0.321 0.276-0.697 0.414-1.124 0.414zm-1.188-6.795l-0.342-4.946c-0.064-0.964-0.096-1.656-0.096-2.076 0-0.571 0.153-1.015 0.46-1.332 0.314-0.323 0.724-0.484 1.231-0.485 0.613 0 1.023 0.207 1.23 0.619 0.206 0.407 0.31 0.995 0.31 1.766 0 0.455-0.024 0.916-0.074 1.384l-0.461 5.09c-0.05 0.606-0.157 1.071-0.321 1.395-0.164 0.323-0.435 0.485-0.813 0.485-0.385 0-0.653-0.155-0.803-0.465-0.15-0.316-0.257-0.794-0.321-1.435z"/><rect id="rect9126" ry="0" style="fill-opacity:.75;fill:#666;fill-rule:evenodd" rx=".018515" transform="matrix(-.64208 -.76663 .76323 -.64613 0 0)" height="42.651" width="1.806" y="-24.285" x="-26.039"/></svg>
