<?xml version="1.0" encoding="UTF-8" standalone="no"?>
<!-- Created with Inkscape (http://www.inkscape.org/) -->
<svg id="svg86343" xmlns:rdf="http://www.w3.org/1999/02/22-rdf-syntax-ns#" xmlns="http://www.w3.org/2000/svg" height="192" width="148" version="1.1" xmlns:cc="http://creativecommons.org/ns#" xmlns:dc="http://purl.org/dc/elements/1.1/">
 <metadata id="metadata86349">
  <rdf:RDF>
   <cc:Work rdf:about="">
    <dc:format>image/svg+xml</dc:format>
    <dc:type rdf:resource="http://purl.org/dc/dcmitype/StillImage"/>
    <dc:title/>
   </cc:Work>
  </rdf:RDF>
 </metadata>
 <g id="g10545" transform="translate(592.43 -287.62)">
  <path id="rect10526" style="stroke-width:1px;color:#000000;stroke:#babdb6;fill:#d3d7cf" d="m349.7 384.96c-2.3083 0-3.2326 1.4954-3.6953 4.5132l-0.47 6.53h-1.41c-1.9944 0-3.5938 1.5994-3.5938 3.5938v116.41l-2.53 29.12c-0.1873 2.1551 1.6259 3.9204 3.75 4.125l4.625 10.906h1.5312v2.1562l5.25 12.375 5.25-12.344v-2.1875h1.5312l4.6562-10.969c1.9669-0.35188 3.5464-2.0222 3.4062-4.0625l-2.47-29.12v-116.41c0-1.9944-1.5994-3.5938-3.5938-3.5938h-1.4062l-0.53-6.52c-0.23272-2.8571-1.262-4.5132-3.6953-4.5132z" transform="translate(-928.41 -95.844)"/>
  <rect id="rect10541" style="stroke-width:1px;color:#000000;stroke:#babdb6;fill:#eeeeec" rx="3.25" ry="3.25" height="22" width="8.75" y="385.91" x="-579.66"/>
  <rect id="rect10543" style="stroke-width:1px;color:#000000;stroke:#babdb6;fill:#eeeeec" rx="3.25" ry="3.25" height="12.25" width="8.75" y="410.91" x="-579.66"/>
 </g>
 <g id="g10631" style="opacity:.2" transform="translate(592.43 -302.48)">
  <path id="path10552" style="stroke:#000;stroke-width:1px;fill:none" d="m352 493h40v-38h83" transform="translate(-928.41 -79.844)"/>
  <path id="path10556" d="m-577.41 309.16h41v19h83" style="stroke:#000;stroke-width:1px;fill:none"/>
  <path id="path10629" style="stroke:#000;stroke-width:1px;fill:none" d="m-573.41 489.16h37v-15h83"/>
  <path id="path86913" d="m-573.41 430.16h37v-5h83" style="stroke:#000;stroke-width:1px;fill:none"/>
 </g>
</svg>
