<?xml version="1.0" encoding="UTF-8" standalone="no"?>
<!-- Created with Inkscape (http://www.inkscape.org/) -->
<svg id="svg1" xmlns:rdf="http://www.w3.org/1999/02/22-rdf-syntax-ns#" xmlns="http://www.w3.org/2000/svg" height="48" width="48" version="1.0" xmlns:cc="http://web.resource.org/cc/" xmlns:xlink="http://www.w3.org/1999/xlink" xmlns:dc="http://purl.org/dc/elements/1.1/">
 <defs id="defs3">
  <linearGradient id="linearGradient5224">
   <stop id="stop5226" offset="0"/>
   <stop id="stop5228" style="stop-opacity:0" offset="1"/>
  </linearGradient>
  <radialGradient id="radialGradient5230" xlink:href="#linearGradient5224" gradientUnits="userSpaceOnUse" cy="26.688" cx="14.5" gradientTransform="matrix(1 0 0 .29375 0 18.848)" r="10"/>
  <filter id="filter5296" height="1.6682" width="1.1963" y="-.33412" x="-.098147">
   <feGaussianBlur id="feGaussianBlur5298" stdDeviation="0.81788793"/>
  </filter>
  <radialGradient id="radialGradient5306" gradientUnits="userSpaceOnUse" cy="7.0922" cx="29.774" gradientTransform="matrix(2.247 0 0 2.247 -37.128 -8.8439)" r="25.38">
   <stop id="stop5302" style="stop-color:#fff" offset="0"/>
   <stop id="stop5304" style="stop-color:#fff;stop-opacity:0" offset="1"/>
  </radialGradient>
  <radialGradient id="radialGradient5233" gradientUnits="userSpaceOnUse" cy="18.898" cx="29.393" gradientTransform="matrix(1.5354 0 0 1.5486 -15.738 -10.367)" r="29.7">
   <stop id="stop5229" style="stop-color:#63b512" offset="0"/>
   <stop id="stop5245" style="stop-color:#58a30e" offset=".16030"/>
   <stop id="stop5235" style="stop-color:#366b04" offset=".66009"/>
   <stop id="stop5231" style="stop-color:#87ea25" offset="1"/>
  </radialGradient>
  <radialGradient id="radialGradient5243" gradientUnits="userSpaceOnUse" cy="16.305" cx="22.938" gradientTransform="matrix(1.5301 0 0 1.6745 -12.16 -11.71)" r="15.562">
   <stop id="stop5239" style="stop-color:#fff" offset="0"/>
   <stop id="stop5247" style="stop-color:#fff" offset=".5"/>
   <stop id="stop5241" style="stop-color:#9c9c9c" offset="1"/>
  </radialGradient>
 </defs>
 <metadata id="metadata4">
  <rdf:RDF>
   <cc:Work rdf:about="">
    <dc:format>image/svg+xml</dc:format>
    <dc:type rdf:resource="http://purl.org/dc/dcmitype/StillImage"/>
    <dc:title>Emblem Urgent</dc:title>
    <dc:creator>
     <cc:Agent>
      <dc:title>Jakub Steiner</dc:title>
     </cc:Agent>
    </dc:creator>
    <dc:contributor>
     <cc:Agent>
      <dc:title>Andreas Nilsson</dc:title>
     </cc:Agent>
    </dc:contributor>
    <cc:license rdf:resource="http://creativecommons.org/licenses/GPL/2.0/"/>
    <dc:subject>
     <rdf:Bag>
      <rdf:li>generic</rdf:li>
     </rdf:Bag>
    </dc:subject>
   </cc:Work>
   <cc:License rdf:about="http://creativecommons.org/licenses/GPL/2.0/">
    <cc:permits rdf:resource="http://web.resource.org/cc/Reproduction"/>
    <cc:permits rdf:resource="http://web.resource.org/cc/Distribution"/>
    <cc:requires rdf:resource="http://web.resource.org/cc/Notice"/>
    <cc:permits rdf:resource="http://web.resource.org/cc/DerivativeWorks"/>
    <cc:requires rdf:resource="http://web.resource.org/cc/ShareAlike"/>
    <cc:requires rdf:resource="http://web.resource.org/cc/SourceCode"/>
   </cc:License>
  </rdf:RDF>
 </metadata>
 <path id="path4645" style="opacity:.53012;color:#000000;filter:url(#filter5296);fill:url(#radialGradient5230)" d="m24.5 26.688a10 2.9375 0 1 1 -20 0 10 2.9375 0 1 1 20 0z" transform="matrix(2.157 0 0 2.1554 -7.8469 -16.338)"/>
 <path id="path5328" style="opacity:.80120;color:#000000;filter:url(#filter5296);fill:url(#radialGradient5230)" d="m24.5 26.688a10 2.9375 0 1 1 -20 0 10 2.9375 0 1 1 20 0z" transform="matrix(1.3479 0 0 1.3469 3.8853 6.489)"/>
 <path id="path907" style="fill-rule:evenodd;stroke:#316203;stroke-width:1.378;fill:url(#radialGradient5233)" d="m58.404 29.208a29.011 29.011 0 1 1 -58.022 0 29.011 29.011 0 1 1 58.022 0z" transform="matrix(.72384 0 0 .72749 2.1828 2.3569)"/>
 <path id="path1552" style="stroke-linejoin:round;stroke:url(#radialGradient5306);stroke-linecap:round;stroke-width:1.2116;fill:none" d="m53.95 30.353a24.176 24.176 0 1 1 -48.351 0 24.176 24.176 0 1 1 48.351 0z" transform="matrix(.82543 0 0 .82527 -1.1458 -1.4441)"/>
 <path id="path5222" style="fill-rule:evenodd;color:#000000;fill:url(#radialGradient5243)" d="m12.875 24.625l12.5 12 18.625-16c-0.746-3.896-2.43-6.945-4.188-9.563l-14.687 12.688-4.75-5.25-7.5 6.125z"/>
 <path id="path5224" style="color:#000000;stroke:#549910;fill:none" d="m40.219 10.812c1.712 2.534 3.374 5.168 4.187 9.5"/>
</svg>
