<?xml version="1.0" encoding="UTF-8" standalone="no"?>
<!-- Generator: Adobe Illustrator 9.0, SVG Export Plug-In  -->
<svg id="svg6850" xmlns:rdf="http://www.w3.org/1999/02/22-rdf-syntax-ns#" height="48px" xmlns="http://www.w3.org/2000/svg" xml:space="preserve" viewBox="0 0 48 48" width="48px" xmlns:cc="http://creativecommons.org/ns#" xmlns:xlink="http://www.w3.org/1999/xlink" xmlns:dc="http://purl.org/dc/elements/1.1/"><metadata id="metadata7234">
  <rdf:RDF>
    <cc:Work rdf:about="">
      <dc:format>image/svg+xml</dc:format>
      <dc:type rdf:resource="http://purl.org/dc/dcmitype/StillImage"/>
      <dc:title/>
      <dc:creator>
        <cc:Agent>
          <dc:title>Jakub Steiner</dc:title>
        </cc:Agent>
      </dc:creator>
      <dc:contributor>
        <cc:Agent>
          <dc:title>Andreas Nilsson</dc:title>
        </cc:Agent>
      </dc:contributor>
      <cc:license rdf:resource="http://creativecommons.org/licenses/GPL/2.0/"/>
      <dc:source>http://jimmac.musichall.cz</dc:source>
    </cc:Work>
    <cc:License rdf:about="http://creativecommons.org/licenses/GPL/2.0/">
      <cc:permits rdf:resource="http://web.resource.org/cc/Reproduction"/>
      <cc:permits rdf:resource="http://web.resource.org/cc/Distribution"/>
      <cc:requires rdf:resource="http://web.resource.org/cc/Notice"/>
      <cc:permits rdf:resource="http://web.resource.org/cc/DerivativeWorks"/>
      <cc:requires rdf:resource="http://web.resource.org/cc/ShareAlike"/>
      <cc:requires rdf:resource="http://web.resource.org/cc/SourceCode"/>
    </cc:License>
  </rdf:RDF>
</metadata>
<defs id="defs7232"><radialGradient id="radialGradient5031" xlink:href="#linearGradient5060" gradientUnits="userSpaceOnUse" cy="486.65" cx="605.71" gradientTransform="matrix(-2.7744 0 0 1.9697 112.76 -872.89)" r="117.14"/><linearGradient id="linearGradient5060"><stop id="stop5062" offset="0"/><stop id="stop5064" style="stop-opacity:0" offset="1"/></linearGradient><radialGradient id="radialGradient5029" xlink:href="#linearGradient5060" gradientUnits="userSpaceOnUse" cy="486.65" cx="605.71" gradientTransform="matrix(2.7744 0 0 1.9697 -1891.6 -872.89)" r="117.14"/><linearGradient id="linearGradient5027" y2="609.51" gradientUnits="userSpaceOnUse" x2="302.86" gradientTransform="matrix(2.7744 0 0 1.9697 -1892.2 -872.89)" y1="366.65" x1="302.86"><stop id="stop5050" style="stop-opacity:0" offset="0"/><stop id="stop5056" offset=".5"/><stop id="stop5052" style="stop-opacity:0" offset="1"/></linearGradient><linearGradient id="linearGradient2152">
  <stop id="stop2154" style="stop-color:#9aa29a" offset="0"/>
  <stop id="stop2156" style="stop-color:#b5beb5" offset="1"/>
</linearGradient><linearGradient id="linearGradient11402" y2="26.023" gradientUnits="userSpaceOnUse" y1="4.7462" gradientTransform="matrix(.84144 0 0 .87204 4.9958 7.0233)" x2="18.475" x1="11.573"><stop id="stop15109" style="stop-color:#fff" offset="0"/><stop id="stop15111" style="stop-color:#e2e2e2" offset="1"/></linearGradient><linearGradient id="linearGradient11404" y2="15.257" gradientUnits="userSpaceOnUse" y1="15.257" gradientTransform="matrix(.84144 0 0 .87204 4.9958 7.0233)" x2="30.6" x1="2.0619"><stop id="stop2138" style="stop-color:#989690" offset="0"/><stop id="stop2140" style="stop-color:#656460" offset="1"/></linearGradient><linearGradient id="linearGradient11406" y2="17.877" gradientUnits="userSpaceOnUse" y1="7.2311" gradientTransform="matrix(.9837 0 0 .74593 4.9958 7.0233)" x2="13.467" x1="5.8266"><stop id="stop18915" style="stop-color:#ededed" offset="0"/><stop id="stop18917" style="stop-color:#c8c8c8" offset="1"/></linearGradient><linearGradient id="linearGradient11408" y2="29.569" gradientUnits="userSpaceOnUse" y1="15.148" gradientTransform="matrix(1.1394 0 0 .64398 4.9958 7.0233)" x2="15.311" x1="10.184"><stop id="stop2168" style="stop-color:#fff" offset="0"/><stop id="stop2170" style="stop-color:#dcdcdc" offset="1"/></linearGradient><linearGradient id="linearGradient11410" y2="52.091" xlink:href="#linearGradient2152" gradientUnits="userSpaceOnUse" y1="37.197" gradientTransform="matrix(1.5375 0 0 .47726 4.9958 7.0233)" x2="9.8855" x1="8.9156"/><linearGradient id="linearGradient11414" y2="24.133" gradientUnits="userSpaceOnUse" y1="13.686" gradientTransform="matrix(.84142 0 0 .87206 4.9958 7.0233)" x2="21.112" x1="11.233"><stop id="stop9751" style="stop-color:#fff" offset="0"/><stop id="stop9753" style="stop-color:#ededed" offset="1"/></linearGradient><linearGradient id="linearGradient11416" y2="32.203" gradientUnits="userSpaceOnUse" y1="37.785" gradientTransform="matrix(1.5 0 0 .48919 4.9958 7.0233)" x2="9.7619" x1="8.7804"><stop id="stop2276" style="stop-opacity:.12871" offset="0"/><stop id="stop2278" style="stop-opacity:0" offset="1"/></linearGradient></defs>
<g id="g5022" style="opacity:.84925" transform="matrix(.021910 0 0 .020299 43.487 38.882)"><rect id="rect4173" style="opacity:.40206;color:#000000;fill:url(#linearGradient5027)" height="478.36" width="1339.6" y="-150.7" x="-1559.3"/><path id="path5058" style="opacity:.40206;color:#000000;fill:url(#radialGradient5029)" d="m-219.62-150.68v478.33c142.87 0.90045 345.4-107.17 345.4-239.2s-159.44-239.13-345.4-239.13z"/><path id="path5018" style="opacity:.40206;color:#000000;fill:url(#radialGradient5031)" d="m-1559.3-150.68v478.33c-142.87 0.90045-345.4-107.17-345.4-239.2s159.44-239.13 345.4-239.13z"/></g><g id="g11365" transform="matrix(1.5766 0 0 1.5766 -5.5416 -9.4941)">
  <path id="path12723" style="stroke-linejoin:round;fill-rule:evenodd;stroke:url(#linearGradient11404);stroke-width:.63920;fill:url(#linearGradient11402)" d="m7.159 17.268v15.074h23.156l-0.03824-15.002c-0.002-0.846-7.421-9.0266-8.789-9.0266h-5.356c-1.4389 0-8.9726 8.1566-8.9726 8.9551z"/>
  <path id="path18153" style="fill:url(#linearGradient11406);fill-rule:evenodd" d="m7.5283 17.323c-0.2493-0.27 7.4447-8.577 8.6087-8.577h5.2459c1.0945 0 8.7914 8.2223 8.4096 8.6967l-6.8026 8.4529-7.7122-0.19936-7.749-8.3737z"/>
  <path id="path2164" style="fill-opacity:.14620;fill-rule:evenodd" d="m15.141 25.609-4.5928-5.4778 15.544-4.3442 1.8408 3.7804-4.5884 6.0257"/>
  <path id="path2162" style="fill-opacity:.14620;fill-rule:evenodd" d="m14.649 25.495-4.6867-5.517 15.437-4.318l1.988 3.9276-4.5349 5.8919"/>
  <path id="path2160" style="fill-opacity:.14620;fill-rule:evenodd" d="m14.952 25.571-4.8069-5.4242 15.638-4.4245 2.0014 4.0347-4.6286 5.7982"/>
  <path id="path15105" style="fill:url(#linearGradient11408);fill-rule:evenodd" d="m14.838 25.874-4.5928-5.4778 15.477-4.3174 1.8541 3.8875-4.5349 5.8919"/>
  <path id="path14245" style="fill:url(#linearGradient11410);fill-rule:evenodd" d="m16.025 25.012-8.3901 6.872 8.7114-6.0154h5.6482l7.7783 5.9389-7.4303-6.7955h-6.3175z"/>
  <path id="path14339" style="fill-rule:evenodd;color:#000000;fill:url(#linearGradient11410)" d="m7.5536 17.384 7.2128 8.9665 0.66922-0.53538-7.882-8.4311z"/>
  <path id="path15103" style="stroke:url(#linearGradient11414);stroke-width:.63920;fill:none" d="m7.9888 17.456 0.01912 14.02h21.448l-0.03824-13.944c-0.0012-0.45247-6.8841-8.3345-8.2147-8.3345h-4.846c-1.3824 0-8.3686 7.787-8.3679 8.2583z"/>
  <path id="path17393" style="fill:#fff;fill-rule:evenodd" d="m16.318 25.882-7.4792 5.1802 1.3901 0.0038 6.262-4.3021 5.5253-0.89115-5.6982 0.0093z"/>
  <path id="path2174" style="fill:#fff;fill-rule:evenodd" d="m10.35 20.381 0.82984 0.88337 14.274-4.3117 1.7316 3.4459 0.40344-0.44589-1.8471-3.8815-15.392 4.3098z"/>
  <path id="path2272" style="fill:url(#linearGradient11416);fill-rule:evenodd" d="m11.527 21.612 3.7744 4.0421 0.74953-0.64245 6.3175 0.02677 0.50861 0.45507 2.4895-2.9713c-0.722-0.884-13.839-0.911-13.839-0.911z"/>
</g>
</svg>
