/* XPM */
static char *firefox[] = {
/* columns rows colors chars-per-pixel */
"32 32 256 2",
"   c #1F0A03",
".  c #330F09",
"X  c #000836",
"o  c #211220",
"O  c #282036",
"+  c #420E03",
"@  c #541705",
"#  c #701805",
"$  c #6D3812",
"%  c #4E2B3B",
"&  c #6C302F",
"*  c #001147",
"=  c #011C5A",
"-  c #132C5C",
";  c #282C59",
":  c #253255",
">  c #001E67",
",  c #062767",
"<  c #0C306F",
"1  c #032B76",
"2  c #0D3677",
"3  c #133C76",
"4  c #123D7D",
"5  c #213970",
"6  c #523746",
"7  c #354A5E",
"8  c #1D4C7D",
"9  c #3A547A",
"0  c #374F68",
"q  c #4B4848",
"w  c #565867",
"e  c #5F6A68",
"r  c #6C7175",
"t  c #880B03",
"y  c #940E03",
"u  c #990E03",
"i  c #951204",
"p  c #9B1204",
"a  c #9B1D06",
"s  c #A31504",
"d  c #A31D05",
"f  c #AA1905",
"g  c #B71F05",
"h  c #842D11",
"j  c #AB2A08",
"k  c #AB2406",
"l  c #B42A05",
"z  c #B62708",
"x  c #AE330D",
"c  c #BB3B0D",
"v  c #B8350B",
"b  c #C23C0B",
"n  c #C53806",
"m  c #CF3507",
"M  c #9F4D10",
"N  c #B9490D",
"B  c #BD5F0E",
"V  c #A3481D",
"C  c #B45715",
"Z  c #B05118",
"A  c #BF7E1D",
"S  c #B96610",
"D  c #8E5139",
"F  c #A9572A",
"G  c #B95B29",
"H  c #AD4C23",
"J  c #946D2F",
"K  c #B8652C",
"L  c #AF7A3F",
"P  c #BE6E33",
"I  c #C3420D",
"U  c #CD450C",
"Y  c #CD4B0E",
"T  c #C9460A",
"R  c #D34B06",
"E  c #D1460B",
"W  c #D44A0C",
"Q  c #D84906",
"!  c #D3520D",
"~  c #DA540C",
"^  c #D55B0E",
"/  c #DC5D0B",
"(  c #D85907",
")  c #CB4C11",
"_  c #C34B13",
"`  c #CE5412",
"'  c #CA5618",
"]  c #D25512",
"[  c #D35C14",
"{  c #DC5C11",
"}  c #E15709",
"|  c #E25210",
" . c #D5660C",
".. c #DB630D",
"X. c #DE6C0B",
"o. c #D86807",
"O. c #DF7206",
"+. c #CA6212",
"@. c #D66315",
"#. c #DA6413",
"$. c #DC6A16",
"%. c #DB6C1A",
"&. c #D8641C",
"*. c #DF701A",
"=. c #E16B0C",
"-. c #E2740C",
";. c #E27E0A",
":. c #E87B0C",
">. c #E56914",
",. c #E57917",
"<. c #C46A27",
"1. c #CE7031",
"2. c #EA7727",
"3. c #895941",
"4. c #AA5846",
"5. c #8B6A56",
"6. c #947659",
"7. c #AE6D45",
"8. c #9A7F69",
"9. c #CC7F4D",
"0. c #B68B30",
"q. c #DF9013",
"w. c #E6850A",
"e. c #E78B0D",
"r. c #ED950E",
"t. c #E48312",
"y. c #EC8417",
"u. c #F0801D",
"i. c #EB9613",
"p. c #EC9919",
"a. c #F09F19",
"s. c #DFA01E",
"d. c #EFA016",
"f. c #F2A718",
"g. c #F8B81E",
"h. c #D38A22",
"j. c #DC8531",
"k. c #E98C38",
"l. c #F89337",
"z. c #DBA529",
"x. c #EDA624",
"c. c #F4B724",
"v. c #EAB937",
"b. c #F3BA3A",
"n. c #F9C42B",
"m. c #F7C539",
"M. c #FAD43E",
"N. c #AE8556",
"B. c #939373",
"V. c #A99979",
"C. c #AE9473",
"Z. c #A5A27C",
"A. c #D5934F",
"S. c #E58C48",
"D. c #DCAC4F",
"F. c #E0B147",
"G. c #E3AE41",
"H. c #ECA76E",
"J. c #E6C64C",
"K. c #F5CA47",
"L. c #F8D749",
"P. c #F3C953",
"I. c #F9D958",
"U. c #E4C65A",
"Y. c #FDE056",
"T. c #DAC964",
"R. c #EDD765",
"E. c #F6E66F",
"W. c #063988",
"Q. c #144585",
"!. c #164A8B",
"~. c #1C4C8C",
"^. c #1A5596",
"/. c #1B589B",
"(. c #265893",
"). c #305988",
"_. c #2D608F",
"`. c #356D9A",
"'. c #3A749A",
"]. c #3A638B",
"[. c #2C5CAB",
"{. c #1D64A9",
"}. c #1967B2",
"|. c #1E72BB",
" X c #2364A4",
".X c #2268AB",
"XX c #2978BB",
"oX c #3178B9",
"OX c #3670A6",
"+X c #496686",
"@X c #46789D",
"#X c #507290",
"$X c #5C798D",
"%X c #4665A1",
"&X c #6276A3",
"*X c #267DC2",
"=X c #758887",
"-X c #7A8E99",
";X c #538DB4",
":X c #6692AD",
">X c #2A82C6",
",X c #2A85CB",
"<X c #3386C6",
"1X c #358ACA",
"2X c #3494D5",
"3X c #3D9AD7",
"4X c #4893C8",
"5X c #498BCC",
"6X c #56A1C7",
"7X c #45A1D9",
"8X c #55AAD8",
"9X c #74B5D7",
"0X c #45A9E4",
"qX c #51AFE2",
"wX c #55B7E8",
"eX c #7DC2D6",
"rX c #58C5F0",
"tX c #63C3E8",
"yX c #75CCEB",
"uX c #7CD6EE",
"iX c #68D2F1",
"pX c #75D9F3",
"aX c #63CEF1",
"sX c #959D81",
"dX c #B29880",
"fX c #B3B59B",
"gX c #A8B29F",
"hX c #92A6A6",
"jX c #A7B7AB",
"kX c #C49F83",
"lX c #D4A280",
"zX c #D8D48A",
"xX c #85C7DD",
"cX c #8DD0DE",
"vX c #91D3DC",
"bX c #88DBF0",
"nX c #95DEEE",
"mX c #A6DDED",
"MX c #87E4F5",
"NX c #95ECFB",
"BX c #99E7F8",
"VX c #A8EDFA",
"CX c #B6EAF5",
"ZX c #A9F1FD",
"AX c #B7F1FB",
"SX c #BDF1FB",
"DX c #ACE1ED",
"FX c #C3DCD9",
"GX c #C4F4FC",
"HX c #CBF5FC",
"JX c #CBF9FF",
"KX c #D7FAFF",
"LX c #DBFBFF",
"PX c #D1F7FD",
"IX c #C2EAF4",
"UX c None",
/* pixels */
"UXUXUXUXUXUXUXUXUXUXUXUXUX8 _.`.@X@X'.UXUXUXUXUXUXUXUXUXUXUXUXUX",
"UXUXUXUXUXUXUXUXUXUX3 '.6XxXmXCXCXIXDXxX;X8 UXUXUXUXUXUXUXUXUXUX",
"UXUXUXUXUXUXUXUX, ~.5XbXAXJXLXLXLXLXKXHXBX:X$XUXUXUXUXUXUXUXUXUX",
"UXUXUXUXUXUXUX, !.5XyXBXSXHXHXPXPXHXHXGXZXeXhXgXr UXUXUXUXUXUXUX",
"UXUXUXl.k.UX= 3 [.5X9XjXkXFXGXHXHXGXSXAXVXuX4X-XzXB.4.UXUXUXUXUX",
"UXUXUX2.>.6 < w %X&X4.' dXCXSXSXGXSXCXBXbXtX8X:XsXR.V.F UXUXUXUX",
"UXUXUX| | @.<.9.9.G n 7.cXVXAXAXAXAXBXyXtX8X4X:XfXT.R.N.P UXUXUX",
"UXUXUX~ >.>.{ / { Y ] B.pXNXNXZXVXBXMXuXtX8XwXoXsXE.I.J.N.F.UXUX",
"UXUX>.>.| ~ ~ ] ] ] [ H dXgXjXvXNXNXMXMXpXiXrX3X].T.E.K.D.J.UXUX",
"UXUX,./ ~ Q Y W ] ] #.n W | [ -XpXpXpXiXaXrX7X<X{.B.I.P.P.L.UXUX",
"UXUX>.} Q E E E ) ] { 1.H.H.C.;XtXrXrXqX0X0XXX.X{.e K.L.I.M.UXUX",
"UXu.} Q E E E Y W [ &.S.lX-X%X7XwXwXqX1XXX1X>X^.(.w v.J.Y.m.h.UX",
"UXu.{ E E E Y Y ] &.2.k.r *X3X0X0X3X<XoX X X^.!.+XV.D.b.I.b.+.UX",
"UX2.| W E E ] ' ' &.<.A.=X,X2X2X2X,X X^.^.!.!.Q.9 R.K.b.L.v.F UX",
"UX,.~ E ) ] ] c a a 6 ).].*X*X*X>X>X.X^.!.Q.8 8 0 J.M.n.M.z.D UX",
"UX| W E W ] ` d d j w }.}.|.|.*X|.|.|.{.Q.W.2 2 7 J.J.n.n.0.0.UX",
"UX| m U Y [ _ j l n P +X{.}.}.OX#X@X.X/.W.3 2 < q J.m.c.c.s.s.UX",
"UXm b n Y ] ! n n R X.1.5.e 5.P j.D.V.(.2 < < : 0.c.n.c.f.i.w.UX",
"UXm n v ) ` [ W Q } Y ' >.*.,.$.#.K 6.(.2 , = q x.x.g.d.r.;.UXUX",
"UXUXz z b ) [ { } } ) j c _ N c & 5 W.W., = = J p.f.f.e.w.o.UXUX",
"UXUXz f z c ' '  ...#.` h & % ; 2 W.1 1 > , : h.d.r.r.w.o.N UXUX",
"UXUXg s p k ) ` @.$.%.$.F 6 ; 1 > * X X O 6 J x.p.w.w.O.V 4.UXUX",
"UXUXUXf p y j ) ' [ @.%.$.*.K 6 O o o $ S O.t.p.w.w.O.C 3.A.UXUX",
"UXUXUXUXs y i v ) ` [ @.@.$.$. .+.+.$.-.X.-.:.-.e.*.o.A v.UXUXUX",
"UXUXUXUXf u t p v I Y ` @.@.@.@. ... .^ ^ ..X.t.p.t.i.d.UXUXUXUX",
"UXUXUXUXUXy u t p j I Y ` ` [ ] ! ^ ! ! ..X.-.t.w.w.e.UXUXUXUXUX",
"UXUXUXUXUXUXt i i i d c Y ! ^ / #...=.=.=.=.X.o. .B UXUXUXUXUXUX",
"UXUXUXUXUXUXUX@ i s p d j b U ! ( / / ( ..o.C D V UXUXUXUXUXUXUX",
"UXUXUXUXUXUXUXUX. # d j f z n n m R R ( o.o.C M UXUXUXUXUXUXUXUX",
"UXUXUXUXUXUXUXUXUXUX+ t x x v T I N N C M $ + UXUXUXUXUXUXUXUXUX",
"UXUXUXUXUXUXUXUXUXUXUXUXUX+ . @ # .   UXUXUXUXUXUXUXUXUXUXUXUXUX",
"UXUXUXUXUXUXUXUXUXUXUXUXUXUXUXUXUXUXUXUXUXUXUXUXUXUXUXUXUXUXUXUX"
};
