/* XPM */
static char * gbrainy_xpm[] = {
"32 32 137 2",
"  	c None",
". 	c #3895BD",
"+ 	c #3994BC",
"@ 	c #3995BD",
"# 	c #3795BE",
"$ 	c #3B97BE",
"% 	c #459CC1",
"& 	c #4B9FC3",
"* 	c #80BBD5",
"= 	c #ABD3E3",
"- 	c #C6E1EC",
"; 	c #B7D8E7",
"> 	c #D4E8F1",
", 	c #FFFFFF",
"' 	c #F7FBFC",
") 	c #E2F0F5",
"! 	c #BADAE8",
"~ 	c #8EC3D9",
"{ 	c #4FA1C5",
"] 	c #59A6C8",
"^ 	c #FDFEFE",
"/ 	c #F6FAFC",
"( 	c #B1D5E5",
"_ 	c #EAF4F8",
": 	c #FEFFFF",
"< 	c #CEE5EF",
"[ 	c #74B5D1",
"} 	c #A4CEE1",
"| 	c #FCFDFE",
"1 	c #96C7DC",
"2 	c #D7EAF2",
"3 	c #68AECD",
"4 	c #4099C0",
"5 	c #C8E2ED",
"6 	c #94C6DC",
"7 	c #A1CDE0",
"8 	c #3A96BE",
"9 	c #C4E0EC",
"0 	c #D3E7F0",
"a 	c #D3E8F1",
"b 	c #BFDDEA",
"c 	c #3D97BF",
"d 	c #8BC1D8",
"e 	c #EDF5F9",
"f 	c #9ECBDF",
"g 	c #B3D7E6",
"h 	c #419AC0",
"i 	c #F2F8FB",
"j 	c #D2E7F0",
"k 	c #BCDBE8",
"l 	c #F3F9FB",
"m 	c #68AFCD",
"n 	c #88BFD7",
"o 	c #E5F1F6",
"p 	c #BCDBE9",
"q 	c #EEF6F9",
"r 	c #D6E9F1",
"s 	c #B4D6E6",
"t 	c #B4D7E6",
"u 	c #B4D7E7",
"v 	c #B7D9E7",
"w 	c #F5FAFC",
"x 	c #3E98BF",
"y 	c #BDDCE9",
"z 	c #E1EFF5",
"A 	c #B1D6E5",
"B 	c #93C5DB",
"C 	c #C3DFEB",
"D 	c #A9D1E2",
"E 	c #7CB9D4",
"F 	c #E8F3F7",
"G 	c #B8D9E8",
"H 	c #C8E2EC",
"I 	c #9FCCDF",
"J 	c #F1F8FA",
"K 	c #AFD5E4",
"L 	c #C2DEEB",
"M 	c #A8D1E2",
"N 	c #A9D1E3",
"O 	c #83BDD5",
"P 	c #DDEDF4",
"Q 	c #EBF5F9",
"R 	c #95C7DC",
"S 	c #B3D6E6",
"T 	c #C6E1ED",
"U 	c #CDE4EE",
"V 	c #52A3C6",
"W 	c #FAFDFD",
"X 	c #A3CFE0",
"Y 	c #8CC2D9",
"Z 	c #70B3D0",
"` 	c #F4F9FB",
" .	c #ACD3E3",
"..	c #FBFDFE",
"+.	c #84BDD6",
"@.	c #4C9FC3",
"#.	c #C8E1ED",
"$.	c #CCE4EE",
"%.	c #A4CFE1",
"&.	c #EFF7FA",
"*.	c #C5E1EC",
"=.	c #C5E0EC",
"-.	c #CBE3EE",
";.	c #CDE4EF",
">.	c #8CC1D9",
",.	c #98C8DD",
"'.	c #F3F8FB",
").	c #5AA7C8",
"!.	c #ACD3E4",
"~.	c #82BCD6",
"{.	c #86BFD7",
"].	c #F8FBFD",
"^.	c #B9DAE8",
"/.	c #DDEDF3",
"(.	c #95C6DC",
"_.	c #499EC3",
":.	c #8DC2D9",
"<.	c #D5E9F1",
"[.	c #C4DFEB",
"}.	c #A6D0E1",
"|.	c #84BDD7",
"1.	c #7FBBD5",
"2.	c #7AB8D3",
"3.	c #EBF4F8",
"4.	c #9AC9DE",
"5.	c #FAFCFD",
"6.	c #E3F0F6",
"7.	c #56A5C7",
"8.	c #61ABCA",
"9.	c #EFF6FA",
"0.	c #AAD2E3",
"a.	c #3C97BE",
"b.	c #4A9FC3",
"c.	c #71B3D0",
"d.	c #57A6C7",
"e.	c #3894BD",
"f.	c #3894BE",
"  . . . . . . . . . . . . . . . . . . . . . . . . . . . . . +   ",
"@ . . . . . . . . . . . . . . . . . . . . . . . . . . . . . . # ",
". . . . . . . . . . . . . . . . . . . . . . . . . . . . . . . . ",
". . . . . . . . . . . . . $ % $ . . . . . . . . . . . . . . . . ",
". . . . . . . . . & * = - ; > , ' ) ! ~ { . . . . . . . . . . . ",
". . . . . . . ] ! ^ , , , , / ( _ , , , : < [ @ . . . . . . . . ",
". . . . . $ } | , , , , , , , , 1 , , , , , , 2 3 . . . . . . . ",
". . . . 4 5 , , , , , , , , , , 6 , , , , , , , ^ 7 8 . . . . . ",
". . . @ 9 , , , , , , , , , , 0 a , , , , , , , , , b c . . . . ",
". . . d , , , , , , , , , , e f , , , , , , , , , , , g . . . . ",
". . h i , , , , , , , , , j k , , , , , , , , , l ^ , , m . . . ",
". . n , , , , , , , , , o p , , , , , q r s t - u v w : 1 x . . ",
". . y , , , , , , , , , p z , , , , 2 A B ^ ^ q , , C D ' E . . ",
". . o , , , , , , , , , F G , H I A z , J K L : , , , , , M . . ",
". . _ , , , , , , , , : N O t P , , , , , , Q R , , , , , < . . ",
". . S , , , , , , , , T / , , , , , , , , , , - U , , , , F . . ",
". . V w , , , , , W X z , , , , , , , , , , , W Y , , , , l . . ",
". . . Z ` , , , ,  .^ , , , , , , , , , , , , ..+., , , , W . . ",
". . . . @.I #.$.%.&., , , , , , , , , , , , , 2 d *.=.-.;.=.. . ",
". . . . . . . . >., , , , , , , , , , , , , , ,.'., , , - . . . ",
". . . . . . . . ).^ , , , , , , , , , , , &.!.Q , , , , ~.. . . ",
". . . . . . . . . {.]., , , , , , , ..< ^./., , , , , , (.. . . ",
". . . . . . . . . . _.:.y <.2 [.}.|.1., , , , , , , , , 2.. . . ",
". . . . . . . . . . . . . . . { 3., 4.5., , , , , , , ) x . . . ",
". . . . . . . . . . . . . . . . =., 6.* / , , , , , z 7.. . . . ",
". . . . . . . . . . . . . . . . 8.: , 9.:.B v ^.0.E a.. . . . . ",
". . . . . . . . . . . . . . . . . Z 9., W b.. . . . . . . . . . ",
". . . . . . . . . . . . . . . . . . [ , , N . . . . . . . . . . ",
". . . . . . . . . . . . . . . . . . $ e , j $ . . . . . . . . . ",
". . . . . . . . . . . . . . . . . . . c.d.. . . . . . . . . . . ",
"# . . . . . . . . . . . . . . . . . . . . . . . . . . . . . . e.",
"  . . . . . . . . . . . . . . . . . . . . . . . . . . . . . f.  "};
