/* XPM */
static char *gnome-system-log.xpm[] = {
/* columns rows colors chars-per-pixel */
"32 32 245 2",
"   c black",
".  c #014100DB0051",
"X  c #01D801300046",
"o  c #026501AB00A6",
"O  c #02F2020900B9",
"+  c #0301026D0116",
"@  c #0420029B00EC",
"#  c #042202BE0174",
"$  c #04A603230129",
"%  c #0584039A015B",
"&  c #049C03C2024F",
"*  c #057C041001D4",
"=  c #0610045C01EA",
"-  c #06C204F2027F",
";  c #065805100252",
":  c #07F105FB02E0",
">  c #09B306840278",
",  c #096F06D70382",
"<  c #090A071C0324",
"1  c #0A9106B701F2",
"2  c #0A98071F02CC",
"3  c #0B6406EB027E",
"4  c #0A6A07CF0468",
"5  c #0DB00871024C",
"6  c #0C1408BF0483",
"7  c #0C80098004C0",
"8  c #0D5909DB0536",
"9  c #0ED80ADD04C0",
"0  c #12A20C100412",
"q  c #136A0CF705B6",
"w  c #138C0DF10762",
"e  c #13490E900674",
"r  c #16B40FA405C7",
"t  c #18060F5605EF",
"y  c #13C00EDE0868",
"u  c #145D0F1708A4",
"i  c #18591101071A",
"p  c #19DC1161067C",
"a  c #1CA0123B0524",
"s  c #1E0615560B4E",
"d  c #226B156B05AD",
"f  c #21F5170809D8",
"g  c #21A818990AF2",
"h  c #212518850B68",
"j  c #22CD18770A50",
"k  c #22C318820C65",
"l  c #226D1B1F0D14",
"z  c #29EF1F2C0E47",
"x  c #2ADD1E5C10AC",
"c  c #32961FC009C9",
"v  c #329D1F8A0AEF",
"b  c #35451F8808B6",
"n  c #2B2920E00F8F",
"m  c #301520430BF0",
"M  c #2B1E233D114D",
"N  c #3057218F0D23",
"B  c #3383222D0C15",
"V  c #36C5229A0CD4",
"C  c #3D6524520A85",
"Z  c #3EF527AF0B99",
"A  c #3C7B28370EE3",
"S  c #3EED28860D47",
"D  c #3FA028410C7E",
"F  c #3FF328F50D11",
"G  c #337B264A1559",
"H  c #37DE2567118B",
"J  c #31FB289C13CB",
"K  c #32EE287113AE",
"L  c #368829661404",
"P  c #36C42A17171C",
"I  c #33F829D81BD5",
"U  c #389724DB10EC",
"Y  c #3AB42B411986",
"T  c #3D992E401AE2",
"R  c #3D0C3069180D",
"E  c #412A2CEA11AA",
"W  c #44732D1411D1",
"Q  c #42A9304C15F2",
"!  c #460730AF131F",
"~  c #441136B21F4E",
"^  c #46EA3535184E",
"/  c #4E73337412FF",
"(  c #4EB23AEE1A27",
")  c #506D32410DF0",
"_  c #51C535AC13DC",
"`  c #530834F21724",
"'  c #55D538CC1697",
"]  c #54453BB31DF1",
"[  c #54193EB21C9F",
"{  c #52FB401D1F20",
"}  c #56933EAB1AD3",
"|  c #4D6D3B74244F",
" . c #50A03EF325BE",
".. c #672F3E181176",
"X. c #67803E361124",
"o. c #5DC0404C191F",
"O. c #53844184214D",
"+. c #55C9455825E1",
"@. c #599143432353",
"#. c #5A6A428627A8",
"$. c #590144BE2179",
"%. c #59AE47D92D44",
"&. c #615B435A1A5C",
"*. c #626540AA1D6A",
"=. c #640A44CC1B5C",
"-. c #630F457A1E85",
";. c #6B6E41A4145C",
":. c #6C03451B17EC",
">. c #6D4744551601",
",. c #6EDD48F71B7F",
"<. c #7021487E1BF4",
"1. c #72BC4C2C1E23",
"2. c #64E545D12100",
"3. c #630D48D422C5",
"4. c #63A248BC22C7",
"5. c #646B4CEF2EA4",
"6. c #686D4798250C",
"7. c #6AE24CBA25AE",
"8. c #6DFD4E0E21B8",
"9. c #69D0515627D2",
"0. c #6FF352B627E4",
"q. c #6CE952F12C0F",
"w. c #6BDC568C36E2",
"e. c #6A0559713052",
"r. c #72BC4E432172",
"t. c #739351C224AD",
"y. c #75EE52872BAA",
"u. c #754657592C09",
"i. c #771E563E2DA8",
"p. c #755459D52FFB",
"a. c #7B0353FB2457",
"s. c #799F57913303",
"d. c #78B859363350",
"f. c #7E035FE43062",
"g. c #7FB35E8B3045",
"h. c #7BAF628B37DF",
"j. c #7FDA624032AF",
"k. c #7EB360903595",
"l. c #98865E9D1F5D",
"z. c #8322587D2290",
"x. c #80EA5EFA2E06",
"c. c #8AED5C31267F",
"v. c #96DF5D662328",
"b. c #951B5FC627A3",
"n. c #994F605925FA",
"m. c #9A78603B248A",
"M. c #834F61BF3120",
"N. c #83C461CE31B5",
"B. c #8507620E36B0",
"V. c #868D63B03AC5",
"C. c #86EA66A93B06",
"Z. c #8F66639036F4",
"A. c #8CF567573BA9",
"S. c #8C03697D38BF",
"D. c #8E8869E43A76",
"F. c #8D546B523C61",
"G. c #93C062F62886",
"H. c #9481632F29D0",
"J. c #97EA65D22ED5",
"K. c #9D8F62FD268E",
"L. c #996366362D6E",
"P. c #9BEE66972D7A",
"I. c #A02566E92B0C",
"U. c #9F4C6BCA2D10",
"Y. c #94AD69463B37",
"T. c #98676BA53850",
"R. c #95BD6DE53D94",
"E. c #9A6C679335B7",
"W. c #9BC4707539A0",
"Q. c #9FA775893E94",
"!. c #A28A6B292D4E",
"~. c #ABAB6C0D24B4",
"^. c #A75D6E9537FF",
"/. c #A350721E3E8B",
"(. c #A424770A3D3F",
"). c #A49179843FBB",
"_. c #AED7740331B0",
"`. c #AE2E754334F0",
"'. c #AA4179013EB8",
"]. c #B0F773C532FA",
"[. c #B1157533379F",
"{. c #B39176C0376B",
"}. c #B2F97ACB3D65",
"|. c #B3307CE93F2A",
" X c #B69F7C173860",
".X c #B8ED7D933DA2",
"XX c #C0977FB338E9",
"oX c #8470680241A0",
"OX c #98A27040435A",
"+X c #940A769D49A8",
"@X c #926879724511",
"#X c #9AF97953459B",
"$X c #9BED7C444CEF",
"%X c #A5D6764D43C0",
"&X c #A6BE7B814347",
"*X c #A6C87EE5476B",
"=X c #B0317CEF4478",
"-X c #A9E07DC84B68",
";X c #B2557AC842DF",
":X c #B4B27C51442D",
">X c #B4B27E6540F1",
",X c #B5087CEA4223",
"<X c #B66C7DDD4348",
"1X c #B5537D014706",
"2X c #B5837F09456D",
"3X c #B8B2806E4804",
"4X c #A94180F64DFF",
"5X c #AC4484044CB3",
"6X c #AD5983FA4E46",
"7X c #ADF882F84F5F",
"8X c #A74D845E5135",
"9X c #AF5C8A3B57FB",
"0X c #B6158184473E",
"qX c #B20982394BBB",
"wX c #B192878B4EBC",
"eX c #B877841F4BB6",
"rX c #B59B851C4C25",
"tX c #BA2B80E94549",
"yX c #BD8D847646A1",
"uX c #BD6C875C4694",
"iX c #BB13842B4964",
"pX c #BBCB871A49C4",
"aX c #BB5B88584D2E",
"sX c #BCD1847E49F8",
"dX c #BCCF84E0498F",
"fX c #BFC089814E33",
"gX c #BFA78D224E70",
"hX c #B5B1892A50C1",
"jX c #B0D08D945A3A",
"kX c #B5118F665A68",
"lX c #B73D8E6458C4",
"zX c #B95386E65152",
"xX c #BACF8881507B",
"cX c #BC8D8BDF50A4",
"vX c #BBAF8CEA55E6",
"bX c #BCCD90BA5822",
"nX c #C00594E45CE3",
"mX c #C1198D6253CC",
"MX c #C0F88FE757CF",
"NX c #C6A3903C549E",
"BX c #C24C91C45823",
"VX c #C12A911C5893",
"CX c #C11996B95E11",
"ZX c #C5F696845A30",
"AX c None",
/* pixels */
"AXAXAXAXAXAXAXAXAXAXAXAXAXAXAXAXAXAXAXAXAXAXAXAXAXAXAXAXAXAXAXAX",
"AXAXAXAXAXAXAXAXAXAXAXAXAXAXAXAXAXAXAXAXAXAXAXAXAXAXAXAXAXAXAXAX",
"AXAXAXAXAXAXAXAXAXAXAXAXAXAXAXAXAXAXAXAXAXAXAXAXAXAXAXAXAXAXAXAX",
"AXAXAXAXAXAXAXAXAXAXAXAXAXAXAXAXAXAXAXAXAXAXAXAXAXAXAXAXAXAXAXAX",
"AXAXAXAXAXAXAXAXAXAXAXAXAXAXAXAXAXAXAXAXAXAXAXAXAXAXAXAXAXAXAXAX",
"AXAXAXAXAXAXAXAXAXAXAXAXAXAXAXAXAXAXAXAXAXAXAXAXAXAXAXAXAXAXAXAX",
"AXAXAXAXAXAXAXAXAXAXAXAXAXAXAXAXAXAXAXAXAXAXAXAXAXAXAXAXAXAXAXAX",
"AXAXAXAXAXAXAXAXAXAXAXAXAXAXAXAXAXAXAXAXAXAXAXAXAXAXAXAXAXAXAXAX",
"AXAXAXAXAXAXAXAXAXAXAXAXAXAXAXAXAXAXAXAXAXAXAXAXAXAXAXAXAXAXAXAX",
"AXAXAX1 5         AXAXAXAXAXAXAXAXAXAXAXAXAXAXAXAXAXAXAXAXAXAXAX",
"AXAX  i W H k 1               AXAXAXAXAXAXAXAXAXAXAXAXAXAXAXAXAX",
"AXAXd :.P.E.Z.s.#.G u 6 :                                       ",
"AX  b ~.XX:XzXMXvX-XOXV.5.| Y x s y 7 &                         ",
"AX  C l.I.^.;XmXZXeXcXVXvXhXqX%XY.A.B.y.*._ U k q 6 1 :         ",
"AX: v _ ' 2.i.R.'.`.pXgXpXtX:X2X1X3XpXsX2X:X/.T.D.C.d.6.] w     ",
"AX  V 1.-.3.3.7.a.H.!.!._.].{..XyXiXfXNXMXCXCXkXkXjX9X7X6XT     ",
"AX  5 B N N N S / o.&.-.r.z.c.P.`.{.<X|.}.<XaXcXrXwX5X-X$X%.    ",
"            : 1 0 r h P | q.p.x.H.K.K.l.m.G.P.W.Q.(.(.&X*Xh.7   ",
"                  : I w.oXF.g.t.<.;.....>.>.8.t.i.j.M.M.S.@.:   ",
"                  ~ +X8X#XN.9.[ ! S Z Z C E R Q ^ ( } $.{ h     ",
"AX              < e.@Xh.+.R K k q 1 : & & & 1 7 i j z J M &     ",
"AX              + L O.n 7 &                           : :       ",
"AXAX              : :                                           ",
"AXAXAXAXAXAXAX                                                  ",
"AXAXAXAXAXAXAX                                                  ",
"AXAXAXAXAXAXAXAX                  AXAX                        AX",
"AXAXAXAXAXAXAXAX              AXAXAXAXAXAXAXAXAXAXAXAXAXAXAXAXAX",
"AXAXAXAXAXAXAXAXAXAX      AXAXAXAXAXAXAXAXAXAXAXAXAXAXAXAXAXAXAX",
"AXAXAXAXAXAXAXAXAXAXAXAXAXAXAXAXAXAXAXAXAXAXAXAXAXAXAXAXAXAXAXAX",
"AXAXAXAXAXAXAXAXAXAXAXAXAXAXAXAXAXAXAXAXAXAXAXAXAXAXAXAXAXAXAXAX",
"AXAXAXAXAXAXAXAXAXAXAXAXAXAXAXAXAXAXAXAXAXAXAXAXAXAXAXAXAXAXAXAX",
"AXAXAXAXAXAXAXAXAXAXAXAXAXAXAXAXAXAXAXAXAXAXAXAXAXAXAXAXAXAXAXAX"
};
