/* XPM */
static char *thunderbird[] = {
/* columns rows colors chars-per-pixel */
"32 32 256 2",
"   c #04002A",
".  c #070134",
"X  c #0B063D",
"o  c #09083D",
"O  c #100A3A",
"+  c #18103F",
"@  c #242536",
"#  c #060C41",
"$  c #0C0B46",
"%  c #0D0C4D",
"&  c #110946",
"*  c #0B134C",
"=  c #191545",
"-  c #0E0F51",
";  c #0E1552",
":  c #0C155A",
">  c #0F1E58",
",  c #091854",
"<  c #131B5A",
"1  c #161957",
"2  c #0B215A",
"3  c #1E3353",
"4  c #202E4F",
"5  c #352C4E",
"6  c #383A45",
"7  c #3F3658",
"8  c #353753",
"9  c #111760",
"0  c #0D2569",
"q  c #192464",
"w  c #132B66",
"e  c #1A2A66",
"r  c #0A346C",
"t  c #193067",
"y  c #1B3668",
"u  c #0A2B75",
"i  c #132876",
"p  c #0A337E",
"a  c #0E3A7C",
"s  c #1E3070",
"d  c #123870",
"f  c #193875",
"g  c #14337E",
"h  c #1D3B7C",
"j  c #133377",
"k  c #363061",
"l  c #232872",
"z  c #253C74",
"x  c #323B7A",
"c  c #3E4049",
"v  c #17437F",
"b  c #224369",
"n  c #354463",
"m  c #2C4B7D",
"M  c #274578",
"N  c #355271",
"B  c #484440",
"V  c #404551",
"C  c #514B51",
"Z  c #4F5056",
"A  c #525B5E",
"S  c #625853",
"D  c #474868",
"F  c #5A5D69",
"G  c #54586F",
"H  c #5A5870",
"J  c #625F63",
"K  c #64646A",
"L  c #696968",
"P  c #706763",
"I  c #70676F",
"U  c #6E6E78",
"Y  c #6B6B75",
"T  c #746B7A",
"R  c #91847B",
"E  c #143E8E",
"W  c #143787",
"Q  c #0A4281",
"!  c #0B418D",
"~  c #1B448C",
"^  c #1B468E",
"/  c #1A5A8D",
"(  c #0D4995",
")  c #0A4492",
"_  c #154492",
"`  c #1B4A94",
"'  c #134E9C",
"]  c #164893",
"[  c #095098",
"{  c #0D5A9C",
"}  c #13569D",
"|  c #1B549B",
" . c #1B5A9D",
".. c #11599F",
"X. c #244687",
"o. c #28538A",
"O. c #35598E",
"+. c #3B5C8D",
"@. c #395785",
"#. c #22589F",
"$. c #2B5B9F",
"%. c #265593",
"&. c #345494",
"*. c #1F649D",
"=. c #356295",
"-. c #185AA1",
";. c #285FA1",
":. c #1863A6",
">. c #1E6BB6",
",. c #1A6BBA",
"<. c #1F71B4",
"1. c #2564A4",
"2. c #2A62A3",
"3. c #2869A6",
"4. c #2267AA",
"5. c #226CAA",
"6. c #2C6BA9",
"7. c #216DA6",
"8. c #3B64A3",
"9. c #326AAA",
"0. c #2675AE",
"q. c #3272AC",
"w. c #357CAF",
"e. c #3E76AF",
"r. c #236FB7",
"t. c #2372B4",
"y. c #2B75B3",
"u. c #2373BC",
"i. c #267BBB",
"p. c #2B7CBC",
"a. c #2D7CB6",
"s. c #3C7CB3",
"d. c #347AB6",
"f. c #484A84",
"g. c #405885",
"h. c #4D5B8A",
"j. c #5B5D89",
"k. c #567A9D",
"l. c #7A7490",
"z. c #4072AD",
"x. c #427BB3",
"c. c #4E7DB2",
"v. c #2A7DC1",
"b. c #2678C2",
"n. c #2E81BE",
"m. c #3E83B5",
"M. c #3483BD",
"N. c #3A81BA",
"B. c #3D8BBE",
"V. c #3582B0",
"C. c #7D818C",
"Z. c #4F87A7",
"A. c #4D80AF",
"S. c #5082AE",
"D. c #4F98AB",
"F. c #4385BA",
"G. c #468CBF",
"H. c #4D8EBF",
"J. c #4084B7",
"K. c #5189B5",
"L. c #4D91BD",
"P. c #4592BE",
"I. c #5392BD",
"U. c #5B96BD",
"Y. c #7C91A1",
"T. c #6197BF",
"R. c #6590B3",
"E. c #2D83C3",
"W. c #3285C2",
"Q. c #3887C7",
"!. c #3C8AC4",
"~. c #398CC5",
"^. c #3994C8",
"/. c #428ECA",
"(. c #458BC3",
"). c #4391C9",
"_. c #4992C7",
"`. c #5996C1",
"'. c #5B9DC4",
"]. c #549ACA",
"[. c #5696C2",
"{. c #4B9BD1",
"}. c #5D9DD0",
"|. c #669BC1",
" X c #4DA2C9",
".X c #64A5C9",
"XX c #68A8CB",
"oX c #69A3C6",
"OX c #74A1C6",
"+X c #77B2CE",
"@X c #75B4D3",
"#X c #7DBBD6",
"$X c #7DBADA",
"%X c #888584",
"&X c #918E8D",
"*X c #97928C",
"=X c #8F8A93",
"-X c #978E93",
";X c #959391",
":X c #9A9897",
">X c #A99D94",
",X c #AAA19C",
"<X c #BCAB9C",
"1X c #B4A89D",
"2X c #A198A0",
"3X c #ACA6A3",
"4X c #A9A8A8",
"5X c #B4ACA8",
"6X c #B8B2AA",
"7X c #A0A3B1",
"8X c #BBB9B4",
"9X c #BDBAB7",
"0X c #C2B5A6",
"qX c #C4BEB6",
"wX c #D1C1AF",
"eX c #C7C0B7",
"rX c #CDC2B3",
"tX c #C1C0BB",
"yX c #CBC4BA",
"uX c #CFC8BC",
"iX c #D2C9BC",
"pX c #D6C7B9",
"aX c #DED0BE",
"sX c #B4BEC9",
"dX c #88C2D7",
"fX c #84C2DC",
"gX c #8FC6DA",
"hX c #C8C9C8",
"jX c #D4CDC3",
"kX c #D2CEC9",
"lX c #DCD2C4",
"zX c #DAD4CA",
"xX c #DED8CE",
"cX c #DED9D2",
"vX c #DBD7D2",
"bX c #E0D3C3",
"nX c #E6DBCC",
"mX c #E2DDD3",
"MX c #EBE3D6",
"NX c #E4E1DB",
"BX c #EAE5DC",
"VX c #F1EADE",
"CX c #E5E3E1",
"ZX c #E9E6E0",
"AX c #ECE9E2",
"SX c #EEEEE8",
"DX c #F3EDE4",
"FX c #F1EFEA",
"GX c #F6F0E7",
"HX c #F5F2EA",
"JX c #F9F5ED",
"KX c #FAF7F0",
"LX c #FCFAF4",
"PX c #FEFDF9",
"IX c #F5F4F2",
"UX c None",
/* pixels */
"UXUXUXUXUXUXUXUXUXUXUXUXUXUXUXUXUXUXUXUXUXUXUXUXUXUXUXUXUXUXUXUX",
"UXUXUXUXUXUXUXUXUXUXs.9.x.`.UXUXUXUXUXUXUXUXUXUXUXUXUXUXUXUXUXUX",
"UXUXUXUXUXUXUXUXUX_.q.L..X@X@X'.m.0.:.{ [ UXUXUXUXUXUXUXUXUXUXUX",
"UXUXUXUXUXUXUXUX(.].XXfX$X.XI.w.7.:.t.y.t.t.<.UXUXUXUXUXUXUXUXUX",
"UXUXUXUXUXUXUXx.}.fXdX#X.XI.V.0.a.N.W.n.i.i.i.<.t.UXUXUXUXUXUXUX",
"UXUXUXUXUXUX9.e.#XgX+XT.U.m.0.M.B.B.W.E.W.n.i.E.v.i.UXUXUXUXUXUX",
"UXUXUXUXUXF.$.OXgXoXA.K.P.:.{ 0.P.).^.^.W.W.M.i.p.~.r.UXUXUXUXUX",
"UXUXUXUXI.;.&.gXT.8.x. X0.{ v r d %.~.E.E.W.n.i.W.!.v.,.UXUXUXUX",
"UXUXUX'.w.0 n +X8.k Z.^.{ [ [ ! p 0 r <.E.t.E.M.!.N.r.b.b.UXUXUX",
"UXUXUXL.v @ A U.O.C D.:.Q a p W u u , w ~.Q.M.)._.d.,.b.Q.UXUXUX",
"UXUX.Xq.4 B L K.0.V./ 3 6 Z F Y G 8 = O o.{.!.].y.r.,.b./.d.UXUX",
"UXUX'.=.c L ;XY.N b c J ;XtXCXSXZXhX:XL k ].N.G.>.-.r.W./.m.UXUX",
"UXUX`.m J qXhXl.I L R 8XCXPXPXPXPXLXAX5XF c.q.} u.r.r.!._.s.UXUX",
"UXe.`.m &XFXCX8X1X:XtXHXPXPXPXPXPXLXLXBX:X+. .( d.p.y._.d.-.) UX",
"UX;.x.+.4XKXLXCX3X8XAXKXLXLXLXLXLXPXLXHXqX@.| ] s.v.N.].4.| ( UX",
"UX2.%.+.7XKXLXHXtXkXJXJXIXLXLXPXPXFXcXkXeXk.-.^ _.F.F.J.4.:.' UX",
"UX6.X.F 4XDXJXJXZXzXFXJXLXPXIXCXvXvXNXGXBXR.| ~ `.w.6.1.y.3.' UX",
"UX9.@.%XqXBXJXJXLXHXmXDXZXcXmXBXSXHXJXGXmXc.j m x.| 6.3.J.3.' UX",
"UXUX=.&XvXDXHXHXJXKXAXvXZXHXKXKXJXGXGXDXsX&.H @.` ;.d.2.e.| -.UX",
"UXUXX.U yXmXBXBXDXHXJXJXKXHXJXGXGXVXVXVXkX5X>XO.E 9.9.~ ` | UXUX",
"UXUXg D ,XiXzXmXmXNXBXDXDXDXGXGXDXVXMXMXnXpX-XX.i %.` W E | UXUX",
"UXUXUX9 5 T ,XeXjXzXzXxXnXNXNXMXMXMXMXnXnXaXl.9 % ` W ~ ~ ;.UXUX",
"UXUXUXi $ . + 7 T 3XyXiXiXlXlXlXlXlXbXlXaXiXf.% < W 0 ~ ^ UXUXUX",
"UXUXUXUX9 X . . . = I ,X6XeXeXrXrXrXrXrXwX>Xl & ; ; W g X.UXUXUX",
"UXUXUXUXUX1 X . UX    UXUXP *X1X0X0X0X0X0Xj.1 O & e f , UXUXUXUX",
"UXUXUXUXUXUX; X UXUXUXUXUXUXUXUXS R >X<X=Xx - $ 1 1 # UXUXUXUXUX",
"UXUXUXUXUXUXUXo . UXUXUXUXUXUXUXUXUXUXJ h.q * q 1 o UXUXUXUXUXUX",
"UXUXUXUXUXUXUXUXUXUXUXUXUXUXUXUXUXUXUXg.z 1 w s ; UXUXUXUXUXUXUX",
"UXUXUXUXUXUXUXUXUXUXUXUXUXUXUXUXUXUXg.M 2 t h < UXUXUXUXUXUXUXUX",
"UXUXUXUXUXUXUXUXUXUXUXUXUXUXUXUXy M w > t f UXUXUXUXUXUXUXUXUXUX",
"UXUXUXUXUXUXUXUXUXUXUXUXUXUXUXUXUXUXUXUXUXUXUXUXUXUXUXUXUXUXUXUX",
"UXUXUXUXUXUXUXUXUXUXUXUXUXUXUXUXUXUXUXUXUXUXUXUXUXUXUXUXUXUXUXUX"
};
