/* XPM */
static char *tomboy___[] = {
/* columns rows colors chars-per-pixel */
"16 16 114 2",
"   c #000000",
".  c #4C4226",
"X  c #6B5736",
"o  c #705B39",
"O  c #8F5902",
"+  c #CE5C00",
"@  c #C4A003",
"#  c #C5A104",
"$  c #EDD400",
"%  c #EDD402",
"&  c #EDD403",
"*  c #EDD504",
"=  c #EDD505",
"-  c #EED508",
";  c #EED608",
":  c #EED609",
">  c #EED60A",
",  c #EED60C",
"<  c #EED70D",
"1  c #EED70E",
"2  c #EFD70E",
"3  c #EFD710",
"4  c #EFD711",
"5  c #EFD811",
"6  c #EFD812",
"7  c #EFD813",
"8  c #EFD818",
"9  c #F0D917",
"0  c #F0D919",
"q  c #F0DA1A",
"w  c #F0DA1C",
"e  c #F0DA1D",
"r  c #F1DB20",
"t  c #F1DB21",
"y  c #F2DC24",
"u  c #F2DC25",
"i  c #F2DC26",
"p  c #F2DD28",
"a  c #F2DD2A",
"s  c #F2DD2B",
"d  c #F3DE2E",
"f  c #F3DE2F",
"g  c #F3DF30",
"h  c #F4E034",
"j  c #F4E037",
"k  c #F4E038",
"l  c #F5E13B",
"z  c #9F8154",
"x  c #A18354",
"c  c #A28555",
"v  c #A38555",
"b  c #A48757",
"n  c #D6AE4B",
"m  c #C89F64",
"M  c #CBA165",
"N  c #CDAB6F",
"B  c #D2AC6A",
"V  c #CFAD71",
"C  c #DDC65C",
"Z  c #F6E345",
"A  c #F1E04D",
"S  c #F2E14F",
"D  c #F7E64F",
"F  c #F2E150",
"G  c #F2E151",
"H  c #F3E151",
"J  c #F2E152",
"K  c #F2E153",
"L  c #F1E054",
"P  c #F3E35E",
"I  c #F8E75B",
"U  c #F9E859",
"Y  c #F9E95B",
"T  c #F9E95D",
"R  c #DACD65",
"E  c #DACE65",
"W  c #FAE961",
"Q  c #FAEA63",
"!  c #FAEB65",
"~  c #F4E56A",
"^  c #FAEA68",
"/  c #F1E376",
"(  c #F5E774",
")  c #FBED75",
"_  c #C2AB8A",
"`  c #F6E980",
"'  c #F6EB8A",
"]  c #F7ED96",
"[  c #F1E59E",
"{  c #EFE4A6",
"}  c #F8EFA1",
"|  c #FBF2A8",
" . c #F9F1AC",
".. c #F4EAB0",
"X. c #F7EFB7",
"o. c #FAF2B3",
"O. c #F9F2B7",
"+. c #F9F2B8",
"@. c #FAF2B8",
"#. c #FAF3BB",
"$. c #FAF4BE",
"%. c #EDE5C4",
"&. c #EDE6C5",
"*. c #EEE8C6",
"=. c #EEEAC6",
"-. c #FBF5C1",
";. c #FBF5C4",
":. c #FCF6C7",
">. c #FCF7CA",
",. c #FCF7CC",
"<. c #FDF8CC",
"1. c #FDF8D0",
"2. c #FDF9D2",
"3. c None",
/* pixels */
"# # # # @ # # # # # @ @ @ @ @ 3.",
"# L J J J J J S S J J J H S @ 3.",
"# P $ $ $ $ $ = : : 2 7 0 O O 3.",
"# ~ $ $ $ $ : : 9 9 0 e O =.V O ",
"# ( $ $ = : 9 9 e t i O =.B v O ",
"# ` $ $ : 4 0 e i a O &.N b O 3.",
"# ' $ : 7 0 t i f O &.M v O @ 3.",
"# ] = 2 0 e a h O &.m x O | # 3.",
"@ } : 7 0 i d j o _ v O T o.@ 3.",
"#  .2 9 t a j O . X O U Q X.# 3.",
"# O.2 q i d j   O O T ! ^ [ # # ",
"# @.7 e i d l Z D U Q ) / { n # ",
"# @.@.$.-.;.:.<.<.2.2.<...C # 3.",
"# # # # # # # # @ # # # # # + 3.",
"+ E E E E E E E R E R R R R + 3.",
"+ + + + + + + + + + + + + + + 3."
};
