/* XPM */
static char *tomboy___[] = {
/* columns rows colors chars-per-pixel */
"32 32 181 2",
"   c #643C0B",
".  c #5C410C",
"X  c #62450D",
"o  c #65490E",
"O  c #684B0E",
"+  c #7D5E09",
"@  c #654713",
"#  c #654A12",
"$  c #6A4D13",
"%  c #7E4817",
"&  c #6D5217",
"*  c #6F541D",
"=  c #735513",
"-  c #735810",
";  c #7C611F",
":  c #51462E",
">  c #6C5422",
",  c #755C23",
"<  c #7D5429",
"1  c #7B5E2A",
"2  c #A51C0D",
"3  c #AD2410",
"4  c #E01616",
"5  c #DB2F19",
"6  c #825C15",
"7  c #836715",
"8  c #916717",
"9  c #8B7210",
"0  c #947C18",
"q  c #987F1B",
"w  c #A1711B",
"e  c #AF7D1E",
"r  c #B37F1E",
"t  c #8D6F35",
"y  c #C26500",
"u  c #CC6800",
"i  c #F47A01",
"p  c #A47A72",
"a  c #EF4E4E",
"s  c #FF4040",
"d  c #FF7B7B",
"f  c #B09106",
"g  c #BE9E08",
"h  c #A68E12",
"j  c #BC851F",
"k  c #B39616",
"l  c #B09918",
"z  c #B8A011",
"x  c #AB8029",
"c  c #B09820",
"v  c #A28C3D",
"b  c #B7A022",
"n  c #C09D01",
"m  c #CD9D01",
"M  c #D69100",
"N  c #D09D06",
"B  c #D49C0E",
"V  c #D49D10",
"C  c #C4A001",
"Z  c #C9A102",
"A  c #C6A40A",
"S  c #CDA70C",
"D  c #C5AE12",
"F  c #CDA914",
"G  c #CFA01A",
"H  c #CDB412",
"J  c #D7BF17",
"K  c #D4B21B",
"L  c #C38B20",
"P  c #CA8F22",
"I  c #CC9125",
"U  c #CE962C",
"Y  c #CF9933",
"T  c #D19D3C",
"R  c #C4B125",
"E  c #CFB929",
"W  c #D5B427",
"Q  c #D9BB24",
"!  c #DEA631",
"~  c #D8BF3F",
"^  c #D8C114",
"/  c #EDD402",
"(  c #EED60B",
")  c #E0C813",
"_  c #EED612",
"`  c #EFD813",
"'  c #F0D915",
"]  c #F1DA1D",
"[  c #D9C625",
"{  c #D6C52D",
"}  c #DFC52F",
"|  c #DEC82E",
" . c #D7C733",
".. c #D9C837",
"X. c #DDCC3C",
"o. c #EFD920",
"O. c #F1DC23",
"+. c #F2DD2B",
"@. c #E5CD39",
"#. c #EAD533",
"$. c #F2DE34",
"%. c #F1DE3E",
"&. c #F4E035",
"*. c #F5E23C",
"=. c #9F8146",
"-. c #AE924D",
";. c #AE8F50",
":. c #AF825E",
">. c #A99153",
",. c #BE9C5C",
"<. c #BA8675",
"1. c #D4A347",
"2. c #D7A953",
"3. c #D9AE5E",
"4. c #D9B057",
"5. c #E4B757",
"6. c #E4B759",
"7. c #E5BA5E",
"8. c #DC8064",
"9. c #D39679",
"0. c #C8A665",
"q. c #CCA967",
"w. c #C6A369",
"e. c #D4AF6D",
"r. c #DBB266",
"t. c #DCB66D",
"y. c #DBBA6F",
"u. c #DBB671",
"i. c #D2BA79",
"p. c #E7BF6A",
"a. c #DDC244",
"s. c #DFC64C",
"d. c #E2CC4E",
"f. c #E4D242",
"g. c #E8D443",
"h. c #E8D847",
"j. c #ECDB4D",
"k. c #F2DF42",
"l. c #F6E444",
"z. c #F6E54A",
"x. c #F8E64E",
"c. c #F3E354",
"v. c #F8E753",
"b. c #F9E855",
"n. c #F3E25C",
"m. c #FAE95C",
"M. c #E7C06D",
"N. c #E8C16F",
"B. c #ECDB64",
"V. c #EBDB6B",
"C. c #E8C475",
"Z. c #EAC67B",
"A. c #EDDC73",
"S. c #F4E563",
"D. c #FAEB63",
"F. c #F5E76B",
"G. c #FAEB6C",
"H. c #F7E874",
"J. c #FBED70",
"K. c #F7EA79",
"L. c #F8EB7B",
"P. c #BA8989",
"I. c #B9B3B3",
"U. c #DAA98A",
"Y. c #CBB3AC",
"T. c #C7B0B0",
"R. c #DAC995",
"E. c #E1CF93",
"W. c #E2D49F",
"Q. c #F7EA81",
"!. c #F9ED83",
"~. c #F7EA8E",
"^. c #F9ED8D",
"/. c #FDF082",
"(. c #FBF08B",
"). c #FAEF91",
"_. c #FAF095",
"`. c #FBF19A",
"'. c #FCF2A2",
"]. c #FCF3AB",
"[. c None",
/* pixels */
"[.[.[.[.[.[.[.[.[.[.[.[.[.[.[.[.[.[.[.[.[.[.[.[.[.[.[.[.[.[.[.[.",
"[.[.[.[.[.[.[.[.[.[.[.[.[.[.[.[.[.[.[.[.[.[.[.[.[.[.. [.[.[.[.[.",
"[.[.[.[.[.[.[.[.[.[.[.[.[.[.[.[.[.[.[.[.[.[.[.[.o :.8.% [.[.[.[.",
"[.[.[.[.[.[.[.[.[.[.[.[.[.[.[.[.[.[.[.[.[.[.[.@ 9.d s 5 o [.[.[.",
"[.[.[.[.[.[.[.[.[.[.[.[.[.[.[.[.[.[.[.[.[.[.> Y.T.a 4 3 o [.[.[.",
"[.[.[.[.[.[.[.[.[.[.[.[.[.[.[.[.[.[.[.[.[.$ w.U.I.P.2   [.[.[.[.",
"[.[.[.[.[.[.[.[.[.[.[.[.[.[.[.[.[.[.[.[.> q.r.U <.p X [.[.[.[.[.",
"[.[.[.[.[.[.[.[.[.[.[.[.[.[.[.[.[.[.X 1 e.3.I j < @ [.[.[.[.[.[.",
"[.[.[.[.[.Z Z n Z C C C Z C C g n 6 t u.2.P j O + n [.[.[.[.[.[.",
"[.[.[.[.[.F S.S.S.S.S.S.F.F.F.V.; =.u.1.P 0 X v Q.B.m [.[.[.[.[.",
"[.[.[.[.m Q %./ / / / ( ( ` ^ = -.t.T P 8 @ b &.*.!.A [.[.[.[.[.",
"[.[.[.[.m @.o./ / / ( ( ` H & ,.t.Y L 6 @ E &.&.%.H.W [.[.[.[.[.",
"[.[.[.[.Z j._ / / / ( ( D * 0.r.U L = = | &.*.*.*.G.d.M [.[.[.[.",
"[.[.[.[.A n./ / / ( ' ` = R.y.I r O 7 #.*.*.*.z.z.D.A.m [.[.[.[.",
"[.[.[.[.K z./ / ( ( _ h >.W.E.x X h $.*.*.l.z.z.z.b.^.Z [.[.[.[.",
"[.[.[.m } $./ / ( ( ^ , i.i.-.# c &.*.*.l.l.z.x.v.b.`.F [.[.[.[.",
"[.[.[.m f.o./ / ( ` 9 : > O 0 R  . . .X.f.h.j.c.b.m.(...M [.[.[.",
"[.[.[.Z n.( / ( ( H . - l [ [ {  . ...a.f.h.c.c.m.m./.A.N [.[.[.",
"[.[.[.S c./ ( ( ( z ^ ] O.+.+.&.&.*.l.z.z.v.b.m.D.D.J.'.Z [.[.[.",
"[.[.[.J h./ / ( ' ' ] ] O.+.&.$.*.*.l.z.x.v.m.m.D.D.J.'.s.A [.[.",
"[.[.m @.$./ ( _ ` ' o.o.+.+.&.*.*.*.l.l.x.b.m.D.J.!.`.].s.n [.[.",
"[.[.Z j.S.n.n.S.F.G.H.H.H.K.L.!.^.(._._._.`.`.`.).A...A G [.[.[.",
"[.[.C n C C C C C C C C Z Z n m C C C C C C C C A g f l 4.i [.[.",
"[.[.i M.B B B B B B B B B B B B B B B B B B B B B B B B M.i [.[.",
"[.[.i Z.! ! ! ! ! ! ! ! ! ! ! ! ! ! ! ! ! ! ! ! ! ! ! ! p.i [.[.",
"[.[.i 7.M M M M M M M M M M M M M M M M M M M M M M M M 6.i [.[.",
"[.[.i C.! ! ! ! ! ! ! ! ! ! ! ! ! ! ! ! ! ! ! ! ! ! ! ! Z.i [.[.",
"[.[.i 5.M M M M M M M M M M M M M M M M M M M M M M M M 6.i [.[.",
"[.[.i 5.7.5.5.5.5.5.5.5.5.5.5.5.5.5.5.5.5.5.5.5.5.5.6.6.6.i [.[.",
"[.[.y i i i i i i i i i i i i i i i i i i i i i i i i i i u [.[.",
"[.[.[.[.[.[.[.[.[.[.[.[.[.[.[.[.[.[.[.[.[.[.[.[.[.[.[.[.[.[.[.[.",
"[.[.[.[.[.[.[.[.[.[.[.[.[.[.[.[.[.[.[.[.[.[.[.[.[.[.[.[.[.[.[.[."
};
