<?xml version="1.0" encoding="UTF-8" standalone="no"?>
<!-- Created with Inkscape (http://www.inkscape.org/) -->
<svg id="svg2589" xmlns:rdf="http://www.w3.org/1999/02/22-rdf-syntax-ns#" xmlns="http://www.w3.org/2000/svg" height="128" width="128" version="1.0" xmlns:cc="http://creativecommons.org/ns#" xmlns:dc="http://purl.org/dc/elements/1.1/">
 <metadata id="metadata2594">
  <rdf:RDF>
   <cc:Work rdf:about="">
    <dc:format>image/svg+xml</dc:format>
    <dc:type rdf:resource="http://purl.org/dc/dcmitype/StillImage"/>
    <dc:title/>
   </cc:Work>
  </rdf:RDF>
 </metadata>
 <g id="layer1">
  <path id="path28" style="fill:#dd4814" d="m63.658 7.6865c-31.292 0-56.658 25.366-56.658 56.658 0 31.29 25.366 56.656 56.658 56.656 31.291 0 56.662-25.366 56.662-56.656 0-31.291-25.371-56.658-56.662-56.658"/>
  <g id="g2830">
   <path id="path2828" style="fill:#fff" d="m85.664 62.384c-0.994-11.287-10.464-20.137-22.006-20.137-3.325 0-6.48 0.73975-9.3062 2.0556l-5.2562-9.419c4.3888-2.1728 9.3325-3.4009 14.562-3.4009 3.0412 0 5.9838 0.42238 8.7788 1.1939 0.49375 3.0395 2.2975 5.8399 5.1738 7.5 2.8712 1.6552 6.1938 1.8212 9.07 0.73488 5.5925 5.5005 9.2338 12.981 9.7625 21.314l-10.78 0.158z"/>
   <path id="path2826" style="fill:#fff" d="m86.68 87.775c-2.876-1.087-6.196-0.923-9.07 0.735-2.8762 1.6626-4.68 4.4605-5.1738 7.5-2.795 0.774-5.7375 1.1962-8.7788 1.1962-5.23 0-10.174-1.228-14.562-3.4032l5.2562-9.419c2.8262 1.316 5.9812 2.0558 9.3062 2.0558 11.542 0 21.012-8.8478 22.004-20.137l10.781 0.15862c-0.52875 8.3326-4.17 15.813-9.7625 21.314z"/>
   <path id="path2824" style="fill:#fff" d="m86.701 104.26c-3.6175 2.0898-8.2412 0.84962-10.329-2.7686-2.09-3.6158-0.85-8.2398 2.7688-10.33 3.615-2.0875 8.2412-0.84725 10.329 2.7685 2.09 3.6181 0.85 8.2421-2.7688 10.33z"/>
   <path id="path2822" style="fill:#fff" d="m31.839 72.582c2.3875-1.9482 3.9162-4.9145 3.9162-8.2378 0-3.3252-1.5288-6.2915-3.9162-8.2398 2.0462-7.9175 6.97-14.678 13.589-19.102l5.53 9.2628c-5.6812 3.999-9.395 10.603-9.395 18.079s3.7138 14.08 9.395 18.077l-5.53 9.265c-6.622-4.424-11.546-11.184-13.589-19.104z"/>
   <path id="path2820" style="fill:#fff" d="m25.132 71.908c-4.18 0-7.5662-3.3862-7.5662-7.564 0-4.1798 3.3862-7.5659 7.5662-7.5659 4.1762 0 7.5625 3.3861 7.5625 7.5659 0 4.1778-3.3862 7.564-7.5625 7.564z"/>
   <path id="path2818" style="fill:#fff" d="m76.37 27.198c2.09-3.6181 6.7138-4.8584 10.331-2.771 3.6188 2.0899 4.8562 6.7139 2.7662 10.332-2.0875 3.6182-6.7112 4.856-10.329 2.7661-3.616-2.087-4.856-6.711-2.768-10.327z"/>
  </g>
 </g>
</svg>
