<?xml version="1.0" encoding="UTF-8" standalone="no"?>
<!-- Created with Inkscape (http://www.inkscape.org/) -->
<svg id="svg2387" xmlns:rdf="http://www.w3.org/1999/02/22-rdf-syntax-ns#" xmlns="http://www.w3.org/2000/svg" height="48px" width="48px" xmlns:cc="http://creativecommons.org/ns#" xmlns:dc="http://purl.org/dc/elements/1.1/">
 <metadata id="metadata2392">
  <rdf:RDF>
   <cc:Work rdf:about="">
    <dc:format>image/svg+xml</dc:format>
    <dc:type rdf:resource="http://purl.org/dc/dcmitype/StillImage"/>
    <dc:title>Audio Microphone</dc:title>
    <dc:date>June 2009</dc:date>
    <dc:creator>
     <cc:Agent>
      <dc:title>Luca Ferretti</dc:title>
     </cc:Agent>
    </dc:creator>
    <dc:publisher>
     <cc:Agent>
      <dc:title>gnome.org</dc:title>
     </cc:Agent>
    </dc:publisher>
    <dc:subject>
     <rdf:Bag>
      <rdf:li>audio</rdf:li>
      <rdf:li>input</rdf:li>
      <rdf:li>microphone</rdf:li>
     </rdf:Bag>
    </dc:subject>
    <dc:description>a talk radio style microphone</dc:description>
   </cc:Work>
  </rdf:RDF>
 </metadata>
 <g id="layer1">
  <rect id="rect2387" style="fill:none" rx="0" ry="0" height="48" width="48" y="0" x="0"/>
  <rect id="rect2394" style="stroke-linejoin:round;stroke:#fff;stroke-linecap:round;stroke-width:8;fill:#fff" rx="10" ry="8.9131" height="30" width="20" y="4" x="14"/>
  <path id="path3161" style="stroke-linejoin:round;stroke:#fff;stroke-linecap:round;stroke-width:12;fill:none" d="m9 14v9s-1.0312 15 15 15c16 0 15-15 15-15v-9"/>
  <rect id="rect2399" rx="10" ry="8.9131" height="30" width="20" y="4" x="14"/>
  <path id="rect2401" style="fill:#fff" d="m23 7h2c3.878 0 6 3.804 6 7.288v6.712h-14v-6.712c0-3.484 2.122-7.288 6-7.288z"/>
  <path id="path3168" style="stroke:#fff;stroke-linecap:round;stroke-width:12;fill:none" d="m10 42h29"/>
  <path id="path3174" style="stroke:#000;stroke-linecap:round;stroke-width:4;fill:none" d="m10 42h29"/>
  <path id="path3159" style="stroke-linejoin:round;stroke:#000;stroke-linecap:round;stroke-width:4;fill:none" d="m9 14v9s-1.0312 15 15 15c16 0 15-15 15-15v-9"/>
  <rect id="rect3163" height="3.2248" width="6.2223" y="37.775" x="20.778"/>
 </g>
</svg>
