<?xml version="1.0" encoding="UTF-8" standalone="no"?>
<!-- Created with Inkscape (http://www.inkscape.org/) -->
<svg id="svg3304" xmlns:rdf="http://www.w3.org/1999/02/22-rdf-syntax-ns#" xmlns="http://www.w3.org/2000/svg" height="48px" width="48px" xmlns:cc="http://web.resource.org/cc/" xmlns:dc="http://purl.org/dc/elements/1.1/">
 <metadata id="metadata3309">
  <rdf:RDF>
   <cc:Work rdf:about="">
    <dc:format>image/svg+xml</dc:format>
    <dc:type rdf:resource="http://purl.org/dc/dcmitype/StillImage"/>
    <dc:subject>
     <rdf:Bag>
      <rdf:li>battery</rdf:li>
      <rdf:li>recharge</rdf:li>
      <rdf:li>power</rdf:li>
      <rdf:li>acpi</rdf:li>
      <rdf:li>apm</rdf:li>
     </rdf:Bag>
    </dc:subject>
    <dc:title>Battery</dc:title>
    <dc:date>September 2006</dc:date>
    <dc:creator>
     <cc:Agent>
      <dc:title>Andreas Nilsson</dc:title>
     </cc:Agent>
    </dc:creator>
    <cc:license rdf:resource="http://creativecommons.org/licenses/LGPL/2.1/"/>
   </cc:Work>
   <cc:License rdf:about="http://creativecommons.org/licenses/LGPL/2.1/">
    <cc:permits rdf:resource="http://web.resource.org/cc/Reproduction"/>
    <cc:permits rdf:resource="http://web.resource.org/cc/Distribution"/>
    <cc:requires rdf:resource="http://web.resource.org/cc/Notice"/>
    <cc:permits rdf:resource="http://web.resource.org/cc/DerivativeWorks"/>
    <cc:requires rdf:resource="http://web.resource.org/cc/ShareAlike"/>
    <cc:requires rdf:resource="http://web.resource.org/cc/SourceCode"/>
   </cc:License>
  </rdf:RDF>
 </metadata>
 <g id="layer1">
  <path id="rect7943" style="stroke:#fff;stroke-linecap:round;stroke-width:4;fill:none" d="m20.281 2c-2.928 0-5.281 2.3527-5.281 5.2813v0.7187h-1.844c-3.4052 0-6.156 2.751-6.156 6.156v25.688c0 3.405 2.7508 6.156 6.156 6.156h20.688c3.405 0 6.156-2.751 6.156-6.156v-25.688c0-3.405-2.751-6.156-6.156-6.156h-1.844v-0.7187c0-2.9286-2.353-5.2813-5.281-5.2813h-6.438z"/>
  <rect id="rect5744" style="stroke:#000;stroke-linecap:round;stroke-width:3" rx="1.5004" ry="1.5004" height="31" width="26" y="11.5" x="10.5"/>
  <rect id="rect6634" style="stroke:#000;stroke-linecap:round;stroke-width:3;fill:#fff" rx="1.5004" ry="1.5004" height="6" width="10" y="5.5" x="18.5"/>
  <rect id="rect2758" style="fill:#fff;fill-rule:evenodd" rx="1.5004" ry="1.5004" height="26.209" width="21.267" y="14" x="13"/>
  <path id="path4046" style="fill-rule:evenodd" d="m30 18.032l-4.42 5.389 3.791 3.344-9.274 10.235 1.06-8.986-4.157-3.111 3.881-6.903 9.119 0.032z"/>
 </g>
</svg>
