<?xml version="1.0" encoding="UTF-8" standalone="no"?>
<!-- Created with Inkscape (http://www.inkscape.org/) -->
<svg id="svg3304" xmlns:rdf="http://www.w3.org/1999/02/22-rdf-syntax-ns#" xmlns="http://www.w3.org/2000/svg" height="48px" width="48px" xmlns:cc="http://creativecommons.org/ns#" xmlns:dc="http://purl.org/dc/elements/1.1/">
 <metadata id="metadata3309">
  <rdf:RDF>
   <cc:Work rdf:about="">
    <dc:format>image/svg+xml</dc:format>
    <dc:type rdf:resource="http://purl.org/dc/dcmitype/StillImage"/>
    <dc:title>Computer</dc:title>
    <dc:creator>
     <cc:Agent>
      <dc:title>Luca Ferretti &lt;elle.uca@libero.it&gt;</dc:title>
     </cc:Agent>
    </dc:creator>
    <cc:license rdf:resource="http://creativecommons.org/licenses/GPL/2.0/"/>
    <dc:subject>
     <rdf:Bag>
      <rdf:li>computer</rdf:li>
     </rdf:Bag>
    </dc:subject>
    <dc:date>June 2009</dc:date>
   </cc:Work>
   <cc:License rdf:about="http://creativecommons.org/licenses/GPL/2.0/">
    <cc:permits rdf:resource="http://web.resource.org/cc/Reproduction"/>
    <cc:permits rdf:resource="http://web.resource.org/cc/Distribution"/>
    <cc:requires rdf:resource="http://web.resource.org/cc/Notice"/>
    <cc:permits rdf:resource="http://web.resource.org/cc/DerivativeWorks"/>
    <cc:requires rdf:resource="http://web.resource.org/cc/ShareAlike"/>
    <cc:requires rdf:resource="http://web.resource.org/cc/SourceCode"/>
   </cc:License>
  </rdf:RDF>
 </metadata>
 <g id="layer1">
  <rect id="rect5087" style="fill:none" height="48" width="48" y="0" x="0"/>
  <path id="path3219" style="stroke-linejoin:round;fill-rule:evenodd;stroke:#fff;stroke-linecap:round;stroke-width:12;fill:#fff" d="m9 42h30s-1.98-11-15-11-15 11-15 11z"/>
  <rect id="rect4784" style="fill:none" height="48" width="48" y="0" x="0"/>
  <path id="path3180" style="stroke-linejoin:round;fill-rule:evenodd;stroke:#fff;stroke-linecap:round;stroke-width:8;fill:#fff" d="m8 4h32c2.025 0 4 1.8015 4 4v22h-40v-22c0-1.7738 2.1636-4 4-4z"/>
  <path id="path2175" style="fill-rule:evenodd" d="m8 4h32c2.025 0 4 1.8015 4 4v22h-40v-22c0-1.7738 2.1636-4 4-4z"/>
  <rect id="rect4355" style="fill:#fff;fill-rule:evenodd" height="18" width="32" y="8" x="8"/>
  <path id="path3217" style="stroke-linejoin:round;stroke:#000;stroke-linecap:round;stroke-width:4;fill:none" d="m9 42h30s-1.98-11-15-11-15 11-15 11z"/>
 </g>
</svg>
