<?xml version="1.0" encoding="UTF-8" standalone="no"?>
<!-- Created with Inkscape (http://www.inkscape.org/) -->
<svg id="svg2" xmlns:rdf="http://www.w3.org/1999/02/22-rdf-syntax-ns#" xmlns="http://www.w3.org/2000/svg" sodipodi:docname="drive-removable-media.svg" height="48px" sodipodi:version="0.32" width="48px" xmlns:cc="http://web.resource.org/cc/" xmlns:dc="http://purl.org/dc/elements/1.1/" sodipodi:docbase="/home/luca/Desktop/black-and-white/scalable/devices" xmlns:sodipodi="http://inkscape.sourceforge.net/DTD/sodipodi-0.dtd">
 <sodipodi:namedview id="base" gridspacingy="1.0000000px" gridspacingx="1.0000000px" borderopacity="1.0" showgrid="true" bordercolor="#666666" guidetolerance="1.0000000px" gridoriginy="0.0000000px" gridoriginx="0.0000000px" pagecolor="#ffffff" gridtolerance="1.0000000px"/>
 <metadata id="metadata7">
  <rdf:RDF>
   <cc:Work rdf:about="">
    <dc:format>image/svg+xml</dc:format>
    <dc:type rdf:resource="http://purl.org/dc/dcmitype/StillImage"/>
    <cc:license rdf:resource="http://creativecommons.org/licenses/GPL/2.0/"/>
    <dc:title>Hard disk</dc:title>
    <dc:creator>
     <cc:Agent>
      <dc:title>Luca Ferretti &lt;elle.uca@libero.it&gt;</dc:title>
     </cc:Agent>
    </dc:creator>
    <dc:contributor>
     <cc:Agent>
      <dc:title>Shape based on exising PNG icon in gnome-icon-theme</dc:title>
     </cc:Agent>
    </dc:contributor>
    <dc:subject>
     <rdf:Bag>
      <rdf:li>hard disk</rdf:li>
     </rdf:Bag>
    </dc:subject>
   </cc:Work>
   <cc:License rdf:about="http://creativecommons.org/licenses/GPL/2.0/">
    <cc:permits rdf:resource="http://web.resource.org/cc/Reproduction"/>
    <cc:permits rdf:resource="http://web.resource.org/cc/Distribution"/>
    <cc:requires rdf:resource="http://web.resource.org/cc/Notice"/>
    <cc:permits rdf:resource="http://web.resource.org/cc/DerivativeWorks"/>
    <cc:requires rdf:resource="http://web.resource.org/cc/ShareAlike"/>
    <cc:requires rdf:resource="http://web.resource.org/cc/SourceCode"/>
   </cc:License>
  </rdf:RDF>
 </metadata>
 <g id="layer1">
  <rect id="rect6226" style="fill:none" rx="0" ry="0" height="48" width="48" y="0" x="0"/>
  <path id="path4040" sodipodi:nodetypes="ccccccccc" style="fill-rule:evenodd;stroke:#fff;stroke-width:8;fill:#fff" d="m9 10h30c2.743 0 5 2.257 5 5v18c0 2.743-2.257 5-5 5h-30c-2.7429 0-5-2.257-5-5v-18c0-2.743 2.2571-5 5-5z"/>
  <path id="rect3311" sodipodi:nodetypes="ccccccccc" style="fill-rule:evenodd" d="m9 10h30c2.743 0 5 2.257 5 5v18c0 2.743-2.257 5-5 5h-30c-2.7429 0-5-2.257-5-5v-18c0-2.743 2.2571-5 5-5z"/>
  <path id="path4768" sodipodi:nodetypes="ccccccccc" style="fill:#fff;fill-rule:evenodd" d="m11 14h26c2 0 3 1 3 3v14c0 2-1 3-3 3h-26c-2 0-3-1-3-3v-14c0-2 1-3 3-3z"/>
  <rect id="rect5498" style="fill-rule:evenodd" rx="2" ry="2" height="6" width="24" y="18" x="12"/>
 </g>
</svg>
