<?xml version="1.0" encoding="UTF-8" standalone="no"?>
<!-- Created with Inkscape (http://www.inkscape.org/) -->
<svg id="svg5498" xmlns:rdf="http://www.w3.org/1999/02/22-rdf-syntax-ns#" xmlns="http://www.w3.org/2000/svg" height="48px" width="48px" xmlns:cc="http://web.resource.org/cc/" xmlns:dc="http://purl.org/dc/elements/1.1/">
 <metadata id="metadata5503">
  <rdf:RDF>
   <cc:Work rdf:about="">
    <dc:format>image/svg+xml</dc:format>
    <dc:type rdf:resource="http://purl.org/dc/dcmitype/StillImage"/>
    <dc:title>Mouse</dc:title>
    <dc:creator>
     <cc:Agent>
      <dc:title>Luca Ferretti &lt;elle.uca@libero.it&gt;</dc:title>
     </cc:Agent>
    </dc:creator>
    <dc:subject>
     <rdf:Bag>
      <rdf:li>mouse input device</rdf:li>
     </rdf:Bag>
    </dc:subject>
    <dc:description>A stylized mouse</dc:description>
    <cc:license rdf:resource="http://creativecommons.org/licenses/LGPL/2.1/"/>
   </cc:Work>
   <cc:License rdf:about="http://creativecommons.org/licenses/LGPL/2.1/">
    <cc:permits rdf:resource="http://web.resource.org/cc/Reproduction"/>
    <cc:permits rdf:resource="http://web.resource.org/cc/Distribution"/>
    <cc:requires rdf:resource="http://web.resource.org/cc/Notice"/>
    <cc:permits rdf:resource="http://web.resource.org/cc/DerivativeWorks"/>
    <cc:requires rdf:resource="http://web.resource.org/cc/ShareAlike"/>
    <cc:requires rdf:resource="http://web.resource.org/cc/SourceCode"/>
   </cc:License>
  </rdf:RDF>
 </metadata>
 <g id="layer1" style="display:none">
  <path id="path5587" style="fill-rule:evenodd" d="m37.174 21.717a13.533 11.674 0 1 1 -27.065 0 13.533 11.674 0 1 1 27.065 0z"/>
  <path id="path6474" style="fill-rule:evenodd" d="m37.174 21.717a13.533 11.674 0 1 1 -27.065 0 13.533 11.674 0 1 1 27.065 0z" transform="translate(0 11.609)"/>
  <rect id="rect6476" style="fill-rule:evenodd" rx="0" ry="0" height="12.043" width="27.174" y="22" x="10"/>
  <path id="path7363" style="fill:#fff;fill-rule:evenodd" d="m14.348 22.043a8.7391 8.7391 0 0 1 8.739 -8.739v8.739z" transform="translate(-1.087)"/>
  <path id="path8250" style="fill:#fff;fill-rule:evenodd" transform="matrix(-1 0 0 1 48.348 0)" d="m14.348 22.043a8.7391 8.7391 0 0 1 8.739 -8.739v8.739z"/>
  <path id="path8252" style="fill:#fff;fill-rule:evenodd" d="m13 24h21v10s-0.136 7-10 7c-9.945 0-11-7-11-7v-10"/>
 </g>
 <g id="layer2">
  <path id="path4555" style="fill-rule:evenodd;stroke:#fff;stroke-width:8;fill:#fff" d="m24.043 4.0543c-13.978 0-14 11-14 11v18s-0.1531 10.946 13.957 10.946c13.981 0 14.043-10.946 14.043-10.946v-18s0.109-11-14-11z"/>
  <path id="path1875" style="fill-rule:evenodd" d="m24.043 4.0543c-13.978 0-14 11-14 11v18s-0.1531 10.946 13.957 10.946c13.981 0 14.043-10.946 14.043-10.946v-18s0.109-11-14-11z"/>
  <path id="path3663" style="fill:#fff;fill-rule:evenodd" transform="matrix(-1 0 0 1 48.37 1.0217)" d="m14.37 15.978c0-5 3-8.9997 8-8.9997v8.9997h-8z"/>
  <path id="path3665" style="fill:#fff;fill-rule:evenodd" d="m14 21h20v11s0.98 8-10 8c-10.915 0-10-8-10-8v-11z"/>
  <path id="path4553" style="fill:#fff;fill-rule:evenodd" d="m14 17c0-5 3-9 8-9v9h-8z"/>
 </g>
</svg>
