<?xml version="1.0" encoding="UTF-8" standalone="no"?>
<!-- Created with Inkscape (http://www.inkscape.org/) -->
<svg id="svg2383" xmlns:rdf="http://www.w3.org/1999/02/22-rdf-syntax-ns#" xmlns="http://www.w3.org/2000/svg" height="48px" width="48px" xmlns:cc="http://creativecommons.org/ns#" xmlns:xlink="http://www.w3.org/1999/xlink" xmlns:dc="http://purl.org/dc/elements/1.1/">
 <metadata id="metadata2388">
  <rdf:RDF>
   <cc:Work rdf:about="">
    <dc:format>image/svg+xml</dc:format>
    <dc:type rdf:resource="http://purl.org/dc/dcmitype/StillImage"/>
   </cc:Work>
  </rdf:RDF>
 </metadata>
 <g id="layer1">
  <rect id="rect3189" style="fill:none" transform="rotate(90)" height="48" width="48" y="-48" x="0"/>
  <rect id="rect3221" style="stroke-linejoin:round;stroke:#fff;stroke-width:8;fill:#fff" transform="rotate(90)" height="12" width="14" y="-43" x="17"/>
  <rect id="rect3247" style="stroke-linejoin:round;stroke:#fff;stroke-width:8" ry="1.732" height="18" width="18" y="15" x="26"/>
  <path id="path3249" style="stroke-linejoin:round;fill-rule:evenodd;stroke:#fff;stroke-width:8" d="m27 12v24h-14c-5 0-9-4-9-12s4-12 9-12h14z"/>
  <path id="path2417" style="fill-rule:evenodd" d="m27 12v24h-14c-5 0-9-4-9-12s4-12 9-12h14z"/>
  <rect id="rect3245" ry="1.732" height="18" width="18" y="15" x="26"/>
  <rect id="rect3191" ry=".86598" style="fill:#fff" rx="0" transform="rotate(90)" height="14" width="14" y="-42" x="17"/>
  <rect id="rect3193" transform="rotate(90)" height="4" width="3" y="-37" x="19"/>
  <use id="use3241" xlink:href="#rect3193" transform="translate(0,7)" height="48" width="48" y="0" x="0"/>
 </g>
</svg>
