<?xml version="1.0" encoding="UTF-8" standalone="no"?>
<!-- Created with Inkscape (http://www.inkscape.org/) -->
<svg id="svg2" xmlns:rdf="http://www.w3.org/1999/02/22-rdf-syntax-ns#" xmlns="http://www.w3.org/2000/svg" height="48" width="48" version="1.0" xmlns:cc="http://creativecommons.org/ns#" xmlns:dc="http://purl.org/dc/elements/1.1/">
 <metadata id="metadata7">
  <rdf:RDF>
   <cc:Work rdf:about="">
    <dc:format>image/svg+xml</dc:format>
    <dc:type rdf:resource="http://purl.org/dc/dcmitype/StillImage"/>
    <dc:title>Network Wireless</dc:title>
    <dc:date>December 2008</dc:date>
    <dc:creator>
     <cc:Agent>
      <dc:title>Luca Ferretti &lt;elle.uca@libero.it&gt;</dc:title>
     </cc:Agent>
    </dc:creator>
    <dc:subject>
     <rdf:Bag>
      <rdf:li>network</rdf:li>
      <rdf:li>wireless</rdf:li>
      <rdf:li>antenna</rdf:li>
     </rdf:Bag>
    </dc:subject>
    <dc:description>An antenna with EM waves</dc:description>
   </cc:Work>
  </rdf:RDF>
 </metadata>
 <g id="layer1">
  <rect id="rect3169" style="fill:none" height="48" width="48" y="0" x="0"/>
  <path id="path3201" style="stroke-linejoin:round;stroke:#fff;stroke-linecap:round;stroke-width:12;fill:none" d="m20 34l12 7-8-18-8 18"/>
  <path id="path3199" style="stroke-linejoin:round;stroke:#fff;stroke-linecap:round;stroke-width:11;fill:none" d="m36.35 11.406a14 14 0 0 1 0.143 12.912" transform="matrix(-1 0 0 1 51.85 .13948)"/>
  <path id="path3177" style="stroke-linejoin:round;stroke:#fff;stroke-linecap:round;stroke-width:12;fill:none" d="m39.064 6.4214a19 19 0 0 1 0.176 22.925" transform="matrix(-1 0 0 1 49.123 -.42140)"/>
  <path id="path3175" style="stroke-linejoin:round;stroke:#fff;stroke-linecap:round;stroke-width:12;fill:none" d="m39.064 6.4214a19 19 0 0 1 0.176 22.925" transform="translate(-1.0659 -.42140)"/>
  <path id="path3173" style="stroke-linejoin:round;stroke:#fff;stroke-linecap:round;stroke-width:11;fill:none" d="m36.35 11.406a14 14 0 0 1 0.143 12.912" transform="translate(-3.6001 .13948)"/>
  <path id="path3171" style="stroke-linejoin:round;stroke:#fff;stroke-linecap:round;stroke-width:8;fill:#fff" d="m29 24a5 5 0 1 1 -10 0 5 5 0 1 1 10 0z" transform="translate(0,-6)"/>
  <path id="path2385" d="m29 24a5 5 0 1 1 -10 0 5 5 0 1 1 10 0z" transform="translate(0,-6)"/>
  <path id="path3157" style="stroke-linejoin:round;stroke:#000;stroke-linecap:round;stroke-width:4;fill:none" d="m20 34l12 7-8-18-8 18"/>
  <path id="path3159" style="stroke-linejoin:round;stroke:#000;stroke-linecap:round;stroke-width:3;fill:none" d="m36.35 11.406a14 14 0 0 1 0.143 12.912" transform="translate(-3.6001 .13948)"/>
  <path id="path3163" style="stroke-linejoin:round;stroke:#000;stroke-linecap:round;stroke-width:3;fill:none" transform="matrix(-1 0 0 1 51.6 .13948)" d="m36.43 11.558a14 14 0 0 1 0.1 12.688"/>
  <path id="path3165" style="stroke-linejoin:round;stroke:#000;stroke-linecap:round;stroke-width:4;fill:none" d="m39.064 6.4214a19 19 0 0 1 0.176 22.925" transform="translate(-1.0659 -.42140)"/>
  <path id="path3167" style="stroke-linejoin:round;stroke:#000;stroke-linecap:round;stroke-width:4;fill:none" transform="matrix(-1 0 0 1 49.24 -.34642)" d="m39.064 6.4214a19 19 0 0 1 0.176 22.925"/>
 </g>
</svg>
