<?xml version="1.0" encoding="UTF-8" standalone="no"?>
<!-- Created with Inkscape (http://www.inkscape.org/) -->
<svg id="svg3304" xmlns:rdf="http://www.w3.org/1999/02/22-rdf-syntax-ns#" xmlns="http://www.w3.org/2000/svg" height="48px" width="48px" xmlns:cc="http://web.resource.org/cc/" xmlns:dc="http://purl.org/dc/elements/1.1/">
 <metadata id="metadata3309">
  <rdf:RDF>
   <cc:Work rdf:about="">
    <dc:format>image/svg+xml</dc:format>
    <dc:type rdf:resource="http://purl.org/dc/dcmitype/StillImage"/>
    <dc:title>Phone</dc:title>
    <dc:creator>
     <cc:Agent>
      <dc:title>Andreas Nilsson</dc:title>
     </cc:Agent>
    </dc:creator>
    <dc:subject>
     <rdf:Bag>
      <rdf:li>phone</rdf:li>
      <rdf:li>mobile</rdf:li>
     </rdf:Bag>
    </dc:subject>
    <cc:license rdf:resource="http://creativecommons.org/licenses/LGPL/2.1/"/>
   </cc:Work>
   <cc:License rdf:about="http://creativecommons.org/licenses/LGPL/2.1/">
    <cc:permits rdf:resource="http://web.resource.org/cc/Reproduction"/>
    <cc:permits rdf:resource="http://web.resource.org/cc/Distribution"/>
    <cc:requires rdf:resource="http://web.resource.org/cc/Notice"/>
    <cc:permits rdf:resource="http://web.resource.org/cc/DerivativeWorks"/>
    <cc:requires rdf:resource="http://web.resource.org/cc/ShareAlike"/>
    <cc:requires rdf:resource="http://web.resource.org/cc/SourceCode"/>
   </cc:License>
  </rdf:RDF>
 </metadata>
 <rect id="rect2171" style="fill:none" height="48.4" width="48" y="0" x="0"/>
 <g id="layer1">
  <g id="g4956" transform="translate(.14286 .14286)">
   <rect id="rect5576" style="fill:#fff" rx="2.7006" ry="2.9797" height="12.995" width="14.047" y="-.13773" x="26.857"/>
   <rect id="rect6226" style="fill:none" rx="0" ry="0" height="48" width="48" y="0" x="0"/>
   <path id="path4768" style="fill:#fff;fill-rule:evenodd" d="m11 14h26c2 0 3 1 3 3v14c0 2-1 3-3 3h-26c-2 0-3-1-3-3v-14c0-2 1-3 3-3z"/>
   <rect id="rect4965" style="fill:#fff" rx="3.4912" ry="3.7451" height="42.931" width="34" y="4.9257" x="6.8571"/>
   <rect id="rect4967" rx="2.7079" ry="3.0483" height="33.969" width="26" y="9.8883" x="10.857"/>
   <rect id="rect5574" rx="2.0406" ry="1.9889" height="11.005" width="5.9797" y="3.8517" x="30.877"/>
   <rect id="rect4969" style="fill:#fff" rx="1.7916" ry="1.8966" height="13" width="20" y="12.857" x="13.857"/>
   <rect id="rect4971" style="fill:#fff" rx="0" ry="0" height="12.995" width="19.74" y="27.857" x="14.055"/>
   <path id="path4973" style="fill-rule:evenodd" d="m18.938 27.562v13.642h2v-13.642h-2z"/>
   <path id="path5552" style="fill-rule:evenodd" d="m26.844 27.796v13.642h2v-13.642h-2z"/>
   <path id="path5554" style="fill-rule:evenodd" d="m12.469 30.906v2h23.156v-2h-23.156z"/>
   <path id="path5556" style="fill-rule:evenodd" d="m11.812 35.857v2.112h23.157v-2.112h-23.157z"/>
  </g>
 </g>
</svg>
