<?xml version="1.0" encoding="UTF-8" standalone="no"?>
<!-- Created with Inkscape (http://www.inkscape.org/) -->
<svg id="svg3304" xmlns:rdf="http://www.w3.org/1999/02/22-rdf-syntax-ns#" xmlns="http://www.w3.org/2000/svg" sodipodi:docname="video-dispay-HC.svg" height="48px" sodipodi:version="0.32" width="48px" xmlns:cc="http://web.resource.org/cc/" xmlns:dc="http://purl.org/dc/elements/1.1/" sodipodi:docbase="/home/betatester/Desktop/artwork" xmlns:sodipodi="http://inkscape.sourceforge.net/DTD/sodipodi-0.dtd">
 <sodipodi:namedview id="base" borderopacity="1.0000000" showgrid="true" showguides="true" bordercolor="#849193" pagecolor="#ffffff" showborder="true"/>
 <metadata id="metadata3309">
  <rdf:RDF>
   <cc:Work rdf:about="">
    <dc:format>image/svg+xml</dc:format>
    <dc:type rdf:resource="http://purl.org/dc/dcmitype/StillImage"/>
    <dc:title>Video display</dc:title>
    <dc:creator>
     <cc:Agent>
      <dc:title>Luca Ferretti &lt;elle.uca@libero.it&gt;</dc:title>
     </cc:Agent>
    </dc:creator>
    <cc:license rdf:resource="http://creativecommons.org/licenses/GPL/2.0/"/>
    <dc:subject>
     <rdf:Bag>
      <rdf:li>monitor</rdf:li>
      <rdf:li>display</rdf:li>
      <rdf:li>video</rdf:li>
      <rdf:li>screen</rdf:li>
      <rdf:li>LCD</rdf:li>
      <rdf:li>CRT</rdf:li>
     </rdf:Bag>
    </dc:subject>
   </cc:Work>
   <cc:License rdf:about="http://creativecommons.org/licenses/GPL/2.0/">
    <cc:permits rdf:resource="http://web.resource.org/cc/Reproduction"/>
    <cc:permits rdf:resource="http://web.resource.org/cc/Distribution"/>
    <cc:requires rdf:resource="http://web.resource.org/cc/Notice"/>
    <cc:permits rdf:resource="http://web.resource.org/cc/DerivativeWorks"/>
    <cc:requires rdf:resource="http://web.resource.org/cc/ShareAlike"/>
    <cc:requires rdf:resource="http://web.resource.org/cc/SourceCode"/>
   </cc:License>
  </rdf:RDF>
 </metadata>
 <g id="layer1">
  <rect id="rect5087" style="fill:none" height="48" width="48" y="0" x="0"/>
  <rect id="rect4784" style="fill:none" height="48" width="48" y="0" x="0"/>
  <path id="rect5040" sodipodi:nodetypes="ccccccc" style="stroke-linejoin:round;fill-rule:evenodd;stroke:#fff;stroke-linecap:round;stroke-width:3.1061;fill:#fff" d="m4.8886 2.6477h38.128c2.026 0 3.501 1.5304 3.501 3.8872l0.012 30.465-45.034-0.02 0.0168-30.646c0-1.9019 1.5394-3.6863 3.3758-3.6863z"/>
  <path id="path6541" sodipodi:nodetypes="csccscc" style="stroke-linejoin:round;fill-rule:evenodd;stroke:#fff;stroke-linecap:round;stroke-width:8;fill:#fff" d="m18 34s1 6-7.008 6c-2.5053 0-1.992 4.035-1.992 4.035l30-0.035s0.432-3.922-2.085-3.941c-7.915-0.059-6.915-6.059-6.915-6.059h-12z"/>
  <path id="path9222" sodipodi:nodetypes="csccscc" style="fill-rule:evenodd" d="m18 34s1 6-7.008 5.965c-2.5053-0.011-1.992 4.035-1.992 4.035h30.085s0.432-3.922-2.085-3.941c-8-0.059-7-6.059-7-6.059h-12z"/>
  <path id="path2175" sodipodi:nodetypes="ccccccc" style="fill-rule:evenodd" d="m7.3758 5.5616l33.123-0.1877c2.025 0 3.501 1.4276 3.501 3.6261v25h-40v-25c0-1.7738 1.5394-3.4384 3.3758-3.4384z"/>
  <rect id="rect4355" style="fill:#fff;fill-rule:evenodd" height="18" width="32" y="10" x="8"/>
 </g>
</svg>
