<?xml version="1.0" encoding="UTF-8" standalone="no"?>
<!-- Created with Inkscape (http://www.inkscape.org/) -->
<svg id="svg1872" xmlns:rdf="http://www.w3.org/1999/02/22-rdf-syntax-ns#" xmlns="http://www.w3.org/2000/svg" height="48px" width="48px" xmlns:cc="http://web.resource.org/cc/" xmlns:dc="http://purl.org/dc/elements/1.1/">
 <metadata id="metadata1877">
  <rdf:RDF>
   <cc:Work rdf:about="">
    <dc:format>image/svg+xml</dc:format>
    <dc:type rdf:resource="http://purl.org/dc/dcmitype/StillImage"/>
    <dc:title>Face glasses</dc:title>
    <dc:creator>
     <cc:Agent>
      <dc:title>Luca Ferretti &lt;elle.uca@libero.it&gt;</dc:title>
     </cc:Agent>
    </dc:creator>
    <dc:subject>
     <rdf:Bag>
      <rdf:li>face</rdf:li>
      <rdf:li>smiley</rdf:li>
      <rdf:li>glasses</rdf:li>
      <rdf:li>B-)</rdf:li>
     </rdf:Bag>
    </dc:subject>
    <cc:license rdf:resource="http://creativecommons.org/licenses/LGPL/2.1/"/>
   </cc:Work>
   <cc:License rdf:about="http://creativecommons.org/licenses/LGPL/2.1/">
    <cc:permits rdf:resource="http://web.resource.org/cc/Reproduction"/>
    <cc:permits rdf:resource="http://web.resource.org/cc/Distribution"/>
    <cc:requires rdf:resource="http://web.resource.org/cc/Notice"/>
    <cc:permits rdf:resource="http://web.resource.org/cc/DerivativeWorks"/>
    <cc:requires rdf:resource="http://web.resource.org/cc/ShareAlike"/>
    <cc:requires rdf:resource="http://web.resource.org/cc/SourceCode"/>
   </cc:License>
  </rdf:RDF>
 </metadata>
 <g id="layer1">
  <path id="path3653" style="fill:#fff;fill-rule:evenodd" d="m48 24a24 24 0 1 1 -48 0 24 24 0 1 1 48 0z"/>
  <path id="path1880" style="fill-rule:evenodd" d="m43.955 23.933a20.022 20.022 0 1 1 -40.045 0 20.022 20.022 0 1 1 40.045 0z"/>
  <path id="path4540" style="fill:#fff;fill-rule:evenodd" d="m40 24a16 16 0 1 1 -32 0 16 16 0 1 1 32 0z"/>
  <path id="path10756" style="fill-rule:evenodd" d="m7.488 18h33.024s0 10.264-9.435 12.831c-5.977 1.625-7.077-8.982-7.077-8.982s-1.242 10.568-7.077 8.982c-9.435-2.567-9.435-12.831-9.435-12.831z"/>
 </g>
</svg>
