<?xml version="1.0" encoding="UTF-8" standalone="no"?>
<!-- Created with Inkscape (http://www.inkscape.org/) -->
<svg id="svg1872" xmlns:rdf="http://www.w3.org/1999/02/22-rdf-syntax-ns#" xmlns="http://www.w3.org/2000/svg" height="48px" width="48px" xmlns:cc="http://web.resource.org/cc/" xmlns:xlink="http://www.w3.org/1999/xlink" xmlns:dc="http://purl.org/dc/elements/1.1/">
 <metadata id="metadata1877">
  <rdf:RDF>
   <cc:Work rdf:about="">
    <dc:format>image/svg+xml</dc:format>
    <dc:type rdf:resource="http://purl.org/dc/dcmitype/StillImage"/>
    <dc:title>Face plain</dc:title>
    <dc:creator>
     <cc:Agent>
      <dc:title>Luca Ferretti &lt;elle.uca@libero.it&gt;</dc:title>
     </cc:Agent>
    </dc:creator>
    <dc:subject>
     <rdf:Bag>
      <rdf:li>face</rdf:li>
      <rdf:li>plain</rdf:li>
      <rdf:li>smiley</rdf:li>
      <rdf:li>:-|</rdf:li>
     </rdf:Bag>
    </dc:subject>
    <cc:license rdf:resource="http://creativecommons.org/licenses/LGPL/2.1/"/>
   </cc:Work>
   <cc:License rdf:about="http://creativecommons.org/licenses/LGPL/2.1/">
    <cc:permits rdf:resource="http://web.resource.org/cc/Reproduction"/>
    <cc:permits rdf:resource="http://web.resource.org/cc/Distribution"/>
    <cc:requires rdf:resource="http://web.resource.org/cc/Notice"/>
    <cc:permits rdf:resource="http://web.resource.org/cc/DerivativeWorks"/>
    <cc:requires rdf:resource="http://web.resource.org/cc/ShareAlike"/>
    <cc:requires rdf:resource="http://web.resource.org/cc/SourceCode"/>
   </cc:License>
  </rdf:RDF>
 </metadata>
 <g id="layer1">
  <path id="path3653" style="fill:#fff;fill-rule:evenodd" d="m48 24a24 24 0 1 1 -48 0 24 24 0 1 1 48 0z"/>
  <path id="path1880" style="fill-rule:evenodd" d="m43.955 23.933a20.022 20.022 0 1 1 -40.045 0 20.022 20.022 0 1 1 40.045 0z"/>
  <path id="path4540" style="fill:#fff;fill-rule:evenodd" d="m40 24a16 16 0 1 1 -32 0 16 16 0 1 1 32 0z"/>
  <path id="path5427" style="fill-rule:evenodd" d="m19 18a4 4 0 1 1 -8 0 4 4 0 1 1 8 0z" transform="translate(2)"/>
  <path id="path6316" style="stroke:#000;stroke-width:4;fill:none" d="m14 30h20"/>
  <use id="use7203" xlink:href="#path5427" transform="translate(14)" height="48" width="48" y="0" x="0"/>
 </g>
</svg>
