<?xml version="1.0" encoding="UTF-8" standalone="no"?>
<!-- Created with Inkscape (http://www.inkscape.org/) -->
<svg id="svg2643" xmlns:rdf="http://www.w3.org/1999/02/22-rdf-syntax-ns#" xmlns="http://www.w3.org/2000/svg" height="48" width="48" version="1.0" xmlns:cc="http://creativecommons.org/ns#" xmlns:xlink="http://www.w3.org/1999/xlink" xmlns:dc="http://purl.org/dc/elements/1.1/">
 <defs id="defs2645">
  <radialGradient id="radialGradient7260" gradientUnits="userSpaceOnUse" cy="21.099" cx="22.276" gradientTransform="matrix(-1.0538 -6.3027e-8 1.2877e-8 -.72327 47.517 40.379)" r="20.319">
   <stop id="stop4391" style="stop-color:#555753" offset="0"/>
   <stop id="stop4393" style="stop-color:#eeeeec" offset="1"/>
  </radialGradient>
 </defs>
 <metadata id="metadata2648">
  <rdf:RDF>
   <cc:Work rdf:about="">
    <dc:format>image/svg+xml</dc:format>
    <dc:type rdf:resource="http://purl.org/dc/dcmitype/StillImage"/>
    <cc:license rdf:resource=""/>
    <dc:subject>
     <rdf:Bag>
      <rdf:li>audio</rdf:li>
      <rdf:li>device</rdf:li>
      <rdf:li>speaker</rdf:li>
      <rdf:li>output</rdf:li>
      <rdf:li>right</rdf:li>
     </rdf:Bag>
    </dc:subject>
    <dc:title>audio-speaker-right</dc:title>
    <dc:creator>
     <cc:Agent>
      <dc:title>Evangeline McGlynn</dc:title>
     </cc:Agent>
    </dc:creator>
   </cc:Work>
  </rdf:RDF>
 </metadata>
 <g id="layer1">
  <g id="g7248" transform="matrix(.70711 .70711 -.70711 .70711 26.51 -12.289)">
   <path id="path5365" style="stroke:#2e3436;fill:#babdb6" d="m14.033 10.506c6.071-3.4817 13.143-3.3924 19.393 0l2 4.393h-23.393l2-4.393z"/>
   <path id="path5367" style="fill:#babdb6;fill-rule:evenodd" d="m45.604 27.935s-4.547-8.687-9.861-12.939c-0.211-0.169-0.423-0.33-0.635-0.484-0.502-0.363-1.01-0.683-1.52-0.948-0.569-0.296-1.14-0.525-1.711-0.672-3.883-1.02-11.716-1.063-15.589-0.046-0.84 0.219-1.682 0.611-2.512 1.132-0.626 0.391-1.245 0.855-1.851 1.372-1.872 1.593-3.6288 3.688-5.1082 5.71-2.5966 3.549-4.3377 6.875-4.3377 6.875"/>
   <path id="path5369" style="stroke:#888a83;fill:none" d="m12.534 15.979l2.188-4.766c5.261-2.7433 11.22-3.3671 17.939-0.006l1.968 4.204"/>
   <path id="path5371" style="fill-rule:evenodd;stroke:#888a85;stroke-width:1px;fill:#555753" d="m44.709 28.524s-6.308-12.929-13.071-14.668c-3.883-1.02-11.185-1.063-15.058-0.046-6.8446 1.785-11.84 12.464-11.84 12.464"/>
   <path id="path5373" style="stroke-width:.68646;stroke:#2e3436;fill:#eeeeec" d="m43.214 32.241a20.938 4.9554 0 1 1 -41.875 0 20.938 4.9554 0 1 1 41.875 0z" transform="matrix(1.0469 0 0 2.027 .71988 -35.41)"/>
   <path id="path5375" style="stroke:#fff;fill:url(#radialGradient7260)" d="m44.951 29.944c0.19 4.408-8.81 9.066-20.909 9.066-12.1 0-21.131-4.595-20.91-9.066-0.1893-4.566 8.81-9.035 20.91-9.035 12.099 0 20.941 4.374 20.909 9.035z"/>
   <path id="path5377" style="stroke:#555753;fill:none" d="m31.849 27.944c-0.674 2.188-3.289 3.385-7.807 3.385-4.519 0-7.349-1.377-7.808-3.385-0.071-1.705 3.289-3.374 7.808-3.374 4.518 0 7.819 1.634 7.807 3.374z"/>
   <path id="path5379" style="stroke-linejoin:round;stroke-width:.96596;stroke:#2e3436;fill:#555753" d="m17.184 27.765c0.97 3.079 3.669 5.296 6.843 5.296 3.195 0 5.907-2.245 6.862-5.354-0.901-1.5-4.281-2.236-6.891-2.193-3.304-0.086-5.856 0.859-6.814 2.251z"/>
   <path id="path5381" style="stroke:#2e3436;stroke-width:1px;fill:none" d="m12.429 14.847c-0.127 0.103-0.378 0.396-0.504 0.503-1.872 1.593-3.6288 3.688-5.1082 5.71-2.5966 3.549-4.3377 6.875-4.3377 6.875m43.125 0s-4.547-8.687-9.861-12.939c-0.211-0.169-0.423-0.33-0.635-0.484-0.101-0.073-0.649-0.293-0.75-0.362"/>
   <path id="path5383" style="stroke:#888a85;stroke-width:1px;fill:none" d="m31.638 13.856c-3.883-1.02-11.185-1.063-15.058-0.046"/>
  </g>
 </g>
</svg>
