<?xml version="1.0" encoding="UTF-8" standalone="no"?>
<!-- Created with Inkscape (http://www.inkscape.org/) -->
<svg id="svg2643" xmlns:rdf="http://www.w3.org/1999/02/22-rdf-syntax-ns#" xmlns="http://www.w3.org/2000/svg" height="48" width="48" version="1.0" xmlns:cc="http://creativecommons.org/ns#" xmlns:xlink="http://www.w3.org/1999/xlink" xmlns:dc="http://purl.org/dc/elements/1.1/">
 <defs id="defs2645">
  <radialGradient id="radialGradient7260" gradientUnits="userSpaceOnUse" cy="21.099" cx="22.276" gradientTransform="matrix(-1.0538 -6.3027e-8 1.2877e-8 -.72327 47.517 40.379)" r="20.319">
   <stop id="stop4391" style="stop-color:#555753" offset="0"/>
   <stop id="stop4393" style="stop-color:#eeeeec" offset="1"/>
  </radialGradient>
 </defs>
 <metadata id="metadata2648">
  <rdf:RDF>
   <cc:Work rdf:about="">
    <dc:format>image/svg+xml</dc:format>
    <dc:type rdf:resource="http://purl.org/dc/dcmitype/StillImage"/>
    <cc:license rdf:resource=""/>
    <dc:subject>
     <rdf:Bag>
      <rdf:li>audio</rdf:li>
      <rdf:li>device</rdf:li>
      <rdf:li>speaker</rdf:li>
      <rdf:li>output</rdf:li>
      <rdf:li>center</rdf:li>
     </rdf:Bag>
    </dc:subject>
    <dc:title>audio-speaker-center</dc:title>
    <dc:creator>
     <cc:Agent>
      <dc:title>Evangeline McGlynn</dc:title>
     </cc:Agent>
    </dc:creator>
   </cc:Work>
  </rdf:RDF>
 </metadata>
 <g id="layer1">
  <g id="g7248" transform="matrix(1 0 0 -1 -.041631 47.958)">
   <path id="path5365" style="stroke:#2e3436;fill:#babdb6" d="m14.033 10.506c6.0714-3.4821 13.143-3.3928 19.393 0l2 4.3929h-23.393l2-4.3929z"/>
   <path id="path5367" style="fill:#babdb6;fill-rule:evenodd" d="m45.604 27.935s-4.5474-8.6868-9.8613-12.939c-0.21063-0.16856-0.42247-0.33016-0.63527-0.48397-0.50204-0.36286-1.0095-0.68239-1.5192-0.94787-0.56896-0.29634-1.1408-0.52533-1.7112-0.67205-3.8832-1.0193-11.717-1.0625-15.59-0.04613-0.83989 0.21914-1.6816 0.61173-2.512 1.1319-0.62524 0.39166-1.2441 0.85564-1.851 1.3724-1.8711 1.5932-3.6283 3.6878-5.1078 5.71-2.5966 3.5491-4.3377 6.875-4.3377 6.875"/>
   <path id="path5369" style="stroke:#888a83;fill:none" d="m12.534 15.979 2.187-4.766c5.2611-2.7433 11.22-3.3672 17.939-0.0056l1.9685 4.2035"/>
   <path id="path5371" style="fill-rule:evenodd;stroke:#888a85;stroke-width:1px;fill:#555753" d="m44.709 28.524s-6.308-12.929-13.071-14.668c-3.8832-1.0193-11.185-1.0625-15.058-0.04613-6.8441 1.7857-11.84 12.464-11.84 12.464"/>
   <path id="path5373" style="stroke-width:.68646;stroke:#2e3436;fill:#eeeeec" d="m43.214 32.241c0 2.7368-9.374 4.9554-20.938 4.9554-11.563 0-20.938-2.2186-20.938-4.9554s9.374-4.9554 20.938-4.9554c11.563 0 20.938 2.2186 20.938 4.9554z" transform="matrix(1.0469 0 0 2.027 .71988 -35.41)"/>
   <path id="path5375" style="stroke:#fff;fill:url(#radialGradient7260)" d="m44.951 29.944c0.18941 4.4082-8.8098 9.0661-20.909 9.0661-12.1 0-21.13-4.5947-20.909-9.0661-0.1894-4.5661 8.8098-9.0345 20.909-9.0345 12.1 0 20.941 4.3737 20.909 9.0345z"/>
   <path id="path5377" style="stroke:#555753;fill:none" d="m31.849 27.944c-0.67407 2.1878-3.2897 3.3854-7.8079 3.3854s-7.3487-1.3772-7.8079-3.3854c-0.07073-1.705 3.2897-3.3736 7.8079-3.3736s7.8196 1.6332 7.8079 3.3736z"/>
   <path id="path5379" style="stroke-linejoin:round;stroke-width:.96596;stroke:#2e3436;fill:#555753" d="m17.184 27.765c0.9704 3.0793 3.669 5.296 6.8434 5.296 3.1941 0 5.9065-2.2444 6.8613-5.3534-0.90064-1.5006-4.2812-2.2368-6.8906-2.1936-3.3043-0.08574-5.8565 0.85968-6.8141 2.251z"/>
   <path id="path5381" style="stroke:#2e3436;stroke-width:1px;fill:none" d="m12.429 14.847c-0.12704 0.1026-0.3786 0.39515-0.50465 0.50248-1.8711 1.5932-3.6283 3.6878-5.1078 5.71-2.5966 3.5491-4.3377 6.875-4.3377 6.875m43.125 0s-4.5474-8.6868-9.8613-12.939c-0.21063-0.16856-0.42247-0.33016-0.63527-0.48397-0.10052-0.07265-0.64816-0.29253-0.74908-0.36162"/>
   <path id="path5383" style="stroke:#888a85;stroke-width:1px;fill:none" d="m31.638 13.856c-3.8832-1.0193-11.185-1.0625-15.058-0.04613"/>
  </g>
 </g>
</svg>
