<?xml version="1.0" encoding="UTF-8" standalone="no"?>
<!-- Created with Inkscape (http://www.inkscape.org/) -->
<svg id="svg2160" xmlns:rdf="http://www.w3.org/1999/02/22-rdf-syntax-ns#" xmlns="http://www.w3.org/2000/svg" height="48" width="48" version="1.0" xmlns:cc="http://creativecommons.org/ns#" xmlns:xlink="http://www.w3.org/1999/xlink" xmlns:dc="http://purl.org/dc/elements/1.1/">
 <defs id="defs2162">
  <linearGradient id="linearGradient3688">
   <stop id="stop3690" offset="0"/>
   <stop id="stop3692" style="stop-opacity:0" offset="1"/>
  </linearGradient>
  <radialGradient id="radialGradient3095" xlink:href="#linearGradient3688" gradientUnits="userSpaceOnUse" cy="43.5" cx="4.993" gradientTransform="matrix(2.0038 0 0 1.4 27.988 -17.4)" r="2.5"/>
  <radialGradient id="radialGradient3097" xlink:href="#linearGradient3688" gradientUnits="userSpaceOnUse" cy="43.5" cx="4.993" gradientTransform="matrix(2.0038 0 0 1.4 -20.012 -104.4)" r="2.5"/>
  <linearGradient id="linearGradient3099" y2="39.999" gradientUnits="userSpaceOnUse" x2="25.058" y1="47.028" x1="25.058">
   <stop id="stop3704" style="stop-opacity:0" offset="0"/>
   <stop id="stop3710" offset=".5"/>
   <stop id="stop3706" style="stop-opacity:0" offset="1"/>
  </linearGradient>
  <linearGradient id="linearGradient3966" y2="26.867" gradientUnits="userSpaceOnUse" x2="15.581" gradientTransform="matrix(-1.2705 0 0 -1.2705 -50.517 48.821)" y1="23.128" x1="14.548">
   <stop id="stop3271" style="stop-color:#fff" offset="0"/>
   <stop id="stop3273" style="stop-color:#fff;stop-opacity:0" offset="1"/>
  </linearGradient>
  <linearGradient id="linearGradient3977" y2="-4.5" gradientUnits="userSpaceOnUse" x2="43" gradientTransform="matrix(.97297 0 0 1 -88.838 -1)" y1="-4.5" x1="15.47">
   <stop id="stop3846" style="stop-color:#eeeeec" offset="0"/>
   <stop id="stop3848" style="stop-color:#eeeeec;stop-opacity:0" offset="1"/>
  </linearGradient>
  <linearGradient id="linearGradient3980" y2="10.571" gradientUnits="userSpaceOnUse" x2="29" gradientTransform="translate(-90,2)" y1="2.5714" x1="26.357">
   <stop id="stop3862" style="stop-color:#888a85" offset="0"/>
   <stop id="stop3864" style="stop-color:#555753" offset="1"/>
  </linearGradient>
  <radialGradient id="radialGradient3985" gradientUnits="userSpaceOnUse" cy="18.5" cx="-65.5" gradientTransform="matrix(1.0411 0 0 .81596 2.6894 5.4046)" r="18.5">
   <stop id="stop3834" style="stop-color:#fff" offset="0"/>
   <stop id="stop3840" style="stop-color:#fff" offset=".67356"/>
   <stop id="stop3836" style="stop-color:#eeeeec" offset="1"/>
  </radialGradient>
  <linearGradient id="linearGradient3990" y2="17.023" gradientUnits="userSpaceOnUse" x2="13.636" y1="29.677" x1="20.135">
   <stop id="stop3782" style="stop-color:#fff" offset="0"/>
   <stop id="stop3784" style="stop-color:#fff;stop-opacity:0" offset="1"/>
  </linearGradient>
  <linearGradient id="linearGradient3992" y2="20.717" gradientUnits="userSpaceOnUse" x2="14.499" y1="29.966" x1="17.697">
   <stop id="stop3450" style="stop-color:#f57900" offset="0"/>
   <stop id="stop3452" style="stop-color:#fcaf3e" offset="1"/>
  </linearGradient>
  <radialGradient id="radialGradient4157" gradientUnits="userSpaceOnUse" cy="43" cx="24.5" gradientTransform="matrix(1 0 0 .31579 0 29.421)" r="9.5">
   <stop id="stop3928" offset="0"/>
   <stop id="stop3930" style="stop-opacity:0" offset="1"/>
  </radialGradient>
  <linearGradient id="linearGradient4159" y2="45" gradientUnits="userSpaceOnUse" x2="-25.942" gradientTransform="translate(90,-1)" y1="42.407" x1="-25.942">
   <stop id="stop3255" style="stop-color:#888a85" offset="0"/>
   <stop id="stop3257" style="stop-color:#d3d7cf" offset="1"/>
  </linearGradient>
  <linearGradient id="linearGradient4161" y2="35" gradientUnits="userSpaceOnUse" x2="24.5" gradientTransform="translate(-89,2)" y1="34" x1="24.5">
   <stop id="stop3361" offset="0"/>
   <stop id="stop3363" style="stop-opacity:0" offset="1"/>
  </linearGradient>
  <linearGradient id="linearGradient4163" y2="40" gradientUnits="userSpaceOnUse" x2="25.5" gradientTransform="translate(-69,-4)" y1="39.5" x1="24.857">
   <stop id="stop3365" style="stop-color:#fff" offset="0"/>
   <stop id="stop3367" style="stop-color:#eeeeec;stop-opacity:0" offset="1"/>
  </linearGradient>
 </defs>
 <metadata id="metadata2165">
  <rdf:RDF>
   <cc:Work rdf:about="">
    <dc:format>image/svg+xml</dc:format>
    <dc:type rdf:resource="http://purl.org/dc/dcmitype/StillImage"/>
    <dc:creator>
     <cc:Agent>
      <dc:title>Lapo Calamandrei</dc:title>
     </cc:Agent>
    </dc:creator>
    <dc:title>Presentation</dc:title>
    <dc:contributor>
     <cc:Agent>
      <dc:title>Based of Hylke Bons Work</dc:title>
     </cc:Agent>
    </dc:contributor>
    <cc:license rdf:resource="http://www.gnu.org/licenses/lgpl.html"/>
    <dc:subject>
     <rdf:Bag>
      <rdf:li>presentation</rdf:li>
      <rdf:li>slides</rdf:li>
      <rdf:li>powerpoint</rdf:li>
      <rdf:li>spreadsheet</rdf:li>
      <rdf:li>impress</rdf:li>
     </rdf:Bag>
    </dc:subject>
   </cc:Work>
  </rdf:RDF>
 </metadata>
 <g id="layer1">
  <g id="g3075" style="opacity:.13964" transform="matrix(1.2 0 0 .77778 -4.8 11.944)">
   <g id="g3077" style="opacity:.4" transform="matrix(1.0526 0 0 1.2857 -1.2632 -13.429)">
    <rect id="rect3079" style="opacity:1;fill:url(#radialGradient3095)" height="7" width="5" y="40" x="38"/>
    <rect id="rect3081" style="opacity:1;fill:url(#radialGradient3097)" transform="scale(-1)" height="7" width="5" y="-47" x="-10"/>
    <rect id="rect3083" style="opacity:1;fill:url(#linearGradient3099)" height="7" width="28" y="40" x="10"/>
   </g>
  </g>
  <g id="g4142" transform="translate(90)">
   <path id="path3924" style="opacity:.28378;fill:url(#radialGradient4157)" d="m34 43a9.5 3 0 1 1 -19 0 9.5 3 0 1 1 19 0z" transform="matrix(1 0 0 .83333 -89 7.1666)"/>
   <rect id="rect2466" ry="1" style="stroke:#888a85;fill:url(#linearGradient4159)" rx="1" transform="scale(-1,1)" height="9" width="2" y="34.5" x="63.5"/>
   <rect id="rect2472" style="stroke:#999;fill:#d3d7cf" transform="scale(-1,1)" rx="1" ry="1.4321" height="12.889" width="2" y="27.611" x="63.5"/>
   <g id="g3125" transform="translate(-21,4)">
    <path id="path3107" style="fill-rule:evenodd;stroke:#888a85;stroke-linecap:round;stroke-width:3;fill:#d3d7cf" d="m-49.5 39.5l6-3.5"/>
    <path id="path3109" style="fill-rule:evenodd;stroke:#888a85;stroke-linecap:round;stroke-width:3;fill:#d3d7cf" d="m-37.5 39.5l-6-3.5"/>
    <path id="path3111" style="fill-rule:evenodd;stroke:#d3d7cf;stroke-linecap:round;stroke-width:1px;fill:#d3d7cf" d="m-49.5 39.5l6-3.5"/>
    <path id="path3113" style="fill-rule:evenodd;stroke:#d3d7cf;stroke-linecap:round;stroke-width:1px;fill:#d3d7cf" d="m-37.5 39.5l-6-3.5"/>
    <rect id="rect3115" style="stroke:#777974;fill:#d3d7cf" rx="1.5" ry="1.5" height="3" width="4" y="34.5" x="-45.5"/>
    <path id="path3119" style="fill:#fff" d="m21.429 44.679a1.25 0.96429 0 1 1 -2.5 0 1.25 0.96429 0 1 1 2.5 0z" transform="matrix(.57678 0 0 .74767 -61.139 6.095)"/>
    <rect id="rect3121" style="fill:url(#linearGradient4163)" rx="1.125" ry="1" height="2" width="3" y="35" x="-45"/>
   </g>
  </g>
  <path id="path4170" style="fill:#fff" d="m21.429 44.679a1.25 0.96429 0 1 1 -2.5 0 1.25 0.96429 0 1 1 2.5 0z" transform="matrix(.57678 0 0 .74767 19.861 10.095)"/>
  <g id="g4173" transform="translate(90)">
   <rect id="rect2484" style="stroke:#babdb6;fill:url(#radialGradient3985)" rx="1.0195" ry="1.0573" height="28" width="38" y="6.5" x="-84.5"/>
   <path id="path2488" style="stroke:#fff;fill:none" d="m-82.594 7.5c-0.529 0-0.906 0.2441-0.906 0.5872v24.742c0 0.343 0.377 0.587 0.906 0.587h34.188c0.529 0 0.906-0.244 0.906-0.587v-24.742c0-0.3429-0.377-0.587-0.906-0.587h-34.188z"/>
   <rect id="rect2490" style="opacity:.11712" height="2" width="39" y="7" x="-85"/>
   <rect id="rect2492" style="stroke:url(#linearGradient3980);fill:#babdb6" rx="1.5833" ry="1.5" height="3" width="40" y="4.5" x="-85.5"/>
   <rect id="rect2494" style="fill:url(#linearGradient3977)" transform="scale(1,-1)" rx=".48649" ry=".5" height="1" width="37" y="-6" x="-84"/>
   <rect id="rect2496" style="fill:#fff" transform="matrix(7.3523e-8 1 1 -1.8381e-8 0 0)" rx="1" ry="1" height="2" width="2" y="-85" x="5"/>
   <rect id="rect2498" style="fill:#fff" transform="matrix(7.3523e-8 1 1 -1.8381e-8 0 0)" rx="1" ry="1" height="2" width="2" y="-48" x="5"/>
   <g id="g2502" style="opacity:.12108" transform="translate(-88)">
    <path id="path2504" style="opacity:1;stroke-linejoin:round;stroke:#000;stroke-width:.83783" d="m21.213 22.292a4.6972 4.6972 0 1 1 -4.658 -4.697l-0.039 4.697z" transform="matrix(1.2705 0 0 1.2705 -5.4834 -4.8213)"/>
    <path id="path2506" style="stroke-linejoin:round;stroke:#000;stroke-width:1.064" d="m17.527 15.532c3.544-0.297 6.237 2.341 5.941 5.995l-5.968-0.027 0.027-5.968z"/>
   </g>
   <path id="path2508" style="stroke-linejoin:round;stroke:#af4e00;stroke-width:.62968;fill:url(#linearGradient3992)" d="m21.213 22.292a4.6972 4.6972 0 1 1 -4.658 -4.697l-0.039 4.697z" transform="matrix(1.2705 0 0 1.2705 -94.483 -5.8213)"/>
   <path id="path2510" style="stroke-linejoin:round;stroke:#3465a4;stroke-width:0.8;fill:#729fcf" d="m-71.473 14.532c3.544-0.297 6.237 2.341 5.941 5.995l-5.968-0.027 0.027-5.968z"/>
   <path id="path2512" style="stroke:url(#linearGradient3990);stroke-width:.83783;fill:none" d="m15.75 18.562c-1.772 0.366-3.125 1.844-3.125 3.719 0 2.15 1.757 3.907 3.906 3.907 1.865 0 3.342-1.337 3.719-3.094h-3.719c-0.215 0-0.422-0.085-0.575-0.238-0.152-0.152-0.238-0.359-0.237-0.575l0.031-3.719z" transform="matrix(1.2705 0 0 1.2705 -94.483 -5.8213)"/>
   <path id="path2514" style="opacity:.39189;stroke:url(#linearGradient3966);fill:none" d="m-66.536 19.498c-0.156-1.929-1.717-3.72-3.911-3.937l-0.04 3.92 3.951 0.017z"/>
   <rect id="rect2516" style="fill:#babdb6" rx=".38889" ry=".5" height="1" width="7" y="23" x="-59"/>
   <rect id="rect2518" style="fill:#babdb6" rx=".5" ry=".5" height="1" width="9" y="21" x="-59"/>
   <rect id="rect2520" style="fill:#555753" rx=".5" ry=".5" height="1" width="9" y="19" x="-59"/>
   <rect id="rect2522" style="fill:#babdb6" rx=".44444" ry=".5" height="1" width="8" y="14" x="-61"/>
   <rect id="rect2524" style="fill:#555753" rx=".5" ry=".5" height="1" width="9" y="12" x="-61"/>
   <path id="path2526" style="stroke-linejoin:round;stroke:#d3d7cf;stroke-linecap:round;stroke-width:1px;fill:none" d="m-67 28.5l8.538 0.01-0.067-3.021"/>
   <path id="path2528" style="stroke:#d3d7cf;stroke-linecap:round;stroke-width:1px;fill:none" d="m-65.5 14.5v-2h3"/>
   <rect id="rect2482" style="opacity:.11712;fill:url(#linearGradient4161)" height="2" width="3" y="35" x="-66"/>
  </g>
 </g>
</svg>
