<?xml version="1.0" encoding="UTF-8" standalone="no"?>
<!-- Created with Inkscape (http://www.inkscape.org/) -->
<svg id="svg7384" xmlns:rdf="http://www.w3.org/1999/02/22-rdf-syntax-ns#" xmlns="http://www.w3.org/2000/svg" height="16" width="16" version="1.1" xmlns:cc="http://creativecommons.org/ns#" xmlns:dc="http://purl.org/dc/elements/1.1/">
 <title id="title9167">Gnome Symbolic Icon Theme</title>
 <metadata id="metadata90">
  <rdf:RDF>
   <cc:Work rdf:about="">
    <dc:format>image/svg+xml</dc:format>
    <dc:type rdf:resource="http://purl.org/dc/dcmitype/StillImage"/>
    <dc:title>Gnome Symbolic Icon Theme</dc:title>
   </cc:Work>
  </rdf:RDF>
 </metadata>
 <g id="layer14" transform="translate(-42,-700)">
  <g id="audio-x-generic" transform="translate(-130 -297)">
   <rect id="rect3816" style="fill:#bebebe" rx=".49935" ry=".49935" height="12" width="2" y="998" x="186"/>
   <rect id="rect3818" style="fill:#bebebe" rx=".53250" ry=".53250" height="12" width="2" y="998" x="177"/>
   <rect id="rect3820" ry=".49537" style="fill:#bebebe" rx=".49537" transform="rotate(-90)" height="11" width="2" y="177" x="-1e3"/>
   <path id="path3822" style="stroke-linejoin:round;stroke:#bebebe;stroke-width:2.022;fill:#bebebe" transform="matrix(.49406 0 0 .50447 173.74 896.66)" d="m9.625 223.69a6.0625 5.9375 0 1 1 -12.125 0 6.0625 5.9375 0 1 1 12.125 0z"/>
   <path id="path3824" style="stroke-linejoin:round;stroke:#bebebe;stroke-width:2.022;fill:#bebebe" transform="matrix(.49406 0 0 .50447 182.74 896.66)" d="m9.625 223.69a6.0625 5.9375 0 1 1 -12.125 0 6.0625 5.9375 0 1 1 12.125 0z"/>
  </g>
 </g>
</svg>
