<?xml version="1.0" encoding="UTF-8" standalone="no"?>
<!-- Generator: Adobe Illustrator 9.0, SVG Export Plug-In  -->
<svg id="svg2" xmlns:rdf="http://www.w3.org/1999/02/22-rdf-syntax-ns#" xmlns="http://www.w3.org/2000/svg" xml:space="preserve" height="1119.6" width="1115.1" version="1.0" xmlns:cc="http://web.resource.org/cc/" xmlns:xlink="http://www.w3.org/1999/xlink" viewBox="0 0 508.104 383.717" xmlns:dc="http://purl.org/dc/elements/1.1/"><metadata id="metadata36"><rdf:RDF><cc:Work rdf:about=""><dc:format>image/svg+xml</dc:format><dc:type rdf:resource="http://purl.org/dc/dcmitype/StillImage"/></cc:Work></rdf:RDF></metadata><defs id="defs34"><linearGradient id="linearGradient3157" y2="254.75" gradientUnits="userSpaceOnUse" x2="64.751" gradientTransform="matrix(1.0091 0 0 1.0037 -.58012 -.036429)" y1="254.75" x1="-447.72"><stop id="stop3157" style="stop-opacity:.79216" offset="0"/><stop id="stop3139" style="stop-color:#49050c;stop-opacity:.78431" offset=".30351"/><stop id="stop3141" style="stop-color:#6e0712;stop-opacity:.78431" offset=".59597"/><stop id="stop3160" style="stop-color:#b20c1d;stop-opacity:.78431" offset=".76073"/><stop id="stop3159" style="stop-color:#ffc74c;stop-opacity:.78431" offset="1"/></linearGradient><linearGradient id="linearGradient2229" y2="26.226" xlink:href="#linearGradient1334" gradientUnits="userSpaceOnUse" y1="14.883" gradientTransform="matrix(7.5095 0 0 7.5095 -.0039725 -133.43)" x2="76.799" x1="31.785"/><linearGradient id="linearGradient2227" y2="31.877" xlink:href="#linearGradient1334" gradientUnits="userSpaceOnUse" y1="22.383" gradientTransform="matrix(7.5095 0 0 7.5095 -.0039725 -133.43)" x2="45.431" x1="1.0449"/><linearGradient id="linearGradient1340" y2="31.877" xlink:href="#linearGradient1334" gradientUnits="userSpaceOnUse" y1="16.549" gradientTransform="matrix(7.5095 0 0 7.5095 -.0039725 -133.43)" x2="45.431" x1="3.5197"/><radialGradient id="radialGradient4071" gradientUnits="userSpaceOnUse" cx="191.41" cy="7.7861" r="153.4" gradientTransform="matrix(.0000087163 -.66559 .95758 0 178.49 133.09)"><stop id="stop4189" offset="0"/><stop id="stop4191" style="stop-opacity:0" offset="1"/></radialGradient><linearGradient id="linearGradient1334"><stop id="stop1336" style="stop-color:#fff" offset="0"/><stop id="stop1346" style="stop-color:#fff;stop-opacity:0" offset=".25"/><stop id="stop1342" style="stop-color:#fff" offset=".34488"/><stop id="stop1344" style="stop-color:#fff;stop-opacity:0" offset=".86310"/><stop id="stop1338" style="stop-color:#fff" offset="1"/></linearGradient></defs>
<rect id="rect2182" style="fill-rule:evenodd;stroke:#220700;stroke-width:6.7192;fill:url(#linearGradient3157)" transform="matrix(.00024546 -1 1 .00025036 0 0)" height="504.47" width="510.4" y="3.4243" x="-449.01"/><g id="g3291" transform="matrix(1 0 0 .69632 62.255 93.886)"><g id="layer5"><path id="path4069" style="opacity:.2;fill:url(#radialGradient4071)" d="m339.34 5.683a153.4 110.67 0 1 1 -306.79 0 153.4 110.67 0 1 1 306.79 0z" transform="matrix(1.0525 0 0 .44721 3.2827 176.36)"/><path id="path3162" style="opacity:.2;stroke:#000;stroke-width:7.5096" d="m278.08-121.2c-14.98 1.69-26.51 14.6-26.51 30.038 0 16.581 13.45 30.038 30.03 30.038 16.59 0 30.04-13.457 30.04-30.038 0-16.578-13.45-30.038-30.04-30.038-0.77 0-1.58-0.06-2.34 0-0.37 0.03-0.82-0.04-1.18 0zm-87.76 30.038c-14.2 1.289-27.71 5.102-40.37 10.326l26.76 45.996c6.86-2.178 14.07-3.374 21.59-3.755 1.47-0.075 2.96 0 4.45 0 41.22 0 75.67 28.945 84.25 67.586h53.51c-3.8-28.09-16.02-53.519-34.03-73.687-7.39 3.972-15.9 6.101-24.88 6.101-28.18 0-51.27-22.118-52.56-49.985-8.49-1.621-17.34-2.582-26.29-2.582-1.79 0-3.61-0.068-5.39 0-0.58 0.022-1.07-0.029-1.65 0-0.54 0.028-1.1-0.034-1.64 0-0.52 0.033-1.12-0.039-1.64 0-0.06 0.004-0.18-0.001-0.24 0-0.23-0.003-0.7 0.002-0.93 0-0.06 0.002-0.18-0.005-0.24 0-0.23 0.019-0.48-0.02-0.7 0zm-72.75 29.1c-21.568 16.791-37.943 39.918-46.702 66.412 13.836 9.472 22.998 25.393 22.998 43.415s-9.162 33.943-22.998 43.415c8.756 26.5 25.126 49.64 46.702 66.41l26.75-46.23c-17.15-15.782-27.93-38.475-27.93-63.595 0-25.111 10.8-47.774 27.93-63.597l-26.75-46.23zm-79.791 79.789c-14.984 1.692-26.519 14.605-26.519 30.038 0 16.581 13.457 30.038 30.039 30.038 16.581 0 30.038-13.457 30.038-30.038s-13.457-30.038-30.038-30.038c-0.778 0-1.585-0.058-2.347 0-0.363 0.027-0.814-0.041-1.173 0zm249.22 48.812c-8.58 38.641-43.03 67.591-84.25 67.591-9.12 0-17.81-1.38-26.04-3.99l-26.76 45.99c16.3 6.73 34.08 10.56 52.8 10.56 8.95 0 17.8-0.96 26.29-2.58 1.3-26.7 22.69-48.3 49.28-49.98 1.12-0.08 2.15 0 3.28 0 8.98 0 17.49 2.12 24.88 6.1 18.01-20.17 30.23-45.601 34.03-73.691h-53.51zm-8.92 90.111c-14.98 1.7-26.51 14.61-26.51 30.04 0 16.58 13.45 30.04 30.03 30.04 16.59 0 30.04-13.46 30.04-30.04s-13.45-30.04-30.04-30.04c-0.77 0-1.58-0.05-2.34 0-0.37 0.03-0.82-0.04-1.18 0z"/></g><g id="layer3"><g id="g11118" transform="matrix(1.0005 0 0 1.0005 -.0039729 -6.6918)"><path id="path2313" style="stroke:#cc4a00;stroke-width:8.4918;fill:#ff6309" d="m75.318 46.857a33.967 33.967 0 1 1 -67.934 0 33.967 33.967 0 1 1 67.934 0z" transform="matrix(.88386 0 0 .88386 4.7318 5.4813)"/><path id="path2338" style="stroke-linejoin:round;stroke:#cc4a00;fill:#ff6309" d="m25.625 5.5c-1.991 0.1472-3.889 0.6455-5.656 1.375l3.562 6.125c0.914-0.29 1.874-0.449 2.875-0.5 0.196-0.01 0.396 0 0.594 0 5.488 0 10.076 3.854 11.219 9h7.125c-0.506-3.741-2.134-7.127-4.532-9.812-0.984 0.529-2.117 0.812-3.312 0.812-3.753 0-6.827-2.9454-7-6.6562-1.13-0.2159-2.308-0.3438-3.5-0.3438-0.239 0-0.482-0.009-0.719 0-0.077 0.0029-0.142-0.0039-0.219 0-0.072 0.0037-0.146-0.0045-0.218 0-0.07 0.0044-0.149-0.0052-0.219 0z" transform="matrix(7.5056 0 0 7.5056 0 -133.24)"/></g><g id="g11122" transform="matrix(1.0005 0 0 1.0005 -.0039725 -6.6918)"><path id="path2241" style="stroke-linejoin:round;stroke:#d89400;fill:#ffb515" d="m15.656 9.375c-2.872 2.236-5.052 5.316-6.2185 8.844 1.8425 1.261 3.0625 3.381 3.0625 5.781s-1.22 4.52-3.0625 5.781c1.1665 3.529 3.3455 6.61 6.2185 8.844l3.563-6.156c-2.284-2.102-3.719-5.124-3.719-8.469 0-3.344 1.438-6.362 3.719-8.469l-3.563-6.156z" transform="matrix(7.5056 0 0 7.5056 0 -133.24)"/><path id="path2317" style="stroke:#d89400;stroke-width:8.4918;fill:#ffb515" d="m75.318 46.857a33.967 33.967 0 1 1 -67.934 0 33.967 33.967 0 1 1 67.934 0z" transform="matrix(.88386 0 0 .88386 244.91 144.33)"/></g><g id="g11114" transform="matrix(1.0005 0 0 1.0005 -.0039725 -6.6918)"><path id="path2315" style="stroke:#8c000f;stroke-width:8.4918;fill:#c90016" d="m75.318 46.857a33.967 33.967 0 1 1 -67.934 0 33.967 33.967 0 1 1 67.934 0z" transform="matrix(.88386 0 0 .88386 244.91 -133.37)"/><path id="path2334" style="stroke-linejoin:round;stroke:#8c000f;fill:#c90016" d="m38.219 26.5c-1.143 5.146-5.731 9-11.219 9-1.215 0-2.372-0.184-3.469-0.531l-3.562 6.125c2.17 0.896 4.538 1.406 7.031 1.406 1.192 0 2.37-0.128 3.5-0.344 0.174-3.555 3.022-6.431 6.562-6.656 0.149-0.009 0.287 0 0.438 0 1.195 0 2.328 0.283 3.312 0.812 2.398-2.685 4.026-6.071 4.532-9.812h-7.125z" transform="matrix(7.5056 0 0 7.5056 0 -133.24)"/></g></g><g id="layer1"><path id="path1328" style="opacity:.51765;fill:url(#linearGradient1340)" d="m116.63-63.731c-18.659 15.526-33.082 36.006-41.304 59.373 13.454 10.293 22.294 26.366 22.294 44.588 0 18.221-8.84 34.294-22.294 44.587 8.218 23.373 22.643 43.863 41.304 59.373l23-39.89c-16.6-16.354-26.99-38.978-26.99-64.07 0-25.094 10.41-47.688 26.99-64.066l-23-39.895zm161.92 216.6c-13.1 1.48-23.23 12.74-23.23 26.29 0 14.55 11.73 26.28 26.28 26.28s26.29-11.73 26.29-26.28-11.74-26.29-26.29-26.29c-0.96 0-1.74-0.03-2.11 0-0.32 0.03-0.62-0.03-0.94 0z"/><path id="path1330" style="opacity:.51765;fill:url(#linearGradient2227)" d="m190.08-94.942c-12.1 1.156-23.69 4.238-34.73 8.448l23.23 39.895c6.32-1.741 12.73-2.944 19.48-3.286 1.73-0.088 3.33 0 4.69 0 41.92 0 77.04 28.75 87.07 67.586h46.23c-4.15-24.685-14.88-47.004-30.51-65.239-7.28 3.377-15.46 5.163-23.94 5.163-29.08 0-53.17-22.106-56.08-50.455-7.44-1.281-15.03-2.112-22.77-2.112-1.89 0-3.57-0.061-5.16 0-0.77 0.029-1.37 0-1.64 0-0.96 0.048-1.54-0.007-1.64 0-0.65 0.04-1.15 0.013-1.41 0-0.07-0.005-0.24 0-0.24 0-0.52 0.039-0.95 0.008-1.17 0-0.04-0.003-0.22 0.003-0.24 0-0.39 0.033-0.78-0.037-1.17 0zm-151.83 108.89c-13.108 1.479-23.233 12.735-23.233 26.284 0 14.549 11.734 26.283 26.283 26.283 14.55 0 26.284-11.734 26.284-26.283 0-14.55-11.734-26.284-26.284-26.284-0.964 0-1.738-0.028-2.112 0-0.317 0.024-0.624-0.035-0.938 0z"/><path id="path1332" style="opacity:.33333;fill:url(#linearGradient2229)" d="m278.55-124.98c-13.1 1.48-23.23 12.73-23.23 26.283 0 14.55 11.73 26.283 26.28 26.283s26.29-11.733 26.29-26.283c0-14.553-11.74-26.283-26.29-26.283h-1.87-0.24c-0.32 0.02-0.62-0.04-0.94 0zm11.03 187.74c-10.11 38.702-45.01 67.582-86.83 67.582-8.35 0-16.27-1.63-23.93-3.75l-23.24 39.89c14.74 5.55 30.52 8.92 47.17 8.92 7.89 0 15.66-1.02 23.24-2.35 2.98-26.99 24.76-48.48 52.09-50.22 1.42-0.09 2.55 0 3.52 0 8.31 0 16.07 2.39 23.24 5.64 15.85-18.3 26.52-40.834 30.74-65.712h-46z"/></g><g id="layer4"><path id="path2272" style="opacity:0.065;fill:#fff" d="m116.63-63.731c-18.659 15.526-33.082 36.006-41.304 59.373 13.454 10.293 22.294 26.366 22.294 44.588 0 18.221-8.84 34.294-22.294 44.587 8.218 23.373 22.643 43.863 41.304 59.373l23-39.89c-16.6-16.354-26.99-38.978-26.99-64.07 0-25.094 10.41-47.688 26.99-64.066l-23-39.895zm-1.88 11.499l15.49 27.222c-14.84 16.516-24.26 38.035-25.11 61.719-0.94-17.222-8.915-32.702-20.886-43.649 6.86-17.239 17.366-32.68 30.506-45.292zm-9.62 95.982c0.85 23.682 10.25 45.213 25.11 61.72l-15.49 27.22c-13.13-12.6-23.653-28.05-30.506-45.291 11.98-10.947 19.946-26.425 20.886-43.649zm173.42 109.12c-13.1 1.48-23.23 12.74-23.23 26.29 0 14.55 11.73 26.28 26.28 26.28s26.29-11.73 26.29-26.28-11.74-26.29-26.29-26.29c-0.96 0-1.74-0.03-2.11 0-0.32 0.03-0.62-0.03-0.94 0zm0.24 7.51c0.44-0.06 0.95 0.04 1.41 0 0.25 0.01 0.73 0 1.4 0 10.49 0 18.78 8.29 18.78 18.78 0 10.48-8.29 18.77-18.78 18.77-10.48 0-18.77-8.29-18.77-18.77 0-9.55 6.93-17.43 15.96-18.78z"/><path id="path2284" style="opacity:0.065;fill:#fff" d="m190.08-94.942c-12.1 1.156-23.69 4.238-34.73 8.448l23.23 39.895c6.32-1.741 12.73-2.944 19.48-3.286 1.73-0.088 3.33 0 4.69 0 41.92 0 77.04 28.75 87.07 67.586h46.23c-4.15-24.685-14.88-47.004-30.51-65.239-7.28 3.377-15.46 5.163-23.94 5.163-29.08 0-53.17-22.106-56.08-50.455-7.44-1.281-15.03-2.112-22.77-2.112-1.89 0-3.57-0.061-5.16 0-0.77 0.029-1.37 0-1.64 0-0.96 0.048-1.54-0.007-1.64 0-0.65 0.04-1.15 0.013-1.41 0-0.07-0.005-0.24 0-0.24 0-0.52 0.039-0.95 0.008-1.17 0-0.04-0.003-0.22 0.003-0.24 0-0.39 0.033-0.78-0.037-1.17 0zm1.17 7.509c0.07 0.002 0.12 0.004 0.24 0 0.18-0.017 0.29 0.016 0.47 0 0.34-0.016 0.85 0.041 1.41 0 0.33-0.01 0.76 0.041 1.4 0 0.3-0.003 0.75 0.034 1.41 0 0.28 0.005 0.91 0.029 1.65 0 1.2-0.045 2.84 0 4.92 0 5.85 0 11.62 0.831 17.37 1.643 3.22 15.098 11.2 28.557 22.76 37.782-12.22-5.873-25.69-9.386-40.13-9.386-1.11 0-2.69-0.114-4.92 0-5.24 0.265-10.41 1.531-15.49 2.581l-15.26-26.518c7.91-2.438 15.86-5.265 24.17-6.102zm66.18 47.874c7.46 3.053 15.65 4.693 24.17 4.693 7.13 0 13.9-1.58 20.42-3.755 11.28 14.17 19.02 30.7 23.47 48.812h-30.98c-6.76-20.483-19.65-37.774-37.08-49.75zm-219.18 53.505c-13.108 1.479-23.233 12.735-23.233 26.284 0 14.549 11.734 26.283 26.283 26.283 14.55 0 26.284-11.734 26.284-26.283 0-14.55-11.734-26.284-26.284-26.284-0.964 0-1.738-0.028-2.112 0-0.317 0.024-0.624-0.035-0.938 0zm0.704 7.51c0.298-0.037 0.636 0.023 0.938 0 0.236-0.004 0.739 0 1.408 0 10.487 0 18.774 8.287 18.774 18.774 0 10.486-8.287 18.773-18.774 18.773-10.486 0-18.773-8.287-18.773-18.773 0-9.7 7.175-17.624 16.427-18.774z"/><path id="path2301" style="opacity:0.065;fill:#fff" d="m278.55-124.98c-13.1 1.48-23.23 12.73-23.23 26.283 0 14.55 11.73 26.283 26.28 26.283s26.29-11.733 26.29-26.283c0-14.553-11.74-26.283-26.29-26.283h-1.87-0.24c-0.32 0.02-0.62-0.04-0.94 0zm0.71 7.51c0.3-0.04 0.63 0.02 0.94 0h1.4c10.49 0 18.78 8.29 18.78 18.773 0 10.487-8.29 18.774-18.78 18.774-10.48 0-18.77-8.287-18.77-18.774 0-9.703 7.18-17.623 16.43-18.773zm10.32 180.23c-10.11 38.702-45.01 67.582-86.83 67.582-8.35 0-16.27-1.63-23.93-3.75l-23.24 39.89c14.74 5.55 30.52 8.92 47.17 8.92 7.89 0 15.66-1.02 23.24-2.35 2.98-26.99 24.76-48.48 52.09-50.22 1.42-0.09 2.55 0 3.52 0 8.31 0 16.07 2.39 23.24 5.64 15.85-18.3 26.52-40.834 30.74-65.712h-46zm4.93 7.51h30.98c-4.45 18.112-12.19 34.642-23.47 48.812-6.52-2.18-13.29-3.76-20.42-3.76-0.66 0-1.96-0.12-3.99 0-7.56 0.48-14.71 2.47-21.35 5.4 17.97-11.98 31.34-29.523 38.25-50.452zm-49.05 56.322c-13.04 9.19-21.87 23.42-25.34 39.66-5.75 0.81-11.52 1.64-17.37 1.64-12.63 0-24.62-2.4-36.14-5.87l15.96-27.22c6.59 1.4 13.18 3.05 20.18 3.05 15.54 0 29.82-4.49 42.71-11.26z"/></g></g></svg>
