<?xml version="1.0" encoding="UTF-8" standalone="no"?>
<!-- Generator: Adobe Illustrator 9.0, SVG Export Plug-In  -->
<svg id="svg1358" xmlns:rdf="http://www.w3.org/1999/02/22-rdf-syntax-ns#" xmlns="http://www.w3.org/2000/svg" sodipodi:docname="folder-remote.svg" xml:space="preserve" height="48px" sodipodi:version="0.32" width="48px" xmlns:cc="http://web.resource.org/cc/" xmlns:dc="http://purl.org/dc/elements/1.1/" viewBox="0 0 48 48" sodipodi:docbase="/home/luca/Artwork/blackwhite-icon-theme/scalable/places" xmlns:sodipodi="http://inkscape.sourceforge.net/DTD/sodipodi-0.dtd">
<metadata id="metadata1375">
  <rdf:RDF>
    <cc:Work rdf:about="">
      <dc:format>image/svg+xml</dc:format>
      <dc:type rdf:resource="http://purl.org/dc/dcmitype/StillImage"/>
      <dc:title>Remote Folder Icon</dc:title>
      <dc:description>A remote or networked folder</dc:description>
      <cc:license rdf:resource="http://creativecommons.org/licenses/GPL/2.0/"/>
      <dc:contributor>
        <cc:Agent>
          <dc:title/>
        </cc:Agent>
      </dc:contributor>
      <dc:subject>
        <rdf:Bag>
          <rdf:li>folder</rdf:li>
          <rdf:li>remote</rdf:li>
          <rdf:li>share</rdf:li>
        </rdf:Bag>
      </dc:subject>
      <dc:date/>
    </cc:Work>
   <cc:License rdf:about="http://creativecommons.org/licenses/LGPL/2.1/"><cc:permits rdf:resource="http://web.resource.org/cc/Reproduction"/><cc:permits rdf:resource="http://web.resource.org/cc/Distribution"/><cc:requires rdf:resource="http://web.resource.org/cc/Notice"/><cc:permits rdf:resource="http://web.resource.org/cc/DerivativeWorks"/><cc:requires rdf:resource="http://web.resource.org/cc/ShareAlike"/><cc:requires rdf:resource="http://web.resource.org/cc/SourceCode"/></cc:License></rdf:RDF></metadata><sodipodi:namedview id="base" gridspacingy="1.0000000px" gridspacingx="1.0000000px" borderopacity="1.0" showgrid="true" bordercolor="#666666" guidetolerance="0.50000000px" gridoriginy="0.0000000px" gridoriginx="0.0000000px" pagecolor="#ffffff" gridtolerance="0.50000000px" gridempspacing="5" showguides="true"/>
	<rect id="rect4762" style="fill:none" height="48" width="48" y="0" x="0"/><path id="path5481" sodipodi:nodetypes="cccccccccccccccccccc" style="stroke:#fff;stroke-width:8;fill:#fff" d="m9 4c-2 0-3 1-3 3v21c0 2 2 4 4 4h11v7h-9c-2 2-2 3 0 5h22c2-2 2-3 0-5h-9v-7h13c2 0 4-2 4-4v-14c0-2-2-4-4-4h-14v-3c0-2-1-3-3-3h-12z"/><path id="path1365" sodipodi:nodetypes="cccccccccccccccccccc" d="m9 4c-2 0-3 1-3 3v21c0 2 2 4 4 4h11v7h-9c-2 2-2 3 0 5h22c2-2 2-3 0-5h-9v-7h13c2 0 4-2 4-4v-14c0-2-2-4-4-4h-14v-3c0-2-1-3-3-3h-12z"/>
<path id="path1306" sodipodi:nodetypes="cccc" style="stroke-linejoin:round;stroke:#fff;stroke-linecap:round;stroke-width:4;fill:none" d="m11 12h8v4h18"/></svg>
