<?xml version="1.0" encoding="UTF-8" standalone="no"?>
<!-- Created with Inkscape (http://www.inkscape.org/) -->
<svg id="svg1872" xmlns:rdf="http://www.w3.org/1999/02/22-rdf-syntax-ns#" xmlns="http://www.w3.org/2000/svg" height="48px" width="48px" xmlns:cc="http://web.resource.org/cc/" xmlns:dc="http://purl.org/dc/elements/1.1/">
 <metadata id="metadata1877">
  <rdf:RDF>
   <cc:Work rdf:about="">
    <dc:format>image/svg+xml</dc:format>
    <dc:type rdf:resource="http://purl.org/dc/dcmitype/StillImage"/>
    <dc:title>Bookmark View</dc:title>
    <dc:creator>
     <cc:Agent>
      <dc:title>Luca Ferretti &lt;elle.uca@libero.it&gt;</dc:title>
     </cc:Agent>
    </dc:creator>
    <dc:subject>
     <rdf:Bag>
      <rdf:li>bookmark</rdf:li>
      <rdf:li>view</rdf:li>
      <rdf:li>edit</rdf:li>
      <rdf:li>web</rdf:li>
      <rdf:li>favorites</rdf:li>
     </rdf:Bag>
    </dc:subject>
    <dc:coverage>Manage bookmarks in web browser</dc:coverage>
    <dc:description>A book with a bookmark</dc:description>
    <cc:license rdf:resource="http://creativecommons.org/licenses/LGPL/2.1/"/>
   </cc:Work>
   <cc:License rdf:about="http://creativecommons.org/licenses/LGPL/2.1/">
    <cc:permits rdf:resource="http://web.resource.org/cc/Reproduction"/>
    <cc:permits rdf:resource="http://web.resource.org/cc/Distribution"/>
    <cc:requires rdf:resource="http://web.resource.org/cc/Notice"/>
    <cc:permits rdf:resource="http://web.resource.org/cc/DerivativeWorks"/>
    <cc:requires rdf:resource="http://web.resource.org/cc/ShareAlike"/>
    <cc:requires rdf:resource="http://web.resource.org/cc/SourceCode"/>
   </cc:License>
  </rdf:RDF>
 </metadata>
 <g id="layer1">
  <rect id="rect2768" style="fill-rule:evenodd;stroke:#fff;stroke-width:12;fill:#fff" rx="2.9601" ry="2.959" height="22" width="36" y="20" x="6"/>
  <rect id="rect1880" style="fill-rule:evenodd;stroke:#000;stroke-width:4;fill:#fff" rx="2.9601" ry="2.959" height="21" width="35" y="21" x="6"/>
  <rect id="rect5907" style="fill:#fff" height="8" width="10" y="11" x="27"/>
  <path id="path5909" style="stroke-linejoin:round;stroke:#fff;stroke-width:1.4887;fill:none" d="m38 4.7149a2.5 2.7149 0 1 1 -5 0 2.5 2.7149 0 1 1 5 0z" transform="matrix(2.8 0 0 2.5784 -67.4 -3.1568)"/>
  <path id="path4932" style="stroke-linejoin:round;stroke:#000;stroke-width:2.6052;fill:#fff" d="m38 4.7149a2.5 2.7149 0 1 1 -5 0 2.5 2.7149 0 1 1 5 0z" transform="matrix(1.6 0 0 1.4734 -24.8 2.0533)"/>
  <rect id="rect5905" height="7" width="4" y="12" x="30"/>
  <path id="path5915" style="stroke:#000;stroke-width:3;fill:none" d="m23.571 20.545l17.853 16.023"/>
  <path id="path5917" style="stroke:#000;stroke-width:3;fill:none" d="m12.647 22l22.353 20"/>
  <path id="path5919" style="stroke:#000;stroke-width:3;fill:none" d="m5.5 26.477l17.853 16.023"/>
 </g>
</svg>
