<?xml version="1.0" encoding="UTF-8" standalone="no"?>
<!-- Created with Inkscape (http://www.inkscape.org/) -->
<svg id="svg5541" xmlns:rdf="http://www.w3.org/1999/02/22-rdf-syntax-ns#" xmlns="http://www.w3.org/2000/svg" height="48px" width="48px" xmlns:cc="http://web.resource.org/cc/" xmlns:dc="http://purl.org/dc/elements/1.1/">
 <metadata id="metadata5546">
  <rdf:RDF>
   <cc:Work rdf:about="">
    <dc:format>image/svg+xml</dc:format>
    <dc:type rdf:resource="http://purl.org/dc/dcmitype/StillImage"/>
    <dc:title>Podcast library</dc:title>
    <dc:date>June 2007</dc:date>
    <dc:creator>
     <cc:Agent>
      <dc:title>Andreas Nilsson</dc:title>
     </cc:Agent>
    </dc:creator>
    <cc:license rdf:resource="http://www.fsf.org/licensing/licenses/gpl.html"/>
   </cc:Work>
  </rdf:RDF>
 </metadata>
 <g id="layer1">
  <path id="path5553" style="stroke:#fff;stroke-width:1.0304" d="m29.763 24.158a5.6675 5.6675 0 1 1 -11.336 0 5.6675 5.6675 0 1 1 11.336 0z" transform="matrix(3.8941 0 0 3.8699 -69.865 -69.454)"/>
  <path id="path5539" style="stroke:#fff;stroke-width:1.623" d="m29.763 24.158a5.6675 5.6675 0 1 1 -11.336 0 5.6675 5.6675 0 1 1 11.336 0z" transform="matrix(2.4726 0 0 2.4565 -35.6 -35.459)"/>
  <path id="path5537" style="stroke:#fff;stroke-width:3.8066" d="m29.763 24.158a5.6675 5.6675 0 1 1 -11.336 0 5.6675 5.6675 0 1 1 11.336 0z" transform="matrix(1.0526 0 0 1.049 -1.3934 -1.2798)"/>
 </g>
</svg>
