<?xml version="1.0" encoding="UTF-8" standalone="no"?>
<!-- Created with Inkscape (http://www.inkscape.org/) -->
<svg id="svg5541" xmlns:rdf="http://www.w3.org/1999/02/22-rdf-syntax-ns#" xmlns="http://www.w3.org/2000/svg" height="48px" width="48px" xmlns:cc="http://web.resource.org/cc/" xmlns:dc="http://purl.org/dc/elements/1.1/">
 <metadata id="metadata5546">
  <rdf:RDF>
   <cc:Work rdf:about="">
    <dc:format>image/svg+xml</dc:format>
    <dc:type rdf:resource="http://purl.org/dc/dcmitype/StillImage"/>
    <dc:title>Podcast library</dc:title>
    <dc:date>June 2007</dc:date>
    <dc:creator>
     <cc:Agent>
      <dc:title>Andreas Nilsson</dc:title>
     </cc:Agent>
    </dc:creator>
    <cc:license rdf:resource="http://www.fsf.org/licensing/licenses/gpl.html"/>
   </cc:Work>
  </rdf:RDF>
 </metadata>
 <g id="layer1">
  <rect id="rect5956" style="stroke:#fff;stroke-width:4" rx="5.0625" ry="5.0625" height="44.017" width="44.118" y="2.1264" x="1.9551"/>
  <rect id="rect5958" style="fill:#fff" height="31.82" width="31.82" y="8.0485" x="8.1317"/>
  <path id="path6353" d="m28.726 30.853a6.364 4.773 0 1 1 -12.728 0 6.364 4.773 0 1 1 12.728 0z" transform="matrix(1.4215 0 0 1.8988 -7.8726 -34.625)"/>
  <path id="path6758" style="stroke:#000;stroke-width:4;fill:none" d="m11.004 24.047h26.057"/>
  <path id="path6760" style="stroke:#000;stroke-width:4;fill:none" d="m23.9 11.081v26.056"/>
  <path id="path6762" style="stroke:#000;stroke-width:4;fill:none" d="m15.971 33.01l17.019-17.019"/>
  <path id="path6764" style="stroke:#000;stroke-width:4;fill:none" d="m15.953 16.066l17.018 17.018"/>
  <path id="path6851" style="fill:#fff" d="m27.5 23.562a3.1875 3.125 0 1 1 -6.375 0 3.1875 3.125 0 1 1 6.375 0z" transform="matrix(1.5325 0 0 1.5953 -13.386 -13.544)"/>
 </g>
</svg>
