<?xml version="1.0" encoding="UTF-8" standalone="no"?>
<!-- Generator: Adobe Illustrator 9.0, SVG Export Plug-In  -->
<svg id="svg1358" xmlns:rdf="http://www.w3.org/1999/02/22-rdf-syntax-ns#" xmlns="http://www.w3.org/2000/svg" sodipodi:docname="user-desktop.svg" xml:space="preserve" height="48" sodipodi:version="0.32" width="48" version="1.0" xmlns:cc="http://web.resource.org/cc/" xmlns:dc="http://purl.org/dc/elements/1.1/" viewBox="0 0 48 48" sodipodi:docbase="/home/luca/Artwork/blackwhite-icon-theme/scalable/places" xmlns:sodipodi="http://inkscape.sourceforge.net/DTD/sodipodi-0.dtd">
<metadata id="metadata1375">
  <rdf:RDF>
    <cc:Work rdf:about="">
      <dc:format>image/svg+xml</dc:format>
      <dc:type rdf:resource="http://purl.org/dc/dcmitype/StillImage"/>
      <dc:title>Desktop Icon</dc:title>
      <dc:description>A desktop rapresentation</dc:description>
      <cc:license rdf:resource="http://creativecommons.org/licenses/LGPL/2.1/"/>
      <dc:subject>
        <rdf:Bag>
          <rdf:li>destkop</rdf:li>
          <rdf:li>storage</rdf:li>
          <rdf:li>files</rdf:li>
          <rdf:li>default location</rdf:li>
        </rdf:Bag></dc:subject>
    </cc:Work><cc:License rdf:about="http://creativecommons.org/licenses/LGPL/2.1/"><cc:permits rdf:resource="http://web.resource.org/cc/Reproduction"/><cc:permits rdf:resource="http://web.resource.org/cc/Distribution"/><cc:requires rdf:resource="http://web.resource.org/cc/Notice"/><cc:permits rdf:resource="http://web.resource.org/cc/DerivativeWorks"/><cc:requires rdf:resource="http://web.resource.org/cc/ShareAlike"/><cc:requires rdf:resource="http://web.resource.org/cc/SourceCode"/></cc:License></rdf:RDF></metadata><sodipodi:namedview id="base" gridspacingy="1.0000000pt" gridspacingx="1.0000000pt" borderopacity="1.0" showgrid="true" bordercolor="#666666" guidetolerance="1.0000000pt" gridoriginy="0.0000000pt" gridoriginx="0.0000000pt" pagecolor="#ffffff" gridtolerance="1.0000000pt" gridempspacing="5"/>
	<g id="g7237" style="stroke:#fff;stroke-width:8.5312;fill:none" transform="matrix(.83512 0 0 .97553 3.9525 -4.5373)">
			<path id="path7239" sodipodi:nodetypes="ccccccccc" style="stroke:#fff;stroke-width:8.5312;fill:none" d="m3.4893 9.6304c-1.4661 0-2.4137 0.3581-2.4137 2.0656v35.115c0.0979 1.143 1.2108 2.066 2.4137 2.066l41.261-0.019c1.203 0 2.185-0.646 2.185-2.047v-35.115c0-1.401-1.21-2.0656-2.413-2.0656h-41.033z"/>
		</g><g id="g1361" style="stroke:#000;stroke-width:7" transform="matrix(.82861 0 0 .96825 4.1087 -4.3246)">
			<path id="path1365" sodipodi:nodetypes="ccccccccc" d="m3.4893 9.6304c-1.2069 0-2.4137 1.0326-2.4137 2.0656v35.115c0.0979 1.143 1.2108 2.066 2.4137 2.066l41.261-0.019c1.203 0 2.185-1.014 2.185-2.047v-35.115c0-1.033-1.21-2.0656-2.413-2.0656h-41.033z"/>
		</g>
	<g id="crop_x0020_marks" style="stroke:#000">
		<path id="path1370" style="fill:none" d="m48 48h-48v-48h48v48z"/>
	</g>
<rect id="rect5771" style="fill:#fffffe" rx="1.064" ry="1.25" height="14.202" width="20.868" y="24" x="9"/><rect id="rect6499" rx="0.00969" ry=".011628" height="4" width="15" y="26" x="12"/><rect id="rect7987" style="fill:#fffffe" rx="1.064" ry="1.25" height="11" width="15.868" y="9" x="23.132"/><rect id="rect7989" rx="0.00969" ry=".011628" height="3.7984" width="10" y="11" x="26"/></svg>
