<?xml version="1.0" encoding="UTF-8" standalone="no"?>
<!-- Created with Inkscape (http://www.inkscape.org/) -->
<svg id="svg2" xmlns:rdf="http://www.w3.org/1999/02/22-rdf-syntax-ns#" xmlns="http://www.w3.org/2000/svg" height="48" width="48" version="1.0" xmlns:cc="http://web.resource.org/cc/" xmlns:xlink="http://www.w3.org/1999/xlink" xmlns:dc="http://purl.org/dc/elements/1.1/">
 <defs id="defs4">
  <linearGradient id="linearGradient5137">
   <stop id="stop5139" style="stop-color:#eeeeec" offset="0"/>
   <stop id="stop5141" style="stop-color:#e6e6e3" offset="1"/>
  </linearGradient>
  <linearGradient id="linearGradient8918">
   <stop id="stop8920" style="stop-color:#abe14b" offset="0"/>
   <stop id="stop8922" style="stop-color:#8cb029" offset="1"/>
  </linearGradient>
  <filter id="filter14190">
   <feGaussianBlur id="feGaussianBlur14192" stdDeviation="0.78891781"/>
  </filter>
  <radialGradient id="radialGradient7061" gradientUnits="userSpaceOnUse" cy="31.564" cx="16.537" r="16.336">
   <stop id="stop13103" offset="0"/>
   <stop id="stop13105" style="stop-opacity:0" offset="1"/>
  </radialGradient>
  <linearGradient id="linearGradient7063" y2="48.41" gradientUnits="userSpaceOnUse" x2="17.795" y1="15.976" x1="11.167">
   <stop id="stop4175" style="stop-color:#4d82c7" offset="0"/>
   <stop id="stop4177" style="stop-color:#3465a4" offset="1"/>
  </linearGradient>
  <linearGradient id="linearGradient7065" y2="52.398" gradientUnits="userSpaceOnUse" x2="15.877" y1="14.684" x1="15.865">
   <stop id="stop5156" style="stop-color:#bcd1f0" offset="0"/>
   <stop id="stop5158" style="stop-color:#89aee3;stop-opacity:.40698" offset="1"/>
  </linearGradient>
  <linearGradient id="linearGradient7095" y2="33.344" gradientUnits="userSpaceOnUse" x2="44.018" gradientTransform="matrix(1 0 0 1.0582 0 -1.8585)" y1="42.278" x1="42.381">
   <stop id="stop4614" style="stop-color:#cecece" offset="0"/>
   <stop id="stop4616" style="stop-color:#fff" offset="1"/>
  </linearGradient>
  <radialGradient id="radialGradient7099" gradientUnits="userSpaceOnUse" cy="42.688" cx="23.938" gradientTransform="matrix(.96824 0 0 .24924 65.36 33.821)" r="23.76">
   <stop id="stop5227" offset="0"/>
   <stop id="stop5229" style="stop-opacity:0" offset="1"/>
  </radialGradient>
  <linearGradient id="linearGradient7101" y2="43.826" xlink:href="#linearGradient5137" gradientUnits="userSpaceOnUse" x2="31.861" gradientTransform="matrix(1.0693 0 0 1.1082 62.681 -2.863)" y1="37.842" x1="31.743"/>
  <linearGradient id="linearGradient7103" y2="38.876" xlink:href="#linearGradient5137" gradientUnits="userSpaceOnUse" x2="39.904" gradientTransform="matrix(.98941 0 0 .98672 64.587 1.3923)" y1="6.376" x1="17.248"/>
  <linearGradient id="linearGradient7105" y2="9.2363" gradientUnits="userSpaceOnUse" x2="90.919" y1="31.628" x1="90.919">
   <stop id="stop25407" style="stop-color:#4f84c8" offset="0"/>
   <stop id="stop25409" style="stop-color:#3465a4" offset="1"/>
  </linearGradient>
  <linearGradient id="linearGradient7107" y2="40.22" gradientUnits="userSpaceOnUse" x2="23.529" gradientTransform="matrix(1.0817 0 0 1.0794 62.206 -1.7209)" y1="34.573" x1="23.155">
   <stop id="stop11402" offset="0"/>
   <stop id="stop11404" style="stop-opacity:0" offset="1"/>
  </linearGradient>
  <linearGradient id="linearGradient7109" y2="26.039" gradientUnits="userSpaceOnUse" x2="20.157" gradientTransform="matrix(0.959 0 0 .98227 65.322 1.9967)" y1="5.0996" x1="20.157">
   <stop id="stop6242" style="stop-color:#fff" offset="0"/>
   <stop id="stop6244" style="stop-color:#fff;stop-opacity:0" offset="1"/>
  </linearGradient>
  <linearGradient id="linearGradient8096" y2="26.142" gradientUnits="userSpaceOnUse" x2="137.04" gradientTransform="matrix(1.1354 .38270 -.38149 1.1318 -110.42 -58.018)" y1="26.582" x1="139.81">
   <stop id="stop8092" style="stop-color:#214e90" offset="0"/>
   <stop id="stop8094" style="stop-color:#0d1f3a" offset="1"/>
  </linearGradient>
  <linearGradient id="linearGradient8106" y2="25.485" gradientUnits="userSpaceOnUse" x2="142.38" gradientTransform="matrix(1.1354 .38270 -.38149 1.1318 -110.42 -58.018)" y1="25.485" x1="135.06">
   <stop id="stop8102" style="stop-color:#1c427b" offset="0"/>
   <stop id="stop8104" style="stop-color:#1c427b;stop-opacity:.97931" offset="1"/>
  </linearGradient>
  <linearGradient id="linearGradient8121" y2="29.286" gradientUnits="userSpaceOnUse" x2="146.8" gradientTransform="matrix(1.0217 0 0 1 -102.97 0)" y1="29.455" x1="138.24">
   <stop id="stop8117" style="stop-color:#e3e3e3" offset="0"/>
   <stop id="stop8123" style="stop-color:#d4d4d4" offset=".5"/>
   <stop id="stop8125" style="stop-color:#848484" offset=".5"/>
   <stop id="stop8119" style="stop-color:#c1c1c1" offset="1"/>
  </linearGradient>
  <linearGradient id="linearGradient8133" y2="28.502" gradientUnits="userSpaceOnUse" x2="141.46" gradientTransform="matrix(1.0046 0 0 1 -100.41 0)" y1="24.998" x1="141.08">
   <stop id="stop8129" style="stop-color:#e5e5e5" offset="0"/>
   <stop id="stop8131" style="stop-color:#767676" offset="1"/>
  </linearGradient>
  <linearGradient id="linearGradient8143" y2="26.851" gradientUnits="userSpaceOnUse" x2="144.29" gradientTransform="matrix(1.0046 0 0 1 -100.41 0)" y1="26.125" x1="142.9">
   <stop id="stop8139" style="stop-color:#efefef" offset="0"/>
   <stop id="stop8141" style="stop-color:#d7d7d7" offset="1"/>
  </linearGradient>
  <linearGradient id="linearGradient13096" y2="32.121" gradientUnits="userSpaceOnUse" x2="44.09" y1="26.521" x1="40.321">
   <stop id="stop13092" style="stop-color:#7b7b7b" offset="0"/>
   <stop id="stop13094" style="stop-color:#505050" offset="1"/>
  </linearGradient>
  <linearGradient id="linearGradient13128" y2="24.55" gradientUnits="userSpaceOnUse" x2="39.48" gradientTransform="translate(.27022 .37750)" y1="26.509" x1="43.223">
   <stop id="stop13124" style="stop-color:#fff" offset="0"/>
   <stop id="stop13126" style="stop-color:#fff;stop-opacity:0" offset="1"/>
  </linearGradient>
  <linearGradient id="linearGradient13136" y2="25.092" gradientUnits="userSpaceOnUse" x2="39.727" y1="27.865" x1="43.774">
   <stop id="stop13132" style="stop-color:#616161" offset="0"/>
   <stop id="stop13134" style="stop-opacity:0" offset="1"/>
  </linearGradient>
  <radialGradient id="radialGradient3168" xlink:href="#linearGradient8918" gradientUnits="userSpaceOnUse" cy="17.258" cx="25.969" gradientTransform="matrix(.050421 1.8169 -1.2229 .033892 50.07 -36.844)" r="9.8222"/>
  <radialGradient id="radialGradient3183" fx="24.652" xlink:href="#linearGradient8918" gradientUnits="userSpaceOnUse" cy="18.944" cx="24.653" gradientTransform="matrix(.055773 2.0097 -1.4345 .039779 54.923 -38.966)" r="8.6174"/>
  <radialGradient id="radialGradient3198" xlink:href="#linearGradient8918" gradientUnits="userSpaceOnUse" cy="17.574" cx="24.479" gradientTransform="matrix(.18150 6.5402 -.48814 .013532 34.419 -149.32)" r="2.972"/>
  <radialGradient id="radialGradient3218" xlink:href="#linearGradient8918" gradientUnits="userSpaceOnUse" cy="14.542" cx="25.135" gradientTransform="matrix(.13046 4.7009 -.65983 .018278 36.345 -107.33)" r="4.1347"/>
 </defs>
 <metadata id="metadata7">
  <rdf:RDF>
   <cc:Work rdf:about="">
    <dc:format>image/svg+xml</dc:format>
    <dc:type rdf:resource="http://purl.org/dc/dcmitype/StillImage"/>
    <dc:creator>
     <cc:Agent>
      <dc:title>Vinicius Depizzol &lt;vdepizzol@gmail.com&gt;</dc:title>
     </cc:Agent>
    </dc:creator>
    <dc:source/>
    <dc:contributor>
     <cc:Agent>
      <dc:title>Jakub Steiner
Luca Ferretti &lt;elle.uca@libero.it&gt;
Bruno Depizzol &lt;bdepizzol@gmail.com&gt;</dc:title>
     </cc:Agent>
    </dc:contributor>
    <dc:date>2007-11-11</dc:date>
    <dc:title>Vinagre VNC Client</dc:title>
    <cc:license rdf:resource="http://creativecommons.org/licenses/GPL/2.0/"/>
    <dc:subject>
     <rdf:Bag>
      <rdf:li>vinagre</rdf:li>
      <rdf:li>VNC</rdf:li>
      <rdf:li>desktop sharing</rdf:li>
      <rdf:li>remote desktop</rdf:li>
     </rdf:Bag>
    </dc:subject>
   </cc:Work>
   <cc:License rdf:about="http://creativecommons.org/licenses/GPL/2.0/">
    <cc:permits rdf:resource="http://web.resource.org/cc/Reproduction"/>
    <cc:permits rdf:resource="http://web.resource.org/cc/Distribution"/>
    <cc:requires rdf:resource="http://web.resource.org/cc/Notice"/>
    <cc:permits rdf:resource="http://web.resource.org/cc/DerivativeWorks"/>
    <cc:requires rdf:resource="http://web.resource.org/cc/ShareAlike"/>
    <cc:requires rdf:resource="http://web.resource.org/cc/SourceCode"/>
   </cc:License>
  </rdf:RDF>
 </metadata>
 <g id="layer1">
  <path id="path7005" style="opacity:.61967;filter:url(#filter14190);fill:url(#radialGradient7061)" d="m32.872 31.564a16.336 16.336 0 1 1 -32.671 0 16.336 16.336 0 1 1 32.671 0z" transform="matrix(.97946 0 0 .35297 13.303 20.613)"/>
  <g id="g7007" transform="translate(0,40)">
   <path id="path7009" style="stroke:#204a87;stroke-linecap:round;stroke-width:1.021;fill:url(#linearGradient7063)" d="m32.872 31.564a16.336 16.336 0 1 1 -32.671 0 16.336 16.336 0 1 1 32.671 0z" transform="matrix(.97946 0 0 .97946 13.303 -52.415)"/>
   <path id="path7011" style="stroke:url(#linearGradient7065);stroke-linecap:round;stroke-width:1.089;fill:none" d="m32.872 31.564a16.336 16.336 0 1 1 -32.671 0 16.336 16.336 0 1 1 32.671 0z" transform="matrix(.91824 0 0 .91824 14.315 -50.483)"/>
   <g id="g7013" transform="translate(0,-40)">
    <path id="path7015" style="fill:#93d442" d="m30.553 6.915l-0.06 0.403 0.417 0.2689 0.712-0.4704-0.356-0.4034-0.476 0.2693-0.237-0.0674"/>
    <path id="path7017" style="fill:url(#radialGradient3218)" d="m31.438 5.0683c-0.674-0.2085-1.308-0.6829-2.047-0.5586-0.46 0.062-0.927 0.0918-1.382 0.1957-0.609 0.1198-1.196 0.3266-1.797 0.475-0.255 0.0758-0.714 0.2448-0.564 0.5915 0.255 0.2915 0.674 0.3862 0.962 0.6476 0.281 0.1904 0.388 0.6874 0.055 0.8753-0.264 0.2297-0.321 0.6457-0.108 0.9282 0.202 0.2186 0.178 0.6123 0.502 0.7328 0.307 0.13 0.56-0.1885 0.648-0.4473 0.237-0.4923 0.732-0.8566 1.281-0.8969 0.564-0.2748 1.208-0.388 1.715-0.7755 0.313-0.5591 0.478-1.1837 0.735-1.7679"/>
    <path id="path7019" style="fill:#93d442" d="m31.733 9.8063l-0.238-0.6056-0.417 0.1348 0.12 0.7385 0.535-0.2677"/>
    <path id="path7021" style="fill:#93d442" d="m32.278 9.6707c-0.04 0.2692-0.079 0.5383-0.119 0.8073 0.218-0.045 0.436-0.09 0.654-0.135 0.158-0.156 0.316-0.313 0.475-0.4696-0.139-0.1345-0.278-0.2691-0.416-0.4037-0.138-0.3672-0.302-0.7237-0.475-1.0756h-0.356v0.403c0.079 0.0896 0.158 0.1793 0.237 0.2689v0.6048"/>
    <path id="path7023" style="fill:url(#radialGradient3183)" d="m16.796 16.53c0.92-0.679 2.027-1.076 3.141-1.365 0.992-0.308 0.942-1.813 2.012-1.955 0.179-0.87 1.86-0.517 1.694-1.451-0.389-0.05-1.683 0.059-0.65-0.328 0.657-0.016 2.654-0.401 1.368-1.151-0.109-0.4477-0.198-1.2307-0.926-0.7387 0.294-0.9696-1.207-0.9473-1.129 0.0076-0.078 0.6171-0.881 1.0891-1.063 1.3771 0.027-0.867-2.196-1.2061-0.621-1.9151 0.801-0.1052 2.03-1.7709 0.63-1.742-0.671 0.7627-1.779 1.2892-2.426 2.2609-1.962 2.2672-3.188 5.1422-3.531 8.1162"/>
    <path id="path7025" style="fill:url(#radialGradient3198)" d="m22.427 6.9315c-0.061 0.276-0.512 0.8271 0.021 0.7438 0.481 0.0842 0.374-0.5847 0.704-0.7829 0.283-0.1724 0.593-0.5396 0.957-0.339 0.42 0.1451 0.755 0.4536 1.129 0.6831 0.314 0.4153 0.63-0.0205 0.876-0.2579-0.077-0.2368-0.58-0.1661-0.689-0.4677-0.037-0.526-0.584-0.5166-0.981-0.546-0.317 0.1296-0.382-0.2901-0.473-0.3674-0.356-0.0034-0.606 0.2821-0.729 0.5418-0.11-0.173-0.319-0.798-0.387-0.2514 0.08 0.4008 0.035 0.8125-0.383 1.0058l-0.045 0.0378z"/>
    <path id="path7027" style="fill:url(#radialGradient3168)" d="m43.842 16.46c-0.487 0.997-2.838-1.775-2.241-0.076 0.722 0.815 2.1 0.518 0.964 1.962-0.937 1.025-2.163 1.557-2.267-0.235-0.204-1.142-2.167-3.103-1.062-0.886 0.439 1.402 1.167 2.695 2.627 2.599-0.055 1.762-2.391 3.066-1.614 4.965 0.602 1.403-1.932 1.735-1.067 2.84-0.386 1.155-2.38 3.361-3.173 1.908-0.939-2.04-0.493-4.161-0.923-6.283-0.165-1.407-0.701-2.803-2.503-2.076-1.692 0.88-2.925-2.001-2.444-3.469 0.411-2.02 2.432-4.281 4.652-3.437 1.006 1.213 2.57 0.782 3.959 0.577 0.405-0.809-1.568-1.12-1.891-1.589-0.076 1.996-1.837-2.122-1.052-0.248-0.485 1.698-0.693-1.53-2.003-0.342-0.7 0.515-1.964 2.419-2.263 0.544 0.178-1.219 1.656-0.652 0.942-1.827 1.286-0.111 1.54-2.3641 2.738-1.07 0.41-0.293 2.29-1.5422 1.009-1.5501 0.322-2.0232-0.966 0.1644-1.025 0.9522-0.667-0.6438-2.184 0.0011-1.157-1.4232 0.964-1.3004 2.834-1.9047 4.199-0.7223-1.452-0.0167-0.009 1.3423 0.563 0.3337 1.761 0.8198 2.768 2.9517 3.788 4.5657 0.612 1.256 1.036 2.605 1.244 3.987z"/>
   </g>
  </g>
  <path id="path7111" style="fill-rule:evenodd;stroke:url(#linearGradient8106);stroke-width:1px;fill:url(#linearGradient8096)" d="m41.152 26.166c-1.781 1.51-4.726 2.338-6.409 2.99l-0.786-5.093c2.999-0.754 4.724-1.506 6.937-2.858l0.258 4.961z"/>
  <path id="path8098" style="fill:#0d1f3a;fill-rule:evenodd" d="m40.675 26.108l-4.473-2.139c1.503-0.534 2.996-1.155 4.263-1.933l0.21 4.072z"/>
  <path id="path8110" style="fill-rule:evenodd;stroke:url(#linearGradient13096);stroke-width:1px;fill:url(#linearGradient8121)" d="m46.485 27.456l-6.085-2.739-3.918 1.319 0.053 2.619 6.144 3.793 3.814-1.632-0.008-3.36z"/>
  <path id="path8135" style="stroke:#7b7b7b;stroke-width:3.5;fill:none" d="m44.41 30.005c2.478 3.108 1.547 9.437-2.017 11.584-4.43 2.669-8.427-2.741-17.379-0.218"/>
  <path id="path7035" style="stroke:url(#linearGradient7095);stroke-width:1.3;fill:none" d="m44.579 30.089c2.148 2.679 1.378 9.353-2.186 11.5-4.43 2.669-8.427-2.741-17.379-0.218"/>
  <path id="path8108" style="fill-rule:evenodd;stroke:url(#linearGradient8133);stroke-width:1px;fill:url(#linearGradient8143)" d="m45.883 27.239l-5.221-2.767-3.137 1.309 5.142 3.01 3.216-1.552z"/>
  <g id="g7039" transform="matrix(.69577 0 0 .69577 -44.469 12.143)">
   <path id="path7041" style="fill:none" d="m63.913 3.5351h47.997v48h-47.997v-48z"/>
   <path id="path7043" style="opacity:.3;fill:url(#radialGradient7099);fill-rule:evenodd" d="m111.54 44.461c0 3.268-10.3 5.921-23.002 5.921-12.699 0-23.005-2.653-23.005-5.921 0-3.269 10.306-5.922 23.005-5.922 12.702 0 23.002 2.653 23.002 5.922z"/>
   <path id="path7045" style="fill-rule:evenodd;color:#000000;stroke:#888a85;stroke-width:1.4373;fill:url(#linearGradient7101)" d="m78.052 36.514s1.301 5.468-4.123 5.519c-2.599 0.024-2.067 4.472-2.067 4.472l32.988-0.035s0.44-4.317-2.17-4.367c-5.33-0.102-4.072-5.659-4.072-5.659l-20.556 0.07z"/>
   <path id="path7047" style="fill-rule:evenodd;stroke:#888a85;stroke-width:1.4373;fill:url(#linearGradient7103)" d="m69.424 4.8245h37.726c2 0 3.46 1.4087 3.46 3.578l0.01 25.856c0 1.67-0.52 2.186-2.01 2.186l-40.529-0.019c-1.166-0.028-1.997-0.488-2.013-1.992l0.016-26.216c0-1.75 1.523-3.3925 3.34-3.3925z"/>
   <path id="path7049" style="fill-rule:evenodd;stroke:#204a87;stroke-width:1.4373px;fill:url(#linearGradient7105)" d="m70.38 9.1362h35.93v22.996h-35.93v-22.996z"/>
   <path id="path7051" style="stroke:#fff;stroke-width:1.4373;fill:none" d="m69.913 6.2617c-1.259 0-2.407 1.2277-2.407 2.43v25.218c0.006 0.572 0.14 0.75 0.271 0.86 0.13 0.109 0.406 0.196 0.872 0.207l39.421 0.03c0.63 0 0.83-0.096 0.91-0.178 0.07-0.082 0.21-0.38 0.21-1.097v-24.862c0-1.7142-0.98-2.6083-2.53-2.6083h-36.747z"/>
   <path id="path7053" style="opacity:.6;fill:url(#linearGradient7107);fill-rule:evenodd" d="m77.341 37.18c0.09 2.345-0.307 3.142-1.767 3.967l25.886 1.4c-1.02-1.262-2.515-3.166-2.108-5.384l-22.011 0.017z"/>
   <path id="path7055" style="opacity:.55;fill:url(#linearGradient7109);fill-rule:evenodd" d="m71.099 9.8857v17.688c15.77-1.33 21.672-9.933 34.491-10.832v-6.8871l-34.491 0.0308z"/>
   <path id="path7057" style="stroke-opacity:.43902;stroke:#8d8d8f;stroke-linecap:round;stroke-width:1.4373px;fill:none" d="m73.32 45.067c7.251 0.002 30.05 0 30.05 0"/>
   <path id="path7059" style="stroke:#fff;stroke-linecap:round;stroke-width:1.4373px;fill:none" d="m73.32 43.629c7.018 0.002 30.05 0 30.05 0"/>
  </g>
  <rect id="rect13100" style="fill:#f57900" transform="matrix(.93769 -.34747 .89415 .44776 0 0)" rx=".60050" ry="0" height="2.4094" width="0.671" y="50.195" x="-6.6017"/>
  <path id="path13098" style="fill:url(#linearGradient13136);fill-rule:evenodd" d="m40.362 25.092l-1.339 0.446 3.91 2.442 1.23-0.605-3.801-2.283z"/>
  <rect id="rect13120" ry="0" style="fill:#73d216" rx="0" transform="matrix(.93769 -.34747 .89415 .44776 0 0)" height="2.3873" width=".68860" y="50.179" x="-7.3596"/>
  <path id="path9151" style="fill:url(#linearGradient13128);fill-rule:evenodd" d="m40.127 24.737l-1.745 0.58 5.038 2.053 1.577-0.727-4.87-1.906z"/>
  <rect id="rect4727" style="color:#000000;fill:#eeeeec" rx=".9375" ry=".93750" height="6" width="7" y="22" x="20"/>
  <rect id="rect4729" style="color:#000000;fill:#729fcf" rx="0" ry="0" height="1" width="5.0973" y="23" x="21"/>
  <rect id="rect4731" style="color:#000000;fill:#eeeeec" rx=".93750" ry=".93750" height="8" width="8.929" y="24" x="8"/>
  <rect id="rect4733" style="color:#000000;fill:#729fcf" rx="0" ry="0" height="1.0088" width="7" y="24.991" x="9"/>
  <rect id="rect4725" style="color:#000000;fill:#eeeeec" height="1" width="24" y="19" x="5"/>
 </g>
</svg>
