<?xml version="1.0" encoding="UTF-8" standalone="no"?>
<!-- Created with Inkscape (http://www.inkscape.org/) -->
<svg id="svg2" xmlns:rdf="http://www.w3.org/1999/02/22-rdf-syntax-ns#" xmlns="http://www.w3.org/2000/svg" height="416" width="428" version="1.0" xmlns:cc="http://creativecommons.org/ns#" xmlns:xlink="http://www.w3.org/1999/xlink" xmlns:dc="http://purl.org/dc/elements/1.1/">
 <defs id="defs4">
  <linearGradient id="linearGradient20249-546-672" y2="72.152" gradientUnits="userSpaceOnUse" y1="472.15" gradientTransform="matrix(1.1099 0 0 1.0367 409.6 -73.522)" x2="18.227" x1="-367.77">
   <stop id="stop2515" style="stop-color:#e1e1e1" offset="0"/>
   <stop id="stop2517" style="stop-color:#ececec" offset=".5"/>
   <stop id="stop2519" style="stop-color:#cbcbcb" offset="1"/>
  </linearGradient>
 </defs>
 <metadata id="metadata7">
  <rdf:RDF>
   <cc:Work rdf:about="">
    <dc:format>image/svg+xml</dc:format>
    <dc:type rdf:resource="http://purl.org/dc/dcmitype/StillImage"/>
   </cc:Work>
  </rdf:RDF>
 </metadata>
 <g id="capa1">
  <rect id="rect20247" style="fill:url(#linearGradient20249-546-672)" transform="matrix(1 0 -.0039330 .99999 0 0)" height="414.68" width="428.4" y="1.2787" x="1.423"/>
  <g id="g3555" style="opacity:.3" transform="matrix(1.4529 0 0 1.1688 34.265 33.677)">
   <path id="path3538" style="fill:#f5f5f5" d="m239 128l1 14-1 4v2l-1 2h-1-5-11l-14-1-13 1 2-6 1-6-1-7-1-6-3-5-2-3-2-2-3-3-4-2-7-3-2-1-3-2-4-3v-3l1-2 1-1v-1l2-2 3-1h2l3 1 3 2 2 2 3 1h2 1l2-1 1-1 3-2 2-2 1-1h2 1l2 1 2 1 3 3 4 3 1 1 2 1h2l1 1 3-1 3-1 2-2 4-4h1 1l2 2 1 4 2 5 1 6 1 7 1 6v5z"/>
   <path id="path3540" style="fill:#f5f5f5" d="m193 152l13-1h11 8l3 1h1l2 1v1l-1 3-2 2-2 2 1 5 1 5v3l-1 4-1 3-1 3-3 6-2 2-3 3-5 4-6 3-4 1-3 1-8 1h-9l-6-1-7-1-5-3-5-3-4-3-3-4-2-5-1-2v-2-3l3-2 3-1 5-2 6-1 5-2 5-2 4-2 2-2 3-1 4-5 3-3 1-3z"/>
   <path id="path3542" style="fill:#f5f5f5" d="m119 115l-3 1h-4l-3-4-2-3-1-2-1-5v-6l1-2 1-3 3-3 5-4 5-3 3-3 3-4 3-5 3-5 1-2 1-2v-2-2-4l-2-3-2-3-4-3-4-2-5-2-8-4-3-1v-1-1h2 6 12l9 1 8 1 9 2 8 2 8 3 8 3 8 3 7 4 7 4 6 5 6 4 5 5 4 5 4 5 3 5 2 5v1 1l-2 2-1 1-1 1-3 2h-3-4l-2-1-2-1-4-3-2-2-3-2-1-1h-2-2l-1 1-2 2-3 3-3 1h-3l-2-1-3-1-3-2-3-1h-3l-2 1-2 2-2 2-1 3v3l-3-2-2-2-2-1-1-1h-1l-1 1v1l-2 3-1 2-2 2-2 1-3 1-9 1-7 2-2 1-2 2-2 2-2 2z"/>
   <path id="path3544" style="fill:#f5f5f5" d="m21 92l2-6 3-5 3-6 3-4 4-5 4-5 10-8 5-3 5-4 6-2 6-3 7-2 6-2 7-2 7-1h3l3 1 5 2 6 3 5 2 5 3 1 2 2 2 1 4v5l-1 3-1 3-3 7-4 5-5 4-6 5-4 3-2 3-1 1-1 2-1 3v2l1 6 1 3 1 3 5 5h-4l-2-1h-2l-2 1-2 1-1 1-1 4-1 2-1 2-4 2-3 2-4 2-2 2-3 3-4 6-4 6v-1l-7 2h-7-3l-4-1-7-2-6-3-6-5-2-2-2-3-4-6-3-7-1-7v-5l1-6 1-6 2-5z"/>
   <path id="path3546" style="fill:#f5f5f5" d="m99 119l4-1 6 1h3l3-1 5-2 5-4 6-3 4-1h4l3-1 3-1 3-1 2-1 3-3 3-4 3 2 3 3 4 3 2 1 2 1 3 2 3 1 3 2 5 3 4 6 2 4 2 6v7l-1 6-1 6-1 2-1 2-2 3-2 2-2 3-2 2-9 4-11 4-16 5-12 3-12 2h-12-5l-5-1-10-3-4-2-4-2-3-2-3-3-2-3-2-3-1-5v-5l4-7 4-6 3-2 2-3 4-2 3-2 4-2 1-2 1-2 2-4 1-1 1-1z"/>
   <path id="path3548" style="fill:#f5f5f5" d="m145 182l7 17 6 2 5 3 2 2 1 1 7 14 4 7-21 8-8-20-12-9-11-21 20-4z"/>
  </g>
 </g>
</svg>
