<?xml version="1.0" encoding="UTF-8" standalone="no"?>
<!-- Created with Inkscape (http://www.inkscape.org/) -->
<svg id="svg2" xmlns:rdf="http://www.w3.org/1999/02/22-rdf-syntax-ns#" xmlns="http://www.w3.org/2000/svg" height="500" width="500" version="1.1" xmlns:cc="http://creativecommons.org/ns#" xmlns:dc="http://purl.org/dc/elements/1.1/">
 <metadata id="metadata7">
  <rdf:RDF>
   <cc:Work rdf:about="">
    <dc:format>image/svg+xml</dc:format>
    <dc:type rdf:resource="http://purl.org/dc/dcmitype/StillImage"/>
    <dc:title/>
   </cc:Work>
  </rdf:RDF>
 </metadata>
 <g id="capa1">
  <path id="path2818" style="stroke:#000;stroke-width:7.4589;fill:none" d="m672.76 453.34a309.11 285.87 0 1 1 -618.21 0 309.11 285.87 0 1 1 618.21 0z" transform="matrix(.64904 0 0 .69235 13.342 -65.697)"/>
  <path id="path2818-5" style="stroke:#000;stroke-width:9.4879;fill:none" d="m672.76 453.34a309.11 285.87 0 1 1 -618.21 0 309.11 285.87 0 1 1 618.21 0z" transform="matrix(.50905 0 0 .54556 62.939 1.5467)"/>
  <path id="path3639" style="stroke:#000;stroke-width:4;fill:none" d="m245.44 50.249c2.6225 398.64 2.6225 398.64 2.6225 398.64"/>
  <path id="path3639-4" style="stroke:#000;stroke-width:4;fill:none" d="m447.4 239.81c-396.05-0.0562-396.05-0.0562-396.05-0.0562"/>
 </g>
</svg>
