<?xml version="1.0" encoding="UTF-8" standalone="no"?>
<!-- Creator: CorelDRAW -->
<svg id="svg2" xmlns:rdf="http://www.w3.org/1999/02/22-rdf-syntax-ns#" style="fill-rule:evenodd" xmlns="http://www.w3.org/2000/svg" space="preserve" viewBox="0 0 99.775537 159.65715" height="400" width="500" version="1.1" xmlns:cc="http://creativecommons.org/ns#" xmlns:dc="http://purl.org/dc/elements/1.1/">
 <metadata id="metadata3">
  <rdf:RDF>
   <cc:Work rdf:about="">
    <dc:title/>
    <dc:description>icons of people and luggage. Suitable for descriptions of a car (for car rental companies), or for WC doors icons. Enjoy!</dc:description>
    <dc:subject>
     <rdf:Bag>
      <rdf:li>icon</rdf:li>
      <rdf:li>icons</rdf:li>
      <rdf:li>children</rdf:li>
      <rdf:li>girl</rdf:li>
      <rdf:li>luggage</rdf:li>
      <rdf:li>iconic</rdf:li>
      <rdf:li>schema</rdf:li>
      <rdf:li>woman</rdf:li>
      <rdf:li>car rental</rdf:li>
      <rdf:li>travel</rdf:li>
      <rdf:li>boy</rdf:li>
      <rdf:li>rent a car</rdf:li>
      <rdf:li>wc</rdf:li>
      <rdf:li>child</rdf:li>
      <rdf:li>toilet</rdf:li>
      <rdf:li>departures</rdf:li>
      <rdf:li>man</rdf:li>
      <rdf:li>people</rdf:li>
     </rdf:Bag>
    </dc:subject>
    <dc:publisher>
     <cc:Agent rdf:about="http://www.openclipart.org/">
      <dc:title>Lumen Design Studio</dc:title>
     </cc:Agent>
    </dc:publisher>
    <dc:creator>
     <cc:Agent>
      <dc:title>Lumen Design Studio</dc:title>
     </cc:Agent>
    </dc:creator>
    <dc:rights>
     <cc:Agent>
      <dc:title>Lumen Design Studio</dc:title>
     </cc:Agent>
    </dc:rights>
    <dc:date>15 08 2005</dc:date>
    <dc:format>image/svg+xml</dc:format>
    <dc:type rdf:resource="http://purl.org/dc/dcmitype/StillImage"/>
    <cc:license rdf:resource="http://web.resource.org/cc/PublicDomain"/>
    <dc:language>en</dc:language>
   </cc:Work>
   <cc:License rdf:about="http://web.resource.org/cc/PublicDomain">
    <cc:permits rdf:resource="http://web.resource.org/cc/Reproduction"/>
    <cc:permits rdf:resource="http://web.resource.org/cc/Distribution"/>
    <cc:permits rdf:resource="http://web.resource.org/cc/DerivativeWorks"/>
   </cc:License>
  </rdf:RDF>
 </metadata>
 <defs id="defs4">
  <style id="style6" type="text/css">.fil0 {fill:#1B1C1F}</style>
 </defs>
 <path id="path16" style="fill:#1b1c1f" d="m75.946 29.982c-6.3798 0-11.584 5.1388-11.584 11.539 0 6.3803 5.2046 11.584 11.584 11.584 6.3896 0 11.539-5.204 11.539-11.584 0-6.4-5.1491-11.539-11.539-11.539zm-5.701 25.54c-2.0659 0-3.7398 1.6667-3.7398 3.7398 0 17.823 0.00001 35.68 0 53.498 0 2.0794 1.6739 3.7398 3.7398 3.7398h4.3783v-26.954h2.5996v26.954h4.3783c2.0706 0 3.7398-1.6605 3.7398-3.7398 0-17.818 0.00002-35.675 0-53.498 0-2.0732-1.6692-3.7398-3.7398-3.7398h-11.356zm-9.2583 1.7787c-1.0177 0-1.8699 0.81073-1.8699 1.8243v25.495c0 1.0286 0.8522 1.8699 1.8699 1.8699h1.4594c1.0156 0 1.8699-0.84135 1.8699-1.8699v-25.495c0-1.012-0.85428-1.8243-1.8699-1.8243h-1.4594zm28.414 0c-1.0151 0-1.8243 0.81073-1.8243 1.8243v25.495c0 1.0286 0.81178 1.8699 1.8243 1.8699h1.505c1.0167 0 1.8243-0.84135 1.8243-1.8699v-25.495c0-1.012-0.80762-1.8243-1.8243-1.8243h-1.505z"/>
 <path id="path32" style="fill:#1b1c1f" d="m121.28 29.982c-6.3798 0-11.539 5.1388-11.539 11.539 0 6.3803 5.1589 11.584 11.539 11.584 6.3896 0 11.584-5.204 11.584-11.584 0-6.4-5.1948-11.539-11.584-11.539zm-5.929 25.54c-2.1776 0-3.9679 1.7446-3.9679 3.9222 0 8.6494 1.1273 13.591 0 22.165-1.1951 9.0962-4.5814 18.575-6.8867 27.456 0.00051 1.0648 0.85024 1.9155 1.9155 1.9155 1.6584 0 3.3128-0.00002 4.9712 0 0 0.52591-0.00001 1.0703 0 1.5963 0 2.1781 1.7902 3.9222 3.9679 3.9222 1.5229 0 3.0383 0.00001 4.5608 0v-5.5185c0.9148 0 1.8211-0.00002 2.7365 0 0 1.8461-0.00002 3.6724 0 5.5185 1.5219 0 3.0834 0.00001 4.6064 0 2.1781 0 3.9222-1.7441 3.9222-3.9222 0-0.52591-0.00001-1.0704 0-1.5963 1.6584 0 3.3584-0.00002 5.0168 0 1.0653 0 1.915-0.85077 1.9155-1.9155-2.3054-8.8811-5.7373-18.36-6.9324-27.456-1.1273-8.5744-0.00001-13.516 0-22.165 0-2.1776-1.7441-3.9222-3.9222-3.9222h-11.904zm-9.0303 1.7787c-1.0177 0-1.8243 0.81073-1.8243 1.8243v25.495c0 1.0286 0.80659 1.8699 1.8243 1.8699h1.505c1.0156 0 1.8243-0.84135 1.8243-1.8699v-25.495c0-1.012-0.80868-1.8243-1.8243-1.8243h-1.505zm28.459 0c-1.0151 0-1.8699 0.81073-1.8699 1.8243v25.495c0 1.0286 0.85741 1.8699 1.8699 1.8699h1.4594c1.0167 0 1.8699-0.84135 1.8699-1.8699v-25.495c0-1.012-0.85327-1.8243-1.8699-1.8243h-1.4594z"/>
 <path id="path16-6" style="fill:#1b1c1f;fill-rule:evenodd" d="m-19.88 31.104c-6.3798 0-11.584 5.1388-11.584 11.539 0 6.3803 5.2046 11.584 11.584 11.584 6.3896 0 11.539-5.204 11.539-11.584 0-6.4-5.1491-11.539-11.539-11.539zm-5.701 25.54c-2.0659 0-3.7398 1.6667-3.7398 3.7398 0 17.823 0.00001 35.68 0 53.498 0 2.0794 1.6739 3.7398 3.7398 3.7398h4.3783v-26.954h2.5996v26.954h4.3783c2.0706 0 3.7398-1.6605 3.7398-3.7398 0-17.818 0.00002-35.675 0-53.498 0-2.0732-1.6692-3.7398-3.7398-3.7398h-11.356zm-9.2583 1.7787c-1.0177 0-1.8699 0.81073-1.8699 1.8243v25.495c0 1.0286 0.8522 1.8699 1.8699 1.8699h1.4594c1.0156 0 1.8699-0.84135 1.8699-1.8699v-25.495c0-1.012-0.85428-1.8243-1.8699-1.8243h-1.4594zm28.414 0c-1.0151 0-1.8243 0.81073-1.8243 1.8243v25.495c0 1.0286 0.81178 1.8699 1.8243 1.8699h1.505c1.0167 0 1.8243-0.84135 1.8243-1.8699v-25.495c0-1.012-0.80762-1.8243-1.8243-1.8243h-1.505z"/>
 <path id="path32-9" style="fill:#1b1c1f;fill-rule:evenodd" d="m25.454 31.104c-6.3798 0-11.539 5.1388-11.539 11.539 0 6.3803 5.1589 11.584 11.539 11.584 6.3896 0 11.584-5.204 11.584-11.584 0-6.4-5.1948-11.539-11.584-11.539zm-5.929 25.54c-2.1776 0-3.9679 1.7446-3.9679 3.9222 0 8.6494 1.1273 13.591 0 22.165-1.1951 9.0962-4.5814 18.575-6.8867 27.456 0.0004 1.0648 0.85024 1.9155 1.9155 1.9155 1.6584 0 3.3128-0.00002 4.9712 0 0 0.52591-0.00001 1.0703 0 1.5963 0 2.1781 1.7902 3.9222 3.9679 3.9222 1.5229 0 3.0383 0.00001 4.5608 0v-5.5185c0.9148 0 1.8211-0.00002 2.7365 0 0 1.8461-0.00002 3.6724 0 5.5185 1.5219 0 3.0834 0.00001 4.6064 0 2.1781 0 3.9222-1.7441 3.9222-3.9222 0-0.52591-0.00001-1.0704 0-1.5963 1.6584 0 3.3584-0.00002 5.0168 0 1.0653 0 1.915-0.85077 1.9155-1.9155-2.3054-8.8811-5.7373-18.36-6.9324-27.456-1.1273-8.5744-0.00001-13.516 0-22.165 0-2.1776-1.7441-3.9222-3.9222-3.9222h-11.904zm-9.0303 1.7787c-1.0177 0-1.8243 0.81073-1.8243 1.8243v25.495c0 1.0286 0.80659 1.8699 1.8243 1.8699h1.505c1.0156 0 1.8243-0.84135 1.8243-1.8699v-25.495c0-1.012-0.80868-1.8243-1.8243-1.8243h-1.505zm28.459 0c-1.0151 0-1.8699 0.81073-1.8699 1.8243v25.495c0 1.0286 0.85741 1.8699 1.8699 1.8699h1.4594c1.0167 0 1.8699-0.84135 1.8699-1.8699v-25.495c0-1.012-0.85327-1.8243-1.8699-1.8243h-1.4594z"/>
</svg>
