<?xml version="1.0" encoding="UTF-8" standalone="no"?>
<!-- Creator: CorelDRAW -->
<svg id="svg2" xmlns:rdf="http://www.w3.org/1999/02/22-rdf-syntax-ns#" style="fill-rule:evenodd" xmlns="http://www.w3.org/2000/svg" space="preserve" viewBox="0 0 79.820428 119.74286" height="300" width="400" version="1.1" xmlns:cc="http://creativecommons.org/ns#" xmlns:dc="http://purl.org/dc/elements/1.1/">
 <metadata id="metadata3">
  <rdf:RDF>
   <cc:Work rdf:about="">
    <dc:title/>
    <dc:description>icons of people and luggage. Suitable for descriptions of a car (for car rental companies), or for WC doors icons. Enjoy!</dc:description>
    <dc:subject>
     <rdf:Bag>
      <rdf:li>icon</rdf:li>
      <rdf:li>icons</rdf:li>
      <rdf:li>children</rdf:li>
      <rdf:li>girl</rdf:li>
      <rdf:li>luggage</rdf:li>
      <rdf:li>iconic</rdf:li>
      <rdf:li>schema</rdf:li>
      <rdf:li>woman</rdf:li>
      <rdf:li>car rental</rdf:li>
      <rdf:li>travel</rdf:li>
      <rdf:li>boy</rdf:li>
      <rdf:li>rent a car</rdf:li>
      <rdf:li>wc</rdf:li>
      <rdf:li>child</rdf:li>
      <rdf:li>toilet</rdf:li>
      <rdf:li>departures</rdf:li>
      <rdf:li>man</rdf:li>
      <rdf:li>people</rdf:li>
     </rdf:Bag>
    </dc:subject>
    <dc:publisher>
     <cc:Agent rdf:about="http://www.openclipart.org/">
      <dc:title>Lumen Design Studio</dc:title>
     </cc:Agent>
    </dc:publisher>
    <dc:creator>
     <cc:Agent>
      <dc:title>Lumen Design Studio</dc:title>
     </cc:Agent>
    </dc:creator>
    <dc:rights>
     <cc:Agent>
      <dc:title>Lumen Design Studio</dc:title>
     </cc:Agent>
    </dc:rights>
    <dc:date>15 08 2005</dc:date>
    <dc:format>image/svg+xml</dc:format>
    <dc:type rdf:resource="http://purl.org/dc/dcmitype/StillImage"/>
    <cc:license rdf:resource="http://web.resource.org/cc/PublicDomain"/>
    <dc:language>en</dc:language>
   </cc:Work>
   <cc:License rdf:about="http://web.resource.org/cc/PublicDomain">
    <cc:permits rdf:resource="http://web.resource.org/cc/Reproduction"/>
    <cc:permits rdf:resource="http://web.resource.org/cc/Distribution"/>
    <cc:permits rdf:resource="http://web.resource.org/cc/DerivativeWorks"/>
   </cc:License>
  </rdf:RDF>
 </metadata>
 <defs id="defs4">
  <style id="style6" type="text/css">.fil0 {fill:#1B1C1F}</style>
 </defs>
 <path id="path14" style="fill:#1b1c1f" class="fil0" d="m15.073 2.6079c7.5231 0 13.623 6.0995 13.623 13.622 0 7.5226-6.1 13.623-13.623 13.623-7.5216 0-13.622-6.1-13.622-13.623 0-7.5221 6.1-13.622 13.622-13.622zm-20.725 32.229h2.0633c1.4087 0 2.5608 1.1547 2.5608 2.5603v35.301c0 1.4061-1.1542 2.5608-2.5608 2.5608h-2.0633c-1.4066 0-2.5603-1.1511-2.5603-2.5608v-35.301c0-1.4092 1.1522-2.5603 2.5603-2.5603zm39.387 0h2.0628c1.4087 0 2.5608 1.1547 2.5608 2.5603v35.301c0 1.4061-1.1537 2.5608-2.5608 2.5608h-2.0628c-1.4066 0-2.5608-1.1511-2.5608-2.5608v-35.301c0-1.4092 1.1522-2.5603 2.5608-2.5603zm-26.502-2.492h15.68c2.8747 0 5.2266 2.3519 5.2266 5.2266v74.057c0 2.8747-2.3519 5.2271-5.2266 5.2271h-6.0276v-37.359h-3.6235v37.359h-6.0286c-2.8747 0-5.2266-2.3524-5.2266-5.2271v-74.057c0-2.8747 2.3519-5.2266 5.2266-5.2266z"/>
 <path id="path16" style="fill:#1b1c1f" d="m67.598 30.317c-6.3798 0-11.584 5.1388-11.584 11.539 0 6.3803 5.2046 11.584 11.584 11.584 6.3896 0 11.539-5.204 11.539-11.584 0-6.4-5.1491-11.539-11.539-11.539zm-5.701 25.54c-2.0659 0-3.7398 1.6667-3.7398 3.7398 0 17.823 0.00001 35.68 0 53.498 0 2.0794 1.6739 3.7398 3.7398 3.7398h4.3783v-26.954h2.5996v26.954h4.3783c2.0706 0 3.7398-1.6605 3.7398-3.7398 0-17.818 0.00002-35.675 0-53.498 0-2.0732-1.6692-3.7398-3.7398-3.7398h-11.356zm-9.2583 1.7787c-1.0177 0-1.8699 0.81073-1.8699 1.8243v25.495c0 1.0286 0.8522 1.8699 1.8699 1.8699h1.4594c1.0156 0 1.8699-0.84135 1.8699-1.8699v-25.495c0-1.012-0.85428-1.8243-1.8699-1.8243h-1.4594zm28.414 0c-1.0151 0-1.8243 0.81073-1.8243 1.8243v25.495c0 1.0286 0.81178 1.8699 1.8243 1.8699h1.505c1.0167 0 1.8243-0.84135 1.8243-1.8699v-25.495c0-1.012-0.80762-1.8243-1.8243-1.8243h-1.505z"/>
</svg>
