<?xml version="1.0" encoding="UTF-8" standalone="no"?>
<!-- Created with Inkscape ("http://www.inkscape.org/") -->
<svg id="svg1" xmlns:rdf="http://www.w3.org/1999/02/22-rdf-syntax-ns#" xmlns="http://www.w3.org/2000/svg" height="500" width="500" version="1.0" xmlns:cc="http://creativecommons.org/ns#" xmlns:dc="http://purl.org/dc/elements/1.1/">
 <path id="path720" d="m386.36 218.21c-2.3603 2.5412-3.014 5.3786-4.2171 5.6668-1.9281-0.42154-5.3396-0.60199-7.3144 0.84029-0.43733 1.2954 0.88557 0.14038 3.1923 1.5288-2.1855 1.8746-3.1208-0.73331-5.8508 2.8896-0.97648 1.2828 0.42205-0.0476 2.3903 0.74514-1.7098 2.1794-2.3676-0.55613-5.3866 0.96041-3.2696 2.256-3.4733 3.4271-6.9253 3.5967-0.71621 0.39147 1.0216 1.1279 1.9226 1.0524-2.8776 1.3821-8.0324 6.2594-4.0644 5.3452 2.274-1.8598 2.8015-1.3798 4.0661-0.77122-0.70392 1.7924-2.62 0.49172-4.1212 1.9628-2.756 1.3868-1.9288 3.0544-6.3725 3.318-2.7724 0.57752 0.63829 1.5862 1.1912 2.5183-2.7435 0.42978-5.3728 3.842-4.1592 3.8185 2.1362-1.3516 4.1392 0.30597 6.3973-1.8305-2.8454 3.2539-8.0716 5.5998-12.531 5.1308-5.1796 0.68731-10.932-1.003-16.032-3.5872-7.9145-3.744-12.681-5.889-18.897-6.6721-6.9308-0.42045-11.72 1.2924-16.955 5.3436-2.1945-0.71785-3.2939-1.3167-6.67-1.5649-6.6865-0.26789-12.621 2.8254-16.695 8.6406-3.9551 3.7893-6.4271 12.783-6.6732 16.344-1.0302 4.358-1.0351 8.5984-6.632 15.386-3.8364 4.7991-9.3287 7.0792-8.5321 14.756-0.15811 1.9092 0.54946 4.4102 3.1463 2.9076 1.8968-0.35275 8.5357-7.08 10.067-9.638 3.5735-5.6452 7.9974-12.53 10.604-19.609 1.93-4.8226 2.2636-5.8177 3.4442-12.747 0.99442-4.8317 5.0083-10.24 12.168-8.654-0.96803 1.0127-1.385 1.8048-2.3787 3.5756-4.3343 10.27-1.8783 18.173 1.4247 22.138-0.17457 5.7849-4.5607 8.1057-8.2184 7.996-2.8736-0.12015-7.5437-0.49978-7.823 5.2276-0.45319 5.7354 1.1188 7.6057 0.68899 16.264-0.11939 2.9446-3.9066 11.657-0.24742 13.834 0.0168 1.539-3.046 0.94071-4.3069 1.0774-2.4858-0.34185-4.2981 0.33174-4.3386 3.7374-0.57987 2.4052-3.1672 5.5705-2.7158 8.0455 6.284-0.82915 12.508-3.2986 16.503-9.3219 2.0316-5.5201 1.9733-17.027 2.52-24.56 1.2534-5.2805 7.962-2.5889 11.195-2.5092 3.8272-0.0864 6.4074-2.039 9.9615-1.078-1.3216 2.1664-1.6521 2.8343-3.5871 5.6846-2.4814 3.5455-4.0103 7.412 0.47384 9.3245 5.877 2.3967 9.8777 6.1178 14.258 10.683 5.3495 6.5484 6.5352 12.348 7.6257 11.939 1.3319 1.1544 3.6276-0.73988 3.7421 2.6754-0.16497 3.6339 4.6255 3.615 6.3569 5.0505 1.3349-0.0907 4.7721 2.6367 4.3713-1.0215 0.9627-6.7589-5.9556-10.668-9.0989-15.285-4.7458-5.6211-9.1571-10.117-14.412-15.085-1.6541-1.5283-1.7648-4.1878 0.0663-5.5872 5.9044-5.2562 6.4294-12.586 11.047-17.174 3.2 0.94247 7.0372 3.748 11.245 4.9449 6.3409 1.7695 12.57 5.0936 19.272 4.4824 4.6481-0.38623-2.5628 9.751-3.2553 14.242 1.0185 4.6145 0.24878 12.618-0.79816 16.906-2.551 5.1925-3.6144 8.5503-6.6068 12.868-2.4147 5.0002 5.5832 2.9428 3.9374 7.1512-1.5965 2.3168-0.56035 2.6422 1.8128 3.7356 2.679 0.86797 6.3366 3.2533 8.9833 3.9896 3.5332-4.2742-6.1277-9.096-5.4179-13.848-0.41345-4.7608 2.2204-8.8616 2.9722-13.434 2.9128-7.0929 6.1406-13.604 8.725-20.861 2.1239-4.2449 3.4972-9.7469 7.1004-12.625 4.3896-2.1824 10.995 2.1611 16.176 4.4699 1.589 0.61422 6.9753 1.8083 5.0965 4.0864-5.3822 2.2718-9.8827 7.7186-15.352 9.6576-1.587 0.19738-2.2482 0.60201-2.2187 3.3654-2.6277 0.56496-3.9032-2.5138-6.2373-3.5285-3.0345 0.878-5.696 5.5078-6.6887 8.1979-1.3594 1.9491 5.133 2.3709 6.7281 2.1858 3.6844-0.005 6.0235-0.58116 7.6543-1.1675 2.638-1.0692 4.9984-3.7939 7.1401-4.8838 6.0367-3.8278 13.708-8.724 18.734-14.085 1.7353-1.9651 2.9834-4.8479-0.25322-6.917-2.9527-2.8856-7.8198-6.3148-12.095-8.4699-2.3785-1.6964-2.9034-1.4785-5.9664-3.9352 2.0127-2.759 2.4854-9.7081 2.7798-13.001 3.1654-5.3572 4.4303-12.392 7.147-19.466 2.8388 1.0962 7.1524 1.7307 10.107 1.1223 4.9382-0.15424 7.5492 7.6235 12.824 3.644 3.5746-3.5664-4.3389-3.5011-3.4761-5.3356 2.0063-2.6147 4.4756 2.663 6.3236 2.0896 2.3354-1.077 1.9027-5.8833-0.96038-7.6972-2.987-3.443-9.9206-8.7804-10.664-10.533-1.0626-3.8805-11.784-10.441-14.403-12.972-1.2016-2.6833-0.14148-5.2151-1.1856-7.7878-0.63412-0.63606-2.1084-0.7887-2.8498 0.10035z" style="fill-rule:evenodd"/>
 <path id="path720-1" style="fill-rule:evenodd" d="m407.61 339.69c-2.3603 2.5412-3.014 5.3786-4.2171 5.6668-1.9281-0.42154-5.3396-0.60199-7.3144 0.84029-0.43733 1.2954 0.88557 0.14038 3.1923 1.5288-2.1855 1.8746-3.1208-0.73331-5.8508 2.8896-0.97648 1.2828 0.42205-0.0476 2.3903 0.74514-1.7098 2.1794-2.3676-0.55613-5.3866 0.96041-3.2696 2.256-3.4733 3.4271-6.9253 3.5967-0.71621 0.39147 1.0216 1.1279 1.9226 1.0524-2.8776 1.3821-8.0324 6.2594-4.0644 5.3452 2.274-1.8598 2.8015-1.3798 4.0661-0.77122-0.70392 1.7924-2.62 0.49172-4.1212 1.9628-2.756 1.3868-1.9288 3.0544-6.3725 3.318-2.7724 0.57752 0.63829 1.5862 1.1912 2.5183-2.7435 0.42978-5.3728 3.842-4.1592 3.8185 2.1362-1.3516 4.1392 0.30597 6.3973-1.8305-2.8454 3.2539-8.0716 5.5998-12.531 5.1308-5.1796 0.68731-10.932-1.003-16.032-3.5872-7.9145-3.744-12.681-5.889-18.897-6.6721-6.9308-0.42045-11.72 1.2924-16.955 5.3436-2.1945-0.71785-3.2939-1.3167-6.67-1.5649-6.6865-0.26789-12.621 2.8254-16.695 8.6406-3.9551 3.7893-6.4271 12.783-6.6732 16.344-1.0302 4.358-1.0351 8.5984-6.632 15.386-3.8364 4.7991-9.3287 7.0792-8.5321 14.756-0.15811 1.9092 0.54946 4.4102 3.1463 2.9076 1.8968-0.35275 8.5357-7.08 10.067-9.638 3.5735-5.6452 7.9974-12.53 10.604-19.609 1.93-4.8226 2.2636-5.8177 3.4442-12.747 0.99442-4.8317 5.0083-10.24 12.168-8.654-0.96803 1.0127-1.385 1.8048-2.3787 3.5756-4.3343 10.27-1.8783 18.173 1.4247 22.138-0.17457 5.7849-4.5607 8.1057-8.2184 7.996-2.8736-0.12015-7.5437-0.49978-7.823 5.2276-0.45319 5.7354 1.1188 7.6057 0.68899 16.264-0.11939 2.9446-3.9066 11.657-0.24742 13.834 0.0168 1.539-3.046 0.94071-4.3069 1.0774-2.4858-0.34185-4.2981 0.33174-4.3386 3.7374-0.57987 2.4052-3.1672 5.5705-2.7158 8.0455 6.284-0.82915 12.508-3.2986 16.503-9.3219 2.0316-5.5201 1.9733-17.027 2.52-24.56 1.2534-5.2805 7.962-2.5889 11.195-2.5092 3.8272-0.0864 6.4074-2.039 9.9615-1.078-1.3216 2.1664-1.6521 2.8343-3.5871 5.6846-2.4814 3.5455-4.0103 7.412 0.47384 9.3245 5.877 2.3967 9.8777 6.1178 14.258 10.683 5.3495 6.5484 6.5352 12.348 7.6257 11.939 1.3319 1.1544 3.6276-0.73988 3.7421 2.6754-0.16497 3.6339 4.6255 3.615 6.3569 5.0505 1.3349-0.0907 4.7721 2.6367 4.3713-1.0215 0.9627-6.7589-5.9556-10.668-9.0989-15.285-4.7458-5.6211-9.1571-10.117-14.412-15.085-1.6541-1.5283-1.7648-4.1878 0.0663-5.5872 5.9044-5.2562 6.4294-12.586 11.047-17.174 3.2 0.94247 7.0372 3.748 11.245 4.9449 6.3409 1.7695 12.57 5.0936 19.272 4.4824 4.6481-0.38623-2.5628 9.751-3.2553 14.242 1.0185 4.6145 0.24878 12.618-0.79816 16.906-2.551 5.1925-3.6144 8.5503-6.6068 12.868-2.4147 5.0002 5.5832 2.9428 3.9374 7.1512-1.5965 2.3168-0.56035 2.6422 1.8128 3.7356 2.679 0.86797 6.3366 3.2533 8.9833 3.9896 3.5332-4.2742-6.1277-9.096-5.4179-13.848-0.41345-4.7608 2.2204-8.8616 2.9722-13.434 2.9128-7.0929 6.1406-13.604 8.725-20.861 2.1239-4.2449 3.4972-9.7469 7.1004-12.625 4.3896-2.1824 10.995 2.1611 16.176 4.4699 1.589 0.61422 6.9753 1.8083 5.0965 4.0864-5.3822 2.2718-9.8827 7.7186-15.352 9.6576-1.587 0.19738-2.2482 0.60201-2.2187 3.3654-2.6277 0.56496-3.9032-2.5138-6.2373-3.5285-3.0345 0.878-5.696 5.5078-6.6887 8.1979-1.3594 1.9491 5.133 2.3709 6.7281 2.1858 3.6844-0.005 6.0235-0.58116 7.6543-1.1675 2.638-1.0692 4.9984-3.7939 7.1401-4.8838 6.0367-3.8278 13.708-8.724 18.734-14.085 1.7353-1.9651 2.9834-4.8479-0.25322-6.917-2.9527-2.8856-7.8198-6.3148-12.095-8.4699-2.3785-1.6964-2.9034-1.4785-5.9664-3.9352 2.0127-2.759 2.4854-9.7081 2.7798-13.001 3.1654-5.3572 4.4303-12.392 7.147-19.466 2.8388 1.0962 7.1524 1.7307 10.107 1.1223 4.9382-0.15424 7.5492 7.6235 12.824 3.644 3.5746-3.5664-4.3389-3.5011-3.4761-5.3356 2.0063-2.6147 4.4756 2.663 6.3236 2.0896 2.3354-1.077 1.9027-5.8833-0.96038-7.6972-2.987-3.443-9.9206-8.7804-10.664-10.533-1.0626-3.8805-11.784-10.441-14.403-12.972-1.2016-2.6833-0.14148-5.2151-1.1856-7.7878-0.63412-0.63606-2.1084-0.7887-2.8498 0.10035z"/>
 <path id="path720-1-5" style="fill-rule:evenodd" d="m234.97 341.32c-2.3603 2.5412-3.014 5.3786-4.2171 5.6668-1.9281-0.42154-5.3396-0.60199-7.3144 0.84029-0.43733 1.2954 0.88557 0.14038 3.1923 1.5288-2.1855 1.8746-3.1208-0.73331-5.8508 2.8896-0.97648 1.2828 0.42205-0.0476 2.3903 0.74514-1.7098 2.1794-2.3676-0.55613-5.3866 0.96041-3.2696 2.256-3.4733 3.4271-6.9253 3.5967-0.71621 0.39147 1.0216 1.1279 1.9226 1.0524-2.8776 1.3821-8.0324 6.2594-4.0644 5.3452 2.274-1.8598 2.8015-1.3798 4.0661-0.77122-0.70392 1.7924-2.62 0.49172-4.1212 1.9628-2.756 1.3868-1.9288 3.0544-6.3725 3.318-2.7724 0.57752 0.63829 1.5862 1.1912 2.5183-2.7435 0.42978-5.3728 3.842-4.1592 3.8185 2.1362-1.3516 4.1392 0.30597 6.3973-1.8305-2.8454 3.2539-8.0716 5.5998-12.531 5.1308-5.1796 0.68731-10.932-1.003-16.032-3.5872-7.9145-3.744-12.681-5.889-18.897-6.6721-6.9308-0.42045-11.72 1.2924-16.955 5.3436-2.1945-0.71785-3.2939-1.3167-6.67-1.5649-6.6865-0.26789-12.621 2.8254-16.695 8.6406-3.9551 3.7893-6.4271 12.783-6.6732 16.344-1.0302 4.358-1.0351 8.5984-6.632 15.386-3.8364 4.7991-9.3287 7.0792-8.5321 14.756-0.15811 1.9092 0.54946 4.4102 3.1463 2.9076 1.8968-0.35275 8.5357-7.08 10.067-9.638 3.5735-5.6452 7.9974-12.53 10.604-19.609 1.93-4.8226 2.2636-5.8177 3.4442-12.747 0.99442-4.8317 5.0083-10.24 12.168-8.654-0.96803 1.0127-1.385 1.8048-2.3787 3.5756-4.3343 10.27-1.8783 18.173 1.4247 22.138-0.17457 5.7849-4.5607 8.1057-8.2184 7.996-2.8736-0.12015-7.5437-0.49978-7.823 5.2276-0.45319 5.7354 1.1188 7.6057 0.68899 16.264-0.11939 2.9446-3.9066 11.657-0.24742 13.834 0.0168 1.539-3.046 0.94071-4.3069 1.0774-2.4858-0.34185-4.2981 0.33174-4.3386 3.7374-0.57987 2.4052-3.1672 5.5705-2.7158 8.0455 6.284-0.82915 12.508-3.2986 16.503-9.3219 2.0316-5.5201 1.9733-17.027 2.52-24.56 1.2534-5.2805 7.962-2.5889 11.195-2.5092 3.8272-0.0864 6.4074-2.039 9.9615-1.078-1.3216 2.1664-1.6521 2.8343-3.5871 5.6846-2.4814 3.5455-4.0103 7.412 0.47384 9.3245 5.877 2.3967 9.8777 6.1178 14.258 10.683 5.3495 6.5484 6.5352 12.348 7.6257 11.939 1.3319 1.1544 3.6276-0.73988 3.7421 2.6754-0.16497 3.6339 4.6255 3.615 6.3569 5.0505 1.3349-0.0907 4.7721 2.6367 4.3713-1.0215 0.9627-6.7589-5.9556-10.668-9.0989-15.285-4.7458-5.6211-9.1571-10.117-14.412-15.085-1.6541-1.5283-1.7648-4.1878 0.0663-5.5872 5.9044-5.2562 6.4294-12.586 11.047-17.174 3.2 0.94247 7.0372 3.748 11.245 4.9449 6.3409 1.7695 12.57 5.0936 19.272 4.4824 4.6481-0.38623-2.5628 9.751-3.2553 14.242 1.0185 4.6145 0.24878 12.618-0.79816 16.906-2.551 5.1925-3.6144 8.5503-6.6068 12.868-2.4147 5.0002 5.5832 2.9428 3.9374 7.1512-1.5965 2.3168-0.56035 2.6422 1.8128 3.7356 2.679 0.86797 6.3366 3.2533 8.9833 3.9896 3.5332-4.2742-6.1277-9.096-5.4179-13.848-0.41345-4.7608 2.2204-8.8616 2.9722-13.434 2.9128-7.0929 6.1406-13.604 8.725-20.861 2.1239-4.2449 3.4972-9.7469 7.1004-12.625 4.3896-2.1824 10.995 2.1611 16.176 4.4699 1.589 0.61422 6.9753 1.8083 5.0965 4.0864-5.3822 2.2718-9.8827 7.7186-15.352 9.6576-1.587 0.19738-2.2482 0.60201-2.2187 3.3654-2.6277 0.56496-3.9032-2.5138-6.2373-3.5285-3.0345 0.878-5.696 5.5078-6.6887 8.1979-1.3594 1.9491 5.133 2.3709 6.7281 2.1858 3.6844-0.005 6.0235-0.58116 7.6543-1.1675 2.638-1.0692 4.9984-3.7939 7.1401-4.8838 6.0367-3.8278 13.708-8.724 18.734-14.085 1.7353-1.9651 2.9834-4.8479-0.25322-6.917-2.9527-2.8856-7.8198-6.3148-12.095-8.4699-2.3785-1.6964-2.9034-1.4785-5.9664-3.9352 2.0127-2.759 2.4854-9.7081 2.7798-13.001 3.1654-5.3572 4.4303-12.392 7.147-19.466 2.8388 1.0962 7.1524 1.7307 10.107 1.1223 4.9382-0.15424 7.5492 7.6235 12.824 3.644 3.5746-3.5664-4.3389-3.5011-3.4761-5.3356 2.0063-2.6147 4.4756 2.663 6.3236 2.0896 2.3354-1.077 1.9027-5.8833-0.96038-7.6972-2.987-3.443-9.9206-8.7804-10.664-10.533-1.0626-3.8805-11.784-10.441-14.403-12.972-1.2016-2.6833-0.14148-5.2151-1.1856-7.7878-0.63412-0.63606-2.1084-0.7887-2.8498 0.10035z"/>
 <path id="path720-1-5-7" style="fill-rule:evenodd" d="m215.42 214.28c-2.3603 2.5412-3.014 5.3786-4.2171 5.6668-1.9281-0.42154-5.3396-0.60199-7.3144 0.84029-0.43733 1.2954 0.88557 0.14038 3.1923 1.5288-2.1855 1.8746-3.1208-0.73331-5.8508 2.8896-0.97648 1.2828 0.42205-0.0476 2.3903 0.74514-1.7098 2.1794-2.3676-0.55613-5.3866 0.96041-3.2696 2.256-3.4733 3.4271-6.9253 3.5967-0.71621 0.39147 1.0216 1.1279 1.9226 1.0524-2.8776 1.3821-8.0324 6.2594-4.0644 5.3452 2.274-1.8598 2.8015-1.3798 4.0661-0.77122-0.70392 1.7924-2.62 0.49172-4.1212 1.9628-2.756 1.3868-1.9288 3.0544-6.3725 3.318-2.7724 0.57752 0.63829 1.5862 1.1912 2.5183-2.7435 0.42978-5.3728 3.842-4.1592 3.8185 2.1362-1.3516 4.1392 0.30597 6.3973-1.8305-2.8454 3.2539-8.0716 5.5998-12.531 5.1308-5.1796 0.68731-10.932-1.003-16.032-3.5872-7.9145-3.744-12.681-5.889-18.897-6.6721-6.9308-0.42045-11.72 1.2924-16.955 5.3436-2.1945-0.71785-3.2939-1.3167-6.67-1.5649-6.6865-0.26789-12.621 2.8254-16.695 8.6406-3.9551 3.7893-6.4271 12.783-6.6732 16.344-1.0302 4.358-1.0351 8.5984-6.632 15.386-3.8364 4.7991-9.3287 7.0792-8.5321 14.756-0.15811 1.9092 0.54946 4.4102 3.1463 2.9076 1.8968-0.35275 8.5357-7.08 10.067-9.638 3.5735-5.6452 7.9974-12.53 10.604-19.609 1.93-4.8226 2.2636-5.8177 3.4442-12.747 0.99442-4.8317 5.0083-10.24 12.168-8.654-0.96803 1.0127-1.385 1.8048-2.3787 3.5756-4.3343 10.27-1.8783 18.173 1.4247 22.138-0.17457 5.7849-4.5607 8.1057-8.2184 7.996-2.8736-0.12015-7.5437-0.49978-7.823 5.2276-0.45319 5.7354 1.1188 7.6057 0.68899 16.264-0.11939 2.9446-3.9066 11.657-0.24742 13.834 0.0168 1.539-3.046 0.94071-4.3069 1.0774-2.4858-0.34185-4.2981 0.33174-4.3386 3.7374-0.57987 2.4052-3.1672 5.5705-2.7158 8.0455 6.284-0.82915 12.508-3.2986 16.503-9.3219 2.0316-5.5201 1.9733-17.027 2.52-24.56 1.2534-5.2805 7.962-2.5889 11.195-2.5092 3.8272-0.0864 6.4074-2.039 9.9615-1.078-1.3216 2.1664-1.6521 2.8343-3.5871 5.6846-2.4814 3.5455-4.0103 7.412 0.47384 9.3245 5.877 2.3967 9.8777 6.1178 14.258 10.683 5.3495 6.5484 6.5352 12.348 7.6257 11.939 1.3319 1.1544 3.6276-0.73988 3.7421 2.6754-0.16497 3.6339 4.6255 3.615 6.3569 5.0505 1.3349-0.0907 4.7721 2.6367 4.3713-1.0215 0.9627-6.7589-5.9556-10.668-9.0989-15.285-4.7458-5.6211-9.1571-10.117-14.412-15.085-1.6541-1.5283-1.7648-4.1878 0.0663-5.5872 5.9044-5.2562 6.4294-12.586 11.047-17.174 3.2 0.94247 7.0372 3.748 11.245 4.9449 6.3409 1.7695 12.57 5.0936 19.272 4.4824 4.6481-0.38623-2.5628 9.751-3.2553 14.242 1.0185 4.6145 0.24879 12.618-0.79816 16.906-2.551 5.1925-3.6144 8.5503-6.6068 12.868-2.4147 5.0002 5.5832 2.9428 3.9374 7.1512-1.5965 2.3168-0.56035 2.6422 1.8128 3.7356 2.6791 0.86797 6.3366 3.2533 8.9834 3.9896 3.5332-4.2742-6.1277-9.096-5.4179-13.848-0.41345-4.7608 2.2204-8.8616 2.9722-13.434 2.9128-7.0929 6.1406-13.604 8.725-20.861 2.1239-4.2449 3.4972-9.7469 7.1004-12.625 4.3896-2.1824 10.995 2.1611 16.176 4.4699 1.589 0.61422 6.9753 1.8083 5.0965 4.0864-5.3822 2.2718-9.8827 7.7186-15.352 9.6576-1.587 0.19738-2.2482 0.60201-2.2187 3.3654-2.6277 0.56496-3.9032-2.5138-6.2373-3.5285-3.0345 0.878-5.696 5.5078-6.6887 8.1979-1.3594 1.9491 5.133 2.3709 6.7281 2.1858 3.6844-0.005 6.0235-0.58116 7.6543-1.1675 2.638-1.0692 4.9984-3.7939 7.1401-4.8838 6.0367-3.8278 13.708-8.724 18.734-14.085 1.7353-1.9651 2.9834-4.8479-0.25322-6.917-2.9527-2.8856-7.8198-6.3148-12.095-8.4699-2.3785-1.6964-2.9034-1.4785-5.9664-3.9352 2.0127-2.759 2.4854-9.7081 2.7798-13.001 3.1654-5.3572 4.4303-12.392 7.147-19.466 2.8388 1.0962 7.1524 1.7307 10.107 1.1223 4.9382-0.15424 7.5492 7.6235 12.824 3.644 3.5746-3.5664-4.3389-3.5011-3.4761-5.3356 2.0063-2.6147 4.4756 2.663 6.3236 2.0896 2.3354-1.077 1.9027-5.8833-0.96038-7.6972-2.987-3.443-9.9206-8.7804-10.664-10.533-1.0626-3.8805-11.784-10.441-14.403-12.972-1.2016-2.6833-0.14148-5.2151-1.1856-7.7878-0.63412-0.63606-2.1084-0.7887-2.8498 0.10035z"/>
 <path id="path16" style="fill:#1b1c1f;fill-rule:evenodd" d="m108.3 28.789c-9.801 0-17.797 5.8639-17.797 13.167 0 7.2806 7.9956 13.219 17.797 13.219 9.8161 0 17.727-5.9384 17.727-13.219 0-7.303-7.9104-13.167-17.727-13.167zm-8.761 29.145c-3.1738 0-5.7453 1.9018-5.7453 4.2675 0 20.338 0.00002 40.714 0 61.047 0 2.3728 2.5716 4.2676 5.7453 4.2675h6.7263v-30.758h3.9937v30.758h6.7263c3.181 0 5.7454-1.8948 5.7454-4.2675 0-20.332 0.00003-40.709 0-61.047 0-2.3657-2.5644-4.2675-5.7454-4.2675h-17.446zm-14.223 2.0297c-1.5634 0-2.8727 0.92513-2.8727 2.0817v29.092c0 1.1737 1.3092 2.1338 2.8727 2.1338h2.2421c1.5603 0 2.8727-0.96007 2.8727-2.1338v-29.092c0-1.1548-1.3124-2.0817-2.8727-2.0817h-2.2421zm43.651 0c-1.5595 0-2.8026 0.92513-2.8026 2.0817v29.092c0 1.1737 1.2471 2.1338 2.8026 2.1338h2.3122c1.5619 0 2.8026-0.96007 2.8026-2.1338v-29.092c0-1.1548-1.2407-2.0817-2.8026-2.0817h-2.3122z"/>
 <path id="path16-3" style="fill:#1b1c1f;fill-rule:evenodd" d="m181.59 28.801c-9.801 0-17.797 5.8639-17.797 13.167 0 7.2806 7.9956 13.219 17.797 13.219 9.8161 0 17.727-5.9384 17.727-13.219 0-7.303-7.9104-13.167-17.727-13.167zm-8.7582 29.144c-3.1738 0-5.7453 1.9018-5.7453 4.2675 0 20.338 0.00002 40.714 0 61.047 0 2.3728 2.5716 4.2676 5.7453 4.2675h6.7263v-30.757h3.9937v30.757h6.7263c3.181 0 5.7454-1.8948 5.7454-4.2675 0-20.332 0.00003-40.709 0-61.047 0-2.3657-2.5644-4.2675-5.7454-4.2675h-17.446zm-14.223 2.0297c-1.5634 0-2.8727 0.92514-2.8727 2.0817v29.092c0 1.1737 1.3092 2.1338 2.8727 2.1338h2.2421c1.5603 0 2.8727-0.96007 2.8727-2.1338v-29.092c0-1.1548-1.3124-2.0817-2.8727-2.0817h-2.2421zm43.651 0c-1.5595 0-2.8026 0.92514-2.8026 2.0817v29.092c0 1.1737 1.2471 2.1338 2.8026 2.1338h2.3122c1.5619 0 2.8026-0.96007 2.8026-2.1338v-29.092c0-1.1548-1.2407-2.0817-2.8026-2.0817h-2.3122z"/>
 <path id="path16-3-1" style="fill:#1b1c1f;fill-rule:evenodd" d="m256.51 28.801c-9.801 0-17.797 5.8639-17.797 13.167 0 7.2806 7.9956 13.219 17.797 13.219 9.8161 0 17.727-5.9384 17.727-13.219 0-7.303-7.9104-13.167-17.727-13.167zm-8.7582 29.144c-3.1738 0-5.7453 1.9018-5.7453 4.2675 0 20.338 0.00002 40.714 0 61.047 0 2.3728 2.5716 4.2676 5.7453 4.2675h6.7263v-30.758h3.9937v30.758h6.7263c3.181 0 5.7454-1.8948 5.7454-4.2675 0-20.332 0.00003-40.709 0-61.047 0-2.3657-2.5644-4.2675-5.7454-4.2675h-17.446zm-14.223 2.0297c-1.5634 0-2.8727 0.92514-2.8727 2.0817v29.092c0 1.1737 1.3092 2.1338 2.8727 2.1338h2.2421c1.5603 0 2.8727-0.96007 2.8727-2.1338v-29.092c0-1.1548-1.3124-2.0817-2.8727-2.0817h-2.2421zm43.651 0c-1.5595 0-2.8026 0.92514-2.8026 2.0817v29.092c0 1.1737 1.2471 2.1338 2.8026 2.1338h2.3122c1.5619 0 2.8026-0.96007 2.8026-2.1338v-29.092c0-1.1548-1.2407-2.0817-2.8026-2.0817h-2.3122z"/>
 <path id="path16-3-1-3" style="fill:#1b1c1f;fill-rule:evenodd" d="m331.43 26.789c-9.801 0-17.797 5.8639-17.797 13.167 0 7.2806 7.9956 13.219 17.797 13.219 9.8161 0 17.727-5.9384 17.727-13.219 0-7.303-7.9104-13.167-17.727-13.167zm-8.7582 29.144c-3.1738 0-5.7453 1.9018-5.7453 4.2675 0 20.338 0.00002 40.714 0 61.047 0 2.3728 2.5716 4.2676 5.7453 4.2675h6.7263v-30.758h3.9937v30.758h6.7263c3.181 0 5.7454-1.8948 5.7454-4.2675 0-20.332 0.00003-40.709 0-61.047 0-2.3657-2.5644-4.2675-5.7454-4.2675h-17.446zm-14.223 2.0297c-1.5634 0-2.8727 0.92514-2.8727 2.0817v29.092c0 1.1737 1.3092 2.1338 2.8727 2.1338h2.2421c1.5603 0 2.8727-0.96007 2.8727-2.1338v-29.092c0-1.1548-1.3124-2.0817-2.8727-2.0817h-2.2421zm43.651 0c-1.5595 0-2.8026 0.92514-2.8026 2.0817v29.092c0 1.1737 1.2471 2.1338 2.8026 2.1338h2.3122c1.5619 0 2.8026-0.96007 2.8026-2.1338v-29.092c0-1.1548-1.2407-2.0817-2.8026-2.0817h-2.3122z"/>
 <path id="path16-3-1-3-5" style="fill:#1b1c1f;fill-rule:evenodd" d="m407.98 30.812c-9.801 0-17.797 5.8639-17.797 13.167 0 7.2806 7.9956 13.219 17.797 13.219 9.8161 0 17.727-5.9384 17.727-13.219 0-7.303-7.9104-13.167-17.727-13.167zm-8.7582 29.144c-3.1738 0-5.7453 1.9018-5.7453 4.2675 0 20.338 0.00002 40.714 0 61.047 0 2.3728 2.5716 4.2676 5.7453 4.2675h6.7263v-30.758h3.9937v30.758h6.7263c3.181 0 5.7454-1.8948 5.7454-4.2675 0-20.332 0.00003-40.709 0-61.047 0-2.3657-2.5644-4.2675-5.7454-4.2675h-17.446zm-14.223 2.0297c-1.5634 0-2.8727 0.92514-2.8727 2.0817v29.092c0 1.1737 1.3092 2.1338 2.8727 2.1338h2.2421c1.5603 0 2.8727-0.96007 2.8727-2.1338v-29.092c0-1.1548-1.3124-2.0817-2.8727-2.0817h-2.2421zm43.651 0c-1.5595 0-2.8026 0.92514-2.8026 2.0817v29.092c0 1.1737 1.2471 2.1338 2.8026 2.1338h2.3122c1.5619 0 2.8026-0.96007 2.8026-2.1338v-29.092c0-1.1548-1.2407-2.0817-2.8026-2.0817h-2.3122z"/>
</svg>
