<?xml version="1.0" encoding="UTF-8" standalone="no"?>
<!DOCTYPE svg  PUBLIC '-//W3C//DTD SVG 1.1//EN'  'http://www.w3.org/Graphics/SVG/1.1/DTD/svg11.dtd'>
<svg id="Layer_2" xmlns="http://www.w3.org/2000/svg" xml:space="preserve" height="428.03px" viewBox="0 0 428.032 428.032" width="428.03px" version="1.1" y="0px" x="0px" xmlns:xlink="http://www.w3.org/1999/xlink" enable-background="new 0 0 428.032 428.032">
<rect id="full" height="428.03" width="428" stroke="#000" stroke-miterlimit="10" y="0" x="0" stroke-width=".1" fill="#FFFCE7"/>
	<g id="horitzontal" stroke="#432918" stroke-width=".1" stroke-miterlimit="10">
	<line y2="56.121" x2="428.87" y1="56.121"/>
	<line y2="81.317" x2="428.66" y1="81.317"/>
	<line y2="68.719" x2="428.77" y1="68.719"/>
	<line y2="43.522" x2="428.55" y1="43.522"/>
	<line y2="131.71" x2="428.87" y1="131.71"/>
	<line y2="93.916" x2="428.66" y1="93.916"/>
	<line y2="156.91" x2="428.66" y1="156.91"/>
	<line y2="106.51" x2="428.77" y1="106.51"/>
	<line y2="144.31" x2="428.77" y1="144.31"/>
	<line y2="119.11" x2="428.55" y1="119.11"/>
	<line y2="207.3" x2="428.87" y1="207.3"/>
	<line y2="169.51" x2="428.66" y1="169.51"/>
	<line y2="232.5" x2="428.66" y1="232.5"/>
	<line y2="182.1" x2="428.77" y1="182.1"/>
	<line y2="219.9" x2="428.77" y1="219.9"/>
	<line y2="194.7" x2="428.55" y1="194.7"/>
	<line y2="282.89" x2="428.87" y1="282.89"/>
	<line y2="245.1" x2="428.66" y1="245.1"/>
	<line y2="308.09" x2="428.66" y1="308.09"/>
	<line y2="257.7" x2="428.77" y1="257.7"/>
	<line y2="295.49" x2="428.77" y1="295.49"/>
	<line y2="270.29" x2="428.55" y1="270.29"/>
	<line y2="358.48" x2="428.87" y1="358.48"/>
	<line y2="320.69" x2="428.66" y1="320.69"/>
	<line y2="383.68" x2="428.66" y1="383.68"/>
	<line y2="333.29" x2="428.77" y1="333.29"/>
	<line y2="371.08" x2="428.77" y1="371.08"/>
	<line y2="345.88" x2="428.55" y1="345.88"/>
	</g>
</svg>
