<?xml version="1.0" encoding="UTF-8" standalone="no"?>
<!-- Created with Inkscape (http://www.inkscape.org/) -->
<svg id="svg1" xmlns:rdf="http://www.w3.org/1999/02/22-rdf-syntax-ns#" xmlns="http://www.w3.org/2000/svg" height="60" width="120" version="1.1" xmlns:cc="http://creativecommons.org/ns#" xmlns:dc="http://purl.org/dc/elements/1.1/">
 <metadata id="metadata3">
  <rdf:RDF>
   <cc:Work rdf:about="">
    <dc:title>Part of the Flat Icon Collection (Wed Aug 25 23:23:49 2004)</dc:title>
    <dc:description/>
    <dc:subject>
     <rdf:Bag>
      <rdf:li>hash</rdf:li>
      <rdf:li/>
      <rdf:li>application</rdf:li>
      <rdf:li>computer</rdf:li>
      <rdf:li>icons</rdf:li>
      <rdf:li>theme</rdf:li>
     </rdf:Bag>
    </dc:subject>
    <dc:publisher>
     <cc:Agent rdf:about="http://www.openclipart.org">
      <dc:title>Danny Allen</dc:title>
     </cc:Agent>
    </dc:publisher>
    <dc:creator>
     <cc:Agent>
      <dc:title>Danny Allen</dc:title>
     </cc:Agent>
    </dc:creator>
    <dc:rights>
     <cc:Agent>
      <dc:title>Danny Allen</dc:title>
     </cc:Agent>
    </dc:rights>
    <dc:date/>
    <dc:format>image/svg+xml</dc:format>
    <dc:type rdf:resource="http://purl.org/dc/dcmitype/StillImage"/>
    <cc:license rdf:resource="http://web.resource.org/cc/PublicDomain"/>
    <dc:language>en</dc:language>
   </cc:Work>
   <cc:License rdf:about="http://web.resource.org/cc/PublicDomain">
    <cc:permits rdf:resource="http://web.resource.org/cc/Reproduction"/>
    <cc:permits rdf:resource="http://web.resource.org/cc/Distribution"/>
    <cc:permits rdf:resource="http://web.resource.org/cc/DerivativeWorks"/>
   </cc:License>
  </rdf:RDF>
 </metadata>
 <path id="path831" style="fill:#b3b3b3;fill-rule:evenodd" d="m56.844 9.5625h-46.812c-2.1624 0-3.875 1.7438-3.875 3.9062v31.531c0 2.1624 1.7126 3.875 3.875 3.875h46.812"/>
 <path id="path829" style="stroke-width:1pt;fill:#333" d="m42.855 19.664c0.52171 0 0.99994 0.08695 1.4347 0.26086 0.45215 0.1739 0.80865 0.45215 1.0695 0.83474 0.26086 0.3652 0.39128 0.83474 0.39128 1.4086 0 0.43476-0.06956 1.026-0.20868 1.7738-0.13912 0.73039-0.23477 1.2869-0.28694 1.6695 0.55649-0.38259 1.0521-0.73909 1.4869-1.0695 0.45215-0.34781 0.8869-0.61736 1.3043-0.80865 0.41737-0.20868 0.82604-0.31303 1.226-0.31303 0.81735 0 1.5043 0.31303 2.0608 0.93908 0.55649 0.62605 0.83474 1.3564 0.83474 2.1912 0 0.59128-0.22608 1.0869-0.67823 1.4869-0.45215 0.39998-1.1825 0.80865-2.1912 1.226-1.0086 0.39998-1.5477 0.61736-1.6173 0.65214 0.06956 0.03478 0.60866 0.26086 1.6173 0.67822 1.026 0.41737 1.7564 0.81735 2.1912 1.1999 0.45215 0.3652 0.67823 0.84343 0.67823 1.4347 0 0.85213-0.27825 1.5999-0.83474 2.2434-0.55649 0.64345-1.2434 0.96517-2.0608 0.96517-0.55649 0-1.1912-0.24346-1.9042-0.73039-0.71301-0.48693-1.4173-0.97386-2.1129-1.4608 0.08696 0.55649 0.1913 1.1478 0.31303 1.7738 0.12173 0.62605 0.1826 1.1565 0.1826 1.5912 0 0.86952-0.27824 1.5217-0.83474 1.9564-0.5391 0.41737-1.226 0.62605-2.0608 0.62605-0.81735 0-1.5043-0.20868-2.0608-0.62605-0.5391-0.43476-0.80866-1.0869-0.80866-1.9564 0-0.27824 0.06957-0.79995 0.20869-1.5651 0.13912-0.76518 0.22607-1.3651 0.26085-1.7999-0.92169 0.64344-1.5304 1.0782-1.826 1.3043-0.29564 0.20868-0.65214 0.40867-1.0695 0.59997-0.39998 0.1913-0.78257 0.28694-1.1478 0.28694-0.83474 0-1.513-0.31302-2.0347-0.93908-0.50432-0.62605-0.75648-1.3825-0.75648-2.2694 0-0.62605 0.21738-1.1217 0.65214-1.4869s1.1391-0.73909 2.1129-1.1217c0.97386-0.39998 1.5304-0.63475 1.6695-0.70431-0.13912-0.06956-0.69562-0.29564-1.6695-0.67822-0.95647-0.39998-1.6608-0.79126-2.1129-1.1739-0.43476-0.39998-0.65214-0.9043-0.65214-1.513 0-0.85213 0.25216-1.5825 0.75648-2.1912 0.52171-0.62605 1.1999-0.93908 2.0347-0.93908 0.52171 0 0.99995 0.13912 1.4347 0.41737 0.45215 0.27825 1.3217 0.86952 2.6086 1.7738-0.03478-0.38259-0.12173-0.98256-0.26085-1.7999-0.13912-0.81735-0.20869-1.3651-0.20869-1.6434 0-0.86952 0.26955-1.5043 0.80866-1.9042 0.55649-0.39998 1.2434-0.59997 2.0608-0.59997zm-20.79 0c0.52171 0 0.99994 0.08695 1.4347 0.26086 0.45215 0.1739 0.80865 0.45215 1.0695 0.83474 0.26086 0.3652 0.39128 0.83474 0.39128 1.4086 0 0.43476-0.06956 1.026-0.20868 1.7738-0.13912 0.73039-0.23477 1.2869-0.28694 1.6695 0.55649-0.38259 1.0521-0.73909 1.4869-1.0695 0.45215-0.34781 0.88691-0.61736 1.3043-0.80865 0.41737-0.20868 0.82604-0.31303 1.226-0.31303 0.81735 0 1.5043 0.31303 2.0608 0.93908 0.55649 0.62605 0.83474 1.3564 0.83474 2.1912 0 0.59128-0.22607 1.0869-0.67823 1.4869-0.45215 0.39998-1.1825 0.80865-2.1912 1.226-1.0086 0.39998-1.5477 0.61736-1.6173 0.65214 0.06956 0.03478 0.60866 0.26086 1.6173 0.67822 1.026 0.41737 1.7564 0.81735 2.1912 1.1999 0.45215 0.3652 0.67823 0.84343 0.67823 1.4347 0 0.85213-0.27824 1.5999-0.83474 2.2434-0.55649 0.64345-1.2434 0.96517-2.0608 0.96517-0.55649 0-1.1912-0.24346-1.9042-0.73039s-1.4173-0.97386-2.1129-1.4608c0.08695 0.55649 0.1913 1.1478 0.31303 1.7738 0.12173 0.62605 0.1826 1.1565 0.1826 1.5912 0 0.86952-0.27825 1.5217-0.83474 1.9564-0.5391 0.41737-1.226 0.62605-2.0608 0.62605-0.81735 0-1.5043-0.20868-2.0608-0.62605-0.5391-0.43476-0.80865-1.0869-0.80865-1.9564 0-0.27824 0.06956-0.79995 0.20868-1.5651 0.13912-0.76518 0.22607-1.3651 0.26085-1.7999-0.92169 0.64344-1.5304 1.0782-1.826 1.3043-0.29563 0.20868-0.65214 0.40867-1.0695 0.59997-0.39998 0.1913-0.78257 0.28694-1.1478 0.28694-0.83474 0-1.513-0.31302-2.0347-0.93908-0.50432-0.62605-0.75648-1.3825-0.75648-2.2694 0-0.62605 0.21738-1.1217 0.65214-1.4869s1.1391-0.73909 2.1129-1.1217c0.97386-0.39998 1.5304-0.63475 1.6695-0.70431-0.13912-0.06956-0.69561-0.29564-1.6695-0.67822-0.95647-0.39998-1.6608-0.79126-2.1129-1.1739-0.43476-0.39998-0.65214-0.9043-0.65214-1.513 0-0.85213 0.25216-1.5825 0.75648-2.1912 0.52171-0.62605 1.1999-0.93908 2.0347-0.93908 0.52171 0 0.99995 0.13912 1.4347 0.41737 0.45215 0.27825 1.3217 0.86952 2.6086 1.7738-0.03478-0.38259-0.12173-0.98256-0.26085-1.7999-0.13912-0.81735-0.20868-1.3651-0.20868-1.6434 0-0.86952 0.26955-1.5043 0.80865-1.9042 0.55649-0.39998 1.2434-0.59997 2.0608-0.59997z"/>
 <path id="path832" style="stroke-linejoin:round;stroke:#333;stroke-linecap:round;stroke-width:3.125;fill:none" d="m56.688 49.125h-50.312v-38.906h50.312"/>
 <path id="path831-4" style="fill:#b3b3b3;fill-rule:evenodd" d="m114.81 8.3906h-45.889c-2.1198 0-3.7986 1.8325-3.7986 4.105v33.135c0 2.2724 1.6788 4.0721 3.7986 4.0721h45.889"/>
 <path id="path829-6" style="stroke-width:1pt;fill:#333" d="m101.57 19.742c0.52171 0 0.99995 0.08695 1.4347 0.26086 0.45215 0.1739 0.80865 0.45215 1.0695 0.83474 0.26086 0.3652 0.39128 0.83474 0.39128 1.4086 0 0.43476-0.0696 1.026-0.20869 1.7738-0.13912 0.73039-0.23476 1.2869-0.28694 1.6695 0.5565-0.38259 1.0521-0.73909 1.4869-1.0695 0.45215-0.34781 0.88691-0.61736 1.3043-0.80865 0.41737-0.20868 0.82604-0.31303 1.226-0.31303 0.81735 0 1.5043 0.31303 2.0608 0.93908s0.83474 1.3564 0.83474 2.1912c0 0.59128-0.22608 1.0869-0.67822 1.4869-0.45216 0.39998-1.1826 0.80865-2.1912 1.226-1.0086 0.39998-1.5478 0.61736-1.6173 0.65214 0.0696 0.03478 0.60867 0.26086 1.6173 0.67822 1.026 0.41737 1.7564 0.81735 2.1912 1.1999 0.45214 0.3652 0.67822 0.84343 0.67822 1.4347 0 0.85213-0.27824 1.5999-0.83474 2.2434-0.55649 0.64345-1.2434 0.96517-2.0608 0.96517-0.55649 0-1.1912-0.24346-1.9042-0.73039-0.71301-0.48693-1.4173-0.97386-2.1129-1.4608 0.087 0.55649 0.1913 1.1478 0.31303 1.7738 0.12173 0.62605 0.1826 1.1565 0.1826 1.5912 0 0.86952-0.27825 1.5217-0.83474 1.9564-0.5391 0.41737-1.226 0.62605-2.0608 0.62605-0.81734 0-1.5043-0.20868-2.0608-0.62605-0.5391-0.43476-0.80865-1.0869-0.80865-1.9564 0-0.27824 0.0696-0.79995 0.20869-1.5651 0.13912-0.76518 0.22607-1.3651 0.26085-1.7999-0.92169 0.64344-1.5304 1.0782-1.826 1.3043-0.29563 0.20868-0.65214 0.40867-1.0695 0.59997-0.39998 0.1913-0.78257 0.28694-1.1478 0.28694-0.83474 0-1.513-0.31302-2.0347-0.93908-0.50432-0.62605-0.75648-1.3825-0.75648-2.2694 0-0.62605 0.21738-1.1217 0.65214-1.4869s1.1391-0.73909 2.1129-1.1217c0.97386-0.39998 1.5304-0.63475 1.6695-0.70431-0.13912-0.06956-0.69561-0.29564-1.6695-0.67822-0.95647-0.39998-1.6608-0.79126-2.1129-1.1739-0.43476-0.39998-0.65214-0.9043-0.65214-1.513 0-0.85213 0.25216-1.5825 0.75648-2.1912 0.52171-0.62605 1.1999-0.93908 2.0347-0.93908 0.52171 0 0.99995 0.13912 1.4347 0.41737 0.45214 0.27825 1.3217 0.86952 2.6086 1.7738-0.0348-0.38259-0.12173-0.98256-0.26085-1.7999-0.13912-0.81735-0.20869-1.3651-0.20869-1.6434 0-0.86952 0.26955-1.5043 0.80865-1.9042 0.5565-0.39998 1.2434-0.59997 2.0608-0.59997zm-20.79 0c0.52171 0 0.99994 0.08695 1.4347 0.26086 0.45215 0.1739 0.80865 0.45215 1.0695 0.83474 0.26086 0.3652 0.39128 0.83474 0.39128 1.4086 0 0.43476-0.06956 1.026-0.20868 1.7738-0.13912 0.73039-0.23477 1.2869-0.28694 1.6695 0.55649-0.38259 1.0521-0.73909 1.4869-1.0695 0.45215-0.34781 0.88691-0.61736 1.3043-0.80865 0.41737-0.20868 0.82604-0.31303 1.226-0.31303 0.81735 0 1.5043 0.31303 2.0608 0.93908 0.55649 0.62605 0.83474 1.3564 0.83474 2.1912 0 0.59128-0.22607 1.0869-0.67823 1.4869-0.45215 0.39998-1.1825 0.80865-2.1912 1.226-1.0086 0.39998-1.5477 0.61736-1.6173 0.65214 0.06956 0.03478 0.60866 0.26086 1.6173 0.67822 1.026 0.41737 1.7564 0.81735 2.1912 1.1999 0.45215 0.3652 0.67823 0.84343 0.67823 1.4347 0 0.85213-0.27824 1.5999-0.83474 2.2434-0.55649 0.64345-1.2434 0.96517-2.0608 0.96517-0.55649 0-1.1912-0.24346-1.9042-0.73039s-1.4173-0.97386-2.1129-1.4608c0.08695 0.55649 0.1913 1.1478 0.31303 1.7738 0.12173 0.62605 0.1826 1.1565 0.1826 1.5912 0 0.86952-0.27825 1.5217-0.83474 1.9564-0.5391 0.41737-1.226 0.62605-2.0608 0.62605-0.81735 0-1.5043-0.20868-2.0608-0.62605-0.5391-0.43476-0.80865-1.0869-0.80865-1.9564 0-0.27824 0.06956-0.79995 0.20868-1.5651 0.13912-0.76518 0.22607-1.3651 0.26085-1.7999-0.92169 0.64344-1.5304 1.0782-1.826 1.3043-0.29563 0.20868-0.65214 0.40867-1.0695 0.59997-0.39998 0.1913-0.78257 0.28694-1.1478 0.28694-0.83474 0-1.513-0.31302-2.0347-0.93908-0.501-0.626-0.753-1.383-0.753-2.27 0-0.62605 0.21738-1.1217 0.65214-1.4869s1.1391-0.73909 2.1129-1.1217c0.97386-0.39998 1.5304-0.63475 1.6695-0.70431-0.13912-0.06956-0.69561-0.29564-1.6695-0.67822-0.95647-0.39998-1.6608-0.79126-2.1129-1.1739-0.43476-0.39998-0.65214-0.9043-0.65214-1.513 0-0.85213 0.25216-1.5825 0.75648-2.1912 0.52171-0.62605 1.1999-0.93908 2.0347-0.93908 0.52171 0 0.99995 0.13912 1.4347 0.41737 0.45215 0.27825 1.3217 0.86952 2.6086 1.7738-0.03478-0.38259-0.12173-0.98256-0.26085-1.7999-0.13912-0.81735-0.20868-1.3651-0.20868-1.6434 0-0.86952 0.26955-1.5043 0.80865-1.9042 0.55649-0.39998 1.2434-0.59997 2.0608-0.59997z"/>
 <path id="path832-7" style="stroke-linejoin:round;stroke:#333;stroke-linecap:round;stroke-width:3.125;fill:none" d="m66.344 10.297h50.312v38.906h-50.312"/>
</svg>
