<?xml version="1.0" encoding="UTF-8" standalone="no"?>
<!-- Generator: Adobe Illustrator 14.0.0, SVG Export Plug-In . SVG Version: 6.00 Build 43363)  -->
<!DOCTYPE svg  PUBLIC '-//W3C//DTD SVG 1.1//EN'  'http://www.w3.org/Graphics/SVG/1.1/DTD/svg11.dtd'>
<svg id="Layer_1" xmlns="http://www.w3.org/2000/svg" xml:space="preserve" height="300px" viewBox="0 0 300 300" width="300px" version="1.1" y="0px" x="0px" xmlns:xlink="http://www.w3.org/1999/xlink" enable-background="new 0 0 300 300">
	<path d="m84.47 129.58c2.582 1.789 5.65 3.566 8.727 1.75 0.036-0.843 0.105-2.527 0.14-3.369 11.007 2.402 22.332 2.053 33.522 1.829 5.067-0.495 10.04-1.662 15.064-2.459 6.568-1.346 13.908-2.555 18.623-7.796 4.176-4.462 2.271-13.796-4.425-14.344-7.42-0.158-13.677 4.566-20.261 7.331-19.251 7.749-41.033 8.787-61.065 3.606-6.448-3.266-12.745-7.01-18.745-11.019 0.429-2.979 1.708-5.954 1.101-9.002-1.934-14.127-16.105-25.098-30.247-23.84-5.83 0.169-11.323 3.423-14.615 8.168-2.86 5.357-2.656 12.016-0.392 17.554 4.753 10.255 15.693 17.482 27.075 17.233 4.864 0.102 9.584-1.892 13.313-4.937 3.835 1.852 7.008 4.747 10.739 6.767 7.284 3.94 14.373 8.23 21.446 12.53zm-40.237-21.44c-9.413 3.137-20.221-1.964-25.312-10.145-2.921-4.275-3.414-10.147-0.967-14.74 1.87-2.377 4.619-3.998 7.576-4.595 11.92-2.254 24.575 7.27 25.642 19.378-0.239 4.272-2.707 8.702-6.939 10.102z"/>
	<path d="m217.28 115.82c11.825 4.397 25.53 3.576 36.233 10.926 4.412 2.85 7.053 7.908 7.047 13.142-0.048 11.29-3.436 22.657-10.311 31.688 3.767 0.212 5.91-3.69 8.69-5.667 11.285-9.49 16.99-25.176 13.904-39.65-1.299-6.402-6.128-11.251-11.088-15.126-8.774-6.195-19.168-9.641-29.645-11.611-5.996-0.737-12.334-0.499-17.975 1.836-2.526 1.049-5.224 3.548-4.3 6.545 1.2 3.59 3.76 6.75 7.46 7.92z"/>
	<path d="m258.18 237.63c-9.352-4.469-18.881-10.561-23.126-20.457-4.909-12.779-4.068-26.705-5.023-40.12-0.599-5.64-0.978-11.759-4.513-16.468-4.168-6.124-15.336-6.841-18.925 0.271-2.876 5.579-2.167 12.167-1.641 18.2 2.598 16.971 8.179 33.479 16.365 48.567 6.018 8.933 16.594 13.158 26.668 15.64 11.378 2.553 22.755 5.123 34.135 7.682 3.17 0.33 7.401 1.84 9.782-1.065-11.18-4.24-23-6.82-33.72-12.25z"/>
	<path d="m197.87 158.96c-4.168-2.54-9.429-1.803-13.824-0.289-11.773 4.804-21.485 13.224-31.364 21.003-29.333 23.355-58.805 46.544-88.071 69.979-1.911 1.415-4.009 2.544-6.128 3.613 0.46 0.369 0.921 0.742 1.383 1.119 6.338-2.177 12.528-4.807 18.349-8.14 33.863-18.839 68.132-36.942 101.78-56.166 5.938-3.345 12.024-6.515 17.455-10.665 3.836-3.001 6.907-8.162 5.263-13.119-1.07-2.7-2.13-5.83-4.85-7.32z"/>
	<path d="m35.406 124.31c-4.988 0-9.031 4.043-9.031 9.031s4.043 9.031 9.031 9.031 9.031-4.043 9.031-9.031c0-4.98-4.043-9.03-9.031-9.03zm0 12.07c-1.671 0-3.031-1.36-3.031-3.031s1.36-3.031 3.031-3.031c1.672 0 3.031 1.36 3.031 3.031 0 1.67-1.36 3.03-3.031 3.03z"/>
	<circle cy="74.676" cx="170.45" r="21.699"/>
</svg>
