<?xml version="1.0" encoding="UTF-8" standalone="no"?>
<!-- Created with Inkscape (http://www.inkscape.org/) -->
<svg id="svg7384" xmlns:rdf="http://www.w3.org/1999/02/22-rdf-syntax-ns#" xmlns="http://www.w3.org/2000/svg" height="16" width="16" version="1.1" xmlns:cc="http://creativecommons.org/ns#" xmlns:dc="http://purl.org/dc/elements/1.1/">
 <metadata id="metadata90">
  <rdf:RDF>
   <cc:Work rdf:about="">
    <dc:format>image/svg+xml</dc:format>
    <dc:type rdf:resource="http://purl.org/dc/dcmitype/StillImage"/>
    <dc:title>Gnome Symbolic Icon Theme</dc:title>
   </cc:Work>
  </rdf:RDF>
 </metadata>
 <title id="title9167">Gnome Symbolic Icon Theme</title>
 <g id="layer9" transform="translate(-181 -177)">
  <path id="rect12675" style="block-progression:tb;text-indent:0;color:#bebebe;text-transform:none;fill:#bebebe" d="m185.75 177c-0.9522 0-1.75 0.7978-1.75 1.75v4.5c0 0.9522 0.7978 1.75 1.75 1.75h6.5c0.9522 0 1.75-0.7978 1.75-1.75v-4.5c0-0.9522-0.7978-1.75-1.75-1.75h-6.5zm0.25 2h6v4h-6v-4z"/>
  <path id="path12677" style="block-progression:tb;text-indent:0;color:#bebebe;text-transform:none;fill:#bebebe" d="m186.38 184-0.28125 0.5625-1 2-0.71875 1.4375h1.625 6 1.625l-0.71875-1.4375-1-2-0.28-0.56h-0.62-4-0.625z"/>
  <path id="path12679" style="block-progression:tb;text-indent:0;color:#bebebe;text-transform:none;fill:#bebebe" d="m188 186v4h2v-4h-2z"/>
  <path id="path12681" style="block-progression:tb;text-indent:0;color:#bebebe;text-transform:none;fill:#bebebe" d="m183 190v2h12v-2h-12z"/>
 </g>
</svg>
