<?xml version="1.0" encoding="UTF-8" standalone="no"?>
<!-- Created with Inkscape (http://www.inkscape.org/) -->
<svg id="svg7384" xmlns:rdf="http://www.w3.org/1999/02/22-rdf-syntax-ns#" xmlns="http://www.w3.org/2000/svg" height="16" width="16" version="1.1" xmlns:cc="http://creativecommons.org/ns#" xmlns:dc="http://purl.org/dc/elements/1.1/">
 <metadata id="metadata90">
  <rdf:RDF>
   <cc:Work rdf:about="">
    <dc:format>image/svg+xml</dc:format>
    <dc:type rdf:resource="http://purl.org/dc/dcmitype/StillImage"/>
    <dc:title>Gnome Symbolic Icon Theme</dc:title>
   </cc:Work>
  </rdf:RDF>
 </metadata>
 <title id="title9167">Gnome Symbolic Icon Theme</title>
 <g id="layer9" transform="translate(-101,-357)">
  <path id="path12148" style="block-progression:tb;text-indent:0;color:#bebebe;text-transform:none;fill:#bebebe" d="m104.75 357.06c-2.0602 0-3.75 1.6898-3.75 3.75v4.4375c0 2.0602 1.6898 3.75 3.75 3.75h4.9375l3.75 2.6562 1.5938 1.125v-1.9688l-0.0313-2.5c1.1106-0.59715 1.9688-1.6526 1.9688-3.0625v-4.4375c0-2.0602-1.6898-3.75-3.75-3.75h-8.4688zm0 2h8.4688c0.9868 0 1.75 0.7632 1.75 1.75v4.4375c0 0.86273-0.63508 1.541-1.125 1.625l-0.84 0.12v0.84375 1.0312l-2.4062-1.6875-0.25-0.1875h-0.3125-5.2812c-0.9868 0-1.75-0.7632-1.75-1.75v-4.4375c0-0.9868 0.7632-1.75 1.75-1.75z"/>
 </g>
</svg>
