<?xml version="1.0" encoding="UTF-8" standalone="no"?>
<!-- Created with Inkscape (http://www.inkscape.org/) -->
<svg id="svg7384" xmlns:rdf="http://www.w3.org/1999/02/22-rdf-syntax-ns#" xmlns="http://www.w3.org/2000/svg" height="16" width="16" version="1.1" xmlns:cc="http://creativecommons.org/ns#" xmlns:dc="http://purl.org/dc/elements/1.1/">
 <metadata id="metadata90">
  <rdf:RDF>
   <cc:Work rdf:about="">
    <dc:format>image/svg+xml</dc:format>
    <dc:type rdf:resource="http://purl.org/dc/dcmitype/StillImage"/>
    <dc:title>Gnome Symbolic Icon Theme</dc:title>
   </cc:Work>
  </rdf:RDF>
 </metadata>
 <title id="title9167">Gnome Symbolic Icon Theme</title>
 <g id="layer9" transform="translate(-141 -357)">
  <path id="path12179" style="opacity:.35;color:#bebebe;fill:#bebebe" d="m144.69 358.06c-1.5235 0-2.75 1.2265-2.75 2.75v4.4375c0 1.5235 1.2265 2.75 2.75 2.75h6.3125l2.9688 4.0625v-4.1562c1.2045-0.29284 2.0938-1.3591 2.0938-2.6562v-4.4375c0-1.5235-1.2265-2.75-2.75-2.75h-8.625zm4.3125 1.9375h1c0.27614 0 0.53779 0.10029 0.71875 0.28125l2 2 0.6875 0.71875-0.6875 0.71875-2 2c-0.18 0.18-0.44 0.28-0.72 0.28h-1v-1c0-0.27614 0.10029-0.53779 0.28125-0.71875l0.28-0.28h-4.5625v-2h4.5625l-0.28125-0.28125c-0.18-0.18-0.28-0.44-0.28-0.72v-1z"/>
 </g>
</svg>
