<?xml version="1.0" encoding="UTF-8" standalone="no"?>
<!-- Created with Inkscape (http://www.inkscape.org/) -->
<svg id="svg7384" xmlns:rdf="http://www.w3.org/1999/02/22-rdf-syntax-ns#" xmlns="http://www.w3.org/2000/svg" height="16" width="16" version="1.1" xmlns:cc="http://creativecommons.org/ns#" xmlns:dc="http://purl.org/dc/elements/1.1/">
 <metadata id="metadata90">
  <rdf:RDF>
   <cc:Work rdf:about="">
    <dc:format>image/svg+xml</dc:format>
    <dc:type rdf:resource="http://purl.org/dc/dcmitype/StillImage"/>
    <dc:title>Gnome Symbolic Icon Theme</dc:title>
   </cc:Work>
  </rdf:RDF>
 </metadata>
 <title id="title9167">Gnome Symbolic Icon Theme</title>
 <g id="layer9" transform="translate(-81 -357)">
  <path id="path12110" style="opacity:.35;color:#bebebe;fill:#bebebe" d="m84.688 358.06c-1.2395 0-2.2793 0.81431-2.625 1.9375h12.937v4.9835h-12.998l0.06 1.02c0.32679 1.1538 1.3638 2 2.625 2h6.3125l2.9671 4 0.0017-4.0938c1.2045-0.29284 2.0938-1.3591 2.0938-2.6562v-4.4375c0-1.5235-1.2265-2.75-2.75-2.75z"/>
  <path id="path4955-3-5" style="fill:#bebebe" d="m29 209a1 1 0 1 1 -2 0 1 1 0 1 1 2 0z" transform="matrix(1.5,0,0,1.5,42.5,49)"/>
  <path id="path4957-3-7" style="fill:#bebebe" d="m29 209a1 1 0 1 1 -2 0 1 1 0 1 1 2 0z" transform="matrix(1.5,0,0,1.5,46.5,49)"/>
  <path id="path4959-7-4" style="fill:#bebebe" d="m29 209a1 1 0 1 1 -2 0 1 1 0 1 1 2 0z" transform="matrix(1.5 0 0 1.5 50.5 49)"/>
 </g>
</svg>
