<?xml version="1.0" encoding="UTF-8" standalone="no"?>
<!-- Created with Inkscape (http://www.inkscape.org/) -->
<svg id="svg7384" xmlns:rdf="http://www.w3.org/1999/02/22-rdf-syntax-ns#" xmlns="http://www.w3.org/2000/svg" height="16" width="16" version="1.1" xmlns:cc="http://creativecommons.org/ns#" xmlns:dc="http://purl.org/dc/elements/1.1/">
 <metadata id="metadata90">
  <rdf:RDF>
   <cc:Work rdf:about="">
    <dc:format>image/svg+xml</dc:format>
    <dc:type rdf:resource="http://purl.org/dc/dcmitype/StillImage"/>
    <dc:title>Gnome Symbolic Icon Theme</dc:title>
   </cc:Work>
  </rdf:RDF>
 </metadata>
 <title id="title9167">Gnome Symbolic Icon Theme</title>
 <g id="layer9" transform="translate(-261,-277)">
  <path id="path5094-5-04-4-6-4-1-4" style="color:#000000;fill:#bebebe" d="m270.51 277.04c-1.273 0-2.307 0.9731-2.448 2.219-0.32401-0.12209-0.65635-0.21877-1.0226-0.21877-1.6429 0-2.9748 1.3433-2.9748 3.0003 0 0.0982 0.0219 0.18552 0.0309 0.28128-0.29709-0.17926-0.65102-0.28128-1.0225-0.28128-1.0953 0-1.9832 0.89552-1.9832 2.0002s0.88791 2.0002 1.9832 2.0002h4.989v-1.5001c-0.0163-0.7855 0.67759-1.5151 1.4564-1.5314 0.79948-0.0169 1.5351 0.72507 1.5184 1.5314v1.5001h4.4312c0.82146 0 1.4874-0.67163 1.4874-1.5001 0-0.82851-0.66593-1.5001-1.4874-1.5001-0.20538 0-0.41082 0.0491-0.58878 0.12501 0.0521-0.20196 0.0929-0.40662 0.0929-0.62506 0-1.2295-0.88584-2.2284-2.0452-2.4377 0.0416-0.18137 0.062-0.36846 0.062-0.56255 0-1.3808-1.1099-2.5002-2.479-2.5002z"/>
  <path id="path1891-5-8-3" style="block-progression:tb;text-indent:0;color:#000000;enable-background:new;text-transform:none;fill:#bebebe" d="m269.41 283.94a0.49935 0.49935 0 0 0 -0.40625 0.5v2.5h-2.4688-0.5v0.5 1.5h-1.5-0.21875l-0.15625 0.15625-1.9688 2a0.49935 0.49935 0 1 0 0.6875 0.6875l1.8438-1.8438h1.3125v2.5a0.5 0.5 0 0 0 1 0v-2.9375a0.49935 0.49935 0 0 0 0 -0.125v-1.4375h1.9688v0.5 0.21875l0.15625 0.125 1.8438 1.8438v1.8125a0.5 0.5 0 0 0 1 0v-1.5h1.3125l1.8125 1.8438a0.49935 0.49935 0 1 0 0.71875 -0.6875l-2-2-0.125-0.15625h-0.21875-1.8125l-1.6875-1.7188v-0.625a0.49935 0.49935 0 0 0 0 -0.3125v-2.8438a0.49935 0.49935 0 0 0 -0.59375 -0.5z"/>
 </g>
</svg>
