<?xml version="1.0" encoding="UTF-8" standalone="no"?>
<!-- Created with Inkscape (http://www.inkscape.org/) -->
<svg id="svg2" height="22" xmlns:dc="http://purl.org/dc/elements/1.1/" width="22" version="1.0" xmlns:xlink="http://www.w3.org/1999/xlink" xmlns:cc="http://web.resource.org/cc/" xmlns:rdf="http://www.w3.org/1999/02/22-rdf-syntax-ns#" xmlns="http://www.w3.org/2000/svg">
 <defs id="defs3">
  <linearGradient id="linearGradient6097" y2="35.69" gradientUnits="userSpaceOnUse" x2="47.002" y1="35.895" x1="10.602">
   <stop id="stop6093" style="stop-color:#888a85" offset="0"/>
   <stop id="stop6095" style="stop-color:#81837e;stop-opacity:.98649" offset="1"/>
  </linearGradient>
  <linearGradient id="linearGradient6111" y2="41" gradientUnits="userSpaceOnUse" x2="23.734" gradientTransform="matrix(.45663 0 0 .45780 -.098206 -.19508)" y1="41" x1="15.552">
   <stop id="stop6107" style="stop-color:#fff;stop-opacity:0" offset="0"/>
   <stop id="stop6113" style="stop-color:#fff" offset=".45210"/>
   <stop id="stop6109" style="stop-color:#fff;stop-opacity:0" offset="1"/>
  </linearGradient>
  <radialGradient id="radialGradient6123" gradientUnits="userSpaceOnUse" cy="25.766" cx="26.927" r="19.162">
   <stop id="stop6119" offset="0"/>
   <stop id="stop6121" style="stop-opacity:0" offset="1"/>
  </radialGradient>
  <radialGradient id="radialGradient6290" gradientUnits="userSpaceOnUse" cy="18.915" cx="17.832" gradientTransform="matrix(.22354 0 0 .12455 4.929 8.3181)" r="19.736">
   <stop id="stop6306" style="stop-color:#eeeeec" offset="0"/>
   <stop id="stop6308" style="stop-color:#80827d" offset="1"/>
  </radialGradient>
  <linearGradient id="linearGradient6302" y2="32.737" gradientUnits="userSpaceOnUse" x2="28.763" gradientTransform="matrix(.48066 0 0 .49343 -.18759 -2.8161)" y1="42.346" x1="34.826">
   <stop id="stop6298" style="stop-color:#fff" offset="0"/>
   <stop id="stop6300" style="stop-color:#fff;stop-opacity:0" offset="1"/>
  </linearGradient>
  <radialGradient id="radialGradient6066" gradientUnits="userSpaceOnUse" cy="32.705" cx="29.923" gradientTransform="matrix(1.0244 0 0 1.0143 -.50927 .68571)" r="19.736">
   <stop id="stop3746" style="stop-color:#888a85" offset="0"/>
   <stop id="stop3748" style="stop-color:#2e3436" offset="1"/>
  </radialGradient>
 </defs>
 <metadata id="metadata6">
  <rdf:RDF>
   <cc:Work rdf:about="">
    <dc:format>image/svg+xml</dc:format>
    <dc:type rdf:resource="http://purl.org/dc/dcmitype/StillImage"/>
    <dc:title>Sound CC applet</dc:title>
    <dc:date>17.02.2007</dc:date>
    <dc:creator>
     <cc:Agent>
      <dc:title>Josef vybíral</dc:title>
     </cc:Agent>
    </dc:creator>
    <dc:rights>
     <cc:Agent>
      <dc:title>Josef vybíral</dc:title>
     </cc:Agent>
    </dc:rights>
    <dc:identifier>http://blog.vybiral.info</dc:identifier>
    <dc:source>http://blog.vybiral.info</dc:source>
    <dc:coverage>sound, reproductor, note</dc:coverage>
    <cc:license rdf:resource="http://creativecommons.org/licenses/GPL/2.0/"/>
   </cc:Work>
   <cc:License rdf:about="http://creativecommons.org/licenses/GPL/2.0/">
    <cc:permits rdf:resource="http://web.resource.org/cc/Reproduction"/>
    <cc:permits rdf:resource="http://web.resource.org/cc/Distribution"/>
    <cc:requires rdf:resource="http://web.resource.org/cc/Notice"/>
    <cc:permits rdf:resource="http://web.resource.org/cc/DerivativeWorks"/>
    <cc:requires rdf:resource="http://web.resource.org/cc/ShareAlike"/>
    <cc:requires rdf:resource="http://web.resource.org/cc/SourceCode"/>
   </cc:License>
  </rdf:RDF>
 </metadata>
 <g id="layer1">
  <path id="path6115" style="opacity:.78166;fill-rule:evenodd;color:#000000;fill:url(#radialGradient6123)" d="m46.089 25.766a19.162 19.162 0 1 1 -38.323 0 19.162 19.162 0 1 1 38.323 0z" transform="matrix(.52187 0 0 .39140 -3.0527 4.4149)"/>
  <path id="path6051" style="stroke-width:4.613;fill-rule:evenodd;color:#000000;stroke:#2e3436;stroke-linecap:round;fill:url(#linearGradient6097)" d="m46.089 25.766a19.162 19.162 0 1 1 -38.323 0 19.162 19.162 0 1 1 38.323 0z" transform="matrix(.28703 0 0 .16372 3.271 13.144)"/>
  <path id="path6099" style="stroke-width:5.8207;stroke-opacity:.35586;color:#000000;stroke:#fff;stroke-linecap:round;fill:none" d="m46.089 25.766a19.162 19.162 0 1 1 -38.323 0 19.162 19.162 0 1 1 38.323 0z" transform="matrix(.23484 0 0 .12568 4.6763 13.853)"/>
  <path id="path6103" style="opacity:.56769;fill:url(#linearGradient6111);fill-rule:evenodd" d="m6.5541 18.117s1.1104 1.831 4.3069 1.831v-2.747h-4.2965l-0.0104 0.916z"/>
  <path id="path6011" style="stroke-width:2.1642;fill-rule:evenodd;color:#000000;stroke:#2e3436;stroke-linecap:round;fill:#555753" d="m46.089 25.766a19.162 19.162 0 1 1 -38.323 0 19.162 19.162 0 1 1 38.323 0z" transform="matrix(.49578 0 0 .43063 -2.3501 -1.3442)"/>
  <path id="path6013" style="stroke-width:2.198;fill-rule:evenodd;color:#000000;stroke:#2e3436;stroke-linecap:round;fill:url(#radialGradient6066)" d="m46.089 25.766a19.162 19.162 0 1 1 -38.323 0 19.162 19.162 0 1 1 38.323 0z" transform="matrix(.49578 0 0 .41750 -2.3501 -1.2574)"/>
  <path id="path6015" style="stroke-width:2.4841;stroke-opacity:.35676;color:#000000;stroke:#fff;stroke-linecap:round;fill:none" d="m46.089 25.766a19.162 19.162 0 1 1 -38.323 0 19.162 19.162 0 1 1 38.323 0z" transform="matrix(.44359 0 0 .36531 -.94479 .087242)"/>
  <path id="path6039" style="fill:url(#linearGradient6302);fill-rule:evenodd" d="m8 16.427c2.509 1.312 10.382 0.755 11.83-5.849 0 0-3.463 7.132-11.83 5.849z"/>
  <path id="path6055" style="stroke-opacity:.26577;color:#000000;stroke:#fff;stroke-linecap:round;fill:none" d="m14.5 12.076c0 1.242-1.554 2.424-3.246 2.424-1.6916 0-2.754-1.008-2.754-2.25s1.3732-2.75 3.065-2.75c1.692 0 2.935 1.334 2.935 2.576z"/>
  <path id="path6047" style="fill-rule:evenodd;color:#000000;stroke:#2e3436;stroke-linecap:round;fill:url(#radialGradient6290)" d="m14.5 11.7c0 0.994-1.54 1.8-3.437 1.8-1.8967 0-3.4363-0.806-3.4363-1.8s1.5396-2.2 3.4363-2.2c1.897 0 3.437 1.206 3.437 2.2z"/>
  <g id="g6029" transform="matrix(.66609 0 0 .66783 .88044 .46964)">
   <path id="path5052" style="stroke:#ce5c00;stroke-linecap:round;stroke-width:4.498;fill:none" d="m29.5 8.6499v-7.1563"/>
   <path id="path6023" style="stroke:#ce5c00;stroke-linecap:round;stroke-width:4.498;fill:none" d="m18.946 7.5049v-5.9378"/>
   <path id="path6025" style="stroke-width:4.498;color:#000000;stroke:#ce5c00;stroke-linecap:round;fill:none" d="m18.946 1.5723l10.554-0.0723"/>
   <path id="path6125" style="stroke-width:1.4066;fill-rule:evenodd;color:#000000;stroke:#ce5c00;stroke-linecap:round;fill:#f57900" d="m35.741 17.284a3.9211 1.8831 0 1 1 -7.842 0 3.9211 1.8831 0 1 1 7.842 0z" transform="matrix(.95719 0 0 1.187 -13.764 -10.748)"/>
   <path id="path6127" style="stroke-width:1.4032;fill-rule:evenodd;color:#000000;stroke:#ce5c00;stroke-linecap:round;fill:#f57900" d="m35.741 17.284a3.9211 1.8831 0 1 1 -7.842 0 3.9211 1.8831 0 1 1 7.842 0z" transform="matrix(.95720 0 0 1.1928 -3.2548 -10.838)"/>
   <path id="path6163" style="stroke:#f57900;stroke-linecap:round;stroke-width:1.4993;fill:none" d="m18.946 9.0298v-8.0968"/>
   <path id="path6165" style="stroke:#f57900;stroke-linecap:round;stroke-width:1.4993;fill:none" d="m29.5 9.5968v-8.0968"/>
   <path id="path6167" style="stroke:#f57900;stroke-linecap:round;stroke-width:1.4993;fill:none" d="m19.5 1.5798l10-0.0798"/>
   <path id="path6188" style="stroke-width:3.1376;stroke-opacity:.32883;color:#000000;stroke:#fff;stroke-linecap:round;fill:none" d="m35.741 17.284a3.9211 1.8831 0 1 1 -7.842 0 3.9211 1.8831 0 1 1 7.842 0z" transform="matrix(.57432 0 0 .39759 -1.5809 2.9064)"/>
   <path id="path6190" style="stroke-width:3.1376;stroke-opacity:.32883;color:#000000;stroke:#fff;stroke-linecap:round;fill:none" d="m35.741 17.284a3.9211 1.8831 0 1 1 -7.842 0 3.9211 1.8831 0 1 1 7.842 0z" transform="matrix(.57432 0 0 .39759 8.9282 2.9064)"/>
   <path id="path6192" style="stroke-width:1.4993;stroke-opacity:.32883;color:#000000;stroke:#fff;stroke-linecap:round;fill:none" d="m18.946 1.5723l10.554-0.0723"/>
   <path id="path6212" style="stroke-width:1.4993;stroke-opacity:.32883;color:#000000;stroke:#fff;stroke-linecap:round;fill:none" d="m18.946 9.0298v-8.0532"/>
   <path id="path6214" style="stroke-width:1.4993;stroke-opacity:.32883;color:#000000;stroke:#fff;stroke-linecap:round;fill:none" d="m29.455 9.0774v-7.5821"/>
  </g>
  <path id="path6206" style="fill-rule:evenodd;color:#000000;fill:#eee" d="m46.089 25.766a19.162 19.162 0 1 1 -38.323 0 19.162 19.162 0 1 1 38.323 0z" transform="matrix(.035745 0 0 .021135 9.7317 9.7989)"/>
  <path id="path6208" style="fill-rule:evenodd;color:#000000;fill:#eee" d="m46.089 25.766a19.162 19.162 0 1 1 -38.323 0 19.162 19.162 0 1 1 38.323 0z" transform="matrix(.053289 0 0 .035581 8.2339 10.513)"/>
 </g>
</svg>
