<?xml version="1.0" encoding="UTF-8" standalone="no"?>
<!-- Generator: Adobe Illustrator 9.0, SVG Export Plug-In  -->
<svg id="svg2" xmlns:rdf="http://www.w3.org/1999/02/22-rdf-syntax-ns#" xmlns="http://www.w3.org/2000/svg" xml:space="preserve" height="48px" width="48px" xmlns:cc="http://creativecommons.org/ns#" xmlns:dc="http://purl.org/dc/elements/1.1/" viewBox="0 0 48 48"><metadata id="metadata19"><rdf:RDF><cc:Work rdf:about=""><dc:format>image/svg+xml</dc:format><dc:type rdf:resource="http://purl.org/dc/dcmitype/StillImage"/><dc:title>Text Generic Template</dc:title><dc:creator><cc:Agent><dc:title>Luca Ferretti &lt;elle.uca@libero.it&gt;</dc:title></cc:Agent></dc:creator><cc:license rdf:resource=""/><dc:date>December 2008</dc:date><dc:contributor><cc:Agent><dc:title>Based on text-x-generic</dc:title></cc:Agent></dc:contributor></cc:Work></rdf:RDF></metadata>
	<rect id="rect3319" style="fill:none" height="48" width="48" y="0" x="0"/><path id="path4775" style="stroke-linejoin:round;stroke:#fff;stroke-width:12;fill:#fff" d="m39 41h-30v-35h21l9 10v4.679 20.321z"/><path id="path7" style="stroke-linejoin:round;stroke:#000;stroke-width:4" d="m39 41h-30v-35h21l9 10v25z"/><path id="path9" style="fill:#fff" d="m37 16l-0.003 23.004-25.997-0.004 0.017-30.982 17.983-0.018 8 8z"/>
<path id="path2385" style="stroke:#000;stroke-linecap:round;stroke-width:4;fill:none" d="m24 12v4"/><path id="path3157" style="stroke:#000;stroke-linecap:round;stroke-width:4;fill:none" d="m24 22v4"/><path id="path3159" style="stroke:#000;stroke-linecap:round;stroke-width:4;fill:none" d="m24 32v4"/><path id="path3161" style="stroke:#000;stroke-linecap:round;stroke-width:4;fill:none" d="m19 16.969l-2 3"/><path id="path3163" style="stroke:#000;stroke-linecap:round;stroke-width:4;fill:none" d="m29 17l2 3"/><path id="path3165" style="stroke:#000;stroke-linecap:round;stroke-width:4;fill:none" d="m35 25l2 3"/><path id="path3167" style="stroke:#000;stroke-linecap:round;stroke-width:4;fill:none" d="m13 25l-2 3"/></svg>
