<?xml version="1.0" encoding="UTF-8" standalone="no"?>
<!-- Created with Inkscape (http://www.inkscape.org/) -->
<svg id="svg2160" xmlns:rdf="http://www.w3.org/1999/02/22-rdf-syntax-ns#" xmlns="http://www.w3.org/2000/svg" height="48px" width="48px" xmlns:cc="http://web.resource.org/cc/" xmlns:xlink="http://www.w3.org/1999/xlink" xmlns:dc="http://purl.org/dc/elements/1.1/">
 <metadata id="metadata2165">
  <rdf:RDF>
   <cc:Work rdf:about="">
    <dc:format>image/svg+xml</dc:format>
    <dc:type rdf:resource="http://purl.org/dc/dcmitype/StillImage"/>
    <cc:license rdf:resource="http://creativecommons.org/licenses/LGPL/2.1/"/>
    <dc:title>Generic Video File</dc:title>
    <dc:creator>
     <cc:Agent>
      <dc:title>Luca Ferretti &lt;elle.uca@libero.it&gt;</dc:title>
     </cc:Agent>
    </dc:creator>
    <dc:subject>
     <rdf:Bag>
      <rdf:li>video</rdf:li>
      <rdf:li>movie</rdf:li>
      <rdf:li>file</rdf:li>
     </rdf:Bag>
    </dc:subject>
    <dc:coverage>A generic icon for video files</dc:coverage>
   </cc:Work>
   <cc:License rdf:about="http://creativecommons.org/licenses/LGPL/2.1/">
    <cc:permits rdf:resource="http://web.resource.org/cc/Reproduction"/>
    <cc:permits rdf:resource="http://web.resource.org/cc/Distribution"/>
    <cc:requires rdf:resource="http://web.resource.org/cc/Notice"/>
    <cc:permits rdf:resource="http://web.resource.org/cc/DerivativeWorks"/>
    <cc:requires rdf:resource="http://web.resource.org/cc/ShareAlike"/>
    <cc:requires rdf:resource="http://web.resource.org/cc/SourceCode"/>
   </cc:License>
  </rdf:RDF>
 </metadata>
 <g id="layer1">
  <rect id="rect2192" style="fill:none" height="48" width="48" y="0" x="0"/>
  <rect id="rect4142" style="stroke-linejoin:round;stroke:#fff;stroke-linecap:round;stroke-width:7.9854;fill:#fff" transform="rotate(-90)" height="33.995" width="38.002" y="6.9985" x="-43.002"/>
  <rect id="rect2176" transform="rotate(-90)" height="34" width="38" y="7" x="-43"/>
  <rect id="rect5113" style="fill:#fff" transform="rotate(-90)" ry=".86188" height="2.9088" width="3.9061" y="9.0166" x="-41.039"/>
  <use id="use6084" xlink:href="#rect5113" transform="translate(-.016575 -6.0394)" height="48" width="48" y="0" x="0"/>
  <use id="use6086" xlink:href="#rect5113" transform="translate(-.016575 -12.039)" height="48" width="48" y="0" x="0"/>
  <use id="use6090" xlink:href="#rect5113" transform="translate(-.016575 -18.039)" height="48" width="48" y="0" x="0"/>
  <use id="use6092" xlink:href="#rect5113" transform="translate(-.016575 -24.133)" height="48" width="48" y="0" x="0"/>
  <use id="use6094" xlink:href="#rect5113" transform="translate(-.016575 -30.133)" height="48" width="48" y="0" x="0"/>
  <use id="use6098" xlink:href="#rect5113" transform="translate(27.075 -.039413)" height="48" width="48" y="0" x="0"/>
  <use id="use6100" xlink:href="#rect5113" transform="translate(26.983 -6.0394)" height="48" width="48" y="0" x="0"/>
  <use id="use6102" xlink:href="#rect5113" transform="translate(26.983 -12.039)" height="48" width="48" y="0" x="0"/>
  <use id="use6104" xlink:href="#rect5113" transform="translate(27.075 -18.133)" height="48" width="48" y="0" x="0"/>
  <use id="use6106" xlink:href="#rect5113" transform="translate(27.075 -24.133)" height="48" width="48" y="0" x="0"/>
  <use id="use6108" xlink:href="#rect5113" transform="translate(26.983 -30.133)" height="48" width="48" y="0" x="0"/>
  <rect id="rect2188" style="fill:#fff" rx="1.4733" ry="1.547" height="14.933" width="20" y="26" x="14"/>
  <rect id="rect2190" style="fill:#fff" rx="1.4733" ry="1.547" height="14.933" width="20" y="7.0667" x="14"/>
 </g>
</svg>
