<?xml version="1.0" encoding="UTF-8" standalone="no"?>
<!-- Created with Inkscape (http://www.inkscape.org/) -->
<svg id="svg2" xmlns:rdf="http://www.w3.org/1999/02/22-rdf-syntax-ns#" xmlns="http://www.w3.org/2000/svg" height="48" width="48" version="1.0" xmlns:cc="http://creativecommons.org/ns#" xmlns:dc="http://purl.org/dc/elements/1.1/">
 <metadata id="metadata7">
  <rdf:RDF>
   <cc:Work rdf:about="">
    <dc:format>image/svg+xml</dc:format>
    <dc:type rdf:resource="http://purl.org/dc/dcmitype/StillImage"/>
    <dc:title>Office Address Book</dc:title>
    <dc:date>December 2008</dc:date>
    <dc:creator>
     <cc:Agent>
      <dc:title>Luca Ferretti &lt;elle.uca@libero.it&gt;</dc:title>
     </cc:Agent>
    </dc:creator>
    <dc:subject>
     <rdf:Bag>
      <rdf:li>address book</rdf:li>
      <rdf:li>contacts</rdf:li>
      <rdf:li>people</rdf:li>
     </rdf:Bag>
    </dc:subject>
   </cc:Work>
  </rdf:RDF>
 </metadata>
 <g id="layer1">
  <rect id="rect3171" style="fill:none" height="48" width="48" y="0" x="0"/>
  <path id="path3169" style="stroke-linejoin:round;fill-rule:evenodd;stroke:#fff;stroke-linecap:round;stroke-width:12;fill:#fff" d="m6 9v30c0 3 3 3 3 3h22l11-3v-23-10h-33s-3 0-3 3z"/>
  <path id="path2385" style="stroke-linejoin:round;fill-rule:evenodd;stroke:#000;stroke-linecap:round;stroke-width:4;fill:#fff" d="m6 9v30c0 3 3 3 3 3h23l10-3v-23-10h-33s-3 0-3 3z"/>
  <path id="path3163" d="m24 18a6 6 0 1 1 -12 0 6 6 0 1 1 12 0z" transform="translate(1 1)"/>
  <path id="path3165" d="m18.5 36.776a8 13.753 0 1 1 16 0.098" transform="matrix(1 0 0 .79283 -7.5 3.7649)"/>
  <path id="path3167" style="fill:#fff;fill-rule:evenodd" d="m15.106 23.374s4 3.376 8 0l-4 5.626-4-5.626"/>
  <path id="path2387" style="stroke-linejoin:round;stroke:#000;stroke-linecap:round;stroke-width:3;fill:none" d="m40.5 14.5l-9 3v24"/>
  <path id="path3161" style="stroke-linejoin:round;stroke:#000;stroke-linecap:round;stroke-width:3;fill:none" d="m41.5 26.5l-9 3"/>
 </g>
</svg>
