<?xml version="1.0" encoding="UTF-8" standalone="no"?>
<!-- Created with Inkscape (http://www.inkscape.org/) -->
<svg id="svg1328" xmlns="http://www.w3.org/2000/svg" height="48" width="48" version="1.0" xmlns:xlink="http://www.w3.org/1999/xlink">
 <defs id="defs3">
  <linearGradient id="linearGradient3233">
   <stop id="stop3235" style="stop-color:#eeeeec" offset="0"/>
   <stop id="stop3237" style="stop-color:#a3a398" offset="1"/>
  </linearGradient>
  <linearGradient id="linearGradient4126">
   <stop id="stop4128" offset="0"/>
   <stop id="stop4130" style="stop-opacity:0" offset="1"/>
  </linearGradient>
  <radialGradient id="radialGradient4132" xlink:href="#linearGradient4126" gradientUnits="userSpaceOnUse" cy="40" cx="23.857" gradientTransform="matrix(1 0 0 .5 0 20)" r="17.143"/>
  <linearGradient id="linearGradient4140" y2="26.719" gradientUnits="userSpaceOnUse" x2="38.826" gradientTransform="matrix(1.0109 0 0 .99135 -.25209 -3.7718)" y1="26.719" x1="9.3031">
   <stop id="stop4136" style="stop-color:#d6d7d5" offset="0"/>
   <stop id="stop4148" style="stop-color:#d1d2d0" offset=".25"/>
   <stop id="stop4142" style="stop-color:#a5a6a3" offset=".5"/>
   <stop id="stop4138" style="stop-color:#dddedc" offset="1"/>
  </linearGradient>
  <linearGradient id="linearGradient4182" y2="56.576" gradientUnits="userSpaceOnUse" x2="37.969" gradientTransform="matrix(1.0109 0 0 .99276 -.25209 -3.778)" y1="14.004" x1="17.16">
   <stop id="stop4178" style="stop-color:#fff" offset="0"/>
   <stop id="stop4180" style="stop-color:#fff;stop-opacity:0" offset="1"/>
  </linearGradient>
  <linearGradient id="linearGradient6930" y2="31.75" gradientUnits="userSpaceOnUse" x2="16.036" gradientTransform="matrix(1.0109 0 0 1 -.25209 -1.2731)" y1="19.5" x1="16.071">
   <stop id="stop6926" style="stop-color:#fff" offset="0"/>
   <stop id="stop6928" style="stop-color:#fff;stop-opacity:0" offset="1"/>
  </linearGradient>
  <linearGradient id="linearGradient3239" y2="8.0477" xlink:href="#linearGradient3233" gradientUnits="userSpaceOnUse" x2="23.434" y1="17.246" x1="24"/>
  <linearGradient id="linearGradient3253" y2="29.918" gradientUnits="userSpaceOnUse" x2="34.244" gradientTransform="matrix(1.0109 0 0 1 -.25209 -2.1302)" y1="17.695" x1="34.244">
   <stop id="stop3249" style="stop-color:#f0f0f0" offset="0"/>
   <stop id="stop3251" style="stop-color:#f0f0f0;stop-opacity:0" offset="1"/>
  </linearGradient>
  <linearGradient id="linearGradient3811" y2="32.489" gradientUnits="userSpaceOnUse" x2="32.397" gradientTransform="matrix(1.0109 0 0 1 -.25209 -2.1302)" y1="32.489" x1="11.003">
   <stop id="stop3807" style="stop-color:#284e7f" offset="0"/>
   <stop id="stop3813" style="stop-color:#6694cf" offset=".5"/>
   <stop id="stop3809" style="stop-color:#234570" offset="1"/>
  </linearGradient>
  <linearGradient id="linearGradient3821" y2="20.118" gradientUnits="userSpaceOnUse" x2="25.573" y1="11.17" x1="25.698">
   <stop id="stop3817" style="stop-color:#204a87" offset="0"/>
   <stop id="stop3819" style="stop-color:#98b8e7" offset="1"/>
  </linearGradient>
  <linearGradient id="linearGradient3266" y2="5.5617" gradientUnits="userSpaceOnUse" x2="21.756" y1="25.114" x1="21.487">
   <stop id="stop3262" style="stop-color:#3465a4" offset="0"/>
   <stop id="stop3264" style="stop-color:#8fb1dc" offset="1"/>
  </linearGradient>
 </defs>
 <g id="layer1">
  <path id="path3366" style="color:#000000;display:block;fill:url(#radialGradient4132)" d="m41 40a17.143 8.5714 0 1 1 -34.286 0 17.143 8.5714 0 1 1 34.286 0z" transform="matrix(1.05 0 0 1.1667 -1.05 -13.667)"/>
  <path id="path3068" style="color:#000000;stroke:#767973;stroke-miterlimit:10;display:block;fill:url(#linearGradient4140)" d="m23.947 5.0574c-7.945 0-14.406 2.7783-14.406 6.1956 0.0002 0.246 0.0002 22.67 0.0002 22.925 0 3.418 6.4608 6.196 14.406 6.196 7.945 0 14.663-2.778 14.663-6.196v-22.925c0-3.4173-6.718-6.1956-14.663-6.1956z"/>
  <path id="path4174" style="opacity:.54430;color:#000000;stroke:url(#linearGradient4182);stroke-miterlimit:10;display:block;fill:none" d="m23.956 5.8374c-7.408 0-13.432 2.594-13.432 5.7846v21.966c0 3.191 6.024 5.785 13.432 5.785 7.407 0 13.671-2.594 13.671-5.785v-21.966c0-3.1906-6.264-5.7846-13.671-5.7846z"/>
  <path id="path3245" style="color:#000000;display:block;fill:url(#linearGradient3253)" d="m36 9.5548c-1.121-0.9851-2.069-1.285-3.064-1.7678l0.307 18.688 2.757 3.232v-20.152z"/>
  <path id="path3275" style="opacity:.79121;color:#000000;stroke:#204a87;stroke-miterlimit:10;stroke-width:.99622;display:block;fill:url(#linearGradient3811)" d="m23.371 7.391c-6.676 0.1347-11.996 2.34-11.996 5.028v20.882c0 2.775 5.64 5.028 12.618 5.028s12.648-2.253 12.648-5.028v-20.882c0-2.7748-5.67-5.028-12.648-5.028-0.218 0-0.406-0.0043-0.622 0z"/>
  <path id="path3277" style="color:#000000;stroke:url(#linearGradient3821);stroke-miterlimit:10;stroke-width:1.0838;display:block;fill:url(#linearGradient3266)" d="m36.857 14.071a12.857 5.5 0 1 1 -25.714 0 12.857 5.5 0 1 1 25.714 0z" transform="matrix(.98322 0 0 .86586 .4098 -.55003)"/>
  <path id="path3364" style="opacity:.46703;color:#000000;stroke:url(#linearGradient3239);stroke-miterlimit:10;stroke-width:.99443;display:block;fill:#f0f0f0" d="m36.857 14.071a12.857 5.5 0 1 1 -25.714 0 12.857 5.5 0 1 1 25.714 0z" transform="matrix(1.0486 0 0 .96434 -1.1568 -2.4856)"/>
  <path id="path6944" style="opacity:.30769;color:#000000;display:block;fill:url(#radialGradient4132)" d="m41 40a17.143 8.5714 0 1 1 -34.286 0 17.143 8.5714 0 1 1 34.286 0z" transform="matrix(.36740 0 0 .36343 15.012 -6.7825)"/>
  <path id="path3362" style="color:#000000;stroke:#7d7f7a;stroke-miterlimit:10;display:block;fill:#9d9e9b" d="m24.101 3.5548c-2.025 0-4.682 0.7141-4.682 1.5926v2.6297c0 0.8785 2.657 1.5927 4.682 1.5927 2.024 0 4.458-0.7142 4.458-1.5927v-2.6297c0-0.8785-2.434-1.5926-4.458-1.5926z"/>
  <path id="path6922" style="opacity:.58242;color:#000000;display:block;fill:url(#linearGradient6930)" d="m13.684 15.798l0.361 16.786 4.622 1.286-0.145-16.715s1.96-0.088 5.354-0.302c-6.568-0.05-10.859-1.578-13.225-3.84 1.433 2.092 3.033 2.785 3.033 2.785z"/>
  <path id="path6940" style="color:#000000;display:block;stroke:url(#linearGradient3239);stroke-miterlimit:10;stroke-width:4.3511;fill:#d3d7cf" d="m36.857 14.071a12.857 5.5 0 1 1 -25.714 0 12.857 5.5 0 1 1 25.714 0z" transform="matrix(.27495 0 0 .19211 17.408 2.7232)"/>
 </g>
</svg>
