<?xml version="1.0" encoding="UTF-8" standalone="no"?>
<!-- Created with Inkscape (http://www.inkscape.org/) -->
<svg id="svg1328" xmlns="http://www.w3.org/2000/svg" height="48" width="48" version="1.0" xmlns:xlink="http://www.w3.org/1999/xlink">
 <defs id="defs3">
  <linearGradient id="linearGradient3233">
   <stop id="stop3235" style="stop-color:#eeeeec" offset="0"/>
   <stop id="stop3237" style="stop-color:#a3a398" offset="1"/>
  </linearGradient>
  <linearGradient id="linearGradient4126">
   <stop id="stop4128" offset="0"/>
   <stop id="stop4130" style="stop-opacity:0" offset="1"/>
  </linearGradient>
  <radialGradient id="radialGradient4132" xlink:href="#linearGradient4126" gradientUnits="userSpaceOnUse" cy="40" cx="23.857" gradientTransform="matrix(1 0 0 .5 0 20)" r="17.143"/>
  <linearGradient id="linearGradient4140" y2="26.719" gradientUnits="userSpaceOnUse" x2="38.826" gradientTransform="matrix(1.0108 0 0 .99135 -.18302 -3.7652)" y1="26.719" x1="9.3031">
   <stop id="stop4136" style="stop-color:#d6d7d5" offset="0"/>
   <stop id="stop4148" style="stop-color:#d1d2d0" offset=".25"/>
   <stop id="stop4142" style="stop-color:#a5a6a3" offset=".5"/>
   <stop id="stop4138" style="stop-color:#dddedc" offset="1"/>
  </linearGradient>
  <linearGradient id="linearGradient4182" y2="56.576" gradientUnits="userSpaceOnUse" x2="37.969" gradientTransform="matrix(1.0108 0 0 .99276 -.18302 -3.7714)" y1="14.004" x1="17.16">
   <stop id="stop4178" style="stop-color:#fff" offset="0"/>
   <stop id="stop4180" style="stop-color:#fff;stop-opacity:0" offset="1"/>
  </linearGradient>
  <linearGradient id="linearGradient6930" y2="31.75" gradientUnits="userSpaceOnUse" x2="16.036" gradientTransform="matrix(1.0108 0 0 1 -.18302 -1.2665)" y1="19.5" x1="16.071">
   <stop id="stop6926" style="stop-color:#fff" offset="0"/>
   <stop id="stop6928" style="stop-color:#fff;stop-opacity:0" offset="1"/>
  </linearGradient>
  <linearGradient id="linearGradient3243" y2="8.0477" xlink:href="#linearGradient3233" gradientUnits="userSpaceOnUse" x2="23.434" y1="17.246" x1="24"/>
  <linearGradient id="linearGradient3253" y2="29.918" gradientUnits="userSpaceOnUse" x2="34.244" gradientTransform="matrix(1.0108 0 0 1 -.18302 -2.1237)" y1="17.695" x1="34.244">
   <stop id="stop3249" style="stop-color:#f0f0f0" offset="0"/>
   <stop id="stop3251" style="stop-color:#f0f0f0;stop-opacity:0" offset="1"/>
  </linearGradient>
  <linearGradient id="linearGradient4501" y2="33.489" gradientUnits="userSpaceOnUse" x2="30.452" gradientTransform="matrix(1.0108 0 0 1 -.20045 -2.0212)" y1="33.489" x1="11.003">
   <stop id="stop3340" style="stop-color:#c00" offset="0"/>
   <stop id="stop3346" style="stop-color:#ff5858" offset=".5"/>
   <stop id="stop3342" style="stop-color:#c00" offset="1"/>
  </linearGradient>
  <linearGradient id="linearGradient4518" y2="8.0244" gradientUnits="userSpaceOnUse" x2="24" y1="18.133" x1="24">
   <stop id="stop3350" style="stop-color:#ff4949" offset="0"/>
   <stop id="stop3352" style="stop-color:#ffb1b1" offset="1"/>
  </linearGradient>
  <linearGradient id="linearGradient4520" y2="20.118" gradientUnits="userSpaceOnUse" x2="24" y1="10.397" x1="24">
   <stop id="stop3358" style="stop-color:#ff4141" offset="0"/>
   <stop id="stop3360" style="stop-color:#ff9d9d" offset="1"/>
  </linearGradient>
 </defs>
 <g id="layer1">
  <path id="path3366" style="color:#000000;display:block;fill:url(#radialGradient4132)" d="m41 40a17.143 8.5714 0 1 1 -34.286 0 17.143 8.5714 0 1 1 34.286 0z" transform="matrix(1.05 0 0 1.183 -1.0126 -14.397)"/>
  <path id="path3068" style="color:#000000;stroke:#767973;stroke-miterlimit:10;display:block;fill:url(#linearGradient4140)" d="m24.012 5.064c-7.944 0-14.403 2.7782-14.403 6.196-0.0003 0.245-0.0003 22.669-0.0003 22.925 0 3.417 6.4593 6.196 14.403 6.196 7.944 0 14.66-2.779 14.66-6.196v-22.925c0-3.4178-6.716-6.196-14.66-6.196z"/>
  <path id="path3241" style="opacity:.23626;color:#000000;stroke:url(#linearGradient3243);stroke-miterlimit:10;stroke-width:.99090;display:block;fill:#d3d7cf" d="m36.857 14.071a12.857 5.5 0 1 1 -25.714 0 12.857 5.5 0 1 1 25.714 0z" transform="matrix(1.0484 0 0 .97139 -.88342 20.495)"/>
  <path id="path4174" style="opacity:.54430;color:#000000;stroke:url(#linearGradient4182);stroke-miterlimit:10;display:block;fill:none" d="m24.021 5.844c-7.407 0-13.429 2.594-13.429 5.785v21.966c0 3.191 6.022 5.785 13.429 5.785 7.406 0 13.668-2.594 13.668-5.785v-21.966c0-3.191-6.262-5.785-13.668-5.785z"/>
  <path id="path4432" style="opacity:.61538;color:#000000;stroke:#a40000;stroke-miterlimit:10;stroke-width:.99622;display:block;fill:url(#linearGradient4501)" d="m23.419 26.5c-6.675 0.135-11.995 2.34-11.995 5.028v1.882c0 2.775 5.64 5.028 12.617 5.028s12.646-2.253 12.646-5.028v-1.882c0-2.775-5.669-5.028-12.646-5.028-0.218 0-0.407-0.004-0.622 0z"/>
  <path id="path4434" style="color:#000000;stroke:url(#linearGradient4520);stroke-miterlimit:10;stroke-width:1.0549;display:block;fill:url(#linearGradient4518)" d="m36.857 14.071a12.857 5.5 0 1 1 -25.714 0 12.857 5.5 0 1 1 25.714 0z" transform="matrix(.98305 0 0 .91403 .46133 18.672)"/>
  <path id="path3245" style="color:#000000;display:block;fill:url(#linearGradient3253)" d="m36.063 9.5613c-1.121-0.9851-2.069-1.285-3.063-1.7677l0.306 18.687 2.757 3.233v-20.153z"/>
  <path id="path3364" style="opacity:.46703;color:#000000;display:block;stroke:url(#linearGradient3243);stroke-miterlimit:10;stroke-width:.99451;fill:#f0f0f0" d="m36.857 14.071a12.857 5.5 0 1 1 -25.714 0 12.857 5.5 0 1 1 25.714 0z" transform="matrix(1.0484 0 0 .96434 -1.0876 -2.4791)"/>
  <path id="path6944" style="opacity:.30769;color:#000000;display:block;fill:url(#radialGradient4132)" d="m41 40a17.143 8.5714 0 1 1 -34.286 0 17.143 8.5714 0 1 1 34.286 0z" transform="matrix(.36734 0 0 .36343 15.079 -6.776)"/>
  <path id="path3362" style="color:#000000;stroke:#7d7f7a;stroke-miterlimit:10;display:block;fill:#9d9e9b" d="m24.166 3.5613c-2.025 0-4.681 0.7142-4.681 1.5927v2.6297c0 0.8785 2.656 1.5926 4.681 1.5926 2.024 0 4.457-0.7141 4.457-1.5926v-2.6297c0-0.8785-2.433-1.5927-4.457-1.5927z"/>
  <path id="path6922" style="opacity:.58242;color:#000000;display:block;fill:url(#linearGradient6930)" d="m13.751 15.805l0.361 16.786 4.621 1.285-0.145-16.714s1.96-0.088 5.353-0.303c-6.567-0.05-10.857-1.578-13.222-3.84 1.432 2.092 3.032 2.786 3.032 2.786z"/>
  <path id="path6940" style="color:#000000;display:block;stroke:url(#linearGradient3243);stroke-miterlimit:10;stroke-width:4.3515;fill:#d3d7cf" d="m36.857 14.071a12.857 5.5 0 1 1 -25.714 0 12.857 5.5 0 1 1 25.714 0z" transform="matrix(.27490 0 0 .19211 17.474 2.7297)"/>
 </g>
</svg>
