<?xml version="1.0" encoding="UTF-8" standalone="no"?>
<!-- Created with Inkscape (http://www.inkscape.org/) -->
<svg id="svg1328" xmlns="http://www.w3.org/2000/svg" height="48" width="48" version="1.0" xmlns:xlink="http://www.w3.org/1999/xlink">
 <defs id="defs3">
  <linearGradient id="linearGradient3233">
   <stop id="stop3235" style="stop-color:#eeeeec" offset="0"/>
   <stop id="stop3237" style="stop-color:#a3a398" offset="1"/>
  </linearGradient>
  <linearGradient id="linearGradient4126">
   <stop id="stop4128" offset="0"/>
   <stop id="stop4130" style="stop-opacity:0" offset="1"/>
  </linearGradient>
  <linearGradient id="linearGradient4501" y2="33.489" gradientUnits="userSpaceOnUse" x2="30.452" gradientTransform="matrix(1.0046 0 0 1 -.058924 -2.0825)" y1="33.489" x1="11.003">
   <stop id="stop3340" style="stop-color:#c36000" offset="0"/>
   <stop id="stop3346" style="stop-color:#fcaf3e" offset=".5"/>
   <stop id="stop3342" style="stop-color:#f57900" offset="1"/>
  </linearGradient>
  <linearGradient id="linearGradient4518" y2="8.0244" gradientUnits="userSpaceOnUse" x2="24" y1="18.133" x1="24">
   <stop id="stop1537" style="stop-color:#f67800" offset="0"/>
   <stop id="stop1539" style="stop-color:#fcaf3e" offset="1"/>
  </linearGradient>
  <linearGradient id="linearGradient4520" y2="20.118" gradientUnits="userSpaceOnUse" x2="24" y1="10.397" x1="24">
   <stop id="stop1525" style="stop-color:#ce5c00" offset="0"/>
   <stop id="stop1527" style="stop-color:#fcaf3e" offset="1"/>
  </linearGradient>
  <linearGradient id="linearGradient3582" y2="8.0477" xlink:href="#linearGradient3233" gradientUnits="userSpaceOnUse" x2="23.434" y1="17.246" x1="24"/>
  <linearGradient id="linearGradient3584" y2="31.75" gradientUnits="userSpaceOnUse" x2="16.036" gradientTransform="matrix(1.0108 0 0 1 -.26936 -1.3279)" y1="19.5" x1="16.071">
   <stop id="stop6926" style="stop-color:#fff" offset="0"/>
   <stop id="stop6928" style="stop-color:#fff;stop-opacity:0" offset="1"/>
  </linearGradient>
  <radialGradient id="radialGradient3586" xlink:href="#linearGradient4126" gradientUnits="userSpaceOnUse" cy="40" cx="23.857" gradientTransform="matrix(1 0 0 .5 0 20)" r="17.143"/>
  <linearGradient id="linearGradient3590" y2="29.918" gradientUnits="userSpaceOnUse" x2="34.244" gradientTransform="matrix(1.0108 0 0 1 -.26936 -2.185)" y1="17.695" x1="34.244">
   <stop id="stop3249" style="stop-color:#f0f0f0" offset="0"/>
   <stop id="stop3251" style="stop-color:#f0f0f0;stop-opacity:0" offset="1"/>
  </linearGradient>
  <linearGradient id="linearGradient3592" y2="56.576" gradientUnits="userSpaceOnUse" x2="37.969" gradientTransform="matrix(1.0108 0 0 .99276 -.26936 -3.8327)" y1="14.004" x1="17.16">
   <stop id="stop4178" style="stop-color:#fff" offset="0"/>
   <stop id="stop4180" style="stop-color:#fff;stop-opacity:0" offset="1"/>
  </linearGradient>
  <linearGradient id="linearGradient3596" y2="26.719" gradientUnits="userSpaceOnUse" x2="38.826" gradientTransform="matrix(1.0108 0 0 .99135 -.26936 -3.8265)" y1="26.719" x1="9.3031">
   <stop id="stop4136" style="stop-color:#d6d7d5" offset="0"/>
   <stop id="stop4148" style="stop-color:#d1d2d0" offset=".25"/>
   <stop id="stop4142" style="stop-color:#a5a6a3" offset=".5"/>
   <stop id="stop4138" style="stop-color:#dddedc" offset="1"/>
  </linearGradient>
 </defs>
 <g id="layer1">
  <path id="path3366" style="color:#000000;display:block;fill:url(#radialGradient3586)" d="m41 40a17.143 8.5714 0 1 1 -34.286 0 17.143 8.5714 0 1 1 34.286 0z" transform="matrix(1.05 0 0 1.1667 -1.05 -13.667)"/>
  <path id="path3068" style="color:#000000;stroke:#767973;stroke-miterlimit:10;display:block;fill:url(#linearGradient3596)" d="m23.926 5.0026c-7.944 0-14.404 2.7783-14.404 6.1964 0.0003 0.245 0.0003 22.669 0.0003 22.924 0 3.418 6.4597 6.196 14.404 6.196 7.944 0 14.66-2.778 14.66-6.196v-22.924c0-3.4181-6.716-6.1964-14.66-6.1964z"/>
  <path id="path3241" style="opacity:.23626;color:#000000;display:block;stroke:url(#linearGradient3582);stroke-miterlimit:10;stroke-width:.99090;fill:#d3d7cf" d="m36.857 14.071a12.857 5.5 0 1 1 -25.714 0 12.857 5.5 0 1 1 25.714 0z" transform="matrix(1.0484 0 0 .97139 -.96976 20.434)"/>
  <path id="path4174" style="opacity:.54430;color:#000000;stroke:url(#linearGradient3592);stroke-miterlimit:10;display:block;fill:none" d="m23.934 5.7827c-7.406 0-13.429 2.594-13.429 5.7853v21.966c0 3.191 6.023 5.785 13.429 5.785 7.407 0 13.669-2.594 13.669-5.785v-21.966c0-3.1913-6.262-5.7853-13.669-5.7853z"/>
  <path id="path4432" style="color:#000000;stroke:#e2811b;stroke-miterlimit:10;stroke-width:.99622;display:block;fill:url(#linearGradient4501)" d="m23.416 26.439c-6.634 0.134-11.921-1.071-11.921 1.617v5.293c0 2.775 5.605 5.028 12.54 5.028 6.934 0 12.569-2.253 12.569-5.028v-5.293c0-2.775-5.635-1.617-12.569-1.617-0.217 0-0.405-0.005-0.619 0z"/>
  <path id="path4434" style="color:#000000;stroke:url(#linearGradient4520);stroke-miterlimit:10;stroke-width:1.0606;display:block;fill:url(#linearGradient4518)" d="m36.857 14.071a12.857 5.5 0 1 1 -25.714 0 12.857 5.5 0 1 1 25.714 0z" transform="matrix(.97263 0 0 .91403 .65149 14.665)"/>
  <path id="path3245" style="color:#000000;display:block;fill:url(#linearGradient3590)" d="m35.977 9.5c-1.121-0.9851-2.069-1.285-3.063-1.7678l0.306 18.688 2.757 3.233v-20.153z"/>
  <path id="path3364" style="opacity:.46703;color:#000000;display:block;stroke:url(#linearGradient3582);stroke-miterlimit:10;stroke-width:.99451;fill:#f0f0f0" d="m36.857 14.071a12.857 5.5 0 1 1 -25.714 0 12.857 5.5 0 1 1 25.714 0z" transform="matrix(1.0484 0 0 .96434 -1.174 -2.5404)"/>
  <path id="path6944" style="opacity:.30769;color:#000000;display:block;fill:url(#radialGradient3586)" d="m41 40a17.143 8.5714 0 1 1 -34.286 0 17.143 8.5714 0 1 1 34.286 0z" transform="matrix(.36734 0 0 .36343 14.992 -6.8373)"/>
  <path id="path3362" style="color:#000000;stroke:#7d7f7a;stroke-miterlimit:10;display:block;fill:#9d9e9b" d="m24.079 3.5c-2.024 0-4.681 0.7141-4.681 1.5927v2.6296c0 0.8785 2.657 1.5927 4.681 1.5927 2.025 0 4.458-0.7142 4.458-1.5927v-2.6296c0-0.8786-2.433-1.5927-4.458-1.5927z"/>
  <path id="path6922" style="opacity:.58242;color:#000000;display:block;fill:url(#linearGradient3584)" d="m13.665 15.744l0.361 16.785 4.62 1.286-0.144-16.714s1.959-0.089 5.353-0.303c-6.568-0.05-10.857-1.578-13.223-3.84 1.432 2.092 3.033 2.786 3.033 2.786z"/>
  <path id="path6940" style="color:#000000;stroke:url(#linearGradient3582);stroke-miterlimit:10;stroke-width:4.3515;display:block;fill:#d3d7cf" d="m36.857 14.071a12.857 5.5 0 1 1 -25.714 0 12.857 5.5 0 1 1 25.714 0z" transform="matrix(.27490 0 0 .19211 17.388 2.6684)"/>
 </g>
</svg>
