<?xml version="1.0" encoding="UTF-8" standalone="no"?>
<!-- Created with Inkscape (http://www.inkscape.org/) -->
<svg id="svg1328" xmlns:rdf="http://www.w3.org/1999/02/22-rdf-syntax-ns#" xmlns="http://www.w3.org/2000/svg" height="48" width="48" version="1.0" xmlns:cc="http://creativecommons.org/ns#" xmlns:xlink="http://www.w3.org/1999/xlink" xmlns:dc="http://purl.org/dc/elements/1.1/">
 <metadata id="metadata63">
  <rdf:RDF>
   <cc:Work rdf:about="">
    <dc:format>image/svg+xml</dc:format>
    <dc:type rdf:resource="http://purl.org/dc/dcmitype/StillImage"/>
    <dc:title/>
   </cc:Work>
  </rdf:RDF>
 </metadata>
 <defs id="defs3">
  <linearGradient id="linearGradient3233">
   <stop id="stop3235" style="stop-color:#eeeeec" offset="0"/>
   <stop id="stop3237" style="stop-color:#a3a398" offset="1"/>
  </linearGradient>
  <linearGradient id="linearGradient4126">
   <stop id="stop4128" offset="0"/>
   <stop id="stop4130" style="stop-opacity:0" offset="1"/>
  </linearGradient>
  <linearGradient id="linearGradient69" y2="8.0477" xlink:href="#linearGradient3233" gradientUnits="userSpaceOnUse" x2="23.434" gradientTransform="matrix(.27490 0 0 .19211 17.474 2.7297)" y1="17.246" x1="24"/>
  <linearGradient id="linearGradient72" y2="31.75" gradientUnits="userSpaceOnUse" x2="16.036" gradientTransform="matrix(1.0108 0 0 1 -.18302 -1.2665)" y1="19.5" x1="16.071">
   <stop id="stop6926" style="stop-color:#fff" offset="0"/>
   <stop id="stop6928" style="stop-color:#fff;stop-opacity:0" offset="1"/>
  </linearGradient>
  <radialGradient id="radialGradient76" xlink:href="#linearGradient4126" gradientUnits="userSpaceOnUse" cy="40" cx="23.857" gradientTransform="matrix(.36734 0 0 .18172 15.079 .49261)" r="17.143"/>
  <linearGradient id="linearGradient79" y2="8.0477" xlink:href="#linearGradient3233" gradientUnits="userSpaceOnUse" x2="23.434" gradientTransform="matrix(1.0484 0 0 .96434 -1.0876 -2.4791)" y1="17.246" x1="24"/>
  <linearGradient id="linearGradient82" y2="29.918" gradientUnits="userSpaceOnUse" x2="34.244" gradientTransform="matrix(1.0108 0 0 1 -.18302 -2.1237)" y1="17.695" x1="34.244">
   <stop id="stop3249" style="stop-color:#f0f0f0" offset="0"/>
   <stop id="stop3251" style="stop-color:#f0f0f0;stop-opacity:0" offset="1"/>
  </linearGradient>
  <linearGradient id="linearGradient93" y2="56.576" gradientUnits="userSpaceOnUse" x2="37.969" gradientTransform="matrix(1.0108 0 0 .99276 -.18302 -3.7714)" y1="14.004" x1="17.16">
   <stop id="stop4178" style="stop-color:#fff" offset="0"/>
   <stop id="stop4180" style="stop-color:#fff;stop-opacity:0" offset="1"/>
  </linearGradient>
  <linearGradient id="linearGradient96" y2="8.0477" xlink:href="#linearGradient3233" gradientUnits="userSpaceOnUse" x2="23.434" gradientTransform="matrix(1.0484 0 0 .97139 -.88342 20.495)" y1="17.246" x1="24"/>
  <linearGradient id="linearGradient99" y2="26.719" gradientUnits="userSpaceOnUse" x2="38.826" gradientTransform="matrix(1.0108 0 0 .99135 -.18302 -3.7652)" y1="26.719" x1="9.3031">
   <stop id="stop4136" style="stop-color:#d6d7d5" offset="0"/>
   <stop id="stop4148" style="stop-color:#d1d2d0" offset=".25"/>
   <stop id="stop4142" style="stop-color:#a5a6a3" offset=".5"/>
   <stop id="stop4138" style="stop-color:#dddedc" offset="1"/>
  </linearGradient>
  <radialGradient id="radialGradient102" xlink:href="#linearGradient4126" gradientUnits="userSpaceOnUse" cy="40" cx="23.857" gradientTransform="matrix(1.05 0 0 .59148 -1.0126 9.2622)" r="17.143"/>
 </defs>
 <path id="path3366" style="color:#000000;display:block;fill:url(#radialGradient102)" d="m42.037 32.922a18 10.14 0 1 1 -36 0 18 10.14 0 1 1 36 0z"/>
 <path id="path3068" style="color:#000000;stroke:#767973;stroke-miterlimit:10;display:block;fill:url(#linearGradient99)" d="m24.012 5.064c-7.9439 0-14.403 2.7782-14.403 6.1959v22.925c0 3.4177 6.4593 6.1959 14.403 6.1959 7.9439 0 14.66-2.7782 14.66-6.1959v-22.925c0-3.4177-6.7165-6.1959-14.66-6.1959z"/>
 <path id="path3241" style="opacity:.23626;color:#000000;stroke:url(#linearGradient96);stroke-miterlimit:10;display:block;fill:#d3d7cf" d="m37.759 34.164a13.48 5.3426 0 0 1 -26.96 0 13.48 5.3426 0 1 1 26.96 0z"/>
 <path id="path4174" style="opacity:.54430;color:#000000;stroke:url(#linearGradient93);stroke-miterlimit:10;display:block;fill:none" d="m24.021 5.844c-7.4066 0-13.429 2.594-13.429 5.785v21.966c0 3.191 6.0223 5.785 13.429 5.785 7.4066 0 13.669-2.594 13.669-5.785v-21.966c0-3.191-6.2621-5.785-13.669-5.785z"/>
 <path id="path3245" style="color:#000000;display:block;fill:url(#linearGradient82)" d="m36.063 9.5613c-1.121-0.9851-2.069-1.285-3.063-1.7677l0.3063 18.688 2.7567 3.2325v-20.153z"/>
 <path id="path3364" style="opacity:.46703;color:#000000;stroke:url(#linearGradient79);stroke-miterlimit:10;display:block;fill:#f0f0f0" d="m37.555 11.091a13.48 5.3039 0 0 1 -26.96 0 13.48 5.3039 0 1 1 26.96 0z"/>
 <path id="path6944" style="opacity:.30769;color:#000000;display:block;fill:url(#radialGradient76)" d="m30.14 7.7612a6.2972 3.1151 0 1 1 -12.594 0 6.2972 3.1151 0 1 1 12.594 0z"/>
 <path id="path3362" style="color:#000000;stroke:#7d7f7a;stroke-miterlimit:10;display:block;fill:#9d9e9b" d="m24.166 3.5613c-2.0243 0-4.6811 0.71415-4.6811 1.5927v2.6297c0 0.87852 2.6568 1.5927 4.6811 1.5927s4.4578-0.71415 4.4578-1.5927v-2.6297c0-0.87852-2.4335-1.5927-4.4578-1.5927z"/>
 <path id="path6922" style="opacity:.58242;color:#000000;display:block;fill:url(#linearGradient72)" d="m13.751 15.805 0.36098 16.786 4.6206 1.2857-0.14439-16.714s1.9597-0.08839 5.3529-0.30267c-6.5672-0.04998-10.857-1.5782-13.222-3.8402 1.4321 2.0922 3.0323 2.7857 3.0323 2.7857z"/>
 <path id="path6940" style="color:#000000;stroke:url(#linearGradient69);stroke-miterlimit:10;display:block;fill:#d3d7cf" d="m27.606 5.4329a3.5345 1.0566 0 0 1 -7.069 0 3.5345 1.0566 0 1 1 7.069 0z"/>
</svg>
