<?xml version="1.0" encoding="UTF-8" standalone="no"?>
<!-- Created with Inkscape (http://www.inkscape.org/) -->
<svg id="svg1328" xmlns="http://www.w3.org/2000/svg" height="48" width="48" version="1.0" xmlns:xlink="http://www.w3.org/1999/xlink">
 <defs id="defs3">
  <linearGradient id="linearGradient3233">
   <stop id="stop3235" style="stop-color:#eeeeec" offset="0"/>
   <stop id="stop3237" style="stop-color:#a3a398" offset="1"/>
  </linearGradient>
  <linearGradient id="linearGradient4126">
   <stop id="stop4128" offset="0"/>
   <stop id="stop4130" style="stop-opacity:0" offset="1"/>
  </linearGradient>
  <radialGradient id="radialGradient4132" xlink:href="#linearGradient4126" gradientUnits="userSpaceOnUse" cy="40" cx="23.857" gradientTransform="matrix(1 0 0 .5 0 20)" r="17.143"/>
  <linearGradient id="linearGradient4140" y2="26.719" gradientUnits="userSpaceOnUse" x2="38.826" gradientTransform="matrix(1.0108 0 0 .99135 -.12409 -3.7547)" y1="26.719" x1="9.3031">
   <stop id="stop4136" style="stop-color:#d6d7d5" offset="0"/>
   <stop id="stop4148" style="stop-color:#d1d2d0" offset=".25"/>
   <stop id="stop4142" style="stop-color:#a5a6a3" offset=".5"/>
   <stop id="stop4138" style="stop-color:#dddedc" offset="1"/>
  </linearGradient>
  <linearGradient id="linearGradient4182" y2="56.576" gradientUnits="userSpaceOnUse" x2="37.969" gradientTransform="matrix(1.0108 0 0 .99276 -.12409 -3.7609)" y1="14.004" x1="17.16">
   <stop id="stop4178" style="stop-color:#fff" offset="0"/>
   <stop id="stop4180" style="stop-color:#fff;stop-opacity:0" offset="1"/>
  </linearGradient>
  <linearGradient id="linearGradient6930" y2="31.75" gradientUnits="userSpaceOnUse" x2="16.036" gradientTransform="matrix(1.0108 0 0 1 -.12409 -1.256)" y1="19.5" x1="16.071">
   <stop id="stop6926" style="stop-color:#fff" offset="0"/>
   <stop id="stop6928" style="stop-color:#fff;stop-opacity:0" offset="1"/>
  </linearGradient>
  <linearGradient id="linearGradient3253" y2="29.918" gradientUnits="userSpaceOnUse" x2="34.244" gradientTransform="matrix(1.0108 0 0 1 -.12409 -2.1132)" y1="17.695" x1="34.244">
   <stop id="stop3249" style="stop-color:#f0f0f0" offset="0"/>
   <stop id="stop3251" style="stop-color:#f0f0f0;stop-opacity:0" offset="1"/>
  </linearGradient>
  <linearGradient id="linearGradient3255" y2="8.0477" xlink:href="#linearGradient3233" gradientUnits="userSpaceOnUse" x2="23.434" y1="17.246" x1="24"/>
  <linearGradient id="linearGradient3811" y2="32.489" gradientUnits="userSpaceOnUse" x2="32.397" gradientTransform="matrix(.98999 0 0 1 .97154 -1.9494)" y1="32.489" x1="11.003">
   <stop id="stop3807" style="stop-color:#284e7f" offset="0"/>
   <stop id="stop3813" style="stop-color:#6694cf" offset=".5"/>
   <stop id="stop3809" style="stop-color:#234570" offset="1"/>
  </linearGradient>
  <linearGradient id="linearGradient3821" y2="20.118" gradientUnits="userSpaceOnUse" x2="25.573" y1="11.17" x1="25.698">
   <stop id="stop3817" style="stop-color:#204a87" offset="0"/>
   <stop id="stop3819" style="stop-color:#98b8e7" offset="1"/>
  </linearGradient>
  <linearGradient id="linearGradient3266" y2="5.5617" gradientUnits="userSpaceOnUse" x2="21.756" y1="25.114" x1="21.487">
   <stop id="stop3262" style="stop-color:#3465a4" offset="0"/>
   <stop id="stop3264" style="stop-color:#8fb1dc" offset="1"/>
  </linearGradient>
 </defs>
 <g id="layer1">
  <path id="path3366" style="color:#000000;display:block;fill:url(#radialGradient4132)" d="m41 40a17.143 8.5714 0 1 1 -34.286 0 17.143 8.5714 0 1 1 34.286 0z" transform="matrix(1.05 0 0 1.1674 -1.05 -13.7)"/>
  <path id="path3068" style="color:#000000;stroke:#767973;stroke-miterlimit:10;display:block;fill:url(#linearGradient4140)" d="m24.071 5.0745c-7.944 0-14.403 2.7782-14.403 6.1955-0.0004 0.246-0.0004 22.67-0.0004 22.925 0 3.418 6.4594 6.196 14.403 6.196 7.944 0 14.66-2.778 14.66-6.196v-22.925c0-3.4173-6.716-6.1955-14.66-6.1955z"/>
  <path id="path3275" style="opacity:.79121;color:#000000;stroke:#204a87;stroke-miterlimit:10;stroke-width:.99621;display:block;fill:url(#linearGradient3811)" d="m23.515 14.947c-6.61 0.135-11.877 2.34-11.877 5.028v13.507c0 2.775 5.584 5.028 12.493 5.028 6.908 0 12.521-2.253 12.521-5.028v-13.507c0-2.775-5.613-5.028-12.521-5.028-0.216 0-0.403-0.004-0.616 0z"/>
  <path id="path4174" style="opacity:.54430;color:#000000;stroke:url(#linearGradient4182);stroke-miterlimit:10;display:block;fill:none" d="m24.08 5.8545c-7.407 0-13.429 2.594-13.429 5.7845v21.966c0 3.191 6.022 5.785 13.429 5.785 7.406 0 13.668-2.594 13.668-5.785v-21.966c0-3.1905-6.262-5.7845-13.668-5.7845z"/>
  <path id="path3277" style="color:#000000;stroke:url(#linearGradient3821);stroke-miterlimit:10;stroke-width:1.0897;display:block;fill:url(#linearGradient3266)" d="m36.857 14.071a12.857 5.5 0 1 1 -25.714 0 12.857 5.5 0 1 1 25.714 0z" transform="matrix(.97264 0 0 .86586 .79650 7.1502)"/>
  <path id="path3245" style="color:#000000;display:block;fill:url(#linearGradient3253)" d="m36.122 9.5718c-1.121-0.9851-2.069-1.285-3.063-1.7677l0.306 18.688 2.757 3.232v-20.152z"/>
  <path id="path3364" style="opacity:.46703;color:#000000;display:block;stroke:url(#linearGradient3255);stroke-miterlimit:10;stroke-width:.99451;fill:#f0f0f0" d="m36.857 14.071a12.857 5.5 0 1 1 -25.714 0 12.857 5.5 0 1 1 25.714 0z" transform="matrix(1.0484 0 0 .96434 -1.0287 -2.4686)"/>
  <path id="path6944" style="opacity:.30769;color:#000000;display:block;fill:url(#radialGradient4132)" d="m41 40a17.143 8.5714 0 1 1 -34.286 0 17.143 8.5714 0 1 1 34.286 0z" transform="matrix(.36734 0 0 .36343 15.138 -6.7655)"/>
  <path id="path3362" style="color:#000000;stroke:#7d7f7a;stroke-miterlimit:10;display:block;fill:#9d9e9b" d="m24.225 3.5718c-2.025 0-4.682 0.7142-4.682 1.5927v2.6297c0 0.8785 2.657 1.5926 4.682 1.5926 2.024 0 4.457-0.7141 4.457-1.5926v-2.6297c0-0.8785-2.433-1.5927-4.457-1.5927z"/>
  <path id="path6922" style="opacity:.58242;color:#000000;display:block;fill:url(#linearGradient6930)" d="m13.81 15.815l0.361 16.786 4.62 1.286-0.144-16.714s1.96-0.089 5.353-0.303c-6.567-0.05-10.857-1.578-13.222-3.84 1.432 2.092 3.032 2.785 3.032 2.785z"/>
  <path id="path6940" style="color:#000000;stroke:url(#linearGradient3255);stroke-miterlimit:10;stroke-width:4.3515;display:block;fill:#d3d7cf" d="m36.857 14.071a12.857 5.5 0 1 1 -25.714 0 12.857 5.5 0 1 1 25.714 0z" transform="matrix(.27490 0 0 .19211 17.533 2.7402)"/>
 </g>
</svg>
