<?xml version="1.0" encoding="UTF-8" standalone="no"?>
<!-- Created with Inkscape (http://www.inkscape.org/) -->
<svg id="svg1328" xmlns="http://www.w3.org/2000/svg" height="48" width="48" version="1.0" xmlns:xlink="http://www.w3.org/1999/xlink">
 <defs id="defs3">
  <linearGradient id="linearGradient3289">
   <stop id="stop3291" offset="0"/>
   <stop id="stop3293" style="stop-opacity:0" offset="1"/>
  </linearGradient>
  <linearGradient id="linearGradient3233">
   <stop id="stop3235" style="stop-color:#eeeeec" offset="0"/>
   <stop id="stop3237" style="stop-color:#a3a398" offset="1"/>
  </linearGradient>
  <radialGradient id="radialGradient4132" xlink:href="#linearGradient3289" gradientUnits="userSpaceOnUse" cy="40" cx="23.857" gradientTransform="matrix(1 0 0 .5 0 20)" r="17.143"/>
  <linearGradient id="linearGradient4140" y2="26.719" gradientUnits="userSpaceOnUse" x2="38.826" gradientTransform="matrix(1.0108 0 0 .99135 -7.2694 -4.8265)" y1="26.719" x1="9.3031">
   <stop id="stop4136" style="stop-color:#d6d7d5" offset="0"/>
   <stop id="stop4148" style="stop-color:#d1d2d0" offset=".25"/>
   <stop id="stop4142" style="stop-color:#a5a6a3" offset=".5"/>
   <stop id="stop4138" style="stop-color:#dddedc" offset="1"/>
  </linearGradient>
  <linearGradient id="linearGradient4182" y2="56.576" gradientUnits="userSpaceOnUse" x2="37.969" gradientTransform="matrix(1.0108 0 0 .99276 -7.2694 -4.8327)" y1="14.004" x1="17.16">
   <stop id="stop4178" style="stop-color:#fff" offset="0"/>
   <stop id="stop4180" style="stop-color:#fff;stop-opacity:0" offset="1"/>
  </linearGradient>
  <linearGradient id="linearGradient6930" y2="31.75" gradientUnits="userSpaceOnUse" x2="16.036" gradientTransform="matrix(1.0108 0 0 1 -7.2694 -2.3279)" y1="19.5" x1="16.071">
   <stop id="stop6926" style="stop-color:#fff" offset="0"/>
   <stop id="stop6928" style="stop-color:#fff;stop-opacity:0" offset="1"/>
  </linearGradient>
  <linearGradient id="linearGradient3253" y2="29.918" gradientUnits="userSpaceOnUse" x2="34.244" gradientTransform="matrix(1.0108 0 0 1 -7.2694 -3.185)" y1="17.695" x1="34.244">
   <stop id="stop3249" style="stop-color:#f0f0f0" offset="0"/>
   <stop id="stop3251" style="stop-color:#f0f0f0;stop-opacity:0" offset="1"/>
  </linearGradient>
  <linearGradient id="linearGradient3255" y2="8.0477" xlink:href="#linearGradient3233" gradientUnits="userSpaceOnUse" x2="23.434" y1="17.246" x1="24"/>
  <linearGradient id="linearGradient3811" y2="32.489" gradientUnits="userSpaceOnUse" x2="32.397" gradientTransform="matrix(.98999 0 0 1 -6.1737 -3.0212)" y1="32.489" x1="11.003">
   <stop id="stop3807" style="stop-color:#284e7f" offset="0"/>
   <stop id="stop3813" style="stop-color:#6694cf" offset=".5"/>
   <stop id="stop3809" style="stop-color:#234570" offset="1"/>
  </linearGradient>
  <linearGradient id="linearGradient3821" y2="20.118" gradientUnits="userSpaceOnUse" x2="25.573" y1="11.17" x1="25.698">
   <stop id="stop3817" style="stop-color:#204a87" offset="0"/>
   <stop id="stop3819" style="stop-color:#98b8e7" offset="1"/>
  </linearGradient>
  <linearGradient id="linearGradient3266" y2="5.5617" gradientUnits="userSpaceOnUse" x2="21.756" y1="25.114" x1="21.487">
   <stop id="stop3262" style="stop-color:#3465a4" offset="0"/>
   <stop id="stop3264" style="stop-color:#8fb1dc" offset="1"/>
  </linearGradient>
  <linearGradient id="linearGradient3797" y2="-11.993" gradientUnits="userSpaceOnUse" x2="-28.468" gradientTransform="translate(36.701 10.5)" y1="-5.7469" x1="-27.279">
   <stop id="stop3343" style="stop-color:#b6b6b6" offset="0"/>
   <stop id="stop3345" style="stop-color:#b6b6b6;stop-opacity:0" offset="1"/>
  </linearGradient>
  <radialGradient id="radialGradient3806" gradientUnits="userSpaceOnUse" cy="34" cx="22.5" gradientTransform="matrix(1 0 0 .59574 0 13.745)" r="23.5">
   <stop id="stop3325" offset="0"/>
   <stop id="stop3327" style="stop-opacity:0" offset="1"/>
  </radialGradient>
  <radialGradient id="radialGradient3825" gradientUnits="userSpaceOnUse" cy="-9.064" cx="77.499" gradientTransform="matrix(1.4683 0 0 1.2907 -34.29 41.607)" r="17.501">
   <stop id="stop3311" style="stop-color:#e5e6e3" offset="0"/>
   <stop id="stop3317" style="stop-color:#d1d3cf" offset=".5"/>
   <stop id="stop3313" style="stop-color:#767c6f" offset="1"/>
  </radialGradient>
  <linearGradient id="linearGradient3827" y2="8.727" gradientUnits="userSpaceOnUse" x2="79.109" gradientTransform="matrix(.66773 0 0 .69549 27.74 34.634)" y1="12.351" x1="78.985">
   <stop id="stop3273" style="stop-color:#eeeeec" offset="0"/>
   <stop id="stop3275" style="stop-color:#d3d3ce" offset="1"/>
  </linearGradient>
  <radialGradient id="radialGradient3829" xlink:href="#linearGradient3289" gradientUnits="userSpaceOnUse" cy="14.854" cx="69.296" gradientTransform="matrix(1 0 0 1.575 0 -8.5413)" r="3.5355"/>
  <linearGradient id="linearGradient3837" y2="-17.885" gradientUnits="userSpaceOnUse" x2="-88.678" gradientTransform="translate(106.45 16.536)" y1="-12.2" x1="-87.031">
   <stop id="stop3355" style="stop-color:#969696" offset="0"/>
   <stop id="stop3357" style="stop-color:#b6b6b6;stop-opacity:0" offset="1"/>
  </linearGradient>
 </defs>
 <g id="layer1">
  <path id="path3835" style="color:#000000;stroke:url(#linearGradient3837);stroke-miterlimit:10;stroke-width:6;display:block;fill:none" d="m35.201 24c-1.5-6.75 5.484-8.407 3.5-13.25-4.418-10.787-21.25 4.5-26 4-4.7498-0.5-5.8533-16.536-5.8533-16.536"/>
  <path id="path3321" style="opacity:.58242;color:#000000;display:block;fill:url(#radialGradient3806)" d="m46 34a23.5 14 0 1 1 -47 0 23.5 14 0 1 1 47 0z" transform="matrix(.7 0 0 1 17.8 1)"/>
  <path id="path3366" style="color:#000000;display:block;fill:url(#radialGradient4132)" d="m41 40a17.143 8.5714 0 1 1 -34.286 0 17.143 8.5714 0 1 1 34.286 0z" transform="matrix(1.0588 0 0 1.1513 -7.5915 -14.462)"/>
  <path id="path3339" style="color:#000000;stroke:url(#linearGradient3797);stroke-miterlimit:10;stroke-width:4;display:block;fill:none" d="m35.201 24c-1.5-6.75 5.484-8.407 3.5-13.25-4.418-10.787-21.25 4.5-26 4-4.7498-0.5-5.8533-16.536-5.8533-16.536"/>
  <path id="path3361" style="opacity:.52198;color:#000000;stroke:#fff;stroke-miterlimit:10;display:block;fill:none" d="m33.829 25.323c-1.414-9.192 8.694-11.827 2.652-17.501-6.131-5.757-21.149 8.851-25.809 6.188-3.7127-2.122-4.9502-14.85-4.9502-14.85"/>
  <path id="path3068" style="color:#000000;stroke:#767973;stroke-miterlimit:10;display:block;fill:url(#linearGradient4140)" d="m16.926 4.0026c-7.9444 0-14.404 2.7783-14.404 6.1964 0.0003 0.245 0.0003 22.669 0.0003 22.924 0 3.418 6.4593 6.196 14.404 6.196 7.944 0 14.66-2.778 14.66-6.196v-22.924c0-3.4181-6.716-6.1964-14.66-6.1964z"/>
  <path id="path3275" style="opacity:.79121;color:#000000;stroke:#204a87;stroke-miterlimit:10;stroke-width:.99621;display:block;fill:url(#linearGradient3811)" d="m16.37 13.875c-6.6099 0.135-11.877 2.34-11.877 5.028 0.0001 0.319 0.0001 13.191 0.0001 13.507 0 2.775 5.5839 5.028 12.492 5.028 6.909 0 12.522-2.253 12.522-5.028v-13.507c0-2.775-5.613-5.028-12.522-5.028-0.216 0-0.402-0.004-0.615 0z"/>
  <path id="path4174" style="opacity:.54430;color:#000000;stroke:url(#linearGradient4182);stroke-miterlimit:10;display:block;fill:none" d="m16.934 4.7827c-7.4063 0-13.429 2.594-13.429 5.7853 0.0004 0.229 0.0004 21.727 0.0004 21.966 0 3.191 6.0223 5.785 13.429 5.785 7.407 0 13.669-2.594 13.669-5.785v-21.966c0-3.1913-6.262-5.7853-13.669-5.7853z"/>
  <path id="path3277" style="color:#000000;stroke:url(#linearGradient3821);stroke-miterlimit:10;stroke-width:1.0897;display:block;fill:url(#linearGradient3266)" d="m36.857 14.071a12.857 5.5 0 1 1 -25.714 0 12.857 5.5 0 1 1 25.714 0z" transform="matrix(.97264 0 0 .86586 -6.3488 6.0783)"/>
  <path id="path3245" style="color:#000000;display:block;fill:url(#linearGradient3253)" d="m28.977 8.5c-1.121-0.9851-2.069-1.285-3.063-1.7678l0.306 18.688 2.757 3.233v-20.153z"/>
  <path id="path3364" style="opacity:.46703;color:#000000;display:block;stroke:url(#linearGradient3255);stroke-miterlimit:10;stroke-width:.99451;fill:#f0f0f0" d="m36.857 14.071a12.857 5.5 0 1 1 -25.714 0 12.857 5.5 0 1 1 25.714 0z" transform="matrix(1.0484 0 0 .96434 -8.174 -3.5404)"/>
  <path id="path6944" style="opacity:.30769;color:#000000;display:block;fill:url(#radialGradient4132)" d="m41 40a17.143 8.5714 0 1 1 -34.286 0 17.143 8.5714 0 1 1 34.286 0z" transform="matrix(.36734 0 0 .36343 7.9924 -7.8373)"/>
  <path id="path3362" style="color:#000000;stroke:#7d7f7a;stroke-miterlimit:10;display:block;fill:#9d9e9b" d="m17.079 2.5c-2.024 0-4.681 0.7142-4.681 1.5927v2.6296c0 0.8785 2.657 1.5927 4.681 1.5927 2.025 0 4.458-0.7142 4.458-1.5927v-2.6296c0-0.8785-2.433-1.5927-4.458-1.5927z"/>
  <path id="path6922" style="opacity:.58242;color:#000000;display:block;fill:url(#linearGradient6930)" d="m6.6646 14.744l0.361 16.785 4.6204 1.286-0.144-16.714s1.959-0.089 5.353-0.303c-6.568-0.05-10.857-1.578-13.223-3.84 1.4325 2.092 3.0326 2.786 3.0326 2.786z"/>
  <path id="path6940" style="color:#000000;stroke:url(#linearGradient3255);stroke-miterlimit:10;stroke-width:4.3515;display:block;fill:#d3d7cf" d="m36.857 14.071a12.857 5.5 0 1 1 -25.714 0 12.857 5.5 0 1 1 25.714 0z" transform="matrix(.27490 0 0 .19211 10.388 1.6684)"/>
  <g id="g3814" transform="translate(-45.004 -5.9365)">
   <path id="rect2393" style="color:#000000;stroke:#848781;stroke-miterlimit:10;display:block;fill:url(#radialGradient3825)" d="m79.191 28.438c-6.5 0.16-11.686 5.334-11.686 11.733v0.28c-0.002 0.009 0.001 0.035 0 0.044-0.001 0.004 0 0.017 0 0.021v8.671c-0.004 0.169 0.157 0.325 0.292 0.317 0 0 22.859 0.036 22.859 0.036 0.397-0.022 0.85-0.236 0.861-0.7 0 0-0.022-8.324-0.022-8.324 0-0.004 0.001-0.017 0-0.021-0.001-0.009 0.002-0.035 0-0.044v-0.28c0-6.5-5.35-11.733-11.995-11.733-0.104 0-0.206-0.003-0.309 0z"/>
   <rect id="rect2391" style="color:#000000;stroke:#888a85;stroke-miterlimit:10;display:block;fill:url(#linearGradient3827)" rx=".38128" ry=".38128" height="6.9925" width="20.013" y="40.527" x="69.483"/>
   <path id="path3297" style="opacity:.48901;color:#000000;display:block;fill:url(#radialGradient3829)" d="m72.832 14.854a3.5355 5.5685 0 1 1 -7.071 0 3.5355 5.5685 0 1 1 7.071 0z" transform="matrix(.7 0 0 .7 37.133 35.091)"/>
   <path id="path3287" style="opacity:.48901;color:#000000;display:block;fill:url(#radialGradient3829)" d="m72.832 14.854a3.5355 5.5685 0 1 1 -7.071 0 3.5355 5.5685 0 1 1 7.071 0z" transform="matrix(.7 0 0 .7 25.151 35.091)"/>
   <path id="path3319" style="opacity:.58242;color:#000000;stroke:#fff;stroke-miterlimit:10;display:block;fill:none" d="m79.311 29.483c-5.906 0.144-10.751 4.804-10.751 10.566 0 0-0.044 8.438-0.044 8.442 0 0 21.997 0.005 21.997 0.005l-0.022-8.447c0-5.854-4.861-10.566-10.899-10.566-0.094 0-0.187-0.003-0.281 0z"/>
   <rect id="rect3283" style="color:#000000;stroke:#888a85;stroke-miterlimit:10;display:block;fill:#babdb6" rx=".38128" ry=".38128" height="9.9702" width="2.0418" y="42.462" x="84.471"/>
   <rect id="rect3808" style="opacity:.68132;color:#000000;display:block;fill:#fff" height="6" width="1" y="46" x="85"/>
   <rect id="rect3810" style="color:#000000;stroke:#888a85;stroke-miterlimit:10;display:block;fill:#babdb6" rx=".38128" ry=".38128" height="9.9702" width="2.0418" y="42.462" x="72.5"/>
   <rect id="rect3812" style="opacity:.68132;color:#000000;display:block;fill:#fff" height="6" width="1" y="46" x="73.029"/>
  </g>
  <path id="path3914" style="color:#000000;stroke:#edd400;stroke-miterlimit:10;display:block;fill:#fff" d="m18.01 18.576l-5.54 6.362h3.989l-2.063 5.895 6.051-7.474h-4.222l1.785-4.783z"/>
  <path id="path3912" style="color:#000000;display:block;fill:#fff" d="m18.01 18.576l-5.54 6.362h3.989l-2.063 5.895 6.051-7.474h-4.222l1.785-4.783z"/>
 </g>
</svg>
