<?xml version="1.0" encoding="UTF-8" standalone="no"?>
<!-- Created with Inkscape (http://www.inkscape.org/) -->
<svg id="svg2913" xmlns="http://www.w3.org/2000/svg" height="48" width="48" version="1.0" xmlns:xlink="http://www.w3.org/1999/xlink">
 <defs id="defs3">
  <radialGradient id="radialGradient4250" gradientUnits="userSpaceOnUse" cy="-1.8973" cx="17.798" gradientTransform="matrix(.63168 .013886 -.010631 .48582 5.2101 4.6746)" r="20.936">
   <stop id="stop4246" style="stop-color:#fff" offset="0"/>
   <stop id="stop4248" style="stop-color:#d3d3d3" offset="1"/>
  </radialGradient>
  <radialGradient id="radialGradient4270" gradientUnits="userSpaceOnUse" cy="27.096" cx="23.202" gradientTransform="matrix(1 0 0 .65103 0 9.4557)" r="23.555">
   <stop id="stop4266" offset="0"/>
   <stop id="stop4268" style="stop-opacity:0" offset="1"/>
  </radialGradient>
  <radialGradient id="radialGradient4093" gradientUnits="userSpaceOnUse" cy="26.583" cx="15.5" gradientTransform="matrix(1.5328 0 0 1.5827 -7.2578 -20.075)" r="11.5">
   <stop id="stop4089" style="stop-color:#fff" offset="0"/>
   <stop id="stop4091" style="stop-color:#fff;stop-opacity:0" offset="1"/>
  </radialGradient>
  <linearGradient id="linearGradient4103" y2="27.5" gradientUnits="userSpaceOnUse" x2="15.5" gradientTransform="translate(1)" y1="34.375" x1="15.5">
   <stop id="stop4099" style="stop-color:#fff" offset="0"/>
   <stop id="stop4101" style="stop-color:#878787" offset="1"/>
  </linearGradient>
  <linearGradient id="linearGradient4298" y2="24.503" gradientUnits="userSpaceOnUse" x2="27.996" gradientTransform="translate(1)" y1="24.503" x1="2.9959">
   <stop id="stop4294" style="stop-color:#aeb6a7" offset="0"/>
   <stop id="stop4300" style="stop-color:#dfe3dc" offset=".5"/>
   <stop id="stop4296" style="stop-color:#a9b1a2" offset="1"/>
  </linearGradient>
  <radialGradient id="radialGradient2377" gradientUnits="userSpaceOnUse" cy="34.418" cx="41.245" gradientTransform="matrix(1.254 0 0 1.254 -10.361 -8.5675)" r=".98438">
   <stop id="stop2675" style="stop-color:#fff" offset="0"/>
   <stop id="stop2677" style="stop-color:#888a85" offset="1"/>
  </radialGradient>
  <linearGradient id="linearGradient3982" y2="15.815" gradientUnits="userSpaceOnUse" x2="20.917" y1="33.955" x1="21.994">
   <stop id="stop3959" style="stop-color:#fffeff;stop-opacity:.33333" offset="0"/>
   <stop id="stop3961" style="stop-color:#fffeff;stop-opacity:.21569" offset="1"/>
  </linearGradient>
  <linearGradient id="linearGradient3980" y2="-8.5627" gradientUnits="userSpaceOnUse" x2="20.065" y1="53.836" x1="43.936">
   <stop id="stop2481" style="stop-color:#ffe69b" offset="0"/>
   <stop id="stop2483" style="stop-color:#fff" offset="1"/>
  </linearGradient>
  <linearGradient id="linearGradient3978" y2="5.541" gradientUnits="userSpaceOnUse" x2="19.071" y1="66.288" x1="36.918">
   <stop id="stop2538" style="stop-color:#a40000" offset="0"/>
   <stop id="stop2540" style="stop-color:#ff1717" offset="1"/>
  </linearGradient>
 </defs>
 <g id="layer2">
  <path id="path4262" style="opacity:0.56;color:#000000;fill-rule:evenodd;fill:url(#radialGradient4270)" d="m46.757 27.096a23.555 15.335 0 1 1 -47.111 0 23.555 15.335 0 1 1 47.111 0z" transform="matrix(.52820 0 0 .36311 3.3029 32.73)"/>
  <path id="path4196" style="stroke-linejoin:round;fill-rule:evenodd;stroke:#888a85;stroke-linecap:round;fill:url(#linearGradient4298)" d="m10.543 3.5119c-0.6298 0-0.9762 0.0442-1.2912 0.5478 0 0-4.3779 5.3202-4.3779 5.3202-0.378 0.3793-0.378 0.9091-0.378 2.0451v32.406c0 1.108 0.663 1.663 1.6693 1.663h20.725c0.992 0 1.606-0.735 1.606-1.887v-32.406c0-0.415-0.063-1.001-0.409-1.5044l-4.252-5.5401c-0.438-0.5242-0.831-0.6324-1.323-0.6446h-11.969z"/>
  <path id="path3093" style="fill:url(#radialGradient4250);fill-rule:evenodd" d="m5.5354 9.3474c-0.6295 1.2906-0.188 1.6716 0.7253 1.6716l20.32 0.031c0.986-0.021 1.439-0.454 0.884-1.1385l-4.227-5.2801c-0.287-0.4199-0.452-0.6209-0.882-0.6314h-11.744c-0.55 0-0.9123 0.2676-1.1326 0.7555 0 0-3.944 4.5919-3.944 4.5919z"/>
  <path id="path2671" style="color:#000000;fill-rule:evenodd;fill:url(#radialGradient2377)" d="m42 33.984a0.98438 0.98438 0 1 1 -1.969 0 0.98438 0.98438 0 1 1 1.969 0z" transform="matrix(2.0317 0 0 2.0317 -60.333 -29.048)"/>
  <path id="path4081" style="stroke-linejoin:round;stroke:#fff;stroke-linecap:round;fill:none" d="m10.646 4.5129c-0.588 0-0.443 0.0421-0.8001 0.3967 0 0-4.1539 5.0041-4.1539 5.0041-0.3532 0.3613-0.1969 0.9283-0.1969 1.4473v31.549c0 1.055 0.6195 1.584 1.56 1.584h19.526c1.052 0 0.901-0.566 0.91-1.267v-32.048c0-0.472-0.184-0.84-0.353-0.985l-3.57-5.0672c-0.409-0.4992-0.777-0.6023-1.236-0.6139h-11.686z"/>
  <rect id="rect4083" style="color:#000000;fill-rule:evenodd;fill:#fff" height="1.0313" width="22.406" y="9.9688" x="5"/>
  <path id="path4085" style="opacity:.79121;color:#000000;fill-rule:evenodd;fill:url(#radialGradient4093)" d="m5 11h23s-5.875 12-11.625 12-11.375-12-11.375-12z"/>
  <rect id="rect4095" style="opacity:.79121;stroke-linejoin:round;fill-rule:evenodd;color:#000000;stroke:url(#linearGradient4103);fill:#ccc" rx="2.25" ry="2.25" height="7" width="7" y="28" x="13"/>
  <path id="path2375" style="color:#000000;fill-rule:evenodd;fill:#cee14b" d="m42 33.984a0.98438 0.98438 0 1 1 -1.969 0 0.98438 0.98438 0 1 1 1.969 0z" transform="matrix(1.0159 0 0 1.0159 -18.667 5.4761)"/>
  <g id="g1491" transform="matrix(.50181 0 0 .50181 23.178 18.427)">
   <g id="layer1">
    <g id="g4006">
     <path id="path1314" style="stroke:#b20000;stroke-width:2.1649;fill:url(#linearGradient3978)" d="m46.857 23.929a23.357 23.357 0 1 1 -46.714 0 23.357 23.357 0 1 1 46.714 0z" transform="matrix(.92049 0 0 .92049 2.3685 .97408)"/>
     <path id="path3560" style="opacity:.34659;fill-opacity:0;stroke:url(#linearGradient3980);stroke-width:2.478" d="m49.902 26.635a23.991 23.991 0 1 1 -47.983 0 23.991 23.991 0 1 1 47.983 0z" transform="matrix(.80418 0 0 .80418 3.1634 1.5805)"/>
    </g>
   </g>
   <g id="layer3">
    <path id="rect2070" style="fill:#efefef" d="m21.158 27.489l-0.453-20.603 5.886 0.0004-0.389 20.603h-5.044z"/>
   </g>
   <g id="layer4">
    <path id="path3955" style="fill:url(#linearGradient3982)" d="m43.371 21.715c0 10.831-10.355-6.266-18.675 0.387-8.126 6.497-20.597 12.19-20.597 1.36 0-11.084 8.695-21.367 19.526-21.367 10.831-0.0002 19.746 8.79 19.746 19.62z" transform="matrix(1.003 0 0 1.003 -.071859 .019684)"/>
   </g>
  </g>
  <path id="path4327" style="color:#000000;fill-rule:evenodd;fill:#efefef" d="m35.797 38.542a1.8562 1.8562 0 1 1 -3.712 0 1.8562 1.8562 0 1 1 3.712 0z" transform="translate(1.1919 -3.1768)"/>
 </g>
</svg>
