<?xml version="1.0" encoding="UTF-8" standalone="no"?>
<!-- Created with Inkscape (http://www.inkscape.org/) -->
<svg id="svg1328" xmlns="http://www.w3.org/2000/svg" height="48" width="48" version="1.0" xmlns:xlink="http://www.w3.org/1999/xlink">
 <defs id="defs3">
  <linearGradient id="linearGradient2981" y2="52.536" gradientUnits="userSpaceOnUse" x2="18.177" gradientTransform="matrix(1.1299 0 0 .89911 0 1.5553)" y1="48.643" x1="18.317">
   <stop id="stop2247" style="stop-color:#dde1d9" offset="0"/>
   <stop id="stop2249" style="stop-color:#cacdc6" offset="1"/>
  </linearGradient>
  <linearGradient id="linearGradient2758" y2="100.2" xlink:href="#linearGradient2752" gradientUnits="userSpaceOnUse" x2="8.1134" gradientTransform="matrix(2.0128 0 0 .43293 4.4898 2)" y1="88.509" x1="8.1134"/>
  <linearGradient id="linearGradient1411" y2="100.2" xlink:href="#linearGradient2752" gradientUnits="userSpaceOnUse" x2="8.1134" gradientTransform="matrix(2.247 0 0 .43293 .94758 2)" y1="88.509" x1="8.1134"/>
  <linearGradient id="linearGradient2752">
   <stop id="stop2754" style="stop-color:#9d9d9d" offset="0"/>
   <stop id="stop2756" style="stop-color:#b9b9b9" offset="1"/>
  </linearGradient>
  <linearGradient id="linearGradient1409" y2="100.2" xlink:href="#linearGradient2752" gradientUnits="userSpaceOnUse" x2="8.1134" gradientTransform="matrix(2.3099 0 0 .43293 0 2)" y1="88.509" x1="8.1134"/>
  <linearGradient id="linearGradient2741" y2="74.098" gradientUnits="userSpaceOnUse" x2="8.6485" gradientTransform="matrix(2.1436 0 0 .48071 1 .57421)" y1="101.28" x1="13.629">
   <stop id="stop2637" style="stop-color:#f9fff5" offset="0"/>
   <stop id="stop2639" style="stop-color:#f9fff5;stop-opacity:0" offset="1"/>
  </linearGradient>
  <linearGradient id="linearGradient3233">
   <stop id="stop3235" style="stop-color:#eeeeec" offset="0"/>
   <stop id="stop3237" style="stop-color:#a3a398" offset="1"/>
  </linearGradient>
  <linearGradient id="linearGradient4126">
   <stop id="stop4128" offset="0"/>
   <stop id="stop4130" style="stop-opacity:0" offset="1"/>
  </linearGradient>
  <radialGradient id="radialGradient4132" xlink:href="#linearGradient4126" gradientUnits="userSpaceOnUse" cy="40" cx="23.857" gradientTransform="matrix(1 0 0 .5 0 20)" r="17.143"/>
  <linearGradient id="linearGradient4140" y2="26.719" gradientUnits="userSpaceOnUse" x2="38.826" gradientTransform="matrix(.76565 0 0 .77902 -3.9201 -3.0511)" y1="26.719" x1="9.3031">
   <stop id="stop4136" style="stop-color:#d6d7d5" offset="0"/>
   <stop id="stop4148" style="stop-color:#d1d2d0" offset=".25"/>
   <stop id="stop4142" style="stop-color:#a5a6a3" offset=".5"/>
   <stop id="stop4138" style="stop-color:#dddedc" offset="1"/>
  </linearGradient>
  <linearGradient id="linearGradient4182" y2="56.576" gradientUnits="userSpaceOnUse" x2="37.969" gradientTransform="matrix(.74726 0 0 .78013 -3.4746 -3.056)" y1="14.004" x1="17.16">
   <stop id="stop4178" style="stop-color:#fff" offset="0"/>
   <stop id="stop4180" style="stop-color:#fff;stop-opacity:0" offset="1"/>
  </linearGradient>
  <linearGradient id="linearGradient6930" y2="30" gradientUnits="userSpaceOnUse" x2="15.786" gradientTransform="matrix(.78582 0 0 .78582 -4.4264 -1.1109)" y1="19.5" x1="16.071">
   <stop id="stop6926" style="stop-color:#fff" offset="0"/>
   <stop id="stop6928" style="stop-color:#fff;stop-opacity:0" offset="1"/>
  </linearGradient>
  <linearGradient id="linearGradient3239" y2="8.0477" xlink:href="#linearGradient3233" gradientUnits="userSpaceOnUse" x2="23.434" y1="17.246" x1="24"/>
  <linearGradient id="linearGradient3253" y2="29.918" gradientUnits="userSpaceOnUse" x2="34.244" gradientTransform="matrix(.78582 0 0 .78582 -4.2348 -1.7612)" y1="17.695" x1="34.244">
   <stop id="stop3249" style="stop-color:#f0f0f0" offset="0"/>
   <stop id="stop3251" style="stop-color:#f0f0f0;stop-opacity:0" offset="1"/>
  </linearGradient>
  <linearGradient id="linearGradient3344" y2="33.489" gradientUnits="userSpaceOnUse" x2="30.452" gradientTransform="matrix(.72292 0 0 .78582 -2.857 -1.7612)" y1="33.489" x1="11.003">
   <stop id="stop3340" style="stop-color:#c00" offset="0"/>
   <stop id="stop3346" style="stop-color:#ff5858" offset=".5"/>
   <stop id="stop3342" style="stop-color:#c00" offset="1"/>
  </linearGradient>
  <linearGradient id="linearGradient3354" y2="8.0244" gradientUnits="userSpaceOnUse" x2="24" y1="18.133" x1="24">
   <stop id="stop3350" style="stop-color:#ff4949" offset="0"/>
   <stop id="stop3352" style="stop-color:#ffb1b1" offset="1"/>
  </linearGradient>
  <linearGradient id="linearGradient3362" y2="20.118" gradientUnits="userSpaceOnUse" x2="24" y1="10.397" x1="24">
   <stop id="stop3358" style="stop-color:#ff4141" offset="0"/>
   <stop id="stop3360" style="stop-color:#ff9d9d" offset="1"/>
  </linearGradient>
 </defs>
 <g id="layer1">
  <path id="path3366" style="color:#000000;display:block;fill:url(#radialGradient4132)" d="m41 40a17.143 8.5714 0 1 1 -34.286 0 17.143 8.5714 0 1 1 34.286 0z" transform="matrix(.83199 0 0 .90469 -5.1117 -7.837)"/>
  <path id="path3068" style="color:#000000;stroke:#767973;stroke-miterlimit:10;display:block;fill:url(#linearGradient4140)" d="m14.408 3.887c-6.0179 0-10.911 2.1833-10.911 4.8689 0.0001 0.1928 0.0001 17.814 0.0001 18.015 0 2.686 4.893 4.869 10.911 4.869 6.017 0 11.105-2.183 11.105-4.869v-18.015c0-2.6858-5.088-4.869-11.105-4.869z"/>
  <path id="path4174" style="opacity:.54430;color:#000000;stroke:url(#linearGradient4182);stroke-miterlimit:10;display:block;fill:none" d="m14.419 4.5c-5.4754 0-9.9277 2.0384-9.9277 4.546v17.261c0 2.508 4.4523 4.546 9.9277 4.546 5.476 0 10.106-2.038 10.106-4.546v-17.261c0-2.5076-4.63-4.546-10.106-4.546z"/>
  <path id="path3364" style="opacity:.46703;color:#000000;stroke:url(#linearGradient3239);stroke-miterlimit:10;stroke-width:1.2885;display:block;fill:#f0f0f0" d="m36.857 14.071a12.857 5.5 0 1 1 -25.714 0 12.857 5.5 0 1 1 25.714 0z" transform="matrix(.79266 0 0 .75988 -4.7015 -2.0155)"/>
  <path id="path6944" style="opacity:.30769;color:#000000;display:block;fill:url(#radialGradient4132)" d="m41 40a17.143 8.5714 0 1 1 -34.286 0 17.143 8.5714 0 1 1 34.286 0z" transform="matrix(.28559 0 0 .28559 7.6307 -5.4171)"/>
  <path id="path3362" style="color:#000000;stroke:#7d7f7a;stroke-miterlimit:10;display:block;fill:#9d9e9b" d="m14.695 2.7062c-1.573 0-3.639 0.5612-3.639 1.2516v2.0664c0 0.6904 2.066 1.2516 3.639 1.2516 1.574 0 3.466-0.5612 3.466-1.2516v-2.0664c0-0.6904-1.892-1.2516-3.466-1.2516z"/>
  <path id="path6940" style="color:#000000;display:block;stroke:url(#linearGradient3239);stroke-miterlimit:10;stroke-width:5.5672;fill:#d3d7cf" d="m36.857 14.071a12.857 5.5 0 1 1 -25.714 0 12.857 5.5 0 1 1 25.714 0z" transform="matrix(.21373 0 0 .15096 9.4931 2.0527)"/>
  <path id="path3241" style="opacity:.23626;color:#000000;display:block;stroke:url(#linearGradient3239);stroke-miterlimit:10;stroke-width:1.2904;fill:#d3d7cf" d="m36.857 14.071a12.857 5.5 0 1 1 -25.714 0 12.857 5.5 0 1 1 25.714 0z" transform="matrix(.78677 0 0 .76334 -4.4807 16.013)"/>
  <path id="path3245" style="opacity:.68681;color:#000000;display:block;fill:url(#linearGradient3253)" d="m23.945 7.4212c-0.871-0.7741-1.608-1.0098-2.381-1.3892l0.238 14.685 2.143 2.541v-15.837z"/>
  <path id="path3275" style="opacity:.61538;color:#000000;stroke:#a40000;stroke-miterlimit:10;stroke-width:.99622;display:block;fill:url(#linearGradient3344)" d="m14.036 20.651c-4.774 0.106-8.5786 1.839-8.5786 3.952v1.479c0 2.18 4.0336 3.951 9.0236 3.951s9.045-1.771 9.045-3.951v-1.479c0-2.181-4.055-3.952-9.045-3.952-0.156 0-0.291-0.003-0.445 0z"/>
  <path id="path3277" style="color:#000000;stroke:url(#linearGradient3362);stroke-miterlimit:10;stroke-width:1.4077;display:block;fill:url(#linearGradient3354)" d="m36.857 14.071a12.857 5.5 0 1 1 -25.714 0 12.857 5.5 0 1 1 25.714 0z" transform="matrix(.70254 0 0 .71827 -2.3695 14.5)"/>
  <path id="path6922" style="color:#000000;display:block;fill:url(#linearGradient6930)" d="m6.4067 12.304l0.2807 13.191 3.5926 1.01-0.113-13.134s1.628 0 4.266-0.169c-5.2096 0.135-8.2321-1.309-10.384-3.087 1.1137 1.644 2.3577 2.189 2.3577 2.189z"/>
  <path id="path2409" style="fill-rule:evenodd;color:#000000;stroke:#888a85;fill:url(#linearGradient2981)" d="m9.0879 30.527h31.002c1.12 0 0.978 0.477 1.093 1.077l2.834 14.811c0.115 0.6 0.027 1.077-1.092 1.077h-36.672c-1.119 0-1.2068-0.477-1.0919-1.077l2.8346-14.811c0.1149-0.6-0.027-1.077 1.0922-1.077z"/>
  <path id="path2611" style="fill:#7a7d77;fill-rule:evenodd" d="m9.7197 34l-1.7197 8.871h5.331l0.516-3.518h14.445l0.535 3.591h6l-1.634-8.944h-23.473z"/>
  <path id="path2613" style="fill:#777874;fill-rule:evenodd" d="m13.702 39.965l-0.442 2.906h14.761l-0.442-3.059-13.877 0.153z"/>
  <path id="path2619" style="color:#000000;fill-rule:evenodd;fill:#777a75" d="m39.537 34l1.463 8.719-4.775-0.153-1.31-8.413 4.622-0.153z"/>
  <path id="path2615" style="color:#000000;fill-rule:evenodd;fill:url(#linearGradient2758)" d="m39.537 33.082l1.463 8.719-4.775-0.153-1.31-8.413 4.622-0.153z"/>
  <path id="path2617" style="fill:url(#linearGradient1411);fill-rule:evenodd" d="m9.7197 32.929l-1.7197 8.872h5.331l0.516-3.518h14.445l0.535 3.591h6l-1.634-8.945h-23.473z"/>
  <path id="path2621" style="color:#000000;fill-rule:evenodd;fill:url(#linearGradient1409)" d="m13.702 39.048l-0.442 2.906h14.761l-0.442-3.059-13.877 0.153z"/>
  <path id="path2631" style="stroke-linejoin:round;color:#000000;stroke:url(#linearGradient2741);stroke-width:.5;fill:none" d="m8.7536 31.843h31.825l2.638 14.431h-37.262l2.7986-14.431z"/>
  <path id="path2460" style="fill-rule:evenodd;color:#000000;stroke:#888a85;fill:#dde1d9" d="m35 30.411c0.953-2.438 0.683-6.913 1-10.411 0.281 3.841 0.296 9.411 1 10.499l-2-0.088z"/>
  <path id="path3335" style="fill-rule:evenodd;color:#000000;stroke:#2e3436;fill:#555753" d="m37.388 20.246a1.591 1.591 0 1 1 -3.182 0 1.591 1.591 0 1 1 3.182 0z" transform="translate(.29371 -.33705)"/>
  <path id="path3235" style="color:#000000;stroke:#babdb6;stroke-linecap:round;fill:none" d="m45.016 9.3977c-2.337-2.3355-5.569-3.7709-9.11-3.7709s-6.772 1.4354-9.109 3.7709"/>
  <path id="path3233" style="color:#000000;stroke:#babdb6;stroke-linecap:round;fill:none" d="m42.135 12.279c-1.598-1.598-3.808-2.5847-6.229-2.5847s-4.63 0.9867-6.228 2.5847"/>
  <path id="path3227" style="color:#000000;stroke:#babdb6;stroke-linecap:round;fill:none" d="m39.253 15.16c-0.861-0.861-2.042-1.398-3.347-1.398s-2.486 0.537-3.347 1.398"/>
 </g>
</svg>
