<?xml version="1.0" encoding="UTF-8" standalone="no"?>
<!-- Created with Inkscape (http://www.inkscape.org/) -->
<svg id="svg2913" xmlns="http://www.w3.org/2000/svg" height="48" width="48" version="1.0" xmlns:xlink="http://www.w3.org/1999/xlink">
 <defs id="defs3">
  <radialGradient id="radialGradient4250" gradientUnits="userSpaceOnUse" cy="-1.8973" cx="17.798" gradientTransform="matrix(.63168 .013886 -.010631 .48582 4.2101 4.6746)" r="20.936">
   <stop id="stop4246" style="stop-color:#fff" offset="0"/>
   <stop id="stop4248" style="stop-color:#d3d3d3" offset="1"/>
  </radialGradient>
  <radialGradient id="radialGradient4270" gradientUnits="userSpaceOnUse" cy="27.096" cx="23.202" gradientTransform="matrix(1 0 0 .65103 0 9.4557)" r="23.555">
   <stop id="stop4266" offset="0"/>
   <stop id="stop4268" style="stop-opacity:0" offset="1"/>
  </radialGradient>
  <radialGradient id="radialGradient4093" gradientUnits="userSpaceOnUse" cy="26.583" cx="15.5" gradientTransform="matrix(1.5328 0 0 1.5827 -8.2578 -20.075)" r="11.5">
   <stop id="stop4089" style="stop-color:#fff" offset="0"/>
   <stop id="stop4091" style="stop-color:#fff;stop-opacity:0" offset="1"/>
  </radialGradient>
  <linearGradient id="linearGradient4103" y2="27.5" gradientUnits="userSpaceOnUse" x2="15.5" y1="34.375" x1="15.5">
   <stop id="stop4099" style="stop-color:#fff" offset="0"/>
   <stop id="stop4101" style="stop-color:#878787" offset="1"/>
  </linearGradient>
  <linearGradient id="linearGradient4298" y2="24.503" gradientUnits="userSpaceOnUse" x2="27.996" y1="24.503" x1="2.9959">
   <stop id="stop4294" style="stop-color:#aeb6a7" offset="0"/>
   <stop id="stop4300" style="stop-color:#dfe3dc" offset=".5"/>
   <stop id="stop4296" style="stop-color:#a9b1a2" offset="1"/>
  </linearGradient>
  <linearGradient id="linearGradient4310" y2="20.639" gradientUnits="userSpaceOnUse" x2="37.715" gradientTransform="matrix(.99833 0 0 1.0042 .053436 -.010477)" y1="5.1707" x1="38.187">
   <stop id="stop4306" style="stop-color:#ccc" offset="0"/>
   <stop id="stop4308" style="stop-color:#e2e2e2" offset="1"/>
  </linearGradient>
  <radialGradient id="radialGradient2377" gradientUnits="userSpaceOnUse" cy="34.418" cx="41.245" gradientTransform="matrix(1.254 0 0 1.254 -10.361 -8.5675)" r=".98438">
   <stop id="stop2675" style="stop-color:#fff" offset="0"/>
   <stop id="stop2677" style="stop-color:#888a85" offset="1"/>
  </radialGradient>
  <linearGradient id="linearGradient2515" y2="25.179" gradientUnits="userSpaceOnUse" x2="39.005" gradientTransform="matrix(1 0 0 1.8785 .010023 -38.517)" y1="42.177" x1="39.005">
   <stop id="stop2526" style="stop-color:#204a87" offset="0"/>
   <stop id="stop2528" style="stop-color:#3970b6" offset="1"/>
  </linearGradient>
 </defs>
 <g id="layer2">
  <path id="path4262" style="opacity:0.56;color:#000000;fill-rule:evenodd;fill:url(#radialGradient4270)" d="m46.757 27.096a23.555 15.335 0 1 1 -47.111 0 23.555 15.335 0 1 1 47.111 0z" transform="matrix(.52820 0 0 .36311 2.3029 32.73)"/>
  <path id="path4196" style="stroke-linejoin:round;fill-rule:evenodd;stroke:#888a85;stroke-linecap:round;fill:url(#linearGradient4298)" d="m9.5432 3.5119c-0.63 0-0.9764 0.0442-1.2914 0.5478 0 0-4.3779 5.3202-4.3779 5.3202-0.378 0.3793-0.378 0.9091-0.378 2.0451v32.406c0 1.108 0.663 1.663 1.6693 1.663h20.725c0.992 0 1.606-0.735 1.606-1.887v-32.406c0-0.415-0.063-1.001-0.409-1.5044l-4.252-5.5401c-0.438-0.5242-0.831-0.6324-1.323-0.6446h-11.969z"/>
  <path id="path3093" style="fill:url(#radialGradient4250);fill-rule:evenodd" d="m4.5354 9.3474c-0.6295 1.2906-0.188 1.6716 0.7253 1.6716l20.32 0.031c0.986-0.021 1.439-0.454 0.884-1.1385l-4.227-5.2801c-0.287-0.4199-0.452-0.6209-0.882-0.6314h-11.744c-0.5504 0-0.9123 0.2676-1.1326 0.7555 0 0-3.944 4.5919-3.944 4.5919z"/>
  <path id="path2671" style="color:#000000;fill-rule:evenodd;fill:url(#radialGradient2377)" d="m42 33.984a0.98438 0.98438 0 1 1 -1.969 0 0.98438 0.98438 0 1 1 1.969 0z" transform="matrix(2.0317 0 0 2.0317 -61.333 -29.048)"/>
  <path id="path4081" style="stroke-linejoin:round;stroke:#fff;stroke-linecap:round;fill:none" d="m9.6465 4.5129c-0.5887 0-0.4437 0.0421-0.8006 0.3967 0 0-4.1539 5.0041-4.1539 5.0041-0.3532 0.3613-0.1969 0.9283-0.1969 1.4473v31.549c0 1.055 0.6195 1.584 1.56 1.584h19.526c1.052 0 0.901-0.566 0.91-1.267v-32.048c0-0.472-0.184-0.84-0.353-0.985l-3.57-5.0672c-0.409-0.4992-0.777-0.6023-1.236-0.6139h-11.686z"/>
  <rect id="rect4083" style="color:#000000;fill-rule:evenodd;fill:#fff" height="1.0313" width="22.406" y="9.9688" x="4"/>
  <path id="path4085" style="opacity:.79121;color:#000000;fill-rule:evenodd;fill:url(#radialGradient4093)" d="m4 11h23s-5.875 12-11.625 12-11.375-12-11.375-12z"/>
  <rect id="rect4095" style="opacity:.79121;stroke-linejoin:round;fill-rule:evenodd;color:#000000;stroke:url(#linearGradient4103);fill:#ccc" rx="2.25" ry="2.25" height="7" width="7" y="28" x="12"/>
  <rect id="rect4302" style="stroke-linejoin:round;fill-rule:evenodd;color:#000000;stroke:#888a85;fill:url(#linearGradient4310)" rx="1.3661" ry="1.3661" height="42.998" width="13.002" y="2.5" x="32.499"/>
  <rect id="rect4312" style="opacity:.78022;stroke-linejoin:round;color:#000000;stroke:#fff;fill:none" rx=".39384" ry=".39384" height="40.92" width="11.143" y="3.5263" x="33.429"/>
  <path id="path2375" style="color:#000000;fill-rule:evenodd;fill:#cee14b" d="m42 33.984a0.98438 0.98438 0 1 1 -1.969 0 0.98438 0.98438 0 1 1 1.969 0z" transform="matrix(1.0159 0 0 1.0159 -19.667 5.4761)"/>
  <rect id="rect2513" style="stroke-linejoin:round;fill-rule:evenodd;color:#000000;stroke:#204a87;fill:url(#linearGradient2515)" rx="0" ry="0" height="36.876" width="9.0294" y="6.6197" x="34.5"/>
  <rect id="rect1397" style="opacity:.5;stroke:#fff;fill:none" height="34.989" width="7.0405" y="7.5062" x="35.494"/>
 </g>
</svg>
