<?xml version="1.0" encoding="UTF-8" standalone="no"?>
<!-- Created with Inkscape (http://www.inkscape.org/) -->
<svg id="svg1328" xmlns="http://www.w3.org/2000/svg" height="48" width="48" version="1.0" xmlns:xlink="http://www.w3.org/1999/xlink">
 <defs id="defs3">
  <linearGradient id="linearGradient3233">
   <stop id="stop3235" style="stop-color:#eeeeec" offset="0"/>
   <stop id="stop3237" style="stop-color:#a3a398" offset="1"/>
  </linearGradient>
  <linearGradient id="linearGradient4126">
   <stop id="stop4128" offset="0"/>
   <stop id="stop4130" style="stop-opacity:0" offset="1"/>
  </linearGradient>
  <radialGradient id="radialGradient4132" xlink:href="#linearGradient4126" gradientUnits="userSpaceOnUse" cy="40" cx="23.857" gradientTransform="matrix(1 0 0 .5 0 20)" r="17.143"/>
  <linearGradient id="linearGradient3255" y2="8.0477" xlink:href="#linearGradient3233" gradientUnits="userSpaceOnUse" x2="23.434" y1="17.246" x1="24"/>
  <linearGradient id="linearGradient2572" y2="26.719" gradientUnits="userSpaceOnUse" x2="38.826" gradientTransform="matrix(.57369 0 0 .61709 49.874 -4.038)" y1="26.719" x1="9.3031">
   <stop id="stop4136" style="stop-color:#d6d7d5" offset="0"/>
   <stop id="stop4148" style="stop-color:#d1d2d0" offset=".25"/>
   <stop id="stop4142" style="stop-color:#a5a6a3" offset=".5"/>
   <stop id="stop4138" style="stop-color:#dddedc" offset="1"/>
  </linearGradient>
  <linearGradient id="linearGradient2574" y2="56.576" gradientUnits="userSpaceOnUse" x2="37.969" gradientTransform="matrix(.55991 0 0 .61796 50.208 -4.0419)" y1="14.004" x1="17.16">
   <stop id="stop4178" style="stop-color:#fff" offset="0"/>
   <stop id="stop4180" style="stop-color:#fff;stop-opacity:0" offset="1"/>
  </linearGradient>
  <linearGradient id="linearGradient2576" y2="29.918" gradientUnits="userSpaceOnUse" x2="34.244" gradientTransform="matrix(.58880 0 0 .62248 49.638 -3.0162)" y1="17.695" x1="34.244">
   <stop id="stop3249" style="stop-color:#f0f0f0" offset="0"/>
   <stop id="stop3251" style="stop-color:#f0f0f0;stop-opacity:0" offset="1"/>
  </linearGradient>
  <linearGradient id="linearGradient2578" y2="32.489" gradientUnits="userSpaceOnUse" x2="32.397" gradientTransform="matrix(.75747 0 0 .79213 52.622 -3.3085)" y1="32.489" x1="11.003">
   <stop id="stop3807" style="stop-color:#284e7f" offset="0"/>
   <stop id="stop3813" style="stop-color:#6694cf" offset=".5"/>
   <stop id="stop3809" style="stop-color:#234570" offset="1"/>
  </linearGradient>
  <linearGradient id="linearGradient2580" y2="5.5617" gradientUnits="userSpaceOnUse" x2="21.756" y1="25.114" x1="21.487">
   <stop id="stop3262" style="stop-color:#3465a4" offset="0"/>
   <stop id="stop3264" style="stop-color:#8fb1dc" offset="1"/>
  </linearGradient>
  <linearGradient id="linearGradient2582" y2="20.118" gradientUnits="userSpaceOnUse" x2="25.573" y1="11.17" x1="25.698">
   <stop id="stop3817" style="stop-color:#204a87" offset="0"/>
   <stop id="stop3819" style="stop-color:#98b8e7" offset="1"/>
  </linearGradient>
  <linearGradient id="linearGradient2588" y2="30" gradientUnits="userSpaceOnUse" x2="15.786" gradientTransform="matrix(.58880 0 0 .62248 49.495 -2.501)" y1="19.5" x1="16.071">
   <stop id="stop6926" style="stop-color:#fff" offset="0"/>
   <stop id="stop6928" style="stop-color:#fff;stop-opacity:0" offset="1"/>
  </linearGradient>
  <linearGradient id="linearGradient7094" y2="19.938" gradientUnits="userSpaceOnUse" x2="26.5" y1="7.6875" x1="21.812">
   <stop id="stop7090" style="stop-color:#fff" offset="0"/>
   <stop id="stop7092" style="stop-color:#fff;stop-opacity:0" offset="1"/>
  </linearGradient>
  <linearGradient id="linearGradient6122" y2="41" xlink:href="#linearGradient8000" gradientUnits="userSpaceOnUse" x2="64.5" gradientTransform="matrix(1 0 0 -1 -38 50.059)" y1="42.625" x1="64.562"/>
  <linearGradient id="linearGradient6118" y2="41" xlink:href="#linearGradient8000" gradientUnits="userSpaceOnUse" x2="64.5" gradientTransform="matrix(1 0 0 -1 -40 50.059)" y1="42.625" x1="64.562"/>
  <linearGradient id="linearGradient7532" y2="52.811" gradientUnits="userSpaceOnUse" x2="28.087" y1="25.375" x1="24.375">
   <stop id="stop7528" style="stop-color:#888a85" offset="0"/>
   <stop id="stop7530" style="stop-color:#d3d7cf;stop-opacity:.49804" offset="1"/>
  </linearGradient>
  <linearGradient id="linearGradient7511" y2="22.531" gradientUnits="userSpaceOnUse" x2="23.75" y1="32.219" x1="27.531">
   <stop id="stop8359" style="stop-color:#fff" offset="0"/>
   <stop id="stop8361" style="stop-color:#888a85" offset="1"/>
  </linearGradient>
  <linearGradient id="linearGradient7491" y2="32.313" xlink:href="#linearGradient7199" gradientUnits="userSpaceOnUse" x2="44.062" gradientTransform="translate(-20)" y1="30.5" x1="43.5"/>
  <linearGradient id="linearGradient7488" y2="35.438" xlink:href="#linearGradient7199" gradientUnits="userSpaceOnUse" x2="44" gradientTransform="translate(-20)" y1="33.469" x1="43.531"/>
  <linearGradient id="linearGradient7485" y2="38.438" xlink:href="#linearGradient7199" gradientUnits="userSpaceOnUse" x2="43.989" gradientTransform="translate(-20)" y1="36.505" x1="43.48"/>
  <linearGradient id="linearGradient7482" y2="26.438" xlink:href="#linearGradient7199" gradientUnits="userSpaceOnUse" x2="38.947" gradientTransform="translate(-20)" y1="24.541" x1="38.491"/>
  <linearGradient id="linearGradient7479" y2="26.438" xlink:href="#linearGradient7199" gradientUnits="userSpaceOnUse" x2="44" gradientTransform="translate(-20)" y1="24.486" x1="43.493"/>
  <linearGradient id="linearGradient7476" y2="26.438" xlink:href="#linearGradient7199" gradientUnits="userSpaceOnUse" x2="48.977" gradientTransform="translate(-20)" y1="24.508" x1="48.479"/>
  <linearGradient id="linearGradient7473" y2="26.438" xlink:href="#linearGradient7199" gradientUnits="userSpaceOnUse" x2="38.947" gradientTransform="translate(-20,3)" y1="24.541" x1="38.491"/>
  <linearGradient id="linearGradient7470" y2="26.438" xlink:href="#linearGradient7199" gradientUnits="userSpaceOnUse" x2="44" gradientTransform="translate(-20,3)" y1="24.486" x1="43.493"/>
  <linearGradient id="linearGradient7467" y2="26.438" xlink:href="#linearGradient7199" gradientUnits="userSpaceOnUse" x2="48.977" gradientTransform="translate(-20,3)" y1="24.508" x1="48.479"/>
  <linearGradient id="linearGradient7464" y2="32.501" xlink:href="#linearGradient7199" gradientUnits="userSpaceOnUse" x2="39" gradientTransform="translate(-20)" y1="30.5" x1="38.5"/>
  <linearGradient id="linearGradient7461" y2="32.438" xlink:href="#linearGradient7199" gradientUnits="userSpaceOnUse" x2="49" gradientTransform="translate(-20)" y1="30.469" x1="48.5"/>
  <linearGradient id="linearGradient7458" y2="35.438" xlink:href="#linearGradient7199" gradientUnits="userSpaceOnUse" x2="49" gradientTransform="translate(-20)" y1="33.469" x1="48.531"/>
  <linearGradient id="linearGradient7455" y2="35.497" xlink:href="#linearGradient7199" gradientUnits="userSpaceOnUse" x2="39.062" gradientTransform="translate(-20)" y1="33.562" x1="38.5"/>
  <linearGradient id="linearGradient7452" y2="38.44" xlink:href="#linearGradient7199" gradientUnits="userSpaceOnUse" x2="40.011" gradientTransform="translate(-20)" y1="36.461" x1="39.503"/>
  <linearGradient id="linearGradient7449" y2="38.438" xlink:href="#linearGradient7199" gradientUnits="userSpaceOnUse" x2="48.983" gradientTransform="translate(-20)" y1="36.461" x1="48.496"/>
  <linearGradient id="linearGradient7287" y2="44.788" gradientUnits="userSpaceOnUse" x2="29.249" y1="21.109" x1="26.499">
   <stop id="stop7283" style="stop-color:#2e3436" offset="0"/>
   <stop id="stop7285" style="stop-color:#888a85" offset="1"/>
  </linearGradient>
  <linearGradient id="linearGradient8242" y2="28.203" gradientUnits="userSpaceOnUse" x2="23.335" gradientTransform="translate(0,-1)" y1="12.556" x1="23.335">
   <stop id="stop8238" offset="0"/>
   <stop id="stop8240" style="stop-opacity:0" offset="1"/>
  </linearGradient>
  <radialGradient id="radialGradient8234" gradientUnits="userSpaceOnUse" cy="38.062" cx="27.938" gradientTransform="matrix(1 0 0 .81347 0 7.0997)" r="12.062">
   <stop id="stop8230" offset="0"/>
   <stop id="stop8232" style="stop-opacity:0" offset="1"/>
  </radialGradient>
  <linearGradient id="linearGradient8222" y2="5.5715" gradientUnits="userSpaceOnUse" x2="71.739" gradientTransform="translate(-40)" y1="2.2823" x1="71.739">
   <stop id="stop8218" style="stop-color:#888a85" offset="0"/>
   <stop id="stop8220" style="stop-color:#babdb6" offset="1"/>
  </linearGradient>
  <radialGradient id="radialGradient8054" gradientUnits="userSpaceOnUse" cy="29.798" cx="64.5" gradientTransform="matrix(1.3281 0 0 7.006 -61.165 -173.01)" r="10.5">
   <stop id="stop8048" style="stop-color:#fff" offset="0"/>
   <stop id="stop8050" style="stop-color:#888a85" offset="1"/>
  </radialGradient>
  <linearGradient id="linearGradient8010" y2="41" xlink:href="#linearGradient8000" gradientUnits="userSpaceOnUse" x2="64.5" gradientTransform="matrix(1 0 0 -1 -39 83.059)" y1="42.625" x1="64.562"/>
  <linearGradient id="linearGradient7998" y2="23.438" gradientUnits="userSpaceOnUse" x2="64.375" gradientTransform="translate(-89,-1)" y1="9.3125" x1="64.375">
   <stop id="stop7994" style="stop-color:#fff" offset="0"/>
   <stop id="stop7996" style="stop-color:#d3d7cf;stop-opacity:0" offset="1"/>
  </linearGradient>
  <linearGradient id="linearGradient7978" y2="10.688" gradientUnits="userSpaceOnUse" x2="65.438" gradientTransform="translate(-40,-1)" y1="19.691" x1="65.438">
   <stop id="stop7974" style="stop-color:#fff" offset="0"/>
   <stop id="stop7976" style="stop-color:#eeeeec" offset="1"/>
  </linearGradient>
  <linearGradient id="linearGradient7923" y2="92.265" gradientUnits="userSpaceOnUse" x2="87.042" gradientTransform="translate(-40)" y1="8.375" x1="59.51">
   <stop id="stop7919" style="stop-color:#fff" offset="0"/>
   <stop id="stop7921" style="stop-color:#fff;stop-opacity:0" offset="1"/>
  </linearGradient>
  <linearGradient id="linearGradient8000">
   <stop id="stop8002" style="stop-color:#2e3436" offset="0"/>
   <stop id="stop8004" style="stop-color:#888a85" offset="1"/>
  </linearGradient>
  <linearGradient id="linearGradient7199">
   <stop id="stop7201" style="stop-color:#fff" offset="0"/>
   <stop id="stop7203" style="stop-color:#fff;stop-opacity:0" offset="1"/>
  </linearGradient>
 </defs>
 <g id="layer1">
  <path id="path3366" style="color:#000000;display:block;fill:url(#radialGradient4132)" d="m41 40a17.143 8.5714 0 1 1 -34.286 0 17.143 8.5714 0 1 1 34.286 0z" transform="matrix(.83199 0 0 .90469 -5.1117 -7.837)"/>
  <path id="path6944" style="opacity:.30769;color:#000000;display:block;fill:url(#radialGradient4132)" d="m41 40a17.143 8.5714 0 1 1 -34.286 0 17.143 8.5714 0 1 1 34.286 0z" transform="matrix(.28559 0 0 .28559 7.6307 -3.4171)"/>
  <g id="g2018" transform="translate(-56.21 3.4521)">
   <path id="path1912" style="color:#000000;stroke:#767973;stroke-miterlimit:10;display:block;fill:url(#linearGradient2572)" d="m70.754 2.385c-5.953 0-10.794 2.2008-10.794 4.908v18.159c0 2.708 4.841 4.908 10.794 4.908s10.987-2.2 10.987-4.908v-18.159c0-2.7072-5.034-4.908-10.987-4.908z"/>
   <path id="path1914" style="opacity:.54430;color:#000000;stroke:url(#linearGradient2574);stroke-miterlimit:10;display:block;fill:none" d="m70.761 3.0029c-5.551 0-10.064 2.0548-10.064 4.5825v17.4c0 2.528 4.513 4.583 10.064 4.583 5.55 0 10.243-2.055 10.243-4.583v-17.4c0-2.5273-4.693-4.5821-10.243-4.5821z"/>
   <path id="path1916" style="color:#000000;display:block;fill:url(#linearGradient2576)" d="m79.785 5.9475c-0.84-0.7803-1.55-1.0179-2.295-1.4003l0.229 14.803 2.066 2.561v-15.964z"/>
   <path id="path1918" style="opacity:.79121;color:#000000;stroke:#204a87;stroke-miterlimit:10;stroke-width:.99621;display:block;fill:url(#linearGradient2578)" d="m70.323 4.2336c-5.003 0.1067-8.989 1.8535-8.989 3.983v16.541c0 2.198 4.226 3.983 9.455 3.983 5.228 0 9.477-1.785 9.477-3.983v-16.541c0-2.1986-4.249-3.9834-9.477-3.9834-0.164 0-0.305-0.0035-0.466 0z"/>
   <path id="path1920" style="color:#000000;stroke:url(#linearGradient2582);stroke-miterlimit:10;stroke-width:1.4068;display:block;fill:url(#linearGradient2580)" d="m36.857 14.071a12.857 5.5 0 1 1 -25.714 0 12.857 5.5 0 1 1 25.714 0z" transform="matrix(.73671 0 0 .68588 53.118 -2.0568)"/>
   <path id="path1922" style="opacity:.46703;color:#000000;display:block;stroke:url(#linearGradient3255);stroke-miterlimit:10;stroke-width:1.2908;fill:#f0f0f0" d="m36.857 14.071a12.857 5.5 0 1 1 -25.714 0 12.857 5.5 0 1 1 25.714 0z" transform="matrix(.78571 0 0 .76389 51.944 -3.59)"/>
   <path id="path1924" style="opacity:.30769;color:#000000;display:block;fill:url(#radialGradient4132)" d="m41 40a17.143 8.5714 0 1 1 -34.286 0 17.143 8.5714 0 1 1 34.286 0z" transform="matrix(.27528 0 0 .28788 64.06 -6.9937)"/>
   <path id="path1926" style="color:#000000;stroke:#7d7f7a;stroke-miterlimit:10;display:block;fill:#9d9e9b" d="m70.869 1.1948c-1.517 0-3.508 0.5657-3.508 1.2616v2.083c0 0.6959 1.991 1.2616 3.508 1.2616s3.341-0.5657 3.341-1.2616v-2.083c0-0.6959-1.824-1.2616-3.341-1.2616z"/>
   <path id="path1928" style="opacity:.58242;color:#000000;display:block;fill:url(#linearGradient2588)" d="m63.064 10.893l0.271 13.297 3.463 1.018-0.108-13.24s1.468-0.07 4.011-0.239c-4.921-0.04-8.136-1.251-9.909-3.0424 1.073 1.6574 2.272 2.2064 2.272 2.2064z"/>
   <path id="path1930" style="color:#000000;display:block;stroke:url(#linearGradient3255);stroke-miterlimit:10;stroke-width:5.6478;fill:#d3d7cf" d="m36.857 14.071a12.857 5.5 0 1 1 -25.714 0 12.857 5.5 0 1 1 25.714 0z" transform="matrix(.20602 0 0 .15217 65.855 0.536)"/>
  </g>
  <path id="path3362" style="color:#000000;stroke:#7d7f7a;stroke-miterlimit:10;display:block;fill:#9d9e9b" d="m14.695 4.7062c-1.573 0-3.639 0.5612-3.639 1.2516v2.0664c0 0.6904 2.066 1.2516 3.639 1.2516 1.574 0 3.466-0.5612 3.466-1.2516v-2.0664c0-0.6904-1.892-1.2516-3.466-1.2516z"/>
  <path id="path6940" style="color:#000000;stroke:url(#linearGradient3255);stroke-miterlimit:10;stroke-width:5.5672;display:block;fill:#d3d7cf" d="m36.857 14.071a12.857 5.5 0 1 1 -25.714 0 12.857 5.5 0 1 1 25.714 0z" transform="matrix(.21373 0 0 .15096 9.4931 4.0527)"/>
  <g id="g3935" transform="translate(10.375 .21875)">
   <rect id="rect7962" style="stroke-linejoin:round;fill-rule:evenodd;stroke:#555753;stroke-linecap:round;fill:url(#linearGradient8222)" rx="1" ry="1" height="9" width="2" y=".5625" x="30.5"/>
   <path id="path8226" style="opacity:.4;fill:url(#radialGradient8234);fill-rule:evenodd" d="m40 38.062a12.062 9.8125 0 1 1 -24.125 0 12.062 9.8125 0 1 1 24.125 0z" transform="matrix(1.0674 0 0 .49682 -5.1943 23.215)"/>
   <path id="path7885" style="fill-rule:evenodd;stroke:#555753;stroke-linecap:round;fill:url(#radialGradient8054)" d="m19.562 5.5c-2.808 0-5.062 1.5707-5.062 3.5312v24.719c0 5.959 2.477 10.75 5.562 10.75h8.876c3.085 0 5.562-4.791 5.562-10.75v-24.719c0-1.9603-2.254-3.531-5.062-3.531h-9.876z"/>
   <path id="path7086" style="opacity:.47761;fill:url(#linearGradient7094);fill-rule:evenodd" d="m19.562 6c-1.311 0-2.496 0.3685-3.312 0.9375s-1.25 1.305-1.25 2.0937v24.719c0 2.91 0.606 5.525 1.562 7.375 0.957 1.85 2.216 2.875 3.5 2.875h8.876c1.284 0 2.543-1.025 3.5-2.875 0.956-1.85 1.562-4.465 1.562-7.375v-24.719c0-0.7885-0.434-1.5245-1.25-2.0935s-2.001-0.9375-3.312-0.9375h-9.876z"/>
   <rect id="rect7990" style="opacity:.59701;stroke:url(#linearGradient7998);stroke-linecap:round;fill:none" transform="scale(-1,1)" rx="3.0661" ry="3.0661" height="13" width="16" y="9.5" x="-32.5"/>
   <rect id="rect7889" style="fill-rule:evenodd;stroke:#888a85;stroke-linecap:round;fill:url(#linearGradient7978)" rx="2.0388" ry="2.0388" height="11" width="14" y="10.5" x="17.5"/>
   <path id="path7896" style="opacity:.86194;stroke:url(#linearGradient7923);stroke-linecap:round;fill:none" d="m19.562 6.5c-1.219 0-2.312 0.3427-3.031 0.8438-0.718 0.501-1.031 1.0882-1.031 1.6874v24.719c0 2.842 0.59 5.398 1.5 7.156 0.91 1.759 2.034 2.594 3.062 2.594h8.876c1.028 0 2.152-0.835 3.062-2.594 0.91-1.758 1.5-4.314 1.5-7.156v-24.719c0-0.599-0.313-1.1862-1.031-1.6872-0.719-0.5011-1.812-0.8438-3.031-0.8438h-9.876z"/>
   <path id="path7900" style="stroke:url(#linearGradient8010);stroke-linecap:round;stroke-width:1px;fill:none" d="m25.5 41.559v-1.059"/>
   <path id="path7905" style="stroke:url(#linearGradient8010);stroke-linecap:round;stroke-width:1px;fill:none" d="m23.5 41.559v-1"/>
   <rect id="rect8057" style="fill:#3465a4;fill-rule:evenodd" height="1" width="1" y="14" x="25"/>
   <rect id="rect8059" style="fill:#3465a4;fill-rule:evenodd" height="2" width="1" y="13" x="27"/>
   <rect id="rect8061" style="fill:#3465a4;fill-rule:evenodd" height="3" width="1" y="12" x="29"/>
   <g id="g8067" transform="translate(-50,-1)">
    <rect id="rect8063" style="fill:#3465a4;fill-rule:evenodd" height="1" width="1" y="15" x="69"/>
    <rect id="rect8065" style="fill:#3465a4;fill-rule:evenodd" height="1" width="1" y="13" x="69"/>
   </g>
   <rect id="rect8074" style="fill:#3465a4;fill-rule:evenodd" height="1" width="3" y="19" x="19"/>
   <rect id="rect8076" style="fill:#3465a4;fill-rule:evenodd" height="1" width="3" y="19" x="27"/>
   <rect id="rect8078" style="opacity:.39179;fill:#729fcf;fill-rule:evenodd" height="1" width="13" y="18" x="18"/>
   <rect id="rect7980" style="opacity:.093284;stroke:url(#linearGradient8242);stroke-linecap:round;fill:none" rx="1.0076" ry="1.0076" height="9" width="12" y="11.5" x="18.5"/>
   <path id="path8224" style="fill:#eeeeec;fill-rule:evenodd" d="m71.953 1.5937a0.45312 0.42188 0 1 1 -0.906 0 0.45312 0.42188 0 1 1 0.906 0z" transform="matrix(1.6552 0 0 1.7963 -87.095 -1.105)"/>
   <path id="path8355" style="stroke:url(#linearGradient7511);stroke-linecap:round;fill:none" d="m16.5 24.632v3.056c0 3.699 0.4 6.497 1.094 8.468 0.347 0.986 0.756 1.751 1.312 2.344 0.557 0.593 1.303 1 2.094 1h7c0.785 0 1.536-0.38 2.094-0.969 0.558-0.588 0.965-1.392 1.312-2.375 0.695-1.965 1.094-4.739 1.094-8.468v-3.056c-0.698-1.628-2.028-1.132-3.531-1.132h-8.938c-1.854 0-2.557-0.439-3.531 1.132z"/>
   <path id="path8246" style="stroke-linejoin:round;fill-rule:evenodd;stroke:url(#linearGradient7287);stroke-linecap:round;stroke-width:0.97;fill:url(#linearGradient7532)" d="m18.062 24.5c-0.311 0-0.562 0.251-0.562 0.562v0.876c0 0.311 0.251 0.562 0.562 0.562h2.876c0.311 0 0.562-0.251 0.562-0.562v-0.876c0-0.311-0.251-0.562-0.562-0.562h-0.907-1.969zm5 0c-0.311 0-0.562 0.251-0.562 0.562v0.876c0 0.311 0.251 0.562 0.562 0.562h2.876c0.311 0 0.562-0.251 0.562-0.562v-0.876c0-0.311-0.251-0.562-0.562-0.562h-2.876zm5 0c-0.311 0-0.562 0.251-0.562 0.562v0.876c0 0.311 0.251 0.562 0.562 0.562h2.876c0.311 0 0.562-0.251 0.562-0.562v-0.876c0-0.311-0.251-0.562-0.562-0.562h-1.969-0.907zm-10 3c-0.289 0-0.53 0.219-0.562 0.5-0.002 0.021 0 0.041 0 0.062 0.003 0.38 0.02 0.735 0.031 1.094 0.085 0.202 0.298 0.344 0.531 0.344h2.876c0.311 0 0.562-0.251 0.562-0.562v-0.876c0-0.311-0.251-0.562-0.562-0.562h-2.876zm5 0c-0.311 0-0.562 0.251-0.562 0.562v0.876c0 0.311 0.251 0.562 0.562 0.562h2.876c0.311 0 0.562-0.251 0.562-0.562v-0.876c0-0.311-0.251-0.562-0.562-0.562h-2.876zm5 0c-0.311 0-0.562 0.251-0.562 0.562v0.876c0 0.311 0.251 0.562 0.562 0.562h2.876c0.233 0 0.446-0.142 0.531-0.344 0.011-0.361 0.028-0.71 0.031-1.094v-0.062c-0.032-0.281-0.273-0.5-0.562-0.5h-2.876zm-10 3c-0.179 0-0.334 0.088-0.437 0.219 0.044 0.602 0.087 1.187 0.156 1.719 0.082 0.046 0.18 0.062 0.281 0.062h2.876c0.311 0 0.562-0.251 0.562-0.562v-0.876c0-0.311-0.251-0.562-0.562-0.562h-2.876zm5 0c-0.311 0-0.562 0.251-0.562 0.562v0.876c0 0.311 0.251 0.562 0.562 0.562h2.876c0.311 0 0.562-0.251 0.562-0.562v-0.876c0-0.311-0.251-0.562-0.562-0.562h-2.876zm5 0c-0.311 0-0.562 0.251-0.562 0.562v0.876c0 0.311 0.251 0.562 0.562 0.562h2.876c0.101 0 0.199-0.016 0.281-0.062 0.068-0.527 0.113-1.123 0.156-1.719-0.103-0.131-0.258-0.219-0.437-0.219h-2.876zm-10.093 3c0.134 0.749 0.283 1.422 0.469 2h2.5c0.311 0 0.562-0.251 0.562-0.562v-0.876c0-0.311-0.251-0.562-0.562-0.562h-2.876c-0.032 0-0.062-0.005-0.093 0zm5.093 0c-0.311 0-0.562 0.251-0.562 0.562v0.876c0 0.311 0.251 0.562 0.562 0.562h2.876c0.311 0 0.562-0.251 0.562-0.562v-0.876c0-0.311-0.251-0.562-0.562-0.562h-2.876zm5 0c-0.311 0-0.562 0.251-0.562 0.562v0.876c0 0.311 0.251 0.562 0.562 0.562h2.5c0.184-0.575 0.336-1.255 0.469-2-0.031-0.005-0.061 0-0.093 0h-2.876zm-9.124 3c-0.048 0-0.082 0.012-0.126 0.031 0.599 1.312 1.358 1.969 2.188 1.969h0.062c0.234 0 0.438-0.251 0.438-0.562v-0.876c0-0.311-0.204-0.562-0.438-0.562h-2.124zm4.124 0c-0.311 0-0.562 0.251-0.562 0.562v0.876c0 0.311 0.251 0.562 0.562 0.562h2.876c0.311 0 0.562-0.251 0.562-0.562v-0.876c0-0.311-0.251-0.562-0.562-0.562h-2.876zm4.876 0c-0.234 0-0.438 0.251-0.438 0.562v0.876c0 0.311 0.204 0.562 0.438 0.562h0.062c0.835 0 1.588-0.65 2.188-1.969-0.044-0.019-0.078-0.031-0.126-0.031h-2.124z"/>
   <g id="g7493" style="opacity:.85">
    <path id="path7193" style="opacity:1;stroke-linejoin:round;stroke:url(#linearGradient7491);stroke-linecap:round;fill:none" d="m26.5 31.062c0-0.311-0.251-0.562-0.562-0.562h-2.876c-0.311 0-0.562 0.251-0.562 0.562v0.876"/>
    <path id="path7195" style="opacity:1;stroke-linejoin:round;stroke:url(#linearGradient7488);stroke-linecap:round;fill:none" d="m26.5 34.062c0-0.311-0.251-0.562-0.562-0.562h-2.876c-0.311 0-0.562 0.251-0.562 0.562v0.876"/>
    <path id="path7197" style="opacity:1;stroke-linejoin:round;stroke:url(#linearGradient7485);stroke-linecap:round;fill:none" d="m26.5 37.062c0-0.311-0.251-0.562-0.562-0.562h-2.876c-0.311 0-0.562 0.251-0.562 0.562v0.876"/>
    <path id="path7191" style="opacity:1;stroke-linejoin:round;stroke:url(#linearGradient7482);stroke-linecap:round;fill:none" d="m21.5 25.062c0-0.311-0.251-0.562-0.562-0.562h-0.907-1.969c-0.311 0-0.562 0.251-0.562 0.562v0.876"/>
    <path id="path7311" style="opacity:1;stroke-linejoin:round;stroke:url(#linearGradient7479);stroke-linecap:round;fill:none" d="m26.5 25.062c0-0.311-0.251-0.562-0.562-0.562h-2.876c-0.311 0-0.562 0.251-0.562 0.562v0.876"/>
    <path id="path7313" style="opacity:1;stroke-linejoin:round;stroke:url(#linearGradient7476);stroke-linecap:round;fill:none" d="m31.5 25.062c0-0.311-0.251-0.562-0.562-0.562h-1.969-0.907c-0.311 0-0.562 0.251-0.562 0.562v0.876"/>
    <path id="path7341" style="opacity:1;stroke-linejoin:round;stroke:url(#linearGradient7473);stroke-linecap:round;fill:none" d="m21.5 28.062c0-0.311-0.251-0.562-0.562-0.562h-0.907-1.969c-0.311 0-0.562 0.251-0.562 0.562v0.876"/>
    <path id="path7343" style="opacity:1;stroke-linejoin:round;stroke:url(#linearGradient7470);stroke-linecap:round;fill:none" d="m26.5 28.062c0-0.311-0.251-0.562-0.562-0.562h-2.876c-0.311 0-0.562 0.251-0.562 0.562v0.876"/>
    <path id="path7345" style="opacity:1;stroke-linejoin:round;stroke:url(#linearGradient7467);stroke-linecap:round;fill:none" d="m31.5 28.062c0-0.311-0.251-0.562-0.562-0.562h-1.969-0.907c-0.311 0-0.562 0.251-0.562 0.562v0.876"/>
    <path id="path7353" style="opacity:1;stroke-linejoin:round;stroke:url(#linearGradient7464);stroke-linecap:round;fill:none" d="m21.5 31.062c0-0.311-0.251-0.562-0.562-0.562h-2.876c-0.179 0-0.334 0.088-0.437 0.219 0.044 0.602 0.087 1.187 0.156 1.719"/>
    <path id="path7355" style="opacity:1;stroke-linejoin:round;stroke:url(#linearGradient7461);stroke-linecap:round;fill:none" d="m31.375 30.719c-0.103-0.131-0.258-0.219-0.437-0.219h-2.876c-0.311 0-0.562 0.251-0.562 0.562v0.876"/>
    <path id="path7361" style="opacity:1;stroke-linejoin:round;stroke:url(#linearGradient7458);stroke-linecap:round;fill:none" d="m31.031 33.5c-0.031-0.005-0.061 0-0.093 0h-2.876c-0.311 0-0.562 0.251-0.562 0.562v0.876"/>
    <path id="path7363" style="opacity:1;stroke-linejoin:round;stroke:url(#linearGradient7455);stroke-linecap:round;fill:none" d="m21.5 34.062c0-0.311-0.251-0.562-0.562-0.562h-2.876c-0.032 0-0.062-0.005-0.093 0 0.134 0.749 0.283 1.422 0.469 2"/>
    <path id="path7369" style="opacity:1;stroke-linejoin:round;stroke:url(#linearGradient7452);stroke-linecap:round;fill:none" d="m21.5 37.062c0-0.311-0.204-0.562-0.438-0.562h-2.124c-0.048 0-0.082 0.012-0.126 0.031"/>
    <path id="path7371" style="opacity:1;stroke-linejoin:round;stroke:url(#linearGradient7449);stroke-linecap:round;fill:none" d="m30.188 36.531c-0.044-0.019-0.078-0.031-0.126-0.031h-2.124c-0.234 0-0.438 0.251-0.438 0.562v0.876"/>
   </g>
   <path id="path6112" style="stroke:url(#linearGradient6118);stroke-linecap:round;stroke-width:1px;fill:none" d="m24.5 8.5585v-1.0585"/>
   <path id="path6114" style="stroke:url(#linearGradient6118);stroke-linecap:round;stroke-width:1px;fill:none" d="m22.5 8.5585v-1"/>
   <path id="path6120" style="stroke:url(#linearGradient6122);stroke-linecap:round;stroke-width:1px;fill:none" d="m26.5 8.5585v-1.0585"/>
  </g>
 </g>
</svg>
