<?xml version="1.0" encoding="UTF-8" standalone="no"?>
<!-- Created with Inkscape (http://www.inkscape.org/) -->
<svg id="svg1328" xmlns="http://www.w3.org/2000/svg" height="48" width="48" version="1.0" xmlns:xlink="http://www.w3.org/1999/xlink">
 <defs id="defs3">
  <linearGradient id="aigrd2" y2="13.048" gradientUnits="userSpaceOnUse" x2="34.009" gradientTransform="matrix(.93796 0 0 .93796 6.4859 12.646)" y1="30.36" x1="16.345">
   <stop id="stop3655" style="stop-color:#686868" offset="0"/>
   <stop id="stop3657" style="stop-color:#6d6d6d" offset="1"/>
  </linearGradient>
  <linearGradient id="aigrd3" y2="15.62" gradientUnits="userSpaceOnUse" x2="39.192" gradientTransform="matrix(.93796 0 0 .93796 6.4859 12.646)" y1="27.354" x1="6.8618">
   <stop id="stop3664" style="stop-color:#fcfcfc" offset="0"/>
   <stop id="stop3666" style="stop-color:#bbb" offset="1"/>
  </linearGradient>
  <linearGradient id="aigrd4" y2="11.608" gradientUnits="userSpaceOnUse" x2="37.141" gradientTransform="matrix(.93796 0 0 .93796 6.4859 12.646)" y1="19.663" x1="14.948">
   <stop id="stop3671" style="stop-color:#ebebeb" offset="0"/>
   <stop id="stop3673" style="stop-color:#818181" offset="1"/>
  </linearGradient>
  <radialGradient id="aigrd6" gradientUnits="userSpaceOnUse" cy="15.932" cx="12.472" gradientTransform="matrix(.907 .4211 -.4211 .907 19.29 -10.214)" r="6.1649">
   <stop id="stop3693" style="stop-color:#9e9e9e" offset="0"/>
   <stop id="stop3695" style="stop-color:#535353" offset="1"/>
  </radialGradient>
  <radialGradient id="aigrd5" gradientUnits="userSpaceOnUse" cy="15.984" cx="14.547" gradientTransform="matrix(.907 .4211 -.4211 .907 19.29 -10.214)" r="4.5099">
   <stop id="stop3686" style="stop-color:#efefef" offset="0"/>
   <stop id="stop3688" style="stop-color:#6d6d6d" offset="1"/>
  </radialGradient>
  <linearGradient id="linearGradient3233">
   <stop id="stop3235" style="stop-color:#eeeeec" offset="0"/>
   <stop id="stop3237" style="stop-color:#a3a398" offset="1"/>
  </linearGradient>
  <linearGradient id="linearGradient4126">
   <stop id="stop4128" offset="0"/>
   <stop id="stop4130" style="stop-opacity:0" offset="1"/>
  </linearGradient>
  <radialGradient id="radialGradient4132" xlink:href="#linearGradient4126" gradientUnits="userSpaceOnUse" cy="40" cx="23.857" gradientTransform="matrix(1 0 0 .5 0 20)" r="17.143"/>
  <linearGradient id="linearGradient3255" y2="8.0477" xlink:href="#linearGradient3233" gradientUnits="userSpaceOnUse" x2="23.434" y1="17.246" x1="24"/>
  <linearGradient id="linearGradient4678" y2="13.048" xlink:href="#aigrd2" gradientUnits="userSpaceOnUse" x2="34.009" gradientTransform="matrix(.93796 0 0 .93796 6.4913 12.624)" y1="30.36" x1="16.345"/>
  <linearGradient id="linearGradient2572" y2="26.719" gradientUnits="userSpaceOnUse" x2="38.826" gradientTransform="matrix(.57369 0 0 .61709 49.874 -4.038)" y1="26.719" x1="9.3031">
   <stop id="stop4136" style="stop-color:#d6d7d5" offset="0"/>
   <stop id="stop4148" style="stop-color:#d1d2d0" offset=".25"/>
   <stop id="stop4142" style="stop-color:#a5a6a3" offset=".5"/>
   <stop id="stop4138" style="stop-color:#dddedc" offset="1"/>
  </linearGradient>
  <linearGradient id="linearGradient2574" y2="56.576" gradientUnits="userSpaceOnUse" x2="37.969" gradientTransform="matrix(.55991 0 0 .61796 50.208 -4.0419)" y1="14.004" x1="17.16">
   <stop id="stop4178" style="stop-color:#fff" offset="0"/>
   <stop id="stop4180" style="stop-color:#fff;stop-opacity:0" offset="1"/>
  </linearGradient>
  <linearGradient id="linearGradient2576" y2="29.918" gradientUnits="userSpaceOnUse" x2="34.244" gradientTransform="matrix(.58880 0 0 .62248 49.638 -3.0162)" y1="17.695" x1="34.244">
   <stop id="stop3249" style="stop-color:#f0f0f0" offset="0"/>
   <stop id="stop3251" style="stop-color:#f0f0f0;stop-opacity:0" offset="1"/>
  </linearGradient>
  <linearGradient id="linearGradient2578" y2="32.489" gradientUnits="userSpaceOnUse" x2="32.397" gradientTransform="matrix(.75747 0 0 .79213 52.622 -3.3085)" y1="32.489" x1="11.003">
   <stop id="stop3807" style="stop-color:#284e7f" offset="0"/>
   <stop id="stop3813" style="stop-color:#6694cf" offset=".5"/>
   <stop id="stop3809" style="stop-color:#234570" offset="1"/>
  </linearGradient>
  <linearGradient id="linearGradient2580" y2="5.5617" gradientUnits="userSpaceOnUse" x2="21.756" y1="25.114" x1="21.487">
   <stop id="stop3262" style="stop-color:#3465a4" offset="0"/>
   <stop id="stop3264" style="stop-color:#8fb1dc" offset="1"/>
  </linearGradient>
  <linearGradient id="linearGradient2582" y2="20.118" gradientUnits="userSpaceOnUse" x2="25.573" y1="11.17" x1="25.698">
   <stop id="stop3817" style="stop-color:#204a87" offset="0"/>
   <stop id="stop3819" style="stop-color:#98b8e7" offset="1"/>
  </linearGradient>
  <linearGradient id="linearGradient2588" y2="30" gradientUnits="userSpaceOnUse" x2="15.786" gradientTransform="matrix(.58880 0 0 .62248 49.495 -2.501)" y1="19.5" x1="16.071">
   <stop id="stop6926" style="stop-color:#fff" offset="0"/>
   <stop id="stop6928" style="stop-color:#fff;stop-opacity:0" offset="1"/>
  </linearGradient>
 </defs>
 <g id="layer1">
  <path id="path3366" style="color:#000000;display:block;fill:url(#radialGradient4132)" d="m41 40a17.143 8.5714 0 1 1 -34.286 0 17.143 8.5714 0 1 1 34.286 0z" transform="matrix(.83199 0 0 .90469 -5.1117 -7.837)"/>
  <path id="path6944" style="opacity:.30769;color:#000000;display:block;fill:url(#radialGradient4132)" d="m41 40a17.143 8.5714 0 1 1 -34.286 0 17.143 8.5714 0 1 1 34.286 0z" transform="matrix(.28559 0 0 .28559 7.6307 -3.4171)"/>
  <g id="g2018" transform="translate(-56.21 3.4521)">
   <path id="path1912" style="color:#000000;stroke:#767973;stroke-miterlimit:10;display:block;fill:url(#linearGradient2572)" d="m70.754 2.385c-5.953 0-10.794 2.2008-10.794 4.908v18.159c0 2.708 4.841 4.908 10.794 4.908s10.987-2.2 10.987-4.908v-18.159c0-2.7072-5.034-4.908-10.987-4.908z"/>
   <path id="path1914" style="opacity:.54430;color:#000000;stroke:url(#linearGradient2574);stroke-miterlimit:10;display:block;fill:none" d="m70.761 3.0029c-5.551 0-10.064 2.0548-10.064 4.5825v17.4c0 2.528 4.513 4.583 10.064 4.583 5.55 0 10.243-2.055 10.243-4.583v-17.4c0-2.5273-4.693-4.5821-10.243-4.5821z"/>
   <path id="path1916" style="color:#000000;display:block;fill:url(#linearGradient2576)" d="m79.785 5.9475c-0.84-0.7803-1.55-1.0179-2.295-1.4003l0.229 14.803 2.066 2.561v-15.964z"/>
   <path id="path1918" style="opacity:.79121;color:#000000;stroke:#204a87;stroke-miterlimit:10;stroke-width:.99621;display:block;fill:url(#linearGradient2578)" d="m70.323 4.2336c-5.003 0.1067-8.989 1.8535-8.989 3.983v16.541c0 2.198 4.226 3.983 9.455 3.983 5.228 0 9.477-1.785 9.477-3.983v-16.541c0-2.1986-4.249-3.9834-9.477-3.9834-0.164 0-0.305-0.0035-0.466 0z"/>
   <path id="path1920" style="color:#000000;stroke:url(#linearGradient2582);stroke-miterlimit:10;stroke-width:1.4068;display:block;fill:url(#linearGradient2580)" d="m36.857 14.071a12.857 5.5 0 1 1 -25.714 0 12.857 5.5 0 1 1 25.714 0z" transform="matrix(.73671 0 0 .68588 53.118 -2.0568)"/>
   <path id="path1922" style="opacity:.46703;color:#000000;display:block;stroke:url(#linearGradient3255);stroke-miterlimit:10;stroke-width:1.2908;fill:#f0f0f0" d="m36.857 14.071a12.857 5.5 0 1 1 -25.714 0 12.857 5.5 0 1 1 25.714 0z" transform="matrix(.78571 0 0 .76389 51.944 -3.59)"/>
   <path id="path1924" style="opacity:.30769;color:#000000;display:block;fill:url(#radialGradient4132)" d="m41 40a17.143 8.5714 0 1 1 -34.286 0 17.143 8.5714 0 1 1 34.286 0z" transform="matrix(.27528 0 0 .28788 64.06 -6.9937)"/>
   <path id="path1926" style="color:#000000;stroke:#7d7f7a;stroke-miterlimit:10;display:block;fill:#9d9e9b" d="m70.869 1.1948c-1.517 0-3.508 0.5657-3.508 1.2616v2.083c0 0.6959 1.991 1.2616 3.508 1.2616s3.341-0.5657 3.341-1.2616v-2.083c0-0.6959-1.824-1.2616-3.341-1.2616z"/>
   <path id="path1928" style="opacity:.58242;color:#000000;display:block;fill:url(#linearGradient2588)" d="m63.064 10.893l0.271 13.297 3.463 1.018-0.108-13.24s1.468-0.07 4.011-0.239c-4.921-0.04-8.136-1.251-9.909-3.0424 1.073 1.6574 2.272 2.2064 2.272 2.2064z"/>
   <path id="path1930" style="color:#000000;display:block;stroke:url(#linearGradient3255);stroke-miterlimit:10;stroke-width:5.6478;fill:#d3d7cf" d="m36.857 14.071a12.857 5.5 0 1 1 -25.714 0 12.857 5.5 0 1 1 25.714 0z" transform="matrix(.20602 0 0 .15217 65.855 0.536)"/>
  </g>
  <path id="path3362" style="color:#000000;stroke:#7d7f7a;stroke-miterlimit:10;display:block;fill:#9d9e9b" d="m14.695 4.7062c-1.573 0-3.639 0.5612-3.639 1.2516v2.0664c0 0.6904 2.066 1.2516 3.639 1.2516 1.574 0 3.466-0.5612 3.466-1.2516v-2.0664c0-0.6904-1.892-1.2516-3.466-1.2516z"/>
  <path id="path6940" style="color:#000000;stroke:url(#linearGradient3255);stroke-miterlimit:10;stroke-width:5.5672;display:block;fill:#d3d7cf" d="m36.857 14.071a12.857 5.5 0 1 1 -25.714 0 12.857 5.5 0 1 1 25.714 0z" transform="matrix(.21373 0 0 .15096 9.4931 4.0527)"/>
  <path id="path3796" style="stroke:#595959;stroke-width:2;fill:url(#linearGradient4678)" d="m26.478 23.505c-4.056 0.103-12.328 1.279-13.688 14.625-0.045 0.494-0.047 0.979 0.032 1.437-0.002 0.008 0.001 0.024 0 0.031-1.165 5.975 12.163 9.634 18.062 4.157l11.25-11.157c1.319-1.319 0.15-4.04 0-4.375-0.01-0.022 0-0.031 0-0.031-1.876-3.189-11.154-4.687-14.531-4.687-0.317 0-0.705-0.011-1.125 0z"/>
  <path id="path3659" style="fill:url(#aigrd2)" d="m42.129 28.216l-28.327 9.286c-5.2526 7.129 10.505 12.381 17.071 6.285l11.256-11.162c1.406-1.407 0-4.409 0-4.409z"/>
  <path id="path3661" style="fill:#f0f0f0" d="m42.129 28.685c-1.876-3.189-11.162-4.689-14.539-4.689-3.283 0-13.319-0.094-14.726 14.632-0.469 5.065 6.003 8.348 11.068 6.753 4.971-1.594 5.159-9.38 9.286-12.569s10.786-0.844 8.911-4.033v-0.094z"/>
  <path id="path3668" style="fill:url(#aigrd3)" d="m42.129 28.216c-1.876-3.189-11.162-4.689-14.539-4.689s-13.319-0.094-14.82 14.632c-0.469 5.065 6.003 8.348 11.068 6.753 4.971-1.594 5.159-9.379 9.286-12.569 4.127-3.189 10.787-0.844 8.911-4.033l0.094-0.094z"/>
  <path id="path3675" style="fill:url(#aigrd4)" d="m42.316 29.154c0.282 1.501-5.909 0.657-7.316 2.158-1.126-2.064-5.722-4.221-9.192-4.972-3.377-0.75-7.504-0.187-7.504-0.187 5.722-5.253 23.543-1.688 24.012 3.001z"/>
  <path id="path3677" style="opacity:.3;fill:#fff" d="m35.281 32.906c3.752-1.876 4.409-0.656 6.66-2.532-1.501 2.063-3.564 1.5-5.815 2.626l-0.938-0.094h0.093z"/>
  <path id="path3679" style="opacity:.3" d="m35.094 31.312l0.187 1.688c3.94-1.97 4.409-0.281 7.035-2.908-2.908 1.97-4.033 0.938-6.847 2.158l-0.469-0.845 0.094-0.093z"/>
  <path id="path3681" style="opacity:.3" d="m25.808 26.34l0.563 0.188c2.72-2.345 10.036-1.407 10.036-1.407s-7.785-1.407-10.599 1.313v-0.094z"/>
  <path id="path4680" style="opacity:.37363;stroke:#fff;fill:none" d="m26.209 24.025c-6.092 0.344-10.84 2.297-12.981 14.403-1.296 7.328 11.863 9.988 17.27 4.968l11.185-11.099c1.209-1.209 0.875-3.585-1.063-4.947-4.045-2.846-10.285-3.325-13.38-3.325-0.29 0-0.646-0.01-1.031 0z"/>
  <g id="g3683" style="stroke:#000;fill:#bababa" transform="matrix(.93796 0 0 .93796 6.4859 12.646)">
   <path id="path3690" style="fill:url(#aigrd5)" d="m26.8 11.2c-1.8-0.3-2.9 0.9-3.3 1.9 0.5 0.6 1 0.8 2.2 0.7 1.8-0.1 2.6-0.2 3.8-1-0.6-0.6-1.5-1.5-2.7-1.7v0.1z"/>
   <path id="path3697" style="fill:url(#aigrd6)" d="m27.6 11.9c-1.1-0.2-1.7 1.3-1.9 2 1.1-0.1 2.9-0.3 3.6-1.1-0.3-0.4-0.9-0.7-1.7-0.8v-0.1z"/>
  </g>
  <path id="path3235" style="color:#000000;stroke:#babdb6;stroke-linecap:round;fill:none" d="m47.583 16.583c-1.631-2.873-4.364-5.116-7.778-6.058-3.413-0.9423-6.91-0.418-9.784 1.211"/>
  <path id="path3233" style="color:#000000;stroke:#babdb6;stroke-linecap:round;fill:none" d="m44.04 18.594c-1.116-1.966-2.983-3.504-5.317-4.148-2.334-0.645-4.726-0.282-6.691 0.834"/>
  <path id="path3227" style="color:#000000;stroke:#babdb6;stroke-linecap:round;fill:none" d="m40.496 20.605c-0.601-1.06-1.597-1.891-2.855-2.238-1.258-0.348-2.539-0.144-3.598 0.457"/>
 </g>
</svg>
