<?xml version="1.0" encoding="UTF-8" standalone="no"?>
<!-- Created with Inkscape (http://www.inkscape.org/) -->
<svg id="svg1328" xmlns:rdf="http://www.w3.org/1999/02/22-rdf-syntax-ns#" xmlns="http://www.w3.org/2000/svg" height="48" width="48" version="1.0" xmlns:cc="http://creativecommons.org/ns#" xmlns:xlink="http://www.w3.org/1999/xlink" xmlns:dc="http://purl.org/dc/elements/1.1/">
 <metadata id="metadata59">
  <rdf:RDF>
   <cc:Work rdf:about="">
    <dc:format>image/svg+xml</dc:format>
    <dc:type rdf:resource="http://purl.org/dc/dcmitype/StillImage"/>
   </cc:Work>
  </rdf:RDF>
 </metadata>
 <defs id="defs3">
  <linearGradient id="linearGradient5060">
   <stop id="stop5062" offset="0"/>
   <stop id="stop5064" style="stop-opacity:0" offset="1"/>
  </linearGradient>
  <linearGradient id="linearGradient4088" y2="30.928" xlink:href="#linearGradient4509" gradientUnits="userSpaceOnUse" y1="39.919" gradientTransform="translate(11.616)" x2="16.364" x1="16.364"/>
  <linearGradient id="linearGradient4086" y2="30.928" xlink:href="#linearGradient4509" gradientUnits="userSpaceOnUse" y1="39.919" gradientTransform="translate(9.6162)" x2="16.364" x1="16.364"/>
  <linearGradient id="linearGradient4084" y2="30.928" xlink:href="#linearGradient4509" gradientUnits="userSpaceOnUse" y1="39.919" gradientTransform="translate(7.6162)" x2="16.364" x1="16.364"/>
  <linearGradient id="linearGradient4082" y2="30.928" xlink:href="#linearGradient4509" gradientUnits="userSpaceOnUse" y1="39.919" gradientTransform="translate(5.6162)" x2="16.364" x1="16.364"/>
  <linearGradient id="linearGradient4080" y2="30.928" xlink:href="#linearGradient4509" gradientUnits="userSpaceOnUse" y1="39.919" gradientTransform="translate(3.6162)" x2="16.364" x1="16.364"/>
  <linearGradient id="linearGradient4078" y2="30.928" xlink:href="#linearGradient4509" gradientUnits="userSpaceOnUse" y1="39.919" gradientTransform="translate(1.6162)" x2="16.364" x1="16.364"/>
  <linearGradient id="linearGradient4076" y2="30.928" xlink:href="#linearGradient4449" gradientUnits="userSpaceOnUse" y1="39.919" gradientTransform="translate(12.707)" x2="16.364" x1="16.364"/>
  <linearGradient id="linearGradient4074" y2="30.928" xlink:href="#linearGradient4449" gradientUnits="userSpaceOnUse" y1="39.919" gradientTransform="translate(10.707)" x2="16.364" x1="16.364"/>
  <linearGradient id="linearGradient4072" y2="30.928" xlink:href="#linearGradient4449" gradientUnits="userSpaceOnUse" y1="39.919" gradientTransform="translate(8.7071)" x2="16.364" x1="16.364"/>
  <linearGradient id="linearGradient4070" y2="30.928" xlink:href="#linearGradient4449" gradientUnits="userSpaceOnUse" y1="39.919" gradientTransform="translate(6.7071)" x2="16.364" x1="16.364"/>
  <linearGradient id="linearGradient4068" y2="30.928" xlink:href="#linearGradient4449" gradientUnits="userSpaceOnUse" y1="39.919" gradientTransform="translate(4.7071)" x2="16.364" x1="16.364"/>
  <linearGradient id="linearGradient4066" y2="30.928" xlink:href="#linearGradient4449" gradientUnits="userSpaceOnUse" y1="39.919" gradientTransform="translate(2.7071)" x2="16.364" x1="16.364"/>
  <linearGradient id="linearGradient4064" y2="26.787" gradientUnits="userSpaceOnUse" y1="26.888" gradientTransform="matrix(.95593 0 0 1 .86991 0)" x2="22.312" x1="27.325">
   <stop id="stop4414" style="stop-color:#fff" offset="0"/>
   <stop id="stop4416" style="stop-color:#fff;stop-opacity:0" offset="1"/>
  </linearGradient>
  <linearGradient id="linearGradient4060" y2="10.018" gradientUnits="userSpaceOnUse" y1="34.464" gradientTransform="translate(-5.0886e-7 .40406)" x2="23.234" x1="24.35">
   <stop id="stop4388" style="stop-color:#d2d2d2" offset="0"/>
   <stop id="stop4390" style="stop-color:#dfdfdf" offset="1"/>
  </linearGradient>
  <linearGradient id="linearGradient4449">
   <stop id="stop4451" style="stop-color:#fff" offset="0"/>
   <stop id="stop4453" style="stop-color:#fff;stop-opacity:0" offset="1"/>
  </linearGradient>
  <linearGradient id="linearGradient4509">
   <stop id="stop4511" offset="0"/>
   <stop id="stop4513" style="stop-opacity:0" offset="1"/>
  </linearGradient>
  <linearGradient id="linearGradient3244" y2="609.51" gradientUnits="userSpaceOnUse" x2="302.86" gradientTransform="matrix(2.7744 0 0 1.9697 -1892.2 -872.89)" y1="366.65" x1="302.86">
   <stop id="stop5050" style="stop-opacity:0" offset="0"/>
   <stop id="stop5056" offset=".5"/>
   <stop id="stop5052" style="stop-opacity:0" offset="1"/>
  </linearGradient>
  <radialGradient id="radialGradient3246" xlink:href="#linearGradient5060" gradientUnits="userSpaceOnUse" cy="486.65" cx="605.71" gradientTransform="matrix(2.7744 0 0 1.9697 -1891.6 -872.89)" r="117.14"/>
  <radialGradient id="radialGradient3248" xlink:href="#linearGradient5060" gradientUnits="userSpaceOnUse" cy="486.65" cx="605.71" gradientTransform="matrix(-2.7744 0 0 1.9697 112.76 -872.89)" r="117.14"/>
  <radialGradient id="radialGradient4605" gradientUnits="userSpaceOnUse" cy="19.009" cx="31.113" r="8.6621">
   <stop id="stop3818" offset="0"/>
   <stop id="stop3820" style="stop-opacity:0" offset="1"/>
  </radialGradient>
  <radialGradient id="radialGradient4607" gradientUnits="userSpaceOnUse" cy="6.8283" cx="8.7468" r="29.89">
   <stop id="stop37937" style="stop-color:#9497b3" offset="0"/>
   <stop id="stop37939" style="stop-color:#4c4059" offset="1"/>
  </radialGradient>
  <linearGradient id="linearGradient4609" y2="7.582" gradientUnits="userSpaceOnUse" x2="32.157" y1="7.582" x1="14.593">
   <stop id="stop5198" style="stop-color:#0f0" offset="0"/>
   <stop id="stop5200" style="stop-color:#f00" offset="1"/>
  </linearGradient>
  <radialGradient id="radialGradient4611" gradientUnits="userSpaceOnUse" cy="10.584" cx="11.329" r="15.532">
   <stop id="stop10655" style="stop-color:#f3f4ff" offset="0"/>
   <stop id="stop10657" style="stop-color:#9193af" offset="1"/>
  </radialGradient>
 </defs>
 <g id="g3653" transform="translate(77.032 -31.58)">
  <g id="g3211" transform="matrix(.014208 0 0 .020868 -48.814 68.841)">
   <rect id="rect3213" style="opacity:.40206;fill:url(#linearGradient3244)" height="478.36" width="1339.6" y="-150.7" x="-1559.3"/>
   <path id="path3215" style="opacity:.40206;fill:url(#radialGradient3246)" d="m-219.62-150.68v478.33c142.88 0.9 345.4-107.17 345.4-239.2 0-132.02-159.44-239.13-345.4-239.13z"/>
   <path id="path3217" style="opacity:.40206;fill:url(#radialGradient3248)" d="m-1559.3-150.68v478.33c-142.8 0.9-345.4-107.17-345.4-239.2 0-132.02 159.5-239.13 345.4-239.13z"/>
  </g>
  <g id="g4034" transform="translate(-85.357 30.678)">
   <path id="path3626" style="stroke-linejoin:round;fill-rule:evenodd;stroke:#5e5e5e;stroke-linecap:round;stroke-width:.99890px;fill:url(#linearGradient4060)" transform="matrix(1.0017 0 0 1.0005 .011803 -.054996)" d="m12.467 7.998v33.537h21.962v-33.739l-4.041-4.2427h-14.083l-3.838 4.4447z"/>
   <path id="path5791" style="fill-opacity:.65537;fill:#fff;fill-rule:evenodd" transform="matrix(1.0352 0 0 1.0294 -.45774 -.11765)" d="m16.429 4l-3.429 4.8571h20.286l-3.715-4.7142-13.142-0.1429z"/>
   <rect id="rect4553" style="opacity:.34857;fill-rule:evenodd;stroke:#fff;stroke-width:1.017;fill:#fff" transform="matrix(1.0256 0 0 .94281 -.87216 .35440)" height="4.2426" width="15.601" y="11.291" x="16.451"/>
   <path id="path4394" style="stroke:#fff;stroke-width:.99304;fill:none" transform="matrix(1.009 0 0 1.0051 -.085778 -.10736)" d="m13.465 8.6221v31.781h19.823v-31.964l-3.671-3.8548h-12.665l-3.487 4.0379z"/>
   <rect id="rect4408" style="opacity:.52571;fill-rule:evenodd;stroke:url(#linearGradient4064);stroke-width:1.1174;fill:url(#linearGradient4064)" transform="matrix(1.0094 0 0 .79336 -.74531 5.3094)" height="5.0419" width="10.897" y="23.559" x="21.542"/>
   <rect id="rect4398" style="fill-rule:evenodd;stroke:#acacac;stroke-width:1.0038;fill:#c8c8c8" transform="matrix(1.0527 0 0 .94281 -1.3664 1.388)" height="4.2426" width="10.449" y="23.453" x="20.771"/>
   <rect id="rect4551" style="opacity:.34857;fill-rule:evenodd;stroke:#fff;stroke-width:1.017;fill:#fff" transform="matrix(1.0256 0 0 .94281 -.87216 .69755)" height="4.2426" width="15.601" y="17.291" x="16.451"/>
   <rect id="rect4430" style="fill-rule:evenodd;stroke:#acacac;stroke-width:1.0231;fill:#c8c8c8" transform="matrix(1.0132 0 0 .94281 -.15194 1.0547)" height="4.2426" width="15.791" y="16.382" x="15.447"/>
   <rect id="rect4436" style="fill-rule:evenodd;stroke:#acacac;stroke-width:1.0231;fill:#c8c8c8" transform="matrix(1.0132 0 0 .94281 -.15193 .71154)" height="4.2426" width="15.791" y="10.382" x="15.447"/>
   <g id="g3980" transform="matrix(.88578 0 0 .89297 2.1297 2.8848)">
    <path id="path4396" style="fill-rule:evenodd;stroke:#979797;stroke-width:1.4477;fill:#c8c8c8" transform="matrix(.77981 0 0 .77353 -34.69 5.5951)" d="m68.185 26.231a2.1718 2.1718 0 1 1 -4.343 0 2.1718 2.1718 0 1 1 4.343 0z"/>
    <path id="path4445" style="fill-rule:evenodd;fill:#fff" transform="matrix(1.0086 0 0 1.0005 -.073964 -.054996)" d="m16.668 25.575a0.50508 0.50508 0 1 1 -1.011 0 0.50508 0.50508 0 1 1 1.011 0z"/>
   </g>
   <rect id="rect4457" style="fill-rule:evenodd;fill:url(#linearGradient4066)" transform="matrix(.98995 0 0 .98995 .12011 .48242)" height="10.102" width="1.0102" y="29.817" x="19.072"/>
   <rect id="rect4461" style="fill-rule:evenodd;fill:url(#linearGradient4068)" transform="matrix(.98995 0 0 .98995 .14020 .48242)" height="10.102" width="1.0102" y="29.817" x="21.072"/>
   <rect id="rect4465" style="fill-rule:evenodd;fill:url(#linearGradient4070)" transform="matrix(.98995 0 0 .98995 .16031 .48242)" height="10.102" width="1.0102" y="29.817" x="23.072"/>
   <rect id="rect4469" style="fill-rule:evenodd;fill:url(#linearGradient4072)" transform="matrix(.98995 0 0 .98995 .18041 .48242)" height="10.102" width="1.0102" y="29.817" x="25.072"/>
   <rect id="rect4473" style="fill-rule:evenodd;fill:url(#linearGradient4074)" transform="matrix(.98995 0 0 .98995 .20052 .48242)" height="10.102" width="1.0102" y="29.817" x="27.072"/>
   <rect id="rect4477" style="opacity:.54286;fill-rule:evenodd;fill:url(#linearGradient4076)" transform="matrix(.98995 0 0 .98995 .22062 .48242)" height="10.102" width="1.0102" y="29.817" x="29.072"/>
   <rect id="rect4481" style="opacity:0.16;fill-rule:evenodd;fill:url(#linearGradient4078)" transform="matrix(.98995 0 0 .98995 0.2 .48242)" height="10.102" width="1.0102" y="29.817" x="17.981"/>
   <rect id="rect4483" style="opacity:.29143;fill-rule:evenodd;fill:url(#linearGradient4080)" transform="matrix(.98995 0 0 .98995 .22012 .48242)" height="10.102" width="1.0102" y="29.817" x="19.981"/>
   <rect id="rect4485" style="opacity:.29143;fill-rule:evenodd;fill:url(#linearGradient4082)" transform="matrix(.98995 0 0 .98995 .24022 .48242)" height="10.102" width="1.0102" y="29.817" x="21.981"/>
   <rect id="rect4487" style="opacity:.29143;fill-rule:evenodd;fill:url(#linearGradient4084)" transform="matrix(.98995 0 0 .98995 .26032 .48242)" height="10.102" width="1.0102" y="29.817" x="23.981"/>
   <rect id="rect4489" style="opacity:.29143;fill-rule:evenodd;fill:url(#linearGradient4086)" transform="matrix(.98995 0 0 .98995 .28041 .48242)" height="10.102" width="1.0102" y="29.817" x="25.981"/>
   <rect id="rect4491" style="opacity:.22857;fill-rule:evenodd;fill:url(#linearGradient4088)" transform="matrix(.98995 0 0 .98995 .30051 .48242)" height="10.102" width="1.0102" y="29.817" x="27.981"/>
  </g>
 </g>
 <g id="g4597" transform="translate(-63.011 -19.643)">
  <path id="path4318" style="fill-rule:evenodd;fill:url(#radialGradient4605)" d="m39.775 19.009a8.6621 8.6621 0 1 1 -17.324 0 8.6621 8.6621 0 1 1 17.324 0z" transform="matrix(2.5752 0 0 1.2196 9.8817 34.365)"/>
  <path id="path27786" style="stroke-linejoin:round;fill-rule:evenodd;stroke:#605773;stroke-linecap:round;stroke-width:.69855;fill:url(#radialGradient4607)" transform="matrix(1.4261 0 0 1.4487 67.081 40.549)" d="m3.2461 9.615a14.911 14.911 0 0 1 25.949 -0.1037l-12.945 7.3997z"/>
  <path id="path4120" style="fill-rule:evenodd;fill:url(#linearGradient4609)" d="m16.014 7.625a8.5 8.5 0 0 1 14.722 0l-7.361 4.25z" transform="matrix(2.1904 0 0 2.2061 38.893 38.576)"/>
  <path id="path34778" style="stroke-linejoin:round;fill-rule:evenodd;stroke:#000;stroke-linecap:round;stroke-width:.48232;fill:#f3f3f3" transform="matrix(2.1587 0 0 1.8889 57.547 31.647)" d="m14.188 16.584a1.2188 1.2188 0 0 1 1.953 -0.061l-0.953 0.758z"/>
  <path id="path35559" style="stroke:#000;stroke-linecap:round;stroke-width:1.1207;fill:none" d="m88.334 62.681l-10.096-8.504"/>
  <path id="path10651" style="stroke-linejoin:round;stroke:url(#radialGradient4611);stroke-linecap:round;stroke-width:.73657;fill:none" d="m3.3369 9.4554a14.911 14.911 0 0 1 25.826 0l-12.913 7.4556z" transform="matrix(1.3577 0 0 1.3577 68.115 41.743)"/>
 </g>
</svg>
