<?xml version="1.0" encoding="UTF-8" standalone="no"?>
<!-- Created with Inkscape (http://www.inkscape.org/) -->
<svg id="svg1328" xmlns="http://www.w3.org/2000/svg" height="48" width="48" version="1.0" xmlns:xlink="http://www.w3.org/1999/xlink">
 <defs id="defs3">
  <linearGradient id="linearGradient2981" y2="52.536" gradientUnits="userSpaceOnUse" x2="18.177" gradientTransform="matrix(1.1299 0 0 .89911 0 1.5553)" y1="48.643" x1="18.317">
   <stop id="stop2247" style="stop-color:#dde1d9" offset="0"/>
   <stop id="stop2249" style="stop-color:#cacdc6" offset="1"/>
  </linearGradient>
  <linearGradient id="linearGradient2758" y2="100.2" xlink:href="#linearGradient2752" gradientUnits="userSpaceOnUse" x2="8.1134" gradientTransform="matrix(2.0128 0 0 .43293 4.4898 2)" y1="88.509" x1="8.1134"/>
  <linearGradient id="linearGradient1411" y2="100.2" xlink:href="#linearGradient2752" gradientUnits="userSpaceOnUse" x2="8.1134" gradientTransform="matrix(2.247 0 0 .43293 .94758 2)" y1="88.509" x1="8.1134"/>
  <linearGradient id="linearGradient2752">
   <stop id="stop2754" style="stop-color:#9d9d9d" offset="0"/>
   <stop id="stop2756" style="stop-color:#b9b9b9" offset="1"/>
  </linearGradient>
  <linearGradient id="linearGradient1409" y2="100.2" xlink:href="#linearGradient2752" gradientUnits="userSpaceOnUse" x2="8.1134" gradientTransform="matrix(2.3099 0 0 .43293 0 2)" y1="88.509" x1="8.1134"/>
  <linearGradient id="linearGradient2741" y2="74.098" gradientUnits="userSpaceOnUse" x2="8.6485" gradientTransform="matrix(2.1436 0 0 .48071 1 .57421)" y1="101.28" x1="13.629">
   <stop id="stop2637" style="stop-color:#f9fff5" offset="0"/>
   <stop id="stop2639" style="stop-color:#f9fff5;stop-opacity:0" offset="1"/>
  </linearGradient>
  <linearGradient id="linearGradient3233">
   <stop id="stop3235" style="stop-color:#eeeeec" offset="0"/>
   <stop id="stop3237" style="stop-color:#a3a398" offset="1"/>
  </linearGradient>
  <linearGradient id="linearGradient4126">
   <stop id="stop4128" offset="0"/>
   <stop id="stop4130" style="stop-opacity:0" offset="1"/>
  </linearGradient>
  <radialGradient id="radialGradient4132" xlink:href="#linearGradient4126" gradientUnits="userSpaceOnUse" cy="40" cx="23.857" gradientTransform="matrix(1 0 0 .5 0 20)" r="17.143"/>
  <linearGradient id="linearGradient2030" y2="26.719" gradientUnits="userSpaceOnUse" x2="38.826" gradientTransform="matrix(.57369 0 0 .61709 49.874 -4.038)" y1="26.719" x1="9.3031">
   <stop id="stop4136" style="stop-color:#d6d7d5" offset="0"/>
   <stop id="stop4148" style="stop-color:#d1d2d0" offset=".25"/>
   <stop id="stop4142" style="stop-color:#a5a6a3" offset=".5"/>
   <stop id="stop4138" style="stop-color:#dddedc" offset="1"/>
  </linearGradient>
  <linearGradient id="linearGradient2032" y2="56.576" gradientUnits="userSpaceOnUse" x2="37.969" gradientTransform="matrix(.55991 0 0 .61796 50.208 -4.0419)" y1="14.004" x1="17.16">
   <stop id="stop4178" style="stop-color:#fff" offset="0"/>
   <stop id="stop4180" style="stop-color:#fff;stop-opacity:0" offset="1"/>
  </linearGradient>
  <linearGradient id="linearGradient2034" y2="29.918" gradientUnits="userSpaceOnUse" x2="34.244" gradientTransform="matrix(.58880 0 0 .62248 49.638 -3.0162)" y1="17.695" x1="34.244">
   <stop id="stop3249" style="stop-color:#f0f0f0" offset="0"/>
   <stop id="stop3251" style="stop-color:#f0f0f0;stop-opacity:0" offset="1"/>
  </linearGradient>
  <linearGradient id="linearGradient2036" y2="32.489" gradientUnits="userSpaceOnUse" x2="32.397" gradientTransform="matrix(.75747 0 0 .79213 52.622 -3.3085)" y1="32.489" x1="11.003">
   <stop id="stop3807" style="stop-color:#284e7f" offset="0"/>
   <stop id="stop3813" style="stop-color:#6694cf" offset=".5"/>
   <stop id="stop3809" style="stop-color:#234570" offset="1"/>
  </linearGradient>
  <linearGradient id="linearGradient2038" y2="5.5617" gradientUnits="userSpaceOnUse" x2="21.756" y1="25.114" x1="21.487">
   <stop id="stop3262" style="stop-color:#3465a4" offset="0"/>
   <stop id="stop3264" style="stop-color:#8fb1dc" offset="1"/>
  </linearGradient>
  <linearGradient id="linearGradient2040" y2="20.118" gradientUnits="userSpaceOnUse" x2="25.573" y1="11.17" x1="25.698">
   <stop id="stop3817" style="stop-color:#204a87" offset="0"/>
   <stop id="stop3819" style="stop-color:#98b8e7" offset="1"/>
  </linearGradient>
  <linearGradient id="linearGradient2042" y2="8.0477" xlink:href="#linearGradient3233" gradientUnits="userSpaceOnUse" x2="23.434" y1="17.246" x1="24"/>
  <linearGradient id="linearGradient2046" y2="30" gradientUnits="userSpaceOnUse" x2="15.786" gradientTransform="matrix(.58880 0 0 .62248 49.495 -2.501)" y1="19.5" x1="16.071">
   <stop id="stop6926" style="stop-color:#fff" offset="0"/>
   <stop id="stop6928" style="stop-color:#fff;stop-opacity:0" offset="1"/>
  </linearGradient>
 </defs>
 <g id="layer1">
  <path id="path3366" style="color:#000000;display:block;fill:url(#radialGradient4132)" d="m41 40a17.143 8.5714 0 1 1 -34.286 0 17.143 8.5714 0 1 1 34.286 0z" transform="matrix(.83199 0 0 .90469 -5.1117 -7.837)"/>
  <g id="g2018" transform="translate(-56.215 1.591)">
   <path id="path1912" style="color:#000000;stroke:#767973;stroke-miterlimit:10;display:block;fill:url(#linearGradient2030)" d="m70.754 2.385c-5.953 0-10.794 2.2008-10.794 4.908v18.159c0 2.708 4.841 4.908 10.794 4.908s10.987-2.2 10.987-4.908v-18.159c0-2.7072-5.034-4.908-10.987-4.908z"/>
   <path id="path1914" style="opacity:.54430;color:#000000;stroke:url(#linearGradient2032);stroke-miterlimit:10;display:block;fill:none" d="m70.761 3.0029c-5.551 0-10.064 2.0548-10.064 4.5825v17.4c0 2.528 4.513 4.583 10.064 4.583 5.55 0 10.243-2.055 10.243-4.583v-17.4c0-2.5273-4.693-4.5821-10.243-4.5821z"/>
   <path id="path1916" style="color:#000000;display:block;fill:url(#linearGradient2034)" d="m79.785 5.9475c-0.84-0.7803-1.55-1.0179-2.295-1.4003l0.229 14.803 2.066 2.561v-15.964z"/>
   <path id="path1918" style="opacity:.79121;color:#000000;stroke:#204a87;stroke-miterlimit:10;stroke-width:.99621;display:block;fill:url(#linearGradient2036)" d="m70.323 4.2336c-5.003 0.1067-8.989 1.8535-8.989 3.983v16.541c0 2.198 4.226 3.983 9.455 3.983 5.228 0 9.477-1.785 9.477-3.983v-16.541c0-2.1986-4.249-3.9834-9.477-3.9834-0.164 0-0.305-0.0035-0.466 0z"/>
   <path id="path1920" style="color:#000000;stroke:url(#linearGradient2040);stroke-miterlimit:10;stroke-width:1.4068;display:block;fill:url(#linearGradient2038)" d="m36.857 14.071a12.857 5.5 0 1 1 -25.714 0 12.857 5.5 0 1 1 25.714 0z" transform="matrix(.73671 0 0 .68588 53.118 -2.0568)"/>
   <path id="path1922" style="opacity:.46703;color:#000000;stroke:url(#linearGradient2042);stroke-miterlimit:10;stroke-width:1.2908;display:block;fill:#f0f0f0" d="m36.857 14.071a12.857 5.5 0 1 1 -25.714 0 12.857 5.5 0 1 1 25.714 0z" transform="matrix(.78571 0 0 .76389 51.944 -3.59)"/>
   <path id="path1924" style="opacity:.30769;color:#000000;display:block;fill:url(#radialGradient4132)" d="m41 40a17.143 8.5714 0 1 1 -34.286 0 17.143 8.5714 0 1 1 34.286 0z" transform="matrix(.27528 0 0 .28788 64.06 -6.9937)"/>
   <path id="path1926" style="color:#000000;stroke:#7d7f7a;stroke-miterlimit:10;display:block;fill:#9d9e9b" d="m70.869 1.1948c-1.517 0-3.508 0.5657-3.508 1.2616v2.083c0 0.6959 1.991 1.2616 3.508 1.2616s3.341-0.5657 3.341-1.2616v-2.083c0-0.6959-1.824-1.2616-3.341-1.2616z"/>
   <path id="path1928" style="opacity:.58242;color:#000000;display:block;fill:url(#linearGradient2046)" d="m63.064 10.893l0.271 13.297 3.463 1.018-0.108-13.24s1.468-0.07 4.011-0.239c-4.921-0.04-8.136-1.251-9.909-3.0424 1.073 1.6574 2.272 2.2064 2.272 2.2064z"/>
   <path id="path1930" style="color:#000000;display:block;stroke:url(#linearGradient2042);stroke-miterlimit:10;stroke-width:5.6478;fill:#d3d7cf" d="m36.857 14.071a12.857 5.5 0 1 1 -25.714 0 12.857 5.5 0 1 1 25.714 0z" transform="matrix(.20602 0 0 .15217 65.855 0.536)"/>
  </g>
  <path id="path2409" style="fill-rule:evenodd;color:#000000;stroke:#888a85;fill:url(#linearGradient2981)" d="m9.0879 30.527h31.002c1.12 0 0.978 0.477 1.093 1.077l2.834 14.811c0.115 0.6 0.027 1.077-1.092 1.077h-36.672c-1.119 0-1.2068-0.477-1.0919-1.077l2.8346-14.811c0.1149-0.6-0.027-1.077 1.0922-1.077z"/>
  <path id="path2611" style="fill:#7a7d77;fill-rule:evenodd" d="m9.7197 34l-1.7197 8.871h5.331l0.516-3.518h14.445l0.535 3.591h6l-1.634-8.944h-23.473z"/>
  <path id="path2613" style="fill:#777874;fill-rule:evenodd" d="m13.702 39.965l-0.442 2.906h14.761l-0.442-3.059-13.877 0.153z"/>
  <path id="path2619" style="color:#000000;fill-rule:evenodd;fill:#777a75" d="m39.537 34l1.463 8.719-4.775-0.153-1.31-8.413 4.622-0.153z"/>
  <path id="path2615" style="color:#000000;fill-rule:evenodd;fill:url(#linearGradient2758)" d="m39.537 33.082l1.463 8.719-4.775-0.153-1.31-8.413 4.622-0.153z"/>
  <path id="path2617" style="fill:url(#linearGradient1411);fill-rule:evenodd" d="m9.7197 32.929l-1.7197 8.872h5.331l0.516-3.518h14.445l0.535 3.591h6l-1.634-8.945h-23.473z"/>
  <path id="path2621" style="color:#000000;fill-rule:evenodd;fill:url(#linearGradient1409)" d="m13.702 39.048l-0.442 2.906h14.761l-0.442-3.059-13.877 0.153z"/>
  <path id="path2631" style="stroke-linejoin:round;color:#000000;stroke:url(#linearGradient2741);stroke-width:.5;fill:none" d="m8.7536 31.843h31.825l2.638 14.431h-37.262l2.7986-14.431z"/>
  <path id="path2460" style="fill-rule:evenodd;color:#000000;stroke:#888a85;fill:#dde1d9" d="m35 30.411c0.953-2.438 0.683-6.913 1-10.411 0.281 3.841 0.296 9.411 1 10.499l-2-0.088z"/>
  <path id="path3335" style="fill-rule:evenodd;color:#000000;stroke:#2e3436;fill:#555753" d="m37.388 20.246a1.591 1.591 0 1 1 -3.182 0 1.591 1.591 0 1 1 3.182 0z" transform="translate(.29371 -.33705)"/>
  <path id="path3235" style="color:#000000;stroke:#babdb6;stroke-linecap:round;fill:none" d="m45.016 9.3977c-2.337-2.3355-5.569-3.7709-9.11-3.7709s-6.772 1.4354-9.109 3.7709"/>
  <path id="path3233" style="color:#000000;stroke:#babdb6;stroke-linecap:round;fill:none" d="m42.135 12.279c-1.598-1.598-3.808-2.5847-6.229-2.5847s-4.63 0.9867-6.228 2.5847"/>
  <path id="path3227" style="color:#000000;stroke:#babdb6;stroke-linecap:round;fill:none" d="m39.253 15.16c-0.861-0.861-2.042-1.398-3.347-1.398s-2.486 0.537-3.347 1.398"/>
 </g>
</svg>
