<?xml version="1.0" encoding="UTF-8" standalone="no"?>
<!-- Created with Inkscape (http://www.inkscape.org/) -->
<svg id="svg1328" xmlns="http://www.w3.org/2000/svg" height="48" width="48" version="1.0" xmlns:xlink="http://www.w3.org/1999/xlink">
 <defs id="defs3">
  <linearGradient id="linearGradient2981" y2="52.536" gradientUnits="userSpaceOnUse" x2="18.177" gradientTransform="matrix(1.1299 0 0 .89911 0 1.5553)" y1="48.643" x1="18.317">
   <stop id="stop2247" style="stop-color:#dde1d9" offset="0"/>
   <stop id="stop2249" style="stop-color:#cacdc6" offset="1"/>
  </linearGradient>
  <linearGradient id="linearGradient2758" y2="100.2" xlink:href="#linearGradient2752" gradientUnits="userSpaceOnUse" x2="8.1134" gradientTransform="matrix(2.0128 0 0 .43293 4.4898 2)" y1="88.509" x1="8.1134"/>
  <linearGradient id="linearGradient1411" y2="100.2" xlink:href="#linearGradient2752" gradientUnits="userSpaceOnUse" x2="8.1134" gradientTransform="matrix(2.247 0 0 .43293 .94758 2)" y1="88.509" x1="8.1134"/>
  <linearGradient id="linearGradient2752">
   <stop id="stop2754" style="stop-color:#9d9d9d" offset="0"/>
   <stop id="stop2756" style="stop-color:#b9b9b9" offset="1"/>
  </linearGradient>
  <linearGradient id="linearGradient1409" y2="100.2" xlink:href="#linearGradient2752" gradientUnits="userSpaceOnUse" x2="8.1134" gradientTransform="matrix(2.3099 0 0 .43293 0 2)" y1="88.509" x1="8.1134"/>
  <linearGradient id="linearGradient2741" y2="74.098" gradientUnits="userSpaceOnUse" x2="8.6485" gradientTransform="matrix(2.1436 0 0 .48071 1 .57421)" y1="101.28" x1="13.629">
   <stop id="stop2637" style="stop-color:#f9fff5" offset="0"/>
   <stop id="stop2639" style="stop-color:#f9fff5;stop-opacity:0" offset="1"/>
  </linearGradient>
  <linearGradient id="linearGradient3233">
   <stop id="stop3235" style="stop-color:#eeeeec" offset="0"/>
   <stop id="stop3237" style="stop-color:#a3a398" offset="1"/>
  </linearGradient>
  <linearGradient id="linearGradient4126">
   <stop id="stop4128" offset="0"/>
   <stop id="stop4130" style="stop-opacity:0" offset="1"/>
  </linearGradient>
  <radialGradient id="radialGradient4132" xlink:href="#linearGradient4126" gradientUnits="userSpaceOnUse" cy="40" cx="23.857" gradientTransform="matrix(1 0 0 .5 0 20)" r="17.143"/>
  <linearGradient id="linearGradient4230" y2="8.0477" xlink:href="#linearGradient3233" gradientUnits="userSpaceOnUse" x2="23.434" y1="17.246" x1="24"/>
  <linearGradient id="linearGradient3266" y2="5.5617" gradientUnits="userSpaceOnUse" x2="21.756" y1="25.114" x1="21.487">
   <stop id="stop3262" style="stop-color:#3465a4" offset="0"/>
   <stop id="stop3264" style="stop-color:#8fb1dc" offset="1"/>
  </linearGradient>
  <linearGradient id="linearGradient3821" y2="20.118" gradientUnits="userSpaceOnUse" x2="25.573" y1="11.17" x1="25.698">
   <stop id="stop3817" style="stop-color:#204a87" offset="0"/>
   <stop id="stop3819" style="stop-color:#98b8e7" offset="1"/>
  </linearGradient>
  <linearGradient id="linearGradient3811" y2="32.489" gradientUnits="userSpaceOnUse" x2="32.397" gradientTransform="matrix(.98999 0 0 1 .97154 -1.9494)" y1="32.489" x1="11.003">
   <stop id="stop3807" style="stop-color:#284e7f" offset="0"/>
   <stop id="stop3813" style="stop-color:#6694cf" offset=".5"/>
   <stop id="stop3809" style="stop-color:#234570" offset="1"/>
  </linearGradient>
  <linearGradient id="linearGradient2176" y2="26.719" gradientUnits="userSpaceOnUse" x2="38.826" gradientTransform="matrix(.76565 0 0 .77902 -3.9201 -3.0511)" y1="26.719" x1="9.3031">
   <stop id="stop4136" style="stop-color:#d6d7d5" offset="0"/>
   <stop id="stop4148" style="stop-color:#d1d2d0" offset=".25"/>
   <stop id="stop4142" style="stop-color:#a5a6a3" offset=".5"/>
   <stop id="stop4138" style="stop-color:#dddedc" offset="1"/>
  </linearGradient>
  <linearGradient id="linearGradient2178" y2="56.576" gradientUnits="userSpaceOnUse" x2="37.969" gradientTransform="matrix(.74726 0 0 .78013 -3.4746 -3.056)" y1="14.004" x1="17.16">
   <stop id="stop4178" style="stop-color:#fff" offset="0"/>
   <stop id="stop4180" style="stop-color:#fff;stop-opacity:0" offset="1"/>
  </linearGradient>
  <linearGradient id="linearGradient2180" y2="29.918" gradientUnits="userSpaceOnUse" x2="34.244" gradientTransform="matrix(.78582 0 0 .78582 -4.2348 -1.7612)" y1="17.695" x1="34.244">
   <stop id="stop3249" style="stop-color:#f0f0f0" offset="0"/>
   <stop id="stop3251" style="stop-color:#f0f0f0;stop-opacity:0" offset="1"/>
  </linearGradient>
  <linearGradient id="linearGradient2184" y2="30" gradientUnits="userSpaceOnUse" x2="15.786" gradientTransform="matrix(.78582 0 0 .78582 -4.4264 -1.1109)" y1="19.5" x1="16.071">
   <stop id="stop6926" style="stop-color:#fff" offset="0"/>
   <stop id="stop6928" style="stop-color:#fff;stop-opacity:0" offset="1"/>
  </linearGradient>
 </defs>
 <g id="layer1">
  <path id="path3366" style="color:#000000;display:block;fill:url(#radialGradient4132)" d="m41 40a17.143 8.5714 0 1 1 -34.286 0 17.143 8.5714 0 1 1 34.286 0z" transform="matrix(.83199 0 0 .90469 -5.1117 -7.837)"/>
  <g id="g2145" transform="matrix(.76843 0 0 .76843 -3.8606 -.07849)">
   <g id="g2147">
    <path id="path2149" style="color:#000000;display:block;fill:url(#radialGradient4132)" d="m41 40a17.143 8.5714 0 1 1 -34.286 0 17.143 8.5714 0 1 1 34.286 0z" transform="matrix(1.05 0 0 1.1674 -1.05 -13.7)"/>
    <path id="path2151" style="color:#000000;stroke:#767973;stroke-miterlimit:10;stroke-width:1.3014;display:block;fill:url(#linearGradient2176)" d="m24.071 5.0745c-7.944 0-14.403 2.7782-14.403 6.1955-0.0004 0.246-0.0004 22.67-0.0004 22.925 0 3.418 6.4594 6.196 14.403 6.196 7.944 0 14.66-2.778 14.66-6.196v-22.925c0-3.4173-6.716-6.1955-14.66-6.1955z"/>
    <path id="path2153" style="opacity:.79121;color:#000000;stroke:#204a87;stroke-miterlimit:10;stroke-width:1.2964;display:block;fill:url(#linearGradient3811)" d="m23.515 14.947c-6.61 0.135-11.877 2.34-11.877 5.028v13.507c0 2.775 5.584 5.028 12.493 5.028 6.908 0 12.521-2.253 12.521-5.028v-13.507c0-2.775-5.613-5.028-12.521-5.028-0.216 0-0.403-0.004-0.616 0z"/>
    <path id="path2155" style="opacity:.54430;color:#000000;stroke:url(#linearGradient2178);stroke-miterlimit:10;stroke-width:1.3014;display:block;fill:none" d="m24.08 5.8545c-7.407 0-13.429 2.594-13.429 5.7845v21.966c0 3.191 6.022 5.785 13.429 5.785 7.406 0 13.668-2.594 13.668-5.785v-21.966c0-3.1905-6.262-5.7845-13.668-5.7845z"/>
    <path id="path2157" style="color:#000000;stroke:url(#linearGradient3821);stroke-miterlimit:10;stroke-width:1.4181;display:block;fill:url(#linearGradient3266)" d="m36.857 14.071a12.857 5.5 0 1 1 -25.714 0 12.857 5.5 0 1 1 25.714 0z" transform="matrix(.97264 0 0 .86586 .79650 7.1502)"/>
    <path id="path2159" style="color:#000000;display:block;fill:url(#linearGradient2180)" d="m36.122 9.5718c-1.121-0.9851-2.069-1.285-3.063-1.7677l0.306 18.688 2.757 3.232v-20.152z"/>
    <path id="path2161" style="opacity:.46703;color:#000000;stroke:url(#linearGradient4230);stroke-miterlimit:10;stroke-width:1.2942;display:block;fill:#f0f0f0" d="m36.857 14.071a12.857 5.5 0 1 1 -25.714 0 12.857 5.5 0 1 1 25.714 0z" transform="matrix(1.0484 0 0 .96434 -1.0287 -2.4686)"/>
    <path id="path2163" style="opacity:.30769;color:#000000;display:block;fill:url(#radialGradient4132)" d="m41 40a17.143 8.5714 0 1 1 -34.286 0 17.143 8.5714 0 1 1 34.286 0z" transform="matrix(.36734 0 0 .36343 15.138 -6.7655)"/>
    <path id="path2165" style="color:#000000;stroke:#7d7f7a;stroke-miterlimit:10;stroke-width:1.3014;display:block;fill:#9d9e9b" d="m24.225 3.5718c-2.025 0-4.682 0.7142-4.682 1.5927v2.6297c0 0.8785 2.657 1.5926 4.682 1.5926 2.024 0 4.457-0.7141 4.457-1.5926v-2.6297c0-0.8785-2.433-1.5927-4.457-1.5927z"/>
    <path id="path2167" style="opacity:.58242;color:#000000;display:block;fill:url(#linearGradient2184)" d="m13.81 15.815l0.361 16.786 4.62 1.286-0.144-16.714s1.96-0.089 5.353-0.303c-6.567-0.05-10.857-1.578-13.222-3.84 1.432 2.092 3.032 2.785 3.032 2.785z"/>
    <path id="path2169" style="color:#000000;display:block;stroke:url(#linearGradient4230);stroke-miterlimit:10;stroke-width:5.6628;fill:#d3d7cf" d="m36.857 14.071a12.857 5.5 0 1 1 -25.714 0 12.857 5.5 0 1 1 25.714 0z" transform="matrix(.27490 0 0 .19211 17.533 2.7402)"/>
   </g>
  </g>
  <path id="path2409" style="fill-rule:evenodd;color:#000000;stroke:#888a85;fill:url(#linearGradient2981)" d="m9.0879 30.527h31.002c1.12 0 0.978 0.477 1.093 1.077l2.834 14.811c0.115 0.6 0.027 1.077-1.092 1.077h-36.672c-1.119 0-1.2068-0.477-1.0919-1.077l2.8346-14.811c0.1149-0.6-0.027-1.077 1.0922-1.077z"/>
  <path id="path2611" style="fill:#7a7d77;fill-rule:evenodd" d="m9.7197 34l-1.7197 8.871h5.331l0.516-3.518h14.445l0.535 3.591h6l-1.634-8.944h-23.473z"/>
  <path id="path2613" style="fill:#777874;fill-rule:evenodd" d="m13.702 39.965l-0.442 2.906h14.761l-0.442-3.059-13.877 0.153z"/>
  <path id="path2619" style="color:#000000;fill-rule:evenodd;fill:#777a75" d="m39.537 34l1.463 8.719-4.775-0.153-1.31-8.413 4.622-0.153z"/>
  <path id="path2615" style="color:#000000;fill-rule:evenodd;fill:url(#linearGradient2758)" d="m39.537 33.082l1.463 8.719-4.775-0.153-1.31-8.413 4.622-0.153z"/>
  <path id="path2617" style="fill:url(#linearGradient1411);fill-rule:evenodd" d="m9.7197 32.929l-1.7197 8.872h5.331l0.516-3.518h14.445l0.535 3.591h6l-1.634-8.945h-23.473z"/>
  <path id="path2621" style="color:#000000;fill-rule:evenodd;fill:url(#linearGradient1409)" d="m13.702 39.048l-0.442 2.906h14.761l-0.442-3.059-13.877 0.153z"/>
  <path id="path2631" style="stroke-linejoin:round;color:#000000;stroke:url(#linearGradient2741);stroke-width:.5;fill:none" d="m8.7536 31.843h31.825l2.638 14.431h-37.262l2.7986-14.431z"/>
  <path id="path2460" style="fill-rule:evenodd;color:#000000;stroke:#888a85;fill:#dde1d9" d="m35 30.411c0.953-2.438 0.683-6.913 1-10.411 0.281 3.841 0.296 9.411 1 10.499l-2-0.088z"/>
  <path id="path3335" style="fill-rule:evenodd;color:#000000;stroke:#2e3436;fill:#555753" d="m37.388 20.246a1.591 1.591 0 1 1 -3.182 0 1.591 1.591 0 1 1 3.182 0z" transform="translate(.29371 -.33705)"/>
  <path id="path3235" style="color:#000000;stroke:#babdb6;stroke-linecap:round;fill:none" d="m45.016 9.3977c-2.337-2.3355-5.569-3.7709-9.11-3.7709s-6.772 1.4354-9.109 3.7709"/>
  <path id="path3233" style="color:#000000;stroke:#babdb6;stroke-linecap:round;fill:none" d="m42.135 12.279c-1.598-1.598-3.808-2.5847-6.229-2.5847s-4.63 0.9867-6.228 2.5847"/>
  <path id="path3227" style="color:#000000;stroke:#babdb6;stroke-linecap:round;fill:none" d="m39.253 15.16c-0.861-0.861-2.042-1.398-3.347-1.398s-2.486 0.537-3.347 1.398"/>
 </g>
</svg>
