<?xml version="1.0" encoding="UTF-8" standalone="no"?>
<!-- Created with Inkscape (http://www.inkscape.org/) -->
<svg id="svg1328" xmlns="http://www.w3.org/2000/svg" height="48" width="48" version="1.0" xmlns:xlink="http://www.w3.org/1999/xlink">
 <defs id="defs3">
  <linearGradient id="aigrd2" y2="13.048" gradientUnits="userSpaceOnUse" x2="34.009" gradientTransform="matrix(.93796 0 0 .93796 6.4859 12.646)" y1="30.36" x1="16.345">
   <stop id="stop3655" style="stop-color:#686868" offset="0"/>
   <stop id="stop3657" style="stop-color:#6d6d6d" offset="1"/>
  </linearGradient>
  <linearGradient id="aigrd3" y2="15.62" gradientUnits="userSpaceOnUse" x2="39.192" gradientTransform="matrix(.93796 0 0 .93796 6.4859 12.646)" y1="27.354" x1="6.8618">
   <stop id="stop3664" style="stop-color:#fcfcfc" offset="0"/>
   <stop id="stop3666" style="stop-color:#bbb" offset="1"/>
  </linearGradient>
  <linearGradient id="aigrd4" y2="11.608" gradientUnits="userSpaceOnUse" x2="37.141" gradientTransform="matrix(.93796 0 0 .93796 6.4859 12.646)" y1="19.663" x1="14.948">
   <stop id="stop3671" style="stop-color:#ebebeb" offset="0"/>
   <stop id="stop3673" style="stop-color:#818181" offset="1"/>
  </linearGradient>
  <radialGradient id="aigrd6" gradientUnits="userSpaceOnUse" cy="15.932" cx="12.472" gradientTransform="matrix(.907 .4211 -.4211 .907 19.29 -10.214)" r="6.1649">
   <stop id="stop3693" style="stop-color:#9e9e9e" offset="0"/>
   <stop id="stop3695" style="stop-color:#535353" offset="1"/>
  </radialGradient>
  <radialGradient id="aigrd5" gradientUnits="userSpaceOnUse" cy="15.984" cx="14.547" gradientTransform="matrix(.907 .4211 -.4211 .907 19.29 -10.214)" r="4.5099">
   <stop id="stop3686" style="stop-color:#efefef" offset="0"/>
   <stop id="stop3688" style="stop-color:#6d6d6d" offset="1"/>
  </radialGradient>
  <linearGradient id="linearGradient3247">
   <stop id="stop3249" style="stop-color:#f0f0f0" offset="0"/>
   <stop id="stop3251" style="stop-color:#f0f0f0;stop-opacity:0" offset="1"/>
  </linearGradient>
  <linearGradient id="linearGradient3233">
   <stop id="stop3235" style="stop-color:#eeeeec" offset="0"/>
   <stop id="stop3237" style="stop-color:#a3a398" offset="1"/>
  </linearGradient>
  <linearGradient id="linearGradient4126">
   <stop id="stop4128" offset="0"/>
   <stop id="stop4130" style="stop-opacity:0" offset="1"/>
  </linearGradient>
  <radialGradient id="radialGradient4132" xlink:href="#linearGradient4126" gradientUnits="userSpaceOnUse" cy="40" cx="23.857" gradientTransform="matrix(1 0 0 .5 0 20)" r="17.143"/>
  <linearGradient id="linearGradient3253" y2="29.918" xlink:href="#linearGradient3247" gradientUnits="userSpaceOnUse" x2="34.244" gradientTransform="matrix(.78582 0 0 .78582 -4.2348 .23882)" y1="17.695" x1="34.244"/>
  <linearGradient id="linearGradient4678" y2="13.048" xlink:href="#aigrd2" gradientUnits="userSpaceOnUse" x2="34.009" gradientTransform="matrix(.93796 0 0 .93796 6.4913 12.624)" y1="30.36" x1="16.345"/>
  <linearGradient id="linearGradient4003" y2="26.719" gradientUnits="userSpaceOnUse" x2="38.826" gradientTransform="matrix(.76565 0 0 .77902 -3.9201 -3.0511)" y1="26.719" x1="9.3031">
   <stop id="stop4136" style="stop-color:#d6d7d5" offset="0"/>
   <stop id="stop4148" style="stop-color:#d1d2d0" offset=".25"/>
   <stop id="stop4142" style="stop-color:#a5a6a3" offset=".5"/>
   <stop id="stop4138" style="stop-color:#dddedc" offset="1"/>
  </linearGradient>
  <linearGradient id="linearGradient4005" y2="32.489" gradientUnits="userSpaceOnUse" x2="32.397" gradientTransform="matrix(.98999 0 0 1 .97154 -1.9494)" y1="32.489" x1="11.003">
   <stop id="stop3807" style="stop-color:#284e7f" offset="0"/>
   <stop id="stop3813" style="stop-color:#6694cf" offset=".5"/>
   <stop id="stop3809" style="stop-color:#234570" offset="1"/>
  </linearGradient>
  <linearGradient id="linearGradient4007" y2="56.576" gradientUnits="userSpaceOnUse" x2="37.969" gradientTransform="matrix(.74726 0 0 .78013 -3.4746 -3.056)" y1="14.004" x1="17.16">
   <stop id="stop4178" style="stop-color:#fff" offset="0"/>
   <stop id="stop4180" style="stop-color:#fff;stop-opacity:0" offset="1"/>
  </linearGradient>
  <linearGradient id="linearGradient4009" y2="5.5617" gradientUnits="userSpaceOnUse" x2="21.756" y1="25.114" x1="21.487">
   <stop id="stop3262" style="stop-color:#3465a4" offset="0"/>
   <stop id="stop3264" style="stop-color:#8fb1dc" offset="1"/>
  </linearGradient>
  <linearGradient id="linearGradient4011" y2="20.118" gradientUnits="userSpaceOnUse" x2="25.573" y1="11.17" x1="25.698">
   <stop id="stop3817" style="stop-color:#204a87" offset="0"/>
   <stop id="stop3819" style="stop-color:#98b8e7" offset="1"/>
  </linearGradient>
  <linearGradient id="linearGradient4013" y2="29.918" xlink:href="#linearGradient3247" gradientUnits="userSpaceOnUse" x2="34.244" gradientTransform="matrix(.78582 0 0 .78582 -4.2348 -1.7612)" y1="17.695" x1="34.244"/>
  <linearGradient id="linearGradient4015" y2="8.0477" xlink:href="#linearGradient3233" gradientUnits="userSpaceOnUse" x2="23.434" y1="17.246" x1="24"/>
  <linearGradient id="linearGradient4019" y2="30" gradientUnits="userSpaceOnUse" x2="15.786" gradientTransform="matrix(.78582 0 0 .78582 -4.4264 -1.1109)" y1="19.5" x1="16.071">
   <stop id="stop6926" style="stop-color:#fff" offset="0"/>
   <stop id="stop6928" style="stop-color:#fff;stop-opacity:0" offset="1"/>
  </linearGradient>
 </defs>
 <g id="layer1">
  <path id="path3366" style="color:#000000;display:block;fill:url(#radialGradient4132)" d="m41 40a17.143 8.5714 0 1 1 -34.286 0 17.143 8.5714 0 1 1 34.286 0z" transform="matrix(.83199 0 0 .90469 -5.1117 -7.837)"/>
  <path id="path3245" style="opacity:.68681;color:#000000;display:block;fill:url(#linearGradient3253)" d="m23.945 9.4212c-0.871-0.7741-1.608-1.0098-2.381-1.3892l0.238 14.685 2.143 2.541v-15.837z"/>
  <g id="g2145" transform="matrix(.76843 0 0 .76843 -3.8557 2.0924)">
   <g id="g2147">
    <path id="path2149" style="color:#000000;display:block;fill:url(#radialGradient4132)" d="m41 40a17.143 8.5714 0 1 1 -34.286 0 17.143 8.5714 0 1 1 34.286 0z" transform="matrix(1.05 0 0 1.1674 -1.05 -13.7)"/>
    <path id="path2151" style="color:#000000;stroke:#767973;stroke-miterlimit:10;stroke-width:1.3014;display:block;fill:url(#linearGradient4003)" d="m24.071 5.0745c-7.944 0-14.403 2.7782-14.403 6.1955-0.0004 0.246-0.0004 22.67-0.0004 22.925 0 3.418 6.4594 6.196 14.403 6.196 7.944 0 14.66-2.778 14.66-6.196v-22.925c0-3.4173-6.716-6.1955-14.66-6.1955z"/>
    <path id="path2153" style="opacity:.79121;color:#000000;stroke:#204a87;stroke-miterlimit:10;stroke-width:1.2964;display:block;fill:url(#linearGradient4005)" d="m23.515 14.947c-6.61 0.135-11.877 2.34-11.877 5.028v13.507c0 2.775 5.584 5.028 12.493 5.028 6.908 0 12.521-2.253 12.521-5.028v-13.507c0-2.775-5.613-5.028-12.521-5.028-0.216 0-0.403-0.004-0.616 0z"/>
    <path id="path2155" style="opacity:.54430;color:#000000;stroke:url(#linearGradient4007);stroke-miterlimit:10;stroke-width:1.3014;display:block;fill:none" d="m24.08 5.8545c-7.407 0-13.429 2.594-13.429 5.7845v21.966c0 3.191 6.022 5.785 13.429 5.785 7.406 0 13.668-2.594 13.668-5.785v-21.966c0-3.1905-6.262-5.7845-13.668-5.7845z"/>
    <path id="path2157" style="color:#000000;stroke:url(#linearGradient4011);stroke-miterlimit:10;stroke-width:1.4181;display:block;fill:url(#linearGradient4009)" d="m36.857 14.071a12.857 5.5 0 1 1 -25.714 0 12.857 5.5 0 1 1 25.714 0z" transform="matrix(.97264 0 0 .86586 .79650 7.1502)"/>
    <path id="path2159" style="color:#000000;display:block;fill:url(#linearGradient4013)" d="m36.122 9.5718c-1.121-0.9851-2.069-1.285-3.063-1.7677l0.306 18.688 2.757 3.232v-20.152z"/>
    <path id="path2161" style="opacity:.46703;color:#000000;stroke:url(#linearGradient4015);stroke-miterlimit:10;stroke-width:1.2942;display:block;fill:#f0f0f0" d="m36.857 14.071a12.857 5.5 0 1 1 -25.714 0 12.857 5.5 0 1 1 25.714 0z" transform="matrix(1.0484 0 0 .96434 -1.0287 -2.4686)"/>
    <path id="path2163" style="opacity:.30769;color:#000000;display:block;fill:url(#radialGradient4132)" d="m41 40a17.143 8.5714 0 1 1 -34.286 0 17.143 8.5714 0 1 1 34.286 0z" transform="matrix(.36734 0 0 .36343 15.138 -6.7655)"/>
    <path id="path2165" style="color:#000000;stroke:#7d7f7a;stroke-miterlimit:10;stroke-width:1.3014;display:block;fill:#9d9e9b" d="m24.225 3.5718c-2.025 0-4.682 0.7142-4.682 1.5927v2.6297c0 0.8785 2.657 1.5926 4.682 1.5926 2.024 0 4.457-0.7141 4.457-1.5926v-2.6297c0-0.8785-2.433-1.5927-4.457-1.5927z"/>
    <path id="path2167" style="opacity:.58242;color:#000000;display:block;fill:url(#linearGradient4019)" d="m13.81 15.815l0.361 16.786 4.62 1.286-0.144-16.714s1.96-0.089 5.353-0.303c-6.567-0.05-10.857-1.578-13.222-3.84 1.432 2.092 3.032 2.785 3.032 2.785z"/>
    <path id="path2169" style="color:#000000;display:block;stroke:url(#linearGradient4015);stroke-miterlimit:10;stroke-width:5.6628;fill:#d3d7cf" d="m36.857 14.071a12.857 5.5 0 1 1 -25.714 0 12.857 5.5 0 1 1 25.714 0z" transform="matrix(.27490 0 0 .19211 17.533 2.7402)"/>
   </g>
  </g>
  <path id="path3796" style="stroke:#595959;stroke-width:2;fill:url(#linearGradient4678)" d="m26.478 23.505c-4.056 0.103-12.328 1.279-13.688 14.625-0.045 0.494-0.047 0.979 0.032 1.437-0.002 0.008 0.001 0.024 0 0.031-1.165 5.975 12.163 9.634 18.062 4.157l11.25-11.157c1.319-1.319 0.15-4.04 0-4.375-0.01-0.022 0-0.031 0-0.031-1.876-3.189-11.154-4.687-14.531-4.687-0.317 0-0.705-0.011-1.125 0z"/>
  <path id="path3659" style="fill:url(#aigrd2)" d="m42.129 28.216l-28.327 9.286c-5.2526 7.129 10.505 12.381 17.071 6.285l11.256-11.162c1.406-1.407 0-4.409 0-4.409z"/>
  <path id="path3661" style="fill:#f0f0f0" d="m42.129 28.685c-1.876-3.189-11.162-4.689-14.539-4.689-3.283 0-13.319-0.094-14.726 14.632-0.469 5.065 6.003 8.348 11.068 6.753 4.971-1.594 5.159-9.38 9.286-12.569s10.786-0.844 8.911-4.033v-0.094z"/>
  <path id="path3668" style="fill:url(#aigrd3)" d="m42.129 28.216c-1.876-3.189-11.162-4.689-14.539-4.689s-13.319-0.094-14.82 14.632c-0.469 5.065 6.003 8.348 11.068 6.753 4.971-1.594 5.159-9.379 9.286-12.569 4.127-3.189 10.787-0.844 8.911-4.033l0.094-0.094z"/>
  <path id="path3675" style="fill:url(#aigrd4)" d="m42.316 29.154c0.282 1.501-5.909 0.657-7.316 2.158-1.126-2.064-5.722-4.221-9.192-4.972-3.377-0.75-7.504-0.187-7.504-0.187 5.722-5.253 23.543-1.688 24.012 3.001z"/>
  <path id="path3677" style="opacity:.3;fill:#fff" d="m35.281 32.906c3.752-1.876 4.409-0.656 6.66-2.532-1.501 2.063-3.564 1.5-5.815 2.626l-0.938-0.094h0.093z"/>
  <path id="path3679" style="opacity:.3" d="m35.094 31.312l0.187 1.688c3.94-1.97 4.409-0.281 7.035-2.908-2.908 1.97-4.033 0.938-6.847 2.158l-0.469-0.845 0.094-0.093z"/>
  <path id="path3681" style="opacity:.3" d="m25.808 26.34l0.563 0.188c2.72-2.345 10.036-1.407 10.036-1.407s-7.785-1.407-10.599 1.313v-0.094z"/>
  <path id="path4680" style="opacity:.37363;stroke:#fff;fill:none" d="m26.209 24.025c-6.092 0.344-10.84 2.297-12.981 14.403-1.296 7.328 11.863 9.988 17.27 4.968l11.185-11.099c1.209-1.209 0.875-3.585-1.063-4.947-4.045-2.846-10.285-3.325-13.38-3.325-0.29 0-0.646-0.01-1.031 0z"/>
  <g id="g3683" style="stroke:#000;fill:#bababa" transform="matrix(.93796 0 0 .93796 6.4859 12.646)">
   <path id="path3690" style="fill:url(#aigrd5)" d="m26.8 11.2c-1.8-0.3-2.9 0.9-3.3 1.9 0.5 0.6 1 0.8 2.2 0.7 1.8-0.1 2.6-0.2 3.8-1-0.6-0.6-1.5-1.5-2.7-1.7v0.1z"/>
   <path id="path3697" style="fill:url(#aigrd6)" d="m27.6 11.9c-1.1-0.2-1.7 1.3-1.9 2 1.1-0.1 2.9-0.3 3.6-1.1-0.3-0.4-0.9-0.7-1.7-0.8v-0.1z"/>
  </g>
  <path id="path3235" style="color:#000000;stroke:#babdb6;stroke-linecap:round;fill:none" d="m47.583 16.583c-1.631-2.873-4.364-5.116-7.778-6.058-3.413-0.9423-6.91-0.418-9.784 1.211"/>
  <path id="path3233" style="color:#000000;stroke:#babdb6;stroke-linecap:round;fill:none" d="m44.04 18.594c-1.116-1.966-2.983-3.504-5.317-4.148-2.334-0.645-4.726-0.282-6.691 0.834"/>
  <path id="path3227" style="color:#000000;stroke:#babdb6;stroke-linecap:round;fill:none" d="m40.496 20.605c-0.601-1.06-1.597-1.891-2.855-2.238-1.258-0.348-2.539-0.144-3.598 0.457"/>
 </g>
</svg>
