<?xml version="1.0" encoding="UTF-8" standalone="no"?>
<!-- Created with Inkscape (http://www.inkscape.org/) -->
<svg id="svg7384" xmlns:rdf="http://www.w3.org/1999/02/22-rdf-syntax-ns#" xmlns="http://www.w3.org/2000/svg" height="16" width="16" version="1.1" xmlns:cc="http://creativecommons.org/ns#" xmlns:dc="http://purl.org/dc/elements/1.1/">
 <metadata id="metadata90">
  <rdf:RDF>
   <cc:Work rdf:about="">
    <dc:format>image/svg+xml</dc:format>
    <dc:type rdf:resource="http://purl.org/dc/dcmitype/StillImage"/>
    <dc:title>Gnome Symbolic Icon Theme</dc:title>
   </cc:Work>
  </rdf:RDF>
 </metadata>
 <title id="title9167">Gnome Symbolic Icon Theme</title>
 <g id="layer15" transform="translate(-522 -382)">
  <path id="path24876" style="color:#000000;enable-background:new;fill:#bebebe" d="m291 178.03a1.9688 1.9688 0 1 1 -3.9375 0 1.9688 1.9688 0 1 1 3.9375 0z" transform="matrix(1.5079 0 0 1.5079 94.191 124.57)"/>
  <path id="path24878" style="color:#000000;enable-background:new;fill:#bebebe" d="m522 385v5.1048l1.4678-1.4053 2.5704 2.5704c0.40221-1.1004 1.0725-1.8873 2.1638-2.3034l-2.6275-2.5612 1.45-1.4z"/>
  <path id="path24884" style="color:#000000;enable-background:new;fill:#bebebe" d="m538 385v5.1048l-1.4678-1.4053-2.5154 2.6534c-0.40221-1.1004-1.1495-1.8819-2.2408-2.298l2.6496-2.6496-1.44-1.39z"/>
 </g>
</svg>
