<?xml version="1.0" encoding="UTF-8" standalone="no"?>
<!-- Created with Inkscape (http://www.inkscape.org/) -->
<svg id="svg2" xmlns:rdf="http://www.w3.org/1999/02/22-rdf-syntax-ns#" xmlns="http://www.w3.org/2000/svg" height="48" width="48" version="1.0" xmlns:cc="http://creativecommons.org/ns#" xmlns:dc="http://purl.org/dc/elements/1.1/">
 <metadata id="metadata7">
  <rdf:RDF>
   <cc:Work rdf:about="">
    <dc:format>image/svg+xml</dc:format>
    <dc:type rdf:resource="http://purl.org/dc/dcmitype/StillImage"/>
    <cc:license rdf:resource=""/>
    <dc:title>Accessories Character Map</dc:title>
    <dc:date>May 2009</dc:date>
    <dc:creator>
     <cc:Agent>
      <dc:title>Luca Ferretti</dc:title>
     </cc:Agent>
    </dc:creator>
    <dc:subject>
     <rdf:Bag>
      <rdf:li>character map</rdf:li>
     </rdf:Bag>
    </dc:subject>
    <dc:description>A keyboard key with à letter on it</dc:description>
   </cc:Work>
  </rdf:RDF>
 </metadata>
 <g id="layer1">
  <rect id="rect1306" style="display:none;fill:none" height="60" width="60" y="0" x="0"/>
  <rect id="rect2394" style="fill:none" ry="0" height="48" width="48" y="0" x="0"/>
  <rect id="rect3182" style="stroke-linejoin:round;stroke:#fff;stroke-width:8;fill:#fff" ry="6.9928" height="40" width="40" y="4" x="4"/>
  <rect id="rect2398" ry="6.9928" height="40" width="40" y="4" x="4"/>
  <rect id="rect3172" style="fill:#fff" ry="1.8129" height="22" width="22" y="13" x="13"/>
  <path id="text3184" transform="scale(1.015 .98520)" d="m25.883 27.124c-0.794 0-1.392 0.134-1.796 0.403-0.397 0.27-0.596 0.667-0.596 1.191 0 0.482 0.16 0.861 0.479 1.137 0.326 0.27 0.776 0.404 1.35 0.404 0.715 0 1.318-0.255 1.807-0.765 0.489-0.517 0.733-1.162 0.733-1.935v-0.435h-1.977m5.814-1.435v6.792h-3.837v-1.765c-0.51 0.723-1.084 1.251-1.722 1.584-0.638 0.326-1.414 0.489-2.328 0.489-1.233 0-2.235-0.358-3.008-1.074-0.765-0.722-1.148-1.658-1.148-2.806 0-1.396 0.478-2.42 1.435-3.072 0.964-0.652 2.473-0.978 4.528-0.978h2.243v-0.297c0-0.603-0.237-1.042-0.712-1.318-0.475-0.284-1.215-0.425-2.222-0.425-0.815 0-1.573 0.081-2.274 0.244-0.702 0.163-1.354 0.408-1.956 0.733v-2.901c0.815-0.199 1.633-0.348 2.455-0.447 0.822-0.106 1.644-0.159 2.466-0.159 2.147 0 3.696 0.425 4.645 1.275 0.957 0.844 1.435 2.218 1.435 4.125m-6.994-10.619l2.998 3.996h-2.084l-3.922-3.996h3.008"/>
  <path id="path3188" style="fill:#fff;fill-rule:evenodd" d="m8 10l3 3v22l-3 3v-28"/>
  <path id="path3190" style="fill:#fff;fill-rule:evenodd" d="m40 10l-3 3v22l3 3v-28"/>
  <path id="path3192" style="fill:#fff;fill-rule:evenodd" d="m38 40l-3-3h-22l-3 3h28"/>
  <path id="path3194" style="fill:#fff;fill-rule:evenodd" d="m38 8l-3 3h-22l-3-3h28"/>
 </g>
</svg>
