<?xml version="1.0" encoding="UTF-8" standalone="no"?>
<!-- Created with Inkscape (http://www.inkscape.org/) -->
<svg id="svg4908" xmlns:rdf="http://www.w3.org/1999/02/22-rdf-syntax-ns#" xmlns="http://www.w3.org/2000/svg" height="48px" width="48px" xmlns:cc="http://web.resource.org/cc/" xmlns:dc="http://purl.org/dc/elements/1.1/">
 <metadata id="metadata4913">
  <rdf:RDF>
   <cc:Work rdf:about="">
    <dc:format>image/svg+xml</dc:format>
    <dc:type rdf:resource="http://purl.org/dc/dcmitype/StillImage"/>
    <dc:title>Bug Buddy</dc:title>
    <dc:date>February 2007</dc:date>
    <dc:creator>
     <cc:Agent>
      <dc:title>Andreas Nilsson</dc:title>
     </cc:Agent>
    </dc:creator>
    <dc:source>http://www.gnome.org</dc:source>
    <cc:license rdf:resource="http://creativecommons.org/licenses/GPL/2.0/"/>
   </cc:Work>
   <cc:License rdf:about="http://creativecommons.org/licenses/GPL/2.0/">
    <cc:permits rdf:resource="http://web.resource.org/cc/Reproduction"/>
    <cc:permits rdf:resource="http://web.resource.org/cc/Distribution"/>
    <cc:requires rdf:resource="http://web.resource.org/cc/Notice"/>
    <cc:permits rdf:resource="http://web.resource.org/cc/DerivativeWorks"/>
    <cc:requires rdf:resource="http://web.resource.org/cc/ShareAlike"/>
    <cc:requires rdf:resource="http://web.resource.org/cc/SourceCode"/>
   </cc:License>
  </rdf:RDF>
 </metadata>
 <g id="layer1">
  <rect id="rect5909" style="fill:#fff" transform="rotate(225)" rx=".72657" ry=".72657" height="9" width="10.607" y="-3.272" x="-17.324"/>
  <rect id="rect5905" style="fill:#fff" transform="rotate(45)" rx=".72657" ry=".72657" height="9" width="10.607" y="-3.6067" x="51.265"/>
  <rect id="rect5917" style="fill:#fff" transform="matrix(.70711 -.70711 -.70711 -.70711 0 0)" rx=".72657" ry=".72657" height="9" width="10.607" y="-37.027" x="16.803"/>
  <rect id="rect5919" style="fill:#fff" transform="matrix(-.70711 .70711 .70711 .70711 0 0)" rx=".72657" ry=".72657" height="9" width="10.607" y="30.148" x="17.138"/>
  <rect id="rect5903" style="fill:#fff" rx=".72657" ry=".72657" height="9" width="10.607" y="22" x="37.393"/>
  <rect id="rect5901" style="fill:#fff" rx=".72657" ry=".72657" height="9" width="10.607" y="22" x="0"/>
  <path id="path5899" style="stroke:#fff;stroke-linecap:round;stroke-width:2.8008;fill:#fff" d="m45.214 23.214a17.429 17.429 0 1 1 -34.857 0 17.429 17.429 0 1 1 34.857 0z" transform="matrix(.97541 0 0 1.1762 -3.6025 -1.3053)"/>
  <path id="path5913" style="stroke:#000;stroke-width:3;fill:none" d="m41.5 42.417l-34.228-36.917"/>
  <path id="path5887" style="stroke:#000;stroke-width:3;fill:none" d="m3.0733 26.5h42.054"/>
  <path id="path5921" style="stroke:#000;stroke-width:3;fill:none" d="m6.5 42.154l34.228-36.917"/>
  <path id="path4916" style="stroke:#000;stroke-linecap:round;stroke-width:3.3404;fill:#fff" d="m45.214 23.214a17.429 17.429 0 1 1 -34.857 0 17.429 17.429 0 1 1 34.857 0z" transform="matrix(.80328 0 0 1.0041 1.1803 2.6906)"/>
  <path id="path5893" style="stroke:#000;stroke-width:4;fill:none" d="m24 20v23.52"/>
  <path id="path5897" style="fill-rule:evenodd" d="m8.5625 21h29.876s-2.938-14-14.75-13.938c-11.876 0.063-15.126 13.938-15.126 13.938z"/>
  <rect id="rect2170" style="opacity:.6;fill:none" rx="0" ry="0" height="48" width="48" y="0" x="0"/>
 </g>
</svg>
