<?xml version="1.0" encoding="UTF-8" standalone="no"?>
<!-- Generator: Adobe Illustrator 9.0, SVG Export Plug-In  -->
<svg id="svg2" xmlns:rdf="http://www.w3.org/1999/02/22-rdf-syntax-ns#" xmlns="http://www.w3.org/2000/svg" xml:space="preserve" height="48" width="48" version="1.0" xmlns:cc="http://creativecommons.org/ns#" xmlns:dc="http://purl.org/dc/elements/1.1/" viewBox="0 0 48 48"><metadata id="metadata69"><rdf:RDF><cc:Work rdf:about=""><dc:format>image/svg+xml</dc:format><dc:type rdf:resource="http://purl.org/dc/dcmitype/StillImage"/><dc:title>Volume control</dc:title><cc:license rdf:resource="http://creativecommons.org/licenses/LGPL/2.1/"/></cc:Work><cc:License rdf:about="http://creativecommons.org/licenses/LGPL/2.1/"><cc:permits rdf:resource="http://web.resource.org/cc/Reproduction"/><cc:permits rdf:resource="http://web.resource.org/cc/Distribution"/><cc:requires rdf:resource="http://web.resource.org/cc/Notice"/><cc:permits rdf:resource="http://web.resource.org/cc/DerivativeWorks"/><cc:requires rdf:resource="http://web.resource.org/cc/ShareAlike"/><cc:requires rdf:resource="http://web.resource.org/cc/SourceCode"/></cc:License></rdf:RDF></metadata>
	<rect id="rect1368" style="fill:none" rx="0" ry=".073014" height="48" width="48" y="0" x="0"/><path id="path5802" style="stroke:#fff;stroke-linecap:round;stroke-width:14;fill:none" d="m7 32h34"/><path id="path2302" style="stroke-linejoin:round;stroke:#fff;stroke-linecap:round;stroke-width:8;fill:#fff" d="m40 17h-32l32-10v10z"/><path id="path61" d="m40 17h-32l32-10v10z"/>
	<g id="crop_x0020_marks" style="stroke:#000">
		<path id="path64" style="fill:none" d="m48 48h-48v-48h48v48z"/>
	</g>
<path id="path4927" style="fill-rule:evenodd;stroke:#fff;stroke-width:8;fill:#fff" d="m38 32a8 8 0 1 1 -16 0 8 8 0 1 1 16 0z"/><path id="path3177" style="stroke:#000;stroke-linecap:round;stroke-width:6;fill:none" d="m7 32h34"/><path id="path4052" style="fill-rule:evenodd" d="m38 32a8 8 0 1 1 -16 0 8 8 0 1 1 16 0z"/></svg>
