<?xml version="1.0" encoding="UTF-8" standalone="no"?>
<!-- Created with Inkscape (http://www.inkscape.org/) -->
<svg id="svg1306" xmlns:rdf="http://www.w3.org/1999/02/22-rdf-syntax-ns#" xmlns="http://www.w3.org/2000/svg" sodipodi:docname="windows.svg" height="48px" sodipodi:version="0.32" width="48px" xmlns:cc="http://web.resource.org/cc/" xmlns:dc="http://purl.org/dc/elements/1.1/" sodipodi:docbase="/home/betatester" xmlns:sodipodi="http://inkscape.sourceforge.net/DTD/sodipodi-0.dtd">
 <sodipodi:namedview id="base" bordercolor="#666666" pagecolor="#ffffff" showgrid="true" borderopacity="1.0" showguides="true"/>
 <metadata id="metadata1311">
  <rdf:RDF>
   <cc:Work rdf:about="">
    <dc:format>image/svg+xml</dc:format>
    <dc:type rdf:resource="http://purl.org/dc/dcmitype/StillImage"/>
   </cc:Work>
  </rdf:RDF>
 </metadata>
 <g id="layer1">
  <rect id="rect5680" style="fill:none" ry="0" height="48" width="48" y="0" x="0"/>
  <path id="path3560" sodipodi:nodetypes="ccccccc" style="stroke-linejoin:round;fill-rule:evenodd;stroke:#fff;stroke-linecap:round;stroke-width:8" d="m18.08 21h23.84c1.152 0 2.08 0.956 2.08 2.143v20.857h-28v-20.857c0-1.187 0.928-2.143 2.08-2.143z"/>
  <g id="g3553">
   <path id="path2097" sodipodi:nodetypes="ccccccc" style="stroke-linejoin:round;fill-rule:evenodd;stroke:#fff;stroke-linecap:round;stroke-width:8" d="m6.0797 4h21.84c1.152 0 2.08 0.9557 2.08 2.1429v20.857h-26v-20.857c0-1.1873 0.9275-2.143 2.0797-2.143z"/>
   <path id="rect1368" sodipodi:nodetypes="ccccccc" style="fill-rule:evenodd" d="m6.0797 4h21.84c1.152 0 2.08 0.9557 2.08 2.1429v20.857h-26v-20.857c0-1.1873 0.9275-2.143 2.0797-2.143z"/>
   <path id="path2825" sodipodi:nodetypes="ccccccc" style="fill:#fff;fill-rule:evenodd" d="m9 8h16c1 0 1-0.1872 1 1v14h-18v-14c0-1 0-1 1-1z"/>
  </g>
  <path id="path3562" sodipodi:nodetypes="ccccccc" style="fill-rule:evenodd" d="m18.08 21h23.84c1.152 0 2.08 0.956 2.08 2.143v20.857h-28v-20.857c0-1.187 0.928-2.143 2.08-2.143z"/>
  <path id="path3564" sodipodi:nodetypes="ccccccc" style="fill:#fff;fill-rule:evenodd" d="m21 25h18c1 0 1-0.187 1 1v14h-20v-14c0-1 0-1 1-1z"/>
  <path id="path3571" style="stroke-linejoin:round;stroke:#000;stroke-linecap:round;stroke-width:4;fill:none" d="m12 12h10"/>
  <path id="path4299" sodipodi:nodetypes="cc" style="stroke-linejoin:round;stroke:#000;stroke-linecap:round;stroke-width:4;fill:none" d="m24 29h12.53"/>
 </g>
</svg>
