<?xml version="1.0" encoding="UTF-8" standalone="no"?>
<!-- Generator: Adobe Illustrator 9.0, SVG Export Plug-In  -->
<svg id="svg2" xmlns:rdf="http://www.w3.org/1999/02/22-rdf-syntax-ns#" xmlns="http://www.w3.org/2000/svg" xml:space="preserve" height="48" width="48" version="1.0" xmlns:cc="http://creativecommons.org/ns#" xmlns:dc="http://purl.org/dc/elements/1.1/" viewBox="0 0 48 48"><metadata id="metadata27"><rdf:RDF><cc:Work rdf:about=""><dc:format>image/svg+xml</dc:format><dc:type rdf:resource="http://purl.org/dc/dcmitype/StillImage"/></cc:Work></rdf:RDF></metadata>
	<g id="g17" style="stroke:#000">
				<path id="path2214" style="stroke-linejoin:round;stroke:#fff;stroke-width:12" d="m18 31l-3 7h-9l12-28h12l12 28h-10l-3-7-11-0.1v0.1zm10-5s-3.4-9.4-4-11h-1c-0.5 1.7-4 11-4 11h9z"/><path id="path19" style="stroke-linejoin:round;stroke-width:4" d="m18 31l-3 7h-9l12-28h12l12 28h-10l-3-7-11-0.1v0.1zm10-5s-3.4-9.4-4-11h-1c-0.5 1.7-4 11-4 11h9z"/>
			</g>
	<g id="crop_x0020_marks" style="stroke:#000">
		<path id="path22" style="fill:none" d="m48 48h-48v-48h48v48z"/>
	</g>
</svg>
