<?xml version="1.0" encoding="UTF-8" standalone="no"?>
<!-- Created with Inkscape (http://www.inkscape.org/) -->
<svg id="svg4974" xmlns:rdf="http://www.w3.org/1999/02/22-rdf-syntax-ns#" xmlns="http://www.w3.org/2000/svg" height="48px" width="48px" xmlns:cc="http://web.resource.org/cc/" xmlns:xlink="http://www.w3.org/1999/xlink" xmlns:dc="http://purl.org/dc/elements/1.1/">
 <metadata id="metadata4979">
  <rdf:RDF>
   <cc:Work rdf:about="">
    <dc:format>image/svg+xml</dc:format>
    <dc:type rdf:resource="http://purl.org/dc/dcmitype/StillImage"/>
    <dc:title>Preferences Desktop Accessibility</dc:title>
    <dc:creator>
     <cc:Agent>
      <dc:title>Andreas Nilsson</dc:title>
     </cc:Agent>
    </dc:creator>
    <dc:rights>
     <cc:Agent>
      <dc:title>Andreas Nilsson</dc:title>
     </cc:Agent>
    </dc:rights>
    <dc:source>http://www.gnome.org</dc:source>
    <dc:subject>
     <rdf:Bag>
      <rdf:li>preferences</rdf:li>
      <rdf:li>desktop</rdf:li>
      <rdf:li>accessibility</rdf:li>
      <rdf:li>a11y</rdf:li>
     </rdf:Bag>
    </dc:subject>
    <cc:license rdf:resource="http://creativecommons.org/licenses/LGPL/2.1/"/>
   </cc:Work>
   <cc:License rdf:about="http://creativecommons.org/licenses/LGPL/2.1/">
    <cc:permits rdf:resource="http://web.resource.org/cc/Reproduction"/>
    <cc:permits rdf:resource="http://web.resource.org/cc/Distribution"/>
    <cc:requires rdf:resource="http://web.resource.org/cc/Notice"/>
    <cc:permits rdf:resource="http://web.resource.org/cc/DerivativeWorks"/>
    <cc:requires rdf:resource="http://web.resource.org/cc/ShareAlike"/>
    <cc:requires rdf:resource="http://web.resource.org/cc/SourceCode"/>
   </cc:License>
  </rdf:RDF>
 </metadata>
 <g id="layer1">
  <path id="path6164" style="stroke:#fff;stroke-linecap:round;stroke-width:4;fill:#fff" d="m13.969 18.469c-4.7142 2.358-7.969 7.309-7.969 13.031 0 8.004 6.356 14.5 14.188 14.5 7.373 0 13.44-5.772 14.124-13.125h-19.437c-0.499 0-0.906-0.376-0.906-0.875v-13.531z"/>
  <path id="path6174" style="stroke:#000;stroke-linecap:round;stroke-width:4.0917;fill:#fff" d="m20.375 21.031c-5.844 0-10.594 4.698-10.594 10.469 0.0002 5.771 4.75 10.469 10.594 10.469s10.594-4.698 10.594-10.469v-0.031h-8.938c-0.499 0-0.906-0.408-0.906-0.907v-9.5c-0.253-0.017-0.492-0.031-0.75-0.031z"/>
  <path id="path6162" style="fill-rule:evenodd;stroke:#fff;stroke-width:4" d="m36.121 39.983l-9.01-7.884h-11.123l0.052-20.95 7.983-0.149v13.071l7.027-0.035 10.95 9.115-5.879 6.832z"/>
  <path id="path6178" style="stroke:#fff;stroke-linecap:round;stroke-width:3.4811;fill:#fff" d="m25.544 6.3691a5.6569 5.6569 0 1 1 -11.313 0 5.6569 5.6569 0 1 1 11.313 0z" transform="matrix(1.149 0 0 1.149 -.34465 1.1816)"/>
  <path id="path6180" d="m25.544 6.3691a5.6569 5.6569 0 1 1 -11.313 0 5.6569 5.6569 0 1 1 11.313 0z" transform="matrix(.79543 0 0 .79550 6.6876 3.4334)"/>
  <rect id="rect6182" rx=".90046" ry=".90046" height="12.776" width="4" y="8" x="18.007"/>
  <rect id="rect2170" style="opacity:.6;fill:none" rx="0" ry="0" height="48" width="48" y="0" x="0"/>
 </g>
</svg>
