<?xml version="1.0" encoding="UTF-8" standalone="no"?>
<!-- Created with Inkscape (http://www.inkscape.org/) -->
<svg id="svg3304" xmlns:rdf="http://www.w3.org/1999/02/22-rdf-syntax-ns#" xmlns="http://www.w3.org/2000/svg" sodipodi:docname="dialog-cancel.svg" height="48px" sodipodi:version="0.32" width="48px" xmlns:cc="http://web.resource.org/cc/" xmlns:dc="http://purl.org/dc/elements/1.1/" sodipodi:docbase="/home/luca/Desktop/black-and-white/scalable/actions" xmlns:sodipodi="http://inkscape.sourceforge.net/DTD/sodipodi-0.dtd">
 <sodipodi:namedview id="base" bordercolor="#666666" pagecolor="#ffffff" showgrid="true" borderopacity="1.0" showguides="true">
  <sodipodi:guide id="guide6244" position="24.000000" orientation="horizontal"/>
  <sodipodi:guide id="guide6246" position="24.000000" orientation="vertical"/>
 </sodipodi:namedview>
 <metadata id="metadata3309">
  <rdf:RDF>
   <cc:Work rdf:about="">
    <dc:format>image/svg+xml</dc:format>
    <dc:type rdf:resource="http://purl.org/dc/dcmitype/StillImage"/>
   </cc:Work>
  </rdf:RDF>
 </metadata>
 <g id="layer1">
  <rect id="rect3312" style="fill:none" rx="0" height="48" width="48" y="0" x="0"/>
  <path id="path7705" sodipodi:rx="19.994690" sodipodi:ry="19.994690" style="fill-rule:evenodd;stroke:#fff;stroke-width:6;fill:#fff" sodipodi:type="arc" d="m43.988 24.006a19.995 19.995 0 1 1 -39.989 0 19.995 19.995 0 1 1 39.989 0z" sodipodi:cy="24.006371" sodipodi:cx="23.993629"/>
  <path id="path4768" sodipodi:rx="18.992079" sodipodi:ry="19.117405" style="fill-rule:evenodd" sodipodi:type="arc" d="m42.986 24.006a18.992 19.117 0 1 1 -37.984 0 18.992 19.117 0 1 1 37.984 0z" sodipodi:cy="24.006371" sodipodi:cx="23.993629"/>
  <path id="path6249" sodipodi:rx="12.748488" sodipodi:ry="12.748488" style="fill:#fff;fill-rule:evenodd" sodipodi:type="arc" d="m36.748 24a12.748 12.748 0 1 1 -25.496 0 12.748 12.748 0 1 1 25.496 0z" transform="matrix(.95071 0 0 .95071 1.183 1.183)" sodipodi:cy="24.000000" sodipodi:cx="24.000000"/>
  <rect id="rect6977" ry="0" style="fill-rule:evenodd" transform="matrix(-.70711 .70711 .70711 .70711 0 0)" height="7.3354" width="31.867" y="30.273" x="-15.934"/>
 </g>
</svg>
