<?xml version="1.0" encoding="UTF-8" standalone="no"?>
<!-- Generator: Adobe Illustrator 9.0, SVG Export Plug-In  -->
<svg id="svg2" xmlns:rdf="http://www.w3.org/1999/02/22-rdf-syntax-ns#" xmlns="http://www.w3.org/2000/svg" sodipodi:docname="document-print.svg" xml:space="preserve" height="48" sodipodi:version="0.32" width="48" version="1.0" xmlns:cc="http://web.resource.org/cc/" xmlns:dc="http://purl.org/dc/elements/1.1/" viewBox="0 0 48 48" sodipodi:docbase="/home/luca/Artwork/blackwhite-icon-theme/scalable/actions" xmlns:sodipodi="http://inkscape.sourceforge.net/DTD/sodipodi-0.dtd"><metadata id="metadata31"><rdf:RDF><cc:Work rdf:about=""><dc:format>image/svg+xml</dc:format><dc:type rdf:resource="http://purl.org/dc/dcmitype/StillImage"/></cc:Work></rdf:RDF></metadata><sodipodi:namedview id="base" bordercolor="#666666" pagecolor="#ffffff" borderopacity="1.0" showgrid="true"/>
	<rect id="rect3981" style="fill:none" rx="0" ry="0" height="48" width="48" y="0" x="0"/><g id="g3100" style="stroke:#fff;stroke-width:8;fill:#fff"><path id="path3102" sodipodi:nodetypes="ccccccccc" style="stroke-linejoin:round;stroke:#fff;stroke-width:8;fill:#fff" d="m41 42c0 0.4-0.6 1-1 1h-32c-0.4 0-1-0.6-1-1v-2c0-0.4 0.5-0.7 0.9-0.7h31.9c0.4 0 1.2 0.3 1.2 0.7v2z"/><path id="path3104" sodipodi:nodetypes="ccccccccc" style="stroke-linejoin:round;stroke:#fff;stroke-width:8;fill:#fff" d="m44 39c0 0.4-0.6 1-1 1h-38c-0.4 0-1-0.6-1-1v-14c0-0.4 0.6-1 1-1h38c0.4 0 1 0.6 1 1v14z"/><path id="path3106" sodipodi:nodetypes="ccccccc" style="stroke-linejoin:round;stroke:#fff;stroke-width:8;fill:#fff" d="m12 4c-3 0-4 2-4 4v18h32v-18c0-2-1-4-4-4h-24z"/></g><g id="g3095"><path id="path13" sodipodi:nodetypes="ccccccccc" d="m41 42c0 0.4-0.6 1-1 1h-32c-0.4 0-1-0.6-1-1v-2c0-0.4 0.5-0.7 0.9-0.7h31.9c0.4 0 1.2 0.3 1.2 0.7v2z"/><path id="path15" sodipodi:nodetypes="ccccccccc" d="m44 39c0 0.4-0.6 1-1 1h-38c-0.4 0-1-0.6-1-1v-14c0-0.4 0.6-1 1-1h38c0.4 0 1 0.6 1 1v14z"/><path id="path17" sodipodi:nodetypes="ccccccc" d="m12 4c-3 0-4 2-4 4v18h32v-18c0-2-1-4-4-4h-24z"/></g><path id="path19" sodipodi:nodetypes="ccccccc" style="fill:#fff" d="m36 27h-24v-18s0-1 1-1h22c1 0 1 1 1 1v18z"/><path id="path21" sodipodi:nodetypes="cc" style="stroke:#000;stroke-width:4;fill:none" d="m16.6 21h14.4"/><path id="path23" sodipodi:nodetypes="cc" style="stroke:#000;stroke-width:4;fill:none" d="m16.539 14h14.461"/>
</svg>
