<?xml version="1.0" encoding="UTF-8" standalone="no"?>
<!-- Generator: Adobe Illustrator 9.0, SVG Export Plug-In  -->
<svg id="svg2730" xmlns:rdf="http://www.w3.org/1999/02/22-rdf-syntax-ns#" xmlns="http://www.w3.org/2000/svg" xml:space="preserve" height="48" width="48" version="1.0" xmlns:cc="http://creativecommons.org/ns#" xmlns:dc="http://purl.org/dc/elements/1.1/" viewBox="0 0 48 48"><metadata id="metadata2753"><rdf:RDF><cc:Work rdf:about=""><dc:format>image/svg+xml</dc:format><dc:type rdf:resource="http://purl.org/dc/dcmitype/StillImage"/></cc:Work></rdf:RDF></metadata>
	<rect id="rect2759" style="fill:none" height="48" width="48" y="0" x="0"/><path id="path3552" style="stroke-linejoin:round;stroke:#fff;stroke-linecap:round;stroke-width:12;fill:#fff" d="m25.112 20.011l-15.783 10.024 6.905 9.818c0.987 1.86 3.847 0.723 3.847 0.723l20.913-9.817s-7.3 1.24-8.878-1.137l-7.004-9.611z"/><path id="path3546" style="stroke:#fff;stroke-width:8" d="m31 20l-2-3c-1-1.7-3.3-2-5-1l-17 10c-1.7 1-2 3.3-1 5l2 3c0.503 0.543 1 0 1 0l22-13s0.503-0.484 0-1z"/><path id="path3544" style="stroke:#fff;stroke-width:8" d="m19.957 20.07c1.107 1.524 0.492 3.592-1.231 4.571-1.722 0.98-4.059 0.436-5.166-1.088l-8.9805-13.389c-1.1071-1.5242-0.4921-3.5924 1.2302-4.5721 1.7222-0.9797 4.0595-0.4354 5.1663 1.0885l9.104 13.281-0.123 0.109z"/><path id="path2737" style="stroke-linejoin:round;stroke:#000;stroke-linecap:round;stroke-width:4.0118;fill:#fff" d="m25.112 20.011l-15.783 10.024 6.905 9.818c0.987 1.86 3.847 0.723 3.847 0.723l20.913-9.817s-7.3 1.24-8.878-1.137l-7.004-9.611z"/><path id="path2739" d="m19.957 20.07c1.107 1.524 0.492 3.592-1.231 4.571-1.722 0.98-4.059 0.436-5.166-1.088l-8.9805-13.389c-1.1071-1.5242-0.4921-3.5924 1.2302-4.5721 1.7222-0.9797 4.0595-0.4354 5.1663 1.0885l9.104 13.281-0.123 0.109z"/><path id="path2741" d="m31 20l-2-3c-1-1.7-3.3-2-5-1l-17 10c-1.7 1-2 3.3-1 5l2 3c0.503 0.543 1 0 1 0l22-13s0.503-0.484 0-1z"/><path id="path2745" style="stroke-linejoin:round;stroke:#000;stroke-linecap:round;stroke-width:3;fill:none" d="m20 34c2.2 3.3 5 4 5 4"/>
	<g id="crop_x0020_marks" style="stroke:#000">
		<path id="path2748" style="fill:none" d="m48 48h-48v-48h48v48z"/>
	</g>
<path id="path3550" style="stroke-linejoin:round;stroke:#000;stroke-linecap:round;stroke-width:3;fill:none" d="m25.5 31.5c2.2 3.3 5 4 5 4"/></svg>
