<?xml version="1.0" encoding="UTF-8" standalone="no"?>
<!-- Generator: Adobe Illustrator 9.0, SVG Export Plug-In  -->
<svg id="svg2" xmlns:rdf="http://www.w3.org/1999/02/22-rdf-syntax-ns#" xmlns="http://www.w3.org/2000/svg" xml:space="preserve" height="48" width="48" version="1.0" xmlns:cc="http://web.resource.org/cc/" xmlns:dc="http://purl.org/dc/elements/1.1/" viewBox="0 0 48 48"><metadata id="metadata17"><rdf:RDF><cc:Work rdf:about=""><dc:format>image/svg+xml</dc:format><dc:type rdf:resource="http://purl.org/dc/dcmitype/StillImage"/><dc:title>Edit Undo</dc:title><dc:date>Novembrer 2007</dc:date><dc:creator><cc:Agent><dc:title>Jakub Steiner</dc:title></cc:Agent></dc:creator><dc:source>http://www.gnome.org/</dc:source><dc:subject><rdf:Bag><rdf:li>edit</rdf:li><rdf:li>undo</rdf:li></rdf:Bag></dc:subject><dc:contributor><cc:Agent><dc:title>Canvas sizing and pixel perfect by Luca Ferretti</dc:title></cc:Agent></dc:contributor><cc:license rdf:resource="http://creativecommons.org/licenses/LGPL/2.1/"/></cc:Work><cc:License rdf:about="http://creativecommons.org/licenses/LGPL/2.1/"><cc:permits rdf:resource="http://web.resource.org/cc/Reproduction"/><cc:permits rdf:resource="http://web.resource.org/cc/Distribution"/><cc:requires rdf:resource="http://web.resource.org/cc/Notice"/><cc:permits rdf:resource="http://web.resource.org/cc/DerivativeWorks"/><cc:requires rdf:resource="http://web.resource.org/cc/ShareAlike"/><cc:requires rdf:resource="http://web.resource.org/cc/SourceCode"/></cc:License></rdf:RDF></metadata>
	<rect id="rect2187" style="fill:none" height="48" width="48" y="0" x="0"/><path id="path3166" style="stroke-linejoin:round;stroke:#fff;stroke-linecap:round;stroke-width:8;fill:#fff" d="m24.1 5.1l-15.1 14.9c-1 1-1 1 0 2l15 15c0.927 0.073 1-1 1-1v-8h4c1.4 0 4-0.2 4 3v4c0 3.8-6.179 5.044-6.5 6.2-0.5 1.8 2.5 1.8 2.5 1.8h5c5.1 0.2 7-5.1 7-10v-7c0-7.9-3.7-12-10-12h-6v-8s0-1-0.9-0.9z"/><path id="path9" d="m24.1 5.1l-15.1 14.9c-1 1-1 1 0 2l15 15c0.927 0.073 1-1 1-1v-8h4c1.4 0 4-0.2 4 3v4c0 3.8-6.179 5.044-6.5 6.2-0.5 1.8 2.5 1.8 2.5 1.8h5c5.1 0.2 7-5.1 7-10v-7c0-7.9-3.7-12-10-12h-6v-8s0-1-0.9-0.9z"/>
</svg>
