<?xml version="1.0" encoding="UTF-8" standalone="no"?>
<!-- Generator: Adobe Illustrator 9.0, SVG Export Plug-In  -->
<svg id="svg2" xmlns:rdf="http://www.w3.org/1999/02/22-rdf-syntax-ns#" xmlns="http://www.w3.org/2000/svg" xml:space="preserve" height="48" width="48" version="1.0" xmlns:cc="http://creativecommons.org/ns#" xmlns:dc="http://purl.org/dc/elements/1.1/" viewBox="0 0 48 48"><metadata id="metadata35"><rdf:RDF><cc:Work rdf:about=""><dc:format>image/svg+xml</dc:format><dc:type rdf:resource="http://purl.org/dc/dcmitype/StillImage"/><dc:title>Edit Find Replace</dc:title><dc:date>April 2008</dc:date><dc:creator><cc:Agent><dc:title>Luca Ferretti &lt;elle.uca@libero.it&gt;</dc:title></cc:Agent></dc:creator><dc:contributor><cc:Agent><dc:title>Based on icon from Jakub Stainer</dc:title></cc:Agent></dc:contributor><dc:subject><rdf:Bag><rdf:li>edit</rdf:li><rdf:li>find</rdf:li><rdf:li>replace</rdf:li></rdf:Bag></dc:subject></cc:Work></rdf:RDF></metadata>
	<rect id="rect3182" style="fill:none" height="48" width="48" y="0" x="0"/>
<g id="layer1"><path id="path3240" style="stroke-linejoin:round;stroke:#fff;stroke-width:12.98;fill:none" d="m37.75 23.395l-12.277 12.479-2.178 5.636 6.336-2.013 11.98-12.177-3.861-3.925z"/><path id="path17" style="stroke-linejoin:round;stroke:#000;stroke-width:4.8103;fill:none" d="m37.744 23.405l-12.263 12.531-2.176 5.659 6.329-2.021 11.967-12.228-3.857-3.941z"/><path id="path19" d="m37.7 23.3l-12.4 12.4-2.2 5.6 6.4-2 12.1-12.1-3.9-3.9z"/><path id="path21" d="m37.7 23.3l-12.4 12.4-2.2 5.6 6.4-2 12.1-12.1-3.9-3.9z"/><path id="path23" d="m23.8 38.9l1.8 1.8-2.8 0.8 1-2.6z"/><path id="path25" style="stroke:#000;stroke-width:.9048;fill:none" d="m29.3 39.6l-0.2-2.2-1.8-1.8-2-0.3"/><path id="path27" style="fill:#fff" d="m24 39l1.5 1.5 3.8-1.2-0.2-1.9-1.8-1.8-1.8-0.2-1.6 3.6h0.1z"/></g><path id="path3238" style="stroke-linejoin:round;stroke:#fff;stroke-linecap:round;stroke-width:15;fill:none" d="m29 14.5a6.5 6.5 0 1 1 -13 0 6.5 6.5 0 1 1 13 0z"/><g id="layer2"><path id="path3236" style="stroke-linejoin:round;stroke:#fff;stroke-width:9.8354" d="m5.9951 31.007c1.9688 1.965 3.15 0.786 3.9375 0l5.9064-5.896c0.591-0.59 0-1.966 0-2.949l-0.984-0.982c-0.985 0-2.363-0.59-2.954 0l-5.9059 5.896c-0.7875 0.786-1.9688 1.965 0 3.931z"/><path id="path13" style="stroke-linejoin:round;stroke:#000;stroke-width:1.6098" d="m5.8975 31.091c1.9964 2.018 3.1943 0.807 3.9928 0l5.9897-6.055c0.599-0.606 0-2.019 0-3.028l-0.999-1.009c-0.998 0-2.395-0.606-2.994 0l-5.9895 6.055c-0.7986 0.807-1.9965 2.018 0 4.037z"/></g><path id="path3228" style="stroke-linejoin:round;stroke:#000;stroke-linecap:round;stroke-width:7" d="m29 14.5a6.5 6.5 0 1 1 -13 0 6.5 6.5 0 1 1 13 0z"/><path id="path3234" style="fill:#fff" d="m28.962 14.591a6.4802 6.5915 0 1 1 -12.961 0 6.4802 6.5915 0 1 1 12.961 0z"/></svg>
