<?xml version="1.0" encoding="UTF-8" standalone="no"?>
<!-- Generator: Adobe Illustrator 9.0, SVG Export Plug-In  -->
<svg id="svg2" xmlns:rdf="http://www.w3.org/1999/02/22-rdf-syntax-ns#" xmlns="http://www.w3.org/2000/svg" xml:space="preserve" height="48" width="48" version="1.0" xmlns:cc="http://web.resource.org/cc/" xmlns:dc="http://purl.org/dc/elements/1.1/" viewBox="0 0 48 48"><metadata id="metadata27"><rdf:RDF><cc:Work rdf:about=""><dc:format>image/svg+xml</dc:format><dc:type rdf:resource="http://purl.org/dc/dcmitype/StillImage"/><dc:title>Format Text Bold</dc:title><dc:date>November 2007</dc:date><dc:creator><cc:Agent><dc:title>Jakub Steiner</dc:title></cc:Agent></dc:creator><dc:source>http://www.gnome.org</dc:source><dc:subject><rdf:Bag><rdf:li>format</rdf:li><rdf:li>text</rdf:li><rdf:li>bold</rdf:li></rdf:Bag></dc:subject><dc:contributor><cc:Agent><dc:title>Canvas resize and pixel perfect by Luca Ferretti</dc:title></cc:Agent></dc:contributor><cc:license rdf:resource="http://creativecommons.org/licenses/LGPL/2.1/"/></cc:Work><cc:License rdf:about="http://creativecommons.org/licenses/LGPL/2.1/"><cc:permits rdf:resource="http://web.resource.org/cc/Reproduction"/><cc:permits rdf:resource="http://web.resource.org/cc/Distribution"/><cc:requires rdf:resource="http://web.resource.org/cc/Notice"/><cc:permits rdf:resource="http://web.resource.org/cc/DerivativeWorks"/><cc:requires rdf:resource="http://web.resource.org/cc/ShareAlike"/><cc:requires rdf:resource="http://web.resource.org/cc/SourceCode"/></cc:License></rdf:RDF></metadata>
	<rect id="rect6077" style="fill:none" height="48" width="48" y="0" x="0"/><g id="Layer_x0020_4" style="stroke-linejoin:round;stroke:#000;stroke-linecap:round;stroke-width:2">
		<g id="g5" style="stroke-linejoin:round;stroke-width:2;stroke-linecap:round">
			<g id="g7" style="stroke-linejoin:round;stroke-width:2;stroke-linecap:round">
				<g id="g9" style="stroke-linejoin:round;stroke-width:2;stroke-linecap:round">
					<path id="path11" d="m18 30.9l-2.8 7.2h-9.2l12.1-28.2h11.6l12.3 28.2h-9.6l-3-7.2h-11.4zm10-4.8s-3.8-9.8-4.4-11.4h-0.2c-0.5 1.7-4.2 11.4-4.2 11.4h8.8z"/>
				</g>
			</g>
			<g id="g17" style="stroke-linejoin:round;stroke-width:2;stroke-linecap:round">
				<path id="path11026" style="stroke-linejoin:round;stroke:#fff;stroke-linecap:round;stroke-width:10;fill:none" d="m19 32l-3 9h-11l12-34h14l12 34h-11l-3-8.9-10-0.1zm9-6l-3-11h-2l-3 11h8z"/><path id="path19" style="stroke-linejoin:round;stroke-width:2;stroke-linecap:round" d="m19 32l-3 9h-11l12-34h14l12 34h-11l-3-8.9-10-0.1zm9-6l-3-11h-2l-3 11h8z"/>
			</g>
		</g>
	</g>
</svg>
