<?xml version="1.0" encoding="UTF-8" standalone="no"?>
<!-- Generator: Adobe Illustrator 9.0, SVG Export Plug-In  -->
<svg id="svg7107" xmlns:rdf="http://www.w3.org/1999/02/22-rdf-syntax-ns#" xmlns="http://www.w3.org/2000/svg" xml:space="preserve" height="48" width="48" version="1.0" xmlns:cc="http://web.resource.org/cc/" xmlns:dc="http://purl.org/dc/elements/1.1/" viewBox="0 0 48 48"><metadata id="metadata7122"><rdf:RDF><cc:Work rdf:about=""><dc:format>image/svg+xml</dc:format><dc:type rdf:resource="http://purl.org/dc/dcmitype/StillImage"/><cc:license rdf:resource="http://creativecommons.org/licenses/LGPL/2.1/"/><dc:title>Format Text Italic</dc:title><dc:creator><cc:Agent><dc:title>Jakub Steiner</dc:title></cc:Agent></dc:creator><dc:source>http://www.gnome.org/</dc:source><dc:subject><rdf:Bag><rdf:li>format</rdf:li><rdf:li>text</rdf:li><rdf:li>italic</rdf:li></rdf:Bag></dc:subject><dc:contributor><cc:Agent><dc:title>Canvas resize, pixel perfect and &quot;sync&quot; with format-text-bold by Luca Ferretti</dc:title></cc:Agent></dc:contributor></cc:Work><cc:License rdf:about="http://creativecommons.org/licenses/LGPL/2.1/"><cc:permits rdf:resource="http://web.resource.org/cc/Reproduction"/><cc:permits rdf:resource="http://web.resource.org/cc/Distribution"/><cc:requires rdf:resource="http://web.resource.org/cc/Notice"/><cc:permits rdf:resource="http://web.resource.org/cc/DerivativeWorks"/><cc:requires rdf:resource="http://web.resource.org/cc/ShareAlike"/><cc:requires rdf:resource="http://web.resource.org/cc/SourceCode"/></cc:License></rdf:RDF></metadata>
	<rect id="rect10054" style="fill:none" height="48" width="48" y="0" x="0"/><path id="path12966" style="stroke-linejoin:round;stroke:#fff;stroke-width:12;fill:none" d="m20 30l-7 10h-5l16.719-23.262 6.281-8.738h4l5 32h-4l-1-10h-15zm15-3s-0.9-13.2-1-15h-1c-1.1 1.8-11 15-11 15h12 1z"/><path id="path7114" style="stroke-linejoin:round;stroke:#000;stroke-width:4" d="m20 30l-7 10h-5l23-32h4l5 32h-4l-1-10h-15zm15-3s-0.9-13.2-1-15h-1c-1.1 1.8-11 15-11 15h12 1z"/>
</svg>
