<?xml version="1.0" encoding="UTF-8" standalone="no"?>
<!-- Generator: Adobe Illustrator 9.0, SVG Export Plug-In  -->
<svg id="svg2" xmlns:rdf="http://www.w3.org/1999/02/22-rdf-syntax-ns#" xmlns="http://www.w3.org/2000/svg" xml:space="preserve" height="48" width="48" version="1.0" xmlns:cc="http://creativecommons.org/ns#" xmlns:dc="http://purl.org/dc/elements/1.1/" viewBox="0 0 48 48"><metadata id="metadata21"><rdf:RDF><cc:Work rdf:about=""><dc:format>image/svg+xml</dc:format><dc:type rdf:resource="http://purl.org/dc/dcmitype/StillImage"/></cc:Work></rdf:RDF></metadata>
	<g id="Layer_x0020_3" style="stroke-linejoin:round;stroke:#fff;stroke-width:7.5901;fill:#fff">
		<g id="g5">
			<path id="path7" d="m20 41.1c0 0.3 0.3 0.3 0.5 0.2l16.6-16.9c0.5-0.5 0.4-0.7 0-1l-16.6-16.7c-0.1-0.1-0.4-0.1-0.4 0.1v10h-13.6c-0.3 0-0.5 0.2-0.5 0.4v13.3c0 0.3 0.2 0.5 0.5 0.5h13.5v10.1z"/>
			<path id="path9" d="m37.9 41.2c-0.2 0-0.3-0.1-0.3-0.3v-33.8c0-0.2 0.1-0.3 0.3-0.3h3.8c0.2 0 0.3 0.1 0.3 0.3v33.7c0 0.2-0.1 0.3-0.3 0.3h-3.8v0.1z"/>
			<path id="path11" style="fill:#000" d="m20 41.1c0 0.3 0.3 0.3 0.5 0.2l16.6-16.9c0.5-0.5 0.4-0.7 0-1l-16.6-16.7c-0.1-0.1-0.4-0.1-0.4 0.1v10h-13.6c-0.3 0-0.5 0.2-0.5 0.4v13.3c0 0.3 0.2 0.5 0.5 0.5h13.5v10.1z"/>
			<path id="path13" style="fill:#000" d="m37.9 41.2c-0.2 0-0.3-0.1-0.3-0.3v-33.8c0-0.2 0.1-0.3 0.3-0.3h3.8c0.2 0 0.3 0.1 0.3 0.3v33.7c0 0.2-0.1 0.3-0.3 0.3h-3.8v0.1z"/>
		</g>
	</g>
	<g id="crop_x0020_marks" style="stroke:#000">
		<path id="path16" style="fill:none" d="m48 48h-48v-48h48v48z"/>
	</g>
</svg>
