<?xml version="1.0" encoding="UTF-8" standalone="no"?>
<!-- Created with Inkscape (http://www.inkscape.org/) -->
<svg id="svg3316" xmlns:rdf="http://www.w3.org/1999/02/22-rdf-syntax-ns#" xmlns="http://www.w3.org/2000/svg" sodipodi:docname="document-open-recent.svg" height="48px" sodipodi:version="0.32" width="48px" xmlns:cc="http://web.resource.org/cc/" xmlns:dc="http://purl.org/dc/elements/1.1/" sodipodi:docbase="/home/luca/Desktop/black-and-white/scalable/actions" xmlns:sodipodi="http://inkscape.sourceforge.net/DTD/sodipodi-0.dtd">
 <sodipodi:namedview id="base" bordercolor="#666666" pagecolor="#ffffff" showgrid="true" borderopacity="1.0" showguides="true"/>
 <metadata id="metadata3321">
  <rdf:RDF>
   <cc:Work rdf:about="">
    <dc:format>image/svg+xml</dc:format>
    <dc:type rdf:resource="http://purl.org/dc/dcmitype/StillImage"/>
   </cc:Work>
  </rdf:RDF>
 </metadata>
 <g id="layer1">
  <rect id="rect5508" style="fill:none" height="48" width="48" y="0" x="0"/>
  <path id="path3324" sodipodi:rx="24.000000" sodipodi:ry="24.000000" style="fill:#fff;fill-rule:evenodd" sodipodi:type="arc" d="m48 24a24 24 0 1 1 -48 0 24 24 0 1 1 48 0z" sodipodi:cy="24.000000" sodipodi:cx="24.000000"/>
  <path id="path4052" sodipodi:rx="20.000000" sodipodi:ry="20.000000" style="fill-rule:evenodd" sodipodi:type="arc" d="m44 24a20 20 0 1 1 -40 0 20 20 0 1 1 40 0z" sodipodi:cy="24.000000" sodipodi:cx="24.000000"/>
  <path id="path4780" sodipodi:rx="16.000000" sodipodi:ry="16.000000" style="fill:#fff;fill-rule:evenodd" sodipodi:type="arc" d="m40 24a16 16 0 1 1 -32 0 16 16 0 1 1 32 0z" sodipodi:cy="24.000000" sodipodi:cx="24.000000"/>
  <path id="path6236" sodipodi:nodetypes="cc" style="stroke:#000;stroke-linecap:round;stroke-width:7;fill:none" d="m24 24l6 6"/>
  <path id="path6964" sodipodi:nodetypes="cc" style="stroke:#000;stroke-linecap:round;stroke-width:6;fill:none" d="m24 23v-11"/>
 </g>
</svg>
