<?xml version="1.0" encoding="UTF-8" standalone="no"?>
<!-- Created with Inkscape (http://www.inkscape.org/) -->
<svg id="svg3189" xmlns:rdf="http://www.w3.org/1999/02/22-rdf-syntax-ns#" xmlns="http://www.w3.org/2000/svg" height="48" width="48" version="1.0" xmlns:cc="http://creativecommons.org/ns#" xmlns:dc="http://purl.org/dc/elements/1.1/">
 <metadata id="metadata3194">
  <rdf:RDF>
   <cc:Work rdf:about="">
    <dc:format>image/svg+xml</dc:format>
    <dc:type rdf:resource="http://purl.org/dc/dcmitype/StillImage"/>
    <cc:license rdf:resource=""/>
    <dc:title>Insert Text</dc:title>
    <dc:date>2008-12-30</dc:date>
    <dc:creator>
     <cc:Agent>
      <dc:title>Vinicius Depizzol &lt;vdepizzol@gmail.com&gt;</dc:title>
     </cc:Agent>
    </dc:creator>
    <dc:subject>
     <rdf:Bag>
      <rdf:li>text</rdf:li>
      <rdf:li>insert</rdf:li>
     </rdf:Bag>
    </dc:subject>
   </cc:Work>
  </rdf:RDF>
 </metadata>
 <g id="layer1">
  <rect id="rect3793" style="fill-opacity:0" rx="0" ry="0" height="48" width="48" y="0" x="0"/>
  <rect id="rect6561" style="stroke-linejoin:round;fill-rule:evenodd;stroke:#fff;stroke-linecap:round;stroke-width:8" rx="3" ry="3" height="34" width="40" y="4" x="4"/>
  <path id="path3165" style="stroke-linejoin:round;stroke:#fff;stroke-linecap:round;stroke-width:13.713;fill:#fff" d="m13.836 26.522h15.078l-7.539 13.059-7.539-13.059z" transform="matrix(1 0 0 .76578 2.625 11.69)"/>
  <rect id="rect1315" style="fill-rule:evenodd" rx="3.3" ry="3.3" height="34" width="40" y="4" x="4"/>
  <rect id="rect6622" style="fill:#fff;fill-rule:evenodd" rx="1.5" ry="1.5" height="26" width="32" y="8" x="8"/>
  <path id="path3187" style="stroke-linejoin:round;stroke:#fff;stroke-linecap:round;stroke-width:10.285;fill:#fff" transform="matrix(1 0 0 .76578 2.625 11.69)" d="m13.836 26.522h15.078l-7.539 13.059-7.539-13.059z"/>
  <path id="path3159" style="stroke-linejoin:round;stroke:#000;stroke-linecap:round;stroke-width:4.571;fill:#fff" transform="matrix(1 0 0 .76578 2.625 11.69)" d="m13.836 26.522h15.078l-7.539 13.059-7.539-13.059z"/>
  <path id="path19" style="stroke-linejoin:round;stroke:#000" d="m18.775 26.5h-5.242l6.989-15h6.989l6.989 15h-5.242l-1.747-3.875-6.989-0.054-1.747 3.929zm8.381-6.054s-2.208-5.41-2.557-6.267h-1.165c-0.291 0.91-2.414 6.267-2.414 6.267h6.136z"/>
 </g>
</svg>
