<?xml version="1.0" encoding="UTF-8" standalone="no"?>
<!-- Created with Inkscape (http://www.inkscape.org/) -->
<svg id="svg4932" xmlns:rdf="http://www.w3.org/1999/02/22-rdf-syntax-ns#" xmlns="http://www.w3.org/2000/svg" height="48px" width="48px" xmlns:cc="http://creativecommons.org/ns#" xmlns:dc="http://purl.org/dc/elements/1.1/">
 <metadata id="metadata4937">
  <rdf:RDF>
   <cc:Work rdf:about="">
    <dc:format>image/svg+xml</dc:format>
    <dc:type rdf:resource="http://purl.org/dc/dcmitype/StillImage"/>
    <dc:title>Mail Reply All</dc:title>
    <dc:creator>
     <cc:Agent>
      <dc:title>Kevin Kubasik</dc:title>
     </cc:Agent>
    </dc:creator>
    <dc:source/>
    <dc:rights>
     <cc:Agent>
      <dc:title/>
     </cc:Agent>
    </dc:rights>
    <dc:subject>
     <rdf:Bag>
      <rdf:li>mail</rdf:li>
      <rdf:li>email</rdf:li>
      <rdf:li>sender</rdf:li>
      <rdf:li>reply to</rdf:li>
      <rdf:li>reply to sender</rdf:li>
     </rdf:Bag>
    </dc:subject>
    <cc:license rdf:resource=""/>
    <dc:contributor>
     <cc:Agent>
      <dc:title>Andreas Nilsson, Luca Ferretti</dc:title>
     </cc:Agent>
    </dc:contributor>
   </cc:Work>
  </rdf:RDF>
 </metadata>
 <g id="layer1">
  <rect id="rect2386" style="fill:none" ry="0" height="48" width="48" y="0" x="0"/>
  <path id="path3164" style="stroke-linejoin:round;stroke:#fff;stroke-linecap:round;stroke-width:6.0723" d="m11.792 26.102c-1.008-1.016-1.008-3.048 0-4.064l10.081-14.224c1.009-2.0318 6.049-3.0478 6.049 1.0162v9.1438c10.841 0.038 11.093-4.213 11.089-7.112h6.049c0.022 8.409-4.512 19.125-17.138 19.304v9.145c0 4.064-5.04 3.048-6.049 1.016l-10.081-14.225z"/>
  <path id="path3162" style="stroke-linejoin:round;stroke:#fff;stroke-linecap:round;stroke-width:6.1366" d="m3.8449 26.02c-1.0355-1.01-1.0355-3.03 0-4.04l10.354-14.144c1.036-2.0202 6.213-3.0305 6.213 1.0105v30.308c0 4.04-5.177 3.03-6.213 1.01l-10.354-14.144z"/>
  <path id="path3160" style="stroke-linejoin:round;stroke:#fff;stroke-linecap:round;stroke-width:2" d="m4 26c-1-1-1-3 0-4l10-14c1-2 6-3 6 1v30c0 4-5 3-6 1l-10-14z"/>
  <path id="rect4942" style="stroke-linejoin:round;stroke:#fff;stroke-linecap:round;stroke-width:2" d="m12 26c-1-1-1-3 0-4l10-14c1-2 6-3 6 1v9c10.753 0.037 11.003-4.147 11-7h6c0.022 8.277-4.476 18.823-17 19v9c0 4-5 3-6 1l-10-14z"/>
  <rect id="rect7865" style="fill:#fff" transform="scale(1,-1)" height="3" width="3" y="-21.539" x="-103.62"/>
  <rect id="rect9805" style="fill:#fff" transform="scale(1,-1)" height="3" width="3" y="-34.539" x="-103.62"/>
  <rect id="rect2170" style="opacity:.6;fill:none" rx="0" ry="0" height="48" width="48" y="2.5" x="-124.62"/>
 </g>
</svg>
