<?xml version="1.0" encoding="UTF-8" standalone="no"?>
<!-- Created with Inkscape (http://www.inkscape.org/) -->
<svg id="svg1307" xmlns:rdf="http://www.w3.org/1999/02/22-rdf-syntax-ns#" xmlns="http://www.w3.org/2000/svg" height="48px" width="48px" xmlns:cc="http://web.resource.org/cc/" xmlns:dc="http://purl.org/dc/elements/1.1/">
 <metadata id="metadata1312">
  <rdf:RDF>
   <cc:Work rdf:about="">
    <dc:format>image/svg+xml</dc:format>
    <dc:type rdf:resource="http://purl.org/dc/dcmitype/StillImage"/>
    <dc:title>Email read</dc:title>
    <dc:creator>
     <cc:Agent>
      <dc:title>Luca Ferretti</dc:title>
     </cc:Agent>
    </dc:creator>
    <dc:subject>
     <rdf:Bag>
      <rdf:li>read email</rdf:li>
      <rdf:li>read message</rdf:li>
      <rdf:li>open email</rdf:li>
     </rdf:Bag>
    </dc:subject>
    <cc:license rdf:resource="http://creativecommons.org/licenses/LGPL/2.1/"/>
    <dc:description>An open envelope</dc:description>
   </cc:Work>
   <cc:License rdf:about="http://creativecommons.org/licenses/LGPL/2.1/">
    <cc:permits rdf:resource="http://web.resource.org/cc/Reproduction"/>
    <cc:permits rdf:resource="http://web.resource.org/cc/Distribution"/>
    <cc:requires rdf:resource="http://web.resource.org/cc/Notice"/>
    <cc:permits rdf:resource="http://web.resource.org/cc/DerivativeWorks"/>
    <cc:requires rdf:resource="http://web.resource.org/cc/ShareAlike"/>
    <cc:requires rdf:resource="http://web.resource.org/cc/SourceCode"/>
   </cc:License>
  </rdf:RDF>
 </metadata>
 <g id="layer1">
  <path id="path1875" style="fill-rule:evenodd;stroke:#fff;stroke-width:8;fill:#fff" d="m6.8503 14l14.154-9.1114c1.975-1.2545 3.158-1.0564 5.133 0l14.881 9.1114c1.189 1.088 1.982 1.768 1.982 3.965v22.07c0 2.197-1.797 3.965-4.029 3.965h-29.942c-2.232 0-4.029-1.768-4.029-3.965v-22.07c0-2.197 1.0047-3.041 1.8503-3.965z"/>
  <path id="rect2248" style="fill-rule:evenodd" d="m6.8503 14l14.154-9.1114c1.909-1.5186 3.158-1.4526 5.133 0l14.881 9.1114c1.189 1.088 1.982 1.768 1.982 3.965v22.07c0 2.197-1.797 3.965-4.029 3.965h-29.942c-2.232 0-4.029-1.768-4.029-3.965v-22.07c0-2.197 1.0047-3.041 1.8503-3.965z"/>
  <path id="rect3123" style="fill:#fff;fill-rule:evenodd" d="m9 18l14.472-10.036 15.528 10.036v22h-30v-22z"/>
  <path id="path1876" style="stroke-linejoin:round;stroke:#000;stroke-linecap:round;stroke-width:2.5;fill:none" d="m8 18.175l14 13.825c1.026 0.869 1.884 0.941 2.898 0l15.179-14.18"/>
 </g>
</svg>
