<?xml version="1.0" encoding="UTF-8" standalone="no"?>
<!-- Generator: Adobe Illustrator 9.0, SVG Export Plug-In  -->
<svg id="svg2" xmlns:rdf="http://www.w3.org/1999/02/22-rdf-syntax-ns#" xmlns="http://www.w3.org/2000/svg" xml:space="preserve" height="48" width="48" version="1.0" xmlns:cc="http://creativecommons.org/ns#" xmlns:dc="http://purl.org/dc/elements/1.1/" viewBox="0 0 48 48"><metadata id="metadata17"><rdf:RDF><cc:Work rdf:about=""><dc:format>image/svg+xml</dc:format><dc:type rdf:resource="http://purl.org/dc/dcmitype/StillImage"/></cc:Work></rdf:RDF></metadata>
	<g id="Layer_x0020_4" style="stroke:#000">
		<g id="g5">
			<path id="path7" style="stroke-linejoin:round;stroke:#fff;stroke-width:7.4578;fill:none" d="m42.8 22.9l-2.4-8.1-5.6 1.6c-1.1-1.6-2.7-3-4.4-4l0.9-5.5-9.2-1.2-0.8 5.3c-0.3 0.1-0.7 0.2-1 0.3-1.2 0.3-2.3 0.9-3.3 1.5l-4.3-3.3-5.7 6.9 4.5 3.5c-0.4 1.1-0.6 2.3-0.6 3.6l-5.6 1.6 2.4 8.1 5.6-1.6c1.1 1.6 2.7 3 4.4 4l-0.9 5.5 9.2 1.2 0.8-5.3c0.3-0.1 0.7-0.2 1-0.3 1.2-0.3 2.3-0.9 3.3-1.5l4.3 3.3 5.7-6.9-4.5-3.5c0.4-1.1 0.6-2.3 0.6-3.6l5.6-1.6zm-17.5 5.9c-2.8 0.8-5.8-0.8-6.7-3.6s0.8-5.8 3.6-6.7c2.8-0.8 5.8 0.8 6.7 3.6 0.8 2.8-0.8 5.8-3.6 6.7z"/>
			<path id="path9" d="m42.8 22.9l-2.4-8.1-5.6 1.6c-1.1-1.6-2.7-3-4.4-4l0.9-5.5-9.2-1.2-0.8 5.3c-0.3 0.1-0.7 0.2-1 0.3-1.2 0.3-2.3 0.9-3.3 1.5l-4.3-3.3-5.7 6.9 4.5 3.5c-0.4 1.1-0.6 2.3-0.6 3.6l-5.6 1.6 2.4 8.1 5.6-1.6c1.1 1.6 2.7 3 4.4 4l-0.9 5.5 9.2 1.2 0.8-5.3c0.3-0.1 0.7-0.2 1-0.3 1.2-0.3 2.3-0.9 3.3-1.5l4.3 3.3 5.7-6.9-4.5-3.5c0.4-1.1 0.6-2.3 0.6-3.6l5.6-1.6zm-17.5 5.9c-2.8 0.8-5.8-0.8-6.7-3.6s0.8-5.8 3.6-6.7c2.8-0.8 5.8 0.8 6.7 3.6 0.8 2.8-0.8 5.8-3.6 6.7z"/>
		</g>
	</g>
	<g id="crop_x0020_marks" style="stroke:#000">
		<path id="path12" style="fill:none" d="m48 48h-48v-48h48v48z"/>
	</g>
</svg>
