<?xml version="1.0" encoding="UTF-8" standalone="no"?>
<!-- Created with Inkscape (http://www.inkscape.org/) -->
<svg id="svg3465" xmlns:rdf="http://www.w3.org/1999/02/22-rdf-syntax-ns#" xmlns="http://www.w3.org/2000/svg" sodipodi:docname="emblem-readonly.svg" height="48px" sodipodi:version="0.32" width="48px" xmlns:cc="http://web.resource.org/cc/" xmlns:dc="http://purl.org/dc/elements/1.1/" sodipodi:docbase="/home/luca/Desktop/black-and-white/scalable/emblems" xmlns:sodipodi="http://inkscape.sourceforge.net/DTD/sodipodi-0.dtd">
 <sodipodi:namedview id="base" bordercolor="#666666" pagecolor="#ffffff" showgrid="true" borderopacity="1.0"/>
 <metadata id="metadata3470">
  <rdf:RDF>
   <cc:Work rdf:about="">
    <dc:format>image/svg+xml</dc:format>
    <dc:type rdf:resource="http://purl.org/dc/dcmitype/StillImage"/>
   </cc:Work>
  </rdf:RDF>
 </metadata>
 <g id="layer1">
  <rect id="rect4928" style="fill:none" height="48" width="48" y="0" x="0"/>
  <path id="path4200" style="color:#000000;stroke:#fff;stroke-miterlimit:10;stroke-width:8;display:block;fill:#fff" d="m24 4c-7 0-12 4.1739-12 11v6h-2c-2 0-3 1-3 3v17c0 0.98 1 3 3 3h29.384c1.616-0.009 2.616-2.02 2.616-3v-17c0-2-1-3.009-3-3.009l-2 0.009v-6c0-7-5-11-12-11h-1zm0 5h1c7 0 7 6 7 8v4h-15v-4c0-2 0-8 7-8z" sodipodi:nodetypes="cccccccccccccsccsccccc"/>
  <path id="path2086" style="color:#000000;display:block" sodipodi:nodetypes="cccccccccccccsccsccccc" d="m24 4c-7 0-12 4.1739-12 11v6h-2c-2 0-3 1-3 3v17c0 0.98 1 3 3 3h29.384c1.616-0.009 2.616-2.02 2.616-3v-17c0-2-1-3.009-3-3.009l-2 0.009v-6c0-7-5-11-12-11h-1zm0 5h1c7 0 7 6 7 8v4h-15v-4c0-2 0-8 7-8z"/>
 </g>
</svg>
