<?xml version="1.0" encoding="UTF-8" standalone="no"?>
<!-- Created with Inkscape (http://www.inkscape.org/) -->
<svg id="svg249" xmlns:rdf="http://www.w3.org/1999/02/22-rdf-syntax-ns#" xmlns="http://www.w3.org/2000/svg" sodipodi:version="0.32" height="48px" width="48px" xmlns:cc="http://web.resource.org/cc/" xmlns:dc="http://purl.org/dc/elements/1.1/" sodipodi:docname="zoom-out.svg" sodipodi:docbase="/home/luca/Desktop" xmlns:sodipodi="http://inkscape.sourceforge.net/DTD/sodipodi-0.dtd">
 <sodipodi:namedview id="base" gridspacingy="0.5px" gridspacingx="0.5px" borderopacity="1" fill="#729fcf" showgrid="true" showguides="true" bordercolor="#666666" pagecolor="#b6b6b6" gridempspacing="2" stroke="#2e3436" showborder="true">
  <sodipodi:guide id="guide1415" position="28" orientation="horizontal"/>
  <sodipodi:guide id="guide20759" position="20.005242" orientation="vertical"/>
 </sodipodi:namedview>
 <metadata id="metadata4">
  <rdf:RDF>
   <cc:Work rdf:about="">
    <dc:format>image/svg+xml</dc:format>
    <dc:type rdf:resource="http://purl.org/dc/dcmitype/StillImage"/>
    <dc:title>Zoom</dc:title>
    <dc:subject>
     <rdf:Bag/>
    </dc:subject>
    <cc:license rdf:resource="http://creativecommons.org/licenses/LGPL/2.1/"/>
    <dc:creator>
     <cc:Agent>
      <dc:title/>
     </cc:Agent>
    </dc:creator>
    <dc:source/>
    <dc:contributor>
     <cc:Agent>
      <dc:title/>
     </cc:Agent>
    </dc:contributor>
    <dc:date/>
   </cc:Work>
   <cc:License rdf:about="http://creativecommons.org/licenses/LGPL/2.1/">
    <cc:permits rdf:resource="http://web.resource.org/cc/Reproduction"/>
    <cc:permits rdf:resource="http://web.resource.org/cc/Distribution"/>
    <cc:requires rdf:resource="http://web.resource.org/cc/Notice"/>
    <cc:permits rdf:resource="http://web.resource.org/cc/DerivativeWorks"/>
    <cc:requires rdf:resource="http://web.resource.org/cc/ShareAlike"/>
    <cc:requires rdf:resource="http://web.resource.org/cc/SourceCode"/>
   </cc:License>
  </rdf:RDF>
 </metadata>
 <g id="layer5">
  <rect id="rect1493" style="fill:none" height="48" width="48" y="0" x="0"/>
  <path id="path3244" sodipodi:rx="20" sodipodi:ry="20" style="fill:#fff" sodipodi:type="arc" d="m40 20a20 20 0 1 1 -40 0 20 20 0 1 1 40 0z" sodipodi:cy="20" sodipodi:cx="20"/>
  <path id="path2682" sodipodi:nodetypes="cczzzcc" style="stroke-linejoin:round;color:#000000;stroke:#fff;stroke-linecap:round;stroke-width:8;fill:#fff" d="m29.5 29.5l2 6.5 7 7.5c0.482 0.517 2.732 1.268 4.5-0.5 1.5-1.5 1.033-4.002 0.5-4.5l-7.5-7-6.5-2z"/>
  <path id="path4119" sodipodi:rx="16" sodipodi:ry="16" sodipodi:type="arc" d="m36 20a16 16 0 1 1 -32 0 16 16 0 1 1 32 0z" sodipodi:cy="20" sodipodi:cx="20"/>
  <path id="path4994" sodipodi:rx="12" sodipodi:ry="12" style="fill:#fff" sodipodi:type="arc" d="m32 20a12 12 0 1 1 -24 0 12 12 0 1 1 24 0z" sodipodi:cy="20" sodipodi:cx="20"/>
  <path id="path15511" sodipodi:nodetypes="cczzzcc" style="color:#000000" d="m29.5 29.5l2 6.5 7 7.5c0.482 0.517 2.732 1.268 4.5-0.5 1.5-1.5 1.033-4.002 0.5-4.5l-7.5-7-6.5-2z"/>
  <rect id="rect17259" style="fill:none" height="17" width="17" y="11.5" x="11.5"/>
  <path id="path20757" sodipodi:nodetypes="cc" style="stroke:#000;stroke-width:6;fill:none" d="m29 20h-18"/>
 </g>
</svg>
