<?xml version="1.0" encoding="UTF-8" standalone="no"?>
<!-- Created with Inkscape (http://www.inkscape.org/) -->
<svg id="svg3879" xmlns:rdf="http://www.w3.org/1999/02/22-rdf-syntax-ns#" xmlns="http://www.w3.org/2000/svg" height="32" width="32" version="1.0" xmlns:cc="http://creativecommons.org/ns#" xmlns:xlink="http://www.w3.org/1999/xlink" xmlns:dc="http://purl.org/dc/elements/1.1/">
 <defs id="defs3881">
  <linearGradient id="linearGradient4984" y2="247.61" gradientUnits="userSpaceOnUse" x2="-24.687" gradientTransform="matrix(1.045 0 0 1.0014 56.421 -248.82)" y1="245.85" x1="-24.687">
   <stop id="stop4978" style="stop-color:#555753" offset="0"/>
   <stop id="stop4980" style="stop-color:#808080" offset="1"/>
  </linearGradient>
  <radialGradient id="radialGradient5721-4" gradientUnits="userSpaceOnUse" cy="-120.86" cx="-306.03" gradientTransform="matrix(.64274 1.2245 -1.4442 .71713 16.527 477.03)" r="3.0368">
   <stop id="stop5045-4-8-8" style="stop-color:#fff" offset="0"/>
   <stop id="stop5047-1-2-6" style="stop-color:#fff;stop-opacity:0" offset="1"/>
  </radialGradient>
  <linearGradient id="linearGradient5719-5" y2="-114.83" gradientUnits="userSpaceOnUse" x2="-300.83" gradientTransform="matrix(1.0248 0 0 .92090 303.85 129.09)" y1="-126.31" x1="-300.83">
   <stop id="stop5657-5" style="stop-color:#2e3436" offset="0"/>
   <stop id="stop5659-1" style="stop-color:#707e83;stop-opacity:0" offset="1"/>
  </linearGradient>
  <linearGradient id="linearGradient5758" y2="-36.569" gradientUnits="userSpaceOnUse" y1="-43.842" gradientTransform="matrix(-.97878 0 0 .78119 -218.98 51.325)" x2="-219.25" x1="-219.25">
   <stop id="stop5855" style="stop-color:#888a85" offset="0"/>
   <stop id="stop5857" style="stop-color:#555753" offset="1"/>
  </linearGradient>
  <linearGradient id="linearGradient5632" y2="-240.62" gradientUnits="userSpaceOnUse" x2="-23.909" gradientTransform="matrix(.65718 0 0 1.0086 46.149 249.54)" y1="-243.1" x1="-25.743">
   <stop id="stop5628" style="stop-color:#babdb6" offset="0"/>
   <stop id="stop5630" style="stop-color:#babdb6;stop-opacity:0" offset="1"/>
  </linearGradient>
  <linearGradient id="linearGradient4977" y2="-282.2" gradientUnits="userSpaceOnUse" x2="-102.95" y1="-282.2" x1="-105.74">
   <stop id="stop4973" style="stop-color:#fff" offset="0"/>
   <stop id="stop4975" style="stop-color:#fff;stop-opacity:0" offset="1"/>
  </linearGradient>
  <linearGradient id="linearGradient4792" y2="282.32" gradientUnits="userSpaceOnUse" x2="-101.28" gradientTransform="matrix(.60027 0 0 .69696 91.941 -191.45)" y1="280.92" x1="-106.91">
   <stop id="stop4788" style="stop-color:#555753" offset="0"/>
   <stop id="stop4790" offset="1"/>
  </linearGradient>
  <linearGradient id="linearGradient5212" y2="-143.92" gradientUnits="userSpaceOnUse" x2="-262.43" y1="-142.89" x1="-304.5">
   <stop id="stop5208" style="stop-color:#fff" offset="0"/>
   <stop id="stop5210" style="stop-color:#dededd;stop-opacity:0" offset="1"/>
  </linearGradient>
  <linearGradient id="linearGradient5394" y2="-141.13" gradientUnits="userSpaceOnUse" x2="-283.8" gradientTransform="matrix(.69618 0 0 .77540 204.63 113.36)" y1="-143.75" x1="-283.8">
   <stop id="stop5390" style="stop-color:#555753" offset="0"/>
   <stop id="stop5392" offset="1"/>
  </linearGradient>
  <radialGradient id="radialGradient5382" gradientUnits="userSpaceOnUse" cy="-153.18" cx="-284.45" gradientTransform="matrix(.52159 .0057037 -.0051506 .61959 154.18 98.371)" r="17.449">
   <stop id="stop5378" style="stop-color:#babdb6" offset="0"/>
   <stop id="stop5380" style="stop-color:#434542" offset="1"/>
  </radialGradient>
  <linearGradient id="linearGradient3623" y2="34.928" gradientUnits="userSpaceOnUse" x2="1.4212" gradientTransform="matrix(1.0329 0 0 .75232 -4.0458 -2.1508)" y1="19.019" x1="1.4212">
   <stop id="stop3619" style="stop-color:#2e3436" offset="0"/>
   <stop id="stop3621" style="stop-color:#0b0c0d" offset="1"/>
  </linearGradient>
  <linearGradient id="linearGradient2892-5" y2="-114.83" gradientUnits="userSpaceOnUse" x2="-300.83" gradientTransform="matrix(1.0248 0 0 .92090 290.97 129.09)" y1="-126.31" x1="-300.83">
   <stop id="stop5657-5-8" style="stop-color:#2e3436" offset="0"/>
   <stop id="stop5659-1-7" style="stop-color:#707e83;stop-opacity:0" offset="1"/>
  </linearGradient>
  <linearGradient id="linearGradient2894-1" y2="34.928" gradientUnits="userSpaceOnUse" x2="1.4212" gradientTransform="matrix(1.0329 0 0 .75232 -16.92 -2.1508)" y1="19.019" x1="1.4212">
   <stop id="stop3619-4" style="stop-color:#2e3436" offset="0"/>
   <stop id="stop3621-6" style="stop-color:#0b0c0d" offset="1"/>
  </linearGradient>
  <radialGradient id="radialGradient2896-0" gradientUnits="userSpaceOnUse" cy="-120.86" cx="-306.03" gradientTransform="matrix(-.64274 1.2245 1.4442 .71713 -3.6526 477.03)" r="3.0368">
   <stop id="stop5045-4-8-8-6" style="stop-color:#fff" offset="0"/>
   <stop id="stop5047-1-2-6-8" style="stop-color:#fff;stop-opacity:0" offset="1"/>
  </radialGradient>
  <linearGradient id="linearGradient2900-3" y2="-51.44" xlink:href="#linearGradient4555-8" gradientUnits="userSpaceOnUse" x2="-257.5" gradientTransform="matrix(.92957 0 0 1.1136 220.46 68.768)" y1="-50.302" x1="-257.51"/>
  <linearGradient id="linearGradient4555-8">
   <stop id="stop4557-5" style="stop-color:#545652" offset="0"/>
   <stop id="stop4559-4" style="stop-color:#80837d" offset="1"/>
  </linearGradient>
  <linearGradient id="linearGradient2944" y2="-36.569" gradientUnits="userSpaceOnUse" y1="-43.842" gradientTransform="matrix(.97878 0 0 .78119 231.85 51.325)" x2="-219.25" x1="-219.25">
   <stop id="stop5855-9" style="stop-color:#888a85" offset="0"/>
   <stop id="stop5857-6" style="stop-color:#555753" offset="1"/>
  </linearGradient>
  <linearGradient id="linearGradient3017" y2="-51.44" xlink:href="#linearGradient4555-8" gradientUnits="userSpaceOnUse" x2="-257.5" gradientTransform="matrix(.92957 0 0 1.1136 245.41 68.768)" y1="-50.302" x1="-257.51"/>
 </defs>
 <metadata id="metadata3884">
  <rdf:RDF>
   <cc:Work rdf:about="">
    <dc:format>image/svg+xml</dc:format>
    <dc:type rdf:resource="http://purl.org/dc/dcmitype/StillImage"/>
    <dc:title/>
   </cc:Work>
  </rdf:RDF>
 </metadata>
 <g id="layer1" transform="translate(8.5714 -.14286)">
  <rect id="rect5861" style="fill-opacity:0" height="32.939" width="32.939" y="-.79568" x="-9.7751"/>
  <path id="rect5549" style="block-progression:tb;text-indent:0;color:#000000;text-transform:none;fill:#808080" d="m1.9145 1.3174c-4.6831 0-8.4777 3.7603-8.4777 8.4276v4.3961c0 0.49349 0.047692 0.96694 0.1291 1.4368h1.022c-0.087239-0.46606-0.12911-0.94435-0.12911-1.4368v-4.3961c0-4.299 4.2057-7.7414 8.5193-7.7414h7.6874c4.3136 0 7.7892 3.4424 7.7892 7.7414v4.3961c0 0.49242-0.04186 0.97071-0.1291 1.4368h0.97407c0.08141-0.46983 0.1291-0.94328 0.1291-1.4368v-4.3961c0-4.6673-3.7946-8.4276-8.4777-8.4276h-9.0364z"/>
  <path id="path5202" style="fill:url(#radialGradient5382)" d="m-4.9451 6.6771c-0.2383-0.18755-0.33282-0.43689-0.31344-0.8268 0.019908-0.40064 0.097834-0.52138 0.76007-1.1777 3.2353-3.2067 9.3093-4.6899 15.032-3.6706 2.6138 0.46563 5.0733 1.4866 6.7855 2.8166 0.92137 0.71574 1.6136 1.4871 1.6919 1.8853 0.10669 0.54258-0.21752 1.0881-0.64699 1.0886-0.142 0.0002-0.27-0.0673-0.562-0.2962-3.194-2.5061-8.2314-3.4688-13.163-2.936-3.3444 0.3614-6.2753 1.1579-8.5451 2.8585-0.5602 0.4198-0.7682 0.4715-1.039 0.2583z"/>
  <path id="path5194" style="block-progression:tb;text-indent:0;color:#000000;text-transform:none;fill:url(#linearGradient5394)" d="m5.9839 0.17166c-0.8743 0.03497-1.7457 0.1199-2.5889 0.25064-3.3525 0.51978-6.3697 1.7857-8.3107 3.7095-0.011904 0.011787-0.031676 0.013182-0.043511 0.025045-0.016864 0.023062-0.031489 0.048317-0.043511 0.075137-0.58051 0.47143-0.7748 1.3841-0.41335 2.1054 0.35534 0.70906 1.1019 0.96936 1.7404 0.65166 0.011487-0.00543 0.032163 0.00621 0.043511 0 0.030839-0.011883 0.060226-0.028799 0.087022-0.050091 0.00557-0.0031 0.016221 0.00388 0.021721 0 0.013158-0.00977 0.030284-0.015352 0.043511-0.025045 0.00815-0.00543 0.013575-0.019075 0.021721-0.025045 4.4209-3.2483 12.788-3.6783 18.514-1.1109 0.80177 0.35947 1.523 0.56122 2.1538 1.0107 0.0069 0.00871 0.01416 0.01707 0.02172 0.025045 0.0083 0.00543 0.0135 0.019075 0.02172 0.025045 0.01873 0.028221 0.04073 0.053561 0.06523 0.075137 0.66238 0.44058 1.5321 0.18665 1.9145-0.57647 0.32666-0.65183 0.19338-1.4554-0.26107-1.955-0.0062-0.017277-0.01349-0.034053-0.02172-0.050168-0.0042-0.00388-0.01747 0.00388-0.02172 0-0.0069-0.00871-0.01417-0.017069-0.02172-0.025045-0.01914-0.018377-0.02339-0.057923-0.04351-0.075137 0.000223-0.00835 0.000223-0.016699 0-0.025045-1.235-1.2647-2.994-2.2754-5.11-2.9827-1.637-0.54699-3.377-0.87631-5.1348-1.0026-0.8789-0.06307-1.7581-0.08504-2.6324-0.05005l0.0000696 0.00000776zm1.3053 0.96194c2.1378 0.035901 4.2887 0.36704 6.2656 1.0276h0.02172c1.9232 0.64548 3.5135 1.4253 4.6339 2.4969 0.03311 0.074934 0.08725 0.1373 0.15229 0.17545 0.33654 0.22385 0.45537 0.7151 0.26107 1.1028-0.16516 0.32958-0.50302 0.47807-0.80495 0.37596-0.03188-0.03246-0.06896-0.058069-0.10878-0.075136-0.713-0.5288-1.511-0.9979-2.416-1.4037-2.999-1.3445-6.611-1.8573-10.073-1.6041-3.402 0.249-6.6427 1.2566-8.9846 2.9576-0.00557 0.00388-0.016499-0.00388-0.021721 0-0.014986 0.00717-0.029537 0.015544-0.043511 0.025045-0.014986 0.00717-0.029537 0.015544-0.043511 0.025045-0.00829 0.00621-0.013506 0.01892-0.021721 0.025045-0.33212 0.20112-0.74604 0.052185-0.93549-0.32583-0.18652-0.37221-0.088115-0.84323 0.21756-1.0778 0.014982-0.00717 0.029532-0.015544 0.043511-0.025045 0.051565-0.028565 0.096846-0.072038 0.13053-0.12532 1.7837-1.7457 4.6797-2.8218 7.919-3.324 1.2303-0.19076 2.5245-0.27223 3.8072-0.25064l-0.0000348-0.0000077z"/>
  <path id="path5204" style="stroke-dashoffset:220;stroke:url(#linearGradient5212);stroke-linecap:round;stroke-width:1.412;fill:none" d="m-300.84-141.16a18.775 9.3875 0 0 1 30.746 0.0358" transform="matrix(-.70658 0 0 .70986 -194.81 105.68)"/>
  <path id="rect5551" style="block-progression:tb;text-indent:0;color:#000000;text-transform:none;fill:#808080" d="m-6.5233 22.735v0.02141c0 4.6673 3.7603 8.4276 8.4276 8.4276h6.3475l0.26253-0.90084h-6.3475c-4.299 0-7.7414-3.4424-7.7414-7.7414v-0.02141l-0.94875 0.21462z"/>
  <rect id="rect4784" style="stroke-dashoffset:220;stroke:url(#linearGradient4792);stroke-linecap:round;fill:#555753" transform="matrix(0,1,1,0,0,0)" rx="1.4981" ry="1.4981" height="6.9623" width="2.9963" y="1.9546" x="28.615"/>
  <path id="path4967" style="opacity:.60811;stroke-dashoffset:220;stroke:url(#linearGradient4977);stroke-linecap:round;stroke-width:2.1436;fill:none" d="m-103.47-286.5c-0.57059 0-1.0312 0.46066-1.0312 1.0312v5.9375c0 0.57059 0.46066 1.0312 1.0312 1.0312h0.9375c0.57059 0 1.0312-0.46066 1.0312-1.0312v-5.9375c0-0.57059-0.46066-1.0312-1.0312-1.0312h-0.9375z" transform="matrix(0 .35041 .62107 0 180.86 66.235)"/>
  <rect id="rect5572" ry=".99727" style="fill:url(#linearGradient5632)" rx=".99727" transform="matrix(0,1,1,0,0,0)" height="5.9798" width="1.9946" y="2.4541" x="29.111"/>
  <path id="path5707" style="stroke-dashoffset:220;stroke:url(#linearGradient5758);stroke-linecap:round;fill:#fff" d="m-4.7126 12.654c-1.8623 0-3.3613 1.3027-3.3613 2.921v5.1315c0 1.6184 1.499 2.921 3.3613 2.921l1.5804 0.0017 0.01985-10.984c-1.1944 0.02977-0.49504 0.0084-1.6002 0.0084v-0.000069l1e-7 0.000081z"/>
  <rect id="rect5709" style="fill:url(#linearGradient5719-5)" height="10.991" width="1.9107" y="12.139" x="-5.5106"/>
  <rect id="rect5711" style="fill:url(#linearGradient3623)" rx="1.0133" ry="1.0133" height="11.968" width="2.0266" y="12.158" x="-3.5912"/>
  <path id="path5713" style="opacity:.5;fill:url(#radialGradient5721-4)" d="m-5.2384 13.125c-1.25 0-2.2562 1.1371-2.2562 2.5499v4.4795c0 1.4127 1.0062 2.5499 2.2562 2.5499l1.6478-0.02288v-9.5562c-0.80168 0.02597-0.90597 0-1.6478 0v-0.000096z"/>
  <path id="path5859" style="fill:#dee1e3" d="m-243.18-24.046a0.8374 1.374 0 1 1 -1.6748 0 0.8374 1.374 0 1 1 1.6748 0z" transform="matrix(.86910 0 0 .73827 214.78 47.887)"/>
  <rect id="rect5811-4" style="fill:url(#linearGradient4984)" transform="rotate(90)" rx=".50398" ry=".50398" height="2.3306" width="1.0534" y="-3.4252" x="30.146"/>
  <rect id="rect5863" style="fill-opacity:0" height="32.939" width="32.939" y="-.79568" x="-9.7751"/>
  <path id="path2878" style="stroke-dashoffset:220;stroke:url(#linearGradient2944);stroke-linecap:round;fill:#fff" d="m17.587 12.654c1.8623 0 3.3613 1.3027 3.3613 2.921v5.1315c0 1.6184-1.499 2.921-3.3613 2.921l-1.5804 0.0017-0.01985-10.984c1.1944 0.02977 0.49504 0.0084 1.6002 0.0084v-0.000069 0.000081z"/>
  <rect id="rect2880" style="fill:url(#linearGradient2892-5)" transform="scale(-1,1)" height="10.991" width="1.9107" y="12.139" x="-18.385"/>
  <rect id="rect2882" style="fill:url(#linearGradient2894-1)" transform="scale(-1,1)" rx="1.0133" ry="1.0133" height="11.968" width="2.0266" y="12.158" x="-16.465"/>
  <path id="path2884" style="opacity:.5;fill:url(#radialGradient2896-0)" d="m18.113 13.125c1.25 0 2.2562 1.1371 2.2562 2.5499v4.4795c0 1.4127-1.0062 2.5499-2.2562 2.5499l-1.6478-0.02288v-9.5562c0.80168 0.02597 0.90597 0 1.6478 0v-0.000096z"/>
  <rect id="rect2888" style="fill:url(#linearGradient2900-3)" transform="scale(-1,1)" rx=".50398" ry=".50398" height="3.9995" width=".93697" y="11.17" x="-19.396"/>
  <rect id="rect3015" ry=".50398" style="fill:url(#linearGradient3017)" rx=".50398" transform="scale(-1,1)" height="3.9995" width=".93697" y="11.17" x="5.5535"/>
 </g>
</svg>
