<?xml version="1.0" encoding="UTF-8" standalone="no"?>
<!-- Created with Inkscape (http://www.inkscape.org/) -->
<svg id="svg7384" xmlns:rdf="http://www.w3.org/1999/02/22-rdf-syntax-ns#" xmlns="http://www.w3.org/2000/svg" height="16" width="16" version="1.1" xmlns:cc="http://creativecommons.org/ns#" xmlns:dc="http://purl.org/dc/elements/1.1/">
 <metadata id="metadata90">
  <rdf:RDF>
   <cc:Work rdf:about="">
    <dc:format>image/svg+xml</dc:format>
    <dc:type rdf:resource="http://purl.org/dc/dcmitype/StillImage"/>
    <dc:title>Gnome Symbolic Icon Theme</dc:title>
   </cc:Work>
  </rdf:RDF>
 </metadata>
 <title id="title9167">Gnome Symbolic Icon Theme</title>
 <g id="layer13" transform="translate(-462,-196)">
  <g id="g12981" transform="translate(254 -800)">
   <path id="path12983" style="fill:#bebebe" transform="translate(-254 800)" d="m462.53 197c-0.29 0-0.53 0.24-0.53 0.53v13.938c0 0.2985 0.23264 0.53125 0.53125 0.53125h14.938c0.3 0 0.53-0.23 0.53-0.53v-8.9375c0-0.29-0.24-0.53-0.53-0.53h-12.47v7.5c0 0.277-0.223 0.5-0.5 0.5s-0.5-0.223-0.5-0.5v-8c0-0.277 0.223-0.5 0.5-0.5h2.9688 8.5312v-1.4062c0-0.32-0.27-0.59-0.59-0.59h-7.41v-1.4688c0-0.29-0.24-0.53-0.53-0.53h-4.9375zm5.4688 6h1 5.0312 1v1 4.8438a1.0001 1.0001 0 0 1 -0.03 0.28c-0.00064 0.01 0.0008 0.0213 0 0.0313a1.0001 1.0001 0 0 1 -0.0313 0.0625c-0.11 1.01-0.94 1.79-1.97 1.79-1.1046 0-2-0.8954-2-2 0-1.1045 0.89543-2 2-2 0.0106 0 0.0208-0.0001 0.0313 0v-2h-3.0312v3.8438a1.0001 1.0001 0 0 1 0 0.16c0 1.1046-0.89543 2-2 2s-2-0.8954-2-2c0-1.1045 0.89543-2 2-2v-3-1z"/>
  </g>
 </g>
</svg>
