<?xml version="1.0" encoding="UTF-8" standalone="no"?>
<!-- Created with Inkscape (http://www.inkscape.org/) -->
<svg id="svg7384" xmlns:rdf="http://www.w3.org/1999/02/22-rdf-syntax-ns#" xmlns="http://www.w3.org/2000/svg" height="16" width="16" version="1.1" xmlns:cc="http://creativecommons.org/ns#" xmlns:dc="http://purl.org/dc/elements/1.1/">
 <metadata id="metadata90">
  <rdf:RDF>
   <cc:Work rdf:about="">
    <dc:format>image/svg+xml</dc:format>
    <dc:type rdf:resource="http://purl.org/dc/dcmitype/StillImage"/>
    <dc:title>Gnome Symbolic Icon Theme</dc:title>
   </cc:Work>
  </rdf:RDF>
 </metadata>
 <title id="title9167">Gnome Symbolic Icon Theme</title>
 <g id="layer13" transform="translate(-542,-196)">
  <path id="path13155" style="fill:#bebebe" d="m542.53 197c-0.29 0-0.53 0.24-0.53 0.53v13.938c0 0.2985 0.23264 0.53125 0.53125 0.53125h14.938c0.3 0 0.53-0.23 0.53-0.53v-8.9375c0-0.29-0.24-0.53-0.53-0.53h-12.47v7.5c0 0.277-0.223 0.5-0.5 0.5s-0.5-0.223-0.5-0.5v-8c0-0.277 0.223-0.5 0.5-0.5h2.9688 8.5312v-1.4062c0-0.32-0.27-0.59-0.59-0.59h-7.41v-1.4688c0-0.29-0.24-0.53-0.53-0.53h-4.9375zm3.5 6.0312h10.938v7.9688h-0.96875v-0.96875h-1v0.96875h-1v-3h-5v3h-1v-0.96875h-1v0.96875h-0.96875v-7.9688zm0.96875 1v0.96875h1v-0.96875h-1zm2 0v2.9688h5v-2.9688h-5zm6 0v0.96875h1v-0.96875h-1zm-8 2v0.96875h1v-0.96875h-1zm8 0v0.96875h1v-0.96875h-1zm-8 1.97v0.96875h1v-0.96875h-1zm8 0v0.96875h1v-0.96875h-1z"/>
 </g>
</svg>
