<?xml version="1.0" encoding="UTF-8" standalone="no"?>
<!-- Created with Inkscape (http://www.inkscape.org/) -->
<svg id="svg7384" xmlns:rdf="http://www.w3.org/1999/02/22-rdf-syntax-ns#" xmlns="http://www.w3.org/2000/svg" height="16" width="16" version="1.1" xmlns:cc="http://creativecommons.org/ns#" xmlns:dc="http://purl.org/dc/elements/1.1/">
 <metadata id="metadata90">
  <rdf:RDF>
   <cc:Work rdf:about="">
    <dc:format>image/svg+xml</dc:format>
    <dc:type rdf:resource="http://purl.org/dc/dcmitype/StillImage"/>
    <dc:title>Gnome Symbolic Icon Theme</dc:title>
   </cc:Work>
  </rdf:RDF>
 </metadata>
 <title id="title9167">Gnome Symbolic Icon Theme</title>
 <g id="layer13" transform="translate(-522,-196)">
  <path id="path13118" style="fill:#bebebe" d="m522.53 197c-0.29 0-0.53 0.24-0.53 0.53v13.938c0 0.2985 0.23264 0.53125 0.53125 0.53125h14.938c0.3 0 0.53-0.23 0.53-0.53v-8.9375c0-0.29-0.24-0.53-0.53-0.53h-12.47v7.5c0 0.277-0.223 0.5-0.5 0.5s-0.5-0.223-0.5-0.5v-8c0-0.277 0.223-0.5 0.5-0.5h2.9688 8.5312v-1.4062c0-0.32-0.27-0.59-0.59-0.59h-7.41v-1.4688c0-0.29-0.24-0.53-0.53-0.53h-4.9375zm7.5 6h3.0312l0.96875 1.0312h2v5.9688h-9l-0.0313-6 1.9688 0.0313 1.0625-1.0312zm1.4375 1c-1.3893 0-2.5 1.1107-2.5 2.5 0 1.3894 1.1107 2.5312 2.5 2.5312s2.5312-1.1418 2.5312-2.5312c0-1.3893-1.1419-2.5-2.5312-2.5zm0 1c0.83707 0 1.5312 0.663 1.5312 1.5 0 0.8371-0.69418 1.5312-1.5312 1.5312-0.83707 0-1.5-0.69415-1.5-1.5312 0-0.837 0.66293-1.5 1.5-1.5z"/>
 </g>
</svg>
