<?xml version="1.0" encoding="UTF-8" standalone="no"?>
<!-- Created with Inkscape (http://www.inkscape.org/) -->
<svg id="svg7384" xmlns:rdf="http://www.w3.org/1999/02/22-rdf-syntax-ns#" xmlns="http://www.w3.org/2000/svg" height="16" width="16" version="1.1" xmlns:cc="http://creativecommons.org/ns#" xmlns:dc="http://purl.org/dc/elements/1.1/">
 <metadata id="metadata90">
  <rdf:RDF>
   <cc:Work rdf:about="">
    <dc:format>image/svg+xml</dc:format>
    <dc:type rdf:resource="http://purl.org/dc/dcmitype/StillImage"/>
    <dc:title>Gnome Symbolic Icon Theme</dc:title>
   </cc:Work>
  </rdf:RDF>
 </metadata>
 <title id="title9167">Gnome Symbolic Icon Theme</title>
 <g id="layer13" transform="translate(-502,-196)">
  <g id="g13059" transform="translate(294 -800)">
   <path id="path13061" style="fill:#bebebe" d="m502.53 197c-0.29 0-0.53 0.24-0.53 0.53v13.938c0 0.2985 0.23264 0.53125 0.53125 0.53125h14.938c0.3 0 0.53-0.23 0.53-0.53v-8.9375c0-0.29-0.24-0.53-0.53-0.53h-12.47v7.5c0 0.277-0.223 0.5-0.5 0.5s-0.5-0.223-0.5-0.5v-8c0-0.277 0.223-0.5 0.5-0.5h2.9688 8.5312v-1.4062c0-0.32-0.27-0.59-0.59-0.59h-7.41v-1.4688c0-0.29-0.24-0.53-0.53-0.53zm8.47 7c0.55228 0 1 0.4477 1 1s-0.44772 1-1 1-1-0.4477-1-1 0.44772-1 1-1zm-2.9922 2.0039s0.86721-0.005 0.89844-0.004c0.29918-0.0249 0.60713 0.0935 0.8125 0.3125l1.3125 1.2812 1.2573-1.3125c0.18785-0.18788 0.43781-0.28399 0.71746-0.2823l0.9963 0.006 0.006 1.0002c-0.00065 0.2574-0.0953 0.5266-0.28228 0.71353l-1.98 2.03c-0.37177 0.38424-1.0657 0.38424-1.4375 0l-2-2.0312c-0.1917-0.17704-0.30922-0.44292-0.30826-0.7128z" transform="translate(-294 800)"/>
  </g>
 </g>
</svg>
