<?xml version="1.0" encoding="UTF-8" standalone="no"?>
<!-- Created with Inkscape (http://www.inkscape.org/) -->
<svg id="svg7384" xmlns:rdf="http://www.w3.org/1999/02/22-rdf-syntax-ns#" xmlns="http://www.w3.org/2000/svg" height="16" width="16" version="1.1" xmlns:cc="http://creativecommons.org/ns#" xmlns:dc="http://purl.org/dc/elements/1.1/">
 <metadata id="metadata90">
  <rdf:RDF>
   <cc:Work rdf:about="">
    <dc:format>image/svg+xml</dc:format>
    <dc:type rdf:resource="http://purl.org/dc/dcmitype/StillImage"/>
    <dc:title>Gnome Symbolic Icon Theme</dc:title>
   </cc:Work>
  </rdf:RDF>
 </metadata>
 <title id="title9167">Gnome Symbolic Icon Theme</title>
 <g id="layer13" transform="translate(-442,-196)">
  <g id="g12903" transform="translate(234 -800)">
   <path id="path12905" style="fill:#bebebe" transform="translate(-234 800)" d="m442.53 197c-0.29 0-0.53 0.24-0.53 0.53v13.938c0 0.2985 0.23264 0.53125 0.53125 0.53125h14.938c0.3 0 0.53-0.23 0.53-0.53v-8.9375c0-0.29-0.24-0.53-0.53-0.53h-12.47v7.5c0 0.277-0.223 0.5-0.5 0.5s-0.5-0.223-0.5-0.5v-8c0-0.277 0.223-0.5 0.5-0.5h2.9688 8.5312v-1.4062c0-0.32-0.27-0.59-0.59-0.59h-7.41v-1.4688c0-0.29-0.24-0.53-0.53-0.53h-4.9375zm8 6c1.9212 0 3.4688 1.6102 3.4688 3.5312 0 0.59543-0.17515 1.1363-0.4375 1.625l1.1875 1.1875a1.0001 1.0001 0 1 1 -1.4062 1.4062l-1.1875-1.1875c-0.48 0.25-1.02 0.43-1.62 0.43-1.92 0-3.53-1.55-3.53-3.47s1.61-3.53 3.53-3.53zm0 2c-0.84 0-1.53 0.69-1.53 1.53 0 0.8403 0.69097 1.4688 1.5312 1.4688 0.37613 0 0.71487-0.12926 0.96875-0.34375a1.0001 1.0001 0 0 1 0.125 -0.0937c0.0103-0.011 0.0213-0.0199 0.0313-0.0313 0.22493-0.25623 0.34375-0.61392 0.34375-1 0-0.85-0.63-1.54-1.47-1.54z"/>
  </g>
 </g>
</svg>
