<?xml version="1.0" encoding="UTF-8" standalone="no"?>
<!-- Created with Inkscape (http://www.inkscape.org/) -->
<svg id="svg7384" xmlns:rdf="http://www.w3.org/1999/02/22-rdf-syntax-ns#" xmlns="http://www.w3.org/2000/svg" height="16" width="16" version="1.1" xmlns:cc="http://creativecommons.org/ns#" xmlns:dc="http://purl.org/dc/elements/1.1/">
 <metadata id="metadata90">
  <rdf:RDF>
   <cc:Work rdf:about="">
    <dc:format>image/svg+xml</dc:format>
    <dc:type rdf:resource="http://purl.org/dc/dcmitype/StillImage"/>
    <dc:title>Gnome Symbolic Icon Theme</dc:title>
   </cc:Work>
  </rdf:RDF>
 </metadata>
 <title id="title9167">Gnome Symbolic Icon Theme</title>
 <g id="layer13" transform="translate(-482,-176)">
  <g id="layer1-7" transform="translate(482,176)">
   <path id="path2930-9" style="color:#bebebe;text-indent:0pt;text-transform:none;fill:#bebebe" d="m4 2v-0.96875h7v0.9688h-7zm-0.5312-1.9688c-0.4904 0-0.7961 0.22845-1.0313 0.46875s-0.4375 0.5585-0.4375 1.0312v0.4688h-2v2h15v-2h-2v-0.3438-0.0312c-0.024-0.4306-0.17-0.75234-0.406-1.0313-0.224-0.26444-0.627-0.52931-1.156-0.53125v-0.0313h-0.0625-7.9062v0.0001zm8.5312 4.9688h2v8.7812c0 1.201-0.982 2.219-2.188 2.219h-8.625c-1.2046 0-2.187-1.018-2.187-2.219v-8.781h2v9h9v-9zm-4.9688 1v7h0.9688v-7h-0.9688zm1.9376 0-0.0312 7h1.0312l0.0312-7h-1.0312zm-3.9375 0v7h0.9687v-7h-0.9688z"/>
  </g>
 </g>
</svg>
