<?xml version="1.0" encoding="UTF-8" standalone="no"?>
<!-- Created with Inkscape (http://www.inkscape.org/) -->
<svg id="svg4948" xmlns:rdf="http://www.w3.org/1999/02/22-rdf-syntax-ns#" xmlns="http://www.w3.org/2000/svg" height="48" width="48" version="1.0" xmlns:cc="http://web.resource.org/cc/" xmlns:xlink="http://www.w3.org/1999/xlink" xmlns:dc="http://purl.org/dc/elements/1.1/">
 <defs id="defs4950">
  <linearGradient id="linearGradient6692">
   <stop id="stop6694" style="stop-color:#eeeeec" offset="0"/>
   <stop id="stop6696" style="stop-color:#d3d7cf" offset="1"/>
  </linearGradient>
  <linearGradient id="linearGradient5579" y2="27.982" gradientUnits="userSpaceOnUse" x2="7.9565" gradientTransform="matrix(1.4873 0 0 1.2542 1.0352 4.8125)" y1="25.369" x1="7.9565">
   <stop id="stop5575" style="stop-color:#86501b" offset="0"/>
   <stop id="stop5577" style="stop-color:#86501b;stop-opacity:0" offset="1"/>
  </linearGradient>
  <linearGradient id="linearGradient6698" y2="20.875" xlink:href="#linearGradient6692" gradientUnits="userSpaceOnUse" x2="19.75" y1="5.5" x1="5.4375"/>
  <linearGradient id="linearGradient6702" y2="20.875" xlink:href="#linearGradient6692" gradientUnits="userSpaceOnUse" x2="19.75" gradientTransform="matrix(1 0 0 .99672 22 .011591)" y1="5.5" x1="5.4375"/>
  <linearGradient id="linearGradient6706" y2="20.875" xlink:href="#linearGradient6692" gradientUnits="userSpaceOnUse" x2="19.75" gradientTransform="matrix(1 0 0 .99672 22.062 21.949)" y1="5.5" x1="5.4375"/>
  <linearGradient id="linearGradient6710" y2="20.875" xlink:href="#linearGradient6692" gradientUnits="userSpaceOnUse" x2="19.75" gradientTransform="matrix(1 0 0 .99672 -1.0106e-7 21.949)" y1="5.5" x1="5.4375"/>
 </defs>
 <metadata id="metadata4953">
  <rdf:RDF>
   <cc:Work rdf:about="">
    <dc:format>image/svg+xml</dc:format>
    <dc:type rdf:resource="http://purl.org/dc/dcmitype/StillImage"/>
    <dc:title>Browse Mode</dc:title>
    <dc:date>June 2007</dc:date>
    <dc:creator>
     <cc:Agent>
      <dc:title>Andreas Nilsson</dc:title>
     </cc:Agent>
    </dc:creator>
    <dc:contributor>
     <cc:Agent>
      <dc:title>Jakub Steine</dc:title>
     </cc:Agent>
    </dc:contributor>
   </cc:Work>
  </rdf:RDF>
 </metadata>
 <g id="layer1">
  <rect id="rect6708" style="stroke:#888a85;stroke-linecap:round;fill:url(#linearGradient6710)" rx=".89303" ry=".89303" height="19.016" width="19.024" y="25.476" x="3.4757"/>
  <rect id="rect6704" style="stroke:#888a85;stroke-linecap:round;fill:url(#linearGradient6706)" rx=".89303" ry=".89303" height="19.016" width="19.024" y="25.476" x="25.538"/>
  <rect id="rect6700" style="stroke:#888a85;stroke-linecap:round;fill:url(#linearGradient6702)" rx=".89303" ry=".89303" height="19.016" width="19.024" y="3.5381" x="25.476"/>
  <rect id="rect4968" style="stroke:#888a85;stroke-linecap:round;fill:url(#linearGradient6698)" rx=".89303" ry=".89303" height="19.078" width="19.024" y="3.5381" x="3.4757"/>
  <rect id="rect5553" style="stroke:#555753;stroke-linecap:round;fill:#b5a184" rx="0" ry="0" height="11.06" width="13.058" y="7.5" x="28.462"/>
  <rect id="rect5555" style="stroke:#374762;stroke-linecap:round;fill:#7590b7" rx="0" ry="0" height="11.056" width="13.011" y="7.5329" x="6.5"/>
  <rect id="rect5557" style="stroke:#555753;stroke-linecap:round;fill:#b5a184" rx="0" ry="0" height="10.979" width="12.971" y="29.5" x="28.56"/>
  <rect id="rect5559" style="stroke:#784a21;stroke-linecap:round;fill:#c07837" rx="0" ry="0" height="10.927" width="12.978" y="29.573" x="6.5876"/>
  <rect id="rect5561" style="fill:#48638a" height="5.0541" width="12.052" y="12.994" x="6.9424"/>
  <rect id="rect5565" style="fill:url(#linearGradient5579)" height="4.928" width="12.153" y="34.978" x="6.8793"/>
  <path id="path5567" style="fill:#edd400" d="m23.491 7.6253a1.3577 1.3892 0 1 1 -2.716 0 1.3577 1.3892 0 1 1 2.716 0z" transform="matrix(1.5101 0 0 1.4442 -1.4286 .011311)"/>
  <path id="path5571" style="fill:#eeeeec" d="m23.491 7.6253a1.3577 1.3892 0 1 1 -2.716 0 1.3577 1.3892 0 1 1 2.716 0z" transform="matrix(1.5101 0 0 1.4124 -1.3549 22.233)"/>
  <rect id="rect4964" style="fill:#83352b" height="1.8667" width="12.115" y="38.007" x="28.885"/>
  <rect id="rect4966" style="fill:#83352b" height="2.221" width="12.115" y="15.896" x="29"/>
  <rect id="rect4997" style="stroke:#fff;stroke-linecap:round;fill:none" rx="0" ry="0" height="16.957" width="16.903" y="4.5831" x="4.5866"/>
  <rect id="rect5576" style="stroke:#fff;stroke-linecap:round;fill:none" rx="0" ry="0" height="16.957" width="16.903" y="4.6213" x="26.535"/>
  <rect id="rect5578" style="stroke:#fff;stroke-linecap:round;fill:none" rx="0" ry="0" height="16.957" width="16.903" y="26.516" x="26.576"/>
  <rect id="rect5580" style="stroke:#fff;stroke-linecap:round;fill:none" rx="0" ry="0" height="16.931" width="16.903" y="26.538" x="4.6005"/>
  <path id="path5967" style="fill:#6c4015;fill-rule:evenodd" d="m11.022 34.969h3.947l-2.016-2.016-1.931 2.016z"/>
  <path id="path5965" style="fill:#86501b;fill-rule:evenodd" d="m13 35h5.844l-2.985-2.984-2.859 2.984z"/>
  <path id="path5971" style="fill:#eeeeec" d="m23.491 7.6253a1.3577 1.3892 0 1 1 -2.716 0 1.3577 1.3892 0 1 1 2.716 0z" transform="matrix(.72782 0 0 .68076 -6.0011 6.7821)"/>
  <path id="path6283" style="fill:#6c4015;fill-rule:evenodd" d="m36.228 15.882l0.751-2.368-2.066-3.182 2.254 2.146 0.188-2.664-1.502-0.814 1.972 0.518 0.563 1.776 2.536-1.258-2.63 2.59v3.256h-2.066z"/>
  <path id="path6285" style="fill:#2e3436;fill-rule:evenodd" d="m36.273 38l0.752-2.402-2.067-3.228 2.254 2.177 0.188-2.702-1.502-0.826 1.972 0.525 0.563 1.802 2.536-1.276-2.63 2.627v3.303h-2.066z"/>
 </g>
</svg>
