<?xml version="1.0" encoding="UTF-8" standalone="no"?>
<!-- Created with Inkscape (http://www.inkscape.org/) -->
<svg id="svg3304" xmlns:rdf="http://www.w3.org/1999/02/22-rdf-syntax-ns#" xmlns="http://www.w3.org/2000/svg" sodipodi:docname="applications-accessories.svg" height="48px" sodipodi:version="0.32" width="48px" xmlns:cc="http://web.resource.org/cc/" xmlns:dc="http://purl.org/dc/elements/1.1/" sodipodi:docbase="/home/luca/Artwork/blackwhite-icon-theme/scalable/categories" xmlns:sodipodi="http://inkscape.sourceforge.net/DTD/sodipodi-0.dtd">
 <sodipodi:namedview id="base" bordercolor="#666666" pagecolor="#ffffff" showgrid="true" borderopacity="1.0"/>
 <metadata id="metadata3309">
  <rdf:RDF>
   <cc:Work rdf:about="">
    <dc:format>image/svg+xml</dc:format>
    <dc:type rdf:resource="http://purl.org/dc/dcmitype/StillImage"/>
   </cc:Work>
  </rdf:RDF>
 </metadata>
 <g id="layer1">
  <rect id="rect6296" style="fill:none" ry="0" height="48" width="48" y="0" x="0"/>
  <rect id="rect9204" style="fill-rule:evenodd;stroke:#fff;stroke-width:8;fill:#fff" rx="4.9134" ry="4.9134" height="26" width="37.961" y="16" x="5"/>
  <path id="path9932" style="color:#000000;stroke:#fff;stroke-miterlimit:10;stroke-width:8;display:block;fill:#fff" d="m21 6c-7 0-9 4.174-9 11h24c0-7-2-11-9-11h-6zm2 4.417h2c7 0 6 4.583 6 6.583h-14c0-2-1-6.583 6-6.583z" sodipodi:nodetypes="cccsccsccc"/>
  <rect id="rect3314" style="fill-rule:evenodd" rx="4.9134" ry="4.9134" height="26" width="37.961" y="16" x="5"/>
  <path id="path4042" sodipodi:nodetypes="cc" style="stroke:#fff;stroke-width:2;fill:none" d="m7 24h34"/>
  <path id="path4772" sodipodi:nodetypes="cc" style="stroke:#fff;stroke-width:4;fill:none" d="m36 21v8"/>
  <path id="path2086" style="color:#000000;display:block" sodipodi:nodetypes="cccsccsccc" d="m21 6c-7 0-9 4.174-9 11h24c0-7-2-11-9-11h-6zm2 4.417h2c7 0 6 4.583 6 6.583h-14c0-2-1-6.583 6-6.583z"/>
  <path id="path7024" sodipodi:nodetypes="cc" style="stroke:#fff;stroke-width:4;fill:none" d="m12 21v8"/>
 </g>
</svg>
