<?xml version="1.0" encoding="UTF-8" standalone="no"?>
<!-- Created with Inkscape (http://www.inkscape.org/) -->
<svg id="svg3304" xmlns:rdf="http://www.w3.org/1999/02/22-rdf-syntax-ns#" xmlns="http://www.w3.org/2000/svg" sodipodi:docname="applications-games.svg" height="48px" sodipodi:version="0.32" width="48px" xmlns:cc="http://web.resource.org/cc/" xmlns:dc="http://purl.org/dc/elements/1.1/" sodipodi:docbase="/home/luca/Desktop/black-and-white/scalable/categories" xmlns:sodipodi="http://inkscape.sourceforge.net/DTD/sodipodi-0.dtd">
 <sodipodi:namedview id="base" bordercolor="#666666" pagecolor="#ffffff" showgrid="true" borderopacity="1.0"/>
 <metadata id="metadata3309">
  <rdf:RDF>
   <cc:Work rdf:about="">
    <dc:format>image/svg+xml</dc:format>
    <dc:type rdf:resource="http://purl.org/dc/dcmitype/StillImage"/>
    <dc:title>Games</dc:title>
    <dc:creator>
     <cc:Agent>
      <dc:title>elle.uca@libero.it</dc:title>
     </cc:Agent>
    </dc:creator>
    <dc:subject>
     <rdf:Bag>
      <rdf:li>games</rdf:li>
      <rdf:li>applications</rdf:li>
     </rdf:Bag>
    </dc:subject>
    <dc:description/>
    <cc:license rdf:resource="http://creativecommons.org/licenses/GPL/2.0/"/>
   </cc:Work>
   <cc:License rdf:about="http://creativecommons.org/licenses/GPL/2.0/">
    <cc:permits rdf:resource="http://web.resource.org/cc/Reproduction"/>
    <cc:permits rdf:resource="http://web.resource.org/cc/Distribution"/>
    <cc:requires rdf:resource="http://web.resource.org/cc/Notice"/>
    <cc:permits rdf:resource="http://web.resource.org/cc/DerivativeWorks"/>
    <cc:requires rdf:resource="http://web.resource.org/cc/ShareAlike"/>
    <cc:requires rdf:resource="http://web.resource.org/cc/SourceCode"/>
   </cc:License>
  </rdf:RDF>
 </metadata>
 <g id="layer1">
  <rect id="rect3312" style="fill:none" height="48" width="48" y="0" x="0"/>
  <rect id="rect4768" style="fill-rule:evenodd;stroke:#fff;stroke-width:8;fill:#fff" ry="2.8198" height="40" width="34" y="4" x="7"/>
  <rect id="rect4040" style="fill-rule:evenodd" ry="2.8198" height="40" width="34" y="4" x="7"/>
  <path id="path5496" sodipodi:nodetypes="czczc" style="fill:#fff;fill-rule:evenodd" d="m23.755 15.99c3.686-7.0605 14.138-3.22 13.126 3.446-1.003 6.604-9.878 15.095-13 16.564-3.333-1.532-11.94-9.908-12.817-16.501-0.913-6.857 8.231-10.59 12.691-3.509z"/>
  <path id="path6950" sodipodi:nodetypes="czczc" style="fill:#fff;fill-rule:evenodd" d="m12.513 7.7505c0.726-1.3909 2.785-0.6341 2.586 0.679-0.198 1.3012-1.946 2.9735-2.561 3.2635-0.657-0.302-2.353-1.9521-2.525-3.2511-0.1802-1.3509 1.621-2.0864 2.5-0.6914z"/>
  <path id="path6952" sodipodi:nodetypes="czczc" style="fill:#fff;fill-rule:evenodd" d="m35.401 40.249c0.726 1.391 2.785 0.635 2.585-0.679-0.197-1.301-1.946-2.973-2.561-3.263-0.656 0.302-2.352 1.952-2.525 3.251-0.18 1.351 1.622 2.086 2.501 0.691z"/>
 </g>
</svg>
