<?xml version="1.0" encoding="UTF-8" standalone="no"?>
<!-- Created with Inkscape (http://www.inkscape.org/) -->
<svg id="svg1306" xmlns:rdf="http://www.w3.org/1999/02/22-rdf-syntax-ns#" xmlns="http://www.w3.org/2000/svg" sodipodi:docname="applications-graphics.svg" height="48px" sodipodi:version="0.32" width="48px" xmlns:cc="http://web.resource.org/cc/" xmlns:dc="http://purl.org/dc/elements/1.1/" sodipodi:docbase="/home/betatester/Desktop" xmlns:sodipodi="http://inkscape.sourceforge.net/DTD/sodipodi-0.dtd">
 <sodipodi:namedview id="base" bordercolor="#666666" pagecolor="#ffffff" showgrid="true" borderopacity="1.0"/>
 <metadata id="metadata1311">
  <rdf:RDF>
   <cc:Work rdf:about="">
    <dc:format>image/svg+xml</dc:format>
    <dc:type rdf:resource="http://purl.org/dc/dcmitype/StillImage"/>
   </cc:Work>
  </rdf:RDF>
 </metadata>
 <g id="layer1">
  <rect id="rect2290" style="fill:none" ry="0" height="48" width="48" y="0" x="0"/>
  <path id="path3750" sodipodi:nodetypes="ccccc" style="stroke-linejoin:round;fill-rule:evenodd;stroke:#fff;stroke-linecap:round;stroke-width:8;fill:#fff" d="m20 27l6 4c5.646-3.287 12.487-10.359 15.427-20l-10.427-7c-6.034 4.5653-9.118 12.647-11 23z"/>
  <path id="path5221" sodipodi:nodetypes="cccc" style="stroke-linejoin:round;fill-rule:evenodd;stroke:#fff;stroke-width:8;fill:#fff" d="m9 43c11 1 16.461-2 15-11l-4-2c-8 2-3 9-11 13z"/>
  <path id="path3020" sodipodi:nodetypes="ccccc" style="fill-rule:evenodd" d="m21 28l4 2c5.646-3.287 13.487-9.359 16.427-19l-10.427-7c-6.034 4.5653-8.118 13.647-10 24z"/>
  <path id="path3748" sodipodi:nodetypes="cccc" style="fill-rule:evenodd" d="m9 43c11 1 16.461-2 15-11l-4-2c-8 2-3 9-11 13z"/>
 </g>
</svg>
