<?xml version="1.0" encoding="UTF-8" standalone="no"?>
<!-- Created with Inkscape (http://www.inkscape.org/) -->
<svg id="svg4932" xmlns:rdf="http://www.w3.org/1999/02/22-rdf-syntax-ns#" xmlns="http://www.w3.org/2000/svg" height="48px" width="48px" xmlns:cc="http://web.resource.org/cc/" xmlns:dc="http://purl.org/dc/elements/1.1/">
 <metadata id="metadata4937">
  <rdf:RDF>
   <cc:Work rdf:about="">
    <dc:format>image/svg+xml</dc:format>
    <dc:type rdf:resource="http://purl.org/dc/dcmitype/StillImage"/>
    <cc:license rdf:resource="http://creativecommons.org/licenses/LGPL/2.1/"/>
    <dc:title>Preferences Desktop Peripherals</dc:title>
    <dc:creator>
     <cc:Agent>
      <dc:title>Andreas Nilsson</dc:title>
     </cc:Agent>
    </dc:creator>
    <dc:rights>
     <cc:Agent>
      <dc:title>Andreas Nilsson</dc:title>
     </cc:Agent>
    </dc:rights>
    <dc:source>http://www.gnome.org/</dc:source>
    <dc:subject>
     <rdf:Bag>
      <rdf:li>preferences</rdf:li>
      <rdf:li>desktop</rdf:li>
      <rdf:li>peripheral</rdf:li>
      <rdf:li>input devices</rdf:li>
      <rdf:li>mouse</rdf:li>
      <rdf:li>keyboard</rdf:li>
      <rdf:li>tablet</rdf:li>
     </rdf:Bag>
    </dc:subject>
   </cc:Work>
   <cc:License rdf:about="http://creativecommons.org/licenses/LGPL/2.1/">
    <cc:permits rdf:resource="http://web.resource.org/cc/Reproduction"/>
    <cc:permits rdf:resource="http://web.resource.org/cc/Distribution"/>
    <cc:requires rdf:resource="http://web.resource.org/cc/Notice"/>
    <cc:permits rdf:resource="http://web.resource.org/cc/DerivativeWorks"/>
    <cc:requires rdf:resource="http://web.resource.org/cc/ShareAlike"/>
    <cc:requires rdf:resource="http://web.resource.org/cc/SourceCode"/>
   </cc:License>
  </rdf:RDF>
 </metadata>
 <g id="layer1">
  <rect id="rect4940" style="stroke-linejoin:round;stroke:#fff;stroke-linecap:round;stroke-width:4" height="31" width="36" y="6" x="2"/>
  <rect id="rect4978" style="fill:#fff" height="21" width="26" y="11" x="7"/>
  <g id="g4962" transform="matrix(.55124 0 0 .55124 23.464 19.746)">
   <g id="g4964" style="display:none">
    <path id="path5587" style="fill-rule:evenodd" d="m37.174 21.717a13.533 11.674 0 1 1 -27.065 0 13.533 11.674 0 1 1 27.065 0z"/>
    <path id="path6474" style="fill-rule:evenodd" d="m37.174 21.717a13.533 11.674 0 1 1 -27.065 0 13.533 11.674 0 1 1 27.065 0z" transform="translate(0 11.609)"/>
    <rect id="rect6476" style="fill-rule:evenodd" rx="0" ry="0" height="12.043" width="27.174" y="22" x="10"/>
    <path id="path7363" style="fill:#fff;fill-rule:evenodd" d="m14.348 22.043a8.7391 8.7391 0 0 1 8.739 -8.739v8.739z" transform="translate(-1.087)"/>
    <path id="path8250" style="fill:#fff;fill-rule:evenodd" d="m14.348 22.043a8.7391 8.7391 0 0 1 8.739 -8.739v8.739z" transform="matrix(-1 0 0 1 48.348 0)"/>
    <path id="path8252" style="fill:#fff;fill-rule:evenodd" d="m13 24h21v10s-0.136 7-10 7c-9.945 0-11-7-11-7v-10"/>
   </g>
   <g id="layer2" transform="matrix(1.0501 0 0 1.066 -3.5346 -3.3816)">
    <path id="path4555" style="fill-rule:evenodd;stroke:#fff;stroke-width:13.717;fill:#fff" d="m21.168-1.5002c-16.849 0-16.876 12.653-16.876 12.653l0.0005 20.705s-0.185 12.591 16.824 12.591c16.852 0 16.927-12.591 16.927-12.591v-20.705s0.132-12.653-16.875-12.653z"/>
    <path id="path1875" style="fill-rule:evenodd" d="m21.568-1.5002c-17.249 0-17.276 12.653-17.276 12.653l0.0005 20.705s-0.1894 12.591 17.222 12.591c17.252 0 17.33-12.591 17.33-12.591v-20.705s0.134-12.653-17.276-12.653z"/>
    <path id="path5971" style="stroke:#fff;stroke-width:2;fill:none" transform="matrix(1.7276 0 0 1.7018 -37.169 -30.431)" d="m34 16v11"/>
   </g>
  </g>
  <path id="path5969" style="stroke:#fff;stroke-width:3;fill:none" d="m24 26.562l20-0.062"/>
  <rect id="rect2170" style="opacity:.6;fill:none" rx="0" ry="0" height="48" width="48" y="0" x="0"/>
 </g>
</svg>
