<?xml version="1.0" encoding="UTF-8" standalone="no"?>
<!-- Created with Inkscape (http://www.inkscape.org/) -->
<svg id="svg3527" xmlns:rdf="http://www.w3.org/1999/02/22-rdf-syntax-ns#" xmlns="http://www.w3.org/2000/svg" height="32" width="32" version="1.0" xmlns:cc="http://web.resource.org/cc/" xmlns:xlink="http://www.w3.org/1999/xlink" xmlns:dc="http://purl.org/dc/elements/1.1/">
 <defs id="defs3529">
  <linearGradient id="linearGradient8927" y2="39.187" gradientUnits="userSpaceOnUse" x2="46.345" gradientTransform="matrix(.79230 0 0 .74077 -9.0769 -1.0373)" y1="3.0672" x1="19.029">
   <stop id="stop5303" style="stop-color:#fff" offset="0"/>
   <stop id="stop5305" style="stop-color:#fff;stop-opacity:0" offset="1"/>
  </linearGradient>
  <linearGradient id="linearGradient8930" y2="40.877" gradientUnits="userSpaceOnUse" x2="34.594" gradientTransform="matrix(.61683 0 0 .72306 -5.8238 -3.9943)" y1="10.039" x1="22.804">
   <stop id="stop4412" style="stop-color:#eeeeec" offset="0"/>
   <stop id="stop4414" style="stop-color:#babdb6" offset="1"/>
  </linearGradient>
  <linearGradient id="linearGradient5449" y2="18.534" gradientUnits="userSpaceOnUse" x2="78" gradientTransform="matrix(.96932 .30347 -.31303 .99988 -26.514 -28.878)" y1="18.534" x1="48">
   <stop id="stop2298" style="stop-color:#fff" offset="0"/>
   <stop id="stop2300" style="stop-color:#fff;stop-opacity:0" offset="1"/>
  </linearGradient>
 </defs>
 <metadata id="metadata3532">
  <rdf:RDF>
   <cc:Work rdf:about="">
    <dc:format>image/svg+xml</dc:format>
    <dc:type rdf:resource="http://purl.org/dc/dcmitype/StillImage"/>
   </cc:Work>
  </rdf:RDF>
 </metadata>
 <g id="layer1">
  <g id="g3042" style="stroke-width:1.1471" transform="matrix(.66767 -.16524 .17674 .62425 -4.5145 8.6144)">
   <path id="path3055" style="opacity:.51648;fill:url(#linearGradient5449);fill-rule:evenodd" d="m11.249 13.686c11.019 7.816 20.074 0.268 29.08 9.104l5.176-18.012-1.194-2.5246-24.804-7.853-2.717 1.3052-5.541 17.98z"/>
  </g>
  <rect id="rect7756" style="stroke:#333331;stroke-linecap:round;stroke-width:.76610;fill:url(#linearGradient8930)" transform="matrix(1 0.000883 -.0010101 1 0 0)" rx="2.401" ry="2.0952" height="25.205" width="21.428" y="1.5544" x="5.5558"/>
  <rect id="rect7758" style="stroke:url(#linearGradient8927);stroke-linecap:round;stroke-width:.76610;fill:none" transform="matrix(1 .00085307 -.0010433 1 0 0)" rx="1.7708" ry="1.4405" height="23.624" width="19.766" y="2.3132" x="6.4201"/>
  <path id="path920" style="fill:#c00;fill-rule:evenodd" d="m16.613 11.004c2.212-2.1453 5.237-0.153 5.211 1.888-0.024 1.866-1.485 2.756-5.156 6.064-3.823-3.099-5.171-3.815-5.144-6.029 0.027-2.291 2.628-4.0037 5.089-1.923z"/>
  <path id="text9323" style="fill:#c00" d="m12.316 8.585h-1.182l-0.343-1.1535h-1.7134l-0.3393 1.1535h-1.1758l1.7536-5.1854h1.2869l1.713 5.1854m-1.774-2.0503l-0.517-1.7429c-0.0381-0.1302-0.0649-0.2857-0.0806-0.4665h-0.0269c-0.0112 0.1519-0.0392 0.3025-0.084 0.452l-0.5241 1.7574h1.2326"/>
  <path id="path4380" style="fill:#c00" d="m24.993 19.697h-1.183l-0.342 1.153h-1.714l-0.339-1.153h-1.176l1.754 5.185h1.287l1.713-5.185m-1.774 2.05l-0.517 1.743c-0.038 0.13-0.065 0.285-0.081 0.466h-0.027c-0.011-0.152-0.039-0.302-0.084-0.452l-0.524-1.757h1.233"/>
  <path id="path3471" style="fill-rule:evenodd;stroke:#275897;stroke-width:.99189px;fill:#fff" d="m8.9446 22.271l-4.9546 3.977v-2.541l-2.725-0.111v7.623l8.2989-0.11v-2.762l-2.725-0.111 4.2111-3.977-2.1054-1.988z"/>
  <path id="path3493" style="fill-rule:evenodd;stroke:#275897;stroke-width:.97070px;fill:#fff" d="m22.283 23.46l3.861 4.888h-2.467l-0.107 2.689h7.399l-0.107-8.189h-2.681l-0.107 2.689-3.861-4.155-1.93 2.078z"/>
 </g>
</svg>
