<?xml version="1.0" encoding="UTF-8" standalone="no"?>
<!-- Created with Inkscape (http://www.inkscape.org/) -->
<svg id="svg7384" xmlns:rdf="http://www.w3.org/1999/02/22-rdf-syntax-ns#" xmlns="http://www.w3.org/2000/svg" height="16" width="16" version="1.1" xmlns:cc="http://creativecommons.org/ns#" xmlns:dc="http://purl.org/dc/elements/1.1/">
 <metadata id="metadata90">
  <rdf:RDF>
   <cc:Work rdf:about="">
    <dc:format>image/svg+xml</dc:format>
    <dc:type rdf:resource="http://purl.org/dc/dcmitype/StillImage"/>
    <dc:title>Gnome Symbolic Icon Theme</dc:title>
   </cc:Work>
  </rdf:RDF>
 </metadata>
 <title id="title9167">Gnome Symbolic Icon Theme</title>
 <defs id="defs7386">
  <clipPath id="clipPath6810-7-0-7" clipPathUnits="userSpaceOnUse">
   <rect id="rect6812-2-2-4" style="stroke-linejoin:round;color:#bebebe;stroke:#fff;stroke-linecap:round;stroke-width:2;fill:none" height="11" width="14" y="281" x="21"/>
  </clipPath>
 </defs>
 <g id="layer9" transform="translate(-61 -177)">
  <path id="path13940" style="fill:#bebebe" d="m29 209a1 1 0 1 1 -2 0 1 1 0 1 1 2 0z" transform="matrix(1.5,0,0,1.5,32.5,-123)"/>
  <rect id="rect13942" style="color:#bebebe;fill:#bebebe" rx="2.5" ry="2.5" height="10.013" width="5" y="177.99" x="65"/>
  <path id="rect13944" d="m27.969 273.62c-2.5025 0-4.5312 2.0288-4.5312 4.5312v5.8125c0 2.5025 2.0288 4.5312 4.5312 4.5312 2.5025 0 4.5312-2.0288 4.5312-4.5312v-5.8125c0-2.5025-2.0288-4.5312-4.5312-4.5312zm0 1c1.9641 0 3.5312 1.5671 3.5312 3.5312v5.8125c0 1.9642-1.5671 3.5312-3.5312 3.5312s-3.5312-1.5671-3.5312-3.5312v-5.8125c0-1.9642 1.5671-3.5312 3.5312-3.5312z" style="block-progression:tb;text-indent:0;color:#bebebe;text-transform:none;fill:#bebebe" transform="matrix(.99397 0 0 1 39.707 -98.486)" clip-path="url(#clipPath6810-7-0-7)"/>
  <path id="path13946" style="color:#bebebe;fill:#bebebe" d="m24 361a1 1 0 1 1 -2 0 1 1 0 1 1 2 0z" transform="matrix(.5 0 0 .5 52 2)"/>
  <path id="path13948" style="color:#bebebe;fill:#bebebe" d="m24 361a1 1 0 1 1 -2 0 1 1 0 1 1 2 0z" transform="matrix(.5 0 0 .5 60 2)"/>
  <path id="path13950" style="block-progression:tb;text-indent:0;color:#bebebe;text-transform:none;fill:#bebebe" d="m63.875 191a1.002 1.002 0 1 0 0.125 2h7.0312a1.0001 1.0001 0 1 0 0 -2h-7.031a1.0001 1.0001 0 0 0 -0.125 0z"/>
  <rect id="rect13952" style="color:#bebebe;fill:#bebebe" height="1" width="9" y="192" x="63"/>
  <rect id="rect13954" style="color:#bebebe;fill:#bebebe" height="4" width="3" y="189" x="66"/>
  <path id="path13956" style="fill:#bebebe" d="m29 209a1 1 0 1 1 -2 0 1 1 0 1 1 2 0z" transform="matrix(1.5,0,0,1.5,32.5,-128)"/>
  <path id="path13958" style="opacity:.25;fill:#bebebe" d="m29 209a1 1 0 1 1 -2 0 1 1 0 1 1 2 0z" transform="matrix(1.5,0,0,1.5,32.5,-133)"/>
 </g>
</svg>
