<?xml version="1.0" encoding="UTF-8" standalone="no"?>
<!-- Created with Inkscape (http://www.inkscape.org/) -->
<svg id="svg7384" xmlns:rdf="http://www.w3.org/1999/02/22-rdf-syntax-ns#" xmlns="http://www.w3.org/2000/svg" height="16" width="16" version="1.1" xmlns:cc="http://creativecommons.org/ns#" xmlns:dc="http://purl.org/dc/elements/1.1/">
 <metadata id="metadata90">
  <rdf:RDF>
   <cc:Work rdf:about="">
    <dc:format>image/svg+xml</dc:format>
    <dc:type rdf:resource="http://purl.org/dc/dcmitype/StillImage"/>
    <dc:title>Gnome Symbolic Icon Theme</dc:title>
   </cc:Work>
  </rdf:RDF>
 </metadata>
 <title id="title9167">Gnome Symbolic Icon Theme</title>
 <g id="layer11" transform="translate(-162,-490)">
  <path id="rect3620-8-7" style="fill:none" d="m162 490h16v16h-16v-16z"/>
  <path id="path3601-2" style="block-progression:tb;text-indent:0;color:#000000;text-transform:none;fill:#bebebe" d="m167.41 496a0.50219 0.50219 0 1 0 0.0937 1h6a0.50005 0.50005 0 1 0 0 -1h-6a0.50005 0.50005 0 0 0 -0.0937 0z"/>
  <path id="path3601-2-3" style="block-progression:tb;text-indent:0;color:#000000;text-transform:none;fill:#bebebe" d="m167.41 498a0.50219 0.50219 0 1 0 0.0937 1h5a0.50005 0.50005 0 1 0 0 -1h-5a0.50005 0.50005 0 0 0 -0.0937 0z"/>
  <path id="path3601-2-3-2" style="block-progression:tb;text-indent:0;color:#000000;text-transform:none;fill:#bebebe" d="m167.41 500a0.50219 0.50219 0 1 0 0.0937 1h6a0.50005 0.50005 0 1 0 0 -1h-6a0.50005 0.50005 0 0 0 -0.0937 0z"/>
  <path id="path3601-2-3-3" style="block-progression:tb;text-indent:0;color:#000000;text-transform:none;fill:#bebebe" d="m167.41 502a0.50219 0.50219 0 1 0 0.0937 1h3a0.50005 0.50005 0 1 0 0 -1h-3a0.50005 0.50005 0 0 0 -0.0937 0z"/>
  <path id="rect10788" style="block-progression:tb;text-indent:0;color:#000000;enable-background:new;text-transform:none;fill:#bebebe" d="m166 491c-1.0907 0-2 0.9093-2 2v11c0 1.0907 0.9093 2 2 2h9c1.0907 0 2-0.9093 2-2v-11c0-1.0907-0.9093-2-2-2v13h-9v-13z"/>
  <path id="path3601-2-3-3-9" style="block-progression:tb;text-indent:0;color:#000000;text-transform:none;fill:#bebebe" d="m167.41 490a0.50005 0.50005 0 0 0 -0.41 0.5v3a0.50005 0.50005 0 1 0 1 0v-3a0.50005 0.50005 0 0 0 -0.59375 -0.5z"/>
  <path id="path3601-2-3-3-9-3" style="block-progression:tb;text-indent:0;color:#000000;text-transform:none;fill:#bebebe" d="m169.41 490a0.50005 0.50005 0 0 0 -0.41 0.5v3a0.50005 0.50005 0 1 0 1 0v-3a0.50005 0.50005 0 0 0 -0.59375 -0.5z"/>
  <path id="path3601-2-3-3-9-3-3" style="block-progression:tb;text-indent:0;color:#000000;text-transform:none;fill:#bebebe" d="m171.41 490a0.50005 0.50005 0 0 0 -0.41 0.5v3a0.50005 0.50005 0 1 0 1 0v-3a0.50005 0.50005 0 0 0 -0.59375 -0.5z"/>
  <path id="path3601-2-3-3-9-3-3-7" style="block-progression:tb;text-indent:0;color:#000000;text-transform:none;fill:#bebebe" d="m173.41 490a0.50005 0.50005 0 0 0 -0.41 0.5v3a0.50005 0.50005 0 1 0 1 0v-3a0.50005 0.50005 0 0 0 -0.59375 -0.5z"/>
 </g>
</svg>
