<?xml version="1.0" encoding="UTF-8" standalone="no"?>
<!-- Created with Inkscape (http://www.inkscape.org/) -->
<svg id="svg7384" xmlns:rdf="http://www.w3.org/1999/02/22-rdf-syntax-ns#" xmlns="http://www.w3.org/2000/svg" height="16" width="16" version="1.1" xmlns:cc="http://creativecommons.org/ns#" xmlns:dc="http://purl.org/dc/elements/1.1/">
 <metadata id="metadata90">
  <rdf:RDF>
   <cc:Work rdf:about="">
    <dc:format>image/svg+xml</dc:format>
    <dc:type rdf:resource="http://purl.org/dc/dcmitype/StillImage"/>
    <dc:title>Gnome Symbolic Icon Theme</dc:title>
   </cc:Work>
  </rdf:RDF>
 </metadata>
 <title id="title9167">Gnome Symbolic Icon Theme</title>
 <g id="layer11" transform="translate(-282,-490)">
  <path id="path27780" style="fill:none" d="m282 490h16v16h-16v-16z"/>
  <path id="rect27790" style="block-progression:tb;text-indent:0;color:#000000;enable-background:new;text-transform:none;fill:#bebebe" d="m284 490c-1.0524 0-2 0.84508-2 1.9375v11.125c0 1.0924 0.94763 1.9375 2 1.9375h11c1.0524 0 2-0.84508 2-1.9375v-11.125c0-1.09-0.95-1.94-2-1.94h-11zm0 2h11v11h-11v-11z"/>
  <rect id="rect27800" style="color:#000000;fill:#bebebe" rx="0" ry="0" height="4" width="13" y="491" x="283"/>
  <path id="path27802" style="block-progression:tb;text-indent:0;color:#000000;text-transform:none;fill:#bebebe" d="m287.03 493.56v9.9062h1v-9.9062h-1z"/>
  <path id="path27804" style="block-progression:tb;text-indent:0;color:#000000;text-transform:none;fill:#bebebe" d="m291 493.56v9.9062h1v-9.9062h-1z"/>
  <path id="path27806" style="block-progression:tb;text-indent:0;color:#000000;text-transform:none;fill:#bebebe" d="m283.69 497v1h11.719v-1h-11.719z"/>
  <path id="path27808" style="block-progression:tb;text-indent:0;color:#000000;text-transform:none;fill:#bebebe" d="m283.69 500v1h11.719v-1h-11.719z"/>
  <rect id="rect27810" style="opacity:.5;color:#000000;fill:#bebebe" height="2" width="3" y="498" x="292"/>
 </g>
</svg>
