<?xml version="1.0" encoding="UTF-8" standalone="no"?>
<!-- Created with Inkscape (http://www.inkscape.org/) -->
<svg id="svg2" xmlns:rdf="http://www.w3.org/1999/02/22-rdf-syntax-ns#" xmlns="http://www.w3.org/2000/svg" height="16" width="16" version="1.0" xmlns:cc="http://web.resource.org/cc/" xmlns:xlink="http://www.w3.org/1999/xlink" xmlns:dc="http://purl.org/dc/elements/1.1/">
 <defs id="defs4">
  <linearGradient id="linearGradient3190" y2="2.1227" gradientUnits="userSpaceOnUse" x2="3.8007" y1="14.592" x1="3.8007">
   <stop id="stop3186" style="stop-color:#d3d7cf" offset="0"/>
   <stop id="stop3188" style="stop-color:#fff" offset="1"/>
  </linearGradient>
  <linearGradient id="linearGradient3200" y2="3.5406" gradientUnits="userSpaceOnUse" x2="5.2591" y1="2.6523" x1="5.2591">
   <stop id="stop3196" style="stop-color:#729fcf" offset="0"/>
   <stop id="stop3198" style="stop-color:#3465a4" offset="1"/>
  </linearGradient>
  <linearGradient id="linearGradient3239" y2="11.094" gradientUnits="userSpaceOnUse" x2="15.472" y1="11.094" x1="5.6565">
   <stop id="stop3150" style="stop-color:#729fcf" offset="0"/>
   <stop id="stop3156" style="stop-color:#c6d8ec" offset=".28431"/>
   <stop id="stop3152" style="stop-color:#729fcf" offset="1"/>
  </linearGradient>
  <linearGradient id="linearGradient3241" y2="19.875" gradientUnits="userSpaceOnUse" x2="6.5625" y1="8.1562" x1="10.219">
   <stop id="stop3222" style="stop-color:#fff" offset="0"/>
   <stop id="stop3224" style="stop-color:#fff;stop-opacity:0" offset="1"/>
  </linearGradient>
 </defs>
 <metadata id="metadata7">
  <rdf:RDF>
   <cc:Work rdf:about="">
    <dc:format>image/svg+xml</dc:format>
    <dc:type rdf:resource="http://purl.org/dc/dcmitype/StillImage"/>
   </cc:Work>
  </rdf:RDF>
 </metadata>
 <g id="layer1">
  <rect id="rect2172" style="stroke:#babdb6;stroke-linecap:round;fill:url(#linearGradient3190)" rx="1.5455" ry="1.5455" height="12" width="12" y="0.5" x=".5"/>
  <path id="path3182" style="stroke:#fff;stroke-linecap:round;fill:none" d="m2.0312 1.5c-0.3334 0-0.5312 0.1978-0.5312 0.5312v8.9378c0 0.333 0.1978 0.531 0.5312 0.531h8.9378c0.333 0 0.531-0.198 0.531-0.531v-8.9378c0-0.3334-0.198-0.5312-0.531-0.5312h-8.9378z"/>
  <g id="g3235">
   <path id="rect3145" style="stroke-linejoin:round;stroke:#3465a4;stroke-linecap:round;fill:url(#linearGradient3239)" d="m5.5 7.5c5.509 3.521 4.4893-3.4556 10 0v7c-5.5297-3.482-4.507 3.502-10 0v-7z"/>
   <path id="path3216" style="opacity:.63054;stroke:url(#linearGradient3241);stroke-linecap:round;fill:none" d="m12.531 7.5312c-0.698 0.1031-1.252 0.8008-2.406 1.4688-0.5769 0.334-1.3417 0.5792-2.2188 0.5-0.4207-0.038-0.9419-0.3848-1.4062-0.5625v4.9375c0.9312 0.511 1.5782 0.68 1.9688 0.625 0.4604-0.065 0.8449-0.345 1.4062-0.781 0.561-0.437 1.307-1.034 2.375-1.188 0.671-0.096 1.423 0.088 2.25 0.407v-4.813c-0.935-0.502-1.58-0.6512-1.969-0.5938z" xlink:href="#rect3145"/>
  </g>
  <path id="path3174" style="stroke:#fff;stroke-width:1px;fill:none" d="m13 31.14c-0.058 1.903-3.4768 2.517-4.5 1.031"/>
  <path id="path3178" style="fill-opacity:.59701;stroke:#fff;stroke-linecap:round;stroke-width:.73720;fill:#fff" d="m11.625 11.688a0.82812 0.65625 0 1 1 -1.6562 0 0.82812 0.65625 0 1 1 1.6562 0z" transform="matrix(1.2075 0 0 1.5238 -2.5377 12.69)"/>
  <rect id="rect3192" style="fill:url(#linearGradient3200)" rx=".46875" ry=".46875" height="2" width="9" y="2" x="2"/>
 </g>
</svg>
