<?xml version="1.0" encoding="UTF-8" standalone="no"?>
<!-- Created with Inkscape (http://www.inkscape.org/) -->
<svg id="svg2" height="16" xmlns:dc="http://purl.org/dc/elements/1.1/" width="16" version="1.0" xmlns:xlink="http://www.w3.org/1999/xlink" xmlns:cc="http://web.resource.org/cc/" xmlns:rdf="http://www.w3.org/1999/02/22-rdf-syntax-ns#" xmlns="http://www.w3.org/2000/svg">
 <defs id="defs3">
  <linearGradient id="linearGradient6097" y2="35.69" gradientUnits="userSpaceOnUse" x2="47.002" y1="35.895" x1="10.602">
   <stop id="stop6093" style="stop-color:#888a85" offset="0"/>
   <stop id="stop6095" style="stop-color:#81837e;stop-opacity:.98649" offset="1"/>
  </linearGradient>
  <linearGradient id="linearGradient6111" y2="41" gradientUnits="userSpaceOnUse" x2="23.734" gradientTransform="matrix(.33641 0 0 .33727 -.67744 .12743)" y1="41" x1="15.552">
   <stop id="stop6107" style="stop-color:#fff;stop-opacity:0" offset="0"/>
   <stop id="stop6113" style="stop-color:#fff" offset=".45210"/>
   <stop id="stop6109" style="stop-color:#fff;stop-opacity:0" offset="1"/>
  </linearGradient>
  <radialGradient id="radialGradient6290" gradientUnits="userSpaceOnUse" cy="18.915" cx="17.832" gradientTransform="matrix(.19307 0 0 .093410 2.1701 6.6136)" r="19.736">
   <stop id="stop6306" style="stop-color:#eeeeec" offset="0"/>
   <stop id="stop6308" style="stop-color:#80827d" offset="1"/>
  </radialGradient>
  <linearGradient id="linearGradient6302" y2="32.737" gradientUnits="userSpaceOnUse" x2="28.763" gradientTransform="matrix(.35411 0 0 .36352 -.74329 -1.8035)" y1="42.346" x1="34.826">
   <stop id="stop6298" style="stop-color:#fff" offset="0"/>
   <stop id="stop6300" style="stop-color:#fff;stop-opacity:0" offset="1"/>
  </linearGradient>
  <radialGradient id="radialGradient6066" gradientUnits="userSpaceOnUse" cy="32.705" cx="29.923" gradientTransform="matrix(1.0244 0 0 1.0143 -.50927 .68571)" r="19.736">
   <stop id="stop3975" style="stop-color:#babdb6" offset="0"/>
   <stop id="stop3977" style="stop-color:#555753" offset="1"/>
  </radialGradient>
 </defs>
 <metadata id="metadata6">
  <rdf:RDF>
   <cc:Work rdf:about="">
    <dc:format>image/svg+xml</dc:format>
    <dc:type rdf:resource="http://purl.org/dc/dcmitype/StillImage"/>
    <dc:title>Sound CC applet</dc:title>
    <dc:date>17.02.2007</dc:date>
    <dc:creator>
     <cc:Agent>
      <dc:title>Josef vybíral</dc:title>
     </cc:Agent>
    </dc:creator>
    <dc:rights>
     <cc:Agent>
      <dc:title>Josef vybíral</dc:title>
     </cc:Agent>
    </dc:rights>
    <dc:identifier>http://blog.vybiral.info</dc:identifier>
    <dc:source>http://blog.vybiral.info</dc:source>
    <dc:coverage>sound, reproductor, note</dc:coverage>
    <cc:license rdf:resource="http://creativecommons.org/licenses/GPL/2.0/"/>
   </cc:Work>
   <cc:License rdf:about="http://creativecommons.org/licenses/GPL/2.0/">
    <cc:permits rdf:resource="http://web.resource.org/cc/Reproduction"/>
    <cc:permits rdf:resource="http://web.resource.org/cc/Distribution"/>
    <cc:requires rdf:resource="http://web.resource.org/cc/Notice"/>
    <cc:permits rdf:resource="http://web.resource.org/cc/DerivativeWorks"/>
    <cc:requires rdf:resource="http://web.resource.org/cc/ShareAlike"/>
    <cc:requires rdf:resource="http://web.resource.org/cc/SourceCode"/>
   </cc:License>
  </rdf:RDF>
 </metadata>
 <g id="layer1">
  <path id="path6051" style="stroke-width:6.0595;fill-rule:evenodd;color:#000000;stroke:#2e3436;stroke-linecap:round;fill:url(#linearGradient6097)" d="m46.089 25.766a19.162 19.162 0 1 1 -38.323 0 19.162 19.162 0 1 1 38.323 0z" transform="matrix(.20875 0 0 .13047 1.8789 9.6383)"/>
  <path id="path6099" style="stroke-width:7.8242;stroke-opacity:.35586;color:#000000;stroke:#fff;stroke-linecap:round;fill:none" d="m46.089 25.766a19.162 19.162 0 1 1 -38.323 0 19.162 19.162 0 1 1 38.323 0z" transform="matrix(.15650 0 0 .10437 3.2846 9.8106)"/>
  <path id="path6103" style="opacity:.56769;fill:url(#linearGradient6111);fill-rule:evenodd" d="m4.2235 13.618s0.818 1.349 3.1729 1.349v-2.023h-3.1653l-0.0076 0.674z"/>
  <path id="path6011" style="stroke-width:2.957;fill-rule:evenodd;color:#000000;stroke:#2e3436;stroke-linecap:round;fill:#555753" d="m46.089 25.766a19.162 19.162 0 1 1 -38.323 0 19.162 19.162 0 1 1 38.323 0z" transform="matrix(.36525 0 0 .31312 -2.3364 -.56808)"/>
  <path id="path6013" style="stroke-width:3.0942;fill-rule:evenodd;color:#000000;stroke:#2e3436;stroke-linecap:round;fill:url(#radialGradient6066)" d="m46.089 25.766a19.162 19.162 0 1 1 -38.323 0 19.162 19.162 0 1 1 38.323 0z" transform="matrix(.36525 0 0 .28597 -2.3364 -.38874)"/>
  <path id="path6015" style="stroke-width:3.5754;stroke-opacity:.27477;color:#000000;stroke:#fff;stroke-linecap:round;fill:none" d="m46.089 25.766a19.162 19.162 0 1 1 -38.323 0 19.162 19.162 0 1 1 38.323 0z" transform="matrix(.31312 0 0 .24983 -.93162 .84995)"/>
  <path id="path6039" style="fill:url(#linearGradient6302);fill-rule:evenodd" d="m5.2887 12.374c1.8482 0.966 7.6483 0.555 8.7153-4.31 0 0-2.551 5.255-8.7153 4.31z"/>
  <path id="path6055" style="stroke-opacity:.26577;color:#000000;stroke:#fff;stroke-linecap:round;fill:none" d="m11.5 9.2396c0 0.9494-1.5131 1.8534-3.1607 1.8534-1.6477 0-2.6822-0.771-2.6822-1.7205s1.3372-2.1025 2.9848-2.1025c1.6481 0 2.8581 1.0201 2.8581 1.9696z"/>
  <path id="path6047" style="fill-rule:evenodd;color:#000000;stroke:#2e3436;stroke-linecap:round;fill:url(#radialGradient6290)" d="m10.436 9.15c0 0.7452-1.3295 1.35-2.9679 1.35s-2.9681-0.6048-2.9681-1.35 1.3297-1.65 2.9681-1.65 2.9679 0.9048 2.9679 1.65z"/>
  <g id="g6029" transform="matrix(.49073 0 0 .49105 .039572 .62953)">
   <path id="path5052" style="stroke:#ce5c00;stroke-linecap:round;stroke-width:6.1113;fill:none" d="m29.48 9.1194v-7.2218"/>
   <path id="path6023" style="stroke:#ce5c00;stroke-linecap:round;stroke-width:6.1113;fill:none" d="m17.241 8.1229v-5.1355"/>
   <path id="path6025" style="stroke-width:6.1113;color:#000000;stroke:#ce5c00;stroke-linecap:round;fill:none" d="m17.232 1.801l12.227-0.0066"/>
   <path id="path6125" style="stroke-width:1.9233;fill-rule:evenodd;color:#000000;stroke:#ce5c00;stroke-linecap:round;fill:#f57900" d="m35.741 17.284a3.9211 1.8831 0 1 1 -7.842 0 3.9211 1.8831 0 1 1 7.842 0z" transform="matrix(1.0394 0 0 1.0794 -17.879 -8.7314)"/>
   <path id="path6127" style="stroke-width:1.9233;fill-rule:evenodd;color:#000000;stroke:#ce5c00;stroke-linecap:round;fill:#f57900" d="m35.741 17.284a3.9211 1.8831 0 1 1 -7.842 0 3.9211 1.8831 0 1 1 7.842 0z" transform="matrix(1.0394 0 0 1.0794 -5.6521 -8.7314)"/>
   <path id="path6163" style="stroke:#f57900;stroke-linecap:round;stroke-width:2.0371;fill:none" d="m17.232 10.051v-8.2235"/>
   <path id="path6165" style="stroke:#f57900;stroke-linecap:round;stroke-width:2.0371;fill:none" d="m29.467 9.8623v-8.2685"/>
   <path id="path6167" style="stroke:#f57900;stroke-linecap:round;stroke-width:2.0371;fill:none" d="m17.197 1.8127l12.303-0.0484"/>
   <path id="path6190" style="fill-opacity:.32941;color:#000000;fill-rule:evenodd;fill:#fff" d="m35.741 17.284a3.9211 1.8831 0 1 1 -7.842 0 3.9211 1.8831 0 1 1 7.842 0z" transform="matrix(.76305 0 0 .53968 3.2062 .59649)"/>
   <path id="path6192" style="stroke-width:2.0371;stroke-opacity:.32883;color:#000000;stroke:#fff;stroke-linecap:round;fill:none" d="m17.226 1.7944l12.274-0.0301"/>
   <path id="path6212" style="stroke-width:2.0371;stroke-opacity:.32883;color:#000000;stroke:#fff;stroke-linecap:round;fill:none" d="m17.232 8.2177v-6.3465"/>
   <path id="path6214" style="stroke-width:2.0371;stroke-opacity:.32883;color:#000000;stroke:#fff;stroke-linecap:round;fill:none" d="m29.467 7.9859v-6.1915"/>
   <path id="path6069" style="fill-opacity:.32941;color:#000000;fill-rule:evenodd;fill:#fff" d="m35.741 17.284a3.9211 1.8831 0 1 1 -7.842 0 3.9211 1.8831 0 1 1 7.842 0z" transform="matrix(.76305 0 0 .53968 -9.15 .59649)"/>
  </g>
  <path id="path6206" style="fill-rule:evenodd;color:#000000;fill:#eee" d="m46.089 25.766a19.162 19.162 0 1 1 -38.323 0 19.162 19.162 0 1 1 38.323 0z" transform="matrix(.026334 0 0 .015570 6.2595 7.8972)"/>
  <path id="path6208" style="fill-rule:evenodd;color:#000000;fill:#eee" d="m46.089 25.766a19.162 19.162 0 1 1 -38.323 0 19.162 19.162 0 1 1 38.323 0z" transform="matrix(.039259 0 0 .026214 5.6951 8.8223)"/>
 </g>
</svg>
