<?xml version="1.0" encoding="UTF-8" standalone="no"?>
<!-- Created with Inkscape (http://www.inkscape.org/) -->
<svg id="svg11300" xmlns:rdf="http://www.w3.org/1999/02/22-rdf-syntax-ns#" xmlns="http://www.w3.org/2000/svg" height="48px" width="48px" xmlns:cc="http://web.resource.org/cc/" xmlns:xlink="http://www.w3.org/1999/xlink" xmlns:dc="http://purl.org/dc/elements/1.1/">
 <defs id="defs3">
  <linearGradient id="linearGradient3251">
   <stop id="stop3253" style="stop-color:#fff7ac" offset="0"/>
   <stop id="stop3255" style="stop-color:#edd400" offset="1"/>
  </linearGradient>
  <radialGradient id="radialGradient3249" gradientUnits="userSpaceOnUse" cy="39.515" cx="24.042" gradientTransform="matrix(1 0 0 .34832 6.7221e-17 25.751)" r="15.733">
   <stop id="stop3245" offset="0"/>
   <stop id="stop3247" style="stop-opacity:0" offset="1"/>
  </radialGradient>
  <radialGradient id="radialGradient3257" xlink:href="#linearGradient3251" gradientUnits="userSpaceOnUse" cy="3.2516" cx="26.87" gradientTransform="matrix(1.512 -1.0289e-15 1.0289e-15 1.512 -13.757 -1.6647)" r="7.9736"/>
  <radialGradient id="radialGradient3259" xlink:href="#linearGradient3251" gradientUnits="userSpaceOnUse" cy="3.2516" cx="26.87" gradientTransform="matrix(4.5285 -2.0792e-16 2.0792e-16 4.5285 -94.81 -11.473)" r="7.9736"/>
 </defs>
 <metadata id="metadata4">
  <rdf:RDF>
   <cc:Work rdf:about="">
    <dc:format>image/svg+xml</dc:format>
    <dc:type rdf:resource="http://purl.org/dc/dcmitype/StillImage"/>
    <dc:creator>
     <cc:Agent>
      <dc:title>Jakub Steiner</dc:title>
     </cc:Agent>
    </dc:creator>
    <dc:source>http://jimmac.musichall.cz</dc:source>
    <cc:license rdf:resource="http://creativecommons.org/licenses/GPL/2.0/"/>
    <dc:title>IM - AIM</dc:title>
   </cc:Work>
   <cc:License rdf:about="http://creativecommons.org/licenses/GPL/2.0/">
    <cc:permits rdf:resource="http://web.resource.org/cc/Reproduction"/>
    <cc:permits rdf:resource="http://web.resource.org/cc/Distribution"/>
    <cc:requires rdf:resource="http://web.resource.org/cc/Notice"/>
    <cc:permits rdf:resource="http://web.resource.org/cc/DerivativeWorks"/>
    <cc:requires rdf:resource="http://web.resource.org/cc/ShareAlike"/>
    <cc:requires rdf:resource="http://web.resource.org/cc/SourceCode"/>
   </cc:License>
  </rdf:RDF>
 </metadata>
 <g id="layer1">
  <path id="path2364" style="fill-rule:evenodd;color:#000000;stroke:#c4a000;stroke-width:1.098;fill:url(#radialGradient3257)" d="m34.295 9.4627a7.4246 7.4246 0 1 1 -14.85 0 7.4246 7.4246 0 1 1 14.85 0z" transform="matrix(.91077 0 0 .91077 2.3976 .84435)"/>
  <path id="path3241" style="opacity:.27473;color:#000000;fill-rule:evenodd;fill:url(#radialGradient3249)" d="m39.775 39.515a15.733 5.4801 0 1 1 -31.466 0 15.733 5.4801 0 1 1 31.466 0z" transform="matrix(1.3596 0 0 1 -9.1745 .53033)"/>
  <path id="path3239" style="fill-rule:evenodd;color:#000000;stroke:#c4a000;fill:url(#radialGradient3259)" d="m20.036 15.171c3.832 1.802 7.088 5.461 15.319 2.423l1.768 4.862c-2.563 1.414-6.401 2.233-11.314 1.768l12.905 12.993-4.782 4.303-9.927-10.427c-4.016 7.036-9.267 9.794-13.398 12.311l-3.4716-5.477c20.287-10.538 2.6557-15.718 12.901-22.756z"/>
  <path id="path3261" style="opacity:.61538;color:#000000;stroke:#fff;stroke-width:1.3263;fill:none" d="m34.295 9.4627a7.4246 7.4246 0 1 1 -14.85 0 7.4246 7.4246 0 1 1 14.85 0z" transform="matrix(0.754 0 0 0.754 6.6099 2.3278)"/>
  <path id="path3281" style="opacity:.70330;color:#000000;stroke:#fff;fill:none" d="m20.168 16.392c3.45 1.622 7.412 4.916 14.541 2.494l1.221 2.986c-2.308 1.273-8.018 1.917-12.972 1.029l14.243 14.212-3.211 2.999-10.186-10.699c-3.428 6.366-8.125 10.067-12.875 12.614l-2.3435-3.711c18.512-9.925 3.5785-16.744 11.582-21.924z"/>
 </g>
</svg>
