<?xml version="1.0" encoding="UTF-8" standalone="no"?>
<!-- Created with Inkscape (http://www.inkscape.org/) -->
<svg id="svg2" xmlns:rdf="http://www.w3.org/1999/02/22-rdf-syntax-ns#" xmlns="http://www.w3.org/2000/svg" sodipodi:docname="ekiga.svg" xmlns:sodipodi="http://inkscape.sourceforge.net/DTD/sodipodi-0.dtd" sodipodi:version="0.32" height="48" width="48" version="1.0" xmlns:cc="http://web.resource.org/cc/" xmlns:xlink="http://www.w3.org/1999/xlink" sodipodi:docbase="/home/vinicius/tango-icon-theme-code/protocols/scalable" xmlns:dc="http://purl.org/dc/elements/1.1/">
 <metadata id="metadata7">
  <rdf:RDF>
   <cc:Work rdf:about="">
    <dc:format>image/svg+xml</dc:format>
    <dc:type rdf:resource="http://purl.org/dc/dcmitype/StillImage"/>
    <dc:title>Ekiga Icon</dc:title>
    <dc:date>2006-12-05</dc:date>
    <dc:creator>
     <cc:Agent>
      <dc:title>Vinicius Scopel Depizzol</dc:title>
     </cc:Agent>
    </dc:creator>
    <dc:subject>
     <rdf:Bag>
      <rdf:li>Ekiga</rdf:li>
      <rdf:li>VOIP</rdf:li>
      <rdf:li>protocol</rdf:li>
     </rdf:Bag>
    </dc:subject>
    <dc:source>vdepizzol@gmail.com</dc:source>
    <cc:license rdf:resource="http://creativecommons.org/licenses/GPL/2.0/"/>
    <dc:contributor>
     <cc:Agent>
      <dc:title>Original Artwork by Jakub Steiner &lt;jimmac_at_ximian.com&gt; and Andreas Kwiatkowski &lt;post_at_kwiat.org&gt;</dc:title>
     </cc:Agent>
    </dc:contributor>
   </cc:Work>
   <cc:License rdf:about="http://creativecommons.org/licenses/GPL/2.0/">
    <cc:permits rdf:resource="http://web.resource.org/cc/Reproduction"/>
    <cc:permits rdf:resource="http://web.resource.org/cc/Distribution"/>
    <cc:requires rdf:resource="http://web.resource.org/cc/Notice"/>
    <cc:permits rdf:resource="http://web.resource.org/cc/DerivativeWorks"/>
    <cc:requires rdf:resource="http://web.resource.org/cc/ShareAlike"/>
    <cc:requires rdf:resource="http://web.resource.org/cc/SourceCode"/>
   </cc:License>
  </rdf:RDF>
 </metadata>
 <defs id="defs5">
  <linearGradient id="linearGradient7026" y2="7.5119" gradientUnits="userSpaceOnUse" x2="14.919" y1="7.5119" x1="1.9788">
   <stop id="stop4191" style="stop-color:#e26f00" offset="0"/>
   <stop id="stop4193" style="stop-color:#ffae19" offset="1"/>
  </linearGradient>
  <linearGradient id="linearGradient7028" y2="4.5927" gradientUnits="userSpaceOnUse" x2="7.2169" y1="13.273" x1="7.2169">
   <stop id="stop4203" style="stop-color:#fcaf3e" offset="0"/>
   <stop id="stop4205" style="stop-color:#fce94f" offset="1"/>
  </linearGradient>
  <linearGradient id="linearGradient7030" y2="10.119" gradientUnits="userSpaceOnUse" x2="18.966" gradientTransform="matrix(1.8341 0 0 1.9527 2.8808 .51605)" y1="10.119" x1="3.0193">
   <stop id="stop4177" style="stop-color:#fff6b8" offset="0"/>
   <stop id="stop4179" style="stop-color:#ffef81" offset="1"/>
  </linearGradient>
  <radialGradient id="radialGradient9206" gradientUnits="userSpaceOnUse" cy="11.902" cx="18.628" r=".75130">
   <stop id="stop9202" style="stop-color:#ffe84a" offset="0"/>
   <stop id="stop9204" style="stop-color:#ffe84a;stop-opacity:0" offset="1"/>
  </radialGradient>
  <linearGradient id="linearGradient9214" y2="14.142" gradientUnits="userSpaceOnUse" x2="22" y1="4.8" x1="22">
   <stop id="stop9210" style="stop-color:#ffe000" offset="0"/>
   <stop id="stop9212" style="stop-color:#ffe000;stop-opacity:0" offset="1"/>
  </linearGradient>
  <linearGradient id="linearGradient9240" y2="27.292" gradientUnits="userSpaceOnUse" x2="20.4" y1="38.667" x1="20.4">
   <stop id="stop9236" style="stop-color:#f57900" offset="0"/>
   <stop id="stop9238" style="stop-color:#f57900;stop-opacity:0" offset="1"/>
  </linearGradient>
  <radialGradient id="radialGradient10116" gradientUnits="userSpaceOnUse" cy="24.438" cx="14.98" r="10.155">
   <stop id="stop6841" style="stop-opacity:.40171" offset="0"/>
   <stop id="stop6843" style="stop-opacity:0" offset="1"/>
  </radialGradient>
  <linearGradient id="linearGradient4188" y2="2.4295" gradientUnits="userSpaceOnUse" x2="6.4636" y1="13.196" x1="6.4636">
   <stop id="stop4184" style="stop-color:#c03b00" offset="0"/>
   <stop id="stop4186" style="stop-color:#e74700" offset="1"/>
  </linearGradient>
 </defs>
 <sodipodi:namedview id="base" bordercolor="#666666" showborder="false" pagecolor="#ffffff" borderopacity="1.0" showgrid="false" fill="#fce94f"/>
 <path id="path5964" sodipodi:rx="10.15484" sodipodi:ry="10.15484" style="fill:url(#radialGradient10116)" sodipodi:type="arc" d="m25.135 24.438a10.155 10.155 0 1 1 0 -0.033" sodipodi:open="true" transform="matrix(2.068 0 0 .60881 -6.9787 24.953)" sodipodi:cy="24.437885" sodipodi:cx="14.980188" sodipodi:end="6.2799944" sodipodi:start="0"/>
 <path id="path7012" sodipodi:rx="7.2169476" sodipodi:ry="7.3399639" style="stroke-linejoin:round;stroke:#ce5c00;stroke-linecap:round;stroke-width:.35503;fill:url(#linearGradient7026)" sodipodi:type="arc" d="m14.434 7.5119a7.2169 7.34 0 1 1 0 -0.0234" sodipodi:open="true" transform="matrix(2.8405 0 0 2.7929 3.5 1.0198)" sodipodi:cy="7.5118856" sodipodi:cx="7.2169476" sodipodi:end="6.2799944" sodipodi:start="0"/>
 <path id="path7014" sodipodi:rx="7.2169476" sodipodi:ry="7.3399639" style="stroke-linejoin:round;stroke:url(#linearGradient7028);stroke-linecap:round;stroke-width:.37376;fill:none" sodipodi:type="arc" d="m14.434 7.5119a7.2169 7.34 0 1 1 0 -0.0234" sodipodi:open="true" transform="matrix(2.6978 0 0 2.6534 4.5475 2.0795)" sodipodi:cy="7.5118856" sodipodi:cx="7.2169476" sodipodi:end="6.2799944" sodipodi:start="0"/>
 <path id="path7016" sodipodi:nodetypes="cccc" style="fill:url(#linearGradient9214);fill-rule:evenodd" d="m8.1903 20.708c-0.0199-14.404 17.926-14.151 24.354-8.263 1.994 2.25 6.458 0.6 3.925-2.279-10.334-11.528-29.573-2.8463-28.279 10.542z"/>
 <path id="path7018" sodipodi:nodetypes="cccc" style="fill:url(#linearGradient9240);fill-rule:evenodd" d="m39.504 27.299c-4.704 15.029-21.195 9.291-25.789 2.033-1.31-2.66-6.0736-2.156-4.4164 1.243 6.8204 13.659 27.784 9.973 30.205-3.276z"/>
 <g id="g9460" style="fill:url(#linearGradient4188)" transform="matrix(2.8176 0 0 2.8176 5.5367 -.48529)">
  <path id="path7707" sodipodi:nodetypes="ccczccz" style="fill:url(#linearGradient4188);fill-rule:evenodd" d="m9.4517 8.5574c-1.3611 5.5946-3.6563 4.4686-3.6563 4.4686-0.3754-0.308-0.2381-2.204 0.125-2.687 0.4829 0.021 0.8873 0.277 1.6563-2.0941 0.7598-2.3428 0.216-2.6671-0.3125-2.9375-0.0309-0.9892 0.7088-2.1141 1.25-2.375 0 0 2.2918 0.0594 0.9375 5.625z"/>
  <path id="path8582" sodipodi:nodetypes="cczc" style="fill:url(#linearGradient4188);fill-rule:evenodd" d="m7.6135 2.56c-0.5879 0.6629-0.964 1.5265-1.2188 2.4375 0 0-1.0251-0.7268-0.4825-1.8427 0.5547-1.1406 1.7013-0.5948 1.7013-0.5948z"/>
  <path id="path9458" sodipodi:nodetypes="cczc" style="fill:url(#linearGradient4188);fill-rule:evenodd" d="m5.1155 10.158c-0.4218 0.791-0.4774 1.698-0.1667 2.72 0 0-1.0804 0.097-1.1417-1.451-0.0613-1.5469 1.3084-1.269 1.3084-1.269z"/>
 </g>
 <path id="path7020" sodipodi:nodetypes="czzzzzzzzzzzzz" style="stroke-linejoin:round;stroke:url(#linearGradient7030);stroke-linecap:round;fill:none" d="m9.0604 23.857c0.3939-1.694 0.3741-7.351 1.5756-6.778 1.202 0.574 2.095 8.328 3.231 9.072 1.135 0.744 0.572-4.318 1.31-6.097 0.739-1.778 0.707 0.338 1.643-1.017 0.935-1.356 1.064-6.081 2.099-4.405 1.034 1.676 0.914 9.014 2.038 11.109s1.298-2.65 2.459-2.729 1.514 2.988 2.185 2.415c0.671-0.574 0.068-2.277 0.499-4.709 0.432-2.431 0.052-6.173 1.227-5.017s2.094 8.175 3.472 9.641c1.379 1.466 0.486-3.377 2.042-3.779 1.556-0.401 3.137 1.63 4.182 2.173"/>
 <path id="path7022" sodipodi:nodetypes="cccccccccccccccccccccccccccccc" style="fill:#ffea53;fill-rule:evenodd" d="m37.355 22.429l-1.476-6.496 1.12 6.616-1.755-4.712 1.396 4.887-4.668-3.276 4.242 3.665-6.363 0.562 6.147-0.16-3.723 1.425 3.819-0.959-3.932 2.26 4.104-1.656 0.567 0.367-1.193 4.572 1.827-4.642 1.394 4.441-0.825-4.378 2.428 2.438-1.976-3.009 3.882 0.847-3.723-1.435 3.323-2.459-3.362 2.113 4.284-5.759-4.527 5.258 1.701-3.389-2.173 3.004 0.143-3.067-0.681 2.942z"/>
 <path id="path8325" sodipodi:rx="0.75130093" sodipodi:ry="0.75130093" style="fill:url(#radialGradient9206)" sodipodi:type="arc" d="m19.379 11.902a0.7513 0.7513 0 1 1 0 -0.003" sodipodi:open="true" transform="matrix(4.9222 0 0 4.9234 -54.37 -34.851)" sodipodi:cy="11.901631" sodipodi:cx="18.627844" sodipodi:end="6.2799944" sodipodi:start="0"/>
 <path id="path7024" sodipodi:rx="0.75130093" sodipodi:ry="0.75130093" style="fill:#fcf5c7" sodipodi:type="arc" d="m19.379 11.902a0.7513 0.7513 0 1 1 0 -0.003" sodipodi:open="true" transform="matrix(1.9523 0 0 1.9527 .95358 .50457)" sodipodi:cy="11.901631" sodipodi:cx="18.627844" sodipodi:end="6.2799944" sodipodi:start="0"/>
</svg>
