<?xml version="1.0" encoding="UTF-8" standalone="no"?>
<!-- Created with Inkscape (http://www.inkscape.org/) -->
<svg id="svg2" xmlns:rdf="http://www.w3.org/1999/02/22-rdf-syntax-ns#" xmlns="http://www.w3.org/2000/svg" sodipodi:docname="gizmo.svg" xmlns:sodipodi="http://inkscape.sourceforge.net/DTD/sodipodi-0.dtd" sodipodi:version="0.32" height="48" width="48" version="1.0" xmlns:cc="http://web.resource.org/cc/" xmlns:xlink="http://www.w3.org/1999/xlink" sodipodi:docbase="/home/vinicius/tango-icon-theme-code/protocols/scalable" xmlns:dc="http://purl.org/dc/elements/1.1/">
 <metadata id="metadata7">
  <rdf:RDF>
   <cc:Work rdf:about="">
    <dc:format>image/svg+xml</dc:format>
    <dc:type rdf:resource="http://purl.org/dc/dcmitype/StillImage"/>
    <dc:title>Gizmo Icon</dc:title>
    <dc:date>2006-12-03</dc:date>
    <dc:creator>
     <cc:Agent>
      <dc:title>Vinicius Scopel Depizzol</dc:title>
     </cc:Agent>
    </dc:creator>
    <dc:source>vdepizzol@gmail.com</dc:source>
    <dc:subject>
     <rdf:Bag>
      <rdf:li>Gizmo</rdf:li>
      <rdf:li>VOIP</rdf:li>
      <rdf:li>Protocol</rdf:li>
     </rdf:Bag>
    </dc:subject>
    <cc:license rdf:resource="http://creativecommons.org/licenses/GPL/2.0/"/>
   </cc:Work>
   <cc:License rdf:about="http://creativecommons.org/licenses/GPL/2.0/">
    <cc:permits rdf:resource="http://web.resource.org/cc/Reproduction"/>
    <cc:permits rdf:resource="http://web.resource.org/cc/Distribution"/>
    <cc:requires rdf:resource="http://web.resource.org/cc/Notice"/>
    <cc:permits rdf:resource="http://web.resource.org/cc/DerivativeWorks"/>
    <cc:requires rdf:resource="http://web.resource.org/cc/ShareAlike"/>
    <cc:requires rdf:resource="http://web.resource.org/cc/SourceCode"/>
   </cc:License>
  </rdf:RDF>
 </metadata>
 <defs id="defs5">
  <radialGradient id="radialGradient6845" gradientUnits="userSpaceOnUse" cy="24.438" cx="14.98" r="10.155">
   <stop id="stop6841" style="stop-opacity:.44444" offset="0"/>
   <stop id="stop6843" style="stop-opacity:0" offset="1"/>
  </radialGradient>
  <linearGradient id="linearGradient7738" y2="4.0312" gradientUnits="userSpaceOnUse" x2="9.9537" gradientTransform="matrix(1.9906 0 0 1.9568 2.1695 .11155)" y1="18.031" x1="12.148">
   <stop id="stop3308" style="stop-color:#2e3436" offset="0"/>
   <stop id="stop3310" style="stop-color:#6a6c67" offset="1"/>
  </linearGradient>
  <linearGradient id="linearGradient7742" y2="5.0683" gradientUnits="userSpaceOnUse" x2="6.7407" gradientTransform="matrix(1.9994 0 0 1.9325 2.134 .27007)" y1="11.25" x1="6.7731">
   <stop id="stop5085" style="stop-color:#fff;stop-opacity:.12821" offset="0"/>
   <stop id="stop5087" style="stop-color:#fff;stop-opacity:0" offset="1"/>
  </linearGradient>
  <linearGradient id="linearGradient3287" y2="14.487" gradientUnits="userSpaceOnUse" x2="13.05" y1="1.6339" x1="2.7308">
   <stop id="stop3283" style="stop-color:#4e9a06" offset="0"/>
   <stop id="stop3285" style="stop-color:#3f7e04" offset="1"/>
  </linearGradient>
  <linearGradient id="linearGradient3295" y2="14.155" gradientUnits="userSpaceOnUse" x2="12.59" y1="1.3149" x1="3.3714">
   <stop id="stop3291" style="stop-color:#a9ea6a" offset="0"/>
   <stop id="stop3293" style="stop-color:#a9ea6a;stop-opacity:0" offset="1"/>
  </linearGradient>
  <linearGradient id="linearGradient3303" y2="14.125" gradientUnits="userSpaceOnUse" x2="12.331" y1="2.4372" x1="2.2913">
   <stop id="stop3299" style="stop-color:#77d916" offset="0"/>
   <stop id="stop3301" style="stop-color:#5eae12" offset="1"/>
  </linearGradient>
 </defs>
 <sodipodi:namedview id="base" bordercolor="#666666" showborder="false" pagecolor="#ffffff" borderopacity="1.0" showgrid="false" fill="#3465a4"/>
 <path id="path5964" sodipodi:rx="10.15484" sodipodi:ry="10.15484" style="fill:url(#radialGradient6845)" sodipodi:type="arc" d="m25.135 24.438a10.155 10.155 0 1 1 0 -0.033" sodipodi:open="true" transform="matrix(2.0512 0 0 .60881 -6.8977 25.473)" sodipodi:cy="24.437885" sodipodi:cx="14.980188" sodipodi:end="6.2799944" sodipodi:start="0"/>
 <path id="path2396" sodipodi:rx="7.6885095" sodipodi:ry="7.7295151" style="stroke-linejoin:round;stroke:url(#linearGradient3287);stroke-linecap:round;stroke-width:0.376;fill:url(#linearGradient3303)" sodipodi:type="arc" d="m15.459 7.8194a7.6885 7.7295 0 1 1 0 -0.0246" sodipodi:open="true" transform="matrix(2.6666 0 0 2.6526 3.2786 1.26)" sodipodi:cy="7.8194256" sodipodi:cx="7.7705202" sodipodi:end="6.2799944" sodipodi:start="0"/>
 <path id="path3283" sodipodi:rx="7.6885095" sodipodi:ry="7.7295151" style="stroke-linejoin:round;stroke:url(#linearGradient3295);stroke-linecap:round;stroke-width:.39538;fill:none" sodipodi:type="arc" d="m15.459 7.8194a7.6885 7.7295 0 1 1 0 -0.0246" sodipodi:open="true" transform="matrix(2.5359 0 0 2.5225 4.2882 2.2757)" sodipodi:cy="7.8194256" sodipodi:cx="7.7705202" sodipodi:end="6.2799944" sodipodi:start="0"/>
 <path id="path7736" style="fill:url(#linearGradient7738)" d="m21.08 8v6.543l-4.79-4.6473-4.23 4.1583 4.728 4.647h-6.656v5.871h6.718l-4.79 4.708 4.23 4.159 4.79-4.709v6.666h5.972v-6.666l4.727 4.709 4.23-4.159-4.789-4.708h6.78v-5.871h-6.718l4.727-4.647-4.23-4.1583-4.727 4.6473v-6.543h-5.972zm2.177 7.827c0.248-0.031 0.552 0 0.809 0 3.279 0 5.899 2.586 5.909 5.81 0 3.23-2.623 5.87-5.909 5.87s-5.972-2.64-5.972-5.87c0-2.978 2.235-5.443 5.163-5.81z"/>
 <path id="path7740" style="fill:url(#linearGradient7742);fill-rule:evenodd" d="m21.129 8.0604v6.4616l-4.811-4.5895-4.249 4.1065 4.749 4.59h-6.686v3.382c2.851-0.082 5.504-0.413 7.998-0.967 0.227-2.723 2.405-4.912 5.186-5.254 0.031-0.004 0.092 0.002 0.125 0 0.216-0.009 0.477 0 0.687 0 1.575 0 3.003 0.613 4.061 1.57 0.014 0.013 0.049-0.012 0.063 0 2.41-1.27 4.632-2.811 6.748-4.408l-3.124-3.0195-4.749 4.5895v-6.4616h-5.998z"/>
</svg>
