<?xml version="1.0" encoding="UTF-8" standalone="no"?>
<!-- Created with Inkscape (http://www.inkscape.org/) -->
<svg id="svg2" xmlns="http://www.w3.org/2000/svg" height="48" width="48" version="1.0" xmlns:xlink="http://www.w3.org/1999/xlink">
 <defs id="defs4">
  <linearGradient id="linearGradient3156">
   <stop id="stop3158" style="stop-color:#fff" offset="0"/>
   <stop id="stop3160" style="stop-color:#fff;stop-opacity:0" offset="1"/>
  </linearGradient>
  <radialGradient id="radialGradient5729" gradientUnits="userSpaceOnUse" cy="4.625" cx="62.625" gradientTransform="matrix(1.9262 0 0 .71948 -97.164 37.028)" r="10.625">
   <stop id="stop8840" offset="0"/>
   <stop id="stop8842" style="stop-opacity:0" offset="1"/>
  </radialGradient>
  <radialGradient id="radialGradient5537" fy="4.7612" xlink:href="#linearGradient3156" gradientUnits="userSpaceOnUse" cy="11.223" cx="22.945" gradientTransform="matrix(1.3571 .010218 -.0063134 .83849 -10.875 2.3058)" r="14"/>
  <radialGradient id="radialGradient5540" xlink:href="#linearGradient3156" gradientUnits="userSpaceOnUse" cy="10.875" cx="22.125" gradientTransform="matrix(1.01 -0.112 .056688 .51121 -5.8376 2.7935)" r="20"/>
  <radialGradient id="radialGradient5551" gradientUnits="userSpaceOnUse" cy="13.915" cx="17.363" gradientTransform="matrix(.31162 1.5136 -1.3927 .28672 27.97 -16.27)" r="22.464">
   <stop id="stop4105" style="stop-color:#70adfb" offset="0"/>
   <stop id="stop4107" style="stop-color:#3465a4" offset="1"/>
  </radialGradient>
  <linearGradient id="linearGradient5553" y2="50" gradientUnits="userSpaceOnUse" x2="29.75" gradientTransform="translate(-5 -5)" y1="29" x1="29.013">
   <stop id="stop6495" style="stop-color:#4580d4" offset="0"/>
   <stop id="stop6497" style="stop-color:#114796" offset="1"/>
  </linearGradient>
  <radialGradient id="radialGradient6332" gradientUnits="userSpaceOnUse" cy="15.24" cx="26" gradientTransform="matrix(2.2555 0 -2.1857e-8 2.0564 -32.642 -16.341)" r="15.075">
   <stop id="stop6328" style="stop-color:#8cdeb3" offset="0"/>
   <stop id="stop6330" style="stop-color:#72f4af" offset="1"/>
  </radialGradient>
  <linearGradient id="linearGradient2913" y2="12.491" gradientUnits="userSpaceOnUse" x2="19.47" gradientTransform="matrix(-1.1083 0 0 -1.0712 42.578 47.38)" y1="40.882" x1="19.054">
   <stop id="stop2792-3" style="stop-color:#f8b17e;stop-opacity:0" offset="0"/>
   <stop id="stop2394-1" style="stop-color:#f8b17e" offset=".16437"/>
   <stop id="stop3724" style="stop-color:#e35d4f" offset=".58388"/>
   <stop id="stop2794-8" style="stop-color:#c6262e" offset="1"/>
  </linearGradient>
  <linearGradient id="linearGradient2915" y2="23.406" gradientUnits="userSpaceOnUse" x2="20.743" gradientTransform="matrix(-1.9109 0 0 1.8469 62.379 -39.626)" y1="38.24" x1="20.608">
   <stop id="stop3722" style="stop-color:#ab262e" offset="0"/>
   <stop id="stop2205-3" style="stop-color:#dd3b27" offset=".78233"/>
   <stop id="stop3078-3" style="stop-color:#dd3b27;stop-opacity:0" offset="1"/>
  </linearGradient>
 </defs>
 <g id="layer1">
  <g id="g6334">
   <path id="path8836" style="opacity:.6;fill-rule:evenodd;fill:url(#radialGradient5729)" d="m43.932 40.356c0 4.221-9.163 7.644-20.466 7.644s-20.466-3.423-20.466-7.644c0-4.2219 9.163-7.6445 20.466-7.6445s20.466 3.4226 20.466 7.6445z"/>
   <path id="path1307" style="stroke-linejoin:round;stroke:url(#linearGradient5553);stroke-linecap:round;stroke-width:.99816;fill:url(#radialGradient5551)" d="m44.501 24c0 11.317-9.1784 20.501-20.487 20.501s-20.487-9.1844-20.487-20.501 9.1784-20.501 20.487-20.501 20.487 9.1844 20.487 20.501z"/>
   <path id="path4023" style="opacity:.5" d="m43.219 20.337-0.187 0.721c-0.553-0.46-1.173-0.846-1.804-1.25l-1.3838 0.1436-1.2642-1.0078v1.2473l1.0831 0.578 0.72093 0.57578 0.96345-0.76841c0.24252 0.32034 0.48172 0.64069 0.72258 0.96103v0.95998l-1.0848 0.86413-1.9852 0.96103-1.5034 1.058-0.96345-0.77074 0.48172-0.86413-0.96196-0.7684-1.6246-2.4489-1.3838-1.1036-0.3622 0.28731 0.54314 1.3932 1.0217 0.81627c0.58353 1.188 1.1608 2.3234 1.9271 3.459 1.1883 0 2.3085-0.08896 3.4886-0.1938v0.67268l-1.4437 2.4974-1.324 1.0557-1.0831 1.6349v2.6882l0.3622 1.058-0.60141 0.47888-1.3257 0.57683-1.3838 0.81627 1.1446 0.91212-1.5649 0.9622 0.30062 0.62248-2.3474 1.8743h-1.5632l-1.324 0.57683h-0.84393v-0.7684l-0.35889-1.5391c-0.46567-0.96453-0.95054-1.9222-1.4437-2.8798 0-0.70688 0.05976-1.4069 0.11969-2.1136l0.60307-0.95998-0.84393-1.1538 0.06142-1.5847-1.1446-0.91212 0.57227-1.3202-0.93117-0.74506h-1.6263l-0.54148-0.43207-1.6246 0.72112-0.66117-0.52955-1.5051 0.91258c-1.0217-0.81685-2.0451-1.6331-3.0683-2.4494l-1.202-2.017 1.0831-1.1514-0.60141-0.47993 1.3223-2.2107c1.0864-0.95309 2.2212-1.8674 3.3691-2.7851l2.0466-0.3842 2.286-0.19158 1.5649 0.28847 2.226 1.5835 0.78251-0.62364 1.0815-0.09573 2.0466 0.47993h1.5649l1.0831-0.67268 0.48172-0.47993-1.0848-0.47993-1.8057-0.09573c-0.50109-0.4902-0.96676-1.0055-1.5617-1.4411l-0.60306 0.19157-0.24086 1.2495-1.0831-0.86413-0.23921-0.9622-1.2028-0.67034h-0.48338l1.2043 0.95998-0.48172 0.86413-0.96196 0.19158 0.60141-0.86413-1.0848-0.38304-0.9603-0.7684-1.8074 0.2873-0.23921 0.38304-1.0831 0.4811-0.60141 1.0569-1.5034 0.5278-0.66282-0.5278h-0.72093v-1.7294l1.5649-0.57683h1.2028l-0.24252-0.67151-0.9603-0.67268 1.6231-0.24061 0.90203-0.71937 0.72093-0.8653h1.3257l-0.36221-0.67151 0.84393-0.3842v0.7684l1.8041 0.2873 1.8041-1.0557 0.12117-0.4811 1.5632-0.76782c-0.56582 0.049618-1.1316 0.08604-1.6845 0.19216v-0.86518l0.60141-0.96057h-0.60141l-1.3217 0.86413-0.36221 0.48052 0.36221 0.67326-0.60307 1.1514-0.96196-0.3842-0.84062-0.67151-1.3257 0.67151-0.48172-1.5362 2.286-1.0563v-0.57683l1.4452-0.67209 2.286-0.38479 1.5649 0.38479 2.1663 0.95998h-1.5649l1.5649 1.1526 1.2028-0.95998s4.7862 2.4032 7.2583 5.7266c2.4054 3.2338 3.4122 6.9094 3.5174 7.6733z"/>
   <path id="path6628" style="fill:url(#radialGradient6332)" d="m43.219 19.237-0.187 0.721c-0.553-0.46-1.173-0.846-1.804-1.25l-1.3838 0.1436-1.2642-1.0078v1.2473l1.0831 0.578 0.72093 0.57578 0.96345-0.76841c0.24252 0.32034 0.48172 0.64069 0.72258 0.96103v0.95998l-1.0848 0.86413-1.9852 0.96103-1.5034 1.058-0.96345-0.77074 0.48172-0.86413-0.96196-0.7684-1.6246-2.4489-1.3838-1.1036-0.3622 0.28731 0.54314 1.3932 1.0217 0.81627c0.58353 1.188 1.1608 2.3234 1.9271 3.459 1.1883 0 2.3085-0.08896 3.4886-0.1938v0.67268l-1.4437 2.4974-1.324 1.0557-1.0831 1.6349v2.6882l0.3622 1.058-0.60141 0.47888-1.3257 0.57683-1.3838 0.81627 1.1446 0.91212-1.5649 0.9622 0.30062 0.62248-2.3474 1.8743h-1.5632l-1.324 0.57683h-0.84393v-0.7684l-0.35889-1.5391c-0.46567-0.96453-0.95054-1.9222-1.4437-2.8798 0-0.70688 0.05976-1.4069 0.11969-2.1136l0.60307-0.95998-0.84393-1.1538 0.06142-1.5847-1.1446-0.91212 0.57227-1.3202-0.93117-0.74506h-1.6263l-0.54148-0.43207-1.6246 0.72112-0.66117-0.52955-1.5051 0.91258c-1.0217-0.81685-2.0451-1.6331-3.0683-2.4494l-1.202-2.017 1.0831-1.1514-0.60141-0.47993 1.3223-2.2107c1.0864-0.95309 2.2212-1.8674 3.3691-2.7851l2.0466-0.3842 2.286-0.19158 1.5649 0.28847 2.226 1.5835 0.78251-0.62364 1.0815-0.09573 2.0466 0.47993h1.5649l1.0831-0.67268 0.48172-0.47993-1.0848-0.47993-1.8057-0.09573c-0.50109-0.4902-0.96676-1.0055-1.5617-1.4411l-0.60306 0.19157-0.24086 1.2495-1.0831-0.86413-0.23921-0.9622-1.2028-0.67034h-0.48338l1.2043 0.95998-0.48172 0.86413-0.96196 0.19158 0.60141-0.86413-1.0848-0.38304-0.9603-0.7684-1.8074 0.2873-0.23921 0.38304-1.0831 0.4811-0.60141 1.0569-1.5034 0.5278-0.66282-0.5278h-0.72093v-1.7294l1.5649-0.57683h1.2028l-0.24252-0.67151-0.9603-0.67268 1.6231-0.24061 0.90203-0.71937 0.72093-0.8653h1.3257l-0.36221-0.67151 0.84393-0.3842v0.7684l1.8041 0.28731 1.8041-1.0557 0.12117-0.4811 1.5632-0.76782c-0.56582 0.049618-1.1316 0.08604-1.6845 0.19216v-0.86518l0.60141-0.96057h-0.60141l-1.3217 0.86413-0.36221 0.48052 0.36221 0.67326-0.60307 1.1514-0.96196-0.3842-0.84062-0.67151-1.3257 0.67151-0.48172-1.5362 2.286-1.0563v-0.57683l1.4452-0.67209 2.286-0.38479 1.5649 0.38479 2.1663 0.95998h-1.5649l1.5649 1.1526 1.2028-0.95998s4.7862 2.4032 7.2583 5.7266c2.4054 3.2338 3.4122 6.9094 3.5174 7.6733z"/>
   <path id="path3164" style="opacity:.4;stroke-linejoin:round;stroke:url(#radialGradient5540);stroke-linecap:round;stroke-width:.99647;fill:none" d="m43.502 24c0 10.765-8.7368 19.502-19.502 19.502s-19.502-8.737-19.502-19.502 8.7368-19.502 19.502-19.502 19.502 8.7368 19.502 19.502z"/>
   <path id="path3154" style="opacity:.4;fill:url(#radialGradient5537)" d="m43 17.747c0 7.1141-8.512 11.029-19 11.029s-19-3.915-19-11.029c0-7.1141 8.512-14.747 19-14.747s19 7.6326 19 14.747z"/>
   <path id="path2177" style="stroke:url(#linearGradient2915);stroke-miterlimit:10;display:block;fill:url(#linearGradient2913)" d="m17.159 3.4369c-13.256 3.0152-15.159 15.563-6.159 23.563l-4.6953 4.5h14.195v-14.17s-4.1996 4.6138-4.1996 4.6138c-7.3-5.944-8.0599-12.491-0.341-16.785l1.1998-1.7224z"/>
  </g>
 </g>
</svg>
