<?xml version="1.0" encoding="UTF-8" standalone="no"?>
<!-- Created with Inkscape (http://www.inkscape.org/) -->
<svg id="svg2417" xmlns:rdf="http://www.w3.org/1999/02/22-rdf-syntax-ns#" xmlns="http://www.w3.org/2000/svg" sodipodi:docname="google-talk.svg" xmlns:sodipodi="http://inkscape.sourceforge.net/DTD/sodipodi-0.dtd" sodipodi:version="0.32" height="48" width="48" version="1.0" xmlns:cc="http://web.resource.org/cc/" xmlns:xlink="http://www.w3.org/1999/xlink" sodipodi:docbase="/home/vinicius/tango-icon-theme-code/protocols/scalable" xmlns:dc="http://purl.org/dc/elements/1.1/">
 <metadata id="metadata2422">
  <rdf:RDF>
   <cc:Work rdf:about="">
    <dc:format>image/svg+xml</dc:format>
    <dc:type rdf:resource="http://purl.org/dc/dcmitype/StillImage"/>
    <dc:title>Google Talk Icon</dc:title>
    <dc:date>2006-12-03</dc:date>
    <dc:creator>
     <cc:Agent>
      <dc:title>Vinicius Scopel Depizzol</dc:title>
     </cc:Agent>
    </dc:creator>
    <dc:source>vdepizzol@gmail.com</dc:source>
    <dc:subject>
     <rdf:Bag>
      <rdf:li>Google Talk</rdf:li>
      <rdf:li>GTalk</rdf:li>
      <rdf:li>VOIP</rdf:li>
      <rdf:li>Protocol</rdf:li>
     </rdf:Bag>
    </dc:subject>
    <cc:license rdf:resource="http://creativecommons.org/licenses/GPL/2.0/"/>
   </cc:Work>
   <cc:License rdf:about="http://creativecommons.org/licenses/GPL/2.0/">
    <cc:permits rdf:resource="http://web.resource.org/cc/Reproduction"/>
    <cc:permits rdf:resource="http://web.resource.org/cc/Distribution"/>
    <cc:requires rdf:resource="http://web.resource.org/cc/Notice"/>
    <cc:permits rdf:resource="http://web.resource.org/cc/DerivativeWorks"/>
    <cc:requires rdf:resource="http://web.resource.org/cc/ShareAlike"/>
    <cc:requires rdf:resource="http://web.resource.org/cc/SourceCode"/>
   </cc:License>
  </rdf:RDF>
 </metadata>
 <defs id="defs2420">
  <radialGradient id="radialGradient3305" gradientUnits="userSpaceOnUse" cy="26.723" cx="15.994" gradientTransform="matrix(1 0 0 .29592 -3.7699e-16 18.815)" r="15.913">
   <stop id="stop3301" style="stop-opacity:.11765" offset="0"/>
   <stop id="stop3303" style="stop-opacity:0" offset="1"/>
  </radialGradient>
  <linearGradient id="linearGradient4249" y2="-8" gradientUnits="userSpaceOnUse" x2="55.483" gradientTransform="matrix(2.4654 0 0 2.5139 -105.6 47.111)" y1="-14.406" x1="55.483">
   <stop id="stop3529" style="stop-color:#90ba1f" offset="0"/>
   <stop id="stop3531" style="stop-color:#638205" offset="1"/>
  </linearGradient>
  <linearGradient id="linearGradient4252" y2="-9.9869" gradientUnits="userSpaceOnUse" x2="53.162" gradientTransform="matrix(2.902 0 0 2.5187 -127.71 47.254)" y1="-14.323" x1="53.162">
   <stop id="stop3520" style="stop-color:#e7d000" offset="0"/>
   <stop id="stop3522" style="stop-color:#c4a000" offset="1"/>
  </linearGradient>
  <linearGradient id="linearGradient4255" y2="-8.0529" gradientUnits="userSpaceOnUse" x2="49.455" gradientTransform="matrix(2.4858 0 0 2.4858 -103.05 47.168)" y1="-12.934" x1="49.455">
   <stop id="stop3488" style="stop-color:#ef2929" offset="0"/>
   <stop id="stop3490" style="stop-color:#c00" offset="1"/>
  </linearGradient>
  <linearGradient id="linearGradient4258" y2="-8.1156" gradientUnits="userSpaceOnUse" x2="45.5" gradientTransform="matrix(2.4858 0 0 2.4858 -100.38 47.196)" y1="-14" x1="45.5">
   <stop id="stop3512" style="stop-color:#3465a4" offset="0"/>
   <stop id="stop3514" style="stop-color:#204a87" offset="1"/>
  </linearGradient>
  <linearGradient id="linearGradient4262" y2=".99163" gradientUnits="userSpaceOnUse" x2="8" gradientTransform="matrix(2.9938 0 0 2.9938 .095528 -.96562)" y1="15" x1="8">
   <stop id="stop3288" style="stop-color:#d1d1d1" offset="0"/>
   <stop id="stop3290" style="stop-color:#fff" offset="1"/>
  </linearGradient>
 </defs>
 <sodipodi:namedview id="base" bordercolor="#666666" pagecolor="#ffffff" borderopacity="1" showborder="false" showgrid="false" showguides="true"/>
 <path id="path2424" sodipodi:rx="15.912521" sodipodi:ry="4.7088075" style="fill:url(#radialGradient3305)" sodipodi:type="arc" d="m31.906 26.723a15.913 4.7088 0 1 1 0 -0.015" sodipodi:open="true" transform="matrix(1.459 0 0 1.5385 .74204 -1.8697)" sodipodi:cy="26.722889" sodipodi:cx="15.993708" sodipodi:end="6.2799944" sodipodi:start="0"/>
 <path id="path3264" style="stroke-linejoin:round;stroke:#797979;stroke-linecap:round;fill:url(#linearGradient4262)" d="m21.8 3.525c-11.328 0.8455-20.208 7.927-20.208 16.466 0.0004 6.304 4.7977 11.817 11.882 14.595-0.173 2.528-0.863 5.688-2.9 7.858 5.829-0.181 10.116-3.159 12.91-5.987 0.193 0.003 0.368 0 0.562 0 12.406 0 22.453-7.358 22.453-16.466v-0.094c-0.039-9.089-10.072-16.372-22.453-16.372-0.776 0-1.49-0.0563-2.246 0z"/>
 <path id="path3552" sodipodi:nodetypes="ccccccccccccccccc" style="fill:url(#linearGradient4258);fill-rule:evenodd" d="m14.064 10.993h-3.089v4.015h-1.975v3.002h1.975v6.813c0 3.493 5.438 1.926 5.932 1.123l-0.141-2.203c-0.622 0.621-2.702 1.139-2.702 0.35v-6.083h2.026v-3.002h-2.026v-3.917-0.098z"/>
 <path id="path3554" sodipodi:nodetypes="cscccsscsscccccsss" style="fill:url(#linearGradient4255);fill-rule:evenodd" d="m20.513 15.031c-0.375 0.059-0.857 0.134-1.285 0.288-1.526 0.546-2.556 1.459-2.556 1.459l1.257 2.379c1.464-1.135 4.182-2.561 3.899 1.089-5.693-0.532-7.081 3.103-5.667 5.123 1.451 2.075 4.013 2.273 5.169 0.816 0.184-0.232 0.411-0.507 0.544-0.816 0.142 0.384 0.353 0.704 0.544 0.953 0.156 0.196 0.894 0.831 1.587 0.816 0.801-0.018 1.579-0.556 1.995-1.179-0.355 0.262-1.748-0.309-1.768-1.179v-6.484c-0.09-1.629-1.806-3.565-3.719-3.265zm0.681 8.298c-0.159 0.794-1.797 1.352-2.404 0.997-0.896-0.524 0.44-1.932 1.587-1.949 1.04-0.016 0.956 0.257 0.817 0.952z"/>
 <path id="path3558" style="fill:url(#linearGradient4252);fill-rule:evenodd" d="m29 11h-2.902v16.105h2.902v-16.105z"/>
 <path id="path3560" sodipodi:nodetypes="ccccccccccccc" style="fill:url(#linearGradient4249);fill-rule:evenodd" d="m30 10.895v8.956 7.149h2.964v-4.076l3.598 4.14 2.144-1.871-4.029-4.478 4.029-4.478-1.952-1.999-3.786 3.949-0.004-7.292h-2.964z"/>
 <path id="path6054" sodipodi:nodetypes="csscccccsccssccsccscscccsscs" style="fill:#fff" d="m21.844 4.0312c-5.571 0.4158-10.549 2.3488-14.094 5.2188-3.5452 2.87-5.6562 6.654-5.6562 10.75 0 6.051 4.616 11.401 11.562 14.125 0.234 0.123 0.311 0.306 0.313 0.5-0.154 2.242-0.735 4.962-2.281 7.156 5.068-0.507 8.892-3.112 11.437-5.687 0.199-0.166 0.706-0.125 0.906-0.125 6.104 0 11.629-1.813 15.594-4.719s6.375-6.88 6.375-11.25v-0.094c-0.019-4.361-2.443-8.302-6.406-11.187-3.963-2.8858-9.47-4.6878-15.563-4.6878-0.649 0-1.349-0.049-2.187 0zm2.187 1c5.897 0 11.233 1.7259 15 4.4688 3.767 2.743 5.952 6.412 5.969 10.406v0.094c0 4.002-2.2 7.675-5.969 10.438-3.769 2.762-9.093 4.531-15 4.531-0.951-0.022-1.335 0.148-1.625 0.437-2.089 2.115-5.019 4.188-8.812 5.063 0.876-1.949 1.255-4.026 1.375-5.781 0.042-0.784-0.254-1.081-0.938-1.5-6.6703-2.616-10.937-7.645-10.937-13.188-0.0002-3.749 1.9485-7.246 5.3122-9.969 3.3638-2.7228 8.1168-4.598 13.5-4.9998 0.761-0.0575 1.436 0 2.125 0z"/>
</svg>
