<?xml version="1.0" encoding="UTF-8" standalone="no"?>
<!-- Created with Inkscape (http://www.inkscape.org/) -->
<svg id="svg11300" xmlns:rdf="http://www.w3.org/1999/02/22-rdf-syntax-ns#" xmlns="http://www.w3.org/2000/svg" height="48px" width="48px" xmlns:cc="http://web.resource.org/cc/" xmlns:xlink="http://www.w3.org/1999/xlink" xmlns:dc="http://purl.org/dc/elements/1.1/">
 <defs id="defs3">
  <radialGradient id="radialGradient4882" gradientUnits="userSpaceOnUse" cy="39.5" cx="24.25" gradientTransform="matrix(1 0 0 .34177 0 26)" r="19.75">
   <stop id="stop4878" offset="0"/>
   <stop id="stop4880" style="stop-opacity:0" offset="1"/>
  </radialGradient>
 </defs>
 <metadata id="metadata4">
  <rdf:RDF>
   <cc:Work rdf:about="">
    <dc:format>image/svg+xml</dc:format>
    <dc:type rdf:resource="http://purl.org/dc/dcmitype/StillImage"/>
    <dc:creator>
     <cc:Agent>
      <dc:title>Jakub Steiner</dc:title>
     </cc:Agent>
    </dc:creator>
    <dc:source>http://jimmac.musichall.cz</dc:source>
    <cc:license rdf:resource="http://creativecommons.org/licenses/GPL/2.0/"/>
    <dc:title>IM - ICQ</dc:title>
   </cc:Work>
   <cc:License rdf:about="http://creativecommons.org/licenses/GPL/2.0/">
    <cc:permits rdf:resource="http://web.resource.org/cc/Reproduction"/>
    <cc:permits rdf:resource="http://web.resource.org/cc/Distribution"/>
    <cc:requires rdf:resource="http://web.resource.org/cc/Notice"/>
    <cc:permits rdf:resource="http://web.resource.org/cc/DerivativeWorks"/>
    <cc:requires rdf:resource="http://web.resource.org/cc/ShareAlike"/>
    <cc:requires rdf:resource="http://web.resource.org/cc/SourceCode"/>
   </cc:License>
  </rdf:RDF>
 </metadata>
 <g id="layer1">
  <path id="path4856" style="stroke-linejoin:round;fill-rule:evenodd;color:#000000;stroke:#fcaf3e;stroke-linecap:round;fill:#edd400" d="m22.405 25.633l-14.884 3.461c-2.7665 0.124-5.094-2.003-5.2183-4.77s2.0031-5.094 4.7699-5.219l15.134 2.112c1.223-0.055 2.252 0.886 2.307 2.109s-0.886 2.252-2.109 2.307z"/>
  <path id="path4854" style="stroke-linejoin:round;fill-rule:evenodd;color:#000000;stroke:#fcaf3e;stroke-linecap:round;fill:#edd400" d="m24.467 20.28l4.219-14.687c1.238-2.4773 4.229-3.4755 6.707-2.2377 2.477 1.2377 3.476 4.2288 2.238 6.7067l-9.21 12.194c-0.547 1.095-1.869 1.536-2.965 0.989-1.095-0.547-1.536-1.87-0.989-2.965z"/>
  <path id="path4858" style="stroke-linejoin:round;fill-rule:evenodd;color:#000000;stroke:#fcaf3e;stroke-linecap:round;fill:#edd400" d="m19.519 23.348l-11.183-4.151c-1.8555-1.11-2.4559-3.497-1.3462-5.353 1.1097-1.855 3.4972-2.456 5.3522-1.346l8.948 7.888c0.82 0.491 1.086 1.546 0.595 2.367-0.491 0.82-1.546 1.085-2.366 0.595z"/>
  <path id="path4860" style="stroke-linejoin:round;fill-rule:evenodd;color:#000000;stroke:#fcaf3e;stroke-linecap:round;fill:#edd400" d="m21.392 22.256l-9.747-11.768c-1.348-2.4197-0.485-5.4526 1.935-6.8003 2.419-1.3477 5.452-0.4848 6.8 1.9348l4.874 14.482c0.596 1.071 0.214 2.412-0.855 3.008-1.07 0.595-2.411 0.214-3.007-0.856z"/>
  <path id="rect4849" style="stroke-linejoin:round;fill-rule:evenodd;color:#000000;stroke:#fcaf3e;stroke-linecap:round;fill:#edd400" d="m26.16 21.539l15.024-2.79c2.77 0 5 2.23 5 5 0 2.769-2.23 4.999-5 4.999l-15.024-2.789c-1.224 0-2.21-0.986-2.21-2.21 0-1.225 0.986-2.21 2.21-2.21z"/>
  <path id="path4852" style="stroke-linejoin:round;fill-rule:evenodd;color:#000000;stroke:#fcaf3e;stroke-linecap:round;fill:#edd400" d="m27.368 19.621l9.068-7.75c1.873-1.081 4.25-0.444 5.331 1.428 1.081 1.873 0.444 4.25-1.428 5.331l-11.246 3.979c-0.827 0.478-1.879 0.196-2.356-0.632-0.478-0.827-0.197-1.878 0.631-2.356z"/>
  <path id="path4862" style="stroke-linejoin:round;fill-rule:evenodd;color:#000000;stroke:#fcaf3e;stroke-linecap:round;fill:#edd400" d="m23.527 20.093l-2.517-11.659c-0.063-2.1615 1.626-3.9519 3.787-4.0148s3.952 1.6262 4.015 3.7873l-1.835 11.786c0.027 0.956-0.719 1.748-1.675 1.776-0.955 0.028-1.747-0.719-1.775-1.675z"/>
  <path id="path4874" style="opacity:.53846;color:#000000;fill-rule:evenodd;fill:url(#radialGradient4882)" d="m44 39.5a19.75 6.75 0 1 1 -39.5 0 19.75 6.75 0 1 1 39.5 0z" transform="matrix(1,0,0,1.5,0,-23.125)"/>
  <path id="path4864" style="stroke-linejoin:round;fill-rule:evenodd;color:#000000;stroke:#fcaf3e;stroke-linecap:round;fill:#edd400" d="m25.462 26.081l-3.994 14.75c-1.199 2.496-4.175 3.54-6.671 2.34-2.496-1.199-3.54-4.175-2.341-6.671l9.022-12.334c0.53-1.103 1.846-1.565 2.949-1.034 1.104 0.53 1.565 1.845 1.035 2.949z"/>
  <path id="path4868" style="stroke-linejoin:round;fill-rule:evenodd;color:#000000;stroke:#fcaf3e;stroke-linecap:round;fill:#edd400" d="m22.083 27.542l-8.949 7.888c-1.855 1.11-4.2422 0.509-5.3518-1.347-1.1095-1.855-0.509-4.242 1.3466-5.352l11.183-4.15c0.82-0.491 1.876-0.225 2.366 0.595 0.491 0.821 0.225 1.876-0.595 2.366z"/>
  <path id="path4870" style="stroke-linejoin:round;fill-rule:evenodd;color:#000000;stroke:#fcaf3e;stroke-linecap:round;fill:#edd400" d="m28.506 24.058l9.927 11.618c1.384 2.398 0.568 5.444-1.831 6.829-2.398 1.384-5.444 0.568-6.829-1.831l-5.095-14.406c-0.612-1.06-0.252-2.407 0.809-3.019 1.06-0.612 2.407-0.251 3.019 0.809z"/>
  <path id="path4872" style="stroke-linejoin:round;fill-rule:evenodd;color:#000000;stroke:#fcaf3e;stroke-linecap:round;fill:#edd400" d="m26.404 26.253l2.696 11.62c0.096 2.16-1.565 3.976-3.725 4.072s-3.976-1.565-4.072-3.725l1.654-11.813c-0.042-0.955 0.692-1.758 1.647-1.801 0.955-0.042 1.758 0.692 1.8 1.647z"/>
  <path id="path4866" style="stroke-linejoin:round;fill-rule:evenodd;color:#000000;stroke:#fcaf3e;stroke-linecap:round;fill:#edd400" d="m29.613 23.188l11.245 3.979c1.872 1.081 2.509 3.459 1.428 5.331s-3.459 2.509-5.331 1.428l-9.068-7.75c-0.828-0.478-1.109-1.529-0.631-2.357s1.529-1.109 2.357-0.631z"/>
  <path id="path4838" style="stroke-linejoin:round;fill-rule:evenodd;color:#000000;stroke:#fcaf3e;stroke-linecap:round;stroke-width:1.5418;fill:#edd400" d="m33.411 23.251a8.6621 8.6621 0 1 1 -17.324 0 8.6621 8.6621 0 1 1 17.324 0z" transform="matrix(.64860 0 0 .64860 8.8256 8.1687)"/>
  <path id="path4884" style="opacity:.36264;stroke-linejoin:round;color:#000000;stroke:#fff;stroke-linecap:round;stroke-width:1.8879;fill:none" d="m33.411 23.251a8.6621 8.6621 0 1 1 -17.324 0 8.6621 8.6621 0 1 1 17.324 0z" transform="matrix(.52970 0 0 .52970 11.768 10.933)"/>
 </g>
</svg>
