<?xml version="1.0" encoding="UTF-8" standalone="no"?>
<!-- Created with Inkscape (http://www.inkscape.org/) -->
<svg id="svg2" xmlns:rdf="http://www.w3.org/1999/02/22-rdf-syntax-ns#" xmlns="http://www.w3.org/2000/svg" height="48" width="48" version="1.0" xmlns:cc="http://web.resource.org/cc/" xmlns:xlink="http://www.w3.org/1999/xlink" xmlns:dc="http://purl.org/dc/elements/1.1/">
 <defs id="defs3">
  <linearGradient id="linearGradient4732" y2="20.11" gradientUnits="userSpaceOnUse" x2="13.393" gradientTransform="matrix(2.8668 0 0 2.8602 1.0644 .069881)" y1="7.0268" x1="3.7946">
   <stop id="stop4728" style="stop-color:#729fcf" offset="0"/>
   <stop id="stop4730" style="stop-color:#3465a4" offset="1"/>
  </linearGradient>
  <radialGradient id="radialGradient5708" gradientUnits="userSpaceOnUse" cy="29.768" cx="15.625" gradientTransform="matrix(1 0 0 .070968 0 27.655)" r="13.839">
   <stop id="stop5704" offset="0"/>
   <stop id="stop5706" style="stop-opacity:0" offset="1"/>
  </radialGradient>
 </defs>
 <metadata id="metadata6">
  <rdf:RDF>
   <cc:Work rdf:about="">
    <dc:format>image/svg+xml</dc:format>
    <dc:type rdf:resource="http://purl.org/dc/dcmitype/StillImage"/>
   </cc:Work>
  </rdf:RDF>
 </metadata>
 <g id="layer1">
  <path id="path4731" style="opacity:.15284;color:#000000;fill:url(#radialGradient5708)" d="m29.464 29.768a13.839 0.98214 0 1 1 -27.678 0 13.839 0.98214 0 1 1 27.678 0z" transform="matrix(1.5927 0 0 2.1126 -.92876 -17.814)"/>
  <path id="rect4737" style="color:#000000;stroke:#204a87;fill:url(#linearGradient4732)" d="m11.71 1.5l-0.375 6.0102h-6.7688l-0.9967 8.9968h7.2035l-1.0741 13.999h-6.2521l-0.8558 8h6.5869l-0.4682 5.984h9.2243l0.469-5.984h7.699l-0.468 5.994h10.864l0.468-5.994h5.626l0.904-8h-6.009l1.074-13.999h5.975l0.964-8.9968h-6.377l0.375-6.0102h-10.863l-0.375 6.0102h-7.7l0.375-6.0102h-9.225zm8.287 15.007h7.7l-1.074 13.999h-7.699l1.073-13.999z"/>
  <path id="rect5703" style="opacity:.26201;color:#000000;stroke:#fff;fill:none" d="m12.662 2.5181l-0.372 6.0059-6.825-0.0084-0.7656 6.9794h7.1596l-1.222 16.009h-6.3248l-0.5993 5.995h6.5371l-0.4387 5.983h7.2117l0.469-5.985h9.708l-0.462 6.009h8.826l0.462-6.003h5.674l0.664-5.985h-5.957l1.198-16.03h6.06l0.713-6.9738h-6.343l0.412-6.0123-8.831 0.0349-0.429 5.9599-9.721 0.0175 0.365-6.0065-7.169 0.0104zm6.416 12.97h9.713l-1.231 16.03h-9.719l1.237-16.03z"/>
 </g>
</svg>
