<?xml version="1.0" encoding="UTF-8" standalone="no"?>
<!-- Created with Inkscape (http://www.inkscape.org/) -->
<svg id="svg2" xmlns:rdf="http://www.w3.org/1999/02/22-rdf-syntax-ns#" xmlns="http://www.w3.org/2000/svg" height="48" width="48" version="1.0" xmlns:cc="http://web.resource.org/cc/" xmlns:xlink="http://www.w3.org/1999/xlink" xmlns:dc="http://purl.org/dc/elements/1.1/">
 <defs id="defs4">
  <linearGradient id="linearGradient6305">
   <stop id="stop6307" style="stop-color:#c00;stop-opacity:0" offset="0"/>
   <stop id="stop6309" style="stop-color:#c00;stop-opacity:.61176" offset="1"/>
  </linearGradient>
  <linearGradient id="linearGradient1311">
   <stop id="stop1313" style="stop-color:#fff" offset="0"/>
   <stop id="stop1315" style="stop-color:#fff;stop-opacity:0" offset="1"/>
  </linearGradient>
  <filter id="filter6184" height="1.2037" width="1.0603" y="-.10186" x="-.030158">
   <feGaussianBlur id="feGaussianBlur6186" stdDeviation="0.17398519"/>
  </filter>
  <linearGradient id="linearGradient6251" y2="394.75" xlink:href="#linearGradient6305" gradientUnits="userSpaceOnUse" x2="279.77" gradientTransform="matrix(1.262 0 0 .74139 -43.834 110.1)" y1="394.75" x1="274.33"/>
  <linearGradient id="linearGradient6255" y2="391.74" xlink:href="#linearGradient1311" gradientUnits="userSpaceOnUse" x2="273.51" gradientTransform="matrix(-1.1623 0 0 .98432 618.13 16.198)" y1="391.68" x1="278.51"/>
  <linearGradient id="linearGradient6258" y2="397.58" xlink:href="#linearGradient6305" gradientUnits="userSpaceOnUse" x2="278.89" gradientTransform="matrix(1.262 0 0 .74139 -42.834 108.1)" y1="397.58" x1="273.45"/>
  <linearGradient id="linearGradient6261" y2="391.74" xlink:href="#linearGradient1311" gradientUnits="userSpaceOnUse" x2="273.51" gradientTransform="matrix(-1.1623 0 0 .98432 618.13 14.198)" y1="391.68" x1="278.51"/>
  <linearGradient id="linearGradient6264" y2="391.74" xlink:href="#linearGradient1311" gradientUnits="userSpaceOnUse" x2="273.51" gradientTransform="matrix(-1.1623 0 0 .98432 618.13 14.167)" y1="391.68" x1="278.51"/>
  <linearGradient id="linearGradient6267" y2="391.74" xlink:href="#linearGradient1311" gradientUnits="userSpaceOnUse" x2="273.51" gradientTransform="matrix(-1.1623 0 0 .98432 618.13 14.136)" y1="391.68" x1="278.51"/>
  <linearGradient id="linearGradient6270" y2="397.21" xlink:href="#linearGradient6305" gradientUnits="userSpaceOnUse" x2="278.89" gradientTransform="matrix(1.262 0 0 .74139 -42.834 108.47)" y1="397.21" x1="273.45"/>
  <linearGradient id="linearGradient6273" y2="397.18" xlink:href="#linearGradient6305" gradientUnits="userSpaceOnUse" x2="278.89" gradientTransform="matrix(1.262 0 0 .74139 -42.834 108.59)" y1="397.18" x1="273.45"/>
  <linearGradient id="linearGradient6276" y2="396.87" xlink:href="#linearGradient6305" gradientUnits="userSpaceOnUse" x2="278.89" gradientTransform="matrix(1.262 0 0 .74139 -42.834 108.92)" y1="396.87" x1="273.45"/>
  <linearGradient id="linearGradient6280" y2="29.141" xlink:href="#linearGradient1311" gradientUnits="userSpaceOnUse" x2="28.032" gradientTransform="matrix(1.4173 0 0 1.5769 263.84 361.9)" y1="3.8257" x1="28.032"/>
  <linearGradient id="linearGradient6283" y2="368.26" gradientUnits="userSpaceOnUse" x2="256.32" gradientTransform="matrix(2.1641 0 0 2.1332 -262.7 -392.68)" y1="363.74" x1="262.54">
   <stop id="stop6341" style="stop-color:#c00" offset="0"/>
   <stop id="stop6343" style="stop-color:#c00;stop-opacity:0" offset="1"/>
  </linearGradient>
  <linearGradient id="linearGradient6288" y2="25.5" xlink:href="#linearGradient1311" gradientUnits="userSpaceOnUse" x2="27.943" y1="1.5" x1="27.943"/>
  <radialGradient id="radialGradient6290" gradientUnits="userSpaceOnUse" cy="29.03" cx="13.992" gradientTransform="matrix(1 0 0 .29607 0 20.435)" r="6.9228">
   <stop id="stop6158" offset="0"/>
   <stop id="stop6160" style="stop-opacity:0" offset="1"/>
  </radialGradient>
  <linearGradient id="linearGradient6294" y2="391.74" xlink:href="#linearGradient1311" gradientUnits="userSpaceOnUse" x2="273.51" gradientTransform="matrix(-1.1623 0 0 .98432 619.13 18.198)" y1="391.68" x1="278.51"/>
 </defs>
 <metadata id="metadata7">
  <rdf:RDF>
   <cc:Work rdf:about="">
    <dc:format>image/svg+xml</dc:format>
    <dc:type rdf:resource="http://purl.org/dc/dcmitype/StillImage"/>
   </cc:Work>
  </rdf:RDF>
 </metadata>
 <g id="layer5" transform="translate(-278.5 -366.74)">
  <path id="path5161" style="opacity:.2;filter:url(#filter6184);fill:url(#radialGradient6290)" d="m20.915 29.03a6.9228 2.0497 0 1 1 -13.846 0 6.9228 2.0497 0 1 1 13.846 0z" transform="matrix(1.3 0 0 1.4637 283.31 369.25)"/>
  <path id="path5592" style="fill-rule:evenodd;stroke:#2f312e;stroke-width:1px;fill:#555753" d="m296.12 408.32c0.89-0.48 9.87-0.48 10.76 0 0.9 0.49-3.59 2.92-5.38 2.92s-6.28-2.43-5.38-2.92z"/>
  <path id="path5590" style="stroke-linejoin:round;stroke:#c4a000;stroke-linecap:round;fill:#edd400" d="m294.55 397.18c-0.96 0.42-1.55 0.92-1.55 1.47 0 0.37 1.46 0.7 1.92 1.02-0.46 0.32-1.92 0.68-1.92 1.05 0 0.38 1.46 0.7 1.92 1.02-0.46 0.32-1.92 0.69-1.92 1.06s1.46 0.73 1.92 1.05c-0.46 0.32-1.92 0.65-1.92 1.02 0 0.51 1.7 1.01 2.53 1.41-0.16 0.21-1.21 0.23-1.21 0.46 0 1.44 3.07 2.14 7.18 2.14 4.1 0 7.29-0.7 7.29-2.14 0-0.23-1.06-0.25-1.22-0.46 0.82-0.4 2.43-0.9 2.43-1.41 0-0.37-1.4-0.7-1.86-1.02 0.46-0.32 1.86-0.68 1.86-1.05s-1.4-0.74-1.86-1.06c0.46-0.32 1.86-0.64 1.86-1.02 0-0.37-1.4-0.73-1.86-1.05 0.46-0.32 1.86-0.65 1.86-1.02 0-0.54-0.57-1.06-1.51-1.47-1.8 0.99-4.45 1.31-6.9 1.38-2.43 0.06-4.67-0.22-7.04-1.38z"/>
  <path id="path4659" style="stroke-linejoin:round;stroke:url(#linearGradient6283);stroke-linecap:round;fill:none" d="m315.99 380.19c0 7.48-5.56 11.19-8.39 16.75-0.96 1.88-3.91 2.3-6.16 2.3-2.26 0-5.1-0.41-6.05-2.3-2.81-5.54-8.39-8.53-8.39-16.75s6.82-12.94 14.5-12.94c7.66 0 14.49 5.46 14.49 12.94z"/>
  <path id="path5564" style="stroke-linejoin:round;stroke:url(#linearGradient6280);stroke-linecap:round;fill:none" d="m288.07 381.2c0.24 6.89 7.35 11.21 8.71 16.03 3.15 1.45 6.36 1.29 9.4-0.14 3.29-6.13 8.12-9.99 8.8-16.03 0.44-7.95-7.05-12.82-13.04-12.82-8.37 0-14.69 5.45-13.87 12.96z"/>
  <path id="path5556" style="fill:url(#linearGradient6288)" d="m38 13.5a11.5 11.5 0 1 1 -23 0 11.5 11.5 0 1 1 23 0z" transform="matrix(.78261 0 0 .39130 280.76 368.96)"/>
  <path id="path6619" style="stroke:url(#linearGradient6276);stroke-linecap:round;stroke-width:1px;fill:none" d="m302.95 398.98c3.79 0 5.05-0.74 5.05-0.74"/>
  <path id="path6621" style="stroke-width:1px;color:#000000;stroke:url(#linearGradient6273);stroke-linecap:round;fill:none" d="m303.43 400.88c3.43 0 4.57-0.64 4.57-0.64"/>
  <path id="path6623" style="stroke-width:1px;color:#000000;stroke:url(#linearGradient6270);stroke-linecap:round;fill:none" d="m303.43 402.98c3.43 0 4.57-0.74 4.57-0.74"/>
  <path id="path6652" style="opacity:.80349;stroke:url(#linearGradient6267);stroke-linecap:round;stroke-width:1px;fill:none" d="m299.65 399.24c-3.49 0-4.65-0.98-4.65-0.98"/>
  <path id="path6654" style="opacity:.80349;stroke:url(#linearGradient6264);stroke-linecap:round;stroke-width:1px;fill:none" d="m299.65 401.24c-3.49 0-4.65-0.98-4.65-0.98"/>
  <path id="path6656" style="opacity:.80349;stroke:url(#linearGradient6261);stroke-linecap:round;stroke-width:1px;fill:none" d="m299.65 403.24c-3.49 0-4.65-0.98-4.65-0.98"/>
  <path id="path6695" style="stroke-width:1px;color:#000000;stroke:url(#linearGradient6258);stroke-linecap:round;fill:none" d="m303.43 404.83c3.43 0 4.57-0.59 4.57-0.59"/>
  <path id="path6708" style="opacity:.80349;stroke:url(#linearGradient6255);stroke-linecap:round;stroke-width:1px;fill:none" d="m299.65 405.24c-3.49 0-4.65-0.98-4.65-0.98"/>
  <path id="path6155" style="fill:#fed12d;fill-rule:evenodd" d="m292.5 378.74l4.56 15.98-0.02-11.89h9.03l-0.09 11.91 4.52-16-3.86 2.05h-10.3l-3.84-2.05z"/>
  <path id="path6126" style="stroke-width:1px;color:#000000;stroke:url(#linearGradient6251);stroke-linecap:round;fill:none" d="m302.43 406.83c3.43 0 4.57-0.59 4.57-0.59"/>
  <path id="path6292" style="opacity:.80349;stroke:url(#linearGradient6294);stroke-linecap:round;stroke-width:1px;fill:none" d="m300.65 407.24c-3.49 0-4.65-0.98-4.65-0.98"/>
 </g>
</svg>
