<?xml version="1.0" encoding="UTF-8" standalone="no"?>
<!-- Created with Inkscape (http://www.inkscape.org/) -->
<svg id="svg2" xmlns="http://www.w3.org/2000/svg" height="48" width="48" version="1.0" xmlns:xlink="http://www.w3.org/1999/xlink">
 <defs id="defs3">
  <radialGradient id="radialGradient5708" gradientUnits="userSpaceOnUse" cy="29.768" cx="15.625" gradientTransform="matrix(1 0 0 .070968 0 27.655)" r="13.839">
   <stop id="stop5704" offset="0"/>
   <stop id="stop5706" style="stop-opacity:0" offset="1"/>
  </radialGradient>
  <radialGradient id="radialGradient3696" gradientUnits="userSpaceOnUse" cy="4.8696" cx="-20" gradientTransform="matrix(1.0471e-8 1.8177 -1.5451 0 15.528 40.36)" r="22">
   <stop id="stop4728" style="stop-color:#729fcf" offset="0"/>
   <stop id="stop4730" style="stop-color:#3465a4" offset="1"/>
  </radialGradient>
 </defs>
 <g id="layer1">
  <path id="path4731" style="opacity:.3;color:#000000;fill:url(#radialGradient5708)" d="m29.464 29.768a13.839 0.98214 0 1 1 -27.679 0 13.839 0.98214 0 1 1 27.679 0z" transform="matrix(1.5927 0 0 2.1126 -.92876 -17.964)"/>
  <rect id="rect2914" style="stroke-linejoin:round;stroke:#204a87;stroke-linecap:round;stroke-miterlimit:0;fill:url(#radialGradient3696)" rx=".99975" ry=".99975" height="39" width="39" y="4.4999" x="4.4999"/>
  <rect id="rect3698" style="opacity:0.24;stroke-linejoin:round;stroke:#fff;stroke-linecap:round;stroke-miterlimit:0;stroke-width:1.0012;fill:none" rx=".38223" ry=".38127" height="36.905" width="36.999" y="5.5942" x="5.6093"/>
  <path id="path3700" style="fill:#ebf0ff" d="m35.5 13.5a3.5 3.5 0 0 1 -7 0 3.5 3.5 0 1 1 7 0z"/>
  <path id="path3702" style="fill:#ebf0ff" d="m26 38h12v-15c0-7-12-7-12 0v15z"/>
  <path id="path3704" style="fill:#ebf0ff" d="m18 33h9v-12c0-6-9-6-9 0v12z"/>
  <path id="path3706" style="fill:#ebf0ff" d="m12 28h7v-7.2c0-6-7-6-7 0v7.2z"/>
  <path id="path3708" style="fill:#ebf0ff" d="m35.02 20.652a2.9699 2.8461 0 1 1 -5.9397 0 2.9699 2.8461 0 1 1 5.9397 0z" transform="matrix(.84179 0 0 .87839 -4.4792 -4.6409)"/>
  <path id="path3710" style="fill:#ebf0ff" d="m35.02 20.652a2.9699 2.8461 0 1 1 -5.9397 0 2.9699 2.8461 0 1 1 5.9397 0z" transform="matrix(.67343 0 0 .70271 -6.0833 -.51272)"/>
 </g>
</svg>
