<?xml version="1.0" encoding="UTF-8" standalone="no"?>
<!-- Created with Inkscape (http://www.inkscape.org/) -->
<svg id="svg2" xmlns:rdf="http://www.w3.org/1999/02/22-rdf-syntax-ns#" xmlns="http://www.w3.org/2000/svg" height="48" width="48" version="1.0" xmlns:cc="http://creativecommons.org/ns#" xmlns:xlink="http://www.w3.org/1999/xlink" xmlns:dc="http://purl.org/dc/elements/1.1/">
 <defs id="defs4">
  <radialGradient id="radialGradient4330" gradientUnits="userSpaceOnUse" cy="10.458" cx="10.749" gradientTransform="matrix(-.84276 5.6989e-16 -4.5658e-9 -.35721 19.807 14.193)" r="6.6449">
   <stop id="stop3152" style="stop-color:#2e3436" offset="0"/>
   <stop id="stop3154" style="stop-color:#2e3436;stop-opacity:0" offset="1"/>
  </radialGradient>
  <linearGradient id="linearGradient2236" y2="8.1371" gradientUnits="userSpaceOnUse" x2="10.177" y1="-1.3536" x1="10.177">
   <stop id="stop2232" style="stop-color:#fff" offset="0"/>
   <stop id="stop2234" style="stop-color:#fff;stop-opacity:0" offset="1"/>
  </linearGradient>
  <radialGradient id="radialGradient2211" gradientUnits="userSpaceOnUse" cy="23.173" cx="30.562" gradientTransform="matrix(1.331 -1.2004e-32 1.1445e-32 1.269 -10.115 -9.0539)" r="23.5">
   <stop id="stop2197" style="stop-color:#fff" offset="0"/>
   <stop id="stop2199" style="stop-color:#fff;stop-opacity:0" offset="1"/>
  </radialGradient>
 </defs>
 <metadata id="metadata7">
  <rdf:RDF>
   <cc:Work rdf:about="">
    <dc:format>image/svg+xml</dc:format>
    <dc:type rdf:resource="http://purl.org/dc/dcmitype/StillImage"/>
   </cc:Work>
  </rdf:RDF>
 </metadata>
 <g id="layer1">
  <path id="path3140" style="opacity:.3;fill:url(#radialGradient4330)" d="m17.394 10.458a6.6449 2.3675 0 1 1 -13.29 0 6.6449 2.3675 0 1 1 13.29 0z" transform="matrix(3.5834 0 0 3.0005 -14.705 9.7796)"/>
  <path id="path4302" style="stroke:#ce5c00;stroke-width:.67679;fill:#f57900" d="m15.631 4.0386a5.0749 5.0749 0 1 1 -10.15 0 5.0749 5.0749 0 1 1 10.15 0z" transform="matrix(1.4776 0 0 1.4776 8.4036 4.0333)"/>
  <path id="path4273" style="opacity:.6;stroke:#fff;stroke-width:.78085;fill:url(#linearGradient2236)" d="m15.631 4.0386a5.0749 5.0749 0 1 1 -10.15 0 5.0749 5.0749 0 1 1 10.15 0z" transform="matrix(1.2807 0 0 1.2807 10.481 4.828)"/>
  <path id="rect2213" style="stroke:#ce5c00;fill:#f57900" d="m34.491 8.6205c0 5.3185-1.641 11.898-10.593 11.898-8.893 0.001-10.371-6.839-10.371-11.858l-8.0321 1.2162c0 13.361 12.169 16.678 12.169 16.678s-8.4927 7.744-8.4927 17.852l10.066 0.092s2.219-8.934 5.774-8.934c3.641 0 5.678 8.908 5.678 8.908l9.673 0.032c0-11.494-9.98-17.926-9.98-17.926s12.233-3.408 12.233-17.074l-8.124-0.8835z"/>
  <path id="path2220" style="opacity:.6;stroke:#fff;fill:url(#radialGradient2211)" d="m45.406 11.75c-0.142 2.718-0.749 6.005-2.718 8.906-2.228 3.282-6.135 5.844-12.188 5.844-6.012 0-9.863-2.505-12.062-5.75-1.954-2.881-2.554-6.168-2.688-8.906l-8.1875 1.312c0.2397 7.699 3.6265 12.222 7.0935 14.875 3.594 2.751 7.156 3.469 7.156 3.469 0.341 0.068 0.618 0.317 0.722 0.649s0.019 0.694-0.222 0.945c0 0-9.478 10.371-9.968 22.344l11.281 0.124c0.151-0.594 0.66-2.712 1.844-5.437 0.67-1.543 1.488-3.077 2.5-4.313 1.011-1.235 2.281-2.218 3.843-2.218 1.581 0 2.871 0.951 3.876 2.187 1.004 1.237 1.793 2.803 2.437 4.344 1.138 2.723 1.613 4.814 1.75 5.406l10.719 0.031c-0.602-12.652-12.782-22.343-12.782-22.343-0.296-0.234-0.426-0.621-0.331-0.987 0.095-0.365 0.396-0.64 0.769-0.701 0 0 3.861-0.628 7.719-3.312 3.724-2.591 7.341-7.069 7.593-14.938l-8.156-1.531z" xlink:href="#rect2213"/>
 </g>
</svg>
