<?xml version="1.0" encoding="UTF-8" standalone="no"?>
<!-- Created with Inkscape (http://www.inkscape.org/) -->
<svg id="svg2" xmlns="http://www.w3.org/2000/svg" height="48" width="48" version="1.0" xmlns:xlink="http://www.w3.org/1999/xlink">
 <defs id="defs3">
  <radialGradient id="radialGradient5708" gradientUnits="userSpaceOnUse" cy="29.768" cx="15.625" gradientTransform="matrix(1 0 0 .070968 0 27.655)" r="13.839">
   <stop id="stop5704" offset="0"/>
   <stop id="stop5706" style="stop-opacity:0" offset="1"/>
  </radialGradient>
  <radialGradient id="radialGradient3614" gradientUnits="userSpaceOnUse" cy="8.0009" cx="9.5996" gradientTransform="matrix(1.7 0 0 1.0001 -7.3192 -.0012931)" r="20">
   <stop id="stop3608" style="stop-color:#888a85" offset="0"/>
   <stop id="stop3610" style="stop-color:#555753" offset="1"/>
  </radialGradient>
  <linearGradient id="linearGradient3659" y2="2" gradientUnits="userSpaceOnUse" x2="20" y1="40" x1="20">
   <stop id="stop3655" style="stop-color:#eeeeec" offset="0"/>
   <stop id="stop3657" style="stop-color:#fff" offset="1"/>
  </linearGradient>
 </defs>
 <g id="layer1">
  <path id="path4731" style="opacity:.3;color:#000000;fill:url(#radialGradient5708)" d="m29.464 29.768a13.839 0.98214 0 1 1 -27.679 0 13.839 0.98214 0 1 1 27.679 0z" transform="matrix(1.5927 0 0 2.1126 -.92876 -17.964)"/>
  <rect id="rect2914" style="stroke-linejoin:round;stroke:#2e3436;stroke-linecap:round;stroke-miterlimit:0;fill:url(#radialGradient3614)" rx="1.0029" ry=".99980" height="41" width="41" y="3.5" x="3.5"/>
  <rect id="rect3698" style="opacity:0.24;stroke-linejoin:round;stroke:#fff;stroke-linecap:round;stroke-miterlimit:0;stroke-width:1.0012;fill:none" rx=".38223" ry=".38127" height="38.903" width="38.871" y="4.5955" x="4.6105"/>
  <path id="path3616" style="fill:url(#linearGradient3659)" d="m18 42h6v-18h-6v18zm-12 0h6v-18h-6v18zm24-8c0 4 3 8 7 8h5v-6c-6 0-6-1-6-4v-9.5c0-6.5-5-10.5-9-10.5h-21v6h19c3 0 5 2 5 5v11z"/>
 </g>
</svg>
