<?xml version="1.0" encoding="UTF-8" standalone="no"?>
<!-- Created with Inkscape (http://www.inkscape.org/) -->
<svg id="svg2" xmlns:rdf="http://www.w3.org/1999/02/22-rdf-syntax-ns#" xmlns="http://www.w3.org/2000/svg" height="48" width="48" version="1.0" xmlns:cc="http://creativecommons.org/ns#" xmlns:xlink="http://www.w3.org/1999/xlink" xmlns:dc="http://purl.org/dc/elements/1.1/">
 <defs id="defs4">
  <radialGradient id="radialGradient1358" gradientUnits="userSpaceOnUse" cy="19.009" cx="31.113" gradientTransform="matrix(1.9049 0 0 .57723 -32.765 27.09)" r="8.6621">
   <stop id="stop3818" offset="0"/>
   <stop id="stop3820" style="stop-opacity:0" offset="1"/>
  </radialGradient>
  <linearGradient id="linearGradient1360" y2="20.093" gradientUnits="userSpaceOnUse" x2="16.581" gradientTransform="matrix(1.4273 0 0 1.4083 .33286 3.3991)" y1="14.967" x1="10.329">
   <stop id="stop2221" style="stop-color:#3465a4" offset="0"/>
   <stop id="stop2223" style="stop-color:#3465a4;stop-opacity:0" offset="1"/>
  </linearGradient>
  <linearGradient id="linearGradient1362" y2="23.367" gradientUnits="userSpaceOnUse" x2="18.545" gradientTransform="matrix(1.489 0 0 1.4286 1.7312 3.002)" y1="11.741" x1="20.998">
   <stop id="stop2230" style="stop-color:#f56600" offset="0"/>
   <stop id="stop2232" style="stop-color:#f56600;stop-opacity:0" offset="1"/>
  </linearGradient>
 </defs>
 <metadata id="metadata7">
  <rdf:RDF>
   <cc:Work rdf:about="">
    <dc:format>image/svg+xml</dc:format>
    <dc:type rdf:resource="http://purl.org/dc/dcmitype/StillImage"/>
   </cc:Work>
  </rdf:RDF>
 </metadata>
 <g id="layer1">
  <path id="path4318" style="opacity:.4;color:#000000;fill-rule:evenodd;fill:url(#radialGradient1358)" d="m43 38.062c0 2.76-7.392 5-16.5 5s-16.5-2.24-16.5-5 7.392-5 16.5-5 16.5 2.24 16.5 5z"/>
  <path id="rect2194" style="stroke:#c4a000;fill:#edd400" d="m34.663 20.336c4.832 1.445 5.436 18.225-0.054 18.225-5.423 0-17.497-23.475 0.054-18.225z"/>
  <path id="path2259" style="opacity:.5;stroke:#fff;fill:none" d="m29.5 20.594c-1.011 0.105-1.649 0.392-2.094 0.812-0.444 0.42-0.71 0.994-0.844 1.75-0.266 1.514 0.162 3.732 1.063 5.938 0.901 2.205 2.228 4.424 3.594 6.031 1.365 1.607 2.829 2.469 3.406 2.469 0.44 0 0.771-0.142 1.125-0.469s0.687-0.857 0.969-1.563c0.564-1.41 0.848-3.47 0.812-5.562-0.035-2.092-0.367-4.237-0.969-5.875-0.601-1.638-1.464-2.628-2.187-2.844-2.113-0.632-3.716-0.808-4.875-0.687z"/>
  <path id="rect2201" style="stroke:#4e9a06;fill:#73d216" d="m24.986 40.707c-4.668 0-17.026-11.364-7.567-17.883 9.45-6.513 12.306 17.883 7.567 17.883z"/>
  <path id="path2254" style="opacity:.25;stroke:#fff;fill:none" d="m20.429 22.564c-0.615-0.025-1.483 0.19-2.637 0.918-2.396 1.511-3.194 3.005-3.283 4.635-0.089 1.631 0.689 3.514 1.992 5.264 1.302 1.75 3.137 3.362 4.897 4.49 1.761 1.128 3.336 1.634 3.957 1.634 0.359 0 0.619-0.927 0.779-1.73 0.322-1.608 0.354-3.968-0.053-6.326-0.408-2.358-1.26-4.766-2.315-6.422s-2.182-2.415-3.337-2.463z"/>
  <path id="path2245" style="opacity:.25;stroke:#fff;fill:none" d="m38.291 9.131c-2.448 0.4363-6.008 3.798-8.688 7.156-2.515 3.152-4.124 5.826-4.343 6.188l3.312 7.562c6.094-0.204 9.988-2.909 10.281-3.125 0.161-0.361 1.696-3.856 2.625-7.875 0.49-2.115 0.782-4.306 0.594-6.062s-0.767-2.96-1.969-3.594c-0.57-0.3014-1.111-0.3749-1.812-0.25z"/>
  <path id="rect2197" style="stroke:#204a87;fill:url(#linearGradient1360)" d="m2.9245 13.206c2.5664-4.2444 28.944 13.711 17.874 16.086-11.056 2.373-20.414-11.886-17.874-16.086z"/>
  <path id="path2249" style="opacity:.2;stroke:#fff;fill:none" d="m4.0077 17.15c0.6536 1.784 1.9359 3.872 3.6158 5.745 3.3595 3.747 8.2105 6.507 13.274 5.416 1.03-0.222 1.335-0.509 1.436-0.659 0.102-0.151 0.187-0.362 0-0.942-0.373-1.16-1.95-3.227-4.16-5.18-2.211-1.953-5.02-3.902-7.628-5.368-2.6079-1.467-5.3483-2.482-6.5701-2.598-0.6504-0.062-0.6218 1.803 0.0318 3.586z"/>
  <path id="rect1317" style="stroke:#ce5d00;fill:url(#linearGradient1362)" d="m23.498 20.842s10.249-17.129 16.442-13.86c6.244 3.295-0.908 19.062-0.908 19.062s-4.686 3.514-11.734 3.514l-3.8-8.716z"/>
  <path id="path1328" style="opacity:.25;stroke:#fff;fill:none" d="m37.656 7.5937c-2.449 0.4365-6.007 3.7983-8.687 7.1563-2.516 3.152-4.125 5.826-4.344 6.188l3.313 7.562c6.091-0.205 9.985-2.908 10.281-3.125 0.161-0.361 1.695-3.856 2.625-7.875 0.489-2.115 0.781-4.306 0.594-6.062-0.188-1.757-0.767-2.9596-1.969-3.5943-0.572-0.3015-1.111-0.3749-1.813-0.25z"/>
  <path id="path2192" style="stroke:#5c3566;fill:#75507b" d="m25.757 25.781c1.664 3.825 2.557 7.279 1.994 7.711-0.563 0.431-2.37-2.323-4.034-6.148-1.663-3.825-2.556-7.279-1.993-7.711 0.563-0.431 2.37 2.323 4.033 6.148z"/>
 </g>
</svg>
