<?xml version="1.0" encoding="UTF-8" standalone="no"?>
<!-- Created with Inkscape (http://www.inkscape.org/) -->
<svg id="svg2" xmlns:rdf="http://www.w3.org/1999/02/22-rdf-syntax-ns#" xmlns="http://www.w3.org/2000/svg" height="48" width="48" version="1.0" xmlns:cc="http://creativecommons.org/ns#" xmlns:dc="http://purl.org/dc/elements/1.1/">
 <metadata id="metadata24">
  <rdf:RDF>
   <cc:Work rdf:about="">
    <dc:format>image/svg+xml</dc:format>
    <dc:type rdf:resource="http://purl.org/dc/dcmitype/StillImage"/>
    <dc:title/>
   </cc:Work>
  </rdf:RDF>
 </metadata>
 <g id="layer1">
  <rect id="rect3592" style="fill:#f0f0f0" rx="2" ry="2" height="18" width="48" y="15" x="0"/>
  <path id="path2834" style="stroke-linejoin:round;stroke:#778;stroke-linecap:round;stroke-width:3;fill:none" d="m1.5 28.5h2c1 0 2-1 2-2.25v-4.5c0-1.25 1-2.25 2-2.25h2.5"/>
  <path id="path2836" style="stroke-linejoin:round;stroke:#778;stroke-linecap:round;stroke-width:3;fill:none" d="m13.5 19.5h8.5"/>
  <path id="path2838" style="stroke-linejoin:round;stroke:#778;stroke-linecap:round;stroke-width:3;fill:none" d="m13.5 28.5h8.5"/>
  <path id="path2840" style="stroke-linejoin:round;stroke:#778;stroke-linecap:round;stroke-width:3;fill:none" d="m17.5 27v-6"/>
  <path id="path2842" style="stroke-linejoin:round;stroke:#778;stroke-linecap:round;stroke-width:3;fill:none" d="m25.5 19.5v6.75c0 1.3769 0.87695 2.2308 3 2.25h6"/>
  <path id="path2844" style="stroke-linejoin:round;stroke:#778;stroke-linecap:round;stroke-width:3;fill:none" d="m42.5 19.5h-3c-1 0-2 1-2 2.25v4.5c0 1.25 1 2.25 2 2.25h7"/>
 </g>
</svg>
