<?xml version="1.0" encoding="UTF-8" standalone="no"?>
<!-- Created with Inkscape (http://www.inkscape.org/) -->
<svg id="svg4376" xmlns:rdf="http://www.w3.org/1999/02/22-rdf-syntax-ns#" xmlns="http://www.w3.org/2000/svg" height="48px" width="48px" xmlns:cc="http://web.resource.org/cc/" xmlns:xlink="http://www.w3.org/1999/xlink" xmlns:dc="http://purl.org/dc/elements/1.1/">
 <defs id="defs3">
  <radialGradient id="radialGradient1360" gradientUnits="userSpaceOnUse" cy="38.571" cx="24.714" gradientTransform="matrix(1 0 0 .33333 0 25.714)" r="19.714">
   <stop id="stop4567" offset="0"/>
   <stop id="stop4569" style="stop-opacity:0" offset="1"/>
  </radialGradient>
  <radialGradient id="radialGradient1362" fx="29.158" fy="15.756" gradientUnits="userSpaceOnUse" cy="15.721" cx="29.288" r="8.9021">
   <stop id="stop3292" style="stop-color:#fffcde" offset="0"/>
   <stop id="stop3294" style="stop-color:#f6e76a" offset=".64486"/>
   <stop id="stop3296" style="stop-color:#ffb738" offset="1"/>
  </radialGradient>
  <linearGradient id="linearGradient2132" y2="29.629" gradientUnits="userSpaceOnUse" x2="38.391" gradientTransform="matrix(1.0489 0 0 1 -1.2679 0)" y1="29.629" x1="9.7893">
   <stop id="stop3070" style="stop-color:#ccc" offset="0"/>
   <stop id="stop3076" style="stop-color:#fff" offset=".34579"/>
   <stop id="stop3078" style="stop-color:#fff" offset=".72487"/>
   <stop id="stop3072" style="stop-color:#cecece" offset="1"/>
  </linearGradient>
  <linearGradient id="linearGradient3343" y2="30.719" gradientUnits="userSpaceOnUse" x2="37.938" y1="30.719" x1="10.375">
   <stop id="stop3339" offset="0"/>
   <stop id="stop3345" style="stop-opacity:.51923" offset=".5"/>
   <stop id="stop3341" offset="1"/>
  </linearGradient>
 </defs>
 <metadata id="metadata4">
  <rdf:RDF>
   <cc:Work rdf:about="">
    <dc:format>image/svg+xml</dc:format>
    <dc:type rdf:resource="http://purl.org/dc/dcmitype/StillImage"/>
    <dc:title>IM - Yahoo</dc:title>
    <dc:subject>
     <rdf:Bag/>
    </dc:subject>
    <cc:license rdf:resource="http://creativecommons.org/licenses/GPL/2.0/"/>
    <dc:creator>
     <cc:Agent>
      <dc:title>Jakub Steiner</dc:title>
     </cc:Agent>
    </dc:creator>
    <dc:source>http://jimmac.musichall.cz</dc:source>
    <dc:contributor>
     <cc:Agent>
      <dc:title/>
     </cc:Agent>
    </dc:contributor>
   </cc:Work>
   <cc:License rdf:about="http://creativecommons.org/licenses/GPL/2.0/">
    <cc:permits rdf:resource="http://web.resource.org/cc/Reproduction"/>
    <cc:permits rdf:resource="http://web.resource.org/cc/Distribution"/>
    <cc:requires rdf:resource="http://web.resource.org/cc/Notice"/>
    <cc:permits rdf:resource="http://web.resource.org/cc/DerivativeWorks"/>
    <cc:requires rdf:resource="http://web.resource.org/cc/ShareAlike"/>
    <cc:requires rdf:resource="http://web.resource.org/cc/SourceCode"/>
   </cc:License>
  </rdf:RDF>
 </metadata>
 <g id="layer1">
  <path id="path4563" style="opacity:.53165;color:#000000;fill-rule:evenodd;fill:url(#radialGradient1360)" d="m44.429 38.571a19.714 6.5714 0 1 1 -39.429 0 19.714 6.5714 0 1 1 39.429 0z"/>
  <path id="path4320" style="stroke-linejoin:round;fill-rule:evenodd;color:#000000;stroke:#9c8c0a;stroke-linecap:round;stroke-width:.48004;fill:url(#radialGradient1362)" d="m39.775 19.009a8.6621 8.6621 0 1 1 -17.324 0 8.6621 8.6621 0 1 1 17.324 0z" transform="matrix(2.0831 0 0 2.0831 -40.547 -16.492)"/>
  <path id="path4322" style="opacity:.67722;stroke-linejoin:round;color:#000000;stroke:#fff;stroke-linecap:round;stroke-width:.50511;fill:none" d="m39.775 19.009a8.6621 8.6621 0 1 1 -17.324 0 8.6621 8.6621 0 1 1 17.324 0z" transform="matrix(1.9798 0 0 1.9798 -37.331 -14.527)"/>
  <path id="path1364" style="stroke:#555753;fill:none" d="m-0.875 1.875a2.9375 2.875 0 0 1 -5.4814 1.4375" transform="matrix(-.96593 -.25882 .25882 -.96593 24.534 17.201)"/>
  <path id="path2094" style="stroke:#555753;fill:none" d="m-0.875 1.875a2.9375 2.875 0 0 1 -5.4814 1.4375" transform="matrix(-.96593 -.25882 .25882 -.96593 15.784 17.201)"/>
  <path id="path2096" style="color:#000000;fill:url(#linearGradient2132)" d="m9.1875 21.045c-1.5389 7.567 4.6925 17.167 14.852 17.167 10.246 0 16.504-8.43 14.719-17.105l-29.572-0.062z"/>
  <path id="path2756" style="color:#000000;stroke:#8f5902;fill:none" d="m9.4409 20.616c-1.7806 8.822 5.1591 18.088 14.809 18.088 10.004 0 16.652-9.579 14.372-18.151l-29.181 0.063z"/>
  <path id="path2462" style="color:#000000;fill-rule:evenodd;fill:url(#linearGradient3343)" d="m10.375 27.875c0.856 2.207 1.764 4.361 3.437 5.75 6.802-0.704 13.741-0.795 20.876 0 1.553-1.467 2.695-3.346 3.25-5.813-9.096 1.5-18.302 1.223-27.563 0.063z"/>
 </g>
</svg>
