<?xml version="1.0" encoding="UTF-8" standalone="no"?>
<!-- Created with Inkscape (http://www.inkscape.org/) -->
<svg id="svg2847" xmlns:rdf="http://www.w3.org/1999/02/22-rdf-syntax-ns#" xmlns="http://www.w3.org/2000/svg" height="48" width="48" version="1.1" xmlns:cc="http://creativecommons.org/ns#" xmlns:xlink="http://www.w3.org/1999/xlink" xmlns:dc="http://purl.org/dc/elements/1.1/">
 <defs id="defs2849">
  <linearGradient id="linearGradient4176">
   <stop id="stop4178" style="stop-color:#fff" offset="0"/>
   <stop id="stop4180" style="stop-color:#fff;stop-opacity:0" offset="1"/>
  </linearGradient>
  <radialGradient id="radialGradient4182" xlink:href="#linearGradient4176" gradientUnits="userSpaceOnUse" cy="8.6903" cx="21.817" gradientTransform="matrix(.28423 .24715 -1.1765 1.3529 25.023 -10.15)" r="17"/>
  <radialGradient id="radialGradient4186" xlink:href="#linearGradient4176" gradientUnits="userSpaceOnUse" cy=".24541" cx=".079421" gradientTransform="matrix(0 .11765 -1.1176 -2.2562e-8 23.274 -11.009)" r="17"/>
  <radialGradient id="radialGradient4190" xlink:href="#linearGradient4176" gradientUnits="userSpaceOnUse" cy="-3.3335" cx="306.08" gradientTransform="matrix(0 .11765 -1.1176 -2.2562e-8 23.274 -11.009)" r="17"/>
  <radialGradient id="radialGradient4209" gradientUnits="userSpaceOnUse" cx="10.834" cy="11.709" r="6.6449" gradientTransform="matrix(-1.0955 2.6935e-8 0 -.30171 22.557 13.67)">
   <stop id="stop3152" style="stop-color:#2e3436" offset="0"/>
   <stop id="stop3154" style="stop-color:#2e3436;stop-opacity:0" offset="1"/>
  </radialGradient>
 </defs>
 <metadata id="metadata2852">
  <rdf:RDF>
   <cc:Work rdf:about="">
    <dc:format>image/svg+xml</dc:format>
    <dc:type rdf:resource="http://purl.org/dc/dcmitype/StillImage"/>
    <dc:title/>
   </cc:Work>
  </rdf:RDF>
 </metadata>
 <g id="layer1" transform="translate(0,16)">
  <path id="path3140" style="opacity:.6;fill:url(#radialGradient4209)" d="m18.435 10.458c0 0.84141-3.4413 1.5235-7.6864 1.5235s-7.6864-0.6821-7.6864-1.5235c0-0.84141 3.4413-1.5235 7.6864-1.5235s7.6864 0.6821 7.6864 1.5235z" transform="matrix(2.8849 0 0 2.494 -5.8342 2.1194)"/>
  <path id="path2859" style="stroke-linejoin:round;stroke:#2e3436;stroke-width:1px;fill:#555753" d="m41.5-12.5h-35v9l3-4h24l-27 30v6h35v-10l-3 5h-24l27-30v-6z"/>
  <path id="path4145" style="opacity:0.24;stroke-linejoin:round;stroke:#fff;stroke-width:1px;fill:url(#radialGradient4182)" d="m7.5-11.5v4.125l1.4375-0.96875a0.99885 0.99885 0 0 1 0.5625 -0.1562h24a0.99885 0.99885 0 0 1 0.75 1.6562l-26.75 29.719v4.625h33v-4.5625l-1.2812 1.2812a0.99885 0.99885 0 0 1 -0.719 0.281h-24a0.99885 0.99885 0 0 1 -0.75 -1.656l26.75-29.719v-4.625h-33z" xlink:href="#path2859"/>
  <path id="path4184" style="opacity:0.24;fill:url(#radialGradient4186)" d="m7.5-11.5v4.125l1.4375-0.96875a0.99885 0.99885 0 0 1 0.5625 -0.1562h24a0.99885 0.99885 0 0 1 0.75 1.6562l-26.75 29.719v4.625h33v-4.5625l-1.2812 1.2812a0.99885 0.99885 0 0 1 -0.719 0.281h-24a0.99885 0.99885 0 0 1 -0.75 -1.656l26.75-29.719v-4.625h-33z" xlink:href="#path2859"/>
  <path id="path4188" style="opacity:0.24;fill:url(#radialGradient4190)" d="m7.5-11.5v4.125l1.4375-0.96875a0.99885 0.99885 0 0 1 0.5625 -0.1562h24a0.99885 0.99885 0 0 1 0.75 1.6562l-26.75 29.719v4.625h33v-4.5625l-1.2812 1.2812a0.99885 0.99885 0 0 1 -0.719 0.281h-24a0.99885 0.99885 0 0 1 -0.75 -1.656l26.75-29.719v-4.625h-33z" xlink:href="#path2859"/>
 </g>
</svg>
