<?xml version="1.0" encoding="UTF-8" standalone="no"?>
<!-- Created with Inkscape (http://www.inkscape.org/) -->
<svg id="svg1872" xmlns:rdf="http://www.w3.org/1999/02/22-rdf-syntax-ns#" xmlns="http://www.w3.org/2000/svg" height="48px" width="48px" xmlns:cc="http://web.resource.org/cc/" xmlns:xlink="http://www.w3.org/1999/xlink" xmlns:dc="http://purl.org/dc/elements/1.1/">
 <defs id="defs1874">
  <radialGradient id="radialGradient2952" xlink:href="#linearGradient5060" gradientUnits="userSpaceOnUse" cy="486.65" cx="605.71" gradientTransform="matrix(-25.408 0 0 1.9697 15201 -872.89)" r="117.14"/>
  <linearGradient id="linearGradient5060">
   <stop id="stop5062" offset="0"/>
   <stop id="stop5064" style="stop-opacity:0" offset="1"/>
  </linearGradient>
  <radialGradient id="radialGradient3845" xlink:href="#linearGradient5060" gradientUnits="userSpaceOnUse" cy="486.65" cx="605.71" gradientTransform="matrix(2.5408 0 0 1.9697 -1642.7 -872.88)" r="117.14"/>
  <linearGradient id="linearGradient2760">
   <stop id="stop2762" style="stop-color:#fff" offset="0"/>
   <stop id="stop2764" style="stop-color:#fff;stop-opacity:.42353" offset="1"/>
  </linearGradient>
  <radialGradient id="radialGradient4060" gradientUnits="userSpaceOnUse" cy="24.724" cx="60.532" gradientTransform="matrix(1 0 0 1.0183 0 -.45146)" r="10.532">
   <stop id="stop3220" style="stop-color:#fff;stop-opacity:0" offset="0"/>
   <stop id="stop3222" style="stop-color:#204a87;stop-opacity:.088757" offset=".5"/>
   <stop id="stop3224" style="stop-color:#204a87" offset="1"/>
  </radialGradient>
  <linearGradient id="linearGradient4068" y2="12.958" gradientUnits="userSpaceOnUse" x2="59.923" gradientTransform="matrix(.81547 -.38551 -.37860 -.80085 -12.504 68.636)" y1="24.186" x1="60.532">
   <stop id="stop2888" style="stop-color:#eeeeec" offset="0"/>
   <stop id="stop2890" style="stop-color:#eeeeec;stop-opacity:0" offset="1"/>
  </linearGradient>
  <linearGradient id="linearGradient4070" y2="33.056" gradientUnits="userSpaceOnUse" x2="56.286" y1="19.829" x1="53.834">
   <stop id="stop2951" style="stop-color:#fff" offset="0"/>
   <stop id="stop2953" style="stop-color:#fff;stop-opacity:0" offset="1"/>
  </linearGradient>
  <linearGradient id="linearGradient2888" y2="17.386" gradientUnits="userSpaceOnUse" x2="58.205" y1="32.623" x1="63.114">
   <stop id="stop2892" style="stop-color:#4c4e4b" offset="0"/>
   <stop id="stop2894" style="stop-color:#e6e6e3" offset="1"/>
  </linearGradient>
  <linearGradient id="linearGradient3576" y2="29.202" gradientUnits="userSpaceOnUse" x2="29.453" gradientTransform="translate(-6.6765 1.3345)" y1="20.852" x1="23.484">
   <stop id="stop4001" style="stop-color:#888e82" offset="0"/>
   <stop id="stop4003" style="stop-color:#6b6d68" offset="1"/>
  </linearGradient>
  <linearGradient id="linearGradient3582" y2="29.344" xlink:href="#linearGradient2760" gradientUnits="userSpaceOnUse" x2="22.236" gradientTransform="translate(-6.6765 1.3345)" y1="14.155" x1="12.444"/>
  <linearGradient id="linearGradient3585" y2="37" xlink:href="#linearGradient2760" gradientUnits="userSpaceOnUse" x2="23.686" gradientTransform="matrix(1.0037 0 0 1.0037 -6.6714 1.2071)" y1="7.6489" x1="11.469"/>
  <linearGradient id="linearGradient3588" y2="14.963" gradientUnits="userSpaceOnUse" x2="13.144" gradientTransform="translate(-6.6765 1.3345)" y1="28.568" x1="20.295">
   <stop id="stop3621" style="stop-color:#82a02b" offset="0"/>
   <stop id="stop3623" style="stop-color:#e6edab" offset="1"/>
  </linearGradient>
  <linearGradient id="linearGradient3591" y2="31" gradientUnits="userSpaceOnUse" x2="15.75" gradientTransform="matrix(1.005 0 0 1.0049 -6.664 1.1613)" y1="9.375" x1="10.625">
   <stop id="stop2844" style="stop-color:#eeeeec" offset="0"/>
   <stop id="stop2846" style="stop-color:#e7e7e4" offset="1"/>
  </linearGradient>
  <linearGradient id="linearGradient3593" y2="36.463" gradientUnits="userSpaceOnUse" x2="34.195" gradientTransform="matrix(1.005 0 0 1.0049 -6.664 1.1613)" y1="26.027" x1="25.309">
   <stop id="stop4017" style="stop-color:#82837d" offset="0"/>
   <stop id="stop4019" style="stop-color:#4d4f4c" offset="1"/>
  </linearGradient>
  <radialGradient id="radialGradient3625" gradientUnits="userSpaceOnUse" cy="17.506" cx="63.729" gradientTransform="matrix(1 0 0 .99471 0 .096516)" r="5.909">
   <stop id="stop3418" style="stop-color:#ffee5c" offset="0"/>
   <stop id="stop3420" style="stop-color:#f57900" offset="1"/>
  </radialGradient>
  <linearGradient id="linearGradient3627" y2="24.89" gradientUnits="userSpaceOnUse" x2="70.961" y1="16.233" x1="60.682">
   <stop id="stop3490" style="stop-color:#d88c1d" offset="0"/>
   <stop id="stop3492" style="stop-color:#b34f00" offset="1"/>
  </linearGradient>
 </defs>
 <metadata id="metadata1877">
  <rdf:RDF>
   <cc:Work rdf:about="">
    <dc:format>image/svg+xml</dc:format>
    <dc:type rdf:resource="http://purl.org/dc/dcmitype/StillImage"/>
    <dc:creator>
     <cc:Agent>
      <dc:title>Ulisse Perusin</dc:title>
     </cc:Agent>
    </dc:creator>
    <cc:license rdf:resource="http://creativecommons.org/licenses/GPL/2.0/"/>
    <dc:title>Eye of Gnome</dc:title>
    <dc:subject>
     <rdf:Bag>
      <rdf:li>Eye of Gnome</rdf:li>
      <rdf:li>image viewer</rdf:li>
     </rdf:Bag>
    </dc:subject>
   </cc:Work>
   <cc:License rdf:about="http://creativecommons.org/licenses/GPL/2.0/">
    <cc:permits rdf:resource="http://web.resource.org/cc/Reproduction"/>
    <cc:permits rdf:resource="http://web.resource.org/cc/Distribution"/>
    <cc:requires rdf:resource="http://web.resource.org/cc/Notice"/>
    <cc:permits rdf:resource="http://web.resource.org/cc/DerivativeWorks"/>
    <cc:requires rdf:resource="http://web.resource.org/cc/ShareAlike"/>
    <cc:requires rdf:resource="http://web.resource.org/cc/SourceCode"/>
   </cc:License>
  </rdf:RDF>
 </metadata>
 <g id="layer1">
  <rect id="rect2829" style="stroke:url(#linearGradient3593);stroke-linecap:round;fill:url(#linearGradient3591)" transform="matrix(.96593 -.25882 .25882 .96592 0 0)" ry="2.5752" height="31.153" width="31.154" y="7.6935" x="-2.1417"/>
  <rect id="rect2780" style="fill:url(#linearGradient3588)" transform="rotate(-15)" height="17" width="25" y="14.834" x=".82352"/>
  <rect id="rect1873" style="stroke:url(#linearGradient3585);stroke-linecap:round;fill:none" transform="matrix(.96593 -.25882 .25882 .96592 0 0)" ry="1.3307" height="29.108" width="29.108" y="8.7349" x="-1.151"/>
  <path id="path3361" style="stroke-linejoin:round;stroke:#8e7c87;stroke-linecap:round;stroke-width:1.1;fill:#fff" d="m25.696 26.017c-2.252 1.129-4.22-1.736-4.196-2.017-0.039 0.326 0.359 3.476-2.404 3.45-3.127-0.03-2.395-3.126-2.123-3.41-0.116 0.393-2.54 3.333-4.567 2.116-2.4998-1.5 0.988-3.503 1.4-3.695-0.404 0.283-4.4466 2.154-5.15-0.017-0.8155-2.517 3.798-3.068 3.958-2.927-0.279-0.045-4.2312-0.587-4.0172-2.642 0.2764-2.653 4.5702-0.653 5.2352-0.378-0.25-0.35-2.504-2.657-0.244-3.79 2.252-1.128 3.194 1.542 3.646 1.994-0.206-0.507-0.486-3.178 2.277-3.148 2.752 0.03 2.399 2.677 1.954 3.422 0.451-0.738 2.245-3.466 4.455-2.055 2.104 1.343-0.369 3.679-1.038 4.033 0.683 0.025 4.365-1.213 5.118 0.547 0.803 1.876-3.448 2.299-3.877 2.3 0.336-0.069 5.01 0.618 4.216 2.525-1.026 2.46-5.071 0.254-5.241 0.005 0.334 0.119 2.858 2.555 0.598 3.687z"/>
  <rect id="rect2906" style="opacity:.4;stroke:url(#linearGradient3582);stroke-linecap:round;fill:none" transform="rotate(-15)" height="15" width="23" y="15.834" x="1.8235"/>
  <path id="path3358" style="stroke-linejoin:round;stroke:url(#linearGradient3627);stroke-linecap:round;stroke-width:1.2007;fill:url(#radialGradient3625)" d="m70.562 18.25a5.2812 5.25 0 1 1 -10.562 0 5.2812 5.25 0 1 1 10.562 0z" transform="matrix(1.063 .24163 -.37489 .70440 -43.049 -9.1661)"/>
  <rect id="rect2811" style="stroke:url(#linearGradient3576);stroke-linecap:round;fill:none" transform="rotate(-15)" height="17" width="25" y="14.834" x=".82352"/>
 </g>
 <g id="layer2">
  <g id="g5022" style="opacity:.28730" transform="matrix(.012358 0 0 .010452 45.468 44.575)">
   <path id="path5058" style="opacity:.40206;color:black;fill:url(#radialGradient3845)" d="m-111.46-150.67v478.33c130.85 0.9 316.32-107.17 316.32-239.2 0-132.02-146.01-239.13-316.32-239.13z"/>
   <path id="path5018" style="opacity:.40206;color:black;fill:url(#radialGradient2952)" d="m-111.46-150.68v478.33c-1308.4 0.9-3163.2-107.17-3163.2-239.2 0-132.02 1460.2-239.13 3163.2-239.13z"/>
  </g>
  <g id="g4042" transform="translate(1.0012 1)">
   <path id="path4029" style="fill:#6f7d82;fill-rule:evenodd" d="m35.499 35l1.5-1.5 2.5 2.5-1.5 1.5-2.5-2.5z"/>
   <path id="path2982" style="opacity:.6;fill:url(#radialGradient4060)" d="m71.064 24.724a10.532 10.724 0 1 1 -21.064 0 10.532 10.724 0 1 1 21.064 0z" transform="matrix(1.1394 0 0 1.1189 -41.47 -2.1652)"/>
   <path id="path2994" style="stroke:#414340;stroke-linecap:round;stroke-width:1.7005;fill:none" d="m71.064 24.724a10.532 10.724 0 1 1 -21.064 0 10.532 10.724 0 1 1 21.064 0z" transform="matrix(1.1868 0 0 1.1656 -44.344 -3.3179)"/>
   <path id="rect3080" style="stroke-linejoin:round;stroke:#8f5902;stroke-linecap:round;fill:#c17d11" d="m36.999 37c-0.026-0.984 1.017-1.931 2-2 2.764 2.015 5.317 4.152 7.5 6.5 0.209 2.335-0.988 3.11-3 3-2.384-2.183-4.615-4.571-6.5-7.5z"/>
   <path id="path1995" style="opacity:.8;fill:url(#linearGradient4068)" d="m36.086 21.44c-2.219 9.345-14.769 0.345-17.177 8.12 2.241 4.741 7.908 6.77 12.649 4.529 4.741-2.242 6.769-7.908 4.528-12.649z"/>
   <path id="path2944" style="opacity:.9;stroke:url(#linearGradient4070);stroke-linecap:round;stroke-width:1.063;fill:none" d="m52.931 32.148a10.532 10.724 0 0 1 3.06 -17.1" transform="matrix(.89 .33022 -.32430 .87404 -18.357 -16.099)"/>
  </g>
  <path id="path3042" style="stroke:url(#linearGradient2888);stroke-linecap:round;stroke-width:.97422;fill:none" d="m71.064 24.724a10.532 10.724 0 1 1 -21.064 0 10.532 10.724 0 1 1 21.064 0z" transform="matrix(1.1394 0 0 1.1189 -40.469 -1.1652)"/>
  <path id="path2896" style="opacity:.3;stroke:#eeeeec;stroke-linecap:round;stroke-width:1px;fill:none" d="m39.734 37.031c2.675 1.852 4.979 4.035 6.75 5.891"/>
 </g>
</svg>
