<?xml version="1.0" encoding="UTF-8" standalone="no"?>
<svg id="svg2" xmlns:rdf="http://www.w3.org/1999/02/22-rdf-syntax-ns#" xmlns="http://www.w3.org/2000/svg" height="1.1122in" width="1.1122in" xmlns:cc="http://web.resource.org/cc/" xmlns:dc="http://purl.org/dc/elements/1.1/" viewBox="0 0 640 640">
 <metadata id="metadata21">
  <rdf:RDF>
   <cc:Work rdf:about="">
    <dc:format>image/svg+xml</dc:format>
    <dc:type rdf:resource="http://purl.org/dc/dcmitype/StillImage"/>
   </cc:Work>
  </rdf:RDF>
 </metadata>
 <path id="path4" style="fill:#3895bd" d="m640 580v6l-1 6-2 6-2 5-2 6-3 5-4 4-3 5-5 3-4 4-5 3-6 2-5 2-6 2-6 1h-6-520-6l-6-1-6-2-5-2-5-2-5-3-5-4-4-3-4-5-4-4-3-5-2-6-2-5-2-6-1-6v-6-520-6l1-6 2-6 2-5 2-5 3-5 4-5 4-4 4-4 5-4 5-3 5-2 5-2 6-2 6-1h6 520 6l6 1 6 2 5 2 6 2 5 3 4 4 5 4 3 4 4 5 3 5 2 5 2 5 2 6 1 6v6 520z"/>
 <path id="path6" style="fill:#fff" d="m598 320v17l1 10v9l-1 8-1 6-1 3-1 2-2 1h-2-4l-8-1-27-1-16-1h-18l-17 1h-8l-7 1 2-8 2-7 2-8v-8-8l-1-8-2-8-3-7-3-7-3-7-4-6-6-5-4-4-4-4-4-3-4-2-10-4-9-3-6-4-6-4-5-4-5-4v-3-4l1-3 1-3 1-3 2-2 3-2 2-2 3-1 3-1h6l4 1 3 2 4 2 4 2 6 5 3 1 3 1 4 1 5-1 3-1 4-3 3-3 3-3 6-5 3-2 2-1h2 2 2l4 2 3 2 3 2 6 6 5 5 4 4 5 3 4 2 4 1h4 4l3-1 4-1 3-2 3-2 3-3 5-5 5-5 2-1 3 1 1 1 1 1 1 2 1 2 2 4 2 6 3 13 3 15 3 16 2 15 1 13z"/>
 <path id="path8" style="fill:#fff" d="m483 381l31-3 28-1 12 1h9l7 1h2l1 1 2 1 1 1 1 2v1l-1 3-1 3-6 6-2 4-2 3 3 11 1 6v6 8l-1 5v4l-2 8-2 4-1 4-4 7-2 4-3 3-2 3-3 4-6 6-6 5-7 5-8 4-8 4-9 3-9 2-9 2h-10l-22 1-8-1-8-1-8-2-8-2-7-3-6-3-7-4-6-4-5-4-5-5-4-5-3-5-3-5-2-6-2-6v-6-4-3l7-4 6-2 14-5 15-4 7-3 6-2 11-5 6-2 4-3 3-2 4-2 6-4 5-5 5-5 8-10 3-5z"/>
 <path id="path10" style="fill:#fff" d="m297 288l-4 1-4 1h-4-4l-5-5-5-6-3-6-2-6-2-6-1-6-1-7 1-7 1-6 1-4 3-4 2-4 4-3 3-3 3-2 6-5 13-9 5-3 4-4 8-10 4-6 3-6 3-6 3-6 3-6 2-5 1-5v-5-4l-1-5-1-3-2-4-2-2-1-2-4-4-2-2-2-2-5-3-11-6-12-6-20-8-6-3-2-1v-1l1-1 1-1 4-1 6-1h8 16l16 1 21 1 21 3 21 5 10 2 11 3 10 4 10 3 20 8 9 5 10 4 9 5 9 5 9 5 8 5 8 6 8 5 14 12 13 12 6 6 5 6 5 6 5 7 2 3 1 3 4 6 2 6 3 6-1 3v2l-2 3-2 3-2 2-3 3-4 2-4 2-4 1h-4-5-4l-5-2-5-3-5-3-5-5-6-6-5-4-3-1-2-1-2-1h-2l-4 1-3 2-3 3-3 3-7 6-3 2-4 2h-2-2-4l-3-1-3-2-3-2-3-2-4-3-4-2-3-1-4-1h-4l-3 1-3 1-3 2-3 2-2 2-2 3-2 3-2 3v4l-1 3v4l-8-6-5-4-5-3-3-1h-1-2l-1 1-2 3-4 8-2 5-2 2-2 2-3 1-3 2-4 1-5 1-12 1-10 1-8 2-8 3-3 1-3 2-3 2-3 2-2 3-3 3-4 6z"/>
 <path id="path12" style="fill:#fff" d="m52 229l3-7 3-7 3-7 3-6 8-13 9-13 9-12 5-5 6-6 11-10 12-10 13-9 14-8 14-7 15-7 16-6 17-4 17-4 18-3h4l4 1 7 1 6 3 6 2 14 7 13 6 6 4 6 4 4 5 2 2 2 3 2 4 1 4v3l1 4-1 7-2 7-2 8-5 9-5 8-2 3-2 3-3 4-2 2-6 6-6 6-7 5-9 6-2 2-3 1-4 4-3 4-3 3-2 4-2 5-2 7v3 3 7l2 7 1 4 1 3 4 7 5 7 5 7h-4l-4-1-5-1h-4l-4 1-3 1-2 1-2 1-1 2-1 1-2 4-1 5-3 5-4 5-3 3-5 2-5 2-4 3-8 6-7 6-6 7-11 15-11 15 1-3-8 2-9 2-8 1h-9l-9-1-9-1-9-2-8-4-8-3-8-5-7-5-7-6-6-6-5-7-5-7-5-8-4-8-1-4-2-5-1-4-1-4-2-9 1-15 3-14 3-14 4-14z"/>
 <path id="path14" style="fill:#fff" d="m248 297l4-1h5 6l9 1 4 1 5-1 3-1 4-1 7-3 6-3 12-9 7-3 4-2 4-2 9-2 5-1 6-1 8-1 7-2 6-3 5-3 4-4 4-4 7-9 4 3 4 2 9 7 5 4 4 4 4 3 6 2 7 3 8 4 8 4 6 4 6 5 5 7 4 6 4 6 3 6 2 8 1 7 1 8v8l-1 8-1 8-2 8-2 8-2 4-1 4-5 7-2 4-3 3-6 6-6 5-5 3-5 2-11 6-14 5-14 5-25 9-14 4-16 4-15 4-16 2-15 2h-14-14-7l-7-1-13-2-12-3-6-2-6-2-5-2-5-2-10-5-8-6-7-7-6-8-2-4-2-4-2-6-1-7-1-6v-7l11-15 6-8 5-7 6-7 7-7 4-3 4-2 5-3 4-3 5-2 3-3 3-2 2-3 2-5 4-8 3-3 1-2 2-1z"/>
 <path id="path16" style="fill:#fff" d="m362 455l19 43 4 1 11 4 6 3 6 4 4 4 2 2 2 2 8 19 9 16 9 18-53 19-19-50-30-22-27-53 49-10z"/>
</svg>
