<?xml version="1.0" encoding="UTF-8" standalone="no"?>
<!-- Created with Inkscape (http://www.inkscape.org/) -->
<svg id="svg2424" xmlns="http://www.w3.org/2000/svg" height="48" width="48" version="1.0" xmlns:xlink="http://www.w3.org/1999/xlink">
 <defs id="defs2426">
  <radialGradient id="radialGradient5940" gradientUnits="userSpaceOnUse" cy="14.438" cx="34.5" gradientTransform="matrix(.59647 -.15982 .13257 .49474 12.008 12.809)" r="2.5625">
   <stop id="stop5471" style="stop-color:#fff" offset="0"/>
   <stop id="stop5473" style="stop-color:#c3c5c0" offset="1"/>
  </radialGradient>
  <linearGradient id="linearGradient6033" y2="32.442" xlink:href="#linearGradient5455" gradientUnits="userSpaceOnUse" x2="28.537" gradientTransform="matrix(1.0039 0 0 1 4.8059 .0000019793)" y1="21.924" x1="25.977"/>
  <linearGradient id="linearGradient6031" y2="32.442" xlink:href="#linearGradient5447" gradientUnits="userSpaceOnUse" x2="29.509" gradientTransform="matrix(1.0039 0 0 1 3.8299 .0000019651)" y1="21.924" x1="26.95"/>
  <radialGradient id="radialGradient6037" gradientUnits="userSpaceOnUse" cy="6.5401" cx="24.686" gradientTransform="matrix(.73017 -.0024407 .042932 3.5545 13.62 -20.118)" r="6.5022">
   <stop id="stop5754" style="stop-color:#fff" offset="0"/>
   <stop id="stop5756" style="stop-color:#c0c4be;stop-opacity:0" offset="1"/>
  </radialGradient>
  <linearGradient id="linearGradient5455">
   <stop id="stop5457" style="stop-color:#949791" offset="0"/>
   <stop id="stop5459" style="stop-color:#555753" offset="1"/>
  </linearGradient>
  <linearGradient id="linearGradient6146" y2="32.442" xlink:href="#linearGradient5455" gradientUnits="userSpaceOnUse" x2="28.537" gradientTransform="matrix(.98726 0 0 .97620 4.3356 1.2591)" y1="21.924" x1="25.977"/>
  <linearGradient id="linearGradient5447">
   <stop id="stop5449" style="stop-color:#e4e5e3" offset="0"/>
   <stop id="stop5451" style="stop-color:#afb4ab" offset="1"/>
  </linearGradient>
  <linearGradient id="linearGradient6144" y2="32.442" xlink:href="#linearGradient5447" gradientUnits="userSpaceOnUse" x2="29.509" gradientTransform="matrix(.98726 0 0 .97620 3.3758 1.2591)" y1="21.924" x1="26.95"/>
  <linearGradient id="linearGradient6151" y2="18.001" gradientUnits="userSpaceOnUse" x2="34.987" gradientTransform="matrix(.99762 0 0 .99990 4.0514 -.86971)" y1="3.3461" x1="26.537">
   <stop id="stop5524" style="stop-color:#aeafac" offset="0"/>
   <stop id="stop5526" style="stop-color:#5e5f5b" offset="1"/>
  </linearGradient>
  <linearGradient id="linearGradient6149" y2="15.312" gradientUnits="userSpaceOnUse" x2="35.84" gradientTransform="matrix(.99762 0 0 .99990 4.0514 -.86971)" y1="3.3461" x1="26.537">
   <stop id="stop5490" style="stop-color:#e2e4e1" offset="0"/>
   <stop id="stop5492" style="stop-color:#8e968a" offset="1"/>
  </linearGradient>
  <linearGradient id="linearGradient5924" y2="25.14" gradientUnits="userSpaceOnUse" x2="29.421" y1="44.087" x1="22.436">
   <stop id="stop5768" style="stop-color:#fff" offset="0"/>
   <stop id="stop5770" style="stop-color:#fff;stop-opacity:0" offset="1"/>
  </linearGradient>
  <radialGradient id="radialGradient5922" gradientUnits="userSpaceOnUse" cy="37.04" cx="28.417" gradientTransform="matrix(1 0 0 .51590 0 17.931)" r="12.507">
   <stop id="stop5786" style="stop-opacity:.30534" offset="0"/>
   <stop id="stop5788" style="stop-opacity:0" offset="1"/>
  </radialGradient>
  <radialGradient id="radialGradient5920" gradientUnits="userSpaceOnUse" cy="34.234" cx="22.667" gradientTransform="matrix(1 0 0 .53451 0 17.242)" r="13.007">
   <stop id="stop4441" style="stop-color:#7b7e77" offset="0"/>
   <stop id="stop4443" style="stop-color:#383a37" offset="1"/>
  </radialGradient>
  <radialGradient id="radialGradient5918" gradientUnits="userSpaceOnUse" cy="37.04" cx="28.417" gradientTransform="matrix(1 0 0 .51590 0 17.931)" r="12.507">
   <stop id="stop4461" style="stop-opacity:.62595" offset="0"/>
   <stop id="stop4463" style="stop-opacity:0" offset="1"/>
  </radialGradient>
  <linearGradient id="linearGradient6163" y2="43.313" gradientUnits="userSpaceOnUse" x2="21.779" gradientTransform="matrix(1.0194 0 0 .88223 -.72943 5.1374)" y1="44.188" x1="5.6109">
   <stop id="stop6159" style="stop-color:#555753;stop-opacity:0" offset="0"/>
   <stop id="stop6161" style="stop-color:#383a37" offset="1"/>
  </linearGradient>
  <linearGradient id="linearGradient4570" y2="15.092" gradientUnits="userSpaceOnUse" x2=".96648" gradientTransform="matrix(1.0063 0 0 1.0088 14.489 17.298)" y1="1.6868" x1="-3.5967">
   <stop id="stop4109" style="stop-color:#fff;stop-opacity:.51908" offset="0"/>
   <stop id="stop4111" style="stop-color:#fff;stop-opacity:0" offset="1"/>
  </linearGradient>
  <radialGradient id="radialGradient4575" gradientUnits="userSpaceOnUse" cy="16.755" cx=".044194" r="10.444">
   <stop id="stop4072" style="stop-color:#f13737" offset="0"/>
   <stop id="stop4074" style="stop-color:#e11010" offset="1"/>
  </radialGradient>
  <radialGradient id="radialGradient4577" gradientUnits="userSpaceOnUse" cy="11.098" cx=".044194" r="9.9437">
   <stop id="stop4123" style="stop-color:#ef2929" offset="0"/>
   <stop id="stop4125" style="stop-color:#ef2929;stop-opacity:0" offset="1"/>
  </radialGradient>
 </defs>
 <g id="layer1">
  <rect id="rect2628" style="color:#000000;fill:#747671" rx="0" ry="0" height="2" width="3" y="26" x="30"/>
  <path id="path4117" style="fill:url(#radialGradient4577)" d="m9.9879 11.098a9.9437 9.9437 0 1 1 -19.887 0 9.9437 9.9437 0 1 1 19.887 0z" transform="matrix(1.3576 0 0 1.3576 14.44 13.433)"/>
  <path id="path3099" style="stroke:#c00;stroke-linecap:round;stroke-width:.99437;fill:url(#radialGradient4575)" d="m9.9879 11.098a9.9437 9.9437 0 1 1 -19.887 0 9.9437 9.9437 0 1 1 19.887 0z" transform="matrix(1.0057 0 0 1.0057 14.456 17.339)"/>
  <path id="path4078" style="stroke-opacity:.54386;stroke:#fff;stroke-linecap:round;stroke-width:1.1049;fill:none" d="m9.9879 11.098a9.9437 9.9437 0 1 1 -19.887 0 9.9437 9.9437 0 1 1 19.887 0z" transform="matrix(.90510 0 0 .90510 14.46 18.455)"/>
  <path id="path4084" style="fill:url(#linearGradient4570)" d="m18.826 24.456c-3.311 0.621-5.894 4.314-9.1828 5.315-2.188 0.666-4.6432-0.255-4.6432-1.275 0-5.242 4.2436-9.496 9.472-9.496 2.615 0 4.983 1.064 6.697 2.782 0.858 0.86 1.551 1.883 2.031 3.019-0.766-0.023-1.601-0.865-4.374-0.345z"/>
  <path id="path5942" style="stroke:url(#linearGradient6163);stroke-width:1px;fill:none" d="m29.5 43.469s-1.323 1.133-2.997 1.795c-1.673 0.662-3.697 0.852-5.099-1.035-3.515-4.733-5.777-2.189-4.555-0.665 2.706 3.374-2.626 2.936-11.349 2.936"/>
  <path id="path4447" style="fill:url(#radialGradient5918)" d="m40.924 37.04a12.507 6.4523 0 1 1 -25.014 0 12.507 6.4523 0 1 1 25.014 0z" transform="matrix(1.2793 0 0 1.2399 -4.3534 -7.9242)"/>
  <path id="path4435" style="stroke:#2e3436;stroke-linecap:round;stroke-width:1.0172;fill:url(#radialGradient5920)" d="m40.924 37.04a12.507 6.4523 0 1 1 -25.014 0 12.507 6.4523 0 1 1 25.014 0z" transform="matrix(.95947 0 0 1.0074 4.235 -.31338)"/>
  <path id="path5530" style="fill:url(#radialGradient5922)" d="m40.924 37.04a12.507 6.4523 0 1 1 -25.014 0 12.507 6.4523 0 1 1 25.014 0z" transform="matrix(.47723 0 0 .45796 18.47 18.992)"/>
  <path id="path4437" style="stroke-opacity:.38012;stroke:url(#linearGradient5924);stroke-linecap:round;stroke-width:1.1549;fill:none" d="m40.924 37.04a12.507 6.4523 0 1 1 -25.014 0 12.507 6.4523 0 1 1 25.014 0z" transform="matrix(.87951 0 0 .85240 6.5071 5.4271)"/>
  <rect id="rect5463" style="stroke:url(#linearGradient6151);stroke-linecap:round;fill:url(#linearGradient6149)" transform="matrix(.97764 .21027 -.20133 .97952 0 0)" rx="6.7873" ry="6.4573" height="25.192" width="13.575" y="-5.7428" x="27.867"/>
  <path id="path5504" style="stroke-width:1px;fill-rule:evenodd;color:#000000;stroke:url(#linearGradient6146);fill:url(#linearGradient6144)" d="m32.5 35.65v-8.15l-1.975 0.021s-0.057 8.146 0 8.129c0.101 1.105 1.743 1.161 1.975 0z"/>
  <rect id="rect5538" style="fill-opacity:.33333;color:#000000;fill-rule:evenodd;fill:#2e3436" rx="15.551" ry="1" height="1" width="1" y="3" x="33"/>
  <rect id="rect5540" style="fill-opacity:.33333;color:#000000;fill-rule:evenodd;fill:#2e3436" rx="15.551" ry="1" height="1" width="1" y="4" x="32"/>
  <rect id="rect5542" style="fill-opacity:.33333;color:#000000;fill-rule:evenodd;fill:#2e3436" rx="15.551" ry="1" height="1" width="1" y="5" x="33"/>
  <rect id="rect5544" style="fill-opacity:.33333;color:#000000;fill-rule:evenodd;fill:#2e3436" rx="15.551" ry="1" height="1" width="1" y="4" x="34"/>
  <rect id="rect5546" style="fill-opacity:.33333;color:#000000;fill-rule:evenodd;fill:#2e3436" rx="15.551" ry="1" height="1" width="1" y="5" x="35"/>
  <rect id="rect5548" style="fill-opacity:.33333;color:#000000;fill-rule:evenodd;fill:#2e3436" rx="15.551" ry="1" height="1" width="1" y="4" x="36"/>
  <rect id="rect5550" style="fill-opacity:.33333;color:#000000;fill-rule:evenodd;fill:#2e3436" rx="15.551" ry="1" height="1" width="1" y="4" x="30"/>
  <rect id="rect5552" style="fill-opacity:.33333;color:#000000;fill-rule:evenodd;fill:#2e3436" rx="15.551" ry="1" height="1" width="1" y="5" x="31"/>
  <rect id="rect5554" style="fill-opacity:.33333;color:#000000;fill-rule:evenodd;fill:#2e3436" rx="15.551" ry="1" height="1" width="1" y="5" x="29"/>
  <rect id="rect5556" style="fill-opacity:.33333;color:#000000;fill-rule:evenodd;fill:#2e3436" rx="15.551" ry="1" height="1" width="1" y="6" x="30"/>
  <rect id="rect5558" style="fill-opacity:.33333;color:#000000;fill-rule:evenodd;fill:#2e3436" rx="15.551" ry="1" height="1" width="1" y="6" x="32"/>
  <rect id="rect5560" style="fill-opacity:.33333;color:#000000;fill-rule:evenodd;fill:#2e3436" rx="15.551" ry="1" height="1" width="1" y="6" x="34"/>
  <rect id="rect5562" style="fill-opacity:.33333;color:#000000;fill-rule:evenodd;fill:#2e3436" rx="15.551" ry="1" height="1" width="1" y="6" x="36"/>
  <rect id="rect5564" style="fill-opacity:.33333;color:#000000;fill-rule:evenodd;fill:#2e3436" rx="15.551" ry="1" height="1" width="1" y="7" x="37"/>
  <rect id="rect5566" style="fill-opacity:.33333;color:#000000;fill-rule:evenodd;fill:#2e3436" rx="15.551" ry="1" height="1" width="1" y="6" x="38"/>
  <rect id="rect5568" style="fill-opacity:.33333;color:#000000;fill-rule:evenodd;fill:#2e3436" rx="15.551" ry="1" height="1" width="1" y="7" x="29"/>
  <rect id="rect5570" style="fill-opacity:.33333;color:#000000;fill-rule:evenodd;fill:#2e3436" rx="15.551" ry="1" height="1" width="1" y="8" x="28"/>
  <rect id="rect5572" style="fill-opacity:.33333;color:#000000;fill-rule:evenodd;fill:#2e3436" rx="15.551" ry="1" height="1" width="1" y="8" x="30"/>
  <rect id="rect5574" style="fill-opacity:.33333;color:#000000;fill-rule:evenodd;fill:#2e3436" rx="15.551" ry="1" height="1" width="1" y="7" x="31"/>
  <rect id="rect5576" style="fill-opacity:.33333;color:#000000;fill-rule:evenodd;fill:#2e3436" rx="15.551" ry="1" height="1" width="1" y="7" x="33"/>
  <rect id="rect5578" style="fill-opacity:.33333;color:#000000;fill-rule:evenodd;fill:#2e3436" rx="15.551" ry="1" height="1" width="1" y="7" x="35"/>
  <rect id="rect5580" style="fill-opacity:.33333;color:#000000;fill-rule:evenodd;fill:#2e3436" rx="15.551" ry="1" height="1" width="1" y="8" x="32"/>
  <rect id="rect5582" style="fill-opacity:.33333;color:#000000;fill-rule:evenodd;fill:#2e3436" rx="15.551" ry="1" height="1" width="1" y="8" x="34"/>
  <rect id="rect5584" style="fill-opacity:.33333;color:#000000;fill-rule:evenodd;fill:#2e3436" rx="15.551" ry="1" height="1" width="1" y="8" x="36"/>
  <rect id="rect5586" style="fill-opacity:.33333;color:#000000;fill-rule:evenodd;fill:#2e3436" rx="15.551" ry="1" height="1" width="1" y="8" x="38"/>
  <rect id="rect5588" style="fill-opacity:.33333;color:#000000;fill-rule:evenodd;fill:#2e3436" rx="15.551" ry="1" height="1" width="1" y="10" x="38"/>
  <rect id="rect5590" style="fill-opacity:.33333;color:#000000;fill-rule:evenodd;fill:#2e3436" rx="15.551" ry="1" height="1" width="1" y="11" x="37"/>
  <rect id="rect5592" style="fill-opacity:.33333;color:#000000;fill-rule:evenodd;fill:#2e3436" rx="15.551" ry="1" height="1" width="1" y="12" x="36"/>
  <rect id="rect5594" style="fill-opacity:.33333;color:#000000;fill-rule:evenodd;fill:#2e3436" rx="15.551" ry="1" height="1" width="1" y="13" x="35"/>
  <rect id="rect5596" style="fill-opacity:.33333;color:#000000;fill-rule:evenodd;fill:#2e3436" rx="15.551" ry="1" height="1" width="1" y="10" x="36"/>
  <rect id="rect5598" style="fill-opacity:.33333;color:#000000;fill-rule:evenodd;fill:#2e3436" rx="15.551" ry="1" height="1" width="1" y="11" x="35"/>
  <rect id="rect5600" style="fill-opacity:.33333;color:#000000;fill-rule:evenodd;fill:#2e3436" rx="15.551" ry="1" height="1" width="1" y="12" x="34"/>
  <rect id="rect5602" style="fill-opacity:.33333;color:#000000;fill-rule:evenodd;fill:#2e3436" rx="15.551" ry="1" height="1" width="1" y="13" x="33"/>
  <rect id="rect5604" style="fill-opacity:.33333;color:#000000;fill-rule:evenodd;fill:#2e3436" rx="15.551" ry="1" height="1" width="1" y="10" x="34"/>
  <rect id="rect5606" style="fill-opacity:.33333;color:#000000;fill-rule:evenodd;fill:#2e3436" rx="15.551" ry="1" height="1" width="1" y="11" x="33"/>
  <rect id="rect5608" style="fill-opacity:.33333;color:#000000;fill-rule:evenodd;fill:#2e3436" rx="15.551" ry="1" height="1" width="1" y="12" x="32"/>
  <rect id="rect5610" style="fill-opacity:.33333;color:#000000;fill-rule:evenodd;fill:#2e3436" rx="15.551" ry="1" height="1" width="1" y="13" x="31"/>
  <rect id="rect5612" style="fill-opacity:.33333;color:#000000;fill-rule:evenodd;fill:#2e3436" rx="15.551" ry="1" height="1" width="1" y="10" x="32"/>
  <rect id="rect5614" style="fill-opacity:.33333;color:#000000;fill-rule:evenodd;fill:#2e3436" rx="15.551" ry="1" height="1" width="1" y="11" x="31"/>
  <rect id="rect5616" style="fill-opacity:.33333;color:#000000;fill-rule:evenodd;fill:#2e3436" rx="15.551" ry="1" height="1" width="1" y="12" x="30"/>
  <rect id="rect5618" style="fill-opacity:.33333;color:#000000;fill-rule:evenodd;fill:#2e3436" rx="15.551" ry="1" height="1" width="1" y="13" x="29"/>
  <rect id="rect5620" style="fill-opacity:.33333;color:#000000;fill-rule:evenodd;fill:#2e3436" rx="15.551" ry="1" height="1" width="1" y="10" x="30"/>
  <rect id="rect5622" style="fill-opacity:.33333;color:#000000;fill-rule:evenodd;fill:#2e3436" rx="15.551" ry="1" height="1" width="1" y="11" x="29"/>
  <rect id="rect5624" style="fill-opacity:.33333;color:#000000;fill-rule:evenodd;fill:#2e3436" rx="15.551" ry="1" height="1" width="1" y="12" x="28"/>
  <rect id="rect5626" style="fill-opacity:.33333;color:#000000;fill-rule:evenodd;fill:#2e3436" rx="15.551" ry="1" height="1" width="1" y="13" x="27"/>
  <rect id="rect5628" style="fill-opacity:.33333;color:#000000;fill-rule:evenodd;fill:#2e3436" rx="15.551" ry="1" height="1" width="1" y="14" x="30"/>
  <rect id="rect5630" style="fill-opacity:.33333;color:#000000;fill-rule:evenodd;fill:#2e3436" rx="15.551" ry="1" height="1" width="1" y="15" x="29"/>
  <rect id="rect5632" style="fill-opacity:.33333;color:#000000;fill-rule:evenodd;fill:#2e3436" rx="15.551" ry="1" height="1" width="1" y="16" x="28"/>
  <rect id="rect5634" style="fill-opacity:.33333;color:#000000;fill-rule:evenodd;fill:#2e3436" rx="15.551" ry="1" height="1" width="1" y="17" x="27"/>
  <rect id="rect5636" style="fill-opacity:.33333;color:#000000;fill-rule:evenodd;fill:#2e3436" rx="15.551" ry="1" height="1" width="1" y="14" x="32"/>
  <rect id="rect5638" style="fill-opacity:.33333;color:#000000;fill-rule:evenodd;fill:#2e3436" rx="15.551" ry="1" height="1" width="1" y="15" x="31"/>
  <rect id="rect5640" style="fill-opacity:.33333;color:#000000;fill-rule:evenodd;fill:#2e3436" rx="15.551" ry="1" height="1" width="1" y="16" x="30"/>
  <rect id="rect5642" style="fill-opacity:.33333;color:#000000;fill-rule:evenodd;fill:#2e3436" rx="15.551" ry="1" height="1" width="1" y="17" x="29"/>
  <rect id="rect5644" style="fill-opacity:.33333;color:#000000;fill-rule:evenodd;fill:#2e3436" rx="15.551" ry="1" height="1" width="1" y="14" x="34"/>
  <rect id="rect5646" style="fill-opacity:.33333;color:#000000;fill-rule:evenodd;fill:#2e3436" rx="15.551" ry="1" height="1" width="1" y="15" x="33"/>
  <rect id="rect5648" style="fill-opacity:.33333;color:#000000;fill-rule:evenodd;fill:#2e3436" rx="15.551" ry="1" height="1" width="1" y="16" x="32"/>
  <rect id="rect5650" style="fill-opacity:.33333;color:#000000;fill-rule:evenodd;fill:#2e3436" rx="15.551" ry="1" height="1" width="1" y="17" x="31"/>
  <rect id="rect5652" style="fill-opacity:.33333;color:#000000;fill-rule:evenodd;fill:#2e3436" rx="15.551" ry="1" height="1" width="1" y="15" x="35"/>
  <rect id="rect5654" style="fill-opacity:.33333;color:#000000;fill-rule:evenodd;fill:#2e3436" rx="15.551" ry="1" height="1" width="1" y="16" x="34"/>
  <rect id="rect5656" style="fill-opacity:.33333;color:#000000;fill-rule:evenodd;fill:#2e3436" rx="15.551" ry="1" height="1" width="1" y="17" x="33"/>
  <rect id="rect5658" style="fill-opacity:.33333;color:#000000;fill-rule:evenodd;fill:#2e3436" rx="15.551" ry="1" height="1" width="1" y="18" x="32"/>
  <rect id="rect5660" style="fill-opacity:.33333;color:#000000;fill-rule:evenodd;fill:#2e3436" rx="15.551" ry="1" height="1" width="1" y="17" x="35"/>
  <rect id="rect5662" style="fill-opacity:.33333;color:#000000;fill-rule:evenodd;fill:#2e3436" rx="15.551" ry="1" height="1" width="1" y="18" x="34"/>
  <rect id="rect5664" style="fill-opacity:.33333;color:#000000;fill-rule:evenodd;fill:#2e3436" rx="15.551" ry="1" height="1" width="1" y="19" x="33"/>
  <rect id="rect5666" style="fill-opacity:.33333;color:#000000;fill-rule:evenodd;fill:#2e3436" rx="15.551" ry="1" height="1" width="1" y="20" x="32"/>
  <rect id="rect5668" style="fill-opacity:.33333;color:#000000;fill-rule:evenodd;fill:#2e3436" rx="15.551" ry="1" height="1" width="1" y="18" x="36"/>
  <rect id="rect5670" style="fill-opacity:.33333;color:#000000;fill-rule:evenodd;fill:#2e3436" rx="15.551" ry="1" height="1" width="1" y="19" x="35"/>
  <rect id="rect5672" style="fill-opacity:.33333;color:#000000;fill-rule:evenodd;fill:#2e3436" rx="15.551" ry="1" height="1" width="1" y="20" x="34"/>
  <rect id="rect5674" style="fill-opacity:.33333;color:#000000;fill-rule:evenodd;fill:#2e3436" rx="15.551" ry="1" height="1" width="1" y="21" x="33"/>
  <rect id="rect5676" style="fill-opacity:.33333;color:#000000;fill-rule:evenodd;fill:#2e3436" rx="15.551" ry="1" height="1" width="1" y="20" x="36"/>
  <rect id="rect5678" style="fill-opacity:.33333;color:#000000;fill-rule:evenodd;fill:#2e3436" rx="15.551" ry="1" height="1" width="1" y="21" x="35"/>
  <rect id="rect5680" style="fill-opacity:.33333;color:#000000;fill-rule:evenodd;fill:#2e3436" rx="15.551" ry="1" height="1" width="1" y="22" x="34"/>
  <rect id="rect5682" style="fill-opacity:.33333;color:#000000;fill-rule:evenodd;fill:#2e3436" rx="15.551" ry="1" height="1" width="1" y="23" x="33"/>
  <rect id="rect5684" style="fill-opacity:.33333;color:#000000;fill-rule:evenodd;fill:#2e3436" rx="15.551" ry="1" height="1" width="1" y="18" x="30"/>
  <rect id="rect5686" style="fill-opacity:.33333;color:#000000;fill-rule:evenodd;fill:#2e3436" rx="15.551" ry="1" height="1" width="1" y="19" x="29"/>
  <rect id="rect5688" style="fill-opacity:.33333;color:#000000;fill-rule:evenodd;fill:#2e3436" rx="15.551" ry="1" height="1" width="1" y="20" x="28"/>
  <rect id="rect5690" style="fill-opacity:.33333;color:#000000;fill-rule:evenodd;fill:#2e3436" rx="15.551" ry="1" height="1" width="1" y="21" x="27"/>
  <rect id="rect5692" style="fill-opacity:.33333;color:#000000;fill-rule:evenodd;fill:#2e3436" rx="15.551" ry="1" height="1" width="1" y="19" x="31"/>
  <rect id="rect5694" style="fill-opacity:.33333;color:#000000;fill-rule:evenodd;fill:#2e3436" rx="15.551" ry="1" height="1" width="1" y="20" x="30"/>
  <rect id="rect5696" style="fill-opacity:.33333;color:#000000;fill-rule:evenodd;fill:#2e3436" rx="15.551" ry="1" height="1" width="1" y="21" x="29"/>
  <rect id="rect5698" style="fill-opacity:.33333;color:#000000;fill-rule:evenodd;fill:#2e3436" rx="15.551" ry="1" height="1" width="1" y="22" x="28"/>
  <rect id="rect5700" style="fill-opacity:.33333;color:#000000;fill-rule:evenodd;fill:#2e3436" rx="15.551" ry="1" height="1" width="1" y="14" x="28"/>
  <rect id="rect5702" style="fill-opacity:.33333;color:#000000;fill-rule:evenodd;fill:#2e3436" rx="15.551" ry="1" height="1" width="1" y="15" x="27"/>
  <rect id="rect5704" style="fill-opacity:.33333;color:#000000;fill-rule:evenodd;fill:#2e3436" rx="15.551" ry="1" height="1" width="1" y="16" x="26"/>
  <rect id="rect5706" style="fill-opacity:.33333;color:#000000;fill-rule:evenodd;fill:#2e3436" rx="15.551" ry="1" height="1" width="1" y="18" x="28"/>
  <rect id="rect5708" style="fill-opacity:.33333;color:#000000;fill-rule:evenodd;fill:#2e3436" rx="15.551" ry="1" height="1" width="1" y="19" x="27"/>
  <rect id="rect5710" style="fill-opacity:.33333;color:#000000;fill-rule:evenodd;fill:#2e3436" rx="15.551" ry="1" height="1" width="1" y="20" x="26"/>
  <rect id="rect5712" style="fill-opacity:.33333;color:#000000;fill-rule:evenodd;fill:#2e3436" rx="15.551" ry="1" height="1" width="1" y="21" x="31"/>
  <rect id="rect5714" style="fill-opacity:.33333;color:#000000;fill-rule:evenodd;fill:#2e3436" rx="15.551" ry="1" height="1" width="1" y="22" x="30"/>
  <rect id="rect5716" style="fill-opacity:.33333;color:#000000;fill-rule:evenodd;fill:#2e3436" rx="15.551" ry="1" height="1" width="1" y="23" x="29"/>
  <rect id="rect5718" style="fill-opacity:.33333;color:#000000;fill-rule:evenodd;fill:#2e3436" rx="15.551" ry="1" height="1" width="1" y="22" x="32"/>
  <rect id="rect5720" style="fill-opacity:.33333;color:#000000;fill-rule:evenodd;fill:#2e3436" rx="15.551" ry="1" height="1" width="1" y="23" x="31"/>
  <rect id="rect5722" style="fill-opacity:.33333;color:#000000;fill-rule:evenodd;fill:#2e3436" rx="15.551" ry="1" height="1" width="1" y="24" x="30"/>
  <rect id="rect5724" style="fill-opacity:.33333;color:#000000;fill-rule:evenodd;fill:#2e3436" rx="15.551" ry="1" height="1" width="1" y="23" x="27"/>
  <rect id="rect5726" style="fill-opacity:.33333;color:#000000;fill-rule:evenodd;fill:#2e3436" rx="15.551" ry="1" height="1" width="1" y="18" x="26"/>
  <rect id="rect5728" style="fill-opacity:.33333;color:#000000;fill-rule:evenodd;fill:#2e3436" rx="15.551" ry="1" height="1" width="1" y="24" x="32"/>
  <rect id="rect5730" style="fill-opacity:.33333;color:#000000;fill-rule:evenodd;fill:#2e3436" rx="15.551" ry="1" height="1" width="1" y="10" x="28"/>
  <rect id="rect5732" style="fill-opacity:.33333;color:#000000;fill-rule:evenodd;fill:#2e3436" rx="15.551" ry="1" height="1" width="1" y="9" x="29"/>
  <rect id="rect5734" style="fill-opacity:.33333;color:#000000;fill-rule:evenodd;fill:#2e3436" rx="15.551" ry="1" height="1" width="1" y="9" x="31"/>
  <rect id="rect5736" style="fill-opacity:.33333;color:#000000;fill-rule:evenodd;fill:#2e3436" rx="15.551" ry="1" height="1" width="1" y="9" x="33"/>
  <rect id="rect5738" style="fill-opacity:.33333;color:#000000;fill-rule:evenodd;fill:#2e3436" rx="15.551" ry="1" height="1" width="1" y="9" x="35"/>
  <rect id="rect5740" style="fill-opacity:.33333;color:#000000;fill-rule:evenodd;fill:#2e3436" rx="15.551" ry="1" height="1" width="1" y="9" x="37"/>
  <rect id="rect5742" style="fill-opacity:.33333;color:#000000;fill-rule:evenodd;fill:#2e3436" rx="15.551" ry="1" height="1" width="1" y="5" x="37"/>
  <rect id="rect5477" style="stroke-opacity:.43275;stroke:#fff;stroke-linecap:round;stroke-width:1.0003;fill:none" transform="matrix(.97023 .24220 -.21059 .97757 0 0)" rx="5.8462" ry="5.94" height="23.174" width="11.692" y="-5.8722" x="28.892"/>
  <rect id="rect5746" style="fill:url(#radialGradient6037)" transform="matrix(.97659 .21509 -.19680 .98044 0 0)" rx="6.3699" ry="6.1932" height="24.162" width="12.74" y="-5.3979" x="28.256"/>
  <path id="path5467" style="stroke:#555753;stroke-linecap:round;stroke-width:1.0313;fill:none" d="m36.562 15.25a2.0625 2.0625 0 1 1 -4.124 0 2.0625 2.0625 0 1 1 4.124 0z" transform="matrix(.96970 0 0 .96970 5.0455 .71212)"/>
  <path id="path4467" style="stroke-width:1px;fill-rule:evenodd;color:#000000;stroke:url(#linearGradient6033);fill:url(#linearGradient6031)" d="m33.13 27.131l3.349 1.117s1.638 0.513 2.391 0.05 0.621-1.902 0.621-1.902l-0.022-9.964-1.982-0.733-0.044 10.709s-1.547-0.435-1.574-0.411c-0.697 0.609-2.739 1.134-2.739 1.134z"/>
  <path id="path5776" style="stroke:#959691;stroke-linecap:round;stroke-width:1.8542;fill:url(#radialGradient5940)" d="m36.562 15.25a2.0625 2.0625 0 1 1 -4.124 0 2.0625 2.0625 0 1 1 4.124 0z" transform="matrix(.53931 0 0 .53931 19.906 7.3264)"/>
 </g>
</svg>
