<?xml version="1.0" encoding="UTF-8" standalone="no"?>
<!-- Created with Inkscape (http://www.inkscape.org/) -->
<svg id="svg3539" xmlns:rdf="http://www.w3.org/1999/02/22-rdf-syntax-ns#" xmlns="http://www.w3.org/2000/svg" height="48px" width="48px" xmlns:cc="http://web.resource.org/cc/" xmlns:xlink="http://www.w3.org/1999/xlink" xmlns:dc="http://purl.org/dc/elements/1.1/">
 <defs id="defs3541">
  <radialGradient id="radialGradient4312" gradientUnits="userSpaceOnUse" cy="33.637" cx="20.153" gradientTransform="matrix(1 0 0 .25722 0 24.985)" r="15.291">
   <stop id="stop2875" style="stop-color:#939393" offset="0"/>
   <stop id="stop2877" style="stop-color:#fff;stop-opacity:0" offset="1"/>
  </radialGradient>
  <radialGradient id="radialGradient6693" gradientUnits="userSpaceOnUse" cy="40.438" cx="23.562" gradientTransform="matrix(1 0 0 .34824 0 26.355)" r="19.562">
   <stop id="stop2867" style="stop-opacity:.19531" offset="0"/>
   <stop id="stop2869" style="stop-opacity:0" offset="1"/>
  </radialGradient>
  <linearGradient id="linearGradient4770" y2="96.991" gradientUnits="userSpaceOnUse" x2="129.51" gradientTransform="matrix(.81360 0 0 .81201 -59.398 -54.271)" y1="96.991" x1="75.414">
   <stop id="stop2632" style="stop-color:#fff;stop-opacity:.26562" offset="0"/>
   <stop id="stop2634" style="stop-color:#fff;stop-opacity:.70312" offset="1"/>
  </linearGradient>
  <linearGradient id="linearGradient6895" y2="60.122" gradientUnits="userSpaceOnUse" x2="45.266" y1="11.02" x1="23.277">
   <stop id="stop6891" style="stop-color:#fff" offset="0"/>
   <stop id="stop6893" style="stop-color:#f3f5f2" offset="1"/>
  </linearGradient>
  <linearGradient id="linearGradient6911" y2="8.02" gradientUnits="userSpaceOnUse" x2="22.899" y1="41.112" x1="23.995">
   <stop id="stop6907" style="stop-color:#b388af" offset="0"/>
   <stop id="stop6909" style="stop-color:#dcc7d9" offset="1"/>
  </linearGradient>
  <linearGradient id="linearGradient3513" y2="14.691" gradientUnits="userSpaceOnUse" x2="30.432" y1="11.252" x1="26.993">
   <stop id="stop2277" style="stop-color:#fce94f" offset="0"/>
   <stop id="stop2279" style="stop-color:#c4a000" offset="1"/>
  </linearGradient>
  <linearGradient id="linearGradient3517" y2="21.5" gradientUnits="userSpaceOnUse" x2="16.656" y1="22.89" x1="18.159">
   <stop id="stop3430" offset="0"/>
   <stop id="stop3432" style="stop-color:#fff" offset="1"/>
  </linearGradient>
  <linearGradient id="linearGradient3523" y2="55.2" gradientUnits="userSpaceOnUse" x2="12.721" y1="59.778" x1="18.94">
   <stop id="stop3487" style="stop-color:#434542" offset="0"/>
   <stop id="stop3489" style="stop-color:#cdcfcc" offset="1"/>
  </linearGradient>
  <linearGradient id="linearGradient3566" y2="54.226" gradientUnits="userSpaceOnUse" x2="16.77" y1="57.101" x1="19.773">
   <stop id="stop3562" style="stop-color:red" offset="0"/>
   <stop id="stop3564" style="stop-color:#ffdfdf" offset="1"/>
  </linearGradient>
 </defs>
 <metadata id="metadata3544">
  <rdf:RDF>
   <cc:Work rdf:about="">
    <dc:format>image/svg+xml</dc:format>
    <dc:type rdf:resource="http://purl.org/dc/dcmitype/StillImage"/>
    <dc:contributor>
     <cc:Agent>
      <dc:title>This icon follows the Tango visual guidelines.
http://tango.freedesktop.org/
The pencil is based on the pencil created by Lapo Calamandrei for the GNOME icon theme.</dc:title>
     </cc:Agent>
    </dc:contributor>
    <cc:license rdf:resource="http://www.gnu.org/copyleft/gpl.html"/>
    <dc:title>GNOME Sudoku</dc:title>
    <dc:date/>
    <dc:creator>
     <cc:Agent>
      <dc:title>Stephen Brandt</dc:title>
     </cc:Agent>
    </dc:creator>
    <dc:rights>
     <cc:Agent>
      <dc:title/>
     </cc:Agent>
    </dc:rights>
    <dc:identifier>http://www.stephenbrandt.com/</dc:identifier>
    <dc:relation>http://gnome-sudoku.sourceforge.net/</dc:relation>
    <dc:description/>
   </cc:Work>
   <cc:License rdf:about="http://creativecommons.org/licenses/GPL/2.0/">
    <cc:permits rdf:resource="http://web.resource.org/cc/Reproduction"/>
    <cc:permits rdf:resource="http://web.resource.org/cc/Distribution"/>
    <cc:requires rdf:resource="http://web.resource.org/cc/Notice"/>
    <cc:permits rdf:resource="http://web.resource.org/cc/DerivativeWorks"/>
    <cc:requires rdf:resource="http://web.resource.org/cc/ShareAlike"/>
    <cc:requires rdf:resource="http://web.resource.org/cc/SourceCode"/>
   </cc:License>
  </rdf:RDF>
 </metadata>
 <g id="layer1">
  <path id="path4310" style="color:black;fill-rule:evenodd;fill:url(#radialGradient4312)" d="m35.444 33.637a15.291 3.9333 0 1 1 -30.583 0 15.291 3.9333 0 1 1 30.583 0z" transform="matrix(1.5659 0 0 1.28 -7.5655 -3.4344)"/>
  <path id="path4736" style="fill-rule:evenodd;stroke:#75507b;stroke-miterlimit:12;fill:url(#linearGradient6911)" d="m9.7584 9.0657c-0.7886 0.7871-9.0659 29.928-8.136 30.856 0.9532 0.952 43.858 0.889 44.748 0 0.916-0.913-7.396-30.118-8.136-30.856-0.716-0.7157-27.734-0.7401-28.476-0.0003z"/>
  <path id="path4754" style="stroke:url(#linearGradient4770);stroke-miterlimit:12;fill:none" d="m10.236 9.7635c-0.7594 0.7505-8.2428 28.724-7.8553 29.458 0.3666 0.693 42.545 0.659 43.149 0.015 0.628-0.668-7.143-28.769-7.856-29.474-0.69-0.6822-26.723-0.7054-27.438 0.0005z"/>
  <path id="path4818" style="fill-rule:evenodd;stroke:#9b6fa2;stroke-width:2;fill:url(#linearGradient6895)" d="m11.877 12.02l24.297 0.022 4.645 24.013-33.601 0.045 4.659-24.08z"/>
  <path id="path4820" style="stroke:#babdb6;stroke-width:1px;fill:none" d="m11.003 19.47l26.116 0.051 1.34 6.966h-28.874l1.418-7.017z"/>
  <path id="path4822" style="stroke:#babdb6;stroke-width:1px;fill:none" d="m20.01 12.554l-1.729 22.985 11.408-0.016-1.576-22.969h-8.103z"/>
  <path id="path8451" style="stroke:#eeeeec;fill:none" d="m12.307 12.504l23.441 0.058 4.452 22.983-32.364 0.044 4.471-23.085z"/>
  <path id="path2554" style="color:black;fill-rule:evenodd;fill:url(#radialGradient6693)" d="m43.125 40.438a19.562 6.8125 0 1 1 -39.125 0 19.562 6.8125 0 1 1 39.125 0z" transform="matrix(-.69968 0 0 .49969 36.924 12.808)"/>
  <path id="text6059" d="m14.937 13.975h2.017v0.479h-1.606s-0.343 0.982-0.26 0.968 0.165-0.021 0.248-0.021c0.47 0 0.842 0.128 1.116 0.386 0.274 0.257 0.412 0.462 0.412 0.901 0 0.453-0.141 0.661-0.423 0.911-0.282 0.251-0.679 0.377-1.192 0.377-0.177 0-0.357-0.015-0.54-0.045s-0.373-0.076-0.568-0.136v-0.572c0.169 0.092 0.344 0.161 0.524 0.206s0.371 0.068 0.572 0.068c0.325 0 0.583-0.086 0.773-0.257 0.189-0.171 0.284-0.259 0.284-0.552s-0.095-0.381-0.284-0.552c-0.19-0.171-0.448-0.256-0.773-0.256-0.152 0-0.304 0.017-0.455 0.051-0.151 0.033-0.306 0.086-0.464 0.157l0.619-2.113z"/>
  <path id="text6067" d="m31.688 33.01l0.11-0.266c0.198 0.094 0.575 0.519 0.778 0.568 0.203 0.05 1.419 0.075 1.614 0.075 0.521 0 0.919-0.175 1.193-0.526 0.275-0.35 0.204-0.931 0.118-1.551-0.151 0.224-0.564 0.351-0.796 0.471-0.231 0.12-0.488 0.18-0.769 0.18-0.583 0-1.045-0.176-1.385-0.529s-0.51-0.836-0.51-1.448c0-0.599 0.177-1.079 0.532-1.441 0.354-0.362 0.825-0.543 1.414-0.543 0.674 0 1.189 0.258 1.545 0.775 0.355 0.517 0.506 1.186 0.621 2.164 0.094 0.794 0.268 1.741-0.168 2.29-0.436 0.548-0.913 0.837-1.65 0.837-0.198 0-1.328 0.026-1.728-0.074-0.454-0.113-0.638-0.326-0.841-0.498l-0.078-0.484zm2.299-1.666c0.354 0 0.634-0.121 0.841-0.364 0.207-0.242 0.311-0.574 0.311-0.996 0-0.419-0.104-0.75-0.311-0.994-0.207-0.243-0.487-0.365-0.841-0.365-0.355 0-0.635 0.122-0.842 0.365-0.207 0.244-0.311 0.575-0.311 0.994 0 0.422 0.104 0.754 0.311 0.996 0.207 0.243 0.487 0.364 0.842 0.364z"/>
  <path id="text6063" transform="scale(1.1689 .85548)" d="m21.243 26.587c0.314 0.067 0.559 0.207 0.735 0.419s0.264 0.473 0.264 0.785c0 0.478-0.164 0.848-0.493 1.11s-0.796 0.392-1.402 0.392c-0.203 0-0.413-0.02-0.628-0.06s-0.437-0.1-0.667-0.18v-0.632c0.182 0.106 0.381 0.186 0.597 0.24 0.217 0.054 0.443 0.081 0.679 0.081 0.411 0 0.724-0.081 0.939-0.244 0.215-0.162 0.323-0.398 0.323-0.707 0-0.286-0.1-0.509-0.3-0.67s-0.479-0.242-0.836-0.242h-0.564v-0.539h0.59c0.323 0 0.382-0.028 0.553-0.156 0.171-0.129 0.256-0.315 0.256-0.557 0-0.249-0.088-0.44-0.264-0.573s-0.242-0.236-0.571-0.236c-0.179 0-0.158-0.017-0.364 0.022-0.205 0.039-0.431 0.1-0.678 0.182v-0.584c0.249-0.07 0.482-0.121 0.7-0.156 0.217-0.035 0.208-0.015 0.401-0.015 0.497 0 0.704 0.149 0.994 0.375s0.435 0.532 0.435 0.917c0 0.268-0.077 0.495-0.231 0.68-0.153 0.185-0.185 0.277-0.468 0.348z"/>
  <path id="text6075" d="m23.358 17.36l2.721 0.031-0.031 0.609-3.931 0.031v-0.453c0.204-0.211 0.638-0.374 1.023-0.694 0.54-0.45 0.949-0.742 1.039-0.845 0.172-0.194 0.293-0.357 0.361-0.491s0.103-0.266 0.103-0.396c0-0.211-0.075-0.383-0.223-0.517-0.148-0.133-0.341-0.199-0.579-0.199-0.169 0-0.347 0.029-0.534 0.088-0.187 0.058-0.388 0.147-0.601 0.266v-0.543c0.217-0.087 0.419-0.153 0.608-0.197 0.188-0.045 0.36-0.067 0.516-0.067 0.412 0 0.741 0.103 0.986 0.309s0.367 0.481 0.367 0.825c0 0.164-0.03 0.319-0.092 0.465-0.061 0.147-0.172 0.319-0.334 0.518-0.044 0.052-0.185 0.2-0.423 0.446s-0.574 0.59-1.007 1.032l0.031-0.218z"/>
  <g id="g3501" transform="matrix(-.90561 .24360 .24360 .90561 6.1246 -36.672)">
   <g id="layer3" transform="translate(-142 164.88)">
    <g id="g2369" transform="translate(119.41 -108.75)">
     <g id="g2321" transform="translate(-.15625 -.25)">
      <path id="path2273" style="fill-rule:evenodd;stroke:#c4a000;stroke-width:1.0663;fill:url(#linearGradient3513)" d="m19.5 18l17-17 3.5 3.5-17 17-5.5 1.5 2-5z"/>
      <path id="path2313" style="opacity:.28235;stroke:#fff;stroke-width:1.0663;fill:none" d="m20.4 18.5l16.1-16 2 2-16 16.1-3.3 0.9 1.2-3z"/>
      <path id="path2298" style="opacity:.50196;fill:#fff;fill-rule:evenodd" d="m18.346 22.277l1.598-4.009s1.15 0.235 1.853 0.935c0.702 0.7 0.957 1.864 0.957 1.864l-4.408 1.21z"/>
      <path id="path2283" style="fill:url(#linearGradient3517);fill-rule:evenodd" d="m17.562 21.5l-0.906 2.25 2.344-0.656c0.002-0.032 0-0.062 0-0.094 0-0.802-0.645-1.46-1.438-1.5z"/>
     </g>
    </g>
   </g>
   <path id="path3443" style="fill-rule:evenodd;stroke:#c00;stroke-width:1.0663;fill:url(#linearGradient3566)" d="m14.44 56.18l2.812-2.719c1.876-1.593 4.938 1.219 3.438 3.407 0.031 0-2.75 2.812-2.75 2.812l-3.5-3.5z"/>
   <path id="path3445" style="opacity:.28235;stroke:#fff;stroke-width:1.0663;fill:none" d="m15.84 56.118s1.762-1.75 1.85-1.688c1.15-1.188 3.219 0.694 2.062 1.969-0.281 0.4-1.812 1.819-1.812 1.819l-2.1-2.1z"/>
   <path id="path3479" style="stroke:url(#linearGradient3523);stroke-width:2.1326;fill:none" d="m13.721 56.2l4.219 4.156-4.219-4.156z"/>
  </g>
 </g>
</svg>
