<?xml version="1.0" encoding="UTF-8" standalone="no"?>
<!-- Created with Inkscape (http://www.inkscape.org/) -->
<svg id="svg2" xmlns:rdf="http://www.w3.org/1999/02/22-rdf-syntax-ns#" xmlns="http://www.w3.org/2000/svg" height="48" width="48" version="1.0" xmlns:cc="http://web.resource.org/cc/" xmlns:xlink="http://www.w3.org/1999/xlink" xmlns:dc="http://purl.org/dc/elements/1.1/">
 <defs id="defs4">
  <radialGradient id="radialGradient2315" gradientUnits="userSpaceOnUse" cy="39.161" cx="25.456" gradientTransform="matrix(1 0 0 .31532 0 26.813)" r="19.622">
   <stop id="stop3258" offset="0"/>
   <stop id="stop3260" style="stop-opacity:0" offset="1"/>
  </radialGradient>
  <radialGradient id="radialGradient2381" fx="1.6693" fy="8.8713" gradientUnits="userSpaceOnUse" cy="9.6088" cx="2.2107" gradientTransform="matrix(-1.4069 -.027193 -.026153 1.353 28.408 13.103)" r="12.333">
   <stop id="stop2195" style="stop-color:#7c2f03" offset="0"/>
   <stop id="stop2197" style="stop-color:#ff9730" offset="1"/>
  </radialGradient>
  <linearGradient id="linearGradient2383" y2="37.941" gradientUnits="userSpaceOnUse" x2="35.826" gradientTransform="matrix(.94130 0 0 .95119 1.5126 1.0125)" y1="-2.4229" x1="9.8042">
   <stop id="stop2209" style="stop-color:#fff" offset="0"/>
   <stop id="stop2211" style="stop-color:#fff;stop-opacity:.37643" offset="1"/>
  </linearGradient>
  <linearGradient id="linearGradient2387" y2="-3.1949" gradientUnits="userSpaceOnUse" x2="21.067" y1="16.853" x1="26.598">
   <stop id="stop2248" style="stop-color:#fff" offset="0"/>
   <stop id="stop2250" style="stop-color:#fff;stop-opacity:0" offset="1"/>
  </linearGradient>
  <linearGradient id="linearGradient2234" y2="25.988" gradientUnits="userSpaceOnUse" x2="25.339" y1="10.541" x1="36.589">
   <stop id="stop2256" style="stop-color:#8c4104" offset="0"/>
   <stop id="stop2258" style="stop-color:#a04e0b;stop-opacity:0" offset="1"/>
  </linearGradient>
  <radialGradient id="radialGradient2810" fx="27.733" fy="26.358" gradientUnits="userSpaceOnUse" cy="30.812" cx="25.502" gradientTransform="matrix(-.97460 .79438 -.47480 -.58252 74.649 26.008)" r="11.683">
   <stop id="stop2802" style="stop-color:#7f3104;stop-opacity:0" offset="0"/>
   <stop id="stop2804" style="stop-color:#7f3104" offset="1"/>
  </radialGradient>
 </defs>
 <metadata id="metadata7">
  <rdf:RDF>
   <cc:Work rdf:about="">
    <dc:format>image/svg+xml</dc:format>
    <dc:type rdf:resource="http://purl.org/dc/dcmitype/StillImage"/>
    <dc:creator>
     <cc:Agent>
      <dc:title>Ulisse Perusin</dc:title>
     </cc:Agent>
    </dc:creator>
    <dc:title>Nautilus</dc:title>
    <dc:subject>
     <rdf:Bag>
      <rdf:li>Nautilus</rdf:li>
      <rdf:li>file manager</rdf:li>
     </rdf:Bag>
    </dc:subject>
    <dc:contributor>
     <cc:Agent>
      <dc:title/>
     </cc:Agent>
    </dc:contributor>
    <cc:license rdf:resource="http://creativecommons.org/licenses/GPL/2.0/"/>
   </cc:Work>
   <cc:License rdf:about="http://creativecommons.org/licenses/GPL/2.0/">
    <cc:permits rdf:resource="http://web.resource.org/cc/Reproduction"/>
    <cc:permits rdf:resource="http://web.resource.org/cc/Distribution"/>
    <cc:requires rdf:resource="http://web.resource.org/cc/Notice"/>
    <cc:permits rdf:resource="http://web.resource.org/cc/DerivativeWorks"/>
    <cc:requires rdf:resource="http://web.resource.org/cc/ShareAlike"/>
    <cc:requires rdf:resource="http://web.resource.org/cc/SourceCode"/>
   </cc:License>
  </rdf:RDF>
 </metadata>
 <g id="layer1">
  <path id="path3254" style="opacity:.22353;color:black;fill:url(#radialGradient2315)" d="m45.078 39.161a19.622 6.1872 0 1 1 -39.244 0 19.622 6.1872 0 1 1 39.244 0z" transform="matrix(1.0447 0 0 .72731 -.094598 13.018)"/>
  <g id="g2375" transform="matrix(.90733 0 0 .92689 3.1488 4.0249)">
   <path id="path1314" style="stroke:#582a02;stroke-linecap:round;stroke-width:1.0904;fill:url(#radialGradient2381)" d="m24.634 27.484c-0.238 0.676 0.183 1.249 0.864 1.619 1.404 0.761 2.926-0.168 3.371-1.653 0.792-2.646-0.238-4.718-2.443-5.797-4.211-2.061-8.459 1.465-9.919 5.394-2.204 5.934 2.217 12.47 8.365 14.012 9.214 2.311 18.113-4.566 20.152-13.198 2.93-12.409-6.558-24.608-18.737-26.843-8.817-1.6184-19.106 1.1294-25.9 7.0466 1.0001 10 7.7522 15.435 15.252 19.435"/>
   <path id="path2215" style="opacity:.49020;stroke:url(#linearGradient2383);stroke-linecap:round;stroke-width:1.0904;fill:none" d="m25.736 28.024c0.5 0.5 1.513 0.374 1.986-0.717 0.491-1.134 0.491-3.428-1.618-4.569-3.397-1.836-7.747 1.046-8.907 5.626-1.222 4.828 2.993 10.591 7.953 11.669 8.729 1.897 16.737-4.126 18.778-12.479 2.748-11.247-5.458-22.737-17.641-25.423-7.172-1.5818-18.185 0.5393-24.798 6.4731 1.1372 8.8689 7.622 14.167 14.27 17.807"/>
   <path id="path2225" style="fill:url(#linearGradient2234);fill-rule:evenodd" d="m21.938 4.8125c1.814 4.6345 2.72 10.188 0.906 15.75 1.165 0.609 2.729 1.205 3.156 1.813 2.258-8.326 1.375-13.859-4.062-17.562zm-9.938 0.6875c3 3.5 7.108 9.723 7 15.5 1.382-0.338 2.237-0.99 3.5-0.5-0.5-7-4-14-10.5-15zm18.094 2.0938c-0.356 6.1852-1.357 10.647-3.625 15.281 0.529 0.918 1.312 1.817 1.093 2.844-0.039 0.173-0.114 0.38-0.218 0.562-0.006 0.01-0.025 0.021-0.032 0.031l-0.687 2.032c-0.03 0.011-0.066 0.046-0.094 0.062-0.014 0.008-0.048 0.025-0.062 0.032l-1.813 1.406c3.63 0.463 12.686-2.783 14.5-8.344-3.678 2.853-6.579 3.993-10.437 5.562 2.722-1.766 8.641-6.511 8.187-13-2.499 4.686-5.74 8.152-8.687 11.157 2.325-3.737 6.411-10.21 1.875-17.625z" transform="matrix(1.1021 0 0 1.0789 -.16395 -2.1847)"/>
   <path id="path2234" style="opacity:.57255;fill:url(#linearGradient2387)" d="m19.626 1.2043c-6.893 0.2661-13.531 2.6194-18.626 7.0573 0.1919 1.9194 3.4489 9.4094 5.4489 11.909 11.5 3 13.19-21.705 36.69-5.205-3.5-6.5001-7.734-10.898-15.234-12.898-2.21-0.5892-5.981-0.9523-8.279-0.8637z"/>
  </g>
  <path id="path1911" style="opacity:.5;fill:url(#radialGradient2810);fill-rule:evenodd" d="m19.568 34.474c5.718 8.07 24.248 0.436 22.811-13.506 1.923 7.779-1.356 14.729-6.648 17.984-5.561 3.421-13.054 2.971-16.163-4.478z"/>
 </g>
</svg>
