<?xml version="1.0" encoding="UTF-8" standalone="no"?>
<!-- Created with Inkscape (http://www.inkscape.org/) -->
<svg id="svg5596" xmlns="http://www.w3.org/2000/svg" height="48" width="48" version="1.0" xmlns:xlink="http://www.w3.org/1999/xlink">
 <defs id="defs5599">
  <linearGradient id="linearGradient2552" y2="37.614" xlink:href="#linearGradient2215" gradientUnits="userSpaceOnUse" x2="36.31" gradientTransform="matrix(.95580 .12561 -.13219 1.0058 8.4331 -4.8792)" y1="32.341" x1="32.17"/>
  <linearGradient id="linearGradient4158" y2="27.556" xlink:href="#linearGradient4152" gradientUnits="userSpaceOnUse" x2="14.717" gradientTransform="translate(-.38613 -2.5976)" y1="41.527" x1="16.921"/>
  <linearGradient id="linearGradient4197" y2="48.566" gradientUnits="userSpaceOnUse" x2="26.937" gradientTransform="matrix(1.0157 0 0 1 -.42713 -2.5976)" y1="8.7893" x1="5.5588">
   <stop id="stop4201" style="stop-color:#fff;stop-opacity:.69072" offset="0"/>
   <stop id="stop4203" style="stop-opacity:0" offset="1"/>
  </linearGradient>
  <linearGradient id="linearGradient4152">
   <stop id="stop4154" style="stop-color:#788492" offset="0"/>
   <stop id="stop4156" style="stop-color:#fafafa" offset="1"/>
  </linearGradient>
  <linearGradient id="linearGradient4185" y2="27.666" xlink:href="#linearGradient4152" gradientUnits="userSpaceOnUse" x2="12.297" gradientTransform="matrix(1.2909 0 0 1.1733 -3.8543 -8.3802)" y1="32.174" x1="5.4861"/>
  <linearGradient id="linearGradient4273" y2="43.476" xlink:href="#linearGradient4242" gradientUnits="userSpaceOnUse" x2="34.869" gradientTransform="translate(-.38613 -2.5976)" y1="39.945" x1="34.869"/>
  <linearGradient id="linearGradient4265" y2="42.428" xlink:href="#linearGradient4242" gradientUnits="userSpaceOnUse" x2="36.634" gradientTransform="translate(-.38613 -2.5976)" y1="38.124" x1="36.634"/>
  <linearGradient id="linearGradient4256" y2="38.483" xlink:href="#linearGradient4242" gradientUnits="userSpaceOnUse" x2="42.428" gradientTransform="translate(-.38613 -2.5976)" y1="38.483" x1="38.897"/>
  <linearGradient id="linearGradient4242">
   <stop id="stop4244" offset="0"/>
   <stop id="stop4246" style="stop-opacity:0" offset="1"/>
  </linearGradient>
  <linearGradient id="linearGradient4248" y2="37.848" xlink:href="#linearGradient4242" gradientUnits="userSpaceOnUse" x2="44.193" gradientTransform="matrix(.86474 0 0 .75310 5.5915 7.0126)" y1="37.848" x1="40.497"/>
  <linearGradient id="linearGradient4146" y2="66.5" xlink:href="#linearGradient2949" gradientUnits="userSpaceOnUse" x2="33.728" gradientTransform="matrix(.94360 0 0 .96337 6.7925 4.0336)" y1="19.362" x1="-5.2846"/>
  <linearGradient id="linearGradient2215">
   <stop id="stop2217" offset="0"/>
   <stop id="stop2219" style="stop-color:#505050" offset="1"/>
  </linearGradient>
  <linearGradient id="linearGradient4277" y2="36.457" xlink:href="#linearGradient2215" gradientUnits="userSpaceOnUse" x2="23.783" gradientTransform="matrix(0 .96742 .94616 0 -16.094 2.2178)" y1="38.032" x1="26.248"/>
  <linearGradient id="linearGradient2949">
   <stop id="stop2951" style="stop-color:#fff;stop-opacity:.45038" offset="0"/>
   <stop id="stop2953" style="stop-color:#fff;stop-opacity:.31298" offset="1"/>
  </linearGradient>
  <linearGradient id="linearGradient4301" y2="38.19" xlink:href="#linearGradient2949" gradientUnits="userSpaceOnUse" x2="43.141" gradientTransform="translate(-14.761 -7.3476)" y1="33.593" x1="29.425"/>
  <radialGradient id="radialGradient4312" gradientUnits="userSpaceOnUse" cy="33.637" cx="20.153" gradientTransform="matrix(1 0 0 .25722 0 24.985)" r="15.291">
   <stop id="stop2881" style="stop-opacity:.17557" offset="0"/>
   <stop id="stop2883" style="stop-opacity:0" offset="1"/>
  </radialGradient>
  <linearGradient id="linearGradient6939">
   <stop id="stop6941" style="stop-color:#ddd" offset="0"/>
   <stop id="stop6947" style="stop-color:#fff" offset=".33333"/>
   <stop id="stop6949" style="stop-color:#b7b7b7" offset=".66667"/>
   <stop id="stop6943" style="stop-color:#ddd" offset="1"/>
  </linearGradient>
  <linearGradient id="linearGradient3403" y2="45.881" gradientUnits="userSpaceOnUse" x2="4.1352" y1="43.936" x1="2.1018">
   <stop id="stop11575" style="stop-color:#ef2929" offset="0"/>
   <stop id="stop11585" style="stop-color:#f79090" offset=".5"/>
   <stop id="stop11577" style="stop-color:#ef2929" offset="1"/>
  </linearGradient>
  <linearGradient id="linearGradient3407" y2="32.643" xlink:href="#linearGradient6939" gradientUnits="userSpaceOnUse" x2="22.225" gradientTransform="translate(-13.78 10.129)" y1="30.001" x1="19.395"/>
  <linearGradient id="linearGradient3415" y2="18.266" gradientUnits="userSpaceOnUse" x2="29.624" gradientTransform="translate(11.058 -11.78)" y1="16.543" x1="27.848">
   <stop id="stop11601" style="stop-color:#5b5b5b" offset="0"/>
   <stop id="stop11603" style="stop-color:#979797" offset=".5"/>
   <stop id="stop11605" style="stop-color:#454545" offset="1"/>
  </linearGradient>
  <linearGradient id="linearGradient3421" y2="32.643" xlink:href="#linearGradient6939" gradientUnits="userSpaceOnUse" x2="22.225" gradientTransform="matrix(.98481 .17365 -.17365 .98481 -6.5777 .52398)" y1="30.001" x1="19.395"/>
 </defs>
 <path id="path2498" style="fill-rule:evenodd;stroke:#000;fill:url(#linearGradient2552)" d="m1.7363 32.767c6.5886 1.984 16.236-0.806 20.398-3.023 8.153-4.344 11.552 1.559 12.667 2.31 1.73 1.482-3.563 5.535-3.228 8.835 0.186 1.832 0.932 2.727 0.932 2.727 1.46-4.134 6.076-2.439 5.81-6.74 3.504 1.977 4.256-1.172 8.321-0.545-0.574-0.875-1.316-2.178-2.91-2.861-1.7-0.638-4.572-0.549-5.318-2.717-0.136-2.453-0.099-15.536-6.019-19.536-0.865-1.7417 0.068-4.224 1.751-5.92 1.522-1.5335 3.809-2.9457 4.591-3.8463-3.542-0.0381-7.071 1.0716-10.526 2.9406-1.801 0.9747-3.388 2.3762-4.512 2.9006-10.151-2.013-21.341 6.3651-22.47 21.068-0.0916 1.186-0.0735 4.039 0.5133 4.407z"/>
 <path id="path4148" style="fill:url(#linearGradient4158);fill-rule:evenodd" d="m5.2336 32.811c6.3894 0.693 12.975-1.972 17.037-3.841 7.074-3.301 10.281 0.177 11.865 1.696 0.173 0.234 0.171-1.592-1.702-2.794-7.534-3.534 2.028-3.566 1.52-4.864-0.584-1.493-6.963-0.636-8.076-0.254-4 1.376-5.406 3.615-7.439 4.032-3.745 0.712-6.638-1.31-9.0056 1.646-4.1387 5.168-4.8464 4.308-4.1998 4.379z"/>
 <path id="path4188" style="fill:url(#linearGradient4197);fill-rule:evenodd" d="m2.277 32.016c2.5439-7.37 11.17-6.939 14.578-10.449 3.353-3.452 7.117-14.245 19.705-2.855 0.046 0.041-1.985-5.795-4.821-7.722-0.829-1.678-6.888-3.668-7.966-3.1627-10.435-1.9393-20.815 6.8397-21.897 21.092-0.087 1.143-0.1614 2.742 0.401 3.097z"/>
 <path id="path4168" style="fill:url(#linearGradient4185);fill-rule:evenodd" d="m8.1097 25.843c-0.6737-0.959 2.6293-4.354 3.8023-3.674 0.717 1.041-2.3103 4.898-3.8023 3.674z"/>
 <path id="path4206" style="opacity:.25628;fill:url(#linearGradient4273);fill-rule:evenodd" d="m34.152 40.878l0.662-0.496-0.055-3.035-0.607 3.531z"/>
 <path id="path4217" style="opacity:.25126;fill:url(#linearGradient4265);fill-rule:evenodd" d="m35.862 39.83l0.773-0.386-0.497-3.917-0.276 4.303z"/>
 <path id="path4219" style="opacity:.23116;fill:url(#linearGradient4256);fill-rule:evenodd" d="m41.159 36.961l0.882-0.331-3.531-1.821 2.649 2.152z"/>
 <path id="path4221" style="opacity:.22613;fill:url(#linearGradient4248);fill-rule:evenodd" d="m42.9 36.327l0.907-0.25-3.197-1.371 2.29 1.621z"/>
 <path id="path4134" style="stroke:url(#linearGradient4146);stroke-width:.95343;fill:none" d="m2.8895 32.016c5.9518 1.558 14.524-1.13 18.452-3.267 7.692-4.184 13.639 1.591 14.339 3.287 1.189 1.604-1.211 3.731-2.75 6.822-0.791 1.587-0.358 2.538-0.358 2.538 1.346-1.949 5.64-1.122 4.67-6.234 3.894 2.899 5.181 0.146 7.478 0.162-0.729-0.936-1.529-0.971-2.315-1.16-1.603-0.614-3.923-0.559-4.971-3.116-0.128-2.363 0.494-13.995-5.799-19.174-1.081-1.325-0.91-3.9218 0.769-6.1453 0.496-0.6559 2.445-2.2191 3.183-3.0867-3.077 0.582-4.374 1.1207-7.634 2.9213-1.7 0.939-2.844 2.2007-3.904 2.7059-9.844-1.7625-19.43 5.1598-21.645 18.971-0.1818 1.131-0.3344 4.421 0.4845 4.776z"/>
 <g id="g3432">
  <g id="g11820" transform="matrix(.98481 .17365 -.17365 .98481 4.3198 -3.494)">
   <g id="g3379" transform="translate(3.7821 -4.306)">
    <path id="path2292" style="color:#000000;stroke:#c00;stroke-linecap:round;fill:url(#linearGradient3403)" d="m3.6678 43.136l1.716 1.58c1.05-1.2 5.8082-6.277 5.8082-6.277l-1.7372-1.516s-4.5092 4.851-5.787 6.213z"/>
    <path id="path6935" style="color:#000000;stroke:#888a85;stroke-linecap:round;fill:url(#linearGradient3407)" d="m9.3799 36.978l1.7161 1.58c1.05-1.201 21.624-23.107 21.624-23.107l-1.737-1.516-21.603 23.043z"/>
   </g>
   <path id="path11595" style="color:#000000;stroke:#2e3436;stroke-linecap:round;fill:url(#linearGradient3415)" d="m34.677 9.7053l1.778 1.4557c1.05-1.2008 5.328-5.5731 5.645-6.0503 1.115-0.9897-0.607-2.7366-1.799-1.3907-0.567 0.5406-4.347 4.6233-5.624 5.9853z"/>
  </g>
  <path id="path4782" style="color:#000000;stroke:#888a85;stroke-linecap:round;fill:url(#linearGradient3421)" d="m3.126 37.386c-1.3962 1.246-0.4403 2.771 1.4155 1.854 0.3578-0.173 1.9496-1.47 1.9496-1.47l-1.4665-1.813s-0.4037 0.309-1.8986 1.429z"/>
  <path id="path4784" style="stroke:#2e3436;stroke-width:1px;fill:none" d="m45.38 7.76s5 10 0 10 0.25-5 0-10z"/>
  <path id="path2454" style="opacity:.53333;color:#000000;fill:#fff" d="m8.875 37.75a1.25 1.25 0 1 1 -2.5 0 1.25 1.25 0 1 1 2.5 0z" transform="matrix(.23787 0 0 .23787 1.5436 29.323)"/>
 </g>
 <path id="path4275" style="fill-rule:evenodd;stroke:#000;stroke-width:.96744;fill:url(#linearGradient4277)" d="m19.45 23.224c2.718 1.813 9.406 7.359 6.23 8.186-10.621-0.39-8.783-5.142-11.497-5.876-1.464-1.484 3.799-2.998 5.267-2.31z"/>
 <path id="path4279" style="stroke:url(#linearGradient4301);stroke-width:.96744;fill:none" d="m19.146 24.139c2.232 1.636 7.418 5.679 6.054 6.462-4.095-0.548-6.179-1.155-7.25-2.345-1.347-1.496-1.786-2.855-2.789-3.222-0.227 0.019 2.517-1.583 3.985-0.895z"/>
 <path id="path4310" style="color:#000000;fill-rule:evenodd;fill:url(#radialGradient4312)" d="m35.444 33.637a15.291 3.9333 0 1 1 -30.583 0 15.291 3.9333 0 1 1 30.583 0z" transform="matrix(1.476 0 0 .71076 -6.403 20.778)"/>
</svg>
