<?xml version="1.0" encoding="UTF-8" standalone="no"?>
<!-- Created with Inkscape (http://www.inkscape.org/) -->
<svg id="svg3639" xmlns:rdf="http://www.w3.org/1999/02/22-rdf-syntax-ns#" xmlns="http://www.w3.org/2000/svg" height="48" width="48" version="1.1" xmlns:cc="http://creativecommons.org/ns#" xmlns:xlink="http://www.w3.org/1999/xlink" xmlns:dc="http://purl.org/dc/elements/1.1/">
 <defs id="defs3641">
  <radialGradient id="radialGradient6295-0" gradientUnits="userSpaceOnUse" cy="1115.4" cx="556" gradientTransform="matrix(.99363 0 0 .34956 3.5429 708.68)" r="44">
   <stop id="stop13251-6-5" style="stop-color:#fff" offset="0"/>
   <stop id="stop13253-9-5" style="stop-color:#fff;stop-opacity:0" offset="1"/>
  </radialGradient>
  <radialGradient id="radialGradient6297-8" gradientUnits="userSpaceOnUse" cy="1032.5" cx="539.14" gradientTransform="matrix(2.5434 0 0 1.5532 -832.13 -571.18)" r="44">
   <stop id="stop4256-17" style="stop-color:#fff" offset="0"/>
   <stop id="stop4258-0" style="stop-color:#fff;stop-opacity:0" offset="1"/>
  </radialGradient>
  <radialGradient id="radialGradient6576-6" gradientUnits="userSpaceOnUse" cx="549.58" cy="1053.6" r="44" gradientTransform="matrix(1.3773 -1.7912e-7 1.7912e-7 1.3773 -207.84 -395.55)">
   <stop id="stop3543-20-4" style="stop-color:#fff" offset="0"/>
   <stop id="stop5354-2-1" style="stop-color:#babdb6" offset=".30515"/>
   <stop id="stop5352-17-3" style="stop-color:#555753" offset=".63299"/>
   <stop id="stop3545-51-0" style="stop-color:#888a85" offset=".85721"/>
   <stop id="stop3547-7-2" style="stop-color:#2e3436" offset="1"/>
  </radialGradient>
  <linearGradient id="linearGradient6869-9" y2="363.11" gradientUnits="userSpaceOnUse" x2="717.62" gradientTransform="translate(-1428.8 365.15)" y1="374.9" x1="720.78">
   <stop id="stop4266-78-1-3-0" offset="0"/>
   <stop id="stop4268-2-9-7-9" style="stop-color:#888a85" offset="1"/>
  </linearGradient>
  <linearGradient id="linearGradient6872-3" y2="363.11" gradientUnits="userSpaceOnUse" x2="717.62" gradientTransform="matrix(1 0 0 .64286 307.36 -268.66)" y1="374.9" x1="720.78">
   <stop id="stop4266-7-9-5-9-4" offset="0"/>
   <stop id="stop4268-3-7-7-3-3" style="stop-color:#888a85" offset="1"/>
  </linearGradient>
  <radialGradient id="radialGradient5610-5" gradientUnits="userSpaceOnUse" cy="1027.6" cx="540.91" gradientTransform="matrix(1.7727 0 0 1.7727 -417.97 -794.04)" r="45.023">
   <stop id="stop4246-6-3" style="stop-color:#babdb6" offset="0"/>
   <stop id="stop4248-9-8" style="stop-color:#555753" offset="1"/>
  </radialGradient>
  <clipPath id="clipPath12885-6" clipPathUnits="userSpaceOnUse">
   <path id="path12888-7" style="fill:#555753" d="m600 1068a44 44 0 1 1 -88 0 44 44 0 1 1 88 0z" transform="translate(-8,-8)"/>
  </clipPath>
  <radialGradient id="radialGradient5612-3" gradientUnits="userSpaceOnUse" cy="1063.7" cx="556" gradientTransform="matrix(1.1388 0 0 1.2005 -77.2 -214.6)" r="44">
   <stop id="stop12865-0" style="stop-color:#babdb6" offset="0"/>
   <stop id="stop12871-2" style="stop-color:#888a85" offset=".62351"/>
   <stop id="stop12873-6" style="stop-color:#2e3436" offset=".80543"/>
   <stop id="stop12867-9" style="stop-color:#fff" offset="1"/>
  </radialGradient>
  <radialGradient id="radialGradient5614-3" gradientUnits="userSpaceOnUse" cy="1031.9" cx="540.88" gradientTransform="matrix(1.8605 0 0 1.8605 -459.48 -891.44)" r="44">
   <stop id="stop12899-8" style="stop-color:#fff" offset="0"/>
   <stop id="stop3397-7" style="stop-color:#fff" offset=".23621"/>
   <stop id="stop12901-65" style="stop-color:#fff;stop-opacity:0" offset="1"/>
  </radialGradient>
  <filter id="filter12907-2" color-interpolation-filters="sRGB">
   <feGaussianBlur id="feGaussianBlur12909-4" stdDeviation="0.89191478"/>
  </filter>
  <linearGradient id="linearGradient5616-0" y2="1020.9" gradientUnits="userSpaceOnUse" x2="576.96" y1="1094" x1="534.77">
   <stop id="stop3582-6" style="stop-color:#fff" offset="0"/>
   <stop id="stop3584-8" style="stop-color:#d3d7cf" offset="1"/>
  </linearGradient>
  <linearGradient id="linearGradient6781-5" y2="91.981" xlink:href="#linearGradient5530-4" gradientUnits="userSpaceOnUse" x2="144" y1="106.25" x1="144"/>
  <linearGradient id="linearGradient5530-4">
   <stop id="stop5532-9" style="stop-color:#babdb6" offset="0"/>
   <stop id="stop5534-4" style="stop-color:#555753" offset="1"/>
  </linearGradient>
  <linearGradient id="linearGradient6783-6" y2="221.92" xlink:href="#linearGradient5530-4" gradientUnits="userSpaceOnUse" x2="143.78" y1="235.92" x1="143.78"/>
  <linearGradient id="linearGradient6785-8" y2="157.49" xlink:href="#linearGradient5530-4" gradientUnits="userSpaceOnUse" x2="211.03" y1="170.51" x1="211.03"/>
  <linearGradient id="linearGradient6787-3" y2="157.23" xlink:href="#linearGradient5530-4" gradientUnits="userSpaceOnUse" x2="77.137" y1="170.74" x1="77.137"/>
  <linearGradient id="linearGradient5626-2" y2="1085.9" gradientUnits="userSpaceOnUse" x2="552.65" y1="1111.3" x1="556">
   <stop id="stop4851-7-8-6" style="stop-color:#fff" offset="0"/>
   <stop id="stop4853-4-4-2" style="stop-color:#fff;stop-opacity:0" offset="1"/>
  </linearGradient>
  <filter id="filter4857-9-6-2" color-interpolation-filters="sRGB">
   <feGaussianBlur id="feGaussianBlur4859-2-9-4" stdDeviation="0.88"/>
  </filter>
  <linearGradient id="linearGradient5606-7" y2="1024" xlink:href="#linearGradient3453-8" gradientUnits="userSpaceOnUse" x2="582.04" y1="1102.4" x1="582.04"/>
  <linearGradient id="linearGradient3453-8">
   <stop id="stop3455-3" offset="0"/>
   <stop id="stop3457-6" style="stop-opacity:0" offset="1"/>
  </linearGradient>
  <filter id="filter3449-7" width="1.4396" y="-.21978" x="-.21978" height="1.4396" color-interpolation-filters="sRGB">
   <feGaussianBlur id="feGaussianBlur3451-8" stdDeviation="8.05845"/>
  </filter>
 </defs>
 <metadata id="metadata3644">
  <rdf:RDF>
   <cc:Work rdf:about="">
    <dc:format>image/svg+xml</dc:format>
    <dc:type rdf:resource="http://purl.org/dc/dcmitype/StillImage"/>
    <dc:title/>
   </cc:Work>
  </rdf:RDF>
 </metadata>
 <g id="layer1" transform="translate(0 -1004.4)">
  <g id="use6074" style="enable-background:new" transform="matrix(.22543 0 0 .23296 -7.4508 988.13)">
   <path id="path4544" style="opacity:.4;filter:url(#filter3449-7);enable-background:new;fill:url(#linearGradient5606-7)" d="m600 1068c0 24.3-19.699 44-44 44s-44-19.7-44-44 19.699-44 44-44 44 19.7 44 44z" transform="matrix(1.7516 0 0 .47440 -829.9 -261)"/>
   <path id="path4546" style="opacity:.8;filter:url(#filter3449-7);enable-background:new;fill:url(#linearGradient5606-7)" d="m600 1068c0 24.3-19.699 44-44 44s-44-19.7-44-44 19.699-44 44-44 44 19.7 44 44z" transform="matrix(1.2481 0 0 .33803 -549.96 -111.36)"/>
  </g>
  <g id="use6076" style="enable-background:new" transform="translate(-694.98 648.36)">
   <path id="path4448" style="enable-background:new;stroke:url(#radialGradient5610-5);stroke-width:4.1905;fill:none" d="m600 1068c0 24.3-19.699 44-44 44s-44-19.7-44-44 19.699-44 44-44 44 19.7 44 44z" transform="matrix(.47727 0 0 .47727 454.64 -130.73)"/>
   <g id="g4450" transform="matrix(.21875 0 0 .21875 688.5 343.12)">
    <g id="g4452" style="enable-background:new" transform="matrix(2.1818 0 0 2.1818 -1051.6 -2148.7)">
     <g id="g4454" clip-path="url(#clipPath12885-6)">
      <path id="path4456" style="fill:url(#radialGradient5612-3)" d="m600 1068c0 24.3-19.699 44-44 44s-44-19.7-44-44 19.699-44 44-44 44 19.7 44 44z" transform="translate(-8,-8)"/>
      <path id="path4458" style="fill:url(#radialGradient5614-3)" d="m600 1068c0 24.3-19.699 44-44 44s-44-19.7-44-44 19.699-44 44-44 44 19.7 44 44z" transform="translate(-8 -8)"/>
      <path id="path4460" style="stroke-linejoin:round;filter:url(#filter12907-2);stroke:#888a85;stroke-linecap:round;stroke-width:5.0036;fill:#888a85" d="m600 1068c0 24.3-19.699 44-44 44s-44-19.7-44-44 19.699-44 44-44 44 19.7 44 44z" transform="matrix(.83749 0 0 .83749 82.355 165.56)"/>
     </g>
     <path id="path4462" style="stroke-linejoin:round;filter:url(#filter12907-2);stroke:#2e3436;stroke-linecap:round;stroke-width:2.6021;fill:#888a85" d="m600 1068c0 24.3-19.699 44-44 44s-44-19.7-44-44 19.699-44 44-44 44 19.7 44 44z" transform="matrix(.80520 0 0 .80520 100.31 200.04)"/>
    </g>
    <g id="g4464" transform="translate(10)">
     <path id="path4466" style="enable-background:new;fill:url(#linearGradient5616-0)" d="m600 1068c0 24.3-19.699 44-44 44s-44-19.7-44-44 19.699-44 44-44 44 19.7 44 44z" transform="matrix(1.7662 0 0 1.7662 -848.02 -1722.3)"/>
     <g id="g4468" style="opacity:.2" transform="matrix(1.0457 0 0 1.0457 -16.576 -7.4898)">
      <path id="path4470" style="enable-background:new" d="m600 1068c0 24.3-19.699 44-44 44s-44-19.7-44-44 19.699-44 44-44 44 19.7 44 44z" transform="matrix(.059049 .034092 -.034092 .059049 180.08 25.689)"/>
      <path id="path4472" style="enable-background:new" d="m600 1068c0 24.3-19.699 44-44 44s-44-19.7-44-44 19.699-44 44-44 44 19.7 44 44z" transform="matrix(.059049 .034092 -.034092 .059049 115.08 138.27)"/>
      <path id="path4474" style="enable-background:new" d="m600 1068c0 24.3-19.699 44-44 44s-44-19.7-44-44 19.699-44 44-44 44 19.7 44 44z" transform="matrix(.034092 .059049 -.059049 .034092 244.4 62.259)"/>
      <path id="path4476" style="enable-background:new" d="m600 1068c0 24.3-19.699 44-44 44s-44-19.7-44-44 19.699-44 44-44 44 19.7 44 44z" transform="matrix(.034092 .059049 -.059049 .034092 131.82 127.26)"/>
      <path id="path4478" style="enable-background:new" d="m600 1068c0 24.3-19.699 44-44 44s-44-19.7-44-44 19.699-44 44-44 44 19.7 44 44z" transform="matrix(-.059049 .034092 .034092 .059049 107.92 25.689)"/>
      <path id="path4480" style="enable-background:new" d="m600 1068c0 24.3-19.699 44-44 44s-44-19.7-44-44 19.699-44 44-44 44 19.7 44 44z" transform="matrix(-.059049 .034092 .034092 .059049 172.92 138.27)"/>
      <path id="path4482" style="enable-background:new" d="m600 1068c0 24.3-19.699 44-44 44s-44-19.7-44-44 19.699-44 44-44 44 19.7 44 44z" transform="matrix(-.034092 .059049 .059049 .034092 43.599 62.259)"/>
      <path id="path4484" style="enable-background:new" d="m600 1068c0 24.3-19.699 44-44 44s-44-19.7-44-44 19.699-44 44-44 44 19.7 44 44z" transform="matrix(-.034092 .059049 .059049 .034092 156.18 127.26)"/>
     </g>
     <g id="g4486" transform="translate(-10)">
      <text id="text4488" y="106.96484" x="143.77536" xml:space="preserve" style="font-size:20px;font-weight:bold;font-family:Liberation Sans;text-anchor:middle;stroke:#ffffff;enable-background:new;text-align:center;stroke-width:4.5714;fill:#ffffff"><tspan id="tspan4490" x="143.77536" style="stroke-width:4.5714" y="106.96484">12</tspan></text>
      <text id="text4492" y="105.96484" x="143.77536" xml:space="preserve" style="font-size:20px;font-weight:bold;text-anchor:middle;text-align:center;font-family:Liberation Sans;fill:url(#linearGradient6781-5)"><tspan id="tspan4494" x="143.77536" style="fill:url(#linearGradient6781-5)" y="105.96484">12</tspan></text>
      <text id="text4496" y="236.80469" x="143.77536" xml:space="preserve" style="font-size:20px;font-weight:bold;font-family:Liberation Sans;text-anchor:middle;stroke:#ffffff;enable-background:new;text-align:center;stroke-width:4.5714;fill:#ffffff"><tspan id="tspan4498" x="143.77536" style="stroke-width:4.5714" y="236.80469">6</tspan></text>
      <text id="text4500" y="235.80469" x="143.77536" xml:space="preserve" style="font-size:20px;enable-background:new;font-family:Liberation Sans;text-anchor:middle;text-align:center;font-weight:bold;fill:url(#linearGradient6783-6)"><tspan id="tspan4502" x="143.77536" style="fill:url(#linearGradient6783-6)" y="235.80469">6</tspan></text>
      <text id="text4504" y="171.87004" x="211.16602" xml:space="preserve" style="font-size:20px;font-weight:bold;font-family:Liberation Sans;text-anchor:middle;stroke:#ffffff;enable-background:new;text-align:center;stroke-width:4.5714;fill:#ffffff"><tspan id="tspan4506" x="211.16602" style="stroke-width:4.5714" y="171.87004">3</tspan></text>
      <text id="text4508" y="170.87004" x="211.16602" xml:space="preserve" style="font-size:20px;enable-background:new;font-family:Liberation Sans;text-anchor:middle;text-align:center;font-weight:bold;fill:url(#linearGradient6785-8)"><tspan id="tspan4510" x="211.16602" style="fill:url(#linearGradient6785-8)" y="170.87004">3</tspan></text>
      <text id="text4512" y="171.87004" x="77.166023" xml:space="preserve" style="font-size:20px;font-weight:bold;font-family:Liberation Sans;text-anchor:middle;stroke:#ffffff;enable-background:new;text-align:center;stroke-width:4.5714;fill:#ffffff"><tspan id="tspan4514" x="77.166023" style="stroke-width:4.5714" y="171.87004">9</tspan></text>
      <text id="text4516" y="170.87004" x="77.166023" xml:space="preserve" style="font-size:20px;enable-background:new;font-family:Liberation Sans;text-anchor:middle;text-align:center;font-weight:bold;fill:url(#linearGradient6787-3)"><tspan id="tspan4518" x="77.166023" style="fill:url(#linearGradient6787-3)" y="170.87004">9</tspan></text>
     </g>
    </g>
   </g>
   <path id="path4520" style="opacity:.2;stroke-width:2.1463;stroke:#fff;enable-background:new;fill:none" d="m600 1068c0 24.3-19.699 44-44 44s-44-19.7-44-44 19.699-44 44-44 44 19.7 44 44z" transform="matrix(.46591 0 0 .46591 460.95 -118.59)"/>
   <path id="path4522" style="opacity:.55507;stroke-width:2.3969;filter:url(#filter4857-9-6-2);stroke:url(#linearGradient5626-2);enable-background:new;fill:none" d="m600 1068c0 24.3-19.699 44-44 44s-44-19.7-44-44 19.699-44 44-44 44 19.7 44 44z" transform="matrix(.41721 0 0 .41721 488.16 -66.582)"/>
  </g>
  <rect id="rect4262-7-7-9-0-7" style="opacity:.1;color:#000000;enable-background:new" transform="rotate(90)" height="9" width="2" y="-35.021" x="1027.4"/>
  <rect id="rect4262-77-9-6-1" style="opacity:.1;color:#000000;enable-background:new" transform="rotate(-45)" height="14" width="2" y="730.85" x="-710.47"/>
  <rect id="rect4262-7-7-8-1" style="color:#000000;enable-background:new;fill:url(#linearGradient6872-3)" transform="rotate(90)" height="9" width="2" y="-34.021" x="1026.4"/>
  <rect id="rect4262-77-97-1" style="color:#000000;enable-background:new;fill:url(#linearGradient6869-9)" transform="rotate(-45)" height="14" width="2" y="730.15" x="-709.76"/>
  <path id="use4604-0-7" style="enable-background:new;stroke:#555753;stroke-width:17.602;fill:url(#radialGradient6576-6)" d="m600 1068a44 44 0 1 1 -88 0 44 44 0 1 1 88 0z" transform="matrix(.056812 0 0 .056812 -6.5661 966.69)"/>
  <g id="use6078" style="enable-background:new" transform="matrix(.94444 0 0 .94444 -654.98 669.42)">
   <path id="path4438" style="opacity:.7;stroke-width:2.6622;stroke:#babdb6;enable-background:new;fill:url(#radialGradient6295-0)" d="m600 1068c0 24.3-19.699 44-44 44s-44-19.7-44-44 19.699-44 44-44 44 19.7 44 44z" transform="matrix(.39773 0 0 .39773 498.86 -45.773)"/>
   <path id="path4440" style="opacity:.86977;enable-background:new;fill:url(#radialGradient6297-8)" d="m600 1068c0 24.3-19.699 44-44 44s-44-19.7-44-44 19.699-44 44-44 44 19.7 44 44z" transform="matrix(.25912 0 0 .15265 575.93 206.95)"/>
  </g>
 </g>
</svg>
