<?xml version="1.0" encoding="UTF-8" standalone="no"?>
<!-- Created with Inkscape (http://www.inkscape.org/) -->
<svg id="svg7854" xmlns:rdf="http://www.w3.org/1999/02/22-rdf-syntax-ns#" xmlns="http://www.w3.org/2000/svg" height="48" width="48" version="1.0" xmlns:cc="http://web.resource.org/cc/" xmlns:xlink="http://www.w3.org/1999/xlink" xmlns:dc="http://purl.org/dc/elements/1.1/">
 <defs id="defs7856">
  <linearGradient id="linearGradient3832">
   <stop id="stop3834" style="stop-color:#fff" offset="0"/>
   <stop id="stop3836" style="stop-color:#e0e0e0" offset="1"/>
  </linearGradient>
  <linearGradient id="linearGradient4816">
   <stop id="stop4818" style="stop-color:#204a87" offset="0"/>
   <stop id="stop4820" style="stop-color:#204a87;stop-opacity:0" offset="1"/>
  </linearGradient>
  <linearGradient id="linearGradient5060">
   <stop id="stop5062" offset="0"/>
   <stop id="stop5064" style="stop-opacity:0" offset="1"/>
  </linearGradient>
  <radialGradient id="radialGradient5664" xlink:href="#linearGradient5060" gradientUnits="userSpaceOnUse" cy="486.65" cx="605.71" gradientTransform="matrix(-.066527 0 0 .035015 47.813 25.162)" r="117.14"/>
  <radialGradient id="radialGradient5667" xlink:href="#linearGradient5060" gradientUnits="userSpaceOnUse" cy="486.65" cx="605.71" gradientTransform="matrix(.066527 0 0 .035015 -.25051 25.162)" r="117.14"/>
  <linearGradient id="linearGradient5670" y2="609.51" gradientUnits="userSpaceOnUse" x2="302.86" gradientTransform="matrix(.066527 0 0 .035015 -.26360 25.162)" y1="366.65" x1="302.86">
   <stop id="stop5050" style="stop-opacity:0" offset="0"/>
   <stop id="stop5056" offset=".5"/>
   <stop id="stop5052" style="stop-opacity:0" offset="1"/>
  </linearGradient>
  <linearGradient id="linearGradient5682" y2="21.768" xlink:href="#linearGradient3832" gradientUnits="userSpaceOnUse" x2="17.881" gradientTransform="matrix(1.3676 0 0 1.2591 -45.522 9.5621)" y1="11.073" x1="17.881"/>
  <linearGradient id="linearGradient5684" y2="5.6174" xlink:href="#linearGradient4816" gradientUnits="userSpaceOnUse" x2="13.051" gradientTransform="matrix(1.3258 0 0 1.1994 -44.591 11.17)" y1="11.354" x1="13.051"/>
  <linearGradient id="linearGradient5728" y2="23" gradientUnits="userSpaceOnUse" x2="45.505" gradientTransform="translate(.5)" y1="23" x1="24">
   <stop id="stop5702" style="stop-color:#e4e4e4" offset="0"/>
   <stop id="stop5708" style="stop-color:#fefefe" offset=".63939"/>
   <stop id="stop5710" style="stop-color:#fff" offset=".79633"/>
   <stop id="stop5704" style="stop-color:#949494" offset="1"/>
  </linearGradient>
  <linearGradient id="linearGradient5730" y2="23" gradientUnits="userSpaceOnUse" x2="44.005" y1="23" x1="40.746">
   <stop id="stop5718" style="stop-color:#fff" offset="0"/>
   <stop id="stop5720" style="stop-color:#fff;stop-opacity:0" offset="1"/>
  </linearGradient>
  <filter id="filter5786">
   <feGaussianBlur id="feGaussianBlur5788" stdDeviation="0.62861987"/>
  </filter>
  <linearGradient id="linearGradient5604" y2="4.7617" gradientUnits="userSpaceOnUse" x2="25.627" y1="8" x1="25.627">
   <stop id="stop5600" style="stop-color:#fff" offset="0"/>
   <stop id="stop5602" style="stop-color:#fff;stop-opacity:0" offset="1"/>
  </linearGradient>
  <filter id="filter5628" height="1.2857" width="1.039" y="-.14286" x="-.019481">
   <feGaussianBlur id="feGaussianBlur5630" stdDeviation="0.42857143"/>
  </filter>
  <linearGradient id="linearGradient5640" y2="10.129" gradientUnits="userSpaceOnUse" x2="25.313" y1="42.657" x1="25.313">
   <stop id="stop5636" style="stop-color:#fff" offset="0"/>
   <stop id="stop5638" style="stop-color:#fff;stop-opacity:0" offset="1"/>
  </linearGradient>
  <linearGradient id="linearGradient5648" y2="3.5357" gradientUnits="userSpaceOnUse" x2="26.233" y1="7.3125" x1="26.293">
   <stop id="stop5644" style="stop-color:#eeeeec" offset="0"/>
   <stop id="stop5646" style="stop-color:#c3c3bc" offset="1"/>
  </linearGradient>
  <linearGradient id="linearGradient5656" y2="3.5357" gradientUnits="userSpaceOnUse" x2="26.233" y1="7.3125" x1="26.293">
   <stop id="stop5652" style="stop-color:#d3d7cf" offset="0"/>
   <stop id="stop5654" style="stop-color:#9ea795" offset="1"/>
  </linearGradient>
 </defs>
 <metadata id="metadata7859">
  <rdf:RDF>
   <cc:Work rdf:about="">
    <dc:format>image/svg+xml</dc:format>
    <dc:type rdf:resource="http://purl.org/dc/dcmitype/StillImage"/>
    <dc:creator>
     <cc:Agent>
      <dc:title>Jakub Steiner</dc:title>
     </cc:Agent>
    </dc:creator>
    <dc:source>http://jimmac.musichall.cz</dc:source>
    <cc:license rdf:resource="http://creativecommons.org/licenses/GPL/2.0/"/>
    <dc:title>Gnome Session Properties</dc:title>
   </cc:Work>
   <cc:License rdf:about="http://creativecommons.org/licenses/GPL/2.0/">
    <cc:permits rdf:resource="http://web.resource.org/cc/Reproduction"/>
    <cc:permits rdf:resource="http://web.resource.org/cc/Distribution"/>
    <cc:requires rdf:resource="http://web.resource.org/cc/Notice"/>
    <cc:permits rdf:resource="http://web.resource.org/cc/DerivativeWorks"/>
    <cc:requires rdf:resource="http://web.resource.org/cc/ShareAlike"/>
    <cc:requires rdf:resource="http://web.resource.org/cc/SourceCode"/>
   </cc:License>
  </rdf:RDF>
 </metadata>
 <g id="layer1">
  <g id="g5672" style="opacity:.53714">
   <rect id="rect4173" style="opacity:1;color:#000000;fill:url(#linearGradient5670)" height="8.5036" width="32.123" y="38" x="7.7196"/>
   <path id="path5058" style="opacity:1;color:#000000;fill:url(#radialGradient5667)" d="m39.843 38v8.503c3.426 0.016 8.282-1.905 8.282-4.252s-3.823-4.251-8.282-4.251z"/>
   <path id="path5018" style="opacity:1;color:#000000;fill:url(#radialGradient5664)" d="m7.7196 38v8.503c-3.4259 0.016-8.2823-1.905-8.2823-4.252s3.8231-4.251 8.2823-4.251z"/>
  </g>
  <rect id="rect4585" style="stroke-linejoin:round;fill-rule:evenodd;color:#000000;stroke:#3465a4;stroke-linecap:square;fill:#729fcf" rx="2.284" ry="2.2737" height="39.871" width="42.848" y="3.629" x="2.6517"/>
  <rect id="rect5606" style="stroke-linejoin:round;opacity:.28;color:#000000;fill-rule:evenodd;filter:url(#filter5628);stroke:#000;stroke-linecap:square" rx="2.2922" ry="2.2922" height="5" width="43" y="4.3839" x="2.5"/>
  <rect id="rect5556" style="stroke-linejoin:round;fill-rule:evenodd;color:#000000;stroke:url(#linearGradient5656);stroke-linecap:square;fill:url(#linearGradient5648)" rx="2.2922" ry="2.2922" height="5" width="43" y="3.5" x="2.5"/>
  <rect id="rect5632" style="opacity:.52571;stroke-linejoin:round;color:#000000;stroke:url(#linearGradient5640);stroke-linecap:square;fill:none" rx="1.2758" ry="1.2758" height="37.871" width="40.848" y="4.629" x="3.6516"/>
  <g id="g5677" transform="translate(43.5 -2.125)">
   <rect id="rect3818" style="fill-rule:evenodd;color:#000000;stroke:#8d8d8d;fill:url(#linearGradient5682)" rx=".54074" ry=".53949" height="20" width="22" y="19.625" x="-38"/>
   <rect id="rect3820" style="color:#000000;fill-rule:evenodd;fill:url(#linearGradient5684)" rx=".10055" ry=".095259" height="3" width="19" y="21.125" x="-36.5"/>
   <rect id="rect4962" style="stroke-opacity:.47879;color:#000000;stroke:#fff;fill:none" rx=".18805" ry=".16447" height="18" width="20" y="20.625" x="-37"/>
  </g>
  <g id="g5686" transform="translate(53.5 -7.125)">
   <rect id="rect5688" style="fill-rule:evenodd;color:#000000;stroke:#8d8d8d;fill:url(#linearGradient5682)" rx=".54074" ry=".53949" height="20" width="22" y="19.625" x="-38"/>
   <rect id="rect5690" style="fill-rule:evenodd;color:#000000;fill:url(#linearGradient5684)" rx=".10055" ry=".095259" height="3" width="19" y="21.125" x="-36.5"/>
   <rect id="rect5692" style="stroke-opacity:.47879;color:#000000;stroke:#fff;fill:none" rx=".18805" ry=".16447" height="18" width="20" y="20.625" x="-37"/>
  </g>
  <g id="g5724" transform="translate(0,8)">
   <path id="path5738" style="opacity:.31429;filter:url(#filter5786);fill-rule:evenodd" d="m10.5 25.475l10-10v5.53h20c3.855 0 5.087-0.054 5 1.995v10s-2.43-3.011-4.875-3.011h-20.125v5.486l-10-10z"/>
   <path id="path5698" style="fill-rule:evenodd;stroke:#555753;stroke-width:1px;fill:url(#linearGradient5728)" d="m10.5 23l10-10v5.53h20c3.855 0 5.087 2.421 5 4.47v10s-0.403-5.486-4.875-5.486h-20.125v5.486l-10-10z"/>
   <path id="path5712" style="stroke:url(#linearGradient5730);stroke-width:1px;fill:none" d="m19.562 15.25l-7.75 7.75 7.75 7.75v-3.25c-0.002-0.249 0.096-0.489 0.272-0.666 0.177-0.176 0.417-0.274 0.666-0.272h20.125c1.864 0 3.05 0.935 3.937 2v-5.562-0.031c0.035-0.824-0.194-1.695-0.781-2.344s-1.548-1.156-3.281-1.156h-20c-0.249 0.002-0.489-0.096-0.666-0.272-0.176-0.176-0.274-0.416-0.272-0.666v-3.281z" xlink:href="#path5698"/>
  </g>
  <rect id="rect4627" style="stroke-linejoin:round;color:#000000;stroke:url(#linearGradient5604);stroke-linecap:square;fill:none" rx="1.1278" ry="1.1278" height="3" width="41" y="4.5" x="3.5"/>
 </g>
</svg>
