<?xml version="1.0" encoding="UTF-8" standalone="no"?>
<!-- Created with Inkscape (http://www.inkscape.org/) -->
<svg id="svg2" xmlns:rdf="http://www.w3.org/1999/02/22-rdf-syntax-ns#" xmlns="http://www.w3.org/2000/svg" height="16" width="16" version="1.1" xmlns:cc="http://creativecommons.org/ns#" xmlns:dc="http://purl.org/dc/elements/1.1/">
 <metadata id="metadata7">
  <rdf:RDF>
   <cc:Work rdf:about="">
    <dc:format>image/svg+xml</dc:format>
    <dc:type rdf:resource="http://purl.org/dc/dcmitype/StillImage"/>
    <dc:title/>
   </cc:Work>
  </rdf:RDF>
 </metadata>
 <g id="layer1" transform="translate(0 -1036.4)">
  <g id="g11497-6-7" transform="translate(-86 649.36)">
   <path id="rect10727-3-4" style="opacity:.51464;color:#bebebe;fill:none" d="m48 398h16v16h-16z"/>
   <path id="path4387" style="color:#bebebe;fill:#bebebe" d="m41.906 398.97c-0.51032 0.0397-0.94644 0.51947-0.9375 1.0312v13c-0.0079 0.54208 0.48917 1.0391 1.0312 1.0312h10c0.54208 0.008 1.0391-0.48917 1.0312-1.0312v-10c-0.0039-0.26817-0.11902-0.53303-0.3125-0.71875l-3-3c-0.185-0.19-0.45-0.31-0.718-0.31h-7c-0.03123-0.001-0.06252-0.001-0.09375 0zm6.594 1.03c0.277 0 0.5 0.223 0.5 0.5v2.5h2.5c0.277 0 0.5 0.223 0.5 0.5s-0.223 0.5-0.5 0.5h-3c-0.277 0-0.5-0.223-0.5-0.5v-3c0-0.277 0.223-0.5 0.5-0.5z"/>
   <path id="path3054" style="color:#bebebe;fill:#bebebe" d="m-44.094 11.969c-0.51 0.039-0.946 0.519-0.937 1.031v13c-0.008 0.542 0.489 1.039 1.031 1.031h10c0.542 0.008 1.039-0.489 1.031-1.031v-10c-0.004-0.268-0.119-0.533-0.312-0.719l-3-3c-0.186-0.193-0.451-0.308-0.719-0.312h-7c-0.031-0.001-0.063-0.001-0.094 0zm1.594 3.031h6v1h-3.5c0.277 0 0.5 0.223 0.5 0.5v2.5h2.5c0.277 0 0.5 0.223 0.5 0.5s-0.223 0.5-0.5 0.5h-3c-0.277 0-0.5-0.223-0.5-0.5v-3c0-0.277 0.223-0.5 0.5-0.5h-2.5v-1z" transform="translate(86,387)"/>
  </g>
  <path id="rect2987" style="block-progression:tb;text-indent:0;color:#000000;text-transform:none;fill:#888a85" d="m25 1070.4h12v-13h-12zm1-12h10v11h-10z"/>
  <path id="path3774" style="fill:#888a85" d="m27 1060.4h0.99998 0.000017l0.000017 1h-0.000017-0.99998-0.000017l-0.000017-1z"/>
  <path id="path2990" d="m29 1063.4h6 0.000017l0.000017 0.9999-0.000017 0.0001h-6-0.000017l-0.000017-1z" style="fill:#888a85"/>
  <path id="path2992" style="fill:#888a85" d="m29 1066.4h6 0.000017l0.000017 0.9999-0.000017 0.0001h-6-0.000017l-0.000017-1z"/>
  <path id="path2994" style="fill:#888a85" d="m27 1063.4h0.99998 0.000017l0.000017 1h-0.000017-0.99998-0.000017l-0.000017-1z"/>
  <path id="path2996" style="fill:#888a85" d="m27 1066.4h0.99998 0.000017l0.000017 1h-0.000017-0.99998-0.000017l-0.000017-1z"/>
  <path id="rect3096" style="fill:#babdb6" d="m2 2v13h12v-11l-2-2h-10zm5.0312 1.9688c1.9918 0 3.6248 1.6354 3.6248 3.625 0 0.746-0.233 1.4532-0.625 2.0312v0.0312l2.407 2.4058a0.66291 0.66291 0 1 1 -0.938 0.938l-2.4062-2.406h-0.0313c-0.5786 0.391-1.2844 0.625-2.0313 0.625-1.9917 0-3.625-1.6358-3.625-3.6252 0-1.9896 1.6333-3.625 3.625-3.625zm0 1.3437c-1.2805 0-2.2812 1.0021-2.2812 2.2813 0 1.279 1.0007 2.3124 2.2812 2.3124 1.2806 0 2.3126-1.0334 2.3126-2.3124 0-1.2792-1.032-2.2813-2.3126-2.2813z" transform="translate(0 1036.4)"/>
 </g>
</svg>
