<?xml version="1.0" encoding="UTF-8" standalone="no"?>
<!-- Created with Inkscape (http://www.inkscape.org/) -->
<svg id="svg2" xmlns:rdf="http://www.w3.org/1999/02/22-rdf-syntax-ns#" xmlns="http://www.w3.org/2000/svg" height="48" width="48" version="1.0" xmlns:cc="http://web.resource.org/cc/" xmlns:xlink="http://www.w3.org/1999/xlink" xmlns:dc="http://purl.org/dc/elements/1.1/">
 <defs id="defs4">
  <linearGradient id="linearGradient3263">
   <stop id="stop3265" style="stop-color:#fff" offset="0"/>
   <stop id="stop3267" style="stop-color:#fff;stop-opacity:0" offset="1"/>
  </linearGradient>
  <radialGradient id="radialGradient6966" gradientUnits="userSpaceOnUse" cy="16.969" cx="12.156" gradientTransform="matrix(1 0 0 .53785 0 7.8421)" r="7.8438">
   <stop id="stop3211" offset="0"/>
   <stop id="stop3213" style="stop-opacity:0" offset="1"/>
  </radialGradient>
  <linearGradient id="linearGradient6968" y2="-148.64" gradientUnits="userSpaceOnUse" x2="22.125" y1="-75.956" x1="22.125">
   <stop id="stop6952" style="stop-color:#fcaf3e" offset="0"/>
   <stop id="stop6954" style="stop-color:#fff" offset="1"/>
  </linearGradient>
  <linearGradient id="linearGradient6970" y2="33.009" xlink:href="#linearGradient3263" gradientUnits="userSpaceOnUse" x2="26.262" gradientTransform="matrix(-1 0 0 1 49 -118)" y1="5.625" x1="18.5"/>
  <linearGradient id="linearGradient6972" y2="43.64" xlink:href="#linearGradient3263" gradientUnits="userSpaceOnUse" x2="17.168" gradientTransform="matrix(-1 0 0 1 49 -118)" y1="27.371" x1="19.375"/>
 </defs>
 <metadata id="metadata7">
  <rdf:RDF>
   <cc:Work rdf:about="">
    <dc:format>image/svg+xml</dc:format>
    <dc:type rdf:resource="http://purl.org/dc/dcmitype/StillImage"/>
    <dc:creator>
     <cc:Agent>
      <dc:title>Lapo Calamandrei</dc:title>
     </cc:Agent>
    </dc:creator>
    <cc:license rdf:resource="http://creativecommons.org/licenses/GPL/2.0/"/>
    <dc:title>Rotate Left</dc:title>
    <dc:date>2006-10-02</dc:date>
    <dc:subject>
     <rdf:Bag>
      <rdf:li>object</rdf:li>
      <rdf:li>rotate</rdf:li>
     </rdf:Bag>
    </dc:subject>
   </cc:Work>
   <cc:License rdf:about="http://creativecommons.org/licenses/GPL/2.0/">
    <cc:permits rdf:resource="http://web.resource.org/cc/Reproduction"/>
    <cc:permits rdf:resource="http://web.resource.org/cc/Distribution"/>
    <cc:requires rdf:resource="http://web.resource.org/cc/Notice"/>
    <cc:permits rdf:resource="http://web.resource.org/cc/DerivativeWorks"/>
    <cc:requires rdf:resource="http://web.resource.org/cc/ShareAlike"/>
    <cc:requires rdf:resource="http://web.resource.org/cc/SourceCode"/>
   </cc:License>
  </rdf:RDF>
 </metadata>
 <g id="layer1">
  <g id="g6956" transform="matrix(-1,0,0,1,49,120)">
   <path id="path6958" style="opacity:.15;color:#000000;fill:url(#radialGradient6966)" d="m20 16.969a7.8438 4.2188 0 1 1 -15.688 0 7.8438 4.2188 0 1 1 15.688 0z" transform="matrix(-2.6773 0 0 2.1333 57.546 -117.2)"/>
   <path id="path6960" style="color:#000000;stroke-dashoffset:1.4;stroke:#ce5c00;stroke-linecap:round;fill:url(#linearGradient6968)" d="m36.844-115.5c-11.445 0-20.344 9.09-20.344 20v3h-6.5c-0.3981 0.003-0.7565 0.242-0.9125 0.608s-0.0799 0.79 0.1937 1.08l12.969 14.031c0.189 0.205 0.456 0.321 0.734 0.321 0.279 0 0.545-0.116 0.735-0.321l12.937-14.031c0.278-0.294 0.352-0.725 0.188-1.094s-0.534-0.604-0.938-0.594h-6.406v-3c0-2.108 0.724-3.878 2-5.09 1.278-1.22 3.131-1.91 5.344-1.91h8.656c0.552 0 1-0.45 1-1v-11c0-0.55-0.448-1-1-1h-8.656z"/>
   <path id="path6962" style="color:#000000;stroke-dashoffset:1.4;stroke:url(#linearGradient6970);stroke-linecap:round;fill:none" d="m17.5-91.5v-4c0-10.38 8.396-19 19.312-19h8.688v11h-8.656c-2.424 0-4.541 0.77-6.032 2.19-1.49 1.418-2.312 3.468-2.312 5.81v4"/>
   <path id="path6964" style="stroke-linejoin:round;color:#000000;stroke-dashoffset:1.4;stroke:url(#linearGradient6972);stroke-linecap:round;fill:none" d="m28.5-91.5h7.406l-12.937 14.031-12.969-14.031h7.5"/>
  </g>
 </g>
</svg>
