<?xml version="1.0" encoding="UTF-8" standalone="no"?>
<!-- Created with Inkscape (http://www.inkscape.org/) -->
<svg id="svg4908" xmlns:rdf="http://www.w3.org/1999/02/22-rdf-syntax-ns#" xmlns="http://www.w3.org/2000/svg" height="22" width="22" version="1.0" xmlns:cc="http://web.resource.org/cc/" xmlns:xlink="http://www.w3.org/1999/xlink" xmlns:dc="http://purl.org/dc/elements/1.1/">
 <defs id="defs4910">
  <linearGradient id="linearGradient5904" y2="10.318" gradientUnits="userSpaceOnUse" x2="11.816" y1="6.1056" x1="13.756">
   <stop id="stop5900" style="stop-color:#555753" offset="0"/>
   <stop id="stop5902" style="stop-color:#3b3c39" offset="1"/>
  </linearGradient>
 </defs>
 <metadata id="metadata4913">
  <rdf:RDF>
   <cc:Work rdf:about="">
    <dc:format>image/svg+xml</dc:format>
    <dc:type rdf:resource="http://purl.org/dc/dcmitype/StillImage"/>
   </cc:Work>
  </rdf:RDF>
 </metadata>
 <g id="layer1">
  <path id="text4916" style="stroke:#2e3436;stroke-width:1px;fill:url(#linearGradient5904)" transform="scale(1.0249 .97575)" d="m11.275 14.919h-3.9273v-0.994c0-0.7 0.1409-1.319 0.4227-1.857 0.2818-0.547 0.5704-1.239 1.4757-2.0757l0.8199-0.743c0.487-0.4441 0.841-0.8626 1.063-1.2554 0.231-0.3929 0.346-0.7857 0.346-1.1786 0-0.5978-0.205-1.0633-0.615-1.3964-0.41-0.3416-0.9819-0.5124-1.7164-0.5124-0.6918 0-1.439 0.1452-2.2418 0.4356-0.8028 0.2818-1.6398 0.7046-2.5109 1.2682v-4.0225c1.0334-0.3587 1.9771-0.6235 2.8311-0.7943 0.8541-0.1708 1.6782-0.2562 2.4725-0.2562 2.0835 0 3.6725 0.427 4.7655 1.2811 1.093 0.8455 1.64 2.0838 1.64 3.7151 0 0.8369-0.167 1.5885-0.5 2.2546-0.333 0.6577-0.901 1.3669-1.704 2.1269l-0.819 0.73c-0.581 0.529-1.353 0.956-1.533 1.281-0.179 0.316-0.269 0.666-0.269 1.05v0.943m-3.9709 2.033h3.9709v4.058h-3.9709v-4.058"/>
  <path id="path4925" style="opacity:.3;stroke:#eeeeec;stroke-width:1px;fill:none" d="m10.531 13.5h-2.0146c0-0.554 0.2239-1.422 0.9862-2.356 1.0334-1.517 3.3904-2.5077 3.2984-4.6526-0.093-2.1895-1.96-2.7422-3.3759-2.7828-1.3713-0.0406-2.6588 0.3704-3.9251 1.0953v-1.4931c0.8826-0.2964 1.6885-0.5152 2.4179-0.6563s1.4333-0.2117 2.1121-0.2117c3.049-0.0612 5.368 0.9067 5.47 4.1283-0.286 2.8121-3.384 3.9269-4.969 6.1499v0.779"/>
  <rect id="rect5896" style="opacity:.3;stroke:#eeeeec;stroke-linecap:round;fill:none" height="1.9652" width="1.9715" y="17.535" x="8.5285"/>
 </g>
</svg>
