<?xml version="1.0" encoding="UTF-8" standalone="no"?>
<!-- Created with Inkscape (http://www.inkscape.org/) -->
<svg id="svg4908" xmlns:rdf="http://www.w3.org/1999/02/22-rdf-syntax-ns#" xmlns="http://www.w3.org/2000/svg" height="16px" width="16px" xmlns:cc="http://web.resource.org/cc/" xmlns:xlink="http://www.w3.org/1999/xlink" xmlns:dc="http://purl.org/dc/elements/1.1/">
 <defs id="defs4910">
  <linearGradient id="linearGradient5923" y2="11.54" gradientUnits="userSpaceOnUse" x2="9.9109" gradientTransform="matrix(1.1538 0 0 1.0753 -1.2308 -.11292)" y1="8.5894" x1="6.5097">
   <stop id="stop5919" style="stop-color:#d80000" offset="0"/>
   <stop id="stop5921" style="stop-color:#ca0000" offset="1"/>
  </linearGradient>
 </defs>
 <metadata id="metadata4913">
  <rdf:RDF>
   <cc:Work rdf:about="">
    <dc:format>image/svg+xml</dc:format>
    <dc:type rdf:resource="http://purl.org/dc/dcmitype/StillImage"/>
   </cc:Work>
  </rdf:RDF>
 </metadata>
 <g id="layer1">
  <path id="path4944" style="stroke-linejoin:round;fill-rule:evenodd;stroke:#8a0000;stroke-linecap:round;stroke-width:1px;fill:url(#linearGradient5923)" d="m0.5 14.5h15l-7.5242-13-7.4758 13z"/>
  <path id="path4946" style="opacity:.3;stroke:#fff;stroke-width:1px;fill:none" d="m2.279 13.5h11.5l-5.7683-10-5.7317 10z"/>
  <path id="path4911" style="stroke:#555753;stroke-linecap:round;stroke-width:.81232;fill:#ffe680" d="m15.625 11.891a4.5312 3.6406 0 1 1 -9.0625 0 4.5312 3.6406 0 1 1 9.0625 0z" transform="matrix(.98307 0 0 1.2236 -1.0059 -3.4489)"/>
  <path id="path5882" style="stroke:#fff;stroke-linecap:round;stroke-width:1.0154;fill:none" d="m15.625 11.891a4.5312 3.6406 0 1 1 -9.0625 0 4.5312 3.6406 0 1 1 9.0625 0z" transform="matrix(.78646 0 0 .97885 1.1752 -.53915)"/>
  <path id="path5884" style="stroke-linejoin:round;stroke:#000;stroke-linecap:round;stroke-width:.91150px;fill:none" d="m10.028 8.0394v3.1906h-3.1336"/>
  <path id="path5886" style="opacity:.33696;fill:#fff;fill-rule:evenodd" d="m5.8909 11.545c3.4708 0.112 4.0741-1.6978 7.8231-1.67-0.64-1.7818-2.116-2.7748-3.814-2.7841-1.7261-0.0093-3.9813 1.8561-4.0091 4.4541z"/>
 </g>
</svg>
