<?xml version="1.0" encoding="UTF-8" standalone="no"?>
<!-- Created with Inkscape (http://www.inkscape.org/) -->
<svg id="svg6941" xmlns:rdf="http://www.w3.org/1999/02/22-rdf-syntax-ns#" xmlns="http://www.w3.org/2000/svg" height="16px" width="16px" xmlns:cc="http://web.resource.org/cc/" xmlns:xlink="http://www.w3.org/1999/xlink" xmlns:dc="http://purl.org/dc/elements/1.1/">
 <defs id="defs6943">
  <radialGradient id="radialGradient5905" gradientUnits="userSpaceOnUse" cy="8.9839" cx="9.4661" gradientTransform="matrix(1.1672 -.0032679 .0027524 1.015 -1.6223 -.20242)" r="6.7474">
   <stop id="stop5901" style="stop-color:#fce94f" offset="0"/>
   <stop id="stop5903" style="stop-color:#edd400" offset="1"/>
  </radialGradient>
 </defs>
 <metadata id="metadata6946">
  <rdf:RDF>
   <cc:Work rdf:about="">
    <dc:format>image/svg+xml</dc:format>
    <dc:type rdf:resource="http://purl.org/dc/dcmitype/StillImage"/>
   </cc:Work>
  </rdf:RDF>
 </metadata>
 <g id="layer1">
  <path id="path4926" style="stroke-linejoin:round;stroke:#8d7300;stroke-linecap:round;stroke-width:.97113;fill:url(#radialGradient5905)" d="m14.236 7.7222a6.2619 6.3632 0 1 1 -12.524 0 6.2619 6.3632 0 1 1 12.524 0z" transform="matrix(1.038 0 0 1.0215 -.27698 .11188)"/>
  <path id="path5897" style="opacity:.6;stroke-linejoin:round;stroke:#fff;stroke-linecap:round;stroke-width:1.1477;fill:none" d="m14.236 7.7222a6.2619 6.3632 0 1 1 -12.524 0 6.2619 6.3632 0 1 1 12.524 0z" transform="matrix(.87833 0 0 .86434 .99640 1.3254)"/>
  <rect id="rect5886" style="stroke:#888a85;stroke-linecap:round;fill:#eeeeec" rx="0" ry="0" height="9" width="9" y="5.5" x="5.5"/>
  <rect id="rect5969" style="stroke:#fff;stroke-linecap:round;fill:none" rx="0" ry="0" height="7" width="7" y="6.5" x="6.5"/>
  <path id="path5888" style="fill:#8d7300" d="m12.118 7.846a1.4416 1.4866 0 1 1 -2.8829 0 1.4416 1.4866 0 1 1 2.8829 0z" transform="matrix(.69368 0 0 .67266 2.5937 2.7223)"/>
  <path id="path5883" style="stroke:#888a85;stroke-linecap:round;stroke-width:1px;fill:none" d="m7.4772 10.5h4.0458"/>
  <path id="path5885" style="stroke:#888a85;stroke-linecap:round;stroke-width:1px;fill:none" d="m7.4873 12.5h4.0367"/>
 </g>
</svg>
