<?xml version="1.0" encoding="UTF-8" standalone="no"?>
<!-- Created with Inkscape (http://www.inkscape.org/) -->
<svg id="svg2" xmlns:rdf="http://www.w3.org/1999/02/22-rdf-syntax-ns#" xmlns="http://www.w3.org/2000/svg" height="48" width="48" version="1.0" xmlns:cc="http://web.resource.org/cc/" xmlns:xlink="http://www.w3.org/1999/xlink" xmlns:dc="http://purl.org/dc/elements/1.1/">
 <defs id="defs3">
  <linearGradient id="linearGradient5060">
   <stop id="stop5062" offset="0"/>
   <stop id="stop5064" style="stop-opacity:0" offset="1"/>
  </linearGradient>
  <linearGradient id="linearGradient6945">
   <stop id="stop6947" style="stop-color:#fff" offset="0"/>
   <stop id="stop6949" style="stop-color:#d3d7cf" offset="1"/>
  </linearGradient>
  <linearGradient id="linearGradient4867" y2="76.624" gradientUnits="userSpaceOnUse" x2="14.125" gradientTransform="matrix(1.0548 0 0 1.1085 -1.2858 -43.734)" y1="79.813" x1="14.125">
   <stop id="stop6986" style="stop-color:#babdb6" offset="0"/>
   <stop id="stop6988" style="stop-color:#babdb6;stop-opacity:0" offset="1"/>
  </linearGradient>
  <radialGradient id="radialGradient4870" xlink:href="#linearGradient6945" gradientUnits="userSpaceOnUse" cy="61.48" cx="13.107" gradientTransform="matrix(2.7512 0 0 2.3999 -28.648 -124.79)" r="18.5"/>
  <radialGradient id="radialGradient4892" xlink:href="#linearGradient6945" gradientUnits="userSpaceOnUse" cy="41.332" cx="19.372" gradientTransform="matrix(-2.7512 0 0 .73648 75.651 -1.463)" r="18.5"/>
  <linearGradient id="linearGradient4903" y2="609.51" gradientUnits="userSpaceOnUse" x2="302.86" gradientTransform="matrix(2.7744 0 0 1.9697 -1892.2 -872.89)" y1="366.65" x1="302.86">
   <stop id="stop5050" style="stop-opacity:0" offset="0"/>
   <stop id="stop5056" offset=".5"/>
   <stop id="stop5052" style="stop-opacity:0" offset="1"/>
  </linearGradient>
  <radialGradient id="radialGradient4905" xlink:href="#linearGradient5060" gradientUnits="userSpaceOnUse" cy="486.65" cx="605.71" gradientTransform="matrix(2.7744 0 0 1.9697 -1891.6 -872.89)" r="117.14"/>
  <radialGradient id="radialGradient4907" xlink:href="#linearGradient5060" gradientUnits="userSpaceOnUse" cy="486.65" cx="605.71" gradientTransform="matrix(-2.7744 0 0 1.9697 112.76 -872.89)" r="117.14"/>
  <linearGradient id="linearGradient5499" y2="63.499" gradientUnits="userSpaceOnUse" x2="32.625" y1="68.438" x1="32.625">
   <stop id="stop6934" offset="0"/>
   <stop id="stop6936" style="stop-opacity:0" offset="1"/>
  </linearGradient>
 </defs>
 <metadata id="metadata4">
  <rdf:RDF>
   <cc:Work rdf:about="">
    <dc:format>image/svg+xml</dc:format>
    <dc:type rdf:resource="http://purl.org/dc/dcmitype/StillImage"/>
    <dc:title>Mail Emblem</dc:title>
    <dc:date>2005-02-19</dc:date>
    <dc:creator>
     <cc:Agent>
      <dc:title>Lapo Calamandrei</dc:title>
     </cc:Agent>
    </dc:creator>
    <dc:description>Mail emblem</dc:description>
    <dc:contributor>
     <cc:Agent>
      <dc:title>Jakub Steiner
Andreas Nilsson</dc:title>
     </cc:Agent>
    </dc:contributor>
    <cc:license rdf:resource="http://creativecommons.org/licenses/GPL/2.0/"/>
    <dc:subject>
     <rdf:Bag>
      <rdf:li>mail</rdf:li>
      <rdf:li>message</rdf:li>
      <rdf:li>e-mail</rdf:li>
     </rdf:Bag>
    </dc:subject>
    <dc:rights>
     <cc:Agent>
      <dc:title>Lapo Calamandrei, Andreas Nilsson, Novell Inc.</dc:title>
     </cc:Agent>
    </dc:rights>
   </cc:Work>
   <cc:License rdf:about="http://creativecommons.org/licenses/GPL/2.0/">
    <cc:permits rdf:resource="http://web.resource.org/cc/Reproduction"/>
    <cc:permits rdf:resource="http://web.resource.org/cc/Distribution"/>
    <cc:requires rdf:resource="http://web.resource.org/cc/Notice"/>
    <cc:permits rdf:resource="http://web.resource.org/cc/DerivativeWorks"/>
    <cc:requires rdf:resource="http://web.resource.org/cc/ShareAlike"/>
    <cc:requires rdf:resource="http://web.resource.org/cc/SourceCode"/>
   </cc:License>
  </rdf:RDF>
 </metadata>
 <g id="layer1">
  <g id="g6055" style="opacity:.7" transform="matrix(.022855 0 0 .017811 43.828 41.603)">
   <rect id="rect6057" style="opacity:.39196;color:#000000;fill:url(#linearGradient4903)" height="478.36" width="1339.6" y="-150.7" x="-1559.3"/>
   <path id="path6059" style="opacity:.40206;color:#000000;fill:url(#radialGradient4905)" d="m-219.62-150.68v478.33c142.88 0.9 345.4-107.17 345.4-239.2 0-132.02-159.44-239.13-345.4-239.13z"/>
   <path id="path6061" style="opacity:.40206;color:#000000;fill:url(#radialGradient4907)" d="m-1559.3-150.68v478.33c-142.8 0.9-345.4-107.17-345.4-239.2 0-132.02 159.5-239.13 345.4-239.13z"/>
  </g>
  <path id="rect5931" style="fill:url(#radialGradient4892);fill-rule:evenodd" d="m23.501 2.3752c-5.825 0-6.328 1.1054-7.383 2.2108l-11.602 12.16-0.0005 1.554v0.207 24.319c0 0.867 0.6569 1.555 1.4833 1.555h35.005c0.827 0 1.483-0.688 1.483-1.555v-24.319-0.207-1.554l-11.602-12.16c-1.055-1.1054-1.582-2.2108-7.384-2.2108z"/>
  <path id="path4909" style="fill-rule:evenodd;color:#000000;stroke:#aeaeae;fill:#f2f2f0" d="m8.3085 25.792l25.722-11.049 6.275 15.292-28.638 5.391-3.3585-9.634z"/>
  <path id="path7161" style="stroke-linejoin:round;stroke-opacity:.99237;stroke-dashoffset:0.7;stroke:#888a85;fill:none" d="m42.487 19.613v-2.826l-11.602-11.983c-1.055-1.0894-1.582-2.1788-7.384-2.1788-5.825 0-6.328 1.0894-7.383 2.1788l-11.602 11.983-0.0005 2.826"/>
  <path id="path7112" style="fill:#fff;fill-rule:evenodd" d="m5.1325 21.444l10.528 12.816c0.492 0.518 0.978 1.199 2.061 1.658s2.703 0.725 5.624 0.725c2.909 0 4.539-0.267 5.624-0.725 1.085-0.459 1.568-1.138 2.06-1.658l10.496-12.678-10.496 11.019c-0.492 0.521-0.975 1.2-2.06 1.659-1.085 0.458-2.715 0.725-5.624 0.725-2.921 0-4.541-0.266-5.624-0.725-1.083-0.46-1.569-1.14-2.06-1.659l-10.528-11.157z"/>
  <path id="path6930" style="opacity:.16791;fill:url(#linearGradient5499);fill-rule:evenodd" d="m6.9062 55c-1.0484 0-1.9062 0.858-1.9062 1.906v1.594c0.0052 0.131 0.0612 0.254 0.1562 0.344l11 11c0.469 0.469 0.934 1.085 1.969 1.5s2.583 0.656 5.375 0.656c2.78 0 4.338-0.241 5.375-0.656s1.498-1.03 1.969-1.5l11-11c0.095-0.09 0.151-0.213 0.156-0.344v-1.594c0-1.048-0.858-1.906-1.906-1.906h-33.188z" transform="matrix(1.0463 0 0 1.1054 -1.3061 -44.542)"/>
  <path id="path5492" style="fill-rule:evenodd;color:#000000;fill:#fff" d="m33.688 15.438l-24.188 10.312 0.5 0.562 23.25-9.25 4 9 0.562-0.562-4.124-10.062z"/>
  <path id="path7128" style="fill:#abaca9;fill-rule:evenodd" d="m5.1325 21.444l10.528 9.855c0.492 0.518 0.978 1.199 2.061 1.658s2.703 0.725 5.624 0.725c2.909 0 4.539-0.267 5.624-0.725 1.085-0.459 1.568-1.138 2.06-1.658l10.496-9.717-10.496 11.019c-0.492 0.521-0.975 1.2-2.06 1.659-1.085 0.458-2.715 0.725-5.624 0.725-2.921 0-4.541-0.266-5.624-0.725-1.083-0.46-1.569-1.14-2.06-1.659l-10.528-11.157z"/>
  <path id="path6902" style="fill:url(#radialGradient4870);fill-rule:evenodd" d="m23.501 30.011c-5.273 0-6.328 1.081-7.383 2.163l-11.174 11.458c0.2696 0.277 0.6416 0.44 1.0548 0.44h35.005c0.413 0 0.785-0.163 1.055-0.44l-11.174-11.458c-1.055-1.082-2.11-2.163-7.384-2.163z"/>
  <path id="path6980" style="opacity:.55597;fill:url(#linearGradient4867);fill-rule:evenodd" d="m5.0429 39.303v3.533c0 0.578 0.4063 1.005 0.9559 1.005h35.005c0.55 0 0.956-0.427 0.956-1.005v-3.533h-36.917z"/>
  <path id="path7174" style="stroke-linejoin:round;stroke-opacity:.99237;stroke-dashoffset:0.7;stroke:#888a85;fill:none" d="m4.5155 18.507v24.477c0 0.872 0.6569 1.565 1.4833 1.565h35.005c0.827 0 1.483-0.693 1.483-1.565v-24.477"/>
  <path id="path5488" style="fill-rule:evenodd;color:#000000;fill:#e8eae6" d="m41.808 21.41l-9.712 11.454 9.712 10.467v-21.921z"/>
  <path id="path5490" style="fill-rule:evenodd;color:#000000;fill:#e8eae6" d="m5.1005 21.598l9.8995 11.579-9.8995 10.654v-22.233z"/>
  <g id="g6320" transform="matrix(1.0548 0 0 1.1116 -61.672 -2.8573)">
   <path id="path7039" style="fill:#abaca9;fill-rule:evenodd" d="m63.25 41.971l10.156-11.344c0.47-0.469 0.935-1.085 1.969-1.5s2.584-0.656 5.375-0.656c2.78 0 4.338 0.242 5.375 0.656 1.037 0.415 1.498 1.03 1.969 1.5l10.156 11.344-10.147-9.796c-2.044-1.969-4.518-2.272-7.343-2.156-2.671 0.049-5.465 0-7.344 2.156l-10.166 9.796z"/>
   <path id="path7049" style="fill:#fff;fill-rule:evenodd" d="m63.25 41.992l10.166-8.587c1.879-2.118 4.673-2.069 7.344-2.118 2.825-0.114 5.299 0.183 7.343 2.118l10.147 8.587-10.156-10.158c-2.044-1.935-4.518-2.232-7.344-2.118-2.671 0.049-5.464 0-7.344 2.118l-10.156 10.158z"/>
  </g>
  <path id="path7293" style="opacity:.59470;stroke-linejoin:round;stroke-opacity:.99237;stroke-dashoffset:0.7;stroke:#fff;fill:none" d="m5.9526 42.297c0 0.541 0.1497 0.841 0.4197 0.841h34.286c0.27 0 0.42-0.3 0.42-0.841"/>
  <path id="path6064" style="stroke-linejoin:round;stroke-opacity:.99237;stroke-dashoffset:0.7;stroke:#fff;stroke-width:.92305;fill:none" d="m24.5 5.5c-2.702 0-4.107 0.2356-4.844 0.5312-0.737 0.2957-0.908 0.5956-1.468 1.1563l-10.688 10.688v1.03 0.188 22c0 0.261 0.1449 0.406 0.4062 0.406h33.188c0.261 0 0.406-0.145 0.406-0.406v-22-0.188-1.031l-10.688-10.688c-0.558-0.5576-0.758-0.8593-1.5-1.1558-0.741-0.2964-2.122-0.5312-4.812-0.5312z" transform="matrix(1.0607 0 0 1.1065 -2.5164 -2.4844)"/>
 </g>
</svg>
