<?xml version="1.0" encoding="UTF-8" standalone="no"?>
<!-- Created with Inkscape (http://www.inkscape.org/) -->
<svg id="svg3879" xmlns:rdf="http://www.w3.org/1999/02/22-rdf-syntax-ns#" xmlns="http://www.w3.org/2000/svg" height="48" width="48" version="1.0" xmlns:cc="http://creativecommons.org/ns#" xmlns:xlink="http://www.w3.org/1999/xlink" xmlns:dc="http://purl.org/dc/elements/1.1/">
 <defs id="defs3881">
  <linearGradient id="linearGradient4563" y2="-51.44" xlink:href="#linearGradient4555" gradientUnits="userSpaceOnUse" x2="-257.5" gradientTransform="matrix(.96774 0 0 1.1034 283.18 75.228)" y1="-50.302" x1="-257.51"/>
  <linearGradient id="linearGradient4555">
   <stop id="stop4557" style="stop-color:#545652" offset="0"/>
   <stop id="stop4559" style="stop-color:#80837d" offset="1"/>
  </linearGradient>
  <linearGradient id="linearGradient4984" y2="247.61" gradientUnits="userSpaceOnUse" x2="-24.687" gradientTransform="translate(70.144 -254.44)" y1="245.85" x1="-24.687">
   <stop id="stop4978" style="stop-color:#555753" offset="0"/>
   <stop id="stop4980" style="stop-color:#808080" offset="1"/>
  </linearGradient>
  <linearGradient id="linearGradient4553" y2="-51.44" xlink:href="#linearGradient4555" gradientUnits="userSpaceOnUse" x2="-257.5" gradientTransform="translate(254.48 70.271)" y1="-50.302" x1="-257.51"/>
  <radialGradient id="radialGradient5721-4" gradientUnits="userSpaceOnUse" cy="-120.86" cx="-306.03" gradientTransform="matrix(.93663 1.7845 -2.1045 1.045 29.791 695.98)" r="3.0368">
   <stop id="stop5045-4-8-8" style="stop-color:#fff" offset="0"/>
   <stop id="stop5047-1-2-6" style="stop-color:#fff;stop-opacity:0" offset="1"/>
  </radialGradient>
  <linearGradient id="linearGradient5719-5" y2="-114.83" gradientUnits="userSpaceOnUse" x2="-300.83" gradientTransform="matrix(1.074 0 0 1.2559 322.64 178.49)" y1="-126.31" x1="-300.83">
   <stop id="stop5657-5" style="stop-color:#2e3436" offset="0"/>
   <stop id="stop5659-1" style="stop-color:#707e83;stop-opacity:0" offset="1"/>
  </linearGradient>
  <linearGradient id="linearGradient5758" y2="-36.569" gradientUnits="userSpaceOnUse" y1="-43.842" gradientTransform="matrix(-1.1341 0 0 1.0685 -250.42 72.389)" x2="-219.25" x1="-219.25">
   <stop id="stop5855" style="stop-color:#888a85" offset="0"/>
   <stop id="stop5857" style="stop-color:#555753" offset="1"/>
  </linearGradient>
  <linearGradient id="linearGradient5632" y2="-240.62" gradientUnits="userSpaceOnUse" x2="-23.909" gradientTransform="matrix(1 0 0 1.4971 69.917 375.11)" y1="-243.1" x1="-25.743">
   <stop id="stop5628" style="stop-color:#babdb6" offset="0"/>
   <stop id="stop5630" style="stop-color:#babdb6;stop-opacity:0" offset="1"/>
  </linearGradient>
  <linearGradient id="linearGradient4977" y2="-282.2" gradientUnits="userSpaceOnUse" x2="-102.95" y1="-282.2" x1="-105.74">
   <stop id="stop4973" style="stop-color:#fff" offset="0"/>
   <stop id="stop4975" style="stop-color:#fff;stop-opacity:0" offset="1"/>
  </linearGradient>
  <linearGradient id="linearGradient4792" y2="282.32" gradientUnits="userSpaceOnUse" x2="-101.28" gradientTransform="matrix(.81265 0 0 1 129.19 -269.65)" y1="280.92" x1="-106.91">
   <stop id="stop4788" style="stop-color:#555753" offset="0"/>
   <stop id="stop4790" offset="1"/>
  </linearGradient>
  <radialGradient id="radialGradient5447-5" gradientUnits="userSpaceOnUse" cy="-120.86" cx="-306.03" gradientTransform="matrix(-.93663 1.7845 2.1045 1.045 1.0625 696.17)" r="3.0368">
   <stop id="stop5045-4-8" style="stop-color:#fff" offset="0"/>
   <stop id="stop5047-1-2" style="stop-color:#fff;stop-opacity:0" offset="1"/>
  </radialGradient>
  <linearGradient id="linearGradient5443-6" y2="-114.83" gradientUnits="userSpaceOnUse" x2="-300.83" gradientTransform="matrix(1.093 0 0 1.247 297.53 177.58)" y1="-126.31" x1="-300.83">
   <stop id="stop5657" style="stop-color:#2e3436" offset="0"/>
   <stop id="stop5659" style="stop-color:#707e83;stop-opacity:0" offset="1"/>
  </linearGradient>
  <linearGradient id="linearGradient5667" y2="-36.569" gradientUnits="userSpaceOnUse" x2="-219.25" gradientTransform="matrix(1.1341 0 0 1.0633 281.27 72.326)" y1="-43.842" x1="-219.25">
   <stop id="stop5663" style="stop-color:#888a85" offset="0"/>
   <stop id="stop5665" style="stop-color:#555753" offset="1"/>
  </linearGradient>
  <linearGradient id="linearGradient5212" y2="-143.92" gradientUnits="userSpaceOnUse" x2="-262.43" y1="-142.89" x1="-304.5">
   <stop id="stop5208" style="stop-color:#fff" offset="0"/>
   <stop id="stop5210" style="stop-color:#dededd;stop-opacity:0" offset="1"/>
  </linearGradient>
  <linearGradient id="linearGradient5394" y2="-141.13" gradientUnits="userSpaceOnUse" x2="-283.8" gradientTransform="translate(299.5 147.12)" y1="-143.75" x1="-283.8">
   <stop id="stop5390" style="stop-color:#555753" offset="0"/>
   <stop id="stop5392" offset="1"/>
  </linearGradient>
  <radialGradient id="radialGradient5382" gradientUnits="userSpaceOnUse" cy="-153.18" cx="-284.45" gradientTransform="matrix(.74933 .0071443 -.0073994 .77608 227.06 124.26)" r="17.449">
   <stop id="stop5378" style="stop-color:#babdb6" offset="0"/>
   <stop id="stop5380" style="stop-color:#434542" offset="1"/>
  </radialGradient>
  <linearGradient id="linearGradient3623" y2="34.928" gradientUnits="userSpaceOnUse" x2="1.4212" y1="19.019" x1="1.4212">
   <stop id="stop3619" style="stop-color:#2e3436" offset="0"/>
   <stop id="stop3621" style="stop-color:#0b0c0d" offset="1"/>
  </linearGradient>
  <linearGradient id="linearGradient3646" y2="34.928" gradientUnits="userSpaceOnUse" y1="19.019" gradientTransform="translate(27.998 2.9924e-7)" x2="1.4212" x1="1.4212">
   <stop id="stop3619-2" style="stop-color:#2e3436" offset="0"/>
   <stop id="stop3621-4" style="stop-color:#0b0c0d" offset="1"/>
  </linearGradient>
 </defs>
 <metadata id="metadata3884">
  <rdf:RDF>
   <cc:Work rdf:about="">
    <dc:format>image/svg+xml</dc:format>
    <dc:type rdf:resource="http://purl.org/dc/dcmitype/StillImage"/>
    <dc:title/>
   </cc:Work>
  </rdf:RDF>
 </metadata>
 <g id="layer1" transform="translate(8.5714 -.14286)">
  <rect id="rect5861" style="fill-opacity:0" height="48" width="48" y=".14286" x="-8.5714"/>
  <path id="rect5549" style="block-progression:tb;text-indent:0;color:#000000;text-transform:none;fill:#808080" d="m8.7957 3.2221c-6.8246 0-12.354 5.4798-12.354 12.281v6.4062c0 0.71914 0.0695 1.4091 0.18813 2.0938h1.0034c-0.12713-0.67917-0.18814-1.3762-0.18814-2.0938v-6.4062c0-6.2648 5.0648-11.281 11.351-11.281h13.291c6.286 0 11.351 5.0165 11.351 11.281v6.4062c0 0.71759-0.061 1.4146-0.18814 2.0938h1.0034c0.11864-0.68467 0.18814-1.3746 0.18814-2.0938v-6.4062c0-6.8015-5.5297-12.281-12.354-12.281h-13.291z"/>
  <path id="path5202" style="fill:url(#radialGradient5382)" d="m-1.5394 9.403c-0.34234-0.23492-0.47813-0.54724-0.45029-1.0356 0.0286-0.50183 0.14055-0.65306 1.0919-1.4752 4.6479-4.0166 13.374-5.8745 21.594-4.5977 3.755 0.58323 7.2884 1.862 9.7482 3.528 1.3236 0.89651 2.3181 1.8627 2.4306 2.3614 0.15327 0.67962-0.31249 1.3629-0.92947 1.3635-0.20344 0.00022-0.38709-0.0843-0.80622-0.37099-4.589-3.1391-11.826-4.345-18.911-3.6775-4.8043 0.4526-9.015 1.4502-12.276 3.5804-0.80479 0.52575-1.1037 0.59052-1.4927 0.32354z"/>
  <path id="path5194" style="block-progression:tb;text-indent:0;color:#000000;text-transform:none;fill:url(#linearGradient5394)" d="m14.152 1.1469c-1.2559 0.0451-2.5075 0.15463-3.7188 0.32324-4.8156 0.67034-9.1495 2.303-11.937 4.784-0.0171 0.0152-0.0455 0.017-0.0625 0.0323a0.50262 0.52232 0 0 0 -0.0625 0.0969c-0.83386 0.60798-1.1129 1.7851-0.59375 2.7152 0.51041 0.91445 1.5828 1.2502 2.5 0.84042 0.0165-0.007 0.0462 0.008 0.0625 0a0.49978 0.51937 0 0 0 0.125 -0.0646c0.008-0.004 0.0233 0.005 0.0312 0 0.0189-0.0126 0.0435-0.0198 0.0625-0.0323 0.0117-0.007 0.0195-0.0246 0.0312-0.0323 6.3503-4.1892 18.368-4.9919 26.594-1.6809 1.1517 0.46359 2.1877 0.97193 3.0938 1.5516a0.50097 0.51819 0 0 0 0.0312 0.0323c0.0119 0.007 0.0194 0.0246 0.0312 0.0323a0.50097 0.51819 0 0 0 0.0937 0.0969c0.95145 0.5682 2.2007 0.24071 2.75-0.74345 0.46922-0.84064 0.27778-1.8769-0.375-2.5213a0.50262 0.52232 0 0 0 -0.0312 -0.0647c-0.006-0.005-0.0251 0.005-0.0312 0a0.50262 0.52232 0 0 0 -0.0312 -0.0323c-0.0275-0.0237-0.0336-0.0747-0.0625-0.0969a0.50262 0.52232 0 0 0 0 -0.0323c-1.7763-1.631-4.3034-2.9345-7.3438-3.8466-2.3514-0.70544-4.85-1.1302-7.375-1.293-1.2625-0.0814-2.5254-0.10973-3.7812-0.0646zm1.875 1.0344c3.0708 0.0463 6.1604 0.47336 9 1.3253h0.0312c2.7626 0.83245 5.0468 2.0443 6.6562 3.4264a0.50005 0.51724 0 0 0 0.21875 0.22627c0.48342 0.28869 0.6541 0.92223 0.375 1.4223-0.23724 0.42504-0.72255 0.61655-1.1562 0.48486a0.49889 0.51844 0 0 0 -0.15625 -0.0969c-1.0228-0.68188-2.1686-1.2868-3.4688-1.8102-4.3076-1.734-9.4965-2.3954-14.469-2.0688-4.8872 0.32102-9.5422 1.6205-12.906 3.8143-0.008 0.005-0.0237-0.005-0.0312 0a0.50097 0.51819 0 0 0 -0.0625 0.0323 0.50097 0.51819 0 0 0 -0.0625 0.0323c-0.0119 0.008-0.0194 0.0244-0.0312 0.0323-0.47706 0.25937-1.0716 0.0673-1.3438-0.42021-0.26792-0.48002-0.12657-1.0875 0.3125-1.39a0.50262 0.52232 0 0 0 0.0625 -0.0323 0.50005 0.51724 0 0 0 0.1875 -0.16162c2.5621-2.2514 6.722-3.8454 11.375-4.4931 1.7673-0.24602 3.6263-0.35108 5.4688-0.32324z"/>
  <path id="path5204" style="stroke-dashoffset:220;stroke:url(#linearGradient5212);stroke-linecap:round;stroke-width:.96894;fill:none" d="m-300.84-141.16c5.9727-4.2381 17.686-5.2529 26.162-2.2666 1.7838 0.62846 3.3348 1.4076 4.5834 2.3024" transform="matrix(-1.0297 0 0 1.0345 -278.49 154.74)"/>
  <path id="rect5551" style="block-progression:tb;text-indent:0;color:#000000;text-transform:none;fill:#808080" d="m-3.5926 33.735v0.0312c0 6.8015 5.4798 12.281 12.281 12.281h9.25v-1h-9.25c-6.2648 0-11.281-5.0165-11.281-11.281v-0.0312h-1z"/>
  <path id="path5431" style="stroke-dashoffset:220;stroke:url(#linearGradient5667);stroke-linecap:round;fill:#fff" d="m33.003 19.691c2.1578 0 3.8947 1.7731 3.8947 3.9758v6.9845c0 2.2027-1.7369 3.9758-3.8947 3.9758l-3.0731 0.04092-0.0268-14.992c1.3839 0.04051 1.8193 0.01533 3.0999 0.01533v-0.000092z"/>
  <rect id="rect5433" style="fill:url(#linearGradient5443-6)" transform="scale(-1,1)" height="14.883" width="2.0379" y="19.213" x="-32.433"/>
  <path id="path5437" style="opacity:.5;fill:url(#radialGradient5447-5)" d="m32.78 20.143c1.8216 0 3.2878 1.6571 3.2878 3.7158v6.5278c0 2.0587-1.4662 3.7158-3.2878 3.7158l-2.4013-0.03334v-13.926c1.1682 0.03784 1.3202 0 2.4013 0v-0.000139z"/>
  <rect id="rect4784" style="stroke-dashoffset:220;stroke:url(#linearGradient4792);stroke-linecap:round;fill:#555753" transform="matrix(0,1,1,0,0,0)" rx="2.0194" ry="2.0194" height="9.9895" width="4.0564" y="7.8543" x="43.456"/>
  <path id="path4967" style="opacity:.60811;stroke-dashoffset:220;stroke:url(#linearGradient4977);stroke-linecap:round;stroke-width:1.2202;fill:none" d="m-103.47-286.5c-0.57059 0-1.0312 0.46066-1.0312 1.0312v5.9375c0 0.57059 0.46066 1.0312 1.0312 1.0312h0.9375c0.57059 0 1.0312-0.46066 1.0312-1.0312v-5.9375c0-0.57059-0.46066-1.0312-1.0312-1.0312h-0.9375z" transform="matrix(0 .67168 1 0 295.34 114.69)"/>
  <rect id="rect5572" ry="1.5023" style="fill:url(#linearGradient5632)" rx="1.5175" transform="matrix(0,1,1,0,0,0)" height="8.8761" width="3.035" y="8.3506" x="43.99"/>
  <path id="path5707" style="stroke-dashoffset:220;stroke:url(#linearGradient5758);stroke-linecap:round;fill:#fff" d="m-2.1503 19.497c-2.1578 0-3.8947 1.7817-3.8947 3.9952v7.0186c0 2.2135 1.7369 3.9952 3.8947 3.9952l3.0558 0.0024 0.023-15.023c-1.3839 0.04071-1.7982 0.0115-3.0788 0.0115v-0.000096z"/>
  <rect id="rect5709" style="fill:url(#linearGradient5719-5)" height="14.989" width="2.0025" y="18.993" x="-1.575"/>
  <rect id="rect5711" style="fill:url(#linearGradient3623)" rx=".98103" ry=".98103" height="15.908" width="1.9621" y="19.019" x=".44017"/>
  <path id="path5713" style="opacity:.5;fill:url(#radialGradient5721-4)" d="m-1.9267 19.949c-1.8216 0-3.2878 1.6571-3.2878 3.7158v6.5278c0 2.0587 1.4662 3.7158 3.2878 3.7158l2.4013-0.03334v-13.926c-1.1682 0.03784-1.3202 0-2.4013 0v-0.000139z"/>
  <rect id="rect5811" style="fill:url(#linearGradient4553)" rx=".50398" ry=".50398" height="3.5915" width="1.008" y="18.549" x="-3.5575"/>
  <path id="path5859" style="fill:#dee1e3" d="m-243.18-24.046c0 0.75883-0.37492 1.374-0.8374 1.374s-0.8374-0.61515-0.8374-1.374c0-0.75883 0.37492-1.374 0.8374-1.374s0.8374 0.61515 0.8374 1.374z" transform="matrix(1.2048 0 0 1.0941 303.4 71.819)"/>
  <rect id="rect5811-4" style="fill:url(#linearGradient4984)" transform="rotate(90)" rx=".50398" ry=".50398" height="2.3272" width="1.008" y="-9.4004" x="45.001"/>
  <rect id="rect5863" style="fill-opacity:0" height="48" width="48" y=".14286" x="-8.5714"/>
  <rect id="rect4561" style="fill:url(#linearGradient4563)" rx=".50398" ry=".50398" height="3.9627" width=".97544" y="18.159" x="33.47"/>
  <rect id="rect3625" style="fill:url(#linearGradient3646)" rx=".98103" ry=".98103" height="15.908" width="1.9621" y="19.019" x="28.439"/>
 </g>
</svg>
