<?xml version="1.0" encoding="UTF-8" standalone="no"?>
<!-- Created with Inkscape (http://www.inkscape.org/) -->
<svg id="svg2827" xmlns:rdf="http://www.w3.org/1999/02/22-rdf-syntax-ns#" xmlns="http://www.w3.org/2000/svg" height="16px" width="16px" version="1.1" xmlns:cc="http://creativecommons.org/ns#" xmlns:dc="http://purl.org/dc/elements/1.1/">
 <metadata id="metadata2832">
  <rdf:RDF>
   <cc:Work rdf:about="">
    <dc:format>image/svg+xml</dc:format>
    <dc:type rdf:resource="http://purl.org/dc/dcmitype/StillImage"/>
    <dc:title/>
   </cc:Work>
  </rdf:RDF>
 </metadata>
 <g id="layer1">
  <path id="path2839" style="block-progression:tb;text-indent:0;color:#000000;text-transform:none" d="m1.9062 1a1.0011 1.0011 0 1 0 0.0938 2h12a1.0001 1.0001 0 1 0 0 -2h-12a1.0001 1.0001 0 0 0 -0.0938 0z"/>
  <path id="path3613" style="block-progression:tb;text-indent:0;color:#000000;text-transform:none" d="m1.9062 5a1.0011 1.0011 0 1 0 0.0938 2h12a1.0001 1.0001 0 1 0 0 -2h-12a1.0001 1.0001 0 0 0 -0.0938 0z"/>
  <path id="path3615" style="block-progression:tb;text-indent:0;color:#000000;text-transform:none" d="m1.9062 9a1.0011 1.0011 0 1 0 0.0938 2h12a1.0001 1.0001 0 1 0 0 -2h-12a1.0001 1.0001 0 0 0 -0.0938 0z"/>
  <path id="path3617" style="block-progression:tb;text-indent:0;color:#000000;text-transform:none" d="m1.9062 13a1.0011 1.0011 0 1 0 0.0938 2h12a1.0001 1.0001 0 1 0 0 -2h-12a1.0001 1.0001 0 0 0 -0.09375 0z"/>
 </g>
</svg>
