<?xml version="1.0" encoding="UTF-8" standalone="no"?>
<!-- Created with Inkscape (http://www.inkscape.org/) -->
<svg id="svg1307" xmlns:rdf="http://www.w3.org/1999/02/22-rdf-syntax-ns#" xmlns="http://www.w3.org/2000/svg" height="48px" width="48px" xmlns:cc="http://creativecommons.org/ns#" xmlns:dc="http://purl.org/dc/elements/1.1/">
 <metadata id="metadata1312">
  <rdf:RDF>
   <cc:Work rdf:about="">
    <dc:format>image/svg+xml</dc:format>
    <dc:type rdf:resource="http://purl.org/dc/dcmitype/StillImage"/>
    <dc:title>System (emblem)</dc:title>
    <dc:creator>
     <cc:Agent>
      <dc:title>Luca Ferretti</dc:title>
     </cc:Agent>
    </dc:creator>
    <dc:subject>
     <rdf:Bag>
      <rdf:li>emblem</rdf:li>
      <rdf:li>system</rdf:li>
     </rdf:Bag>
    </dc:subject>
    <cc:license rdf:resource="http://creativecommons.org/licenses/LGPL/2.1/"/>
   </cc:Work>
   <cc:License rdf:about="http://creativecommons.org/licenses/LGPL/2.1/">
    <cc:permits rdf:resource="http://web.resource.org/cc/Reproduction"/>
    <cc:permits rdf:resource="http://web.resource.org/cc/Distribution"/>
    <cc:requires rdf:resource="http://web.resource.org/cc/Notice"/>
    <cc:permits rdf:resource="http://web.resource.org/cc/DerivativeWorks"/>
    <cc:requires rdf:resource="http://web.resource.org/cc/ShareAlike"/>
    <cc:requires rdf:resource="http://web.resource.org/cc/SourceCode"/>
   </cc:License>
  </rdf:RDF>
 </metadata>
 <g id="layer1">
  <rect id="rect3942" style="fill:none" ry="0" height="48" width="48" y="0" x="0"/>
  <path id="path2190" style="fill-rule:evenodd;stroke:#fff;stroke-width:8" d="m23.938 3.1251c4.866-0.1483 0.276 4.6408 4.78 6.4889 4.853 1.992 4.808-4.5809 8.629-0.986 3.545 3.335-3.086 3.477-1.209 7.968 2.024 4.84 6.64 0.161 6.799 5.405 0.149 4.865-4.64 0.276-6.488 4.779-1.992 4.853 4.58 4.809 0.986 8.63-3.336 3.545-3.477-3.087-7.968-1.209-4.841 2.023-0.161 6.639-5.405 6.799-4.866 0.148-0.276-4.641-4.78-6.489-4.853-1.992-4.808 4.581-8.629 0.986-3.5452-3.335 3.086-3.477 1.209-7.968-2.0236-4.84-6.6396-0.161-6.7994-5.405-0.1483-4.865 4.6408-0.276 6.4884-4.779 1.992-4.853-4.5804-4.809-0.986-8.6295 3.336-3.5452 3.477 3.0865 7.968 1.2088 4.841-2.0234 0.161-6.6394 5.405-6.7992z" transform="translate(0 1.875)"/>
  <path id="path1315" style="fill-rule:evenodd" transform="translate(0 1.875)" d="m23.938 3.1251c4.866-0.1483 0.276 4.6408 4.78 6.4889 4.853 1.992 4.808-4.5809 8.629-0.986 3.545 3.335-3.086 3.477-1.209 7.968 2.024 4.84 6.64 0.161 6.799 5.405 0.149 4.865-4.64 0.276-6.488 4.779-1.992 4.853 4.58 4.809 0.986 8.63-3.336 3.545-3.477-3.087-7.968-1.209-4.841 2.023-0.161 6.639-5.405 6.799-4.866 0.148-0.276-4.641-4.78-6.489-4.853-1.992-4.808 4.581-8.629 0.986-3.5452-3.335 3.086-3.477 1.209-7.968-2.0236-4.84-6.6396-0.161-6.7994-5.405-0.1483-4.865 4.6408-0.276 6.4884-4.779 1.992-4.853-4.5804-4.809-0.986-8.6295 3.336-3.5452 3.477 3.0865 7.968 1.2088 4.841-2.0234 0.161-6.6394 5.405-6.7992z"/>
  <path id="path3065" style="fill:#fff;fill-rule:evenodd" d="m29.117 23.938a5.0547 4.9375 0 1 1 -10.109 0 5.0547 4.9375 0 1 1 10.109 0z" transform="translate(-.0078125 .125)"/>
 </g>
</svg>
