<?xml version="1.0" encoding="UTF-8" standalone="no"?>
<!-- Generator: Adobe Illustrator 9.0, SVG Export Plug-In  -->
<svg id="svg2" xmlns:rdf="http://www.w3.org/1999/02/22-rdf-syntax-ns#" xmlns="http://www.w3.org/2000/svg" xml:space="preserve" height="48" width="48" version="1.0" xmlns:cc="http://web.resource.org/cc/" xmlns:dc="http://purl.org/dc/elements/1.1/" viewBox="0 0 48 48"><metadata id="metadata19"><rdf:RDF><cc:Work rdf:about=""><dc:format>image/svg+xml</dc:format><dc:type rdf:resource="http://purl.org/dc/dcmitype/StillImage"/><dc:title>Documents (emblem)</dc:title><dc:creator><cc:Agent><dc:title>Luca Ferretti</dc:title></cc:Agent></dc:creator><dc:subject><rdf:Bag><rdf:li>emblem documents</rdf:li></rdf:Bag></dc:subject><cc:license rdf:resource="http://creativecommons.org/licenses/LGPL/2.1/"/></cc:Work><cc:License rdf:about="http://creativecommons.org/licenses/LGPL/2.1/"><cc:permits rdf:resource="http://web.resource.org/cc/Reproduction"/><cc:permits rdf:resource="http://web.resource.org/cc/Distribution"/><cc:requires rdf:resource="http://web.resource.org/cc/Notice"/><cc:permits rdf:resource="http://web.resource.org/cc/DerivativeWorks"/><cc:requires rdf:resource="http://web.resource.org/cc/ShareAlike"/><cc:requires rdf:resource="http://web.resource.org/cc/SourceCode"/></cc:License></rdf:RDF></metadata>
	<path id="path7662" style="stroke-linejoin:round;stroke:#fff;stroke-width:12;fill:#fff" d="m6 33.008h23v-27l-15.936 0.0556-7.0334 5.9104-0.0306 21.034z"/><g id="crop_x0020_marks" style="stroke:#000">
		<path id="path14" style="fill:none" d="m48 48h-48v-48h48v48z"/>
	</g>
<path id="path6771" style="stroke-linejoin:round;stroke:#fff;stroke-width:12;fill:#fff" d="m42 42h-23v-27l14.018 0.041 8.982 5.959v21z"/><path id="path7" style="stroke-linejoin:round;stroke:#000;stroke-width:4" d="m42 42h-23v-27h16l7 6.091v20.909z"/><path id="path9" style="fill:#fff" d="m39.976 21.985l0.024 18.015-19-0.008v-22.992h12.983l5.993 4.985z"/><path id="path7658" style="stroke-linejoin:round;stroke:#000;stroke-width:4" d="m6 33h23v-27l-16.021 0.0183-6.979 5.9817v21z"/><path id="path7660" style="fill:#fff" d="m7.9462 13.096l0.0538 17.904 19-0.008v-22.992h-13l-6.0538 5.096z"/></svg>
