<?xml version="1.0" encoding="UTF-8" standalone="no"?>
<!-- Created with Inkscape (http://www.inkscape.org/) -->
<svg id="svg2" xmlns:rdf="http://www.w3.org/1999/02/22-rdf-syntax-ns#" xmlns="http://www.w3.org/2000/svg" height="48px" width="48px" xmlns:cc="http://web.resource.org/cc/" xmlns:dc="http://purl.org/dc/elements/1.1/">
 <metadata id="metadata7">
  <rdf:RDF>
   <cc:Work rdf:about="">
    <dc:format>image/svg+xml</dc:format>
    <dc:type rdf:resource="http://purl.org/dc/dcmitype/StillImage"/>
    <cc:license rdf:resource="http://creativecommons.org/licenses/GPL/2.0/"/>
    <dc:title>Photos (emblem)</dc:title>
    <dc:description>A photo camera.</dc:description>
    <dc:contributor>
     <cc:Agent>
      <dc:title/>
     </cc:Agent>
    </dc:contributor>
    <dc:creator>
     <cc:Agent>
      <dc:title>Luca Ferretti &lt;elle.uca@libero.it&gt;</dc:title>
     </cc:Agent>
    </dc:creator>
    <dc:subject>
     <rdf:Bag>
      <rdf:li>photos</rdf:li>
      <rdf:li>emblem</rdf:li>
     </rdf:Bag>
    </dc:subject>
   </cc:Work>
   <cc:License rdf:about="http://creativecommons.org/licenses/GPL/2.0/">
    <cc:permits rdf:resource="http://web.resource.org/cc/Reproduction"/>
    <cc:permits rdf:resource="http://web.resource.org/cc/Distribution"/>
    <cc:requires rdf:resource="http://web.resource.org/cc/Notice"/>
    <cc:permits rdf:resource="http://web.resource.org/cc/DerivativeWorks"/>
    <cc:requires rdf:resource="http://web.resource.org/cc/ShareAlike"/>
    <cc:requires rdf:resource="http://web.resource.org/cc/SourceCode"/>
   </cc:License>
  </rdf:RDF>
 </metadata>
 <rect id="rect9880" style="fill:none" ry="0" height="48" width="48" y="0" x="0"/>
 <path id="path9152" style="fill-rule:evenodd;stroke:#fff;stroke-width:8;fill:#fff" d="m8 12l7.005 0.058 2-5.0004h14l2 5.0004 6.995-0.058c2 0 4 2 4 4l0.11 22.058c0 1.079-0.869 1.947-1.948 1.947h-36.104c-1.0794 0-1.9481-0.868-1.9481-1.947l-0.1099-22.058c0-2 2-4 4-4z"/>
 <path id="rect8423" style="fill-rule:evenodd" d="m8 12l7.005 0.058 2-5.0004h14l2 5.0004 6.995-0.058c2 0 4 2 4 4l0.11 22.058c0 1.079-0.869 1.947-1.948 1.947h-36.104c-1.0794 0-1.9481-0.868-1.9481-1.947l-0.1099-22.058c0-2 2-4 4-4z"/>
 <path id="path12070" style="fill:#fff;fill-rule:evenodd" d="m24.058 16.005c-5.479 0-9.944 4.504-9.944 10s4.465 10 9.944 10c5.478 0 9.943-4.504 9.943-10s-4.465-10-9.943-10zm0 4.909c2.797 0 5.045 2.258 5.045 5.091 0 2.834-2.248 5.091-5.045 5.091-2.798 0-5.046-2.257-5.046-5.091 0-2.833 2.248-5.091 5.046-5.091z"/>
</svg>
