/* XPM */
static char *libreoffice___printeradmin[] = {
/* columns rows colors chars-per-pixel */
"32 32 119 2",
"   c #333333",
".  c #343434",
"X  c #353535",
"o  c #373737",
"O  c #393939",
"+  c #3A3A3A",
"@  c #3C3C3C",
"#  c #3E3E3E",
"$  c #3F3F3F",
"%  c #024267",
"&  c #024368",
"*  c #02527F",
"=  c #414141",
"-  c #434343",
";  c #444444",
":  c #464646",
">  c #474747",
",  c #494949",
"<  c #4A4A4A",
"1  c #4B4B4B",
"2  c #4C4C4C",
"3  c #4E4E4E",
"4  c #505050",
"5  c #515151",
"6  c #535353",
"7  c #555555",
"8  c #565656",
"9  c #585858",
"0  c #595959",
"q  c #5A5A5A",
"w  c #5B5B5B",
"e  c #5C5C5C",
"r  c #5D5D5D",
"t  c #5E5E5E",
"y  c #5F5F5F",
"u  c #606060",
"i  c #616161",
"p  c #626262",
"a  c #636363",
"s  c #656565",
"d  c #666666",
"f  c #696969",
"g  c #6B6B6B",
"h  c #6F6F6F",
"j  c #707070",
"k  c #747474",
"l  c #777777",
"z  c #797979",
"x  c #7C7C7C",
"c  c #7D7D7D",
"v  c #43C330",
"b  c #025280",
"n  c #025380",
"m  c #025381",
"M  c #036298",
"N  c #036299",
"B  c #036399",
"V  c #808080",
"C  c #838383",
"Z  c #858585",
"A  c #878787",
"S  c #8A8A8A",
"D  c #929292",
"F  c #939393",
"G  c #AAAAAA",
"H  c #B3B3B3",
"J  c #B4B4B4",
"K  c #B6B6B6",
"L  c #B7B7B7",
"P  c #B8B8B8",
"I  c #BABABA",
"U  c #BCBCBC",
"Y  c #BEBEBE",
"T  c #92E285",
"R  c #C0C0C0",
"E  c #C1C1C1",
"W  c #C3C3C3",
"Q  c #C5C5C5",
"!  c #C6C6C6",
"~  c #C7C7C7",
"^  c #C9C9C9",
"/  c #CBCBCB",
"(  c #CDCDCD",
")  c #CECECE",
"_  c #CFCFCF",
"`  c #D1D1D1",
"'  c #D4D4D4",
"]  c #D6D6D6",
"[  c #D8D8D8",
"{  c #DADADA",
"}  c #DCDCDC",
"|  c #DEDEDE",
" . c #DFDFDF",
".. c #E0E0E0",
"X. c #E1E1E1",
"o. c #E2E2E2",
"O. c #E3E3E3",
"+. c #E4E4E4",
"@. c #E5E5E5",
"#. c #E6E6E6",
"$. c #E7E7E7",
"%. c #E9E9E9",
"&. c #EAEAEA",
"*. c #EBEBEB",
"=. c #ECECEC",
"-. c #EEEEEE",
";. c #EFEFEF",
":. c #F0F0F0",
">. c #F1F1F1",
",. c #F2F2F2",
"<. c #F3F3F3",
"1. c #F4F4F4",
"2. c #F5F5F5",
"3. c #F6F6F6",
"4. c #F8F8F8",
"5. c #F9F9F9",
"6. c #FAFAFA",
"7. c #FBFBFB",
"8. c None",
/* pixels */
"8.8.8.8.s s s s s s s s s s s s s s 8.8.8.s s s s s s s s 8.8.8.",
"8.8.8.s u s u s a a a a a a a a a a a 8.8.s s u s s u s s 8.8.8.",
"8.8.8.u u #.#.#.#.+.+.+.#.+.#.+.O.S u u 8.8.u u u u s u u 8.8.8.",
"8.8.8.u u O.7.7.7.7.7.7.7.7.7.7.;.O.S u u 8.8.u u u u u u 8.8.8.",
"8.8.8.y y O.7.7.7.7.7.7.7.7.7.7.7.;.| Z y y 8.8.y y y y u 8.8.8.",
"8.8.8.y y | 7.3.4.4.4.4.4.4.4.4.7.3.;.{ V e y 8.8.y q y y 8.8.8.",
"8.8.8.q q | 3.7.4.7.4.7.4.7.7.4.4.4.7.;.{ c e q 8.8.q y y 8.8.8.",
"8.8.8.q q | 3.3.4.4.4.4.4.3.4.4.3.7.3.3.=.{ c q q 8.8.q q 8.8.8.",
"8.8.8.q 9 { 3.3.3.3.3.3.3.3.3.3.3.3.3.3.3.#.' c 8 q 8.8.8.8.8.8.",
"8.8.8.c V V V V V V V V V V V V V V V c V 3.&.' z 8 8 8.8.8.8.8.",
"8.8.8.V <.<.<.<.<.<.<.<.<.<.<.<.3.>.>.3.V 3.3.#.` l 8 8 8.8.8.8.",
"8.8.8.V >.>.>.>.>.>.>.>.>.>.>.>.>.>.>.>.V >.>.3.O._ k 6 6 8.8.8.",
"8.8.8.V ;.;.B B M M B M B B B B B M ;.;.V >.>.>.>.O./ 6 6 8.8.8.",
"8.8.8.V &.&.&.&.*.*.*.*.*.*.*.*.;.&.&.&.V >.>.>.>.>.` 3 3 8.8.8.",
"8.8.8.V &.&.* * * * b b * b b b m b &.$.V >.;.;.;.;._ 3 3 8.8.8.",
"8.8.8.V #.#.#.#.#.#.#.#.#.#.#.#.#.#.#.#.c &.;.;.;.;._ 1 3 8.8.8.",
"8.8.- V +.+.% % % % % % & % & % & & +.+.V 1 ` =.=.=./ 1 1 8.8.8.",
"8.4 D V O.....O.....O.O.O...O.O.O.....O.V F j &.&.&.^ 1 , 8.8.8.",
"8.f Y Y Y Y Y Y Y Y Y Y Y Y Y Y Y Y Y Y R Y j G &.&.! : : 8.8.8.",
"f u u u u u u u u u u u u u u u u u u u u u u f #.#.! : : 8.8.8.",
"y | | | | | | | | | | | { | | | ..| | | | | | y #.#.R - : 8.8.8.",
"q ' H H H H H H H H H H H H H H H H ' v v T ' 9 #.#.R - - 8.8.8.",
"6 _ _ _ _ ( ( _ _ _ _ _ _ _ _ _ _ _ _ _ _ _ ( 6 #.#.R - - 8.8.8.",
"3 ! ! ! ! ! ! ! ! ! ! ! ! ! ! ! ! ! ! ! ! ! ! 3 #.O.Y # # 8.8.8.",
": K P K P K K P K K K K K K K K K K K K K K K : O.O.Y # # 8.8.8.",
"1 : : : : 1 1 1 1 1 1 1 1 3 1 1 1 1 1 1 3 1 1 y O.O.P # O 8.8.8.",
"8.8.8.O O K O.O.O.O.| O.O.O.O.O.O.O.O.O.O.O.O.O.O.O.K O O 8.8.8.",
"8.8.8.O O K | O.O.| O.O.O.| | O.| O.| O.O.| O.| | O.K O O 8.8.8.",
"8.8.8.X O K | O.O.| | O.O.| | O.O.| | O.| O.| O.| O.K X O 8.8.8.",
"8.8.8.X X H H H H H H H H H H H H H H H H H H H H H H X X 8.8.8.",
"8.8.8.X X       X     X     X     X       X X     X X   X 8.8.8.",
"8.8.8.8.                                                8.8.8.8."
};
