<?xml version="1.0" encoding="UTF-8" standalone="no"?>
<!-- Created with Inkscape (http://www.inkscape.org/) -->
<svg id="svg2" height="32" xmlns:dc="http://purl.org/dc/elements/1.1/" width="32" version="1.0" xmlns:xlink="http://www.w3.org/1999/xlink" xmlns:cc="http://web.resource.org/cc/" xmlns:rdf="http://www.w3.org/1999/02/22-rdf-syntax-ns#" xmlns="http://www.w3.org/2000/svg">
 <defs id="defs3">
  <radialGradient id="radialGradient6033" gradientUnits="userSpaceOnUse" cy="32.705" cx="29.923" gradientTransform="matrix(1.0244 0 0 1.0143 -.50927 .68571)" r="19.736">
   <stop id="stop3480" style="stop-color:#888a85" offset="0"/>
   <stop id="stop3482" style="stop-color:#2e3436" offset="1"/>
  </radialGradient>
  <linearGradient id="linearGradient6097" y2="35.69" gradientUnits="userSpaceOnUse" x2="47.002" y1="35.895" x1="10.602">
   <stop id="stop6093" style="stop-color:#888a85" offset="0"/>
   <stop id="stop6095" style="stop-color:#81837e;stop-opacity:.98649" offset="1"/>
  </linearGradient>
  <linearGradient id="linearGradient6111" y2="41" gradientUnits="userSpaceOnUse" x2="23.734" gradientTransform="matrix(.67079 0 0 .67146 .15225 -.51756)" y1="41" x1="15.552">
   <stop id="stop6107" style="stop-color:#fff;stop-opacity:0" offset="0"/>
   <stop id="stop6113" style="stop-color:#fff" offset=".45210"/>
   <stop id="stop6109" style="stop-color:#fff;stop-opacity:0" offset="1"/>
  </linearGradient>
  <radialGradient id="radialGradient6123" gradientUnits="userSpaceOnUse" cy="25.766" cx="26.927" r="19.162">
   <stop id="stop6119" offset="0"/>
   <stop id="stop6121" style="stop-opacity:0" offset="1"/>
  </radialGradient>
  <radialGradient id="radialGradient6290" gradientUnits="userSpaceOnUse" cy="18.915" cx="17.832" gradientTransform="matrix(.29271 0 0 .18682 7.9677 12.727)" r="19.736">
   <stop id="stop6306" style="stop-color:#eeeeec" offset="0"/>
   <stop id="stop6308" style="stop-color:#80827d" offset="1"/>
  </radialGradient>
  <linearGradient id="linearGradient6302" y2="32.737" gradientUnits="userSpaceOnUse" x2="28.763" gradientTransform="matrix(.67079 0 0 .67146 .26437 -.80075)" y1="42.346" x1="34.826">
   <stop id="stop6298" style="stop-color:#fff" offset="0"/>
   <stop id="stop6300" style="stop-color:#fff;stop-opacity:0" offset="1"/>
  </linearGradient>
 </defs>
 <metadata id="metadata6">
  <rdf:RDF>
   <cc:Work rdf:about="">
    <dc:format>image/svg+xml</dc:format>
    <dc:type rdf:resource="http://purl.org/dc/dcmitype/StillImage"/>
    <dc:title>Sound CC applet</dc:title>
    <dc:date>17.02.2007</dc:date>
    <dc:creator>
     <cc:Agent>
      <dc:title>Josef vybíral</dc:title>
     </cc:Agent>
    </dc:creator>
    <dc:rights>
     <cc:Agent>
      <dc:title>Josef vybíral</dc:title>
     </cc:Agent>
    </dc:rights>
    <dc:identifier>http://blog.vybiral.info</dc:identifier>
    <dc:source>http://blog.vybiral.info</dc:source>
    <dc:coverage>sound, reproductor, note</dc:coverage>
    <cc:license rdf:resource="http://creativecommons.org/licenses/GPL/2.0/"/>
   </cc:Work>
   <cc:License rdf:about="http://creativecommons.org/licenses/GPL/2.0/">
    <cc:permits rdf:resource="http://web.resource.org/cc/Reproduction"/>
    <cc:permits rdf:resource="http://web.resource.org/cc/Distribution"/>
    <cc:requires rdf:resource="http://web.resource.org/cc/Notice"/>
    <cc:permits rdf:resource="http://web.resource.org/cc/DerivativeWorks"/>
    <cc:requires rdf:resource="http://web.resource.org/cc/ShareAlike"/>
    <cc:requires rdf:resource="http://web.resource.org/cc/SourceCode"/>
   </cc:License>
  </rdf:RDF>
 </metadata>
 <g id="layer1">
  <path id="path6115" style="opacity:.78166;fill-rule:evenodd;color:#000000;fill:url(#radialGradient6123)" d="m46.089 25.766a19.162 19.162 0 1 1 -38.323 0 19.162 19.162 0 1 1 38.323 0z" transform="matrix(.73062 0 0 .55065 -3.6738 7.2603)"/>
  <path id="path6051" style="stroke-width:3.4291;fill-rule:evenodd;color:#000000;stroke:#2e3436;stroke-linecap:round;fill:url(#linearGradient6097)" d="m46.089 25.766a19.162 19.162 0 1 1 -38.323 0 19.162 19.162 0 1 1 38.323 0z" transform="matrix(.36757 0 0 .23136 6.3534 19.105)"/>
  <path id="path6099" style="stroke-width:4.002;stroke-opacity:.35586;color:#000000;stroke:#fff;stroke-linecap:round;fill:none" d="m46.089 25.766a19.162 19.162 0 1 1 -38.323 0 19.162 19.162 0 1 1 38.323 0z" transform="matrix(.33256 0 0 .18775 7.2961 20.065)"/>
  <path id="path6103" style="opacity:.56769;fill:url(#linearGradient6111);fill-rule:evenodd" d="m9.9244 26.341s1.6316 2.685 6.3266 2.685v-4.028h-6.3113l-0.0153 1.343z"/>
  <path id="path6216" style="stroke-width:1.5379;fill-rule:evenodd;color:#000000;stroke:#2e3436;stroke-linecap:round;fill:#2e3436" d="m46.089 25.766a19.162 19.162 0 1 1 -38.323 0 19.162 19.162 0 1 1 38.323 0z" transform="matrix(.70453 0 0 .60015 -2.9711 .53618)"/>
  <path id="path6011" style="stroke-width:1.5379;fill-rule:evenodd;color:#000000;stroke:#2e3436;stroke-linecap:round;fill:#555753" d="m46.089 25.766a19.162 19.162 0 1 1 -38.323 0 19.162 19.162 0 1 1 38.323 0z" transform="matrix(.70453 0 0 .60015 -2.9711 -.46382)"/>
  <path id="path6013" style="stroke-width:1.7868;fill-rule:evenodd;color:#000000;stroke:#2e3436;stroke-linecap:round;fill:url(#radialGradient6033)" d="m46.089 25.766a19.162 19.162 0 1 1 -38.323 0 19.162 19.162 0 1 1 38.323 0z" transform="matrix(.60015 0 0 .52187 -.16060 2.0532)"/>
  <path id="path6089" style="fill-rule:evenodd;color:#000000;fill-opacity:.37387;fill:#fff" d="m19.828 17.855a0.44991 0.72862 0 1 1 -0.9 0 0.44991 0.72862 0 1 1 0.9 0z" transform="matrix(1.4909 0 0 .92154 -11.97 6.5295)"/>
  <path id="path6015" style="stroke-width:1.6726;stroke-opacity:.27477;color:#000000;stroke:#fff;stroke-linecap:round;fill:none" d="m46.089 25.766a19.162 19.162 0 1 1 -38.323 0 19.162 19.162 0 1 1 38.323 0z" transform="matrix(.65234 0 0 .54797 -1.5659 .88086)"/>
  <path id="path6039" style="fill:url(#linearGradient6302);fill-rule:evenodd" d="m11.691 25.385c2.931 1.515 14.113 1.331 16.746-7.385 0 0-3.78 9.537-16.746 7.385z"/>
  <path id="path6055" style="stroke-opacity:.26577;color:#000000;stroke:#fff;stroke-linecap:round;fill:none" d="m21.5 18.107c0 1.738-2.315 3.393-4.835 3.393-2.521 0-4.103-1.411-4.103-3.15s2.045-3.85 4.566-3.85c2.52 0 4.372 1.868 4.372 3.607z"/>
  <path id="path6047" style="fill-rule:evenodd;color:#000000;stroke:#2e3436;stroke-linecap:round;fill:url(#radialGradient6290)" d="m20.5 17.8c0 1.49-2.016 2.7-4.5 2.7s-4.5-1.21-4.5-2.7 2.016-3.3 4.5-3.3 4.5 1.81 4.5 3.3z"/>
  <path id="path6087" style="fill-rule:evenodd;color:#000000;fill-opacity:.37387;fill:#fff" d="m19.828 17.855a0.44991 0.72862 0 1 1 -0.9 0 0.44991 0.72862 0 1 1 0.9 0z" transform="matrix(1.4909 0 0 .92154 -13.982 6.5295)"/>
  <path id="path6083" style="fill-rule:evenodd;color:#000000;fill:#2e3436" d="m19.828 17.855a0.44991 0.72862 0 1 1 -0.9 0 0.44991 0.72862 0 1 1 0.9 0z" transform="matrix(1.1113 0 0 .92154 -6.0358 6.8746)"/>
  <path id="path6085" style="fill-rule:evenodd;color:#000000;fill:#2e3436" d="m19.828 17.855a0.44991 0.72862 0 1 1 -0.9 0 0.44991 0.72862 0 1 1 0.9 0z" transform="matrix(1.1113 0 0 .92154 -4.0358 6.8746)"/>
  <g id="g6029">
   <path id="path5052" style="stroke:#ce5c00;stroke-linecap:round;stroke-width:3;fill:none" d="m29.5 9.5968v-8.0968"/>
   <path id="path6023" style="stroke:#ce5c00;stroke-linecap:round;stroke-width:3;fill:none" d="m19.5 10.597v-8.097"/>
   <path id="path6025" style="stroke-width:3;color:#000000;stroke:#ce5c00;stroke-linecap:round;fill:none" d="m19.5 2.5l10-1"/>
   <path id="path6125" style="stroke-width:1.1059;fill-rule:evenodd;color:#000000;stroke:#ce5c00;stroke-linecap:round;fill:#f57900" d="m35.741 17.284a3.9211 1.8831 0 1 1 -7.842 0 3.9211 1.8831 0 1 1 7.842 0z" transform="matrix(.76983 0 0 1.0621 -7.0141 -6.8575)"/>
   <path id="path6127" style="stroke-width:1.1093;fill-rule:evenodd;color:#000000;stroke:#ce5c00;stroke-linecap:round;fill:#f57900" d="m35.741 17.284a3.9211 1.8831 0 1 1 -7.842 0 3.9211 1.8831 0 1 1 7.842 0z" transform="matrix(.76510 0 0 1.0621 3.1549 -7.8575)"/>
   <path id="path6163" style="stroke:#f57900;stroke-linecap:round;fill:none" d="m19.5 10.548v-8.0964"/>
   <path id="path6165" style="stroke:#f57900;stroke-linecap:round;fill:none" d="m29.5 9.5968v-8.0968"/>
   <path id="path6167" style="stroke:#f57900;stroke-linecap:round;fill:none" d="m19.5 2.5l10-1"/>
   <path id="path6188" style="stroke-width:1.9145;stroke-opacity:.32883;color:#000000;stroke:#fff;stroke-linecap:round;fill:none" d="m35.741 17.284a3.9211 1.8831 0 1 1 -7.842 0 3.9211 1.8831 0 1 1 7.842 0z" transform="matrix(.51007 0 0 .53487 1.2699 2.2481)"/>
   <path id="path6190" style="stroke-width:1.9145;stroke-opacity:.32883;color:#000000;stroke:#fff;stroke-linecap:round;fill:none" d="m35.741 17.284a3.9211 1.8831 0 1 1 -7.842 0 3.9211 1.8831 0 1 1 7.842 0z" transform="matrix(.51007 0 0 .53487 11.27 1.2481)"/>
   <path id="path6192" style="stroke-opacity:.32883;color:#000000;stroke:#fff;stroke-linecap:round;fill:none" d="m19.5 2.5l10-1"/>
   <path id="path6212" style="stroke-opacity:.32883;color:#000000;stroke:#fff;stroke-linecap:round;fill:none" d="m19.5 10.551v-8.0534"/>
   <path id="path6214" style="stroke-opacity:.32883;color:#000000;stroke:#fff;stroke-linecap:round;fill:none" d="m29.5 9.5968v-8.0968"/>
  </g>
  <path id="path6206" style="fill-rule:evenodd;color:#000000;fill:#eee" d="m46.089 25.766a19.162 19.162 0 1 1 -38.323 0 19.162 19.162 0 1 1 38.323 0z" transform="matrix(.052510 0 0 .030998 14.592 15.607)"/>
  <path id="path6208" style="fill-rule:evenodd;color:#000000;fill:#eee" d="m46.089 25.766a19.162 19.162 0 1 1 -38.323 0 19.162 19.162 0 1 1 38.323 0z" transform="matrix(.078281 0 0 .052187 12.392 16.655)"/>
 </g>
</svg>
