<?xml version="1.0" encoding="UTF-8" standalone="no"?>
<!-- Created with Inkscape (http://www.inkscape.org/) -->
<svg id="svg4978" xmlns:rdf="http://www.w3.org/1999/02/22-rdf-syntax-ns#" xmlns="http://www.w3.org/2000/svg" height="128" width="128" version="1.1" xmlns:cc="http://creativecommons.org/ns#" xmlns:dc="http://purl.org/dc/elements/1.1/">
 <metadata id="metadata4983">
  <rdf:RDF>
   <cc:Work rdf:about="">
    <dc:format>image/svg+xml</dc:format>
    <dc:type rdf:resource="http://purl.org/dc/dcmitype/StillImage"/>
    <dc:title/>
   </cc:Work>
  </rdf:RDF>
 </metadata>
 <g id="layer1" transform="translate(0 -924.36)">
  <g id="g14317" transform="matrix(7.199 0 0 7.199 -772.02 -783.4)">
   <g id="g14258" style="stroke:#000" transform="translate(69,-449)">
    <path id="path14260" style="stroke-width:2.1538;color:#000000;stroke:#000;fill:none" d="m55 696c0 3.866-3.134 7-7 7s-7-3.134-7-7 3.134-7 7-7 7 3.134 7 7z" transform="matrix(.92857 0 0 .92857 2.9286 49.214)"/>
    <path id="path14262" style="stroke-linejoin:round;stroke:#000;stroke-linecap:round;fill:none" d="m45.5 693.5 2 2 3-3"/>
   </g>
   <g id="g4692" transform="translate(69,-450)">
    <path id="path3869" style="stroke-width:2.1538;color:#000000;stroke:#fff;fill:none" d="m55 696c0 3.866-3.134 7-7 7s-7-3.134-7-7 3.134-7 7-7 7 3.134 7 7z" transform="matrix(.92857 0 0 .92857 2.9286 49.214)"/>
    <path id="path4639" d="m45.5 693.5 2 2 3-3" style="stroke-linejoin:round;stroke:#fff;stroke-linecap:round;fill:none"/>
   </g>
  </g>
 </g>
</svg>
