<?xml version="1.0" encoding="UTF-8" standalone="no"?>
<!-- Created with Inkscape (http://www.inkscape.org/) -->
<svg id="svg11300" xmlns:rdf="http://www.w3.org/1999/02/22-rdf-syntax-ns#" xmlns="http://www.w3.org/2000/svg" height="32" width="32" version="1.0" xmlns:cc="http://web.resource.org/cc/" xmlns:xlink="http://www.w3.org/1999/xlink" xmlns:dc="http://purl.org/dc/elements/1.1/">
 <defs id="defs3">
  <radialGradient id="radialGradient1444" gradientUnits="userSpaceOnUse" cy="36.421" cx="24.837" gradientTransform="matrix(.95740 0 0 .25195 -7.8008 17.882)" r="15.645">
   <stop id="stop8664" offset="0"/>
   <stop id="stop8666" style="stop-opacity:0" offset="1"/>
  </radialGradient>
  <radialGradient id="radialGradient2650" gradientUnits="userSpaceOnUse" cy="1.535" cx="15.987" gradientTransform="matrix(0 1.6135 1.2279 0 -.33489 -20.93)" r="17.171">
   <stop id="stop8652" style="stop-color:#fff" offset="0"/>
   <stop id="stop8654" style="stop-color:#fff;stop-opacity:0" offset="1"/>
  </radialGradient>
 </defs>
 <metadata id="metadata4">
  <rdf:RDF>
   <cc:Work rdf:about="">
    <dc:format>image/svg+xml</dc:format>
    <dc:type rdf:resource="http://purl.org/dc/dcmitype/StillImage"/>
    <dc:creator>
     <cc:Agent>
      <dc:title>Jakub Steiner</dc:title>
     </cc:Agent>
    </dc:creator>
    <dc:source>http://jimmac.musichall.cz</dc:source>
    <cc:license rdf:resource="http://creativecommons.org/licenses/by-sa/2.0/"/>
    <dc:title>Go Down</dc:title>
    <dc:subject>
     <rdf:Bag>
      <rdf:li>go</rdf:li>
      <rdf:li>lower</rdf:li>
      <rdf:li>down</rdf:li>
      <rdf:li>arrow</rdf:li>
      <rdf:li>pointer</rdf:li>
      <rdf:li>&gt;</rdf:li>
     </rdf:Bag>
    </dc:subject>
    <dc:contributor>
     <cc:Agent>
      <dc:title>Andreas Nilsson</dc:title>
     </cc:Agent>
    </dc:contributor>
   </cc:Work>
   <cc:License rdf:about="http://creativecommons.org/licenses/by-sa/2.0/">
    <cc:permits rdf:resource="http://web.resource.org/cc/Reproduction"/>
    <cc:permits rdf:resource="http://web.resource.org/cc/Distribution"/>
    <cc:requires rdf:resource="http://web.resource.org/cc/Notice"/>
    <cc:requires rdf:resource="http://web.resource.org/cc/Attribution"/>
    <cc:permits rdf:resource="http://web.resource.org/cc/DerivativeWorks"/>
    <cc:requires rdf:resource="http://web.resource.org/cc/ShareAlike"/>
   </cc:License>
  </rdf:RDF>
 </metadata>
 <g id="layer1">
  <path id="path8660" style="opacity:.20455;color:#000000;fill-rule:evenodd;fill:url(#radialGradient1444)" d="m11.594 23.312c-6.1122 0.497-10.594 1.98-10.594 3.75 0 2.176 6.7007 3.938 14.969 3.938 8.268 0 15-1.762 15-3.938 0-1.77-4.482-3.253-10.594-3.75l-4 4.813c-0.095 0.119-0.254 0.188-0.406 0.187-0.152 0-0.28-0.068-0.375-0.187l-4-4.813z"/>
  <path id="path8645" style="opacity:.50802;color:#000000;fill-rule:evenodd;fill:url(#radialGradient2650)" d="m3.608 12.041l5.386-0.009-0.0021-9.9708 12.327-0.1739c-0.607 14.459-8.34 8.6207-12.013 17.02l-5.698-6.866z"/>
  <path id="path8658" style="opacity:.48128;color:#000000;stroke:#fff;stroke-miterlimit:10;fill:none" d="m22.57 2.4795l-13.068 0.0196-0.0222 10.016-4.8533 0.013 11.382 13.713 11.39-13.739-4.872-0.004 0.044-10.018z"/>
 </g>
</svg>
