<?xml version="1.0" encoding="UTF-8" standalone="no"?>
<!-- Created with Inkscape (http://www.inkscape.org/) -->
<svg id="svg11300" xmlns:rdf="http://www.w3.org/1999/02/22-rdf-syntax-ns#" xmlns="http://www.w3.org/2000/svg" height="32" width="32" version="1.0" xmlns:cc="http://web.resource.org/cc/" xmlns:xlink="http://www.w3.org/1999/xlink" xmlns:dc="http://purl.org/dc/elements/1.1/">
 <defs id="defs3">
  <radialGradient id="radialGradient1444" gradientUnits="userSpaceOnUse" cy="36.421" cx="24.837" gradientTransform="matrix(.95740 0 0 .25195 -7.8008 17.882)" r="15.645">
   <stop id="stop8664" offset="0"/>
   <stop id="stop8666" style="stop-opacity:0" offset="1"/>
  </radialGradient>
  <radialGradient id="radialGradient2916" gradientUnits="userSpaceOnUse" cy=".40011" cx="24.538" gradientTransform="matrix(0 -1.6395 1.2477 0 -.78872 50.52)" r="17.171">
   <stop id="stop8652" style="stop-color:#fff" offset="0"/>
   <stop id="stop8654" style="stop-color:#fff;stop-opacity:0" offset="1"/>
  </radialGradient>
 </defs>
 <metadata id="metadata4">
  <rdf:RDF>
   <cc:Work rdf:about="">
    <dc:format>image/svg+xml</dc:format>
    <dc:type rdf:resource="http://purl.org/dc/dcmitype/StillImage"/>
    <dc:creator>
     <cc:Agent>
      <dc:title>Jakub Steiner</dc:title>
     </cc:Agent>
    </dc:creator>
    <dc:source>http://jimmac.musichall.cz</dc:source>
    <cc:license rdf:resource="http://creativecommons.org/licenses/by-sa/2.0/"/>
    <dc:title>Go Down</dc:title>
    <dc:subject>
     <rdf:Bag>
      <rdf:li>go</rdf:li>
      <rdf:li>lower</rdf:li>
      <rdf:li>down</rdf:li>
      <rdf:li>arrow</rdf:li>
      <rdf:li>pointer</rdf:li>
      <rdf:li>&gt;</rdf:li>
     </rdf:Bag>
    </dc:subject>
    <dc:contributor>
     <cc:Agent>
      <dc:title>Andreas Nilsson</dc:title>
     </cc:Agent>
    </dc:contributor>
   </cc:Work>
   <cc:License rdf:about="http://creativecommons.org/licenses/by-sa/2.0/">
    <cc:permits rdf:resource="http://web.resource.org/cc/Reproduction"/>
    <cc:permits rdf:resource="http://web.resource.org/cc/Distribution"/>
    <cc:requires rdf:resource="http://web.resource.org/cc/Notice"/>
    <cc:requires rdf:resource="http://web.resource.org/cc/Attribution"/>
    <cc:permits rdf:resource="http://web.resource.org/cc/DerivativeWorks"/>
    <cc:requires rdf:resource="http://web.resource.org/cc/ShareAlike"/>
   </cc:License>
  </rdf:RDF>
 </metadata>
 <g id="layer1">
  <path id="path8660" style="opacity:.20455;color:#000000;fill-rule:evenodd;fill:url(#radialGradient1444)" d="m8 23.719c-4.1993 0.698-7 1.94-7 3.343 0 2.176 6.7007 3.938 14.969 3.938 8.268 0 15-1.762 15-3.938 0-1.393-2.787-2.611-6.938-3.312l0.031 3.812c0 0.277-0.223 0.5-0.5 0.5l-15.062-0.031c-0.2761 0-0.5-0.224-0.5-0.5v-3.812z"/>
  <path id="path8658" style="opacity:.48128;color:#000000;stroke:#fff;stroke-miterlimit:10;fill:none" d="m22.57 26.573l-13.068-0.02-0.0222-10.016-4.8533-0.013 11.382-13.713 11.39 13.74-4.872 0.004 0.044 10.018z"/>
  <path id="path2878" style="opacity:.50802;color:#000000;fill-rule:evenodd;fill:url(#radialGradient2916)" d="m3.5238 17.002l5.4832-0.045 0.0534 5.256c4.5306-8.812 12.811-7.085 13.293-12.518 0-0.0005-6.369-7.5103-6.369-7.5103l-12.46 14.817z"/>
 </g>
</svg>
