<?xml version="1.0" encoding="UTF-8" standalone="no"?>
<!-- Created with Inkscape (http://www.inkscape.org/) -->
<svg id="svg9121" xmlns:rdf="http://www.w3.org/1999/02/22-rdf-syntax-ns#" xmlns="http://www.w3.org/2000/svg" sodipodi:docname="transform-crop-and-resize.svg" xmlns:sodipodi="http://inkscape.sourceforge.net/DTD/sodipodi-0.dtd" height="48px" sodipodi:version="0.32" width="48px" xmlns:cc="http://web.resource.org/cc/" xmlns:xlink="http://www.w3.org/1999/xlink" sodipodi:docbase="/home/jimmac/src/cvs/tango-art-libre/scalable/transformations" xmlns:dc="http://purl.org/dc/elements/1.1/">
 <defs id="defs3">
  <linearGradient id="linearGradient2224">
   <stop id="stop2226" style="stop-color:#32342f;stop-opacity:.54639" offset="0"/>
   <stop id="stop2228" style="stop-color:#32342f;stop-opacity:0" offset="1"/>
  </linearGradient>
  <radialGradient id="radialGradient2230" xlink:href="#linearGradient2224" gradientUnits="userSpaceOnUse" cy="42.242" cx="24.042" gradientTransform="matrix(1 0 0 .30460 1.5528e-15 29.375)" r="17.577"/>
  <linearGradient id="linearGradient7714" y2="7.8441" gradientUnits="userSpaceOnUse" y1="17.158" gradientTransform="matrix(.60348 .47055 -.80352 1.0305 48.591 29.974)" x2="-38.257" x1="-31.074">
   <stop id="stop6159" style="stop-color:#babdb6" offset="0"/>
   <stop id="stop6165" style="stop-color:#dfe2da" offset=".5"/>
   <stop id="stop6161" style="stop-color:#babdb6" offset="1"/>
  </linearGradient>
  <linearGradient id="linearGradient2661" y2="5.6997" gradientUnits="userSpaceOnUse" x2="40.103" gradientTransform="scale(.95430 1.0479)" y1="12.489" x1="34.563">
   <stop id="stop2657" style="stop-color:#eeeeec" offset="0"/>
   <stop id="stop2659" style="stop-color:#eeeeec;stop-opacity:0" offset="1"/>
  </linearGradient>
  <linearGradient id="linearGradient3452" y2="-2.5374" gradientUnits="userSpaceOnUse" x2="64.746" gradientTransform="matrix(.52768 3.0078e-9 -1.4658e-8 1.3958 .27447 -.38059)" y1="-3.4505" x1="54.225">
   <stop id="stop3443" style="stop-color:#888a85" offset="0"/>
   <stop id="stop3445" style="stop-color:#fcfff6" offset="1"/>
  </linearGradient>
  <linearGradient id="linearGradient2293" y2="22.002" gradientUnits="userSpaceOnUse" x2="19.18" y1="30.502" x1="17.666">
   <stop id="stop2289" style="stop-color:#fff" offset="0"/>
   <stop id="stop2291" style="stop-color:#cdcdcd;stop-opacity:.77320" offset="1"/>
  </linearGradient>
  <radialGradient id="radialGradient2297" xlink:href="#linearGradient2224" gradientUnits="userSpaceOnUse" cy="42.242" cx="24.042" gradientTransform="matrix(1 0 0 .30460 2.4746e-15 29.375)" r="17.577"/>
  <linearGradient id="linearGradient2307" y2="14.135" gradientUnits="userSpaceOnUse" x2="27.501" gradientTransform="matrix(.90258 0 0 .90258 2.6044 1.7521)" y1="12.76" x1="25.728">
   <stop id="stop2303" style="stop-color:#fff" offset="0"/>
   <stop id="stop2305" style="stop-color:#fff;stop-opacity:0" offset="1"/>
  </linearGradient>
  <linearGradient id="linearGradient2315" y2="5.9726" gradientUnits="userSpaceOnUse" x2="38.27" y1="13.087" x1="32.984">
   <stop id="stop2311" style="stop-color:#686b65" offset="0"/>
   <stop id="stop2313" style="stop-color:#686b65;stop-opacity:0" offset="1"/>
  </linearGradient>
 </defs>
 <sodipodi:namedview id="base" bordercolor="#666666" pagecolor="#ffffff" showgrid="false" borderopacity="0.22745098" showguides="true"/>
 <metadata id="metadata4">
  <rdf:RDF>
   <cc:Work rdf:about="">
    <dc:format>image/svg+xml</dc:format>
    <dc:type rdf:resource="http://purl.org/dc/dcmitype/StillImage"/>
    <dc:title>Crop Tool</dc:title>
    <dc:date>2005-10-12</dc:date>
    <dc:creator>
     <cc:Agent>
      <dc:title>Andreas Nilsson</dc:title>
     </cc:Agent>
    </dc:creator>
    <dc:subject>
     <rdf:Bag>
      <rdf:li>crop</rdf:li>
      <rdf:li>cut</rdf:li>
      <rdf:li>divide</rdf:li>
      <rdf:li>split</rdf:li>
     </rdf:Bag>
    </dc:subject>
    <cc:license rdf:resource="http://creativecommons.org/licenses/by-sa/2.0/"/>
    <dc:contributor>
     <cc:Agent>
      <dc:title>Jakub Steiner</dc:title>
     </cc:Agent>
    </dc:contributor>
   </cc:Work>
   <cc:License rdf:about="http://creativecommons.org/licenses/by-sa/2.0/">
    <cc:permits rdf:resource="http://web.resource.org/cc/Reproduction"/>
    <cc:permits rdf:resource="http://web.resource.org/cc/Distribution"/>
    <cc:requires rdf:resource="http://web.resource.org/cc/Notice"/>
    <cc:requires rdf:resource="http://web.resource.org/cc/Attribution"/>
    <cc:permits rdf:resource="http://web.resource.org/cc/DerivativeWorks"/>
    <cc:requires rdf:resource="http://web.resource.org/cc/ShareAlike"/>
   </cc:License>
  </rdf:RDF>
 </metadata>
 <g id="layer1">
  <path id="path2222" sodipodi:rx="17.576654" sodipodi:ry="5.3538084" style="opacity:.48295;fill:url(#radialGradient2230);fill-rule:evenodd" sodipodi:type="arc" d="m41.618 42.242a17.577 5.3538 0 1 1 -35.153 0 17.577 5.3538 0 1 1 35.153 0z" transform="matrix(.67364 0 0 .43009 -.60505 20.905)" sodipodi:cy="42.24213" sodipodi:cx="24.04163"/>
  <path id="path7706" sodipodi:nodetypes="cccccc" style="fill-rule:evenodd;stroke:#686b65;fill:url(#linearGradient7714)" d="m2.8839 40.605c-0.055 0.07 13.864-0.106 25.583-7.919l-2.587-2.017 2.994-3.839-9.434-7.357-16.556 21.132z"/>
  <path id="path7708" sodipodi:nodetypes="cccccc" style="stroke:url(#linearGradient2293);fill:none" d="m5.4019 39.016c4.445-0.679 13.088-2.503 21.366-6.372l-2.291-1.787 5.453-6.994-7.857-6.126-16.671 21.279z"/>
  <path id="path7710" sodipodi:nodetypes="ccccc" style="fill:#fff;fill-rule:evenodd" d="m25.185 30.814c-8.468 6.534-19.309 6.717-19.273 6.695l-1.7604 2.351c0.0444 0.084 12.478-0.132 23.485-7.122l-2.452-1.924z"/>
  <path id="path7712" sodipodi:nodetypes="cccccc" style="fill-rule:evenodd;color:#000000;stroke:url(#linearGradient2315);fill:url(#linearGradient2661)" d="m33.129 0.021385l-14.526 18.63c2.77 2.404 3.769 3.986 1.649 6.902l3.456 2.695c1.74-2.382 3.513-3.037 6.588-0.281l14.83-18.421"/>
  <rect id="rect3450" style="stroke:url(#linearGradient3452);stroke-linecap:round;stroke-width:1.0001;fill:#eeeeec" transform="matrix(.79429 .60753 -.61992 .78466 0 0)" rx="1.6161" ry="1.4139" height="14.064" width="4.5955" y="-11.786" x="31.493"/>
  <path id="path2295" sodipodi:rx="17.576654" sodipodi:ry="5.3538084" style="opacity:.32955;fill:url(#radialGradient2297);fill-rule:evenodd" sodipodi:type="arc" d="m41.618 42.242a17.577 5.3538 0 1 1 -35.153 0 17.577 5.3538 0 1 1 35.153 0z" transform="matrix(1.2817 0 0 1.0985 -7.0361 -7.5328)" sodipodi:cy="42.24213" sodipodi:cx="24.04163"/>
  <path id="path2299" sodipodi:nodetypes="cccccc" style="color:#000000;fill-rule:evenodd;fill:url(#linearGradient2307)" d="m32.506 1.7714l-13.111 16.815c2.5 2.17 3.402 3.598 1.488 6.229l3.12 2.433c1.57-2.15 3.171-2.741 5.946-0.254l13.385-16.626"/>
  <path id="path2317" sodipodi:nodetypes="ccccccc" style="opacity:.48295;color:#000000;fill-rule:evenodd;fill:#fff" d="m43.125 11l-12.875 16.25c-3-1.75-3.875-2.5-6.625 0.25l-2.75-2.125 2.75 1.125c2.25-2.125 4-2.25 6.125-0.125l13.375-15.375z"/>
  <path id="path2319" sodipodi:nodetypes="cccccc" style="opacity:.11364;color:#000000;fill-rule:evenodd" d="m20 26.062l3.688 4.188c2.374-3.375 3.062-2.938 3.937-2.688l0.563-0.5c-1.5-0.812-2.938-0.374-4.438 1.813l-3.75-2.813z"/>
 </g>
</svg>
