<?xml version="1.0" encoding="UTF-8" standalone="no"?>
<!-- Created with Inkscape (http://www.inkscape.org/) -->
<svg
   xmlns:dc="http://purl.org/dc/elements/1.1/"
   xmlns:cc="http://creativecommons.org/ns#"
   xmlns:rdf="http://www.w3.org/1999/02/22-rdf-syntax-ns#"
   xmlns:svg="http://www.w3.org/2000/svg"
   xmlns="http://www.w3.org/2000/svg"
   xmlns:xlink="http://www.w3.org/1999/xlink"
   xmlns:sodipodi="http://sodipodi.sourceforge.net/DTD/sodipodi-0.dtd"
   xmlns:inkscape="http://www.inkscape.org/namespaces/inkscape"
   width="48"
   height="48"
   id="svg2"
   sodipodi:version="0.32"
   inkscape:version="0.46"
   version="1.0"
   sodipodi:docname="jaiku48.svg"
   inkscape:output_extension="org.inkscape.output.svg.inkscape"
   inkscape:export-filename="C:\Users\Cube\Documents\My Dropbox\Inkscape-Files\jaiku\jaiku48.png"
   inkscape:export-xdpi="90"
   inkscape:export-ydpi="90">
  <defs
     id="defs4">
    <linearGradient
       id="linearGradient6308">
      <stop
         id="stop6310"
         offset="0"
         style="stop-color:#82ad35;stop-opacity:1;" />
      <stop
         id="stop6312"
         offset="1"
         style="stop-color:#a6ce5e;stop-opacity:1;" />
    </linearGradient>
    <linearGradient
       inkscape:collect="always"
       id="linearGradient6290">
      <stop
         style="stop-color:#ffffff;stop-opacity:1;"
         offset="0"
         id="stop6292" />
      <stop
         style="stop-color:#ffffff;stop-opacity:0;"
         offset="1"
         id="stop6294" />
    </linearGradient>
    <inkscape:perspective
       sodipodi:type="inkscape:persp3d"
       inkscape:vp_x="0 : 526.18109 : 1"
       inkscape:vp_y="0 : 1000 : 0"
       inkscape:vp_z="744.09448 : 526.18109 : 1"
       inkscape:persp3d-origin="372.04724 : 350.78739 : 1"
       id="perspective10" />
    <inkscape:perspective
       id="perspective5482"
       inkscape:persp3d-origin="372.04724 : 350.78739 : 1"
       inkscape:vp_z="744.09448 : 526.18109 : 1"
       inkscape:vp_y="0 : 1000 : 0"
       inkscape:vp_x="0 : 526.18109 : 1"
       sodipodi:type="inkscape:persp3d" />
    <radialGradient
       inkscape:collect="always"
       xlink:href="#linearGradient6290"
       id="radialGradient6298"
       cx="23.500002"
       cy="22.500002"
       fx="23.500002"
       fy="22.500002"
       r="21.500002"
       gradientTransform="matrix(1.1870749,-2.0296022e-2,2.69997e-2,1.5065647,-4.5037515,-10.920749)"
       gradientUnits="userSpaceOnUse" />
    <linearGradient
       inkscape:collect="always"
       xlink:href="#linearGradient6308"
       id="linearGradient6306"
       x1="23.5"
       y1="39.33297"
       x2="23.5"
       y2="18.655552"
       gradientUnits="userSpaceOnUse"
       gradientTransform="matrix(1.0227273,0,0,1,-3.4090979e-2,0)" />
    <filter
       inkscape:collect="always"
       id="filter6326"
       x="-0.14125984"
       width="1.2825197"
       y="-0.79733331"
       height="2.5946666">
      <feGaussianBlur
         inkscape:collect="always"
         stdDeviation="1.8638961"
         id="feGaussianBlur6328" />
    </filter>
  </defs>
  <sodipodi:namedview
     id="base"
     pagecolor="#ffffff"
     bordercolor="#666666"
     borderopacity="1.0"
     gridtolerance="10000"
     guidetolerance="10"
     objecttolerance="10"
     inkscape:pageopacity="0.0"
     inkscape:pageshadow="2"
     inkscape:zoom="1"
     inkscape:cx="24"
     inkscape:cy="24"
     inkscape:document-units="px"
     inkscape:current-layer="layer1"
     showgrid="false"
     inkscape:window-width="1280"
     inkscape:window-height="974"
     inkscape:window-x="-8"
     inkscape:window-y="-8"
     inkscape:snap-nodes="false"
     inkscape:snap-bbox="true">
    <inkscape:grid
       type="xygrid"
       id="grid2383"
       visible="true"
       enabled="true" />
  </sodipodi:namedview>
  <metadata
     id="metadata7">
    <rdf:RDF>
      <cc:Work
         rdf:about="">
        <dc:format>image/svg+xml</dc:format>
        <dc:type
           rdf:resource="http://purl.org/dc/dcmitype/StillImage" />
        <dc:creator>
          <cc:Agent>
            <dc:title>Jakub Szypulka</dc:title>
          </cc:Agent>
        </dc:creator>
        <dc:publisher>
          <cc:Agent>
            <dc:title>Jakub Szypulka</dc:title>
          </cc:Agent>
        </dc:publisher>
        <dc:rights>
          <cc:Agent>
            <dc:title>Jakub Szypulka</dc:title>
          </cc:Agent>
        </dc:rights>
      </cc:Work>
    </rdf:RDF>
  </metadata>
  <g
     inkscape:label="Layer 1"
     inkscape:groupmode="layer"
     id="layer1">
    <path
       sodipodi:type="arc"
       style="opacity:0.3;fill:#000000;fill-opacity:1;fill-rule:evenodd;stroke:none;stroke-width:1px;stroke-linecap:butt;stroke-linejoin:miter;marker:none;marker-start:none;marker-mid:none;marker-end:none;stroke-miterlimit:4;stroke-dasharray:none;stroke-dashoffset:0;stroke-opacity:1;visibility:visible;display:inline;overflow:visible;filter:url(#filter6326);enable-background:accumulate"
       id="path6316"
       sodipodi:cx="23.937662"
       sodipodi:cy="41.205196"
       sodipodi:rx="15.833766"
       sodipodi:ry="2.8051949"
       d="M 39.771428,41.205196 A 15.833766,2.8051949 0 1 1 8.1038961,41.205196 A 15.833766,2.8051949 0 1 1 39.771428,41.205196 z"
       transform="matrix(1.2736221,0,0,1,-6.3213012,-2.0103912)" />
    <path
       style="fill:url(#linearGradient6306);fill-opacity:1;fill-rule:evenodd;stroke:#6f932a;stroke-width:1.00000012px;stroke-linecap:butt;stroke-linejoin:miter;marker:none;marker-start:none;marker-mid:none;marker-end:none;stroke-miterlimit:4;stroke-dashoffset:0;stroke-opacity:1;visibility:visible;display:inline;overflow:visible;enable-background:accumulate"
       d="M 46.499999,22.501801 C 46.499999,34.072904 36.42,39.5 24,39.5 C 11.58,39.5 1.5000001,33.950488 1.5000001,22.501801 C 1.5000001,10.990815 11.58,5.5036029 24,5.5036029 C 36.42,5.5036029 46.499999,10.932546 46.499999,22.501801 z"
       id="path5488"
       sodipodi:nodetypes="cszsz" />
    <path
       transform="scale(1.0128572,0.987306)"
       style="font-size:14.65219212px;font-style:normal;font-variant:normal;font-weight:normal;font-stretch:normal;fill:#ffffff;fill-opacity:1;stroke:none;stroke-width:1px;stroke-linecap:butt;stroke-linejoin:miter;stroke-opacity:1;font-family:Bitstream Vera Sans;-inkscape-font-specification:Bitstream Vera Sans"
       d="M 9.8921174,17.299315 L 10.860367,17.299315 L 10.860367,25.455321 C 10.860364,26.476013 10.666003,27.215299 10.277284,27.673182 C 9.8885601,28.13106 9.2625515,28.36 8.3992562,28.360003 L 7.8984488,28.360003 L 7.8984488,27.243918 L 8.249014,27.243918 C 8.7498207,27.243917 9.439005,27.128254 9.6202505,26.896931 C 9.8014938,26.665604 9.892116,26.185068 9.8921174,25.455321 L 9.8921174,17.299315 z M 9.8921174,14.180001 L 10.860367,14.180001 L 10.860367,15.846974 L 9.8921174,15.846974 L 9.8921174,14.180001 z"
       id="text5491"
       sodipodi:nodetypes="cccsccccsccccccc" />
    <path
       transform="scale(0.9980776,1.0019261)"
       style="font-size:14.45031452px;font-style:normal;font-variant:normal;font-weight:normal;font-stretch:normal;fill:#ffffff;fill-opacity:1;stroke:none;stroke-width:1px;stroke-linecap:butt;stroke-linejoin:miter;stroke-opacity:1;font-family:Bitstream Vera Sans;-inkscape-font-specification:Bitstream Vera Sans"
       d="M 26.050078,17.965398 L 27.046254,17.965398 L 27.046254,24.449694 L 31.229048,20.975742 L 32.887165,20.975742 L 28.696009,24.738983 L 33.063561,28.94425 L 31.370164,28.94425 L 27.046254,25.084718 L 27.046254,28.94425 L 26.050078,28.94425 L 26.050078,17.965398 z"
       id="text5495"
       sodipodi:nodetypes="cccccccccccc" />
    <path
       transform="scale(1.0404097,0.9611598)"
       style="font-size:14.56573677px;font-style:normal;font-variant:normal;font-weight:normal;font-stretch:normal;fill:#ffffff;fill-opacity:1;stroke:none;stroke-width:1px;stroke-linecap:butt;stroke-linejoin:miter;stroke-opacity:1;font-family:Bitstream Vera Sans;-inkscape-font-specification:Bitstream Vera Sans"
       d="M 16.613027,21.840476 C 15.55568,21.84048 14.823126,21.961387 14.415365,22.203197 C 14.007597,22.445014 13.803715,22.85752 13.803717,23.440716 C 13.803715,23.90538 13.956627,24.274027 14.262453,24.546659 C 14.568273,24.819293 14.984335,24.95561 15.51064,24.955609 C 16.236077,24.95561 16.81809,24.698387 17.256679,24.183938 C 17.695257,23.669493 17.914549,22.985539 17.914555,22.132075 L 17.914555,21.840476 L 16.613027,21.840476 z M 19.223196,21.299951 L 19.223196,25.844631 L 17.914555,25.844631 L 17.914555,24.635561 C 17.615838,25.11919 17.243634,25.475984 16.797944,25.705944 C 16.352242,25.935904 15.806976,26.050884 15.162143,26.050884 C 14.346611,26.050884 13.698218,25.822109 13.216963,25.364559 C 12.735704,24.90701 12.495076,24.294178 12.495077,23.526062 C 12.495076,22.629931 12.794973,21.954275 13.394767,21.499092 C 13.994558,21.043917 14.889506,20.816328 16.079614,20.816323 L 17.914555,20.816323 L 17.914555,20.688303 C 17.914549,20.086145 17.716594,19.620298 17.320689,19.290761 C 16.924772,18.961237 16.368838,18.796472 15.652883,18.796465 C 15.1977,18.796472 14.754375,18.850998 14.322906,18.960045 C 13.891432,19.069105 13.476555,19.232685 13.078275,19.450785 L 13.078275,18.241715 C 13.55716,18.056806 14.021822,17.918119 14.472262,17.825653 C 14.922696,17.733202 15.36128,17.686973 15.788015,17.686965 C 16.940182,17.686973 17.800754,17.985684 18.369734,18.583099 C 18.938701,19.180529 19.223188,20.086145 19.223196,21.299951 L 19.223196,21.299951 z"
       id="text6269" />
    <path
       transform="scale(0.8767979,1.1405137)"
       style="font-size:12.69441319px;font-style:normal;font-variant:normal;font-weight:normal;font-stretch:normal;fill:#ffffff;fill-opacity:1;stroke:none;stroke-width:1px;stroke-linecap:butt;stroke-linejoin:miter;stroke-opacity:1;font-family:Bitstream Vera Sans;-inkscape-font-specification:Bitstream Vera Sans"
       d="M 25.0913,14.977691 L 26.231814,14.977691 L 26.231814,21.919949 L 25.0913,21.919949 L 25.0913,14.977691 z M 25.0913,12.27517 L 26.231814,12.27517 L 26.231814,13.719407 L 25.0913,13.719407 L 25.0913,12.27517 z"
       id="text6273" />
    <path
       transform="scale(1.0352916,0.9659115)"
       style="font-size:14.7625885px;font-style:normal;font-variant:normal;font-weight:normal;font-stretch:normal;fill:#ffffff;fill-opacity:1;stroke:none;stroke-width:1px;stroke-linecap:butt;stroke-linejoin:miter;stroke-opacity:1;font-family:Bitstream Vera Sans;-inkscape-font-specification:Bitstream Vera Sans"
       d="M 32.84099,26.628349 L 32.84099,21.741124 L 33.805413,21.741124 L 33.805413,26.57789 C 33.80541,27.341972 33.954382,27.915031 34.252327,28.297069 C 35.544335,29.518576 36.701718,28.929624 38.01443,28.18534 C 38.430101,27.728817 38.63794,27.106501 38.637947,26.318392 L 38.637947,21.741124 L 39.60237,21.741124 L 39.60237,30.019773 L 38.659235,30.019773 L 38.659235,29.008121 C 37.786619,29.637409 37.394016,29.798489 35.67385,30.023456 C 34.746379,30.023455 34.04237,29.735124 33.561819,29.15846 C 33.081265,28.581798 32.840988,27.738428 32.84099,26.628349 L 32.84099,26.628349 z"
       id="text6277"
       sodipodi:nodetypes="cccccccccccccscc" />
    <path
       sodipodi:nodetypes="cszsz"
       id="path6288"
       d="M 45.500001,22.5 C 45.500001,33.391605 35.868002,38.500002 24.000001,38.500002 C 12.132,38.500002 2.5000002,33.276378 2.5000002,22.5 C 2.5000002,11.664983 12.132,6.5000003 24.000001,6.5000003 C 35.868002,6.5000003 45.500001,11.610136 45.500001,22.5 z"
       style="fill:none;fill-opacity:1;fill-rule:evenodd;stroke:url(#radialGradient6298);stroke-width:1px;stroke-linecap:butt;stroke-linejoin:miter;marker:none;marker-start:none;marker-mid:none;marker-end:none;stroke-miterlimit:4;stroke-dashoffset:0;stroke-opacity:1;visibility:visible;display:inline;overflow:visible;enable-background:accumulate" />
  </g>
</svg>
