<?xml version="1.0" encoding="UTF-8" standalone="no"?>
<!-- Created with Inkscape (http://www.inkscape.org/) -->
<svg
   xmlns:dc="http://purl.org/dc/elements/1.1/"
   xmlns:cc="http://creativecommons.org/ns#"
   xmlns:rdf="http://www.w3.org/1999/02/22-rdf-syntax-ns#"
   xmlns:svg="http://www.w3.org/2000/svg"
   xmlns="http://www.w3.org/2000/svg"
   xmlns:xlink="http://www.w3.org/1999/xlink"
   xmlns:sodipodi="http://sodipodi.sourceforge.net/DTD/sodipodi-0.dtd"
   xmlns:inkscape="http://www.inkscape.org/namespaces/inkscape"
   width="48"
   height="48"
   id="svg2"
   sodipodi:version="0.32"
   inkscape:version="0.46"
   version="1.0"
   sodipodi:docname="qaiku48.svg"
   inkscape:output_extension="org.inkscape.output.svg.inkscape"
   inkscape:export-filename="C:\Users\Cube\Documents\My Dropbox\Inkscape-Files\qaiku\qaiku48.png"
   inkscape:export-xdpi="90"
   inkscape:export-ydpi="90">
  <defs
     id="defs4">
    <linearGradient
       id="linearGradient6327">
      <stop
         id="stop6329"
         offset="0"
         style="stop-color:#ffffff;stop-opacity:1;" />
      <stop
         id="stop6331"
         offset="1"
         style="stop-color:#ffffff;stop-opacity:0" />
    </linearGradient>
    <linearGradient
       inkscape:collect="always"
       id="linearGradient6307">
      <stop
         style="stop-color:#000000;stop-opacity:1;"
         offset="0"
         id="stop6309" />
      <stop
         style="stop-color:#000000;stop-opacity:0;"
         offset="1"
         id="stop6311" />
    </linearGradient>
    <linearGradient
       inkscape:collect="always"
       id="linearGradient6295">
      <stop
         style="stop-color:#000000;stop-opacity:1;"
         offset="0"
         id="stop6297" />
      <stop
         style="stop-color:#000000;stop-opacity:0;"
         offset="1"
         id="stop6299" />
    </linearGradient>
    <linearGradient
       inkscape:collect="always"
       id="linearGradient6285">
      <stop
         style="stop-color:#000000;stop-opacity:1;"
         offset="0"
         id="stop6287" />
      <stop
         style="stop-color:#000000;stop-opacity:0;"
         offset="1"
         id="stop6289" />
    </linearGradient>
    <linearGradient
       inkscape:collect="always"
       id="linearGradient6275">
      <stop
         style="stop-color:#000000;stop-opacity:1;"
         offset="0"
         id="stop6277" />
      <stop
         style="stop-color:#000000;stop-opacity:0;"
         offset="1"
         id="stop6279" />
    </linearGradient>
    <linearGradient
       inkscape:collect="always"
       id="linearGradient6270">
      <stop
         style="stop-color:#ffffff;stop-opacity:1;"
         offset="0"
         id="stop6272" />
      <stop
         style="stop-color:#ffffff;stop-opacity:0;"
         offset="1"
         id="stop6274" />
    </linearGradient>
    <inkscape:perspective
       sodipodi:type="inkscape:persp3d"
       inkscape:vp_x="0 : 526.18109 : 1"
       inkscape:vp_y="0 : 1000 : 0"
       inkscape:vp_z="744.09448 : 526.18109 : 1"
       inkscape:persp3d-origin="372.04724 : 350.78739 : 1"
       id="perspective10" />
    <inkscape:perspective
       id="perspective5482"
       inkscape:persp3d-origin="372.04724 : 350.78739 : 1"
       inkscape:vp_z="744.09448 : 526.18109 : 1"
       inkscape:vp_y="0 : 1000 : 0"
       inkscape:vp_x="0 : 526.18109 : 1"
       sodipodi:type="inkscape:persp3d" />
    <linearGradient
       inkscape:collect="always"
       xlink:href="#linearGradient6270"
       id="linearGradient6276"
       x1="6.742857"
       y1="17.69454"
       x2="20.21875"
       y2="32.063374"
       gradientUnits="userSpaceOnUse" />
    <linearGradient
       inkscape:collect="always"
       xlink:href="#linearGradient6275"
       id="linearGradient6292"
       x1="8.1740255"
       y1="17.292997"
       x2="21.98341"
       y2="42.052902"
       gradientUnits="userSpaceOnUse" />
    <inkscape:perspective
       id="perspective5494"
       inkscape:persp3d-origin="372.04724 : 350.78739 : 1"
       inkscape:vp_z="744.09448 : 526.18109 : 1"
       inkscape:vp_y="0 : 1000 : 0"
       inkscape:vp_x="0 : 526.18109 : 1"
       sodipodi:type="inkscape:persp3d" />
    <linearGradient
       inkscape:collect="always"
       xlink:href="#linearGradient6275"
       id="linearGradient6281"
       x1="16.068249"
       y1="12.636932"
       x2="27.032618"
       y2="32.985794"
       gradientUnits="userSpaceOnUse" />
    <linearGradient
       inkscape:collect="always"
       xlink:href="#linearGradient6285"
       id="linearGradient6291"
       x1="25.206066"
       y1="14.742796"
       x2="29.838963"
       y2="31.449289"
       gradientUnits="userSpaceOnUse" />
    <linearGradient
       inkscape:collect="always"
       xlink:href="#linearGradient6295"
       id="linearGradient6301"
       x1="29.118765"
       y1="14.103897"
       x2="38.65065"
       y2="36.514286"
       gradientUnits="userSpaceOnUse" />
    <linearGradient
       inkscape:collect="always"
       xlink:href="#linearGradient6307"
       id="linearGradient6313"
       x1="39.692207"
       y1="15.328686"
       x2="42.344158"
       y2="31.645569"
       gradientUnits="userSpaceOnUse" />
    <radialGradient
       inkscape:collect="always"
       xlink:href="#linearGradient6327"
       id="radialGradient6333"
       cx="24.015661"
       cy="23.720955"
       fx="24.015661"
       fy="23.720955"
       r="22.046911"
       gradientTransform="matrix(1.3318913,-2.5340173e-8,5.4594878e-8,2.8695322,-7.9705903,-44.347087)"
       gradientUnits="userSpaceOnUse" />
    <filter
       inkscape:collect="always"
       id="filter6287"
       x="-0.13370629"
       width="1.2674126"
       y="-1.1706123"
       height="3.3412246">
      <feGaussianBlur
         inkscape:collect="always"
         stdDeviation="2.1124815"
         id="feGaussianBlur6289" />
    </filter>
  </defs>
  <sodipodi:namedview
     id="base"
     pagecolor="#ffffff"
     bordercolor="#666666"
     borderopacity="1.0"
     gridtolerance="10000"
     guidetolerance="10"
     objecttolerance="10"
     inkscape:pageopacity="0.0"
     inkscape:pageshadow="2"
     inkscape:zoom="1"
     inkscape:cx="14.800992"
     inkscape:cy="0.048399327"
     inkscape:document-units="px"
     inkscape:current-layer="layer1"
     showgrid="false"
     inkscape:window-width="1280"
     inkscape:window-height="974"
     inkscape:window-x="-8"
     inkscape:window-y="-8"
     inkscape:snap-nodes="false"
     inkscape:snap-bbox="true">
    <inkscape:grid
       type="xygrid"
       id="grid2383"
       visible="true"
       enabled="true" />
  </sodipodi:namedview>
  <metadata
     id="metadata7">
    <rdf:RDF>
      <cc:Work
         rdf:about="">
        <dc:format>image/svg+xml</dc:format>
        <dc:type
           rdf:resource="http://purl.org/dc/dcmitype/StillImage" />
        <dc:creator>
          <cc:Agent>
            <dc:title>Jakub Szypulka</dc:title>
          </cc:Agent>
        </dc:creator>
        <dc:publisher>
          <cc:Agent>
            <dc:title>Jakub Szypulka</dc:title>
          </cc:Agent>
        </dc:publisher>
        <dc:rights>
          <cc:Agent>
            <dc:title>Jakub Szypulka</dc:title>
          </cc:Agent>
        </dc:rights>
      </cc:Work>
    </rdf:RDF>
  </metadata>
  <g
     inkscape:label="Layer 1"
     inkscape:groupmode="layer"
     id="layer1">
    <path
       sodipodi:type="arc"
       style="opacity:0.40000000000000002;fill:#000000;fill-opacity:1;fill-rule:evenodd;stroke:none;stroke-width:1px;stroke-linecap:butt;stroke-linejoin:miter;marker:none;marker-start:none;marker-mid:none;marker-end:none;stroke-miterlimit:4;stroke-dasharray:none;stroke-dashoffset:0;stroke-opacity:1;visibility:visible;display:inline;overflow:visible;enable-background:accumulate;filter:url(#filter6287)"
       id="path5515"
       sodipodi:cx="24.174213"
       sodipodi:cy="41.326679"
       sodipodi:rx="18.959301"
       sodipodi:ry="2.1655145"
       d="M 43.133514,41.326679 A 18.959301,2.1655145 0 1 1 5.2149124,41.326679 A 18.959301,2.1655145 0 1 1 43.133514,41.326679 z" />
    <path
       style="opacity:1;fill:#019cde;fill-opacity:1;fill-rule:evenodd;stroke:#006796;stroke-width:1px;stroke-linecap:round;stroke-linejoin:round;marker:none;marker-start:none;marker-mid:none;marker-end:none;stroke-miterlimit:4;stroke-dasharray:none;stroke-dashoffset:0;stroke-opacity:1;visibility:visible;display:inline;overflow:visible;enable-background:accumulate"
       d="M 10.441558,40.597403 L 15.568831,37.464935 C 5.639085,33.194318 1.5235514,29.155156 1.5235514,21.72785 C 1.5235514,11.665147 9.9025012,6.5122361 24.504226,6.5122361 C 28.682884,6.5122361 46.451116,5.5534441 46.503896,22.472727 C 46.542943,34.989634 31.369093,43.103393 10.441558,40.597403 z"
       id="path5488"
       sodipodi:nodetypes="ccsssc" />
    <image
       y="65.505188"
       x="4.5"
       id="image5496"
       height="45.994812"
       width="45.994812"
       sodipodi:absref="C:\Users\Cube\Documents\My Dropbox\Inkscape-Files\gnome-sound-recorder UI\pastedpic_08052009_173932.png"
       xlink:href="C:\Users\Cube\Documents\My Dropbox\Inkscape-Files\gnome-sound-recorder UI\pastedpic_08052009_173932.png" />
    <path
       sodipodi:nodetypes="cssssssssccsssc"
       id="path6335"
       d="M 9,16.5 C 5.9640002,16.5 3.5,18.964001 3.5,22 C 3.5,25.036 5.9639998,27.499999 9,27.5 C 9.1202259,27.5 9.2450024,27.47695 9.3721364,27.438277 C 10.245967,27.17247 11.231169,26.168637 11.615571,26.838774 C 13.083248,29.397407 18.305539,33.224085 19.975718,31.905407 C 20.570264,31.435987 20.86741,30.090558 20.276381,29.68541 C 19.270226,28.995694 13.120953,27.117781 13.741529,24.78753 C 13.985756,23.870462 14.5,23.017084 14.5,22 C 14.5,18.964 12.035999,16.500001 9,16.5 z M 9,19.5 C 10.38,19.499999 11.5,20.620001 11.5,22 C 11.5,23.38 10.38,24.5 9,24.5 C 7.6199999,24.499999 6.5,23.379999 6.5,22 C 6.4999998,20.620001 7.62,19.5 9,19.5 z"
       style="opacity:1;fill:#ffffff;fill-opacity:1;fill-rule:evenodd;stroke:none;stroke-width:1px;stroke-linecap:butt;stroke-linejoin:miter;marker:none;marker-start:none;marker-mid:none;marker-end:none;stroke-miterlimit:4;stroke-dasharray:none;stroke-dashoffset:0;stroke-opacity:1;visibility:visible;display:inline;overflow:visible;enable-background:accumulate" />
    <path
       style="opacity:0.3;fill:none;fill-opacity:1;fill-rule:evenodd;stroke:url(#linearGradient6292);stroke-width:1px;stroke-linecap:butt;stroke-linejoin:miter;marker:none;marker-start:none;marker-mid:none;marker-end:none;stroke-miterlimit:4;stroke-dasharray:none;stroke-dashoffset:0;stroke-opacity:1;visibility:visible;display:inline;overflow:visible;enable-background:accumulate"
       d="M 9,16.5 C 5.9640002,16.5 3.5,18.964001 3.5,22 C 3.5,25.036 5.9639998,27.499999 9,27.5 C 9.1202259,27.5 9.2450024,27.47695 9.3721364,27.438277 C 10.245967,27.17247 11.231169,26.168637 11.615571,26.838774 C 13.083248,29.397407 18.305539,33.224085 19.975718,31.905407 C 20.570264,31.435987 20.86741,30.090558 20.276381,29.68541 C 19.270226,28.995694 13.120953,27.117781 13.741529,24.78753 C 13.985756,23.870462 14.5,23.017084 14.5,22 C 14.5,18.964 12.035999,16.500001 9,16.5 z M 9,19.5 C 10.38,19.499999 11.5,20.620001 11.5,22 C 11.5,23.38 10.38,24.5 9,24.5 C 7.6199999,24.499999 6.5,23.379999 6.5,22 C 6.4999998,20.620001 7.62,19.5 9,19.5 z"
       id="path6260"
       sodipodi:nodetypes="cssssssssccsssc" />
    <path
       sodipodi:nodetypes="cccsccsssc"
       id="path6337"
       d="M 17.507813,15.5625 L 17.507813,17.671875 L 19.53125,18.5 C 12.690073,20.577823 15.841135,26.99912 19.53125,27.03125 C 23.540765,27.066161 26.754513,16.361722 17.507813,15.5625 z M 19,21.5 C 19.828,21.500001 20.5,22.172 20.5,23 C 20.5,23.828001 19.828,24.5 19,24.5 C 18.172,24.500001 17.5,23.828 17.5,23 C 17.5,22.172001 18.172,21.5 19,21.5 z"
       style="opacity:1;fill:#ffffff;fill-opacity:1;fill-rule:evenodd;stroke:none;stroke-width:1px;stroke-linecap:butt;stroke-linejoin:miter;marker:none;marker-start:none;marker-mid:none;marker-end:none;stroke-miterlimit:4;stroke-dasharray:none;stroke-dashoffset:0;stroke-opacity:1;visibility:visible;display:inline;overflow:visible;enable-background:accumulate" />
    <path
       style="opacity:0.3;fill:none;fill-opacity:1;fill-rule:evenodd;stroke:url(#linearGradient6281);stroke-width:1px;stroke-linecap:butt;stroke-linejoin:miter;marker:none;marker-start:none;marker-mid:none;marker-end:none;stroke-miterlimit:4;stroke-dasharray:none;stroke-dashoffset:0;stroke-opacity:1;visibility:visible;display:inline;overflow:visible;enable-background:accumulate"
       d="M 17.507813,15.5625 L 17.507813,17.671875 L 19.53125,18.5 C 12.690073,20.577823 15.841135,26.99912 19.53125,27.03125 C 23.540765,27.066161 26.754513,16.361722 17.507813,15.5625 z M 19,21.5 C 19.828,21.500001 20.5,22.172 20.5,23 C 20.5,23.828001 19.828,24.5 19,24.5 C 18.172,24.500001 17.5,23.828 17.5,23 C 17.5,22.172001 18.172,21.5 19,21.5 z"
       id="path5500"
       sodipodi:nodetypes="cccsccsssc" />
    <path
       sodipodi:nodetypes="ccccc"
       id="path6339"
       d="M 24.546875,16.453125 L 26.484375,16.453125 C 26.342892,20.491434 26.86969,23.004222 27.5,25.5 L 25.328125,25.5 C 24.487912,22.509546 24.480029,19.484809 24.546875,16.453125 z"
       style="opacity:1;fill:#ffffff;fill-opacity:1;fill-rule:evenodd;stroke:none;stroke-width:1px;stroke-linecap:butt;stroke-linejoin:miter;marker:none;marker-start:none;marker-mid:none;marker-end:none;stroke-miterlimit:4;stroke-dasharray:none;stroke-dashoffset:0;stroke-opacity:1;visibility:visible;display:inline;overflow:visible;enable-background:accumulate" />
    <path
       style="opacity:0.3;fill:none;fill-opacity:1;fill-rule:evenodd;stroke:url(#linearGradient6291);stroke-width:1px;stroke-linecap:butt;stroke-linejoin:miter;marker:none;marker-start:none;marker-mid:none;marker-end:none;stroke-miterlimit:4;stroke-dasharray:none;stroke-dashoffset:0;stroke-opacity:1;visibility:visible;display:inline;overflow:visible;enable-background:accumulate"
       d="M 24.546875,16.453125 L 26.484375,16.453125 C 26.342892,20.491434 26.86969,23.004222 27.5,25.5 L 25.328125,25.5 C 24.487912,22.509546 24.480029,19.484809 24.546875,16.453125 z"
       id="path6283"
       sodipodi:nodetypes="ccccc" />
    <path
       sodipodi:nodetypes="cccccccccccc"
       id="path6341"
       d="M 28.503896,13.480519 L 30.498702,13.44935 L 30.514285,20.524675 C 31.892256,19.392127 32.641266,17.892686 33.553247,16.488311 L 35.579221,18.52987 C 34.535939,19.443744 33.443081,20.233676 32.555844,21.537662 C 34.281169,22.198052 35.947028,23.274701 37.589611,24.514285 L 36.467533,26.602597 C 35.266381,25.724214 33.8971,24.77858 31.464935,23.407792 C 30.888415,25.005429 31.675739,26.758934 32.524675,28.51948 L 30.436364,29.657143 C 28.122887,24.14069 28.395616,18.875885 28.503896,13.480519 z"
       style="opacity:1;fill:#ffffff;fill-opacity:1;fill-rule:evenodd;stroke:none;stroke-width:1px;stroke-linecap:butt;stroke-linejoin:miter;marker:none;marker-start:none;marker-mid:none;marker-end:none;stroke-miterlimit:4;stroke-dasharray:none;stroke-dashoffset:0;stroke-opacity:1;visibility:visible;display:inline;overflow:visible;enable-background:accumulate" />
    <path
       style="opacity:0.3;fill:none;fill-opacity:1;fill-rule:evenodd;stroke:url(#linearGradient6301);stroke-width:1px;stroke-linecap:butt;stroke-linejoin:miter;marker:none;marker-start:none;marker-mid:none;marker-end:none;stroke-miterlimit:4;stroke-dasharray:none;stroke-dashoffset:0;stroke-opacity:1;visibility:visible;display:inline;overflow:visible;enable-background:accumulate"
       d="M 28.503896,13.480519 L 30.498702,13.44935 L 30.514285,20.524675 C 31.892256,19.392127 32.641266,17.892686 33.553247,16.488311 L 35.579221,18.52987 C 34.535939,19.443744 33.443081,20.233676 32.555844,21.537662 C 34.281169,22.198052 35.947028,23.274701 37.589611,24.514285 L 36.467533,26.602597 C 35.266381,25.724214 33.8971,24.77858 31.464935,23.407792 C 30.888415,25.005429 31.675739,26.758934 32.524675,28.51948 L 30.436364,29.657143 C 28.122887,24.14069 28.395616,18.875885 28.503896,13.480519 z"
       id="path6293"
       sodipodi:nodetypes="cccccccccccc" />
    <path
       sodipodi:nodetypes="ccccc"
       id="path6345"
       d="M 36.451948,16.488312 L 38.571429,16.488312 C 38.481596,20.858945 41.55379,25.115255 42.514286,16.488312 L 44.664935,16.488312 C 44.664935,25.644362 36.451948,25.997869 36.451948,16.488312 z"
       style="opacity:1;fill:#ffffff;fill-opacity:1;fill-rule:evenodd;stroke:none;stroke-width:1px;stroke-linecap:butt;stroke-linejoin:miter;marker:none;marker-start:none;marker-mid:none;marker-end:none;stroke-miterlimit:4;stroke-dasharray:none;stroke-dashoffset:0;stroke-opacity:1;visibility:visible;display:inline;overflow:visible;enable-background:accumulate" />
    <path
       style="opacity:0.3;fill:none;fill-opacity:1;fill-rule:evenodd;stroke:url(#linearGradient6313);stroke-width:1px;stroke-linecap:butt;stroke-linejoin:miter;marker:none;marker-start:none;marker-mid:none;marker-end:none;stroke-miterlimit:4;stroke-dasharray:none;stroke-dashoffset:0;stroke-opacity:1;visibility:visible;display:inline;overflow:visible;enable-background:accumulate"
       d="M 36.451948,16.488312 L 38.571429,16.488312 C 38.481596,20.858945 41.55379,25.115255 42.514286,16.488312 L 44.664935,16.488312 C 44.664935,25.644362 36.451948,25.997869 36.451948,16.488312 z"
       id="path6305"
       sodipodi:nodetypes="ccccc" />
    <path
       sodipodi:type="inkscape:offset"
       inkscape:radius="-0.93028855"
       inkscape:original="M 24.5 6.5 C 9.8982752 6.5 1.5312501 11.656047 1.53125 21.71875 C 1.53125 29.146056 5.6327536 33.198133 15.5625 37.46875 L 10.4375 40.59375 C 31.365035 43.09974 46.539048 34.985657 46.5 22.46875 C 46.44722 5.5494671 28.678657 6.5 24.5 6.5 z "
       style="opacity:0.67000000000000004;fill:none;fill-opacity:1;fill-rule:evenodd;stroke:url(#radialGradient6333);stroke-width:1px;stroke-linecap:round;stroke-linejoin:round;marker:none;marker-start:none;marker-mid:none;marker-end:none;stroke-miterlimit:4;stroke-dasharray:none;stroke-dashoffset:0;stroke-opacity:1;visibility:visible;display:inline;overflow:visible;enable-background:accumulate"
       id="path6317"
       d="M 24.5,7.4375 C 17.308636,7.4375 11.751394,8.7264484 8.0625,11.125 C 4.3736057,13.523552 2.46875,16.94524 2.46875,21.71875 C 2.46875,25.261162 3.3808984,27.842061 5.5,30.15625 C 7.6191016,32.470439 11.028022,34.513516 15.9375,36.625 C 16.24237,36.771611 16.443637,37.072151 16.463121,37.40988 C 16.482605,37.747609 16.317237,38.069301 16.03125,38.25 L 13.4375,39.84375 C 22.493801,40.506862 30.319321,39.204911 35.90625,36.34375 C 42.090941,33.176465 45.580849,28.350658 45.5625,22.46875 C 45.537126,14.33482 41.453893,10.788181 36.71875,9 C 31.983607,7.2118186 26.659867,7.4375 24.5,7.4375 z" />
  </g>
</svg>
