<?xml version="1.0" encoding="UTF-8" standalone="no"?>
<!-- Created with Inkscape (http://www.inkscape.org/) -->
<svg
   xmlns:dc="http://purl.org/dc/elements/1.1/"
   xmlns:cc="http://creativecommons.org/ns#"
   xmlns:rdf="http://www.w3.org/1999/02/22-rdf-syntax-ns#"
   xmlns:svg="http://www.w3.org/2000/svg"
   xmlns="http://www.w3.org/2000/svg"
   xmlns:xlink="http://www.w3.org/1999/xlink"
   xmlns:sodipodi="http://sodipodi.sourceforge.net/DTD/sodipodi-0.dtd"
   xmlns:inkscape="http://www.inkscape.org/namespaces/inkscape"
   width="48"
   height="48"
   id="svg2"
   sodipodi:version="0.32"
   inkscape:version="0.46"
   version="1.0"
   sodipodi:docname="stumbleupon48.svg"
   inkscape:output_extension="org.inkscape.output.svg.inkscape"
   inkscape:export-filename="C:\Users\Cube\Documents\My Dropbox\Inkscape-Files\stumbleupon\stumbleupon48.png"
   inkscape:export-xdpi="90"
   inkscape:export-ydpi="90">
  <defs
     id="defs4">
    <linearGradient
       id="linearGradient6292">
      <stop
         id="stop6294"
         offset="0"
         style="stop-color:#417ebf;stop-opacity:1;" />
      <stop
         id="stop6296"
         offset="1"
         style="stop-color:#9fbedf;stop-opacity:1;" />
    </linearGradient>
    <linearGradient
       id="linearGradient6278">
      <stop
         id="stop6280"
         offset="0"
         style="stop-color:#68b91a;stop-opacity:1;" />
      <stop
         id="stop6282"
         offset="1"
         style="stop-color:#a1e85c;stop-opacity:1;" />
    </linearGradient>
    <inkscape:perspective
       sodipodi:type="inkscape:persp3d"
       inkscape:vp_x="0 : 526.18109 : 1"
       inkscape:vp_y="0 : 1000 : 0"
       inkscape:vp_z="744.09448 : 526.18109 : 1"
       inkscape:persp3d-origin="372.04724 : 350.78739 : 1"
       id="perspective10" />
    <inkscape:perspective
       id="perspective5482"
       inkscape:persp3d-origin="372.04724 : 350.78739 : 1"
       inkscape:vp_z="744.09448 : 526.18109 : 1"
       inkscape:vp_y="0 : 1000 : 0"
       inkscape:vp_x="0 : 526.18109 : 1"
       sodipodi:type="inkscape:persp3d" />
    <linearGradient
       inkscape:collect="always"
       xlink:href="#linearGradient6278"
       id="linearGradient6276"
       x1="25.082533"
       y1="29.078409"
       x2="20.970425"
       y2="11.124492"
       gradientUnits="userSpaceOnUse" />
    <linearGradient
       inkscape:collect="always"
       xlink:href="#linearGradient6292"
       id="linearGradient6290"
       x1="26.147772"
       y1="16.441282"
       x2="35.485542"
       y2="46.176346"
       gradientUnits="userSpaceOnUse" />
    <filter
       inkscape:collect="always"
       id="filter6314"
       x="-0.14474227"
       width="1.2894845"
       y="-0.70200001"
       height="2.404">
      <feGaussianBlur
         inkscape:collect="always"
         stdDeviation="1.5471864"
         id="feGaussianBlur6316" />
    </filter>
  </defs>
  <sodipodi:namedview
     id="base"
     pagecolor="#ffffff"
     bordercolor="#666666"
     borderopacity="1.0"
     gridtolerance="10000"
     guidetolerance="10"
     objecttolerance="10"
     inkscape:pageopacity="0.0"
     inkscape:pageshadow="2"
     inkscape:zoom="16.041667"
     inkscape:cx="24"
     inkscape:cy="24"
     inkscape:document-units="px"
     inkscape:current-layer="layer1"
     showgrid="false"
     inkscape:window-width="1280"
     inkscape:window-height="974"
     inkscape:window-x="-8"
     inkscape:window-y="-8"
     inkscape:snap-nodes="false"
     inkscape:snap-bbox="true"
     showguides="true"
     inkscape:guide-bbox="true">
    <inkscape:grid
       type="xygrid"
       id="grid2383"
       visible="true"
       enabled="true" />
  </sodipodi:namedview>
  <metadata
     id="metadata7">
    <rdf:RDF>
      <cc:Work
         rdf:about="">
        <dc:format>image/svg+xml</dc:format>
        <dc:type
           rdf:resource="http://purl.org/dc/dcmitype/StillImage" />
        <dc:creator>
          <cc:Agent>
            <dc:title>Jakub Szypulka</dc:title>
          </cc:Agent>
        </dc:creator>
        <dc:publisher>
          <cc:Agent>
            <dc:title>Jakub Szypulka</dc:title>
          </cc:Agent>
        </dc:publisher>
        <dc:rights>
          <cc:Agent>
            <dc:title>Jakub Szypulka</dc:title>
          </cc:Agent>
        </dc:rights>
      </cc:Work>
    </rdf:RDF>
  </metadata>
  <g
     inkscape:label="Layer 1"
     inkscape:groupmode="layer"
     id="layer1">
    <path
       style="fill:#eeeeec;fill-opacity:1;fill-rule:evenodd;stroke:#eeeeec;stroke-width:1px;stroke-linecap:butt;stroke-linejoin:miter;marker:none;marker-start:none;marker-mid:none;marker-end:none;stroke-miterlimit:4;stroke-dasharray:none;stroke-dashoffset:0;stroke-opacity:1;visibility:visible;display:inline;overflow:visible;enable-background:accumulate"
       d="M 5.40625,31.5 C 4.3637237,29.353922 4.047814,28.530817 3.4375,26.5 C 3.9378554,26.5 14.5,26.5625 14.5,26.5625 C 16.919497,26.5625 16.997719,23.46875 14.5,23.46875 C 6.2774285,23.534162 5.510459,12.974631 13.5,11.5 C 14,11.4375 25.53125,11.5 25.53125,11.5 C 31.239819,11.5 30.4375,19.167807 30.4375,24.46875 C 30.4375,27.090656 34.5,27.280167 34.5,24.53125 C 34.5,24.53125 34.5,8.96875 34.5,4.15625 C 39.473527,7.0277171 40.5,10.25 40.5,10.25 L 40.5,25.5 C 38.477842,33.905125 25.437499,32.396698 25.4375,25.5 C 25.4375,16.11817 25.614806,16.40625 15.40625,16.40625 C 12.188153,16.40625 11.528749,19.312501 15.40625,19.3125 C 24.865037,19.3125 21.960095,31.5 16.46875,31.5 C 15.029573,31.5 8.9881576,31.5 5.40625,31.5 z"
       id="path6322"
       sodipodi:nodetypes="ccccccsccccssssc" />
    <path
       sodipodi:type="arc"
       style="opacity:0.3;fill:#000000;fill-opacity:1;fill-rule:evenodd;stroke:none;stroke-width:1px;stroke-linecap:butt;stroke-linejoin:miter;marker:none;marker-start:none;marker-mid:none;marker-end:none;stroke-miterlimit:4;stroke-dasharray:none;stroke-dashoffset:0;stroke-opacity:1;visibility:visible;display:inline;overflow:visible;filter:url(#filter6314);enable-background:accumulate"
       id="path6312"
       sodipodi:cx="22.260088"
       sodipodi:cy="41.652569"
       sodipodi:rx="12.827101"
       sodipodi:ry="2.644763"
       d="M 35.087189,41.652569 A 12.827101,2.644763 0 1 1 9.4329872,41.652569 A 12.827101,2.644763 0 1 1 35.087189,41.652569 z"
       transform="matrix(1.3387982,0,0,1,-5.9746646,0.7026682)" />
    <path
       style="fill:#8ae234;fill-opacity:1;fill-rule:evenodd;stroke:#4e9a06;stroke-width:1px;stroke-linecap:butt;stroke-linejoin:miter;marker:none;marker-start:none;marker-mid:none;marker-end:none;stroke-miterlimit:4;stroke-dasharray:none;stroke-dashoffset:0;stroke-opacity:1;visibility:visible;display:inline;overflow:visible;enable-background:accumulate"
       d="M 3.5,26.515909 C 4.0003554,26.515909 14.5625,26.578409 14.5625,26.578409 C 16.981997,26.578409 17.060219,23.497031 14.5625,23.497031 C 6.3399285,23.562442 5.572797,13.005962 13.562338,11.531331 C 14.062338,11.468831 25.606579,11.518421 25.606579,11.518421 C 31.315148,11.518421 30.489143,19.199057 30.489143,24.5 C 30.489143,27.121906 34.5625,27.311417 34.5625,24.5625 C 34.5625,24.5625 34.5625,9 34.5625,4.1874999 C 10.93849,-5.8916008 -0.37500001,17.328409 3.5,26.515909 z"
       id="path5488"
       sodipodi:nodetypes="ccccccccc" />
    <path
       style="fill:#729fcf;fill-opacity:1;fill-rule:evenodd;stroke:#204a87;stroke-width:1px;stroke-linecap:butt;stroke-linejoin:miter;marker:none;marker-start:none;marker-mid:none;marker-end:none;stroke-miterlimit:4;stroke-dasharray:none;stroke-dashoffset:0;stroke-opacity:1;visibility:visible;display:inline;overflow:visible;enable-background:accumulate"
       d="M 5.4658436,31.541962 C 9.0477513,31.541962 15.090592,31.541962 16.529769,31.541962 C 22.021115,31.541962 24.930651,19.331973 15.471864,19.331973 C 11.594363,19.331973 12.253767,16.422733 15.471864,16.422733 C 25.68042,16.422733 25.499923,16.143296 25.499923,25.525126 C 25.499923,32.421824 38.530875,33.930251 40.553033,25.525126 L 40.553033,10.295699 C 55.860422,34.390153 20.773807,56.776724 5.4658436,31.541962 z"
       id="path5490"
       sodipodi:nodetypes="csscsccc" />
    <path
       sodipodi:type="inkscape:offset"
       inkscape:radius="-0.93506491"
       inkscape:original="M 40.5625 12.28125 L 40.5625 27.53125 C 38.540342 35.936375 25.499999 34.427948 25.5 27.53125 C 25.5 18.14942 25.677306 18.4375 15.46875 18.4375 C 12.250653 18.4375 11.591249 21.343751 15.46875 21.34375 C 24.927537 21.34375 22.022595 33.53125 16.53125 33.53125 C 15.092073 33.53125 9.0506576 33.53125 5.46875 33.53125 C 20.776713 58.766012 55.86989 36.375704 40.5625 12.28125 z "
       style="opacity:0.3;fill:none;fill-opacity:1;fill-rule:evenodd;stroke:#ffffff;stroke-width:1px;stroke-linecap:butt;stroke-linejoin:miter;marker:none;marker-start:none;marker-mid:none;marker-end:none;stroke-miterlimit:4;stroke-dasharray:none;stroke-dashoffset:0;stroke-opacity:1;visibility:visible;display:inline;overflow:visible;enable-background:accumulate"
       id="path5494"
       d="M 41.5,16.125 L 41.5,27.53125 C 41.498265,27.605145 41.487775,27.678575 41.46875,27.75 C 40.90826,30.079684 39.539459,31.794078 37.84375,32.84375 C 36.148041,33.893422 34.145358,34.322161 32.21875,34.21875 C 30.292142,34.115339 28.436665,33.497561 27,32.375 C 25.563335,31.252439 24.5625,29.550096 24.5625,27.53125 C 24.5625,25.182847 24.569724,23.445881 24.4375,22.25 C 24.305276,21.054119 24.060711,20.489758 23.6875,20.15625 C 23.314289,19.822742 22.591416,19.581799 21.25,19.46875 C 19.908584,19.355701 18.025287,19.375 15.46875,19.375 C 14.804968,19.375 14.33847,19.5218 14.0625,19.6875 C 13.78653,19.8532 13.748868,20.009983 13.75,20 C 13.751132,19.990017 13.659806,19.958395 13.875,20.09375 C 14.090194,20.229105 14.616183,20.40625 15.46875,20.40625 C 18.03425,20.40625 19.959398,21.286097 21.125,22.65625 C 22.290602,24.026403 22.66073,25.787019 22.53125,27.5 C 22.40177,29.212981 21.774614,30.913279 20.75,32.21875 C 19.725386,33.524221 18.249967,34.46875 16.53125,34.46875 C 15.336001,34.46875 10.842494,34.46875 7.34375,34.46875 C 10.89977,39.570022 15.243275,42.414367 19.75,43.34375 C 24.695998,44.363721 29.799256,43.236907 34,40.625 C 38.200744,38.013093 41.47242,33.904953 42.78125,29.0625 C 43.836425,25.15853 43.557311,20.741785 41.5,16.125 z"
       transform="translate(0,-2)" />
    <path
       sodipodi:type="inkscape:offset"
       inkscape:radius="-0.98884666"
       inkscape:original="M 22.59375 3.71875 C 7.2323111 4.3233015 0.35156249 21.066406 3.5 28.53125 C 4.0003554 28.53125 14.5625 28.59375 14.5625 28.59375 C 16.981997 28.59375 17.060219 25.5 14.5625 25.5 C 6.3399285 25.565412 5.572959 15.005881 13.5625 13.53125 C 14.0625 13.46875 25.59375 13.53125 25.59375 13.53125 C 31.302319 13.53125 30.5 21.199057 30.5 26.5 C 30.5 29.121906 34.5625 29.311417 34.5625 26.5625 C 34.5625 26.5625 34.5625 11 34.5625 6.1875 C 30.132998 4.2976686 26.138697 3.5792381 22.59375 3.71875 z "
       style="opacity:0.4;fill:none;fill-opacity:1;fill-rule:evenodd;stroke:#ffffff;stroke-width:1px;stroke-linecap:butt;stroke-linejoin:miter;marker:none;marker-start:none;marker-mid:none;marker-end:none;stroke-miterlimit:4;stroke-dasharray:none;stroke-dashoffset:0;stroke-opacity:1;visibility:visible;display:inline;overflow:visible;enable-background:accumulate"
       id="path6268"
       d="M 22.625,4.71875 C 15.296913,5.0071479 10.046473,9.0885739 6.9375,14.0625 C 3.9968833,18.76708 3.2067164,24.200251 4.28125,27.53125 C 6.0282056,27.538877 14.5625,27.59375 14.5625,27.59375 C 15.350777,27.59375 15.403094,27.280921 15.40625,27.03125 C 15.409406,26.781579 15.403088,26.5 14.5625,26.5 C 10.027713,26.536075 7.2580143,23.445848 7,20.15625 C 6.7419857,16.866652 8.9603821,13.377307 13.375,12.5625 C 13.395828,12.561842 13.416672,12.561842 13.4375,12.5625 C 13.742158,12.524418 13.849971,12.535589 14.21875,12.53125 C 14.587529,12.526911 15.078923,12.532719 15.65625,12.53125 C 16.810904,12.528312 18.307701,12.527341 19.78125,12.53125 C 22.728348,12.539067 25.59375,12.53125 25.59375,12.53125 C 27.242264,12.53125 28.595084,13.159128 29.5,14.15625 C 30.404916,15.153372 30.879487,16.452053 31.15625,17.84375 C 31.709775,20.627144 31.5,23.899417 31.5,26.5 C 31.5,26.900116 31.626145,27.113165 31.8125,27.28125 C 31.998855,27.449335 32.272257,27.553498 32.5625,27.5625 C 32.852743,27.571502 33.115165,27.486711 33.28125,27.34375 C 33.447335,27.200789 33.5625,27.006167 33.5625,26.5625 C 33.5625,26.5625 33.5625,12.249077 33.5625,6.90625 C 29.511708,5.2695026 25.835724,4.5923915 22.625,4.71875 z"
       transform="translate(0,-2)" />
    <path
       sodipodi:type="inkscape:offset"
       inkscape:radius="-1.2193878"
       inkscape:original="M 34.5 4.15625 C 34.5 8.96875 34.5 24.53125 34.5 24.53125 C 34.5 27.280167 30.4375 27.090656 30.4375 24.46875 C 30.4375 19.167807 31.239819 11.5 25.53125 11.5 C 25.53125 11.5 14 11.4375 13.5 11.5 C 5.510459 12.974631 6.2774285 23.534162 14.5 23.46875 C 16.997719 23.46875 16.919497 26.5625 14.5 26.5625 C 14.5 26.5625 3.9378554 26.5 3.4375 26.5 C 4.047814 28.530817 4.3637237 29.353922 5.40625 31.5 C 8.9881576 31.5 15.029573 31.5 16.46875 31.5 C 21.960095 31.5 24.865037 19.3125 15.40625 19.3125 C 11.528749 19.312501 12.188153 16.40625 15.40625 16.40625 C 25.614806 16.40625 25.4375 16.11817 25.4375 25.5 C 25.437499 32.396698 38.477842 33.905125 40.5 25.5 L 40.5 10.25 C 40.5 10.25 39.473527 7.0277171 34.5 4.15625 z "
       style="fill:none;fill-opacity:1;fill-rule:evenodd;stroke:#ffffff;stroke-width:1px;stroke-linecap:butt;stroke-linejoin:miter;marker:none;marker-start:none;marker-mid:none;marker-end:none;stroke-miterlimit:4;stroke-dasharray:none;stroke-dashoffset:0;stroke-opacity:1;visibility:visible;display:inline;overflow:visible;enable-background:accumulate;opacity:0.29999999999999999"
       id="path6335"
       d="M 35.71875,6.5 C 35.71875,12.639467 35.71875,24.53125 35.71875,24.53125 C 35.71875,25.518826 35.301956,26.412945 34.65625,26.96875 C 34.010544,27.524555 33.213607,27.742822 32.4375,27.71875 C 31.661393,27.694678 30.870711,27.434857 30.25,26.875 C 29.629289,26.315143 29.21875,25.439122 29.21875,24.46875 C 29.21875,21.756759 29.400507,18.546975 28.9375,16.21875 C 28.705996,15.054638 28.321333,14.154431 27.8125,13.59375 C 27.303667,13.033069 26.68541,12.71875 25.53125,12.71875 C 25.53125,12.71875 22.63061,12.695307 19.6875,12.6875 C 18.215945,12.683597 16.741064,12.684581 15.59375,12.6875 C 15.020093,12.68896 14.54373,12.683309 14.1875,12.6875 C 13.83127,12.691691 13.420135,12.748264 13.65625,12.71875 C 10.236883,13.381302 8.9512216,15.753132 9.125,17.96875 C 9.3000684,20.200815 10.910951,22.278552 14.5,22.25 C 16.252316,22.25 17.580443,23.611934 17.5625,25.03125 C 17.544557,26.450566 16.229482,27.78125 14.5,27.78125 C 14.5,27.78125 7.8698068,27.732912 5.21875,27.71875 C 5.4840692,28.484244 5.7757098,29.341763 6.21875,30.28125 C 9.8370325,30.28125 15.135275,30.28125 16.46875,30.28125 C 17.390534,30.28125 18.269958,29.773904 19,28.84375 C 19.730042,27.913596 20.216031,26.58876 20.3125,25.3125 C 20.408969,24.03624 20.125784,22.845805 19.40625,22 C 18.686716,21.154195 17.509086,20.53125 15.40625,20.53125 C 14.28455,20.53125 13.373679,20.326256 12.65625,19.875 C 11.938821,19.423744 11.434816,18.568793 11.53125,17.71875 C 11.627684,16.868707 12.189349,16.224184 12.875,15.8125 C 13.560651,15.400816 14.418188,15.1875 15.40625,15.1875 C 17.952654,15.1875 19.854927,15.153145 21.375,15.28125 C 22.895073,15.409355 24.130182,15.698113 25.0625,16.53125 C 25.994818,17.364387 26.37446,18.581935 26.53125,20 C 26.68804,21.418065 26.65625,23.158383 26.65625,25.5 C 26.65625,26.839903 27.233912,27.831063 28.25,28.625 C 29.266088,29.418937 30.746749,29.948885 32.28125,30.03125 C 33.815751,30.113615 35.395574,29.749129 36.65625,28.96875 C 37.899141,28.19938 38.838672,27.041947 39.28125,25.28125 L 39.28125,10.53125 C 39.261407,10.467772 39.143516,9.9775029 38.40625,9 C 37.875218,8.295933 36.908313,7.4106512 35.71875,6.5 z" />
  </g>
</svg>
