<?xml version="1.0" encoding="UTF-8" standalone="no"?>
<!-- Created with Inkscape (http://www.inkscape.org/) -->
<svg id="svg7854" xmlns:rdf="http://www.w3.org/1999/02/22-rdf-syntax-ns#" xmlns="http://www.w3.org/2000/svg" height="48" width="48" version="1.0" xmlns:cc="http://web.resource.org/cc/" xmlns:xlink="http://www.w3.org/1999/xlink" xmlns:dc="http://purl.org/dc/elements/1.1/">
 <defs id="defs7856">
  <linearGradient id="linearGradient7344">
   <stop id="stop7346" style="stop-color:#eeeeec" offset="0"/>
   <stop id="stop7348" style="stop-color:#92948f" offset="1"/>
  </linearGradient>
  <linearGradient id="linearGradient5154" y2="36.472" gradientUnits="userSpaceOnUse" x2="23.063" y1="40.001" x1="22.75">
   <stop id="stop3271" style="stop-color:#fecb81" offset="0"/>
   <stop id="stop3273" style="stop-color:#fcaf3e" offset="1"/>
  </linearGradient>
  <linearGradient id="linearGradient5156" y2="36.103" gradientUnits="userSpaceOnUse" x2="17.25" y1="41.147" x1="17.25">
   <stop id="stop3286" style="stop-color:#ce5c00" offset="0"/>
   <stop id="stop3288" style="stop-color:#f57900" offset="1"/>
  </linearGradient>
  <linearGradient id="linearGradient5158" y2="43.979" gradientUnits="userSpaceOnUse" x2="18.875" y1="35.183" x1="18.875">
   <stop id="stop3278" style="stop-color:#fff" offset="0"/>
   <stop id="stop3280" style="stop-color:#fff;stop-opacity:0" offset="1"/>
  </linearGradient>
  <radialGradient id="radialGradient5160" gradientUnits="userSpaceOnUse" cy="43" cx="23.812" gradientTransform="matrix(1 0 0 .19466 0 34.63)" r="16.375">
   <stop id="stop3190" offset="0"/>
   <stop id="stop3192" style="stop-opacity:0" offset="1"/>
  </radialGradient>
  <linearGradient id="linearGradient5002" y2="25.588" gradientUnits="userSpaceOnUse" x2="-24.331" y1="13.13" x1="-27.669">
   <stop id="stop7579" style="stop-opacity:.31373" offset="0"/>
   <stop id="stop7581" style="stop-color:#fff" offset="1"/>
  </linearGradient>
  <radialGradient id="radialGradient5004" xlink:href="#linearGradient7344" gradientUnits="userSpaceOnUse" cy="31.679" cx="28.541" gradientTransform="matrix(5.3995 0 0 2.3034 -176.15 -41.852)" r="12"/>
  <linearGradient id="linearGradient5008" y2="37.932" gradientUnits="userSpaceOnUse" x2="48.131" y1="10.068" x1="-.13080">
   <stop id="stop7307" style="stop-color:#fff" offset="0"/>
   <stop id="stop7313" style="stop-color:#fff;stop-opacity:0" offset=".20971"/>
   <stop id="stop7329" style="stop-color:#fff;stop-opacity:.81065" offset=".34936"/>
   <stop id="stop7321" style="stop-color:#fff;stop-opacity:0" offset=".42850"/>
   <stop id="stop7323" style="stop-color:#fff" offset=".52134"/>
   <stop id="stop7317" style="stop-color:#fff;stop-opacity:0" offset=".55747"/>
   <stop id="stop7319" style="stop-color:#fff;stop-opacity:.56805" offset=".71002"/>
   <stop id="stop7416" style="stop-color:#fff;stop-opacity:0" offset=".74395"/>
   <stop id="stop7309" style="stop-color:#fff;stop-opacity:0" offset="1"/>
  </linearGradient>
 </defs>
 <metadata id="metadata7859">
  <rdf:RDF>
   <cc:Work rdf:about="">
    <dc:format>image/svg+xml</dc:format>
    <dc:type rdf:resource="http://purl.org/dc/dcmitype/StillImage"/>
    <dc:creator>
     <cc:Agent>
      <dc:title>Lapo Calamandrei</dc:title>
     </cc:Agent>
    </dc:creator>
    <dc:source/>
    <cc:license rdf:resource="http://creativecommons.org/licenses/GPL/2.0/"/>
    <dc:title>Pause</dc:title>
    <dc:subject>
     <rdf:Bag>
      <rdf:li>playback</rdf:li>
      <rdf:li>pause</rdf:li>
     </rdf:Bag>
    </dc:subject>
   </cc:Work>
   <cc:License rdf:about="http://creativecommons.org/licenses/GPL/2.0/">
    <cc:permits rdf:resource="http://web.resource.org/cc/Reproduction"/>
    <cc:permits rdf:resource="http://web.resource.org/cc/Distribution"/>
    <cc:requires rdf:resource="http://web.resource.org/cc/Notice"/>
    <cc:permits rdf:resource="http://web.resource.org/cc/DerivativeWorks"/>
    <cc:requires rdf:resource="http://web.resource.org/cc/ShareAlike"/>
    <cc:requires rdf:resource="http://web.resource.org/cc/SourceCode"/>
   </cc:License>
  </rdf:RDF>
 </metadata>
 <g id="layer1">
  <g id="g7104" transform="matrix(1 0 0 .87353 49.969 -4.5737)">
   <path id="path7594" style="opacity:.4;fill:url(#linearGradient5002);fill-rule:evenodd" d="m-37.031 11.031c-1.017 0-1.938 0.921-1.938 1.938v22.062c0 1.017 0.921 1.938 1.938 1.938h7.062c1.017 0 1.938-0.921 1.938-1.938v-22.062c0-1.017-0.921-1.938-1.938-1.938h-7.062zm15 0c-1.017 0-1.938 0.921-1.938 1.938v22.062c0 1.017 0.921 1.938 1.938 1.938h7.062c1.017 0 1.938-0.921 1.938-1.938v-22.062c0-1.017-0.921-1.938-1.938-1.938h-7.062z"/>
   <g id="g7451">
    <rect id="rect7865" style="stroke-linejoin:round;fill-rule:evenodd;stroke-dashoffset:0.7;stroke:#555753;stroke-linecap:round;stroke-width:1.0699;fill:url(#radialGradient5004)" rx=".47698" ry=".47698" height="23" width="7.998" y="12.5" x="-37.5"/>
    <rect id="rect7879" style="stroke-linejoin:round;fill-rule:evenodd;stroke-dashoffset:0.7;stroke:#555753;stroke-linecap:round;stroke-width:1.0699;fill:url(#radialGradient5004)" rx=".47698" ry=".47698" height="23" width="7.998" y="12.5" x="-22.5"/>
    <rect id="rect7867" style="stroke-dashoffset:0.7;stroke:#fff;stroke-linecap:round;stroke-width:1.0699;fill:none" height="21" width="6" y="13.5" x="-36.5"/>
    <rect id="rect7889" style="stroke-dashoffset:0.7;stroke:#fff;stroke-linecap:round;stroke-width:1.0699;fill:none" height="21" width="6" y="13.5" x="-21.5"/>
    <path id="path7402" style="opacity:.15;fill:url(#linearGradient5008);fill-rule:evenodd" d="m13 13v22h7v-22h-7zm15 0v22h7v-22h-7z" transform="matrix(1,0,0,-1,-50,48)"/>
   </g>
  </g>
  <path id="path4121" style="opacity:.2;color:#000000;fill:url(#radialGradient5160)" d="m40.188 43a16.375 3.1875 0 1 1 -32.75 0 16.375 3.1875 0 1 1 32.75 0z" transform="matrix(1.0687 0 0 1.4118 -1.9485 -21.206)"/>
  <g id="g4123" transform="translate(-.0000018375 -4)">
   <path id="path4125" style="stroke-linejoin:round;color:#000000;stroke-dashoffset:1.4;stroke:url(#linearGradient5156);stroke-linecap:round;fill:url(#linearGradient5154)" d="m15.5 35.5h17l-8.5 9-8.5-9z"/>
   <path id="path4127" style="opacity:.7;color:#000000;stroke-dashoffset:1.4;stroke:url(#linearGradient5158);stroke-linecap:round;fill:none" d="m17.812 34.5l6.188 6.562 6.188-6.562h-12.376z" transform="translate(0,2)"/>
  </g>
 </g>
</svg>
