<?xml version="1.0" encoding="UTF-8" standalone="no"?>
<!-- Created with Inkscape (http://www.inkscape.org/) -->
<svg id="svg2" xmlns:rdf="http://www.w3.org/1999/02/22-rdf-syntax-ns#" xmlns="http://www.w3.org/2000/svg" height="48" width="48" version="1.0" xmlns:cc="http://web.resource.org/cc/" xmlns:xlink="http://www.w3.org/1999/xlink" xmlns:dc="http://purl.org/dc/elements/1.1/">
 <defs id="defs3">
  <linearGradient id="linearGradient5976">
   <stop id="stop5978" style="stop-color:#f5f5f3" offset="0"/>
   <stop id="stop5980" style="stop-color:#eeeeec" offset="1"/>
  </linearGradient>
  <filter id="filter6052" height="2.4148" width="1.283" y="-.70742" x="-.14148">
   <feGaussianBlur id="feGaussianBlur6054" stdDeviation="1.1790392"/>
  </filter>
  <radialGradient id="radialGradient7284" cx="23.946" gradientUnits="userSpaceOnUse" cy="24.538" r="21.456">
   <stop id="stop6567" offset="0"/>
   <stop id="stop6569" style="stop-opacity:0" offset="1"/>
  </radialGradient>
  <linearGradient id="linearGradient8132" y2="3.4852" gradientUnits="userSpaceOnUse" x2="53.43" gradientTransform="matrix(1.3468 0 0 1.4985 -38.59 1.4177)" y1="5.7912" x1="50.975">
   <stop id="stop6078" style="stop-color:#fff" offset="0"/>
   <stop id="stop6080" style="stop-color:#cbcbcb" offset="1"/>
  </linearGradient>
  <linearGradient id="linearGradient8134" y2="6.6544" gradientUnits="userSpaceOnUse" x2="58.579" gradientTransform="matrix(.99967 0 0 1.1219 -31.862 3.1093)" y1="8.0665" x1="65.721">
   <stop id="stop4921" style="stop-color:#888a85" offset="0"/>
   <stop id="stop4923" style="stop-color:#888a85;stop-opacity:0" offset="1"/>
  </linearGradient>
  <linearGradient id="linearGradient8137" y2="7.2702" gradientUnits="userSpaceOnUse" x2="16.552" gradientTransform="matrix(1.0005 0 0 1.403 -30.862 2.3667)" y1="2.9627" x1="16.552">
   <stop id="stop6110" offset="0"/>
   <stop id="stop6112" style="stop-opacity:0" offset="1"/>
  </linearGradient>
  <linearGradient id="linearGradient8141" y2="16.944" gradientUnits="userSpaceOnUse" x2="41.142" gradientTransform="matrix(1.4821 0 0 1.4483 -40.472 2.3251)" y1="-5.7337" x1="27.452">
   <stop id="stop7946" style="stop-color:#dededa" offset="0"/>
   <stop id="stop7948" style="stop-color:#fff" offset="1"/>
  </linearGradient>
  <linearGradient id="linearGradient8147" y2="30.653" gradientUnits="userSpaceOnUse" x2="10.455" gradientTransform="matrix(.8125 0 0 .80999 13.151 11.325)" y1="21.968" x1="10.455">
   <stop id="stop5913" style="stop-color:#fcaf3e" offset="0"/>
   <stop id="stop5915" style="stop-color:#f57900" offset="1"/>
  </linearGradient>
  <linearGradient id="linearGradient8156" y2="33.642" xlink:href="#linearGradient5976" gradientUnits="userSpaceOnUse" x2="13.387" gradientTransform="matrix(.67721 0 0 .67579 14.81 13.417)" y1="5.6607" x1="9.2953"/>
  <linearGradient id="linearGradient8165" y2="29.279" gradientUnits="userSpaceOnUse" x2="11.983" y1="29.279" x1="16.807">
   <stop id="stop8161" style="stop-color:#ce5c00" offset="0"/>
   <stop id="stop8163" style="stop-color:#ce5c00;stop-opacity:0" offset="1"/>
  </linearGradient>
  <linearGradient id="linearGradient5056" y2="33.642" xlink:href="#linearGradient5976" gradientUnits="userSpaceOnUse" x2="13.387" gradientTransform="matrix(.55625 0 0 .55124 7.1113 9.8011)" y1="5.6607" x1="9.2953"/>
 </defs>
 <metadata id="metadata6">
  <rdf:RDF>
   <cc:Work rdf:about="">
    <dc:format>image/svg+xml</dc:format>
    <dc:type rdf:resource="http://purl.org/dc/dcmitype/StillImage"/>
    <dc:title>ISO image burn</dc:title>
    <dc:date>13.4.2007</dc:date>
    <dc:creator>
     <cc:Agent>
      <dc:title>Josef Vybíral</dc:title>
     </cc:Agent>
    </dc:creator>
    <dc:subject>
     <rdf:Bag>
      <rdf:li>burn</rdf:li>
      <rdf:li>image</rdf:li>
      <rdf:li>iso</rdf:li>
     </rdf:Bag>
    </dc:subject>
    <cc:license rdf:resource="http://creativecommons.org/licenses/GPL/2.0/"/>
   </cc:Work>
   <cc:License rdf:about="http://creativecommons.org/licenses/GPL/2.0/">
    <cc:permits rdf:resource="http://web.resource.org/cc/Reproduction"/>
    <cc:permits rdf:resource="http://web.resource.org/cc/Distribution"/>
    <cc:requires rdf:resource="http://web.resource.org/cc/Notice"/>
    <cc:permits rdf:resource="http://web.resource.org/cc/DerivativeWorks"/>
    <cc:requires rdf:resource="http://web.resource.org/cc/ShareAlike"/>
    <cc:requires rdf:resource="http://web.resource.org/cc/SourceCode"/>
   </cc:License>
  </rdf:RDF>
 </metadata>
 <g id="layer1">
  <rect id="rect8077" style="opacity:.27074;fill-rule:evenodd;color:#000000;filter:url(#filter6052)" transform="matrix(1.55 0 0 1.4495 -33.75 -25.228)" rx="1.0549" ry="1.128" height="4" width="20" y="41" x="25"/>
  <path id="path8079" style="stroke-width:1px;fill-rule:evenodd;color:#000000;stroke:#888a85;fill:url(#linearGradient8141)" d="m8.1129 4.4975h20.898l6.489 6.1945v26.37c0 1.586-0.928 2.438-2.606 2.438h-24.781c-1.6781 0-2.6059-0.852-2.6059-2.438v-30.127c0-1.5851 0.9278-2.4375 2.6058-2.4375z"/>
  <g id="g5046" style="opacity:.52838" transform="matrix(1 0 0 1.0134 0 -.14678)">
   <path id="path5028" style="stroke-width:.99337px;fill-rule:evenodd;color:#000000;stroke:#888a85;stroke-linecap:round;fill:url(#linearGradient5056)" d="m20.43 11.5c-6.588 0-11.935 5.299-11.935 11.828-0.0003 6.529 5.347 11.827 11.935 11.827 6.589 0 11.936-5.298 11.936-11.827s-5.347-11.828-11.936-11.828zm0.026 8.973c1.587 0 2.875 1.279 2.875 2.855s-1.288 2.855-2.875 2.855-2.875-1.279-2.875-2.855 1.288-2.855 2.875-2.855z"/>
   <path id="path5030" style="fill-opacity:.10811;color:#000000;fill-rule:evenodd" d="m20.456 17.618c-3.174 0-5.75 2.558-5.75 5.71s2.576 5.71 5.75 5.71 5.75-2.558 5.75-5.71-2.576-5.71-5.75-5.71zm0 2.447c1.817 0 3.286 1.458 3.286 3.263 0 1.804-1.469 3.263-3.286 3.263s-3.285-1.459-3.285-3.263c0-1.805 1.468-3.263 3.285-3.263z"/>
   <path id="path5032" style="stroke-width:1.9486px;stroke-opacity:.56757;color:#000000;stroke:#fff;stroke-linecap:round;fill:none" d="m45.402 24.538a21.456 21.456 0 1 1 -42.913 0 21.456 21.456 0 1 1 42.913 0z" transform="matrix(.51371 0 0 .50589 8.2212 10.921)"/>
   <path id="path5034" style="stroke-width:5.7865px;stroke-opacity:.42342;color:#000000;stroke:#fff;stroke-linecap:round;fill:none" d="m45.402 24.538a21.456 21.456 0 1 1 -42.913 0 21.456 21.456 0 1 1 42.913 0z" transform="matrix(.17227 0 0 .17108 16.331 19.13)"/>
   <path id="path5036" style="fill-opacity:.28829;fill:#fff;fill-rule:evenodd" d="m31.524 20.312c-0.636-2.077-1.922-3.961-3.54-5.34-1.191 1.413-3.252 3.94-5.522 6.583 0.37 0.299 0.656 0.697 0.793 1.165l8.269-2.408zm-12.686 5.266c-0.297-0.268-0.53-0.601-0.661-0.985l-8.4348 2.545c0.6608 1.989 1.8668 3.728 3.4368 5.056 1.324-1.531 3.22-3.788 5.659-6.616z"/>
   <path id="path5038" style="fill-opacity:.040541;fill-rule:evenodd" d="m17.077 12.724c-2.199 0.647-4.135 1.882-5.595 3.527 1.496 1.212 4.414 3.606 7.211 5.914 0.317-0.377 0.739-0.667 1.234-0.807l-2.85-8.634zm5.387 12.565c-0.283 0.302-0.635 0.539-1.042 0.672l2.884 8.787c2.105-0.672 3.946-1.899 5.352-3.495-1.62-1.346-4.2-3.484-7.194-5.964z"/>
   <path id="path5040" style="stroke-opacity:.36486;stroke:#fff;stroke-width:.99337px;fill:none" d="m17.852 25.776l-6.793 4.013m17.076-14.626l-5.047 6.032"/>
  </g>
  <path id="path8081" style="color:#000000;stroke:#fff;fill:none" d="m9.0592 5.5h19.347l6.094 5.846-0.065 25.296c0 1.658-0.535 1.803-2.316 1.803h-23.373c-1.7806 0-2.246-1.018-2.246-2.676v-28.15c0-1.6579 0.7783-2.119 2.5592-2.119z"/>
  <path id="path8083" style="fill:url(#linearGradient8137);fill-rule:evenodd" d="m29.171 6.3162l6.046 6.9398 0.022 1.547h-6.024l-0.044-8.4868z"/>
  <path id="path8085" style="fill-rule:evenodd;stroke:url(#linearGradient8134);stroke-width:1px;fill:url(#linearGradient8132)" d="m35.5 11.553h-6.893l-0.043-7.053"/>
  <path id="path7264" style="opacity:.38865;fill-rule:evenodd;color:#000000;fill:url(#radialGradient7284)" d="m45.402 24.538a21.456 21.456 0 1 1 -42.913 0 21.456 21.456 0 1 1 42.913 0z" transform="matrix(.70409 0 0 .32019 14.364 32.032)"/>
  <path id="path7266" style="stroke-width:1px;fill-rule:evenodd;color:#000000;stroke:#888a85;stroke-linecap:round;fill:url(#linearGradient8156)" d="m31.026 15.5c-8.021 0-14.531 6.496-14.531 14.5s6.51 14.5 14.531 14.5 14.531-6.496 14.531-14.5-6.51-14.5-14.531-14.5zm0.031 11c1.932 0 3.5 1.568 3.5 3.5s-1.568 3.5-3.5 3.5-3.5-1.568-3.5-3.5 1.568-3.5 3.5-3.5z"/>
  <path id="path7270" style="fill-opacity:.10811;color:#000000;fill-rule:evenodd" d="m31.057 23c-3.864 0-7 3.136-7 7s3.136 7 7 7 7-3.136 7-7-3.136-7-7-7zm0 3c2.213 0 4 1.788 4 4s-1.787 4-4 4c-2.212 0-4-1.788-4-4s1.788-4 4-4z"/>
  <path id="path7272" style="stroke-width:1.5894px;stroke-opacity:.56757;color:#000000;stroke:#fff;stroke-linecap:round;fill:none" d="m45.402 24.538a21.456 21.456 0 1 1 -42.913 0 21.456 21.456 0 1 1 42.913 0z" transform="matrix(.62918 0 0 .62918 15.991 14.561)"/>
  <path id="path7274" style="stroke-width:4.7681px;stroke-opacity:.42342;color:#000000;stroke:#fff;stroke-linecap:round;fill:none" d="m45.402 24.538a21.456 21.456 0 1 1 -42.913 0 21.456 21.456 0 1 1 42.913 0z" transform="matrix(.20973 0 0 .20973 26.035 24.854)"/>
  <path id="path7278" style="fill-opacity:.28829;fill:#fff;fill-rule:evenodd" d="m44.532 26.303c-0.775-2.547-2.34-4.855-4.309-6.547-1.451 1.732-3.961 4.831-6.724 8.07 0.451 0.367 0.799 0.856 0.965 1.429l10.068-2.952zm-15.445 6.455c-0.361-0.327-0.644-0.735-0.805-1.207l-10.269 3.12c0.805 2.438 2.273 4.57 4.184 6.199 1.613-1.877 3.921-4.645 6.89-8.112z"/>
  <path id="path7280" style="fill-opacity:.040541;fill-rule:evenodd" d="m26.944 17c-2.678 0.794-5.034 2.308-6.813 4.325 1.822 1.485 5.374 4.42 8.78 7.249 0.386-0.462 0.899-0.818 1.502-0.988l-3.469-10.586zm6.558 15.405c-0.344 0.37-0.773 0.66-1.269 0.824l3.511 10.771c2.563-0.824 4.805-2.327 6.516-4.284-1.973-1.651-5.113-4.271-8.758-7.311z"/>
  <path id="path7282" style="stroke-opacity:.36486;stroke:#fff;stroke-width:1px;fill:none" d="m27.886 33.001l-8.269 4.92m20.788-17.931l-6.143 7.395"/>
  <path id="path7904" style="stroke:url(#linearGradient8165);fill:url(#linearGradient8147)" d="m19.549 25.077v2.439h-6.773c-0.675 0-1.219 0.542-1.219 1.215v3.554c0 0.673 0.544 1.215 1.219 1.215h6.773v2.555l7.008-5.688-7.008-5.29z"/>
  <path id="path7906" style="stroke:#fff;stroke-opacity:.31532;fill:none" d="m20.616 27.241v1.286h-7.53c-0.675 0-0.528 0.541-0.528 1.214v1.564c0 0.673-0.101 1.215 0.574 1.215h7.484v1.373l4.309-3.5-4.309-3.152z"/>
 </g>
</svg>
