<?xml version="1.0" encoding="UTF-8" standalone="no"?>
<!-- Created with Inkscape (http://www.inkscape.org/) -->
<svg id="svg5615" xmlns:rdf="http://www.w3.org/1999/02/22-rdf-syntax-ns#" xmlns="http://www.w3.org/2000/svg" height="48" width="48" version="1.0" xmlns:cc="http://web.resource.org/cc/" xmlns:xlink="http://www.w3.org/1999/xlink" xmlns:dc="http://purl.org/dc/elements/1.1/">
 <defs id="defs5617">
  <filter id="filter6052" height="2.4148" width="1.283" y="-.70742" x="-.14148">
   <feGaussianBlur id="feGaussianBlur6054" stdDeviation="1.1790392"/>
  </filter>
  <radialGradient id="radialGradient8509" gradientUnits="userSpaceOnUse" cy="7.2211" cx="36.62" r="5.1706">
   <stop id="stop6345" style="stop-color:#fce94f" offset="0"/>
   <stop id="stop6347" style="stop-color:#fce94f;stop-opacity:0" offset="1"/>
  </radialGradient>
  <linearGradient id="linearGradient8511" y2="11.671" gradientUnits="userSpaceOnUse" x2="18.193" gradientTransform="matrix(.58258 0 0 .58258 10.05 10.705)" y1="37.921" x1="36.211">
   <stop id="stop8148" style="stop-color:#ebebe8" offset="0"/>
   <stop id="stop8150" style="stop-color:#fbfbfb" offset="1"/>
  </linearGradient>
  <radialGradient id="radialGradient8513" gradientUnits="userSpaceOnUse" cy="24.538" cx="23.946" r="21.456">
   <stop id="stop6567" offset="0"/>
   <stop id="stop6569" style="stop-opacity:0" offset="1"/>
  </radialGradient>
  <linearGradient id="linearGradient8515" y2="3.7493" gradientUnits="userSpaceOnUse" x2="18.562" gradientTransform="matrix(1.3854 0 0 1.5817 12.641 .28345)" y1="4.5279" x1="17.688">
   <stop id="stop6078" style="stop-color:#fff" offset="0"/>
   <stop id="stop6080" style="stop-color:#cbcbcb" offset="1"/>
  </linearGradient>
  <linearGradient id="linearGradient8517" y2="2.9424" gradientUnits="userSpaceOnUse" x2="14.121" gradientTransform="matrix(1.0283 0 0 1.1843 19.561 2.069)" y1="6.5594" x1="18.977">
   <stop id="stop4921" style="stop-color:#888a85" offset="0"/>
   <stop id="stop4923" style="stop-color:#888a85;stop-opacity:0" offset="1"/>
  </linearGradient>
  <linearGradient id="linearGradient8519" y2="7.8356" gradientUnits="userSpaceOnUse" x2="16.552" gradientTransform="matrix(.98039 0 0 1.033 21.294 3.3039)" y1="-.56234" x1="16.552">
   <stop id="stop6110" offset="0"/>
   <stop id="stop6112" style="stop-opacity:0" offset="1"/>
  </linearGradient>
  <linearGradient id="linearGradient8521" y2="20.088" gradientUnits="userSpaceOnUse" x2="17.17" gradientTransform="matrix(2.1618 0 0 2.0501 -2.8163 .42481)" y1="-13.379" x1="-1.3577">
   <stop id="stop7946" style="stop-color:#dededa" offset="0"/>
   <stop id="stop7948" style="stop-color:#fff" offset="1"/>
  </linearGradient>
 </defs>
 <metadata id="metadata5620">
  <rdf:RDF>
   <cc:Work rdf:about="">
    <dc:format>image/svg+xml</dc:format>
    <dc:type rdf:resource="http://purl.org/dc/dcmitype/StillImage"/>
    <dc:title>New ISO image for Brasero</dc:title>
    <dc:date>13.4.2007</dc:date>
    <dc:creator>
     <cc:Agent>
      <dc:title>Josef Vybíral</dc:title>
     </cc:Agent>
    </dc:creator>
    <dc:coverage>ISO, image, CD</dc:coverage>
    <cc:license rdf:resource="http://creativecommons.org/licenses/GPL/2.0/"/>
   </cc:Work>
   <cc:License rdf:about="http://creativecommons.org/licenses/GPL/2.0/">
    <cc:permits rdf:resource="http://web.resource.org/cc/Reproduction"/>
    <cc:permits rdf:resource="http://web.resource.org/cc/Distribution"/>
    <cc:requires rdf:resource="http://web.resource.org/cc/Notice"/>
    <cc:permits rdf:resource="http://web.resource.org/cc/DerivativeWorks"/>
    <cc:requires rdf:resource="http://web.resource.org/cc/ShareAlike"/>
    <cc:requires rdf:resource="http://web.resource.org/cc/SourceCode"/>
   </cc:License>
  </rdf:RDF>
 </metadata>
 <g id="layer1">
  <rect id="rect8152" ry="1.263" style="opacity:.27074;fill-rule:evenodd;color:#000000;filter:url(#filter6052)" rx=".90837" transform="matrix(1.8 0 0 1.2946 -39 -13.257)" height="4" width="20" y="41" x="25"/>
  <path id="path8154" style="stroke-width:1px;fill-rule:evenodd;color:#000000;stroke:#888a85;fill:url(#linearGradient8521)" d="m9.0317 3.5h26.901l5.567 5.2564v33.394c0 1.857-0.574 2.352-2.532 2.352h-29.936c-1.9585 0-2.532-0.495-2.532-2.352v-36.298c0-1.857 0.5735-2.352 2.5317-2.352z"/>
  <path id="path8156" style="color:#000000;stroke:#fff;fill:none" d="m9.8521 4.5h25.466l5.182 4.9198-0.077 32.607c0 1.962 0.034 1.473-2.065 1.473h-28.875c-2.0986 0-1.983-0.544-1.983-2.507v-34.646c0-1.963 0.2532-1.847 2.3521-1.847z"/>
  <path id="path8158" style="fill:url(#linearGradient8519);fill-rule:evenodd" d="m36 6l4.982 3.9852 0.018 1.0148h-4.964l-0.036-5z"/>
  <path id="path8160" style="fill-rule:evenodd;stroke:url(#linearGradient8517);stroke-width:1px;fill:url(#linearGradient8515)" d="m41.5 9.7668c-1.09-1.4404-4.903-0.7529-5.962 0l-0.038-6.2668"/>
  <path id="path8162" style="opacity:.38865;fill-rule:evenodd;color:#000000;fill:url(#radialGradient8513)" d="m45.402 24.538a21.456 21.456 0 1 1 -42.913 0 21.456 21.456 0 1 1 42.913 0z" transform="matrix(.59084 0 0 .26099 9.6841 26.595)"/>
  <path id="path8164" style="stroke-width:1px;fill-rule:evenodd;color:#000000;stroke:#888a85;stroke-linecap:round;fill:url(#linearGradient8511)" d="m24 12.5c-6.9 0-12.5 5.6-12.5 12.5s5.6 12.5 12.5 12.5 12.5-5.6 12.5-12.5-5.6-12.5-12.5-12.5zm0 9.007c1.928 0 3.493 1.565 3.493 3.493s-1.565 3.493-3.493 3.493-3.493-1.565-3.493-3.493 1.565-3.493 3.493-3.493z"/>
  <path id="path8166" style="fill-opacity:.10811;color:#000000;fill-rule:evenodd" d="m24 18c-3.864 0-7 3.136-7 7s3.136 7 7 7 7-3.136 7-7-3.136-7-7-7zm0 2.712c2.358 0 4.288 1.93 4.288 4.288s-1.93 4.287-4.288 4.287-4.288-1.929-4.288-4.287 1.93-4.288 4.288-4.288z"/>
  <path id="path8168" style="stroke-width:1.8658px;stroke-opacity:.79730;color:#000000;stroke:#fff;stroke-linecap:round;fill:none" d="m45.402 24.538a21.456 21.456 0 1 1 -42.913 0 21.456 21.456 0 1 1 42.913 0z" transform="matrix(.53597 0 0 .53597 11.166 11.848)"/>
  <path id="path8170" style="stroke-width:4.7681px;stroke-opacity:.42342;color:#000000;stroke:#fff;stroke-linecap:round;fill:none" d="m45.402 24.538a21.456 21.456 0 1 1 -42.913 0 21.456 21.456 0 1 1 42.913 0z" transform="matrix(.20973 0 0 .20973 18.978 19.854)"/>
  <path id="path8172" style="fill-opacity:.28829;fill:#fff;fill-rule:evenodd" d="m35.787 21.971c-0.651-2.136-1.965-4.073-3.619-5.493-1.219 1.454-2.699 3.457-5.019 6.175 0.379 0.308 0.671 0.718 0.81 1.199l7.828-1.881zm-13.819 6.052c-0.304-0.274-0.541-0.617-0.676-1.013l-7.776 1.983c0.675 2.045 1.908 3.834 3.513 5.2 1.354-1.575 2.445-3.261 4.939-6.17z"/>
  <path id="path8174" style="fill-opacity:.081081;fill-rule:evenodd" d="m20.87 13.719c-2.339 0.692-4.397 2.014-5.951 3.774 1.591 1.296 3.573 2.322 6.548 4.791 0.337-0.404 0.786-0.714 1.312-0.863l-1.909-7.702zm5.903 13.979c-0.301 0.323-0.675 0.576-1.109 0.719l2.893 8.863c2.239-0.719 4.197-2.031 5.692-3.738-1.724-1.441-4.292-3.191-7.476-5.844z"/>
  <path id="path8176" d="m20.983 27.938l-6.444 3.772m17.248-14.853l-4.707 5.37" style="stroke-opacity:.36486;stroke:#fff;stroke-width:1px;fill:none"/>
  <g id="g8178" transform="matrix(1.3022 0 0 1.4 14.351 1)">
   <path id="path8180" style="fill-rule:evenodd;color:#000000;fill:url(#radialGradient8509)" d="m41.79 7.2211a5.1706 5.1706 0 1 1 -10.341 0 5.1706 5.1706 0 1 1 10.341 0z" transform="matrix(.96701 0 0 .96701 -18.411 -1.9829)"/>
   <path id="path8182" style="stroke-linejoin:round;stroke-width:.85018;fill-rule:evenodd;color:#000000;stroke:#edd400;stroke-linecap:square;fill:#fff" transform="matrix(.90935 0 0 .83454 -13.955 1.6726)" d="m34.558 8.221l-1.369-2.7743-3.062-0.4448 2.216-2.1595-0.523-3.0492 2.738 1.4396 2.738-1.4396-0.523 3.0492 2.216 2.1595-3.062 0.4448-1.369 2.7743z"/>
  </g>
 </g>
</svg>
