<?xml version="1.0" encoding="UTF-8" standalone="no"?>
<!-- Created with Inkscape (http://www.inkscape.org/) -->
<svg id="svg5615" xmlns:rdf="http://www.w3.org/1999/02/22-rdf-syntax-ns#" xmlns="http://www.w3.org/2000/svg" height="48" width="48" version="1.0" xmlns:cc="http://web.resource.org/cc/" xmlns:xlink="http://www.w3.org/1999/xlink" xmlns:dc="http://purl.org/dc/elements/1.1/">
 <defs id="defs5617">
  <radialGradient id="radialGradient6710" gradientUnits="userSpaceOnUse" cy="24.538" cx="23.946" r="21.456">
   <stop id="stop6567" offset="0"/>
   <stop id="stop6569" style="stop-opacity:0" offset="1"/>
  </radialGradient>
  <linearGradient id="linearGradient6712" y2="22.667" gradientUnits="userSpaceOnUse" x2="9.2953" gradientTransform="matrix(1.002 0 0 1.002 .00563 -.58818)" y1="11.968" x1="9.2953">
   <stop id="stop5914" style="stop-color:#ebebe8;stop-opacity:0" offset="0"/>
   <stop id="stop5916" style="stop-color:#eeeeec" offset="1"/>
  </linearGradient>
  <linearGradient id="linearGradient6226" y2="9.0582" gradientUnits="userSpaceOnUse" x2="13.03" gradientTransform="matrix(1.002 0 0 1.002 .00563 -.58818)" y1="36.959" x1="13.03">
   <stop id="stop6222" style="stop-color:#888a85" offset="0"/>
   <stop id="stop6224" style="stop-color:#888a85;stop-opacity:0" offset="1"/>
  </linearGradient>
  <linearGradient id="linearGradient6234" y2="11.818" gradientUnits="userSpaceOnUse" x2="25.328" y1="26.813" x1="23.946">
   <stop id="stop6230" style="stop-color:#fff" offset="0"/>
   <stop id="stop6232" style="stop-color:#fff;stop-opacity:0" offset="1"/>
  </linearGradient>
  <linearGradient id="linearGradient6258" y2="13.505" gradientUnits="userSpaceOnUse" x2="36.975" y1="22.376" x1="36.975">
   <stop id="stop6254" style="stop-color:#fff" offset="0"/>
   <stop id="stop6256" style="stop-color:#fff;stop-opacity:0" offset="1"/>
  </linearGradient>
  <linearGradient id="linearGradient6268" y2="-4.4329" gradientUnits="userSpaceOnUse" x2="23.801" y1="30.934" x1="23.801">
   <stop id="stop6264" style="stop-color:#888a85" offset="0"/>
   <stop id="stop6266" style="stop-color:#888a85;stop-opacity:0" offset="1"/>
  </linearGradient>
 </defs>
 <metadata id="metadata5620">
  <rdf:RDF>
   <cc:Work rdf:about="">
    <dc:format>image/svg+xml</dc:format>
    <dc:type rdf:resource="http://purl.org/dc/dcmitype/StillImage"/>
   </cc:Work>
  </rdf:RDF>
 </metadata>
 <g id="layer1">
  <path id="path6680" style="opacity:.38865;fill-rule:evenodd;color:#000000;fill:url(#radialGradient6710)" d="m45.402 24.538a21.456 21.456 0 1 1 -42.913 0 21.456 21.456 0 1 1 42.913 0z" transform="matrix(1.0253 0 0 .46606 -.55238 26.564)"/>
  <path id="path6682" style="stroke-width:1px;fill-rule:evenodd;color:#000000;stroke:url(#linearGradient6226);stroke-linecap:round;fill:url(#linearGradient6712)" d="m24 2.5c-11.868 0-21.5 9.632-21.5 21.5s9.632 21.5 21.5 21.5 21.5-9.632 21.5-21.5-9.632-21.5-21.5-21.5zm0 17c2.484 0 4.5 2.016 4.5 4.5s-2.016 4.5-4.5 4.5-4.5-2.016-4.5-4.5 2.016-4.5 4.5-4.5z"/>
  <path id="path6684" style="fill-rule:evenodd;color:#000000;fill-opacity:.10811" d="m24 15c-4.968 0-9 4.032-9 9s4.032 9 9 9 9-4.032 9-9-4.032-9-9-9zm0 3.844c2.847 0 5.156 2.309 5.156 5.156s-2.309 5.156-5.156 5.156-5.156-2.309-5.156-5.156 2.309-5.156 5.156-5.156z"/>
  <path id="path6686" style="stroke-width:1.0467px;stroke-opacity:.56757;color:#000000;stroke:url(#linearGradient6234);stroke-linecap:round;fill:none" d="m45.402 24.538a21.456 21.456 0 1 1 -42.913 0 21.456 21.456 0 1 1 42.913 0z" transform="matrix(.95542 0 0 .95542 1.1216 .55546)"/>
  <path id="path6688" style="stroke-width:3.8111px;stroke-opacity:.42342;color:#000000;stroke:#fff;stroke-linecap:round;fill:none" d="m45.402 24.538a21.456 21.456 0 1 1 -42.913 0 21.456 21.456 0 1 1 42.913 0z" transform="matrix(.26239 0 0 .26239 17.717 17.561)"/>
  <path id="path6690" style="stroke-width:4.7681px;color:#000000;stroke:url(#linearGradient6268);stroke-linecap:round;fill:none" d="m45.402 24.538a21.456 21.456 0 1 1 -42.913 0 21.456 21.456 0 1 1 42.913 0z" transform="matrix(.20973 0 0 .20973 18.978 18.854)"/>
  <path id="path6250" style="opacity:.5;fill:url(#linearGradient6258);fill-rule:evenodd" d="m44.066 18c-1.172-3.848-3.537-7.337-6.516-9.8936-2.193 2.6186-5.988 7.3006-10.166 12.197 0.682 0.555 1.208 1.293 1.46 2.16l15.222-4.463z"/>
  <path id="path6692" style="fill-opacity:.28829;fill:#fff;fill-rule:evenodd" d="m20.713 27.757c-0.546-0.495-0.974-1.112-1.216-1.825l-15.527 4.716c1.2165 3.684 3.4366 6.907 6.326 9.368 2.438-2.837 5.928-7.019 10.417-12.259z"/>
  <path id="path6694" style="fill-opacity:.040541;fill-rule:evenodd" d="m27.221 26.923c-0.495 0.546-1.111 0.974-1.824 1.216l5.048 15.906c3.684-1.216 6.907-3.436 9.367-6.326-2.836-2.438-7.351-6.308-12.591-10.796z"/>
  <path id="path6696" d="m19.087 27.974l-12.042 7.162m30.273-26.1l-8.947 10.763" style="stroke-opacity:.36486;stroke:#fff;stroke-width:1px;fill:none"/>
 </g>
</svg>
