<?xml version="1.0" encoding="UTF-8" standalone="no"?>
<!-- Created with Inkscape (http://www.inkscape.org/) -->
<svg id="svg5615" xmlns:rdf="http://www.w3.org/1999/02/22-rdf-syntax-ns#" xmlns="http://www.w3.org/2000/svg" height="48" width="48" version="1.0" xmlns:cc="http://web.resource.org/cc/" xmlns:xlink="http://www.w3.org/1999/xlink" xmlns:dc="http://purl.org/dc/elements/1.1/">
 <defs id="defs5617">
  <radialGradient id="radialGradient1982" xlink:href="#linearGradient269" gradientUnits="userSpaceOnUse" cy="3.7561" cx="8.8244" gradientTransform="matrix(.58305 0 0 .63072 23.543 18.677)" r="37.752"/>
  <radialGradient id="radialGradient1980" gradientUnits="userSpaceOnUse" cy="38.77" cx="28.735" gradientTransform="matrix(.57836 0 0 .63583 21.524 18.283)" r="86.708">
   <stop id="stop5976" style="stop-color:#fff" offset="0"/>
   <stop id="stop5978" style="stop-color:#c6c6c6" offset="1"/>
  </radialGradient>
  <radialGradient id="radialGradient1977" gradientUnits="userSpaceOnUse" cy="7.2679" cx="8.1436" gradientTransform="matrix(.56130 0 0 .60991 24 19.175)" r="38.159">
   <stop id="stop15664" style="stop-color:#fff" offset="0"/>
   <stop id="stop15666" style="stop-color:#f8f8f8" offset="1"/>
  </radialGradient>
  <radialGradient id="radialGradient1974" gradientUnits="userSpaceOnUse" cy="12.989" cx="37.03" gradientTransform="matrix(1.0737 0 0 .79037 4.8314 16.194)" r="4.2929">
   <stop id="stop4792" offset="0"/>
   <stop id="stop4794" style="stop-opacity:0" offset="1"/>
  </radialGradient>
  <radialGradient id="radialGradient1971" xlink:href="#linearGradient269" gradientUnits="userSpaceOnUse" cy="2.3667" cx="31.863" gradientTransform="matrix(.20431 0 0 .21854 33.378 24.174)" r="37.752"/>
  <radialGradient id="radialGradient1969" gradientUnits="userSpaceOnUse" cy="14.937" cx="30.654" gradientTransform="matrix(.091370 .0062328 -.0068021 .10028 36.43 26.171)" r="86.708">
   <stop id="stop260" style="stop-color:#fafafa" offset="0"/>
   <stop id="stop261" style="stop-color:#bbb" offset="1"/>
  </radialGradient>
  <linearGradient id="linearGradient1966" y2="38.07" gradientUnits="userSpaceOnUse" x2="34.17" gradientTransform="matrix(-.017790 -.52999 .54243 -.017382 23.226 42.737)" y1="36.921" x1="33.396">
   <stop id="stop2253" style="stop-color:#fff" offset="0"/>
   <stop id="stop2255" style="stop-color:#fff;stop-opacity:0" offset="1"/>
  </linearGradient>
  <radialGradient id="radialGradient6710" gradientUnits="userSpaceOnUse" cy="24.538" cx="23.946" r="21.456">
   <stop id="stop6567" offset="0"/>
   <stop id="stop6569" style="stop-opacity:0" offset="1"/>
  </radialGradient>
  <linearGradient id="linearGradient6712" y2="33.642" gradientUnits="userSpaceOnUse" x2="13.387" gradientTransform="matrix(1.002 0 0 1.002 .00563 -.58818)" y1="5.6607" x1="9.2953">
   <stop id="stop5914" style="stop-color:#ebebe8" offset="0"/>
   <stop id="stop5916" style="stop-color:#eeeeec" offset="1"/>
  </linearGradient>
  <radialGradient id="radialGradient6349" gradientUnits="userSpaceOnUse" cy="7.2211" cx="36.62" r="5.1706">
   <stop id="stop6345" style="stop-color:#fce94f" offset="0"/>
   <stop id="stop6347" style="stop-color:#fce94f;stop-opacity:0" offset="1"/>
  </radialGradient>
  <linearGradient id="linearGradient269">
   <stop id="stop270" style="stop-color:#a3a3a3" offset="0"/>
   <stop id="stop271" style="stop-color:#8a8a8a" offset="1"/>
  </linearGradient>
  <linearGradient id="linearGradient3688">
   <stop id="stop3690" offset="0"/>
   <stop id="stop3692" style="stop-opacity:0" offset="1"/>
  </linearGradient>
  <radialGradient id="radialGradient7822" xlink:href="#linearGradient3688" gradientUnits="userSpaceOnUse" cy="43.5" cx="4.993" gradientTransform="matrix(2.0038 0 0 1.4 27.988 -17.4)" r="2.5"/>
  <radialGradient id="radialGradient7824" xlink:href="#linearGradient3688" gradientUnits="userSpaceOnUse" cy="43.5" cx="4.993" gradientTransform="matrix(2.0038 0 0 1.4 -20.012 -104.4)" r="2.5"/>
  <linearGradient id="linearGradient7826" y2="39.999" gradientUnits="userSpaceOnUse" x2="25.058" y1="47.028" x1="25.058">
   <stop id="stop3704" style="stop-opacity:0" offset="0"/>
   <stop id="stop3710" offset=".5"/>
   <stop id="stop3706" style="stop-opacity:0" offset="1"/>
  </linearGradient>
 </defs>
 <metadata id="metadata5620">
  <rdf:RDF>
   <cc:Work rdf:about="">
    <dc:format>image/svg+xml</dc:format>
    <dc:type rdf:resource="http://purl.org/dc/dcmitype/StillImage"/>
   </cc:Work>
  </rdf:RDF>
 </metadata>
 <g id="layer1">
  <path id="path6680" style="opacity:.38865;fill-rule:evenodd;color:#000000;fill:url(#radialGradient6710)" d="m45.402 24.538a21.456 21.456 0 1 1 -42.913 0 21.456 21.456 0 1 1 42.913 0z" transform="matrix(1.0253 0 0 .46606 -.55238 26.564)"/>
  <path id="path6682" style="stroke-width:1px;fill-rule:evenodd;color:#000000;stroke:#888a85;stroke-linecap:round;fill:url(#linearGradient6712)" d="m24 2.5c-11.868 0-21.5 9.632-21.5 21.5s9.632 21.5 21.5 21.5 21.5-9.632 21.5-21.5-9.632-21.5-21.5-21.5zm0 17c2.484 0 4.5 2.016 4.5 4.5s-2.016 4.5-4.5 4.5-4.5-2.016-4.5-4.5 2.016-4.5 4.5-4.5z"/>
  <path id="path6684" style="fill-rule:evenodd;color:#000000;fill-opacity:.10811" d="m24 15c-4.968 0-9 4.032-9 9s4.032 9 9 9 9-4.032 9-9-4.032-9-9-9zm0 3.938c2.799 0 5.062 2.263 5.062 5.062s-2.263 5.062-5.062 5.062c-2.799 0.001-5.062-2.263-5.062-5.062s2.263-5.062 5.062-5.062z"/>
  <path id="path6686" style="stroke-width:1.0467px;stroke-opacity:.56757;color:#000000;stroke:#fff;stroke-linecap:round;fill:none" d="m45.402 24.538a21.456 21.456 0 1 1 -42.913 0 21.456 21.456 0 1 1 42.913 0z" transform="matrix(.95542 0 0 .95542 1.1216 .55546)"/>
  <path id="path6688" style="stroke-width:3.9012px;stroke-opacity:.42342;color:#000000;stroke:#fff;stroke-linecap:round;fill:none" d="m45.402 24.538a21.456 21.456 0 1 1 -42.913 0 21.456 21.456 0 1 1 42.913 0z" transform="matrix(.25633 0 0 .25633 17.862 17.71)"/>
  <path id="path6692" style="fill-opacity:.28829;fill:#fff;fill-rule:evenodd" d="m44.066 18c-1.172-3.848-3.537-7.337-6.516-9.8936-2.193 2.6186-5.988 7.3006-10.166 12.197 0.682 0.555 1.208 1.293 1.46 2.16l15.222-4.463zm-23.353 9.757c-0.546-0.495-0.974-1.112-1.216-1.825l-15.527 4.716c1.2165 3.684 3.4366 6.907 6.326 9.368 2.438-2.837 5.928-7.019 10.417-12.259z"/>
  <path id="path6694" style="fill-opacity:.040541;fill-rule:evenodd" d="m17.793 4.1733c-3.848 1.172-7.236 3.4084-9.793 6.3867 2.618 2.194 7.725 6.527 12.622 10.706 0.554-0.683 1.293-1.208 2.159-1.46l-4.988-15.633zm9.428 22.75c-0.495 0.546-1.111 0.974-1.824 1.216l5.048 15.906c3.684-1.216 6.907-3.436 9.367-6.326-2.836-2.438-7.351-6.308-12.591-10.796z"/>
  <path id="path6696" d="m19.087 27.974l-12.042 7.162m30.273-26.1l-8.947 10.763" style="stroke-opacity:.36486;stroke:#fff;stroke-width:1px;fill:none"/>
  <path id="path6341" style="fill-rule:evenodd;color:#000000;fill:url(#radialGradient6349)" d="m41.79 7.2211a5.1706 5.1706 0 1 1 -10.341 0 5.1706 5.1706 0 1 1 10.341 0z" transform="matrix(1.4505 0 0 1.4505 -17.617 -1.9743)"/>
  <path id="path5368" style="stroke-linejoin:round;stroke-width:.90962;fill-rule:evenodd;color:#000000;stroke:#fce94f;stroke-linecap:square;fill:#fff" transform="matrix(1.1318 0 0 1.0679 -3.626 4.7209)" d="m34.558 8.221l-1.369-2.7743-3.062-0.4448 2.216-2.1595-0.523-3.0492 2.738 1.4396 2.738-1.4396-0.523 3.0492 2.216 2.1595-3.062 0.4448-1.369 2.7743z"/>
  <g id="g3712" style="opacity:.4" transform="matrix(.63161 0 0 .65960 20.802 15.96)">
   <rect id="rect2801" style="opacity:1;fill:url(#radialGradient7822)" height="7" width="5" y="40" x="38"/>
   <rect id="rect3696" style="opacity:1;fill:url(#radialGradient7824)" transform="scale(-1)" height="7" width="5" y="-47" x="-10"/>
   <rect id="rect3700" style="opacity:1;fill:url(#linearGradient7826)" height="7" width="28" y="40" x="10"/>
  </g>
  <path id="rect15391" style="stroke-linejoin:round;color:#000000;stroke:url(#radialGradient1982);stroke-linecap:round;display:block;fill:url(#radialGradient1980)" d="m26.192 20.51l14.119-0.01s6.189 5.828 6.189 6.217v18.081c0 0.389-0.309 0.702-0.692 0.702h-19.616c-0.383 0-0.692-0.313-0.692-0.702v-23.587c0-0.388 0.309-0.701 0.692-0.701z"/>
  <path id="rect15660" style="stroke-linejoin:round;color:#000000;stroke:url(#radialGradient1977);stroke-linecap:round;display:block;fill:none" d="m26.586 21.5h14.421s4.493 4.737 4.493 4.786v18.126c0 0.049-0.039 0.088-0.086 0.088h-18.828c-0.047 0-0.086-0.039-0.086-0.088v-22.824c0-0.049 0.039-0.088 0.086-0.088z"/>
  <path id="path5348" style="opacity:.35714;color:#000000;fill-rule:evenodd;fill:url(#radialGradient1974)" d="m46.414 26.868c-0.448-0.829-3.756-2.296-5.478-2.788 0.105 0.968-0.075 3.889-0.075 3.889 1.269-0.846 5.072-1.2 5.553-1.101z"/>
  <rect id="rect7828" style="fill-rule:evenodd;color:#000000;fill:#888a85" height="1" width="12" y="25" x="32"/>
  <path id="path2210" style="stroke-linejoin:round;color:#000000;stroke:url(#radialGradient1971);display:block;fill:url(#radialGradient1969)" d="m46.5 26.741c0.008-0.874-3.912-6.304-6.304-6.24 0.6 0.143 1.078 3.809 0.222 5.546 1.694 0 5.488-0.454 6.082 0.694z"/>
  <path id="path2247" style="color:#000000;stroke:url(#linearGradient1966);fill:none" d="m44.843 24.986c-0.395-0.714-2.257-2.688-3.3-3.344 0.129 0.756 0.291 1.952-0.043 3.311 0 0 2.919-0.053 3.343 0.033z"/>
  <rect id="rect7830" style="fill-rule:evenodd;color:#000000;fill:#888a85" height="1" width="16" y="28" x="28"/>
  <rect id="rect7832" style="fill-rule:evenodd;color:#000000;fill:#888a85" height="1" width="16" y="31" x="28"/>
  <rect id="rect7834" style="fill-rule:evenodd;color:#000000;fill:#888a85" height="1" width="16" y="34" x="28"/>
  <rect id="rect7836" style="fill-rule:evenodd;color:#000000;fill:#888a85" height="1" width="16" y="37" x="28"/>
  <rect id="rect7838" style="fill-rule:evenodd;color:#000000;fill:#888a85" height="1" width="14" y="40" x="28"/>
 </g>
</svg>
