<?xml version="1.0" encoding="UTF-8" standalone="no"?>
<!-- Created with Inkscape (http://www.inkscape.org/) -->
<svg id="svg5615" xmlns:rdf="http://www.w3.org/1999/02/22-rdf-syntax-ns#" xmlns="http://www.w3.org/2000/svg" height="48" width="48" version="1.0" xmlns:cc="http://web.resource.org/cc/" xmlns:xlink="http://www.w3.org/1999/xlink" xmlns:dc="http://purl.org/dc/elements/1.1/">
 <defs id="defs5617">
  <radialGradient id="radialGradient6710" gradientUnits="userSpaceOnUse" cy="24.538" cx="23.946" r="21.456">
   <stop id="stop6567" offset="0"/>
   <stop id="stop6569" style="stop-opacity:0" offset="1"/>
  </radialGradient>
  <linearGradient id="linearGradient6712" y2="33.642" gradientUnits="userSpaceOnUse" x2="13.387" y1="5.6607" x1="9.2953">
   <stop id="stop5914" style="stop-color:#ebebe8" offset="0"/>
   <stop id="stop5916" style="stop-color:#eeeeec" offset="1"/>
  </linearGradient>
 </defs>
 <metadata id="metadata5620">
  <rdf:RDF>
   <cc:Work rdf:about="">
    <dc:format>image/svg+xml</dc:format>
    <dc:type rdf:resource="http://purl.org/dc/dcmitype/StillImage"/>
   </cc:Work>
  </rdf:RDF>
 </metadata>
 <g id="layer1">
  <g id="g4932">
   <path id="path6680" style="opacity:.38865;fill-rule:evenodd;color:#000000;fill:url(#radialGradient6710)" d="m45.402 24.538a21.456 21.456 0 1 1 -42.913 0 21.456 21.456 0 1 1 42.913 0z" transform="matrix(.95542 0 0 .41945 -.37836 25.707)"/>
   <path id="path6682" style="stroke-width:1.0728px;fill-rule:evenodd;color:#000000;stroke:#888a85;stroke-linecap:round;fill:url(#linearGradient6712)" d="m45.402 24.538a21.456 21.456 0 1 1 -42.913 0 21.456 21.456 0 1 1 42.913 0z" transform="matrix(.93212 0 0 .93212 .17965 -.37272)"/>
   <path id="path6684" style="fill-rule:evenodd;color:#000000;fill-opacity:.10811" d="m45.402 24.538a21.456 21.456 0 1 1 -42.913 0 21.456 21.456 0 1 1 42.913 0z" transform="matrix(.39176 0 0 .39615 13.024 12.779)"/>
   <path id="path6686" style="stroke-width:1.1282px;stroke-opacity:.56757;color:#000000;stroke:#fff;stroke-linecap:round;fill:none" d="m45.402 24.538a21.456 21.456 0 1 1 -42.913 0 21.456 21.456 0 1 1 42.913 0z" transform="matrix(.88724 0 0 .88551 1.2172 .77091)"/>
   <path id="path6688" style="stroke-width:4.3734px;stroke-opacity:.42342;color:#000000;stroke:#fff;stroke-linecap:round;fill:none" d="m45.402 24.538a21.456 21.456 0 1 1 -42.913 0 21.456 21.456 0 1 1 42.913 0z" transform="matrix(.22865 0 0 .22867 16.93 16.795)"/>
   <path id="path6690" style="stroke-width:5.4929px;fill-rule:evenodd;color:#000000;stroke:#888a85;stroke-linecap:round;fill:#fff" d="m45.402 24.538a21.456 21.456 0 1 1 -42.913 0 21.456 21.456 0 1 1 42.913 0z" transform="matrix(.18205 0 0 .18206 18.046 17.939)"/>
   <path id="path6692" style="fill-opacity:.28829;fill:#fff;fill-rule:evenodd" d="m40.982 16.852c-1.085-3.564-3.275-6.794-6.032-9.1612-2.031 2.4242-5.544 6.7592-9.412 11.293 0.631 0.513 1.118 1.197 1.351 1.999l14.093-4.131zm-21.62 9.033c-0.506-0.459-0.902-1.03-1.126-1.69l-14.375 4.367c1.1262 3.411 3.1816 6.394 5.8568 8.673 2.2572-2.626 5.4882-6.499 9.6442-11.35z"/>
   <path id="path6694" style="fill-opacity:.040541;fill-rule:evenodd" d="m16.658 4.0493c-3.563 1.0851-6.6991 3.1557-9.0661 5.9134 2.4241 2.0313 7.1521 6.0433 11.685 9.9123 0.514-0.632 1.197-1.119 1.999-1.352l-4.618-14.474zm8.729 21.063c-0.458 0.506-1.029 0.903-1.689 1.127l4.674 14.727c3.41-1.126 6.394-3.182 8.672-5.857-2.626-2.257-6.806-5.841-11.657-9.997z"/>
   <path id="path6696" style="stroke-opacity:.36486;stroke:#fff;stroke-width:1px;fill:none" d="m17.856 26.086l-11.149 6.631m28.027-24.166l-8.283 9.9655"/>
  </g>
  <use id="use4943" xlink:href="#g4932" transform="translate(4,2)" height="48" width="48" y="0" x="0"/>
 </g>
</svg>
