<?xml version="1.0" encoding="UTF-8" standalone="no"?>
<!-- Created with Inkscape (http://www.inkscape.org/) -->
<svg id="svg3879" xmlns:rdf="http://www.w3.org/1999/02/22-rdf-syntax-ns#" xmlns="http://www.w3.org/2000/svg" height="16" width="16" version="1.0" xmlns:cc="http://creativecommons.org/ns#" xmlns:xlink="http://www.w3.org/1999/xlink" xmlns:dc="http://purl.org/dc/elements/1.1/">
 <defs id="defs3881">
  <linearGradient id="linearGradient3617">
   <stop id="stop3619" style="stop-color:#2e3436" offset="0"/>
   <stop id="stop3621" style="stop-color:#0b0c0d" offset="1"/>
  </linearGradient>
  <linearGradient id="linearGradient5655-9">
   <stop id="stop5657-5" style="stop-color:#2e3436" offset="0"/>
   <stop id="stop5659-1" style="stop-color:#707e83;stop-opacity:0" offset="1"/>
  </linearGradient>
  <linearGradient id="linearGradient5853">
   <stop id="stop5855" style="stop-color:#888a85" offset="0"/>
   <stop id="stop5857" style="stop-color:#555753" offset="1"/>
  </linearGradient>
  <linearGradient id="linearGradient9226" y2="282.32" gradientUnits="userSpaceOnUse" x2="-101.28" gradientTransform="matrix(.41193 0 0 .41143 57.074 -117.31)" y1="280.92" x1="-106.91">
   <stop id="stop4788" style="stop-color:#555753" offset="0"/>
   <stop id="stop4790" offset="1"/>
  </linearGradient>
  <linearGradient id="linearGradient9228" y2="-282.2" gradientUnits="userSpaceOnUse" x2="-102.95" y1="-282.2" x1="-105.74">
   <stop id="stop4973" style="stop-color:#fff" offset="0"/>
   <stop id="stop4975" style="stop-color:#fff;stop-opacity:0" offset="1"/>
  </linearGradient>
  <linearGradient id="linearGradient9232" y2="-36.569" xlink:href="#linearGradient5853" gradientUnits="userSpaceOnUse" x2="-219.25" gradientTransform="matrix(-.59167 0 0 .43101 -135.57 27.031)" y1="-43.842" x1="-219.25"/>
  <linearGradient id="linearGradient9234" y2="-114.83" xlink:href="#linearGradient5655-9" gradientUnits="userSpaceOnUse" x2="-300.83" gradientTransform="matrix(.49806 0 0 .42665 143.81 60.308)" y1="-126.31" x1="-300.83"/>
  <linearGradient id="linearGradient9246" y2="-36.569" xlink:href="#linearGradient5853" gradientUnits="userSpaceOnUse" x2="-219.25" gradientTransform="matrix(.57921 0 0 .42158 131.71 26.681)" y1="-43.842" x1="-219.25"/>
  <linearGradient id="linearGradient10040" y2="7.3201" xlink:href="#linearGradient3617" gradientUnits="userSpaceOnUse" x2="-15.017" gradientTransform="matrix(1 0 0 .88154 10.01 4.1787)" y1="4.8612" x1="-15.017"/>
  <linearGradient id="linearGradient10046" y2="-114.83" xlink:href="#linearGradient5655-9" gradientUnits="userSpaceOnUse" x2="-300.83" gradientTransform="matrix(.49806 0 0 .42665 144.97 60.336)" y1="-126.31" x1="-300.83"/>
  <linearGradient id="linearGradient10048" y2="7.3201" xlink:href="#linearGradient3617" gradientUnits="userSpaceOnUse" x2="-15.017" gradientTransform="matrix(1 0 0 .88154 11.107 4.2065)" y1="4.8612" x1="-15.017"/>
 </defs>
 <metadata id="metadata3884">
  <rdf:RDF>
   <cc:Work rdf:about="">
    <dc:format>image/svg+xml</dc:format>
    <dc:type rdf:resource="http://purl.org/dc/dcmitype/StillImage"/>
    <dc:title/>
   </cc:Work>
  </rdf:RDF>
 </metadata>
 <g id="layer1" transform="translate(8.5714 -.14286)">
  <path id="path10054" style="stroke:#808080;stroke-width:1px;fill:none" transform="translate(-8.5714 .14286)" d="m1.5468 11.028s-0.4289 2.643 0.9502 3.646c1.3541 0.985 3.646 0.906 3.646 0.906"/>
  <path id="path10030" style="stroke:#808080;stroke-width:1px;fill:none" d="m-7.0658 7.1429v-4c0-1.0628 1.4086-2.4844 2.4888-2.4844l8.0272-0.00002c1.0198 0 2.4962 1.3814 2.4962 2.5234v3.9922"/>
  <rect id="rect9172" style="fill-opacity:0" height="16.375" width="16.375" y="-.31214" x="-8.8864"/>
  <rect id="rect9184" style="stroke-dashoffset:220;stroke:url(#linearGradient9226);stroke-linecap:round;fill:#555753" transform="matrix(0,1,1,0,0,0)" rx="1.0281" ry=".83643" height="4.11" width="2.0562" y="-3.1325" x="13.617"/>
  <path id="path9186" style="opacity:.60811;stroke-dashoffset:220;stroke:url(#linearGradient9228);stroke-linecap:round;stroke-width:5.6998;fill:none" d="m-103.47-286.5c-0.57 0-1.03 0.46-1.03 1.03v5.94c0 0.57 0.46 1.03 1.03 1.03h0.94c0.57 0 1.03-0.46 1.03-1.03v-5.94c0-0.57-0.46-1.03-1.03-1.03h-0.94z" transform="matrix(0 .11901 .25864 0 72.055 27.003)"/>
  <path id="path9190" style="stroke-dashoffset:220;stroke:url(#linearGradient9232);stroke-linecap:round;fill:#fff" d="m-6.053 5.6944c-1.1258 0-2.0319 0.7187-2.0319 1.6116v2.831c0 0.893 0.9061 1.612 2.0319 1.612l0.9553 0.001 0.012-6.0603c-0.722 0.0164-0.2992 0.0046-0.9673 0.0046v0.0001z"/>
  <rect id="rect9192" style="fill:url(#linearGradient9234)" height="5.092" width=".92862" y="6.1249" x="-6.5419"/>
  <path id="path9200" style="fill:#dee1e3" d="m-243.18-24.046a0.8374 1.374 0 1 1 -1.68 0 0.8374 1.374 0 1 1 1.68 0z" transform="matrix(.57970 0 0 .35346 139.38 23.142)"/>
  <rect id="rect9204" style="fill-opacity:0" height="16.375" width="16.375" y="-.31214" x="-8.8864"/>
  <path id="path9208" style="stroke-dashoffset:220;stroke:url(#linearGradient9246);stroke-linecap:round;fill:#fff" d="m4.9144 5.8111c1.102 0 1.9891 0.703 1.9891 1.5764v2.7695c0 0.873-0.8871 1.576-1.9891 1.576l-0.9353 0.001-0.0117-5.9275c0.7068 0.0161 0.2929 0.0045 0.947 0.0045v0.0001z"/>
  <rect id="rect10032" style="fill-rule:evenodd;fill:url(#linearGradient10040)" rx="0" ry="0" height="7.0711" width="1.0165" y="5.1827" x="-5.5883"/>
  <rect id="rect10042" style="fill:url(#linearGradient10046)" transform="scale(-1,1)" height="5.092" width=".92862" y="6.1527" x="-5.3823"/>
  <rect id="rect10044" style="fill-rule:evenodd;fill:url(#linearGradient10048)" transform="scale(-1,1)" rx="0" ry="0" height="7.0711" width="1.0165" y="5.2105" x="-4.4913"/>
  <rect id="rect10050" style="fill-rule:evenodd" rx="1.0054" ry="1.0054" height="2.0108" width="7.977" y=".14457" x="-4.5719"/>
  <rect id="rect10052" style="fill-rule:evenodd;fill:#b2b2b2" rx=".76076" ry=".49718" height=".99437" width="6.0359" y=".15561" x="-3.5885"/>
 </g>
</svg>
