<?xml version="1.0" encoding="UTF-8" standalone="no"?>
<!-- Created with Inkscape (http://www.inkscape.org/) -->
<svg id="svg11142" xmlns:rdf="http://www.w3.org/1999/02/22-rdf-syntax-ns#" xmlns="http://www.w3.org/2000/svg" height="48" width="48" version="1.0" xmlns:cc="http://web.resource.org/cc/" xmlns:xlink="http://www.w3.org/1999/xlink" xmlns:dc="http://purl.org/dc/elements/1.1/">
 <defs id="defs3">
  <linearGradient id="linearGradient11170" y2="23.071" gradientUnits="userSpaceOnUse" y1="23.071" x2="42.471" x1="7.1434">
   <stop id="stop11166" style="stop-color:#eeeeec" offset="0"/>
   <stop id="stop11172" style="stop-color:#c6c6bf" offset=".26989"/>
   <stop id="stop11176" style="stop-color:#f9f9f8" offset="0.379"/>
   <stop id="stop11174" style="stop-color:#c8c8c2" offset=".75"/>
   <stop id="stop11168" style="stop-color:#eeeeec" offset="1"/>
  </linearGradient>
  <radialGradient id="radialGradient11234" cx="24.673" gradientUnits="userSpaceOnUse" cy="17.225" r="18.672" gradientTransform="matrix(1.3643 -9.1154e-17 9.1154e-17 1.3643 -9.4795 -5.618)">
   <stop id="stop11180" style="stop-color:#d1d1cc" offset="0"/>
   <stop id="stop4735" style="stop-color:#d1d1d1" offset=".5"/>
   <stop id="stop11188" style="stop-color:#b9b9b9" offset="1"/>
  </radialGradient>
  <radialGradient id="radialGradient11270" cx="25.786" gradientUnits="userSpaceOnUse" cy="23.071" r="18.214">
   <stop id="stop11266" offset="0"/>
   <stop id="stop11268" style="stop-opacity:0" offset="1"/>
  </radialGradient>
  <linearGradient id="linearGradient4755" y2="8.5883" gradientUnits="userSpaceOnUse" y1="21.978" x2="25.786" x1="25.786">
   <stop id="stop4751" style="stop-color:#fff" offset="0"/>
   <stop id="stop4757" style="stop-color:#fff;stop-opacity:0" offset=".5"/>
   <stop id="stop4753" style="stop-color:#fff" offset="1"/>
  </linearGradient>
 </defs>
 <metadata id="metadata4">
  <rdf:RDF>
   <cc:Work rdf:about="">
    <dc:format>image/svg+xml</dc:format>
    <dc:type rdf:resource="http://purl.org/dc/dcmitype/StillImage"/>
    <dc:title>Shutdown</dc:title>
    <dc:creator>
     <cc:Agent>
      <dc:title>Jakub Steiner</dc:title>
     </cc:Agent>
    </dc:creator>
    <cc:license rdf:resource="http://creativecommons.org/licenses/GPL/2.0/"/>
    <dc:source>http://jimmac.musichall.cz</dc:source>
    <dc:subject>
     <rdf:Bag>
      <rdf:li>lock</rdf:li>
      <rdf:li>key</rdf:li>
      <rdf:li>secure</rdf:li>
     </rdf:Bag>
    </dc:subject>
   </cc:Work>
   <cc:License rdf:about="http://creativecommons.org/licenses/GPL/2.0/">
    <cc:permits rdf:resource="http://web.resource.org/cc/Reproduction"/>
    <cc:permits rdf:resource="http://web.resource.org/cc/Distribution"/>
    <cc:requires rdf:resource="http://web.resource.org/cc/Notice"/>
    <cc:permits rdf:resource="http://web.resource.org/cc/DerivativeWorks"/>
    <cc:requires rdf:resource="http://web.resource.org/cc/ShareAlike"/>
    <cc:requires rdf:resource="http://web.resource.org/cc/SourceCode"/>
   </cc:License>
  </rdf:RDF>
 </metadata>
 <g id="layer1">
  <path id="path11262" style="color:#000000;fill-rule:evenodd;fill:url(#radialGradient11270)" d="m44 23.071a18.214 18.214 0 1 1 -36.429 0 18.214 18.214 0 1 1 36.429 0z" transform="matrix(1.2698 0 0 1.2698 -9.2436 -4.2254)"/>
  <path id="path11152" style="stroke-linejoin:round;fill-rule:evenodd;color:#000000;stroke:#74796e;stroke-linecap:round;stroke-width:.85055;fill:url(#linearGradient11170)" d="m44 23.071a18.214 18.214 0 1 1 -36.429 0 18.214 18.214 0 1 1 36.429 0z" transform="matrix(1.1757 0 0 1.1757 -6.8167 -3.9112)"/>
  <path id="path11154" style="color:#000000;fill-rule:evenodd;fill:url(#radialGradient11234)" d="m44 23.071a18.214 18.214 0 1 1 -36.429 0 18.214 18.214 0 1 1 36.429 0z" transform="matrix(1.0685 0 0 1.0685 -4.0518 -2.4373)"/>
  <path id="path4743" style="color:#000000;stroke:#555753;stroke-linecap:round;stroke-miterlimit:10;stroke-width:3;fill:none" d="m19.147 14.674c-6.993 3.813-3.831 14.739 4.163 14.739 7.911 0 11.456-10.358 4.164-14.739"/>
  <path id="path4745" style="color:#000000;stroke:#555753;stroke-linecap:round;stroke-miterlimit:10;stroke-width:3;fill:none" d="m23.365 19.364v-7.413"/>
  <path id="path4747" style="opacity:.88235;stroke-linejoin:round;color:#000000;stroke:url(#linearGradient4755);stroke-linecap:round;stroke-width:.95643;fill:none" d="m44 23.071a18.214 18.214 0 1 1 -36.429 0 18.214 18.214 0 1 1 36.429 0z" transform="matrix(1.0456 0 0 1.0456 -3.4602 -1.908)"/>
 </g>
</svg>
