<?xml version="1.0" encoding="UTF-8" standalone="no"?>
<!-- Created with Inkscape (http://www.inkscape.org/) -->
<svg id="svg5157" xmlns:rdf="http://www.w3.org/1999/02/22-rdf-syntax-ns#" xmlns="http://www.w3.org/2000/svg" height="48" width="48" version="1.0" xmlns:cc="http://web.resource.org/cc/" xmlns:xlink="http://www.w3.org/1999/xlink" xmlns:dc="http://purl.org/dc/elements/1.1/">
 <defs id="defs5159">
  <linearGradient id="linearGradient6998">
   <stop id="stop7000" offset="0"/>
   <stop id="stop7002" style="stop-opacity:0" offset="1"/>
  </linearGradient>
  <linearGradient id="linearGradient7145" y2="21.843" gradientUnits="userSpaceOnUse" x2="-13.247" y1="68.75" x1="11.5">
   <stop id="stop7132" style="stop-color:#4e9a06" offset="0"/>
   <stop id="stop7134" style="stop-color:#73d216" offset="1"/>
  </linearGradient>
  <linearGradient id="linearGradient7147" y2="17.448" gradientUnits="userSpaceOnUse" x2="-30.919" y1="10.966" x1="-33.041">
   <stop id="stop7123" style="stop-color:#fff" offset="0"/>
   <stop id="stop7125" style="stop-color:#8ae234" offset="1"/>
  </linearGradient>
  <radialGradient id="radialGradient7161" xlink:href="#linearGradient6998" gradientUnits="userSpaceOnUse" cy="30.586" cx="19.689" gradientTransform="matrix(1 0 0 .32227 0 20.729)" r="4.6625"/>
 </defs>
 <metadata id="metadata5162">
  <rdf:RDF>
   <cc:Work rdf:about="">
    <dc:format>image/svg+xml</dc:format>
    <dc:type rdf:resource="http://purl.org/dc/dcmitype/StillImage"/>
    <dc:title>System-log-out</dc:title>
    <dc:date>2007-08-27</dc:date>
    <dc:creator>
     <cc:Agent>
      <dc:title>Lapo Calamandrei</dc:title>
     </cc:Agent>
    </dc:creator>
    <dc:source/>
    <cc:license rdf:resource="http://creativecommons.org/licenses/GPL/2.0/"/>
    <dc:contributor>
     <cc:Agent>
      <dc:title>Kalle Persson</dc:title>
     </cc:Agent>
    </dc:contributor>
    <dc:subject>
     <rdf:Bag>
      <rdf:li>logout</rdf:li>
      <rdf:li>exit</rdf:li>
      <rdf:li>man</rdf:li>
      <rdf:li>sign</rdf:li>
      <rdf:li>running</rdf:li>
     </rdf:Bag>
    </dc:subject>
   </cc:Work>
   <cc:License rdf:about="http://creativecommons.org/licenses/GPL/2.0/">
    <cc:permits rdf:resource="http://web.resource.org/cc/Reproduction"/>
    <cc:permits rdf:resource="http://web.resource.org/cc/Distribution"/>
    <cc:requires rdf:resource="http://web.resource.org/cc/Notice"/>
    <cc:permits rdf:resource="http://web.resource.org/cc/DerivativeWorks"/>
    <cc:requires rdf:resource="http://web.resource.org/cc/ShareAlike"/>
    <cc:requires rdf:resource="http://web.resource.org/cc/SourceCode"/>
   </cc:License>
  </rdf:RDF>
 </metadata>
 <g id="layer1">
  <g id="g7008" style="opacity:.5" transform="matrix(1.221 0 0 1.4652 4.3293 -3.709)">
   <path id="path6984" style="opacity:.5;fill:url(#radialGradient7161);fill-rule:evenodd" d="m24.351 30.586a4.6625 1.5026 0 1 1 -9.325 0 4.6625 1.5026 0 1 1 9.325 0z" transform="matrix(1.3567 0 0 1.1785 -7.0105 -5.8165)"/>
   <path id="path6986" style="opacity:.25;fill-rule:evenodd;fill:url(#radialGradient7161)" d="m24.351 30.586a4.6625 1.5026 0 1 1 -9.325 0 4.6625 1.5026 0 1 1 9.325 0z" transform="matrix(3.7061 0 0 1.331 -58.248 -11.71)"/>
  </g>
 </g>
 <g id="layer2">
  <g id="g7138" transform="translate(40)">
   <g id="g7094">
    <path id="path5955" style="stroke-linejoin:round;fill-rule:evenodd;stroke:#4e9a06;stroke-linecap:round;fill:url(#linearGradient7145)" d="m-7.5 5.5c-2.208 0-4 1.792-4 4s1.792 4 4 4 4-1.792 4-4-1.792-4-4-4zm-13.188 6c-0.541 0.053-1.037 0.323-1.374 0.75l-4 5c-0.691 0.863-0.551 2.122 0.312 2.812 0.863 0.691 2.122 0.551 2.812-0.312l3.407-4.25h3.781l-6.438 7.812c-0.233 0.334-0.319 0.75-0.312 1.188v7h-8v4h10c1.105 0 2-0.895 2-2v-6.188l5 5v8.188h4v-9-0.844l-0.594-0.562-4.75-4.75 3.344-4.063v1.219c0 1.105 0.895 2 2 2h7c0.7213 0.01 1.3864-0.377 1.75-1 0.36361-0.623 0.36361-1.377 0-2-0.3636-0.623-1.0287-1.01-1.75-1h-5v-4.5c-2.891 0-5.344-1.889-6.188-4.5h-6.812c-0.062-0.003-0.125-0.003-0.188 0z"/>
   </g>
   <path id="path7104" style="stroke:#8ae234;stroke-linecap:round;fill:none" d="m-20.625 12.5c-0.259 0.033-0.494 0.17-0.656 0.375l-4 5c-0.351 0.439-0.283 1.055 0.156 1.406s1.055 0.283 1.406-0.156l3.407-4.25c0.19-0.237 0.477-0.374 0.781-0.375h3.781c0.383 0.004 0.73 0.225 0.895 0.57 0.166 0.345 0.122 0.754-0.114 1.055l-6.406 7.75c-0.004 0.005 0.004 0.025 0 0.031l-0.031 0.032c-0.063 0.111-0.098 0.267-0.094 0.531v0.031 7c-0.003 0.551-0.449 0.997-1 1h-7v2h9c0.561 0 1-0.439 1-1v-6.188c-0.004-0.409 0.24-0.779 0.618-0.937 0.377-0.158 0.812-0.071 1.101 0.219l5 5c0.185 0.192 0.287 0.451 0.281 0.718v7.188h2v-8-0.406l-0.281-0.282c-0.011 0.001-0.021 0.001-0.031 0l-4.75-4.75c-0.362-0.365-0.389-0.945-0.063-1.343l3.344-4.063c0.268-0.325 0.711-0.449 1.109-0.309 0.397 0.14 0.666 0.513 0.672 0.934v1.219c0 0.561 0.439 1 1 1h7c0.3528 0.005 0.689-0.181 0.875-0.5 0.1856-0.318 0.1856-0.682 0-1-0.186-0.319-0.5222-0.505-0.875-0.5h-5c-0.551-0.003-0.997-0.449-1-1v-3.656c-2.61-0.361-4.779-2.009-5.812-4.344h-6.188c-0.021 0.001-0.042 0.001-0.062 0-0.016-0.001-0.016 0-0.032 0-0.015 0-0.015-0.001-0.031 0z"/>
   <path id="path7106" style="opacity:.3;stroke:#fff;stroke-linecap:round;fill:none" d="m-1.625 22c-0.186-0.319-0.5222-0.505-0.875-0.5h-5c-0.551-0.003-0.997-0.449-1-1v-3.656c-2.61-0.361-4.779-2.009-5.812-4.344h-6.188c-0.021 0.001-0.042 0.001-0.062 0-0.016-0.001-0.016 0-0.032 0-0.015 0-0.015-0.001-0.031 0-0.259 0.033-0.494 0.17-0.656 0.375l-4 5c-0.351 0.439-0.283 1.055 0.156 1.406m14.625 12.219v-0.406l-0.281-0.282c-0.011 0.001-0.021 0.001-0.031 0l-4.75-4.75c-0.362-0.365-0.389-0.945-0.063-1.343m3.125 7.593v7.188m-2.355-24.43c0.166 0.345 0.122 0.754-0.114 1.055l-6.406 7.75c-0.004 0.005 0.004 0.025 0 0.031l-0.031 0.032c-0.063 0.111-0.098 0.267-0.094 0.531v0.031 7c-0.003 0.551-0.449 0.997-1 1h-7v2"/>
   <path id="path7119" style="stroke-linejoin:round;stroke-width:.66666;color:#000000;stroke:url(#linearGradient7147);stroke-linecap:round;fill:none" d="m-29.5 16a2 2 0 1 1 -4 0 2 2 0 1 1 4 0z" transform="matrix(1.5 0 0 1.5 39.75 -14.5)"/>
  </g>
  <g id="g7055" transform="translate(130)">
   <path id="path7045" style="opacity:.40892;stroke-linejoin:round;stroke:#000;stroke-linecap:round;stroke-width:4;fill:none" d="m-28.5 33.5h8v-9"/>
   <path id="path7047" style="opacity:.5;stroke-linejoin:round;stroke:#000;stroke-linecap:round;stroke-width:4;fill:none" d="m-24.5 18.5l4-5h9"/>
   <path id="path7049" style="opacity:.5;stroke-linejoin:round;stroke:#000;stroke-linecap:round;stroke-width:4;fill:none" d="m-2.5 22.5h-7v-9"/>
   <path id="path7051" style="opacity:.5;stroke:#000;stroke-linecap:round;stroke-width:4;fill:none" d="m-11.5 38.5v-7l-7-7"/>
   <path id="path7053" style="opacity:.5;stroke:#000;stroke-width:7;fill:none" d="m-10 14l-9.5 11.5"/>
  </g>
 </g>
</svg>
