<?xml version="1.0" encoding="UTF-8" standalone="no"?>
<!-- Created with Inkscape (http://www.inkscape.org/) -->
<svg id="svg11300" height="48" xmlns:dc="http://purl.org/dc/elements/1.1/" width="48" version="1.0" xmlns:xlink="http://www.w3.org/1999/xlink" xmlns:cc="http://web.resource.org/cc/" xmlns:rdf="http://www.w3.org/1999/02/22-rdf-syntax-ns#" xmlns="http://www.w3.org/2000/svg">
 <defs id="defs3">
  <linearGradient id="linearGradient8152">
   <stop id="stop8154" style="stop-color:#3465a4" offset="0"/>
   <stop id="stop3174" style="stop-color:#4f7eba" offset=".5"/>
   <stop id="stop8156" style="stop-color:#729fcf" offset="1"/>
  </linearGradient>
  <linearGradient id="linearGradient2847">
   <stop id="stop2849" style="stop-color:#3465a4" offset="0"/>
   <stop id="stop2851" style="stop-color:#3465a4;stop-opacity:0" offset="1"/>
  </linearGradient>
  <linearGradient id="linearGradient2831">
   <stop id="stop2833" style="stop-color:#3465a4" offset="0"/>
   <stop id="stop2855" style="stop-color:#5b86be" offset=".33333"/>
   <stop id="stop2835" style="stop-color:#83a8d8;stop-opacity:0" offset="1"/>
  </linearGradient>
  <linearGradient id="linearGradient1486" y2="19.115" xlink:href="#linearGradient2831" gradientUnits="userSpaceOnUse" x2="15.419" gradientTransform="matrix(1.0819 0 0 1.1167 -.82075 -1.8622)" y1="10.612" x1="13.479"/>
  <linearGradient id="linearGradient1488" y2="26.801" xlink:href="#linearGradient2847" gradientUnits="userSpaceOnUse" x2="37.403" gradientTransform="matrix(-1.0819 0 0 -1.1167 50.095 49.645)" y1="29.73" x1="37.128"/>
  <radialGradient id="radialGradient1503" gradientUnits="userSpaceOnUse" cy="36.421" cx="24.837" gradientTransform="matrix(1 0 0 .53672 0 16.873)" r="15.645">
   <stop id="stop8664" offset="0"/>
   <stop id="stop8666" style="stop-opacity:0" offset="1"/>
  </radialGradient>
  <linearGradient id="linearGradient8158" y2="19.776" xlink:href="#linearGradient8152" gradientUnits="userSpaceOnUse" x2="11.881" y1="37.904" x1="49.412"/>
  <linearGradient id="linearGradient8170" y2="19.115" xlink:href="#linearGradient2831" gradientUnits="userSpaceOnUse" x2="15.419" gradientTransform="matrix(-1.0819 0 0 -1.1167 48.64 47.862)" y1="10.612" x1="13.479"/>
  <linearGradient id="linearGradient8172" y2="26.801" xlink:href="#linearGradient2847" gradientUnits="userSpaceOnUse" x2="37.403" gradientTransform="matrix(1.0819 0 0 1.1167 -2.2755 -3.6449)" y1="29.73" x1="37.128"/>
  <linearGradient id="linearGradient8178" y2="27.721" gradientUnits="userSpaceOnUse" x2="45.199" y1="20.541" x1="5.8926">
   <stop id="stop3209" style="stop-color:#eeeeec;stop-opacity:.47059" offset="0"/>
   <stop id="stop3211" style="stop-color:#eeeeec;stop-opacity:0" offset="1"/>
  </linearGradient>
  <linearGradient id="linearGradient8180" y2="20.334" gradientUnits="userSpaceOnUse" x2="10.969" y1="28.05" x1="61.573">
   <stop id="stop5315" style="stop-color:#99b8df" offset="0"/>
   <stop id="stop5333" style="stop-color:#3969a8" offset=".23705"/>
   <stop id="stop5317" style="stop-color:#4f7eba" offset=".54706"/>
   <stop id="stop5321" style="stop-color:#96b6d7" offset=".74558"/>
   <stop id="stop5331" style="stop-color:#a0bddc" offset=".87321"/>
   <stop id="stop5319" style="stop-color:#729fcf" offset="1"/>
  </linearGradient>
  <linearGradient id="linearGradient5341" y2="25.266" gradientUnits="userSpaceOnUse" x2="52.123" y1="25.266" x1="8.6879">
   <stop id="stop5337" style="stop-color:#fff" offset="0"/>
   <stop id="stop5339" style="stop-color:#fff;stop-opacity:0" offset="1"/>
  </linearGradient>
 </defs>
 <metadata id="metadata4">
  <rdf:RDF>
   <cc:Work rdf:about="">
    <dc:format>image/svg+xml</dc:format>
    <dc:type rdf:resource="http://purl.org/dc/dcmitype/StillImage"/>
    <dc:creator>
     <cc:Agent>
      <dc:title>Jakub Steiner</dc:title>
     </cc:Agent>
    </dc:creator>
    <dc:source>http://jimmac.musichall.cz</dc:source>
    <cc:license rdf:resource="http://creativecommons.org/licenses/GPL/2.0/"/>
    <dc:title>View Refresh</dc:title>
    <dc:subject>
     <rdf:Bag>
      <rdf:li>reload</rdf:li>
      <rdf:li>refresh</rdf:li>
      <rdf:li>view</rdf:li>
     </rdf:Bag>
    </dc:subject>
    <dc:contributor>
     <cc:Agent>
      <dc:title>Ricardo &apos;Rick&apos; González</dc:title>
     </cc:Agent>
    </dc:contributor>
   </cc:Work>
   <cc:License rdf:about="http://creativecommons.org/licenses/GPL/2.0/">
    <cc:permits rdf:resource="http://web.resource.org/cc/Reproduction"/>
    <cc:permits rdf:resource="http://web.resource.org/cc/Distribution"/>
    <cc:requires rdf:resource="http://web.resource.org/cc/Notice"/>
    <cc:permits rdf:resource="http://web.resource.org/cc/DerivativeWorks"/>
    <cc:requires rdf:resource="http://web.resource.org/cc/ShareAlike"/>
    <cc:requires rdf:resource="http://web.resource.org/cc/SourceCode"/>
   </cc:License>
  </rdf:RDF>
 </metadata>
 <g id="layer1">
  <path id="path8660" style="opacity:.36111;color:#000000;fill-rule:evenodd;fill:url(#radialGradient1503)" d="m40.482 36.421a15.645 8.3969 0 1 1 -31.29 0 15.645 8.3969 0 1 1 31.29 0z" transform="matrix(-1.5146 0 0 -.79171 60.923 69.528)"/>
  <path id="path2865" style="opacity:.51807;color:#000000;stroke:url(#linearGradient1488);stroke-width:1.043;display:block;fill:url(#linearGradient1486)" d="m20.478 9.7711s-7.845-1.8273-6.11 11.253h-9.2651s0.9056-13.486 15.375-11.253z"/>
  <g id="g1878" style="stroke:#204a87;stroke-width:1.2493;fill:url(#linearGradient8158)" transform="matrix(-.61293 -.51544 -.51785 .61007 58.686 13.911)">
   <path id="path1880" style="color:#000000;stroke:#204a87;stroke-width:1.2498;display:block;fill:url(#linearGradient8180)" d="m45.862 50.274c17.062-15.311 1.288-34.344-23.101-37.76l-0.647-9.3618-14.5 17.358 15.089 12.722-0.248-9.885c18.835 0.993 32.321 12.328 23.407 26.927z"/>
  </g>
  <g id="g3185" style="opacity:.54819;stroke:url(#linearGradient5341);stroke-width:1.2493;fill:none" transform="matrix(-.61281 -.51544 -.51775 .61008 58.676 13.911)">
   <path id="path3189" style="opacity:1;color:#000000;stroke:url(#linearGradient5341);stroke-width:1.2493;display:block;fill:none" d="m21.062 6.3125l-11.75 14.032 12.157 10.25c-0.072-2.839-0.188-7.219-0.188-7.219-0.006-0.331 0.125-0.649 0.362-0.88 0.236-0.231 0.558-0.353 0.888-0.339 9.639 0.512 17.91 3.617 22.75 8.719 3.395 3.579 4.821 8.257 3.844 13.344 1.243-2.013 1.983-4.024 2.25-6 0.495-3.665-0.518-7.272-2.813-10.625-4.588-6.706-14.325-12.232-26.25-13.906-0.58-0.082-1.016-0.571-1.031-1.157l-0.219-6.2185z" transform="translate(.0000010080 8.5224e-7)"/>
  </g>
  <path id="path8160" style="opacity:.51807;color:#000000;stroke:url(#linearGradient8172);stroke-width:1.043;display:block;fill:url(#linearGradient8170)" d="m27.341 36.229s7.845 1.827 6.11-11.253h9.265s-0.905 13.486-15.375 11.253z"/>
  <g id="g8162" style="stroke:#204a87;stroke-width:1.2493;fill:url(#linearGradient8158)" transform="matrix(.61013 .51550 .51549 -.61015 -10.618 32.089)">
   <path id="path8164" style="stroke-width:1.2526;color:#000000;stroke:#204a87;display:block;fill:url(#linearGradient8180)" d="m45.862 50.274c17.062-15.311 1.288-34.344-23.101-37.76l-0.647-9.3618-14.5 17.358 15.089 12.722-0.248-9.885c18.835 0.993 32.321 12.328 23.407 26.927z"/>
  </g>
  <g id="g8166" style="stroke:#204a87;stroke-width:1.2493;fill:none" transform="matrix(.61281 .51544 .51775 -.61008 -10.857 32.089)">
   <path id="path8168" style="stroke-opacity:.70588;color:#000000;stroke:url(#linearGradient8178);stroke-width:1.2497;display:block;fill:none" d="m21.062 6.3125l-11.75 14.032 12.157 10.25c-0.072-2.839-0.188-7.219-0.188-7.219-0.006-0.331 0.125-0.649 0.362-0.88 0.236-0.231 0.558-0.353 0.888-0.339 9.639 0.512 17.91 3.617 22.75 8.719 3.395 3.579 4.821 8.257 3.844 13.344 1.243-2.013 1.983-4.024 2.25-6 0.495-3.665-0.518-7.272-2.813-10.625-4.588-6.706-14.325-12.232-26.25-13.906-0.58-0.082-1.016-0.571-1.031-1.157l-0.219-6.2185z" transform="matrix(.99723 -.0024606 -.0024606 .99806 .24570 .20774)"/>
  </g>
 </g>
</svg>
