<?xml version="1.0" encoding="UTF-8" standalone="no"?>
<!-- Created with Inkscape (http://www.inkscape.org/) -->
<svg id="svg2" xmlns:rdf="http://www.w3.org/1999/02/22-rdf-syntax-ns#" xmlns="http://www.w3.org/2000/svg" height="48" width="48" version="1.0" xmlns:cc="http://creativecommons.org/ns#" xmlns:xlink="http://www.w3.org/1999/xlink" xmlns:dc="http://purl.org/dc/elements/1.1/">
 <defs id="defs3">
  <linearGradient id="linearGradient6094">
   <stop id="stop6096" style="stop-color:#fff" offset="0"/>
   <stop id="stop6098" style="stop-color:#fff;stop-opacity:0" offset="1"/>
  </linearGradient>
  <linearGradient id="linearGradient6070">
   <stop id="stop6072" style="stop-color:#3465a4" offset="0"/>
   <stop id="stop6074" style="stop-color:#729fcf" offset="1"/>
  </linearGradient>
  <linearGradient id="linearGradient6076" y2="13.38" xlink:href="#linearGradient6070" gradientUnits="userSpaceOnUse" x2="15.474" y1="59.572" x1="34.961"/>
  <linearGradient id="linearGradient6100" y2="42.382" xlink:href="#linearGradient6094" gradientUnits="userSpaceOnUse" x2="24.359" y1="-16.4" x1=".87465"/>
 </defs>
 <metadata id="metadata6">
  <rdf:RDF>
   <cc:Work rdf:about="">
    <dc:format>image/svg+xml</dc:format>
    <dc:type rdf:resource="http://purl.org/dc/dcmitype/StillImage"/>
    <dc:title>Tip</dc:title>
    <dc:date>13.4.2007</dc:date>
    <dc:creator>
     <cc:Agent>
      <dc:title>Josef Vybíral</dc:title>
     </cc:Agent>
    </dc:creator>
    <cc:license rdf:resource="http://creativecommons.org/licenses/GPL/2.0/"/>
   </cc:Work>
   <cc:License rdf:about="http://creativecommons.org/licenses/GPL/2.0/">
    <cc:permits rdf:resource="http://web.resource.org/cc/Reproduction"/>
    <cc:permits rdf:resource="http://web.resource.org/cc/Distribution"/>
    <cc:requires rdf:resource="http://web.resource.org/cc/Notice"/>
    <cc:permits rdf:resource="http://web.resource.org/cc/DerivativeWorks"/>
    <cc:requires rdf:resource="http://web.resource.org/cc/ShareAlike"/>
    <cc:requires rdf:resource="http://web.resource.org/cc/SourceCode"/>
   </cc:License>
  </rdf:RDF>
 </metadata>
 <g id="layer1">
  <path id="path5072" style="stroke-linejoin:round;stroke-width:.99246;fill-rule:evenodd;color:#000000;stroke:#3465a4;stroke-linecap:round;fill:url(#linearGradient6076)" d="m44.704 23.195a20.345 20.345 0 1 1 -40.691 0 20.345 20.345 0 1 1 40.691 0z" transform="matrix(1.0076 0 0 1.0076 -.54383 .62824)"/>
  <path id="path6090" style="stroke-linejoin:round;stroke-width:1.0432;color:#000000;stroke:url(#linearGradient6100);stroke-linecap:round;fill:none" d="m44.704 23.195a20.345 20.345 0 1 1 -40.691 0 20.345 20.345 0 1 1 40.691 0z" transform="matrix(.95845 0 0 .95869 .65343 1.7628)"/>
  <path id="text6102" style="fill:#f7f7f6" transform="scale(1.022 .97850)" d="m26.758 33.033l-0.544 0.778c-1.011 1.515-1.905 2.332-2.488 2.332-0.31 0-0.583-0.273-0.583-0.583 0-0.234 0.234-1.555 0.35-2.021l3.537-12.981c-2.099 0.466-4.819 0.855-7.851 1.088v1.049c1.671 0 2.293 0.311 2.293 1.127 0 0.311-0.116 0.894-0.272 1.555l-2.254 8.356c-0.311 1.088-0.505 2.176-0.505 2.682 0 1.438 1.088 2.448 2.682 2.448 2.331 0 3.769-1.205 6.49-5.286l-0.855-0.544m-0.855-21.142c-1.36 0-2.565 1.205-2.565 2.565 0 1.516 1.127 2.682 2.565 2.682 1.477 0 2.682-1.166 2.682-2.604s-1.244-2.643-2.682-2.643"/>
  <rect id="rect2830" style="opacity:.25;fill:#3465a4" height="24" width="24" y="8" x="-36"/>
  <path id="path2832" style="stroke-linejoin:round;fill-rule:evenodd;color:#000000;stroke:#3465a4;stroke-linecap:round;stroke-width:1.9377;fill:url(#linearGradient6076)" d="m44.704 23.195a20.345 20.345 0 1 1 -40.691 0 20.345 20.345 0 1 1 40.691 0z" transform="matrix(.51609 0 0 .51609 -36.571 8.0291)"/>
  <path id="path2834" style="stroke-linejoin:round;color:#000000;stroke:url(#linearGradient6100);stroke-linecap:round;stroke-width:2.1412;fill:none" d="m44.704 23.195a20.345 20.345 0 1 1 -40.691 0 20.345 20.345 0 1 1 40.691 0z" transform="matrix(.46697 0 0 .46708 -35.375 9.1688)"/>
  <path id="path2836" style="fill:#f7f7f6" d="m-22.127 23.558-0.27803 0.38029c-0.51634 0.74157-0.97311 1.1409-1.271 1.1409-0.15888 0-0.29789-0.1331-0.29789-0.28522 0-0.11409 0.11916-0.76058 0.17873-0.98876l1.8072-6.3509c-1.073 0.228-2.463 0.419-4.012 0.533v0.513c0.85395 0 1.1717 0.15212 1.1717 0.55142 0 0.15212-0.05958 0.43734-0.13902 0.76058l-1.1518 4.0881c-0.15888 0.53241-0.25817 1.0648-0.25817 1.312 0 0.70354 0.55606 1.1979 1.3703 1.1979 1.1916 0 1.9264-0.58945 3.3165-2.586l-0.43691-0.2662m-0.43691-10.344c-0.69508 0-1.3107 0.58945-1.3107 1.255 0 0.74157 0.57592 1.312 1.3107 1.312 0.75466 0 1.3703-0.57044 1.3703-1.274 0-0.70354-0.6355-1.293-1.3703-1.293"/>
 </g>
</svg>
