<?xml version="1.0" encoding="UTF-8" standalone="no"?>
<!-- Created with Inkscape (http://www.inkscape.org/) -->
<svg id="svg4118" xmlns:rdf="http://www.w3.org/1999/02/22-rdf-syntax-ns#" xmlns="http://www.w3.org/2000/svg" height="48" width="48" version="1.0" xmlns:cc="http://creativecommons.org/ns#" xmlns:xlink="http://www.w3.org/1999/xlink" xmlns:dc="http://purl.org/dc/elements/1.1/">
 <defs id="defs4120">
  <linearGradient id="linearGradient6074">
   <stop id="stop6076" style="stop-color:#c4a000" offset="0"/>
   <stop id="stop6078" style="stop-color:#c4a000;stop-opacity:0" offset="1"/>
  </linearGradient>
  <linearGradient id="linearGradient6048">
   <stop id="stop6050" style="stop-color:#fff" offset="0"/>
   <stop id="stop6052" style="stop-color:#fff;stop-opacity:0" offset="1"/>
  </linearGradient>
  <linearGradient id="linearGradient6025">
   <stop id="stop6027" style="stop-color:#ef2929" offset="0"/>
   <stop id="stop6029" style="stop-color:#c00" offset="1"/>
  </linearGradient>
  <linearGradient id="linearGradient5068">
   <stop id="stop5070" style="stop-color:#fded6e" offset="0"/>
   <stop id="stop5072" style="stop-color:#fce734" offset="1"/>
  </linearGradient>
  <linearGradient id="linearGradient5976">
   <stop id="stop5978" style="stop-color:#fff;stop-opacity:.80180" offset="0"/>
   <stop id="stop5980" style="stop-color:#fff;stop-opacity:.17568" offset="1"/>
  </linearGradient>
  <linearGradient id="linearGradient5982" y2="41.648" xlink:href="#linearGradient5976" gradientUnits="userSpaceOnUse" x2="12.247" gradientTransform="matrix(1.1937 0 0 1.2052 .18691 -3.3597)" y1="12.426" x1="12.247"/>
  <linearGradient id="linearGradient5050" y2="16.159" xlink:href="#linearGradient5068" gradientUnits="userSpaceOnUse" x2="8.2459" gradientTransform="matrix(1.1667 0 0 1.0008 0.75 -1.0345)" y1="34.109" x1="8.3547"/>
  <linearGradient id="linearGradient6054" y2="17.336" xlink:href="#linearGradient6048" gradientUnits="userSpaceOnUse" x2="10.5" gradientTransform="matrix(.90909 0 0 .875 .45455 0.625)" y1="-3.3375" x1="4.1781"/>
  <radialGradient id="radialGradient6060" xlink:href="#linearGradient6025" gradientUnits="userSpaceOnUse" cy="6.3353" cx="9.4521" gradientTransform="matrix(.93582 1.1536 -.85284 1.0513 5.7441 -10.838)" r="4.0258"/>
  <radialGradient id="radialGradient6080" xlink:href="#linearGradient6074" gradientUnits="userSpaceOnUse" cy="18.132" cx="18.177" gradientTransform="matrix(1 0 0 .97143 0 .51806)" r="2.3651"/>
  <linearGradient id="linearGradient3030" y2="17.336" xlink:href="#linearGradient6048" gradientUnits="userSpaceOnUse" x2="10.5" gradientTransform="matrix(.50121 0 0 .48242 -40.922 7.1877)" y1="-3.3375" x1="4.1781"/>
  <linearGradient id="linearGradient3041" y2="41.648" xlink:href="#linearGradient5976" gradientUnits="userSpaceOnUse" x2="12.247" gradientTransform="matrix(.60451 0 0 .61035 -40.039 6.669)" y1="12.426" x1="12.247"/>
  <linearGradient id="linearGradient3044" y2="16.159" xlink:href="#linearGradient5068" gradientUnits="userSpaceOnUse" x2="8.2459" gradientTransform="matrix(.63556 0 0 .54518 -40.716 6.7906)" y1="34.109" x1="8.3547"/>
 </defs>
 <metadata id="metadata4123">
  <rdf:RDF>
   <cc:Work rdf:about="">
    <dc:format>image/svg+xml</dc:format>
    <dc:type rdf:resource="http://purl.org/dc/dcmitype/StillImage"/>
    <dc:title>Note</dc:title>
    <dc:date>13.4.2007</dc:date>
    <dc:creator>
     <cc:Agent>
      <dc:title>Josef Vybíral</dc:title>
     </cc:Agent>
    </dc:creator>
    <cc:license rdf:resource="http://creativecommons.org/licenses/GPL/2.0/"/>
   </cc:Work>
   <cc:License rdf:about="http://creativecommons.org/licenses/GPL/2.0/">
    <cc:permits rdf:resource="http://web.resource.org/cc/Reproduction"/>
    <cc:permits rdf:resource="http://web.resource.org/cc/Distribution"/>
    <cc:requires rdf:resource="http://web.resource.org/cc/Notice"/>
    <cc:permits rdf:resource="http://web.resource.org/cc/DerivativeWorks"/>
    <cc:requires rdf:resource="http://web.resource.org/cc/ShareAlike"/>
    <cc:requires rdf:resource="http://web.resource.org/cc/SourceCode"/>
   </cc:License>
  </rdf:RDF>
 </metadata>
 <g id="layer1">
  <path id="rect4933" style="fill-rule:evenodd;color:#000000;stroke:#c8a300;fill:url(#linearGradient5050)" d="m8.8556 9.5h33.455c0.566 0 1.022 0.3911 1.022 0.877l0.067 24.708c0 2.958 0.116 5.579-1.031 7.465l-35.785-0.05c-0.6004 0-1.084-0.415-1.084-0.93 0.9061-0.743 1.1512-3.88 1.3212-6.395l0.821-24.798c0-0.4859 0.6471-0.877 1.2134-0.877z"/>
  <path id="path4940" style="color:#000000;stroke:url(#linearGradient5982);stroke-linecap:square;fill:none" d="m9.6319 10.5h32.07c0.545 0 0.646-0.027 0.646 0.423l0.087 23.264c-0.278 2.489 0.174 5.708-1.008 7.294h-34.527c1.1146-1.369 0.533-2.312 0.7548-3.329l0.9773-27.229c0-0.45 0.4555-0.423 0.9998-0.423z"/>
  <path id="path6064" style="fill-rule:evenodd;color:#000000;fill:url(#radialGradient6080)" d="m20.543 18.132a2.3651 2.2975 0 1 1 -4.731 0 2.3651 2.2975 0 1 1 4.731 0z" transform="matrix(1.057 0 0 1.0881 -2.7819 .17533)"/>
  <g id="g6017" style="stroke:#ead200" transform="matrix(.96643 .25692 -.25692 .96643 5.9122 -3.3)">
   <path id="path6011" style="stroke:#ead200;stroke-width:1px;fill:none" d="m16.567 20.023s0-2.117 2.875-3.669"/>
   <path id="path6013" style="stroke:#ead200;stroke-width:1px;fill:none" d="m15.13 20.728s-2.256-0.489-3.63 0.142"/>
   <path id="path6015" style="stroke:#ead200;stroke-width:1px;fill:none" d="m15.13 20.023s1.437 1.477 2.875 1.477"/>
  </g>
  <path id="path6062" style="fill-rule:evenodd;stroke:#3465a4;stroke-miterlimit:3.6;fill:#729fcf" d="m8.5403 12.703l8.0407 7.784-3.73-10.987-4.3107 3.203z"/>
  <path id="path6082" style="fill-opacity:.54338;fill:#fff;fill-rule:evenodd" d="m15.338 18.662l-3.811-6.392 2.473 0.73 1.338 5.662z"/>
  <path id="path6021" style="stroke-width:.66168px;fill-rule:evenodd;color:#000000;stroke:#a40000;fill:url(#radialGradient6060)" d="m13.952 7.6718a3.5837 4.396 0 1 1 -7.1669 0 3.5837 4.396 0 1 1 7.1669 0z" transform="matrix(1.6743 0 0 1.3642 -6.86 -.0073492)"/>
  <path id="path6033" style="fill-rule:evenodd;color:#000000;fill:url(#linearGradient6054)" d="m10.417 5c-2.9903 0-5.3214 1.8154-5.3214 4.6397 0.7212 1.8423 2.7055 2.3283 4.4877 2.3603 2.9897 0 5.4167-1.418 5.4167-4.2425 0-0.1346-0.015-0.2655-0.026-0.3975-0.961-1.4274-2.635-2.36-4.557-2.36z"/>
  <path id="path6056" style="stroke-width:.79382px;stroke-opacity:.35160;color:#000000;stroke:#fff;fill:none" d="m13.952 7.6718a3.5837 4.396 0 1 1 -7.1669 0 3.5837 4.396 0 1 1 7.1669 0z" transform="matrix(1.3952 0 0 1.1374 -3.9667 1.774)"/>
  <path id="path6091" style="stroke:#edd400;stroke-width:1px;fill:none" d="m12.627 23.491h25.599"/>
  <path id="path6093" style="stroke:#edd400;stroke-width:1px;fill:none" d="m12.627 27.491h25.599"/>
  <path id="path6095" style="stroke:#edd400;stroke-width:1px;fill:none" d="m12.5 31.491h18.854"/>
  <rect id="rect2956" style="opacity:.25;fill:#3465a4" height="24" width="24" y="8" x="-40"/>
  <path id="path2958" style="stroke-width:.99576;color:#000000;fill-rule:evenodd;stroke:#c8a300;fill:url(#linearGradient3044)" d="m-36.3 12.529h18.225c0.30852 0 0.5569 0.21306 0.5569 0.47771l0.03622 13.46c0 1.6114 0.06334 3.0394-0.56172 4.0665l-19.494-0.02702c-0.32722 0-0.59066-0.22597-0.59066-0.50666 0.4936-0.40447 0.62716-2.1136 0.71972-3.4839l0.44728-13.509c0-0.26465 0.3525-0.47771 0.66102-0.47771z"/>
  <path id="path2960" style="stroke-width:.91856;color:#000000;stroke:url(#linearGradient3041);stroke-linecap:square;fill:none" d="m-35.256 13.688h16.242c0.27567 0 0.32704-0.01392 0.32704 0.2139l0.044 11.782c-0.14103 1.2604 0.08797 2.8908-0.51062 3.6936h-17.485c0.56424-0.69286 0.26971-1.1706 0.38202-1.6857l0.49493-13.79c0-0.22782 0.23068-0.2139 0.50634-0.2139z"/>
  <path id="path2962" style="fill-rule:evenodd;color:#000000;fill:url(#radialGradient6080)" d="m20.543 18.132a2.3651 2.2975 0 1 1 -4.7302 0 2.3651 2.2975 0 1 1 4.7302 0z" transform="matrix(.58278 0 0 .59992 -42.706 6.9398)"/>
  <g id="g2964" style="stroke:#ead200" transform="matrix(.53283 .14165 -.14165 .53283 -37.913 5.0237)">
   <path id="path2966" style="stroke:#ead200;stroke-width:1px;fill:none" d="m16.567 20.023s0-2.1172 2.8747-3.6694"/>
   <path id="path2968" style="stroke:#ead200;stroke-width:1px;fill:none" d="m15.13 20.728s-2.2563-0.48938-3.6299 0.14111"/>
   <path id="path2970" style="stroke:#ead200;stroke-width:1px;fill:none" d="m15.13 20.023s1.4374 1.4766 2.8747 1.4766"/>
  </g>
  <path id="path2972" style="fill-rule:evenodd;stroke:#3465a4;stroke-miterlimit:3.6;stroke-width:.55134;fill:#729fcf" d="m-36.464 13.847 4.4329 4.2917-2.056-6.0575-2.3769 1.7658z"/>
  <path id="path2974" style="fill-opacity:.54338;fill:#fff;fill-rule:evenodd" d="m-32.716 17.132-2.1011-3.524 1.3635 0.40231 0.73762 3.1217z"/>
  <path id="path2976" style="fill-rule:evenodd;color:#000000;stroke:#a40000;stroke-width:.66168px;fill:url(#radialGradient6060)" d="m13.952 7.6718a3.5837 4.396 0 1 1 -7.1673 0 3.5837 4.396 0 1 1 7.1673 0z" transform="matrix(.92308 0 0 .75214 -44.954 6.8391)"/>
  <path id="path2978" style="color:#000000;fill-rule:evenodd;fill:url(#linearGradient3030)" d="m-35.429 9.5998c-1.6485 0-2.9337 1.0009-2.9337 2.558 0.39764 1.016 1.4917 1.2838 2.4743 1.3013 1.6485 0 2.9864-0.7819 2.9864-2.339 0-0.0742-0.0084-0.14638-0.01436-0.21914-0.53005-0.78701-1.4526-1.3012-2.5126-1.3012z"/>
  <path id="path2980" style="stroke-width:.79382px;stroke-opacity:.35160;color:#000000;stroke:#fff;fill:none" d="m13.952 7.6718a3.5837 4.396 0 1 1 -7.1673 0 3.5837 4.396 0 1 1 7.1673 0z" transform="matrix(.76923 0 0 .62709 -43.359 7.8212)"/>
  <path id="path2982" style="stroke:#edd400;fill:none" d="m-34 19.524h14.114"/>
  <path id="path2984" style="stroke:#edd400;stroke-width:.99553;fill:none" d="m-33.947 22.507h14.05"/>
  <path id="path2986" style="stroke:#edd400;fill:none" d="m-34 25.422h10.395"/>
 </g>
</svg>
