<?xml version="1.0" encoding="UTF-8" standalone="no"?>
<!-- Created with Inkscape (http://www.inkscape.org/) -->
<svg id="svg2" xmlns:rdf="http://www.w3.org/1999/02/22-rdf-syntax-ns#" xmlns="http://www.w3.org/2000/svg" height="48" width="48" version="1.0" xmlns:cc="http://creativecommons.org/ns#" xmlns:xlink="http://www.w3.org/1999/xlink" xmlns:dc="http://purl.org/dc/elements/1.1/">
 <defs id="defs3">
  <linearGradient id="linearGradient5588">
   <stop id="stop5590" style="stop-color:#f8c700" offset="0"/>
   <stop id="stop5592" style="stop-color:#fff38a" offset="1"/>
  </linearGradient>
  <linearGradient id="linearGradient5668" y2=".34891" xlink:href="#linearGradient5588" gradientUnits="userSpaceOnUse" x2="1.9992" gradientTransform="matrix(.99684 .30040 -.30285 0.994 16.113 13.053)" y1="45.386" x1="32.736"/>
  <filter id="filter5524" height="1.2994" width="1.2329" y="-.14972" x="-.11645">
   <feGaussianBlur id="feGaussianBlur5526" stdDeviation="0.43668122"/>
  </filter>
  <linearGradient id="linearGradient3013" y2=".34891" xlink:href="#linearGradient5588" gradientUnits="userSpaceOnUse" x2="1.9992" gradientTransform="matrix(.48816 .14711 -.14831 .48677 -31.829 14.392)" y1="45.386" x1="32.736"/>
 </defs>
 <metadata id="metadata6">
  <rdf:RDF>
   <cc:Work rdf:about="">
    <dc:format>image/svg+xml</dc:format>
    <dc:type rdf:resource="http://purl.org/dc/dcmitype/StillImage"/>
    <dc:title/>
   </cc:Work>
  </rdf:RDF>
 </metadata>
 <g id="layer1">
  <path id="path4909" style="stroke-linejoin:round;stroke-width:1px;fill-rule:evenodd;color:#000000;stroke:#cca800;stroke-linecap:round;fill:url(#linearGradient5668)" d="m37.261 44.177l-13.262-7.995-13.268 8.025 3.322-15.042-11.513-10.098 14.316-2.717 7.153-12.85 7.144 12.836 14.315 2.683-11.519 10.123 3.312 15.035z"/>
  <path id="path5498" style="stroke-width:1px;stroke-opacity:.64865;color:#000000;stroke:#fff;fill:none" d="m35.556 41.5l-11.555-6.845-11.431 6.798 3.02-12.58-10.387-9.045 12.547-2.425 6.288-11.226 6.28 11.215 12.459 2.334-10.305 9.129 3.084 12.645z"/>
  <rect id="rect2997" style="opacity:.25;fill:#3465a4" height="24" width="24.071" y="8" x="-40.071"/>
  <path id="path2999" style="stroke-linejoin:round;stroke-width:.97781;color:#000000;fill-rule:evenodd;stroke:#cca800;stroke-linecap:round;fill:url(#linearGradient3013)" d="m-21.472 29.634-6.4949-3.9154-6.4975 3.9302 1.627-7.3664-5.6379-4.9448 7.0108-1.3306 3.5027-6.293l3.497 6.286 7.0102 1.3135-5.641 4.9576 1.6221 7.3627z"/>
  <path id="path3001" style="stroke-width:.891;stroke-opacity:.64865;color:#000000;stroke:#fff;fill:none" d="m-23 27.41-5.0161-2.9714-4.9625 2.9509 1.3112-5.4611-4.5094-3.9265 5.4471-1.0525 2.7295-4.8737 2.7263 4.8688 5.4087 1.0132-4.4736 3.9628l1.339 5.489z"/>
 </g>
</svg>
