<?xml version="1.0" encoding="UTF-8" standalone="no"?>
<!-- Created with Inkscape (http://www.inkscape.org/) -->
<svg id="svg2" xmlns:rdf="http://www.w3.org/1999/02/22-rdf-syntax-ns#" xmlns="http://www.w3.org/2000/svg" height="48" width="48" version="1.0" xmlns:cc="http://web.resource.org/cc/" xmlns:xlink="http://www.w3.org/1999/xlink" xmlns:dc="http://purl.org/dc/elements/1.1/">
 <defs id="defs3">
  <linearGradient id="linearGradient6087" y2="23.446" gradientUnits="userSpaceOnUse" x2="8.958" y1="26.035" x1="34.795">
   <stop id="stop6083" style="stop-color:#f57900" offset="0"/>
   <stop id="stop6085" style="stop-color:#fcaf3e" offset="1"/>
  </linearGradient>
  <linearGradient id="linearGradient6095" y2="22.286" gradientUnits="userSpaceOnUse" y1="23.5" gradientTransform="matrix(1.001 0 0 .97258 -.014705 6.1444)" x2="7" x1="40">
   <stop id="stop6091" style="stop-color:#75507b" offset="0"/>
   <stop id="stop6093" style="stop-color:#ad7fa8" offset="1"/>
  </linearGradient>
 </defs>
 <metadata id="metadata6">
  <rdf:RDF>
   <cc:Work rdf:about="">
    <dc:format>image/svg+xml</dc:format>
    <dc:type rdf:resource="http://purl.org/dc/dcmitype/StillImage"/>
   </cc:Work>
  </rdf:RDF>
 </metadata>
 <g id="layer1">
  <path id="path6101" style="fill-rule:evenodd;color:#000000;stroke:#2e3436;fill:#555753" d="m30.268 7.4196a6.7411 4.3304 0 1 1 -13.482 0 6.7411 4.3304 0 1 1 13.482 0z" transform="matrix(1.0215 0 0 1.4748 -.53362 3.0577)"/>
  <path id="path6152" style="stroke-width:.96512;stroke-opacity:.21005;color:#000000;stroke:#fff;fill:none" d="m30.268 7.4196a6.7411 4.3304 0 1 1 -13.482 0 6.7411 4.3304 0 1 1 13.482 0z" transform="matrix(.88913 0 0 1.1532 2.5816 4.9438)"/>
  <path id="path6071" style="fill-rule:evenodd;color:#000000;stroke:#ce5c00;fill:url(#linearGradient6087)" d="m36.339 23.446a13.08 16.339 0 1 1 -26.16 0 13.08 16.339 0 1 1 26.16 0z" transform="matrix(.98832 0 0 .97972 .43228 5.529)"/>
  <path id="path6245" style="stroke-width:1.0325;stroke-opacity:.21005;color:#000000;stroke:#fff;fill:none" d="m36.339 23.446a13.08 16.339 0 1 1 -26.16 0 13.08 16.339 0 1 1 26.16 0z" transform="matrix(.98832 0 0 .94912 .43228 5.7465)"/>
  <path id="path5097" style="fill-rule:evenodd;color:#000000;stroke:#5c3566;fill:url(#linearGradient6095)" d="m23.509 11.518c-8.832 0-15.991 7.9-15.991 17.644-0.0001 8.602 5.574 15.757 12.959 17.32l3.02-31.038 3.11 31.038c7.354-1.59 12.893-8.742 12.893-17.32 0-9.744-7.16-17.644-15.991-17.644z"/>
  <path id="path6097" d="m23.554 12.489c-8.32 0-15.065 7.461-15.065 16.663-0.0004 8.123 5.858 14.516 11.119 16.252l2.86-30.469 2.064-0.004 2.941 30.317c5.232-1.502 11.146-7.996 11.146-16.096 0-9.202-6.745-16.663-15.065-16.663z" style="stroke-opacity:.21005;color:#000000;stroke:#fff;fill:none"/>
  <g id="g6139" transform="translate(-1,1)">
   <path id="path6121" d="m27.5 8.5l4.495-5.4216" style="stroke:#2e3436;stroke-width:3;fill:none"/>
   <path id="path6123" style="stroke:#888a85;fill:none" d="m27.5 8.5l4.495-5.4216"/>
   <path id="path6125" style="fill-rule:evenodd;color:#000000;stroke:#2e3436;fill:#555753" d="m33.903 2.6694a2.2728 2.2728 0 1 1 -4.545 0 2.2728 2.2728 0 1 1 4.545 0z" transform="matrix(1.083 0 0 1.0714 -2.2548 .11371)"/>
  </g>
  <g id="g6144" transform="matrix(-1 0 0 1 48 1)">
   <path id="path6146" style="stroke:#2e3436;stroke-width:3;fill:none" d="m27.5 8.5l4.495-5.4216"/>
   <path id="path6148" d="m27.5 8.5l4.495-5.4216" style="stroke:#888a85;fill:none"/>
   <path id="path6150" style="fill-rule:evenodd;color:#000000;stroke:#2e3436;fill:#555753" d="m33.903 2.6694a2.2728 2.2728 0 1 1 -4.545 0 2.2728 2.2728 0 1 1 4.545 0z" transform="matrix(1.083 0 0 1.0714 -2.2548 .11371)"/>
  </g>
  <path id="path6233" style="stroke-width:1.6321;fill-rule:evenodd;color:#000000;stroke:#edd400;fill:#fce94f" d="m20.014 22.746a2.3991 2.3991 0 1 1 -4.799 0 2.3991 2.3991 0 1 1 4.799 0z" transform="matrix(.62205 0 0 .62205 6.0428 6.8507)"/>
  <path id="path6235" style="stroke-width:1.6321;fill-rule:evenodd;color:#000000;stroke:#edd400;fill:#fce94f" d="m20.014 22.746a2.3991 2.3991 0 1 1 -4.799 0 2.3991 2.3991 0 1 1 4.799 0z" transform="matrix(.62205 0 0 .62205 3.0428 14.851)"/>
  <path id="path6237" style="stroke-width:1.6321;fill-rule:evenodd;color:#000000;stroke:#edd400;fill:#fce94f" d="m20.014 22.746a2.3991 2.3991 0 1 1 -4.799 0 2.3991 2.3991 0 1 1 4.799 0z" transform="matrix(.62205 0 0 .62205 5.0428 22.851)"/>
  <path id="path6239" style="stroke-width:1.6321;fill-rule:evenodd;color:#000000;stroke:#edd400;fill:#fce94f" d="m20.014 22.746a2.3991 2.3991 0 1 1 -4.799 0 2.3991 2.3991 0 1 1 4.799 0z" transform="matrix(-.62205 0 0 .62205 40.957 6.8507)"/>
  <path id="path6241" style="stroke-width:1.6321;fill-rule:evenodd;color:#000000;stroke:#edd400;fill:#fce94f" d="m20.014 22.746a2.3991 2.3991 0 1 1 -4.799 0 2.3991 2.3991 0 1 1 4.799 0z" transform="matrix(-.62205 0 0 .62205 43.957 14.851)"/>
  <path id="path6243" style="stroke-width:1.6321;fill-rule:evenodd;color:#000000;stroke:#edd400;fill:#fce94f" d="m20.014 22.746a2.3991 2.3991 0 1 1 -4.799 0 2.3991 2.3991 0 1 1 4.799 0z" transform="matrix(-.62205 0 0 .62205 41.957 22.851)"/>
 </g>
</svg>
