<?xml version="1.0" encoding="UTF-8" standalone="no"?>
<!-- Created with Inkscape (http://www.inkscape.org/) -->
<svg id="svg2" xmlns:rdf="http://www.w3.org/1999/02/22-rdf-syntax-ns#" xmlns="http://www.w3.org/2000/svg" height="48" width="48" version="1.0" xmlns:cc="http://creativecommons.org/ns#" xmlns:xlink="http://www.w3.org/1999/xlink" xmlns:dc="http://purl.org/dc/elements/1.1/">
 <defs id="defs3">
  <linearGradient id="linearGradient4912">
   <stop id="stop4914" style="stop-color:#fce94f" offset="0"/>
   <stop id="stop4916" style="stop-color:#edd400;stop-opacity:.88739" offset="1"/>
  </linearGradient>
  <linearGradient id="linearGradient5883">
   <stop id="stop5885" style="stop-color:#555753" offset="0"/>
   <stop id="stop5887" style="stop-color:#363734" offset="1"/>
  </linearGradient>
  <linearGradient id="linearGradient5889" y2="46.001" xlink:href="#linearGradient5883" gradientUnits="userSpaceOnUse" x2="38.628" y1="1.0943" x1="15.552"/>
  <linearGradient id="linearGradient6038">
   <stop id="stop6040" style="stop-color:#fff" offset="0"/>
   <stop id="stop6042" style="stop-color:#fff;stop-opacity:0" offset="1"/>
  </linearGradient>
  <linearGradient id="linearGradient5929" y2="48.648" xlink:href="#linearGradient6038" gradientUnits="userSpaceOnUse" x2="21.498" gradientTransform="translate(-22.911 .65303)" y1="-12.234" x1="21.498"/>
  <linearGradient id="linearGradient4918" y2="3.8284" xlink:href="#linearGradient4912" gradientUnits="userSpaceOnUse" x2="44.084" y1=".20225" x1="24.692"/>
  <linearGradient id="linearGradient2855" y2="3.8284" xlink:href="#linearGradient4912" gradientUnits="userSpaceOnUse" x2="44.084" gradientTransform="translate(-20.215 21.59)" y1=".20225" x1="24.692"/>
  <linearGradient id="linearGradient2857" y2="46.001" xlink:href="#linearGradient5883" gradientUnits="userSpaceOnUse" x2="38.628" gradientTransform="translate(-29.561 .97271)" y1="1.0943" x1="15.552"/>
  <linearGradient id="linearGradient2859" y2="48.648" xlink:href="#linearGradient6038" gradientUnits="userSpaceOnUse" x2="21.498" gradientTransform="translate(-52.471 1.6257)" y1="-12.234" x1="21.498"/>
 </defs>
 <metadata id="metadata6">
  <rdf:RDF>
   <cc:Work rdf:about="">
    <dc:format>image/svg+xml</dc:format>
    <dc:type rdf:resource="http://purl.org/dc/dcmitype/StillImage"/>
    <dc:title>Caution</dc:title>
    <dc:date>13.4.2007</dc:date>
    <dc:creator>
     <cc:Agent>
      <dc:title>Josef Vybíral</dc:title>
     </cc:Agent>
    </dc:creator>
    <cc:license rdf:resource="http://creativecommons.org/licenses/GPL/2.0/"/>
   </cc:Work>
   <cc:License rdf:about="http://creativecommons.org/licenses/GPL/2.0/">
    <cc:permits rdf:resource="http://web.resource.org/cc/Reproduction"/>
    <cc:permits rdf:resource="http://web.resource.org/cc/Distribution"/>
    <cc:requires rdf:resource="http://web.resource.org/cc/Notice"/>
    <cc:permits rdf:resource="http://web.resource.org/cc/DerivativeWorks"/>
    <cc:requires rdf:resource="http://web.resource.org/cc/ShareAlike"/>
    <cc:requires rdf:resource="http://web.resource.org/cc/SourceCode"/>
   </cc:License>
  </rdf:RDF>
 </metadata>
 <g id="layer1">
  <rect id="rect5870" style="fill-rule:evenodd;color:#000000;fill:url(#linearGradient4918)" transform="rotate(45)" height="26.87" width="26.87" y="-13.435" x="20.506"/>
  <path id="rect4899" style="stroke-linejoin:round;fill-rule:evenodd;color:#000000;stroke:#2e3436;stroke-linecap:round;fill:url(#linearGradient5889)" d="m25.588 3.0494c-0.997-0.8155-2.452-0.7389-3.358 0.1768l-19.004 19.004c-0.976 0.976-0.976 2.559 0.0002 3.535l19.004 19.004c0.976 0.976 2.559 0.976 3.535 0l19.004-19.004c0.976-0.976 0.976-2.559 0-3.535l-19.004-19.004c-0.056-0.0617-0.115-0.1207-0.177-0.1766zm-1.591 4.4801l16.468 16.468-16.468 16.467-16.468-16.468 16.468-16.468z"/>
  <path id="text6064" style="fill:#2e3436" d="m23.513 28.027c-0.499-4.009-1.497-6.968-1.497-11.027 0-2.673 4.014-2.684 4.014 0 0 4.223-0.963 7.024-1.469 11.027h-1.048m-0.513 3.973v-1.995h2.024v1.995h-2.024"/>
  <path id="path5937" style="opacity:.29258;stroke-linejoin:round;color:#000000;stroke:url(#linearGradient5929);stroke-linecap:round;fill:none" d="m25.638 4.2476c-0.998-0.8155-2.303-0.9371-3.21-0.0214l-17.954 18.202c-0.9763 0.976-1.0258 2.212-0.0496 3.189l17.954 17.904c0.977 0.976 2.163 1.075 3.139 0.099l18.004-18.003c0.976-0.977 1.174-2.163 0.198-3.14-6.06-6.06-12.021-12.169-18.081-18.229zm-1.641 2.0341l17.815 17.715-17.815 17.815-17.765-17.815 17.765-17.715z"/>
  <rect id="rect2833" style="opacity:.25;fill:#3465a4" height="24" width="24" y="8" x="-36"/>
  <g id="g2849" transform="matrix(.49992 0 0 .49992 -21.265 7.5022)">
   <rect id="rect2835" style="color:#000000;fill-rule:evenodd;fill:url(#linearGradient2855)" transform="rotate(45)" height="26.87" width="26.87" y="8.1553" x=".29143"/>
   <path id="path2837" style="stroke-linejoin:round;color:#000000;fill-rule:evenodd;stroke:#2e3436;stroke-linecap:round;fill:url(#linearGradient2857)" d="m-3.9722 4.0221c-0.9978-0.8154-2.452-0.7389-3.3587 0.1768l-19.003 19.003c-0.97617 0.97637-0.97617 2.5592 0 3.5355l19.003 19.003c0.97637 0.97617 2.5592 0.97617 3.5355 0l19.004-19.003c0.97617-0.97637 0.97617-2.5592 0-3.5355l-19.003-19.003c-0.0563-0.0619-0.1153-0.1209-0.1772-0.1769zm-1.5909 4.4801 16.468 16.468-16.468 16.468-16.468-16.468 16.468-16.468z"/>
   <path id="path2839" style="fill:#2e3436" d="m-6.0479 29c-0.499-4.009-1.4969-6.968-1.4969-11.027 0-2.6733 4.0145-2.684 4.0145 0 0.0001 4.222-0.9638 7.023-1.4697 11.027h-1.0479m-0.51267 3.9727v-1.9952h2.0241v1.9952h-2.0241"/>
   <path id="path2841" style="opacity:.29258;stroke-linejoin:round;color:#000000;stroke:url(#linearGradient2859);stroke-linecap:round;fill:none" d="m-3.9226 5.2203c-0.9979-0.8155-2.3034-0.9371-3.2101-0.0214l-17.954 18.202c-0.97617 0.97637-1.0257 2.2123-0.04955 3.1887l17.954 17.904c0.97637 0.97617 2.1628 1.0753 3.1392 0.09909l18.004-18.004c0.977-0.976 1.175-2.163 0.199-3.139-6.0605-6.06-12.022-12.17-18.082-18.23zm-1.6405 2.0342 17.815 17.716-17.815 17.815-17.765-17.815 17.765-17.716z"/>
  </g>
 </g>
</svg>
