<?xml version="1.0" encoding="UTF-8" standalone="no"?>
<!-- Generator: Adobe Illustrator 9.0, SVG Export Plug-In  -->
<svg id="svg5105" xmlns:rdf="http://www.w3.org/1999/02/22-rdf-syntax-ns#" height="48px" xmlns="http://www.w3.org/2000/svg" xmlns:sodipodi="http://inkscape.sourceforge.net/DTD/sodipodi-0.dtd" xml:space="preserve" sodipodi:version="0.32" viewBox="0 0 48 48" width="48px" xmlns:cc="http://web.resource.org/cc/" xmlns:xlink="http://www.w3.org/1999/xlink" sodipodi:docname="seahorse-sign-ok.svg" sodipodi:docbase="/data/Desktop/icons/scaleable" xmlns:dc="http://purl.org/dc/elements/1.1/"><metadata id="metadata5189">
  <rdf:RDF>
    <cc:Work rdf:about="">
      <dc:format>image/svg+xml</dc:format>
      <dc:type rdf:resource="http://purl.org/dc/dcmitype/StillImage"/>
    <dc:title>Certificate</dc:title><dc:creator><cc:Agent><dc:title>Jakub Steiner</dc:title></cc:Agent></dc:creator><dc:subject><rdf:Bag><rdf:li>certificate</rdf:li></rdf:Bag></dc:subject><cc:license rdf:resource="http://creativecommons.org/licenses/by-sa/2.0/"/></cc:Work>
  <cc:License rdf:about="http://creativecommons.org/licenses/by-sa/2.0/"><cc:permits rdf:resource="http://web.resource.org/cc/Reproduction"/><cc:permits rdf:resource="http://web.resource.org/cc/Distribution"/><cc:requires rdf:resource="http://web.resource.org/cc/Notice"/><cc:requires rdf:resource="http://web.resource.org/cc/Attribution"/><cc:permits rdf:resource="http://web.resource.org/cc/DerivativeWorks"/><cc:requires rdf:resource="http://web.resource.org/cc/ShareAlike"/></cc:License></rdf:RDF>
</metadata>
<defs id="defs5187">
<radialGradient id="radialGradient5284" gradientUnits="userSpaceOnUse" cx="28.789" cy="20.971" r="13.281" gradientTransform="matrix(1.5688 0 0 1.5688 -15.358 -3.5508)"><stop id="stop5115" style="stop-color:#E41E08" offset="0"/><stop id="stop5117" style="stop-color:#901505" offset="1"/></radialGradient>
			<linearGradient id="linearGradient6610" y2="49.895" gradientUnits="userSpaceOnUse" y1="5.9245" gradientTransform="matrix(1.1681 0 0 1.1146 -5.1692 4.0565)" x2="43.141" x1="15.339"><stop id="stop6606" style="stop-color:#ffa196" offset="0"/><stop id="stop6608" style="stop-color:#ff1f06;stop-opacity:0" offset="1"/></linearGradient>
<linearGradient id="linearGradient6623" y2="22.783" gradientUnits="userSpaceOnUse" y1="9.4437" gradientTransform="matrix(1.2315 0 0 1.1638 -6.544 3.1119)" x2="29.957" x1="18.57"><stop id="stop6619" style="stop-color:#fff;stop-opacity:.24742" offset="0"/><stop id="stop6621" style="stop-color:#fff;stop-opacity:0" offset="1"/></linearGradient>
<radialGradient id="radialGradient6663" cx="24.452" gradientUnits="userSpaceOnUse" cy="19.819" r="33.156" gradientTransform="matrix(1.2265 0 0 1.1686 -3.8866 1.0532)"><stop id="stop6667" offset="0"/><stop id="stop6669" style="stop-opacity:0" offset="1"/></radialGradient>
<radialGradient id="radialGradient6678" gradientUnits="userSpaceOnUse" cx="26.887" cy="20.479" r="14.694" gradientTransform="matrix(1.3595 0 0 1.3595 -10.447 -.79899)"><stop id="stop5122" style="stop-color:#E41E08" offset="0"/><stop id="stop5124" style="stop-color:#901505" offset="1"/></radialGradient>
</defs>
<sodipodi:namedview id="base" bordercolor="#666666" pagecolor="#ffffff" borderopacity="0.16470588"/>
<path id="path6639" sodipodi:nodetypes="csssssssssssss" style="opacity:.48045;fill:url(#radialGradient6663)" d="m39.184 12.935c1.582 3.66 4.361 3.474 4.43 8.359 0.039 2.725 2.194 4.156 2.194 6.939s-4.807 4.158-6.444 5.795 0.129 5.836-4.312 7.069c-4.399 1.222-6.549-0.491-9.332-0.491s-9.443 5.367-11.899 2.911-2.508-7.822-4.6362-9.95c-2.2921-2.292-5.9134-5.495-5.9134-9.588s2.3635-6.253 5.7497-10.058c3.4939-3.9262 3.6019-9.8233 7.6949-9.8233s5.661 1.1228 9.145 1.0347c5.553-0.1403 6.233-2.7814 10.317-0.7105 3.601 1.8259 1.767 5.6481 3.006 8.5131z"/>
<path id="path5119" sodipodi:nodetypes="csssssssssssss" style="stroke-linejoin:round;stroke:#4c0901;stroke-linecap:round;fill:url(#radialGradient5284)" d="m36.813 12.758c1.516 3.507 4.179 3.329 4.245 8.01 0.037 2.611 2.102 3.982 2.102 6.649s-4.606 3.984-6.175 5.553c-1.568 1.569 0.124 5.592-4.132 6.774-4.215 1.171-6.275-0.471-8.942-0.471s-9.048 5.143-11.401 2.79c-2.354-2.354-2.404-7.496-4.4432-9.535-2.1963-2.197-5.6664-5.265-5.6664-9.187s2.2648-5.992 5.5095-9.638c3.3481-3.7624 3.4511-9.4131 7.3731-9.4131s5.425 1.0759 8.763 0.9915c5.321-0.1345 5.973-2.6652 9.887-0.6808 3.45 1.7495 1.693 5.4124 2.88 8.1574z"/>
<path id="path5126" style="fill:url(#radialGradient6678)" d="m36.862 22.72c0 7.477-6.117 13.594-13.594 13.594s-13.595-6.117-13.595-13.594c0.0002-7.477 6.118-13.595 13.595-13.595s13.594 6.118 13.594 13.595z"/>
<path id="path6600" sodipodi:nodetypes="csssssssssssss" style="stroke-linejoin:round;stroke:url(#linearGradient6610);stroke-linecap:round;fill:none" d="m35.56 13.696c1.381 3.194 3.806 3.032 3.866 7.295 0.034 2.377 1.914 3.626 1.914 6.055 0 2.428-4.194 3.629-5.623 5.057-1.429 1.429 0.113 5.093-3.763 6.169-3.839 1.067-5.715-0.428-8.144-0.428s-8.24 4.683-10.383 2.54c-2.144-2.143-2.189-6.826-4.0466-8.684-2.0002-2-5.1604-4.794-5.1604-8.366s2.0625-5.457 5.0176-8.778c3.0484-3.426 3.1434-8.5722 6.7144-8.5722 3.572 0 4.941 0.9797 7.981 0.9029 4.846-0.1225 5.44-2.4273 9.004-0.6201 3.142 1.5934 1.542 4.9284 2.623 7.4294z"/>
<path id="path6612" style="color:#000000;fill:url(#linearGradient6623)" d="m23.318 10.131c-7.025 0-12.746 5.677-12.746 12.702 0 4.395 2.375 8.118 5.766 10.405 8.668-4.666 7.128-12.936 18.685-15.26-1.914-4.608-6.407-7.847-11.705-7.847z"/>
<rect id="rect2277" style="stroke-linejoin:round;fill-rule:evenodd;stroke:#000;stroke-linecap:round;stroke-width:.71558;fill:#fff" rx=".70560" ry=".67161" height="13.432" width="13.855" y="16.576" x="15.771"/><g id="g1591" style="stroke:#2f8100;stroke-width:2;fill:#4e9a06" transform="translate(39.982 -8.6924)"><path id="path2565" style="stroke-linejoin:round;color:#000000;stroke:#2f8100;stroke-linecap:round;stroke-width:2;fill:#4e9a06" sodipodi:nodetypes="ccccc" d="m-18.774 35.712c2.889-2.26 9.0519-8.557 11.106-11.339l0.603 0.802c-2.21 2.732-8.431 8.992-11.009 11.503l-0.7-0.966z"/><path id="path2575" style="stroke-linejoin:round;color:#000000;stroke:#2f8100;stroke-linecap:round;stroke-width:2;fill:#4e9a06" sodipodi:nodetypes="ccccc" d="m-22.026 30.745c2.147 3.36 1.632 2.844 3.964 5.548l-0.239-1.19c0.601 0.41-3.212-2.98-2.453-3.743l-1.272-0.615z"/></g></svg>
