<?xml version="1.0" encoding="UTF-8" standalone="no"?>
<!-- Created with Inkscape (http://www.inkscape.org/) -->
<svg id="svg2108" xmlns:rdf="http://www.w3.org/1999/02/22-rdf-syntax-ns#" xmlns="http://www.w3.org/2000/svg" sodipodi:docname="seahorse-person.svg" xmlns:sodipodi="http://inkscape.sourceforge.net/DTD/sodipodi-0.dtd" height="48px" sodipodi:version="0.32" width="48px" xmlns:cc="http://web.resource.org/cc/" xmlns:xlink="http://www.w3.org/1999/xlink" sodipodi:docbase="/data/projects/seahorse/pixmaps/scaleable" xmlns:dc="http://purl.org/dc/elements/1.1/">
 <defs id="defs3">
  <linearGradient id="linearGradient4356">
   <stop id="stop4358" offset="0"/>
   <stop id="stop4360" style="stop-opacity:0" offset="1"/>
  </linearGradient>
  <linearGradient id="linearGradient3824">
   <stop id="stop3826" style="stop-color:#fff" offset="0"/>
   <stop id="stop3828" style="stop-color:#c9c9c9" offset="1"/>
  </linearGradient>
  <radialGradient id="radialGradient3822" gradientUnits="userSpaceOnUse" cy="19.009" cx="31.113" r="8.6621">
   <stop id="stop3818" offset="0"/>
   <stop id="stop3820" style="stop-opacity:0" offset="1"/>
  </radialGradient>
  <linearGradient id="linearGradient3830" y2="35.803" xlink:href="#linearGradient3824" gradientUnits="userSpaceOnUse" x2="30.936" gradientTransform="matrix(1.2865 0 0 1.2865 -16.359 -9.0708)" y1="29.553" x1="30.936"/>
  <radialGradient id="radialGradient4169" gradientUnits="userSpaceOnUse" cy="27.203" cx="28.09" gradientTransform="matrix(1.6693 3.7065e-16 -2.5276e-16 1.1383 -27.112 -2.715)" r="13.565">
   <stop id="stop4165" style="stop-color:#3b74bc" offset="0"/>
   <stop id="stop4167" style="stop-color:#2d5990" offset="1"/>
  </radialGradient>
  <radialGradient id="radialGradient4171" gradientUnits="userSpaceOnUse" cy="17.064" cx="29.345" gradientTransform="matrix(0.788 3.8776e-16 -3.8776e-16 0.788 6.2212 3.6176)" r="9.1621">
   <stop id="stop3802" style="stop-color:#f4d9b1" offset="0"/>
   <stop id="stop3804" style="stop-color:#df9725" offset="1"/>
  </radialGradient>
  <linearGradient id="linearGradient4362" y2="36.218" xlink:href="#linearGradient4356" gradientUnits="userSpaceOnUse" x2="22.627" gradientTransform="matrix(1.2651 .23361 -.23361 1.2651 -8.3425 -12.482)" y1="35.818" x1="20.662"/>
  <linearGradient id="linearGradient4366" y2="35.74" xlink:href="#linearGradient4356" gradientUnits="userSpaceOnUse" x2="21.408" gradientTransform="matrix(-1.2578 .27026 .27026 1.2578 54.537 -14.146)" y1="36.39" x1="22.687"/>
  <linearGradient id="linearGradient1366" y2="35.74" xlink:href="#linearGradient4356" gradientUnits="userSpaceOnUse" x2="21.408" gradientTransform="matrix(-1.2578 .27026 .27026 1.2578 37.422 -23.375)" y1="36.39" x1="22.687"/>
  <linearGradient id="linearGradient1372" y2="35.803" xlink:href="#linearGradient3824" gradientUnits="userSpaceOnUse" x2="30.936" gradientTransform="matrix(1.2865 0 0 1.2865 -32.335 -18.076)" y1="29.553" x1="30.936"/>
 </defs>
 <sodipodi:namedview id="base" bordercolor="#666666" pagecolor="#ffffff" stroke="#727e0a" showgrid="false" borderopacity="1.0" fill="#9db029"/>
 <metadata id="metadata4">
  <rdf:RDF>
   <cc:Work rdf:about="">
    <dc:format>image/svg+xml</dc:format>
    <dc:type rdf:resource="http://purl.org/dc/dcmitype/StillImage"/>
    <dc:title>People</dc:title>
    <dc:creator>
     <cc:Agent>
      <dc:title>Jakub Steiner</dc:title>
     </cc:Agent>
    </dc:creator>
    <dc:source>http://jimmac.musichall.cz</dc:source>
    <dc:subject>
     <rdf:Bag>
      <rdf:li>users</rdf:li>
      <rdf:li>people</rdf:li>
     </rdf:Bag>
    </dc:subject>
    <cc:license rdf:resource="http://creativecommons.org/licenses/by-sa/2.0/"/>
   </cc:Work>
   <cc:License rdf:about="http://creativecommons.org/licenses/by-sa/2.0/">
    <cc:permits rdf:resource="http://web.resource.org/cc/Reproduction"/>
    <cc:permits rdf:resource="http://web.resource.org/cc/Distribution"/>
    <cc:requires rdf:resource="http://web.resource.org/cc/Notice"/>
    <cc:requires rdf:resource="http://web.resource.org/cc/Attribution"/>
    <cc:permits rdf:resource="http://web.resource.org/cc/DerivativeWorks"/>
    <cc:requires rdf:resource="http://web.resource.org/cc/ShareAlike"/>
   </cc:License>
  </rdf:RDF>
 </metadata>
 <g id="layer1">
  <path id="path4173" style="color:#000000;fill-rule:evenodd;fill:url(#linearGradient1372)" d="m12.694 25.709h5.458l-3.184-2.957-0.682 0.91-0.682-0.682-0.91 2.729z"/>
  <path id="path4370" sodipodi:nodetypes="cccc" style="opacity:.22785;color:#000000;fill-rule:evenodd;fill:url(#linearGradient1366)" d="m18.959 33.053c1.584-0.748 2.321-2.576 2.321-2.576-1.234-5.201-5.115-8.803-5.115-8.803s3.171 8.159 2.794 11.379z"/>
 </g>
 <g id="layer2">
  <path id="path4308" sodipodi:nodetypes="cczcczc" style="stroke-linejoin:round;fill-rule:evenodd;color:#000000;stroke:#204a87;stroke-linecap:round;stroke-width:1px;fill:url(#radialGradient4169)" d="m17.071 44.493h13.645c3.866 0 7.694-1.418 9.097-5.458 1.332-3.837 0.227-11.144-8.415-17.057h-16.146c-8.6422 5.458-9.7222 12.923-7.7325 17.284 2.0269 4.443 5.4585 5.231 9.5515 5.231z"/>
  <path id="path4310" sodipodi:nodetypes="cccc" style="color:#000000;fill-rule:evenodd;fill:url(#linearGradient3830)" d="m17.981 24.025c4.093 3.639 5.913 16.829 5.913 16.829s1.819-13.19 5.003-17.056l-10.916 0.227z"/>
  <path id="path4312" sodipodi:nodetypes="cccc" style="color:#000000;fill-rule:evenodd;fill:#729fcf" d="m20.913 25.39s-2.767 2.136-2.529 4.709c-2.626-2.317-2.701-6.756-2.701-6.756l5.23 2.047z"/>
  <path id="path4314" sodipodi:nodetypes="cczcczc" style="opacity:.21519;stroke-linejoin:round;color:#000000;stroke:#fff;stroke-linecap:round;stroke-width:1px;fill:none" d="m16.979 43.152l13.5-0.028c3.396 0 6.758-1.245 7.99-4.795 1.171-3.37-0.122-9.788-7.713-14.982l-14.826-0.312c-7.5906 4.794-9.0599 11.351-7.2838 15.494 1.7758 4.144 4.3678 4.595 8.3328 4.623z"/>
  <path id="path4316" sodipodi:nodetypes="cccc" style="color:#000000;fill-rule:evenodd;fill:#729fcf" d="m26.623 25.39s2.767 2.136 2.529 4.709c2.626-2.317 2.701-6.756 2.701-6.756l-5.23 2.047z"/>
  <path id="path4318" sodipodi:rx="8.6620579" sodipodi:ry="8.6620579" style="color:#000000;fill-rule:evenodd;fill:url(#radialGradient3822)" sodipodi:type="arc" d="m39.775 19.009a8.6621 8.6621 0 1 1 -17.324 0 8.6621 8.6621 0 1 1 17.324 0z" transform="matrix(1.2865 0 0 1.2865 -16.52 -4.5681)" sodipodi:cy="19.008621" sodipodi:cx="31.112698"/>
  <path id="path4320" sodipodi:rx="8.6620579" sodipodi:ry="8.6620579" style="stroke-linejoin:round;fill-rule:evenodd;color:#000000;stroke:#c17d11;stroke-linecap:round;stroke-width:.77732px;fill:url(#radialGradient4171)" sodipodi:type="arc" d="m39.775 19.009a8.6621 8.6621 0 1 1 -17.324 0 8.6621 8.6621 0 1 1 17.324 0z" transform="matrix(1.2865 0 0 1.2865 -16.359 -9.0708)" sodipodi:cy="19.008621" sodipodi:cx="31.112698"/>
  <path id="path4322" sodipodi:rx="8.6620579" sodipodi:ry="8.6620579" style="opacity:.19620;stroke-linejoin:round;color:#000000;stroke:#fff;stroke-linecap:round;stroke-width:.88624px;fill:none" sodipodi:type="arc" d="m39.775 19.009a8.6621 8.6621 0 1 1 -17.324 0 8.6621 8.6621 0 1 1 17.324 0z" transform="matrix(1.1284 0 0 1.1284 -11.44 -6.0652)" sodipodi:cy="19.008621" sodipodi:cx="31.112698"/>
  <path id="path4354" sodipodi:nodetypes="cccc" style="opacity:.22785;color:#000000;fill-rule:evenodd;fill:url(#linearGradient4362)" d="m11.752 43.385c-1.605-0.701-2.3231-2.39-2.3231-2.39 1.0821-5.235 4.7851-9.065 4.7851-9.065s-2.932 8.248-2.462 11.455z"/>
  <path id="path4364" sodipodi:nodetypes="cccc" style="opacity:.22785;color:#000000;fill-rule:evenodd;fill:url(#linearGradient4366)" d="m36.074 42.281c1.584-0.747 2.321-2.576 2.321-2.576-1.234-5.201-5.115-8.803-5.115-8.803s3.171 8.16 2.794 11.379z"/>
 </g>
</svg>
