<?xml version="1.0" encoding="UTF-8" standalone="no"?>
<!-- Generator: Adobe Illustrator 9.0, SVG Export Plug-In  -->
<svg id="svg5105" xmlns:rdf="http://www.w3.org/1999/02/22-rdf-syntax-ns#" height="48px" xmlns="http://www.w3.org/2000/svg" xmlns:sodipodi="http://inkscape.sourceforge.net/DTD/sodipodi-0.dtd" xml:space="preserve" sodipodi:version="0.32" viewBox="0 0 48 48" width="48px" xmlns:cc="http://web.resource.org/cc/" xmlns:xlink="http://www.w3.org/1999/xlink" sodipodi:docname="seahorse-sign-unknown.svg" sodipodi:docbase="/data/Desktop/icons/scaleable" xmlns:dc="http://purl.org/dc/elements/1.1/"><metadata id="metadata5189">
  <rdf:RDF>
    <cc:Work rdf:about="">
      <dc:format>image/svg+xml</dc:format>
      <dc:type rdf:resource="http://purl.org/dc/dcmitype/StillImage"/>
    <dc:title>Certificate</dc:title><dc:creator><cc:Agent><dc:title>Jakub Steiner</dc:title></cc:Agent></dc:creator><dc:subject><rdf:Bag><rdf:li>certificate</rdf:li></rdf:Bag></dc:subject><cc:license rdf:resource="http://creativecommons.org/licenses/by-sa/2.0/"/></cc:Work>
  <cc:License rdf:about="http://creativecommons.org/licenses/by-sa/2.0/"><cc:permits rdf:resource="http://web.resource.org/cc/Reproduction"/><cc:permits rdf:resource="http://web.resource.org/cc/Distribution"/><cc:requires rdf:resource="http://web.resource.org/cc/Notice"/><cc:requires rdf:resource="http://web.resource.org/cc/Attribution"/><cc:permits rdf:resource="http://web.resource.org/cc/DerivativeWorks"/><cc:requires rdf:resource="http://web.resource.org/cc/ShareAlike"/></cc:License></rdf:RDF>
</metadata>
<defs id="defs5187">
<linearGradient id="linearGradient6665">
  <stop id="stop6667" offset="0"/>
  <stop id="stop6669" style="stop-opacity:0" offset="1"/>
</linearGradient>
<linearGradient id="linearGradient6617">
  <stop id="stop6619" style="stop-color:#fff;stop-opacity:.24742" offset="0"/>
  <stop id="stop6621" style="stop-color:#fff;stop-opacity:0" offset="1"/>
</linearGradient>
<linearGradient id="linearGradient6604">
  <stop id="stop6606" style="stop-color:#ffa196" offset="0"/>
  <stop id="stop6608" style="stop-color:#ff1f06;stop-opacity:0" offset="1"/>
</linearGradient>
			<radialGradient id="aigrd1" cx="28.789" gradientUnits="userSpaceOnUse" cy="20.971" r="13.281">
				<stop id="stop5115" style="stop-color:#E41E08" offset="0"/>
				<stop id="stop5117" style="stop-color:#901505" offset="1"/>
			</radialGradient>
			<radialGradient id="aigrd2" cx="19.292" gradientUnits="userSpaceOnUse" cy="13.544" r="14.694">
				<stop id="stop5122" style="stop-color:#E41E08" offset="0"/>
				<stop id="stop5124" style="stop-color:#901505" offset="1"/>
			</radialGradient>
<radialGradient id="radialGradient2113" xlink:href="#aigrd2" gradientUnits="userSpaceOnUse" cy="20.479" cx="26.887" gradientTransform="matrix(1.4033 0 0 1.3485 -10.845 -.23617)" r="14.694"/><radialGradient id="radialGradient2116" xlink:href="#aigrd1" gradientUnits="userSpaceOnUse" cy="20.971" cx="28.789" gradientTransform="matrix(1.6193 0 0 1.5562 -15.915 -2.9658)" r="13.281"/><radialGradient id="radialGradient2119" xlink:href="#linearGradient6665" gradientUnits="userSpaceOnUse" cy="19.819" cx="24.452" gradientTransform="matrix(1.266 0 0 1.1592 -4.5738 1.6011)" r="33.156"/><linearGradient id="linearGradient2157" y2="49.895" xlink:href="#linearGradient6604" gradientUnits="userSpaceOnUse" x2="43.141" gradientTransform="matrix(1.2058 0 0 1.1057 -20.398 4.5804)" y1="5.9245" x1="15.339"/><linearGradient id="linearGradient2174" y2="22.783" xlink:href="#linearGradient6617" gradientUnits="userSpaceOnUse" x2="29.957" gradientTransform="matrix(1.2712 0 0 1.1545 -23.817 3.6433)" y1="9.4437" x1="18.57"/><radialGradient id="radialGradient2181" xlink:href="#aigrd2" gradientUnits="userSpaceOnUse" cy="20.479" cx="26.887" gradientTransform="matrix(1.4033 0 0 1.3485 -27.345 -.23617)" r="14.694"/><linearGradient id="linearGradient2183" y2="22.783" xlink:href="#linearGradient6617" gradientUnits="userSpaceOnUse" x2="29.957" gradientTransform="matrix(1.2712 0 0 1.1545 -6.3167 3.6433)" y1="9.4437" x1="18.57"/><linearGradient id="linearGradient2189" y2="49.895" xlink:href="#linearGradient6604" gradientUnits="userSpaceOnUse" x2="43.141" gradientTransform="matrix(1.2058 0 0 1.1057 -5.3977 4.5804)" y1="5.9245" x1="15.339"/><radialGradient id="radialGradient2207" xlink:href="#linearGradient6665" gradientUnits="userSpaceOnUse" cy="19.819" cx="24.452" gradientTransform="matrix(1.266 0 0 1.1592 -19.574 1.6011)" r="33.156"/><radialGradient id="radialGradient2209" xlink:href="#aigrd1" gradientUnits="userSpaceOnUse" cy="20.971" cx="28.789" gradientTransform="matrix(1.6193 0 0 1.5562 -30.915 -2.9658)" r="13.281"/>
</defs>
<sodipodi:namedview id="base" bordercolor="#666666" pagecolor="#ffffff" showgrid="true" borderopacity="0.16470588"/>
<g id="g2199" transform="matrix(.91995 0 0 .92124 13.926 2.3803)"><path id="path2165" style="opacity:.50045;fill:url(#radialGradient2207)" d="m9.125 41.375c-0.1298-0.288-0.2254-0.468-0.3438-0.781-0.1437-0.381-0.2448-0.773-0.2812-1.094s0.0171-0.564 0.1875-0.719c0.457-0.415 1.2769-0.941 1.9065-1.562 0.314-0.311 0.581-0.671 0.718-1.031 0.138-0.361 0.155-0.717-0.031-1.126-0.093-0.206-0.495-0.743-0.843-1.25-0.349-0.506-0.655-1.002-0.5318-1.187 0.3718-0.557 0.7888-1.562 1.3128-1.969 0.505-0.393 0.782-0.719 0.875-1 0.093-0.28-0.007-0.512-0.219-0.75-0.423-0.475-1.351-0.934-2.3438-1.656-0.2863-0.208-1.1829-0.792-2.0624-1.406-0.8796-0.615-1.7448-1.287-1.9063-1.719 0.1007-0.395 0.6389-1.026 1.125-1.563 0.4861-0.536 0.9375-0.968 0.9375-0.968 0.7739-0.601 0.9883-0.814 0.9062-1.032-0.082-0.217-0.4599-0.424-0.8437-1-0.2641-0.396-0.2793-0.666-0.2187-0.937s0.1964-0.557 0.1562-1c-0.0632-0.695-0.8748-0.841-0.9375-1.531-0.0638-0.702 0.0569-1.897 0-2.938-0.0285-0.52-0.0898-1.011-0.25-1.375s-0.4315-0.61-0.8125-0.656c-0.3308-0.235-0.5266-0.714-0.6562-1.125-0.1297-0.4107-0.1876-0.75-0.1876-0.75s0.5918-0.7173 1.8438-1.6562c0.6172-0.463 1.3441-0.9713 1.8438-1.5313 0.1883-0.2111 0.3035-0.4327 0.4062-0.6563-2.1633-0.2773-4.0262-0.7812-7.1875-0.7812-4.2248 0-4.3312 5.856-7.9375 9.75-3.4953 3.775-5.938 5.909-5.938 9.969s3.7284 7.226 6.0942 9.5c2.1969 2.111 2.2777 7.439 4.8126 9.875 2.1073 2.025 7.093-1.161 10.406-2.344z"/><path id="path2148" style="stroke-linejoin:round;stroke:#4c0901;stroke-linecap:round;fill:url(#radialGradient2209)" d="m8.7188 5.6875c-2.6862-0.1417-4.4388-0.875-8-0.875-4.0483 0-4.1694 5.6125-7.625 9.3435-3.3498 3.617-5.6878 5.672-5.6878 9.563 0 3.89 3.577 6.915 5.844 9.093 2.1051 2.024 2.1648 7.135 4.5938 9.469 2.1926 2.107 7.6597-1.68 10.75-2.469-0.0224-0.1-0.0833-0.219-0.0938-0.312-0.0364-0.321 0.0171-0.564 0.1875-0.719 0.457-0.415 1.2769-0.941 1.9065-1.562 0.314-0.311 0.581-0.671 0.718-1.031 0.138-0.361 0.155-0.717-0.031-1.126-0.093-0.206-0.495-0.743-0.843-1.25-0.349-0.506-0.655-1.002-0.5318-1.187 0.3718-0.557 0.7888-1.562 1.3128-1.969 0.505-0.393 0.782-0.719 0.875-1 0.093-0.28-0.007-0.512-0.219-0.75-0.423-0.475-1.351-0.934-2.3438-1.656-0.2863-0.208-1.1829-0.792-2.0624-1.406-0.8796-0.615-1.7448-1.287-1.9063-1.719 0.1007-0.395 0.6389-1.026 1.125-1.563 0.4861-0.536 0.9375-0.968 0.9375-0.968 0.7739-0.601 0.9883-0.814 0.9062-1.032-0.082-0.217-0.4599-0.424-0.8437-1-0.2641-0.396-0.2793-0.666-0.2187-0.937s0.1964-0.557 0.1562-1c-0.0632-0.695-0.8748-0.841-0.9375-1.531-0.0638-0.702 0.0569-1.897 0-2.938-0.0285-0.52-0.0898-1.011-0.25-1.375s-0.4315-0.61-0.8125-0.656c-0.3308-0.235-0.5266-0.714-0.6562-1.125-0.1297-0.4107-0.1876-0.75-0.1876-0.75s0.5918-0.7173 1.8438-1.6562c0.6172-0.463 1.3441-0.9713 1.8438-1.5313 0.1098-0.1232 0.1665-0.2475 0.25-0.375z"/><path id="path2179" style="fill:url(#radialGradient2181)" d="m3.5938 10.188c-5.8487 1.626-10.156 6.779-10.156 12.906-0.0003 7.417 6.313 13.5 14.031 13.5 0.7609 0 1.4897-0.106 2.2187-0.219 0.0323-0.063 0.1003-0.123 0.125-0.187 0.1378-0.361 0.1545-0.717-0.0313-1.126-0.0936-0.206-0.4955-0.743-0.8437-1.25-0.3482-0.506-0.6545-1.002-0.5313-1.187 0.3715-0.557 0.7891-1.562 1.3126-1.969 0.5052-0.393 0.7822-0.719 0.8752-1 0.093-0.28-0.007-0.512-0.219-0.75-0.423-0.475-1.3512-0.934-2.3438-1.656-0.2863-0.208-1.1829-0.792-2.0624-1.406-0.8796-0.615-1.7448-1.287-1.9063-1.719 0.1007-0.395 0.6389-1.026 1.125-1.563 0.4861-0.536 0.9375-0.968 0.9375-0.968 0.7739-0.601 0.9883-0.814 0.9062-1.032-0.082-0.217-0.4599-0.424-0.8437-1-0.2641-0.396-0.2793-0.666-0.2187-0.937s0.1964-0.557 0.1562-1c-0.0632-0.695-0.8748-0.841-0.9375-1.531-0.0638-0.702 0.0569-1.897 0-2.938-0.0285-0.52-0.0898-1.011-0.25-1.375s-0.4315-0.61-0.8125-0.656c-0.2737-0.194-0.3995-0.588-0.5312-0.937z"/><path id="path2172" style="color:#000000;fill:url(#linearGradient2174)" d="m3.5938 11.094c-5.5859 1.45-9.75 6.302-9.75 12.125 0 4.359 2.4685 8.044 5.9687 10.312 3.5915-1.857 5.4045-4.29 7.1563-6.687-0.4209-0.275-0.8649-0.556-1.5-1-0.8796-0.615-1.7448-1.287-1.9063-1.719 0.1007-0.395 0.6389-1.026 1.125-1.563 0.4861-0.536 0.9375-0.968 0.9375-0.968 0.7739-0.601 0.9883-0.814 0.9062-1.032-0.082-0.217-0.4599-0.424-0.8437-1-0.2641-0.396-0.2793-0.666-0.2187-0.937s0.1964-0.557 0.1562-1c-0.0632-0.695-0.8748-0.841-0.9375-1.531-0.0638-0.702 0.0569-1.897 0-2.938-0.0285-0.52-0.0898-1.011-0.25-1.375s-0.4315-0.61-0.8125-0.656c-0.0109-0.008-0.0206-0.023-0.0312-0.031z"/><path id="path2155" sodipodi:nodetypes="cssssscssssssssscscsssssscscsc" style="stroke-linejoin:round;stroke:url(#linearGradient2157);stroke-linecap:round;fill:none" d="m4.9727 6.7682c-1.6818-0.2625-1.0352-0.2682-3.5665-0.2682-3.6868 0-3.7904 5.101-6.9374 8.5-3.0503 3.294-5.1878 5.144-5.1878 8.688 0 3.543 3.2794 6.328 5.344 8.312 1.9172 1.842 1.9754 6.499 4.1875 8.625s5.6388-2.245 8.1458-2.245c0.3785-0.283 1.105-0.993 1.4564-1.34 0.3147-0.311 0.76-0.492 0.8978-0.852 0.1378-0.361 0.1545-0.717-0.0313-1.126-0.0936-0.206-0.4955-0.743-0.8437-1.25-0.3482-0.506-0.6545-1.002-0.5313-1.187 0.3715-0.557 0.7891-1.562 1.3126-1.969 0.5056-0.393 0.7822-0.719 0.8752-1 0.093-0.28-1.4986-1.183-2.4911-1.905-0.2864-0.208-1.2904-0.755-2.17-1.37s-1.7089-1.824-1.8704-2.256c0.1007-0.395 0.6389-1.026 1.125-1.563 0.4861-0.536 0.9375-0.968 0.9375-0.968 0.7739-0.601 0.9167-1.029 0.8346-1.246-0.082-0.218-0.7292-0.844-0.6686-1.114 0.0606-0.271 0.0533-0.593 0.013-1.036-0.0632-0.696-0.8031-1.092-0.8658-1.782-0.0639-0.702 0.1643-1.36 0.1074-2.4-0.0285-0.521-0.0898-1.012-0.25-1.375-0.1603-0.364-0.4315-0.61-0.8125-0.657-0.3309-0.234-0.8847-1.573-1.0143-1.984-0.1297-0.4107-0.1876-0.75-0.1876-0.75s0.377-1.074 1.629-2.013c0.1885-0.1414 0.362-0.3179 0.5625-0.4688z"/><path id="path2185" style="fill:none" d="m8.7188 5.6875c-2.6862-0.1417-4.4388-0.875-8-0.875-4.0483 0-4.1694 5.6125-7.625 9.3435-3.3498 3.617-5.6878 5.672-5.6878 9.563 0 3.89 3.577 6.915 5.844 9.093 2.1051 2.024 2.1648 7.135 4.5938 9.469 2.1926 2.107 7.6597-1.68 10.75-2.469-0.0224-0.1-0.0833-0.219-0.0938-0.312-0.0364-0.321 0.0171-0.564 0.1875-0.719 0.457-0.415 1.2769-0.941 1.9065-1.562 0.314-0.311 0.581-0.671 0.718-1.031 0.138-0.361 0.155-0.717-0.031-1.126-0.093-0.206-0.495-0.743-0.843-1.25-0.349-0.506-0.655-1.002-0.5318-1.187 0.3718-0.557 0.7888-1.562 1.3128-1.969 0.505-0.393 0.782-0.719 0.875-1 0.093-0.28-0.007-0.512-0.219-0.75-0.423-0.475-1.351-0.934-2.3438-1.656-0.2863-0.208-1.1829-0.792-2.0624-1.406-0.8796-0.615-1.7448-1.287-1.9063-1.719 0.1007-0.395 0.6389-1.026 1.125-1.563 0.4861-0.536 0.9375-0.968 0.9375-0.968 0.7739-0.601 0.9883-0.814 0.9062-1.032-0.082-0.217-0.4599-0.424-0.8437-1-0.2641-0.396-0.2793-0.666-0.2187-0.937s0.1964-0.557 0.1562-1c-0.0632-0.695-0.8748-0.841-0.9375-1.531-0.0638-0.702 0.0569-1.897 0-2.938-0.0285-0.52-0.0898-1.011-0.25-1.375s-0.4315-0.61-0.8125-0.656c-0.3308-0.235-0.5266-0.714-0.6562-1.125-0.1297-0.4107-0.1876-0.75-0.1876-0.75s0.5918-0.7173 1.8438-1.6562c0.6172-0.463 1.3441-0.9713 1.8438-1.5313 0.1098-0.1232 0.1665-0.2475 0.25-0.375z"/></g><g id="g2191" transform="matrix(.91995 0 0 .92124 4.2663 1.9197)"><path id="path6639" style="opacity:.50045;fill:url(#radialGradient2119)" d="m34.156 4.1562c-2.244-0.1232-3.732 1.3956-8.031 1.5-0.905 0.022-1.522-0.1566-2.25-0.25-0.103 0.2236-0.218 0.4452-0.406 0.6563-0.5 0.56-1.227 1.0683-1.844 1.5313-1.252 0.9389-1.844 1.6562-1.844 1.6562s0.058 0.3393 0.188 0.75c0.129 0.411 0.325 0.89 0.656 1.125 0.381 0.046 0.652 0.292 0.813 0.656 0.16 0.364 0.221 0.855 0.25 1.375 0.056 1.041-0.064 2.236 0 2.938 0.062 0.69 0.874 0.836 0.937 1.531 0.04 0.443-0.096 0.729-0.156 1-0.061 0.271-0.046 0.541 0.219 0.937 0.383 0.576 0.761 0.783 0.843 1 0.082 0.218-0.132 0.431-0.906 1.032 0 0-0.451 0.432-0.937 0.968-0.487 0.537-1.025 1.168-1.126 1.563 0.162 0.432 1.027 1.104 1.907 1.719 0.879 0.614 1.776 1.198 2.062 1.406 0.993 0.722 1.921 1.181 2.344 1.656 0.212 0.238 0.312 0.47 0.219 0.75-0.093 0.281-0.37 0.607-0.875 1-0.524 0.407-0.941 1.412-1.313 1.969-0.123 0.185 0.183 0.681 0.532 1.187 0.348 0.507 0.75 1.044 0.843 1.25 0.186 0.409 0.169 0.765 0.031 1.126-0.137 0.36-0.404 0.72-0.718 1.031-0.63 0.621-1.449 1.147-1.906 1.562-0.171 0.155-0.224 0.398-0.188 0.719s0.138 0.713 0.281 1.094c0.119 0.313 0.214 0.493 0.344 0.781 0.672-0.24 1.391-0.531 1.875-0.531 2.873 0 5.084 1.681 9.625 0.468 4.585-1.223 2.748-5.375 4.437-7 1.69-1.623 6.657-2.989 6.657-5.75 0-2.76-2.21-4.172-2.25-6.874-0.071-4.847-2.961-4.682-4.594-8.313-1.278-2.842 0.623-6.6263-3.094-8.4375-1.054-0.5136-1.877-0.7402-2.625-0.7813z"/><path id="path5119" style="fill:url(#radialGradient2116)" d="m23.719 5.6875c-0.084 0.1275-0.14 0.2518-0.25 0.375-0.5 0.56-1.227 1.0683-1.844 1.5313-1.252 0.9389-1.844 1.6562-1.844 1.6562s0.058 0.3393 0.188 0.75c0.129 0.411 0.325 0.89 0.656 1.125 0.381 0.046 0.652 0.292 0.813 0.656 0.16 0.364 0.221 0.855 0.25 1.375 0.056 1.041-0.064 2.236 0 2.938 0.062 0.69 0.874 0.836 0.937 1.531 0.04 0.443-0.096 0.729-0.156 1-0.061 0.271-0.046 0.541 0.219 0.937 0.383 0.576 0.761 0.783 0.843 1 0.082 0.218-0.132 0.431-0.906 1.032 0 0-0.451 0.432-0.937 0.968-0.487 0.537-1.025 1.168-1.126 1.563 0.162 0.432 1.027 1.104 1.907 1.719 0.879 0.614 1.776 1.198 2.062 1.406 0.993 0.722 1.921 1.181 2.344 1.656 0.212 0.238 0.312 0.47 0.219 0.75-0.093 0.281-0.37 0.607-0.875 1-0.524 0.407-0.941 1.412-1.313 1.969-0.123 0.185 0.183 0.681 0.532 1.187 0.348 0.507 0.75 1.044 0.843 1.25 0.186 0.409 0.169 0.765 0.031 1.126-0.137 0.36-0.404 0.72-0.718 1.031-0.63 0.621-1.449 1.147-1.906 1.562-0.171 0.155-0.224 0.398-0.188 0.719 0.01 0.093 0.071 0.212 0.094 0.312 0.333-0.085 0.763-0.312 1.031-0.312 2.753 0 4.867 1.63 9.219 0.469 4.393-1.173 2.662-5.163 4.281-6.719s6.375-2.855 6.375-5.5-2.149-4.004-2.188-6.594c-0.067-4.643-2.81-4.458-4.374-7.937-1.226-2.724 0.592-6.3585-2.969-8.094-4.04-1.9684-4.727 0.5229-10.219 0.6562-0.415 0.0101-0.664-0.0743-1.031-0.0937z"/><path id="path5126" style="fill:url(#radialGradient2113)" d="m20.094 10.188c0.132 0.349 0.257 0.743 0.531 0.937 0.381 0.046 0.652 0.292 0.813 0.656 0.16 0.364 0.221 0.855 0.25 1.375 0.056 1.041-0.064 2.236 0 2.938 0.062 0.69 0.874 0.836 0.937 1.531 0.04 0.443-0.096 0.729-0.156 1-0.061 0.271-0.046 0.541 0.219 0.937 0.383 0.576 0.761 0.783 0.843 1 0.082 0.218-0.132 0.431-0.906 1.032 0 0-0.451 0.432-0.937 0.968-0.487 0.537-1.025 1.168-1.126 1.563 0.162 0.432 1.027 1.104 1.907 1.719 0.879 0.614 1.776 1.198 2.062 1.406 0.993 0.722 1.921 1.181 2.344 1.656 0.212 0.238 0.312 0.47 0.219 0.75-0.093 0.281-0.37 0.607-0.875 1-0.524 0.407-0.941 1.412-1.313 1.969-0.123 0.185 0.183 0.681 0.532 1.187 0.348 0.507 0.75 1.044 0.843 1.25 0.186 0.409 0.169 0.765 0.031 1.126-0.024 0.064-0.092 0.124-0.124 0.187 6.664-1.037 11.812-6.596 11.812-13.281 0-7.417-6.313-13.5-14.031-13.5-1.343-0.0002-2.643 0.2508-3.875 0.594z"/><path id="path6612" style="color:#000000;fill:url(#linearGradient2183)" d="m21.094 11.094c0.01 0.008 0.02 0.023 0.031 0.031 0.381 0.046 0.652 0.292 0.813 0.656 0.16 0.364 0.221 0.855 0.25 1.375 0.056 1.041-0.064 2.236 0 2.938 0.062 0.69 0.874 0.836 0.937 1.531 0.04 0.443-0.096 0.729-0.156 1-0.061 0.271-0.046 0.541 0.219 0.937 0.383 0.576 0.761 0.783 0.843 1 0.082 0.218-0.132 0.431-0.906 1.032 0 0-0.451 0.432-0.937 0.968-0.487 0.537-1.025 1.168-1.126 1.563 0.162 0.432 1.027 1.104 1.907 1.719 0.635 0.444 1.079 0.725 1.5 1 2.612-3.575 4.984-7.089 12.125-8.469-1.976-4.571-6.625-7.781-12.094-7.781-1.192 0-2.307 0.214-3.406 0.5z"/><path id="path6600" sodipodi:nodetypes="cscscssssssscscsssssssssscsssssssc" style="stroke-linejoin:round;stroke:url(#linearGradient2189);stroke-linecap:round;fill:none" d="m22.688 7.125c-0.201 0.1509-0.374 0.3273-0.563 0.4688-1.252 0.9389-1.844 1.6562-1.844 1.6562s0.058 0.3393 0.188 0.75c0.129 0.411 0.184 0.53 0.515 0.765 0.381 0.046 0.793 0.652 0.954 1.016 0.16 0.364 0.221 0.855 0.25 1.375 0.056 1.041-0.175 2.944 0.078 3.157 0.419 0.354 0.796 0.617 0.859 1.312 0.04 0.443-0.074 0.735-0.156 1-0.123 0.396 0.048 0.51 0.312 0.906 0.384 0.576 0.749 0.633 0.75 1.031 0.001 0.306-0.038 0.603-0.812 1.204 0 0-0.467 0.338-0.953 0.875-0.486 0.536-1.024 1.105-1.204 1.484 0.397 0.353 1.137 0.963 2.016 1.578 0.88 0.614 1.792 1.198 2.079 1.406 0.992 0.722 2.1 1.343 2.281 1.735 0.262 0.569 0.155 0.782 0.03 1.094-0.109 0.275-0.368 0.621-0.873 1.015-0.524 0.407-0.943 1.271-1.189 1.672-0.116 0.189 0.183 0.681 0.532 1.187 0.348 0.507 0.75 1.044 0.843 1.25 0.186 0.409 0.169 0.765 0.031 1.126-0.137 0.36-0.341 0.783-0.656 1.093-0.351 0.347-0.558 0.561-0.937 0.844 2.507 0 3.724 1.464 7.687 0.406 4.001-1.068 2.432-4.708 3.906-6.125 1.475-1.417 5.813-2.622 5.813-5.031s-1.965-3.642-2-6c-0.062-4.229-2.544-4.05-3.969-7.219-1.115-2.48 0.525-5.7942-2.718-7.3748-3.679-1.7926-3.78 0.4723-8.782 0.5938-0.983 0.0239-1.701-0.1302-2.468-0.25z"/><path id="path2187" sodipodi:nodetypes="ccssssssssc" style="stroke-linejoin:round;stroke:#4c0901;stroke-linecap:round;fill:none" d="m23.5 39.5c0.01 0.093 0.071 0.212 0.094 0.312 0.333-0.085 0.763-0.312 1.031-0.312 2.753 0 4.867 1.63 9.219 0.469 4.393-1.173 2.662-5.163 4.281-6.719s6.375-2.855 6.375-5.5-2.149-4.004-2.188-6.594c-0.067-4.643-2.81-4.458-4.374-7.937-1.226-2.724 0.592-6.3585-2.969-8.094-4.04-1.9684-4.727 0.5229-10.219 0.6562-0.415 0.0101-0.574 0.0159-0.941-0.0034"/></g><rect id="rect2277" style="stroke-linejoin:round;fill-rule:evenodd;stroke:#000;stroke-linecap:round;stroke-width:.71558;fill:#fff" rx=".70560" ry=".67161" height="13.432" width="13.855" y="17.346" x="16.645"/><path id="text1363" style="fill:#c00" d="m24.447 25.973h-2.721v-0.367c0-0.409 0.082-0.77 0.248-1.084 0.166-0.32 0.515-0.724 1.048-1.212l0.482-0.434c0.287-0.26 0.495-0.504 0.626-0.734 0.136-0.229 0.204-0.458 0.204-0.688 0-0.349-0.121-0.621-0.362-0.815-0.241-0.2-0.578-0.3-1.01-0.3-0.407 0-0.847 0.085-1.319 0.255-0.473 0.164-0.965 0.411-1.478 0.74v-2.349c0.608-0.209 1.164-0.364 1.666-0.464 0.503-0.099 0.987-0.149 1.455-0.149 1.226 0 2.161 0.249 2.804 0.748 0.643 0.494 0.965 1.217 0.965 2.169 0 0.489-0.098 0.928-0.294 1.317-0.196 0.384-0.53 0.798-1.003 1.242l-0.482 0.427c-0.342 0.309-0.566 0.558-0.671 0.748-0.106 0.184-0.158 0.389-0.158 0.613v0.337m-2.721 1.107h2.721v2.664h-2.721v-2.664"/></svg>
