<?xml version="1.0" encoding="UTF-8" standalone="no"?>
<!-- Created with Inkscape (http://www.inkscape.org/) -->
<svg id="svg2" xmlns:rdf="http://www.w3.org/1999/02/22-rdf-syntax-ns#" xmlns="http://www.w3.org/2000/svg" sodipodi:docname="seahorse-key-ssh.svg" xmlns:sodipodi="http://inkscape.sourceforge.net/DTD/sodipodi-0.dtd" height="48px" sodipodi:version="0.32" width="48px" xmlns:cc="http://web.resource.org/cc/" xmlns:xlink="http://www.w3.org/1999/xlink" sodipodi:docbase="/data/Desktop/icons/scaleable" xmlns:dc="http://purl.org/dc/elements/1.1/">
 <defs id="defs4">
  <linearGradient id="linearGradient2119">
   <stop id="stop2121" style="stop-color:#d2b32a;stop-opacity:.56731" offset="0"/>
   <stop id="stop2378" style="stop-color:#ffeb3f;stop-opacity:.72157" offset=".11"/>
   <stop id="stop2123" style="stop-color:#fff493;stop-opacity:.23077" offset="1"/>
  </linearGradient>
  <linearGradient id="linearGradient1481" y2="459.01" xlink:href="#linearGradient2119" gradientUnits="userSpaceOnUse" x2="564.29" gradientTransform="matrix(.092745 0 0 .098484 -8.4773 -25.387)" y1="459.01" x1="333.57"/>
  <linearGradient id="linearGradient1483" y2="504.34" xlink:href="#linearGradient2119" gradientUnits="userSpaceOnUse" x2="567" gradientTransform="matrix(.092745 0 0 .098484 -8.4773 -25.387)" y1="504.34" x1="336.16"/>
  <radialGradient id="radialGradient1485" gradientUnits="userSpaceOnUse" cy="515.08" cx="208.84" gradientTransform="matrix(.18545 0.00499 -.0034938 .14642 -26.528 -50.894)" r="90">
   <stop id="stop2450" style="stop-color:#c8a20b" offset="0"/>
   <stop id="stop2452" style="stop-color:#f7e87b" offset="1"/>
  </radialGradient>
  <linearGradient id="linearGradient1534" y2="14.158" gradientUnits="userSpaceOnUse" x2="24.842" gradientTransform="matrix(.66081 0 0 .65731 41.899 7.9371)" y1="32.286" x1="29.87">
   <stop id="stop2208" style="stop-color:#777973" offset="0"/>
   <stop id="stop2210" style="stop-color:#cbccca" offset="1"/>
  </linearGradient>
  <linearGradient id="linearGradient1536" y2="32.498" gradientUnits="userSpaceOnUse" x2="21.305" gradientTransform="matrix(.66081 0 0 .65731 41.899 7.9371)" y1="9.5865" x1="8.6529">
   <stop id="stop5178" style="stop-color:#a2a59c" offset="0"/>
   <stop id="stop5180" style="stop-color:#535750" offset="1"/>
  </linearGradient>
  <linearGradient id="linearGradient1538" y2="34.226" gradientUnits="userSpaceOnUse" x2="22.441" gradientTransform="matrix(.65576 0 0 .66651 42.052 8.0213)" y1="9.583" x1="23.119">
   <stop id="stop2200" style="stop-color:#748f48" offset="0"/>
   <stop id="stop2202" style="stop-color:#1f2816" offset="1"/>
  </linearGradient>
  <linearGradient id="linearGradient1540" y2="30.343" gradientUnits="userSpaceOnUse" x2="26.178" gradientTransform="matrix(.68854 0 0 .68326 41.265 7.8936)" y1="9.1463" x1="11.048">
   <stop id="stop4256" style="stop-color:#616161" offset="0"/>
   <stop id="stop4258" style="stop-color:#a0a0a0" offset="1"/>
  </linearGradient>
  <linearGradient id="linearGradient1542" y2="49.731" gradientUnits="userSpaceOnUse" x2="48.845" gradientTransform="matrix(.65812 0 0 .65423 41.981 8.6772)" y1="19.637" x1="20.339">
   <stop id="stop2240" style="stop-color:#fff" offset="0"/>
   <stop id="stop2242" style="stop-color:#fff;stop-opacity:0" offset="1"/>
  </linearGradient>
  <linearGradient id="linearGradient1544" y2="26.729" gradientUnits="userSpaceOnUse" x2="17.199" gradientTransform="matrix(.85320 0 0 .61846 40.447 9.7989)" y1="1.6538" x1="11.492">
   <stop id="stop2669" style="stop-color:#fff" offset="0"/>
   <stop id="stop2671" style="stop-color:#fcfcff;stop-opacity:0" offset="1"/>
  </linearGradient>
  <radialGradient id="radialGradient1546" gradientUnits="userSpaceOnUse" cy="39.51" cx="37.496" gradientTransform="matrix(.69021 0 0 .50923 41.194 14.64)" r="2.51">
   <stop id="stop6449" style="stop-color:#777973" offset="0"/>
   <stop id="stop6451" style="stop-color:#777973;stop-opacity:0" offset="1"/>
  </radialGradient>
  <linearGradient id="linearGradient1548" y2="38" gradientUnits="userSpaceOnUse" x2="36.452" gradientTransform="matrix(.69021 0 0 .51404 41.194 14.45)" y1="42.319" x1="40.253">
   <stop id="stop2216" style="stop-color:#a9aaa7" offset="0"/>
   <stop id="stop2218" style="stop-color:#676964" offset="1"/>
  </linearGradient>
 </defs>
 <sodipodi:namedview id="base" gridspacingy="1.0000000px" gridspacingx="1.0000000px" borderopacity="1.0000000" showgrid="false" showguides="true" bordercolor="#666666" gridoriginy="0.0000000px" gridoriginx="0.0000000px" pagecolor="#ffffff" gridtolerance="0.40000000px" gridempspacing="10" showborder="true"/>
 <metadata id="metadata7">
  <rdf:RDF>
   <cc:Work rdf:about="">
    <dc:format>image/svg+xml</dc:format>
    <dc:type rdf:resource="http://purl.org/dc/dcmitype/StillImage"/>
    <cc:license rdf:resource="http://creativecommons.org/licenses/LGPL/2.1/"/>
   </cc:Work>
   <cc:License rdf:about="http://creativecommons.org/licenses/LGPL/2.1/">
    <cc:permits rdf:resource="http://web.resource.org/cc/Reproduction"/>
    <cc:permits rdf:resource="http://web.resource.org/cc/Distribution"/>
    <cc:requires rdf:resource="http://web.resource.org/cc/Notice"/>
    <cc:permits rdf:resource="http://web.resource.org/cc/DerivativeWorks"/>
    <cc:requires rdf:resource="http://web.resource.org/cc/ShareAlike"/>
    <cc:requires rdf:resource="http://web.resource.org/cc/SourceCode"/>
   </cc:License>
  </rdf:RDF>
 </metadata>
 <g id="layer1">
  <g id="g1471" transform="translate(-2.3405 -5.3004)">
   <path id="path1306" sodipodi:nodetypes="csscccccccccccscccccccccccccc" style="fill:#dabf3c;fill-rule:evenodd" d="m13.781 11.719c-5.3387 0-9.656 4.533-9.656 10.125 0 5.591 4.3173 10.125 9.656 10.125 4.005 0 7.438-2.551 8.907-6.188h1.687l2.531-1.406 0.563 1.406 7-0.406 0.969-1.469 1.093 1.469h1.781l0.969-2.281 1.094 1.687h1.625c0.012 0 0.023 0.009 0.031 0 0.009-0.008 0.032-0.018 0.031-0.031l3.126-3-1.25-3.562-21.313-0.438c-1.5-3.56-4.892-6.031-8.844-6.031zm-3.8748 6.281h0.4058c1.07 0 1.938 0.904 1.938 2v3.219c0 1.096-0.868 1.969-1.938 1.969h-0.4058c-1.0698 0-1.9374-0.873-1.9374-1.969v-3.219c0-1.096 0.8676-2 1.9374-2z"/>
   <path id="rect2116" sodipodi:nodetypes="ccccccccc" style="fill:url(#linearGradient1481);fill-rule:evenodd" d="m22.504 18.755l21.309 0.314c0.025 0 0.044 0.017 0.044 0.037v0.99c0 0.021-0.019 0.038-0.044 0.038l-21.309-0.314c-0.024 0-0.044-0.017-0.044-0.038v-0.99c0-0.02 0.02-0.037 0.044-0.037z"/>
   <path id="path2363" sodipodi:nodetypes="ccccccccccccccscc" style="fill:url(#linearGradient1483);fill-rule:evenodd" d="m44.109 22.593l-21.372 0.046c-0.021 0-0.037 0.048-0.037 0.111v2.828h1.677l2.522-1.407 0.568 1.407 6.988-0.394 0.988-1.49 1.078 1.49h1.777l0.988-2.277 1.079 1.686h1.646c0.012 0 0.023-0.004 0.032-0.012 0.008-0.008 0.014-0.021 0.014-0.034 0 0 1.126-1.072 2.052-1.954z"/>
   <g id="g3586" transform="matrix(1.0149 0 0 1.0149 -.20474 -.32478)">
    <path id="path2380" style="fill:url(#radialGradient1485);fill-rule:evenodd" d="m13.75 12.375c-4.9861 0-9.0312 4.228-9.0312 9.437 0 5.21 4.0451 9.438 9.0312 9.438 4.986 0 9.031-4.228 9.031-9.438 0-5.209-4.045-9.437-9.031-9.437zm-3.8438 5.625h0.4058c1.07 0 1.938 0.904 1.938 2v3.219c0 1.096-0.868 1.969-1.938 1.969h-0.4058c-1.0698 0-1.9374-0.873-1.9374-1.969v-3.219c0-1.096 0.8676-2 1.9374-2z"/>
    <path id="path2440" style="opacity:.45405;fill:#c4a00f;fill-rule:evenodd" d="m21.594 17.156c-4.515 0.337-5.745 2.589-9.344 5.032v1.031c0 1.096-0.868 1.969-1.938 1.969h-0.4058c-0.6681 0-1.1847-0.381-1.5312-0.907-1.09 0.403-2.1068 0.604-3.125 0.75 1.2597 3.628 4.5946 6.219 8.5 6.219 4.986 0 9.031-4.228 9.031-9.438 0-1.694-0.438-3.28-1.187-4.656z"/>
   </g>
   <path id="rect2420" style="stroke-linejoin:round;stroke:#ac8b0b;fill:none" d="m9.8951 18.013h0.4129c1.07 0 1.932 0.883 1.932 1.979v3.22c0 1.096-0.862 1.979-1.932 1.979h-0.4129c-1.0699 0-1.9312-0.883-1.9312-1.979v-3.22c0-1.096 0.8613-1.979 1.9312-1.979z"/>
   <path id="path3594" sodipodi:nodetypes="csscccccccccccscccccccccccccc" style="stroke:#ac8b0b;fill:none" d="m13.781 11.719c-5.3387 0-9.656 4.533-9.656 10.125 0 5.591 4.3173 10.125 9.656 10.125 4.005 0 7.438-2.551 8.907-6.188h1.687l2.531-1.906 1.063 1.906 6-0.406 1.469-2.969 1.593 2.969h1.281l0.969-2.781 1.594 2.187h1.125c0.012 0 0.023 0.009 0.031 0 0.009-0.008 0.032-0.018 0.031-0.031l3.126-3-1.25-3.562-21.313-0.438c-1.5-3.56-4.892-6.031-8.844-6.031zm-3.8748 6.281h0.4058c1.07 0 1.938 0.904 1.938 2v3.219c0 1.096-0.868 1.969-1.938 1.969h-0.4058c-1.0698 0-1.9374-0.873-1.9374-1.969v-3.219c0-1.096 0.8676-2 1.9374-2z"/>
  </g>
  <g id="g1510" transform="translate(-28.017 6.333)">
   <rect id="rect1316" style="stroke-linejoin:round;fill-rule:evenodd;stroke:url(#linearGradient1536);stroke-linecap:round;stroke-width:.69021;fill:url(#linearGradient1534)" rx="3.3487" ry="3.3487" height="26.917" width="31.057" y="10.262" x="42.231"/>
   <rect id="rect1314" style="stroke-linejoin:round;fill-rule:evenodd;stroke:url(#linearGradient1540);stroke-linecap:round;stroke-width:.68673;fill:url(#linearGradient1538)" rx="1.1355" ry="1.1355" height="20.031" width="25.598" y="13.01" x="44.987"/>
   <g id="g2286" style="opacity:.25568" transform="matrix(.69021 0 0 .69021 41.194 7.8451)">
    <path id="path1345" style="stroke:#181f10;stroke-width:1.0007;fill:none" d="m8.0152 11.5h31.979"/>
    <path id="path2264" style="stroke:#181f10;stroke-width:1.0007;fill:none" d="m8.0152 13.5h31.979"/>
    <path id="path2266" style="stroke:#181f10;stroke-width:1.0007;fill:none" d="m8.0152 15.5h31.979"/>
    <path id="path2268" style="stroke:#181f10;stroke-width:1.0007;fill:none" d="m8.0152 17.5h31.979"/>
    <path id="path2270" style="stroke:#181f10;stroke-width:1.0007;fill:none" d="m8.0152 19.5h31.979"/>
    <path id="path2272" style="stroke:#181f10;stroke-width:1.0007;fill:none" d="m8.0152 21.5h31.979"/>
    <path id="path2274" style="stroke:#181f10;stroke-width:1.0007;fill:none" d="m8.0152 23.5h31.979"/>
    <path id="path2276" style="stroke:#181f10;stroke-width:1.0007;fill:none" d="m8.0152 25.5h31.979"/>
    <path id="path2278" style="stroke:#181f10;stroke-width:1.0007;fill:none" d="m8.0152 27.5h31.979"/>
    <path id="path2280" style="stroke:#181f10;stroke-width:1.0007;fill:none" d="m8.0152 29.5h31.979"/>
    <path id="path2282" style="stroke:#181f10;stroke-width:1.0007;fill:none" d="m8.0152 31.5h31.979"/>
    <path id="path2284" style="stroke:#181f10;stroke-width:1.0007;fill:none" d="m8.0152 33.5h31.979"/>
   </g>
   <rect id="rect2232" style="opacity:.76374;stroke-linejoin:round;stroke:url(#linearGradient1542);stroke-linecap:round;stroke-width:.69021;fill:none" rx="2.6166" ry="2.6166" height="25.538" width="29.641" y="10.952" x="42.957"/>
   <path id="text1340" sodipodi:nodetypes="ccccccccccccc" style="stroke-opacity:.27869;stroke:#6ed66e;stroke-width:.69021pt;fill:#fff" d="m49.217 22.118v-2.108l6.202 2.803v1.281l-6.202 2.821v-2.102l4.807-1.279-4.807-1.416zm13.04 6.92v1.363h-7.526v-1.363h7.526"/>
   <path id="path2443" sodipodi:nodetypes="ccccccc" style="opacity:.53143;fill:url(#linearGradient1544);fill-rule:evenodd" d="m46.457 13.367c-0.362 0-1.087 0.131-1.087 0.708l0.082 11.4c12.197-0.665 9.749-5.699 24.73-8.22l-0.043-2.997c-0.054-0.776-0.372-0.85-1.111-0.846l-22.571-0.045z"/>
   <rect id="rect1340" style="opacity:.71429;stroke-linejoin:round;stroke:#000;stroke-linecap:round;stroke-width:1.3804;fill:none" rx=".081260" ry=".081260" height="17.985" width="23.485" y="14.044" x="46.018"/>
   <rect id="rect5025" style="fill-rule:evenodd;stroke:url(#linearGradient1548);stroke-linecap:round;stroke-width:.69021;fill:url(#radialGradient1546)" rx=".24723" ry=".38667" height="2.0423" width="2.7747" y="33.738" x="65.686"/>
   <rect id="rect6458" style="fill:#93d94c;fill-rule:evenodd" rx=".38667" ry=".38667" height="1.3804" width="1.3804" y="34.073" x="63.28"/>
   <path id="path2300" sodipodi:rx="0.56250000" sodipodi:ry="0.56250000" style="color:#000000;fill:#fff" sodipodi:type="arc" d="m28.875 38.75a0.5625 0.5625 0 1 1 -1.125 0 0.5625 0.5625 0 1 1 1.125 0z" transform="matrix(.69021 0 0 .69021 44.213 7.802)" sodipodi:cy="38.750000" sodipodi:cx="28.312500"/>
  </g>
 </g>
</svg>
