<?xml version="1.0" encoding="UTF-8" standalone="no"?>
<!-- Created with Inkscape (http://www.inkscape.org/) -->
<svg id="svg2" xmlns:rdf="http://www.w3.org/1999/02/22-rdf-syntax-ns#" xmlns="http://www.w3.org/2000/svg" sodipodi:docname="seahorse-key-personal.svg" xmlns:sodipodi="http://inkscape.sourceforge.net/DTD/sodipodi-0.dtd" height="48px" sodipodi:version="0.32" width="48px" xmlns:cc="http://web.resource.org/cc/" xmlns:xlink="http://www.w3.org/1999/xlink" sodipodi:docbase="/data/Desktop/icons/scaleable" xmlns:dc="http://purl.org/dc/elements/1.1/">
 <defs id="defs4">
  <linearGradient id="linearGradient2119">
   <stop id="stop2121" style="stop-color:#d2b32a;stop-opacity:.56731" offset="0"/>
   <stop id="stop2378" style="stop-color:#ffeb3f;stop-opacity:.72157" offset=".11"/>
   <stop id="stop2123" style="stop-color:#fff493;stop-opacity:.23077" offset="1"/>
  </linearGradient>
  <linearGradient id="linearGradient1359" y2="459.01" xlink:href="#linearGradient2119" gradientUnits="userSpaceOnUse" x2="564.29" gradientTransform="matrix(.092745 0 0 .098484 -8.4773 -25.387)" y1="459.01" x1="333.57"/>
  <linearGradient id="linearGradient1361" y2="504.34" xlink:href="#linearGradient2119" gradientUnits="userSpaceOnUse" x2="567" gradientTransform="matrix(.092745 0 0 .098484 -8.4773 -25.387)" y1="504.34" x1="336.16"/>
  <radialGradient id="radialGradient1363" gradientUnits="userSpaceOnUse" cy="515.08" cx="208.84" gradientTransform="matrix(.18821 .0050643 -.0035459 .14860 -27.128 -51.976)" r="90">
   <stop id="stop2450" style="stop-color:#c8a20b" offset="0"/>
   <stop id="stop2452" style="stop-color:#f7e87b" offset="1"/>
  </radialGradient>
  <linearGradient id="linearGradient1372" y2="35.803" xlink:href="#linearGradient3824" gradientUnits="userSpaceOnUse" y1="29.553" gradientTransform="translate(-12.418 -7)" x2="30.936" x1="30.936"/>
  <linearGradient id="linearGradient1366" y2="35.74" xlink:href="#linearGradient4356" gradientUnits="userSpaceOnUse" y1="36.39" gradientTransform="matrix(-.97768 .21008 .21008 .97768 41.806 -11.119)" x2="21.408" x1="22.687"/>
  <linearGradient id="linearGradient4366" y2="35.74" xlink:href="#linearGradient4356" gradientUnits="userSpaceOnUse" y1="36.39" gradientTransform="matrix(-.97768 .21008 .21008 .97768 55.11 -3.9452)" x2="21.408" x1="22.687"/>
  <linearGradient id="linearGradient4362" y2="36.218" xlink:href="#linearGradient4356" gradientUnits="userSpaceOnUse" y1="35.818" gradientTransform="matrix(.98338 .18159 -.18159 .98338 6.2317 -2.6515)" x2="22.627" x1="20.662"/>
  <radialGradient id="radialGradient4171" gradientUnits="userSpaceOnUse" cx="29.345" cy="17.064" r="9.1621" gradientTransform="matrix(0.788 3.8776e-16 -3.8776e-16 0.788 6.2212 3.6176)">
   <stop id="stop3802" style="stop-color:#f4d9b1" offset="0"/>
   <stop id="stop3804" style="stop-color:#df9725" offset="1"/>
  </radialGradient>
  <radialGradient id="radialGradient4169" cx="28.09" gradientUnits="userSpaceOnUse" cy="27.203" r="13.565" gradientTransform="matrix(1.2976 2.8812e-16 -1.9647e-16 .88483 -8.3585 4.9405)">
   <stop id="stop4165" style="stop-color:#3b74bc" offset="0"/>
   <stop id="stop4167" style="stop-color:#2d5990" offset="1"/>
  </radialGradient>
  <linearGradient id="linearGradient3830" y2="35.803" xlink:href="#linearGradient3824" gradientUnits="userSpaceOnUse" y1="29.553" x2="30.936" x1="30.936"/>
  <radialGradient id="radialGradient3822" cx="31.113" gradientUnits="userSpaceOnUse" cy="19.009" r="8.6621">
   <stop id="stop3818" offset="0"/>
   <stop id="stop3820" style="stop-opacity:0" offset="1"/>
  </radialGradient>
  <linearGradient id="linearGradient3824">
   <stop id="stop3826" style="stop-color:#fff" offset="0"/>
   <stop id="stop3828" style="stop-color:#c9c9c9" offset="1"/>
  </linearGradient>
  <linearGradient id="linearGradient4356">
   <stop id="stop4358" offset="0"/>
   <stop id="stop4360" style="stop-opacity:0" offset="1"/>
  </linearGradient>
 </defs>
 <sodipodi:namedview id="base" gridspacingy="1.0000000px" gridspacingx="1.0000000px" borderopacity="1.0000000" showgrid="true" showguides="true" bordercolor="#666666" gridoriginy="0.0000000px" gridoriginx="0.0000000px" pagecolor="#ffffff" gridtolerance="0.40000000px" gridempspacing="10" showborder="true"/>
 <metadata id="metadata7">
  <rdf:RDF>
   <cc:Work rdf:about="">
    <dc:format>image/svg+xml</dc:format>
    <dc:type rdf:resource="http://purl.org/dc/dcmitype/StillImage"/>
    <cc:license rdf:resource="http://creativecommons.org/licenses/LGPL/2.1/"/>
   </cc:Work>
   <cc:License rdf:about="http://creativecommons.org/licenses/LGPL/2.1/">
    <cc:permits rdf:resource="http://web.resource.org/cc/Reproduction"/>
    <cc:permits rdf:resource="http://web.resource.org/cc/Distribution"/>
    <cc:requires rdf:resource="http://web.resource.org/cc/Notice"/>
    <cc:permits rdf:resource="http://web.resource.org/cc/DerivativeWorks"/>
    <cc:requires rdf:resource="http://web.resource.org/cc/ShareAlike"/>
    <cc:requires rdf:resource="http://web.resource.org/cc/SourceCode"/>
   </cc:License>
  </rdf:RDF>
 </metadata>
 <g id="layer1">
  <g id="g1350" transform="translate(-1 -6)">
   <path id="path1306" sodipodi:nodetypes="csscccccccccccscccccccccccccc" style="fill:#dabf3c;fill-rule:evenodd" d="m13.781 11.719c-5.3387 0-9.656 4.533-9.656 10.125 0 5.591 4.3173 10.125 9.656 10.125 4.005 0 7.438-2.551 8.907-6.188h1.687l2.531-1.406 0.563 1.406 7-0.406 0.969-1.469 1.093 1.469h1.781l0.969-2.281 1.094 1.687h1.625c0.012 0 0.023 0.009 0.031 0 0.009-0.008 0.032-0.018 0.031-0.031l3.126-3-1.25-3.562-21.313-0.438c-1.5-3.56-4.892-6.031-8.844-6.031zm-3.8748 6.281h0.4058c1.07 0 1.938 0.904 1.938 2v3.219c0 1.096-0.868 1.969-1.938 1.969h-0.4058c-1.0698 0-1.9374-0.873-1.9374-1.969v-3.219c0-1.096 0.8676-2 1.9374-2z"/>
   <path id="rect2116" sodipodi:nodetypes="ccccccccc" style="fill:url(#linearGradient1359);fill-rule:evenodd" d="m22.504 18.755l21.309 0.314c0.025 0 0.044 0.017 0.044 0.037v0.99c0 0.021-0.019 0.038-0.044 0.038l-21.309-0.314c-0.024 0-0.044-0.017-0.044-0.038v-0.99c0-0.02 0.02-0.037 0.044-0.037z"/>
   <path id="path2363" sodipodi:nodetypes="ccccccccccccccscc" style="fill:url(#linearGradient1361);fill-rule:evenodd" d="m44.109 22.593l-21.372 0.046c-0.021 0-0.037 0.048-0.037 0.111v2.828h1.677l2.522-1.407 0.568 1.407 6.988-0.394 0.988-1.49 1.078 1.49h1.777l0.988-2.277 1.079 1.686h1.646c0.012 0 0.023-0.004 0.032-0.012 0.008-0.008 0.014-0.021 0.014-0.034 0 0 1.126-1.072 2.052-1.954z"/>
   <path id="path2380" style="fill:url(#radialGradient1363);fill-rule:evenodd" d="m13.75 12.234c-5.0604 0-9.1657 4.291-9.1657 9.579 0 5.287 4.1053 9.578 9.1657 9.578 5.06 0 9.166-4.291 9.166-9.578 0-5.288-4.106-9.579-9.166-9.579zm-3.901 5.709h0.412c1.086 0 1.967 0.917 1.967 2.03v3.267c0 1.112-0.881 1.998-1.967 1.998h-0.412c-1.0858 0-1.9663-0.886-1.9663-1.998v-3.267c0-1.113 0.8805-2.03 1.9663-2.03z"/>
   <path id="path2440" style="opacity:.45405;fill:#c4a00f;fill-rule:evenodd" d="m21.711 17.087c-4.582 0.341-5.831 2.627-9.483 5.106v1.047c0 1.112-0.881 1.998-1.967 1.998h-0.412c-0.6781 0-1.2024-0.387-1.554-0.92-1.1062 0.409-2.1382 0.613-3.1716 0.761 1.2785 3.682 4.663 6.312 8.6266 6.312 5.06 0 9.166-4.291 9.166-9.578 0-1.721-0.445-3.33-1.205-4.726z"/>
   <path id="rect2420" style="stroke-linejoin:round;stroke:#ac8b0b;fill:none" d="m9.8951 18.013h0.4129c1.07 0 1.932 0.883 1.932 1.979v3.22c0 1.096-0.862 1.979-1.932 1.979h-0.4129c-1.0699 0-1.9312-0.883-1.9312-1.979v-3.22c0-1.096 0.8613-1.979 1.9312-1.979z"/>
   <path id="path3594" sodipodi:nodetypes="csscccccccccccscccccccccccccc" style="stroke:#ac8b0b;fill:none" d="m13.781 11.719c-5.3387 0-9.656 4.533-9.656 10.125 0 5.591 4.3173 10.125 9.656 10.125 4.005 0 7.438-2.551 8.907-6.188h1.687l2.531-1.906 1.063 1.906 6-0.406 1.469-2.969 1.593 2.969h1.281l0.969-2.781 1.594 2.187h1.125c0.012 0 0.023 0.009 0.031 0 0.009-0.008 0.032-0.018 0.031-0.031l3.126-3-1.25-3.562-21.313-0.438c-1.5-3.56-4.892-6.031-8.844-6.031zm-3.8748 6.281h0.4058c1.07 0 1.938 0.904 1.938 2v3.219c0 1.096-0.868 1.969-1.938 1.969h-0.4058c-1.0698 0-1.9374-0.873-1.9374-1.969v-3.219c0-1.096 0.8676-2 1.9374-2z"/>
  </g>
  <g id="g1467" transform="translate(1.4699 -.13604)">
   <g id="g1469">
    <path id="path4173" style="color:#000000;fill-rule:evenodd;fill:url(#linearGradient1372)" d="m22.584 27.035h4.243l-2.475-2.298-0.531 0.707-0.53-0.531-0.707 2.122z"/>
    <path id="path4370" sodipodi:nodetypes="cccc" style="opacity:.22785;color:#000000;fill-rule:evenodd;fill:url(#linearGradient1366)" d="m27.454 32.743c1.231-0.581 1.804-2.002 1.804-2.002-0.959-4.043-3.976-6.843-3.976-6.843s2.464 6.343 2.172 8.845z"/>
   </g>
   <g id="layer2">
    <path id="path4308" sodipodi:nodetypes="cczcczc" style="stroke-linejoin:round;fill-rule:evenodd;color:#000000;stroke:#204a87;stroke-linecap:round;stroke-width:1px;fill:url(#radialGradient4169)" d="m25.986 41.636h10.607c3.005 0 5.98-1.102 7.071-4.243 1.035-2.982 0.177-8.662-6.541-13.258h-12.551c-6.718 4.243-7.557 10.045-6.01 13.435 1.575 3.454 4.242 4.066 7.424 4.066z"/>
    <path id="path4310" sodipodi:nodetypes="cccc" style="color:#000000;fill-rule:evenodd;fill:url(#linearGradient3830)" d="m26.693 25.726c3.182 2.829 4.596 13.082 4.596 13.082s1.415-10.253 3.89-13.259l-8.486 0.177z"/>
    <path id="path4312" sodipodi:nodetypes="cccc" style="color:#000000;fill-rule:evenodd;fill:#729fcf" d="m28.973 26.787s-2.152 1.66-1.966 3.66c-2.041-1.8-2.1-5.251-2.1-5.251l4.066 1.591z"/>
    <path id="path4314" sodipodi:nodetypes="cczcczc" style="opacity:.21519;stroke-linejoin:round;color:#000000;stroke:#fff;stroke-linecap:round;stroke-width:1px;fill:none" d="m25.915 40.594l10.493-0.022c2.64 0 5.253-0.968 6.211-3.727 0.91-2.62-0.094-7.608-5.995-11.646l-11.525-0.243c-5.9 3.727-7.042 8.823-5.662 12.044 1.381 3.221 3.396 3.572 6.478 3.594z"/>
    <path id="path4316" sodipodi:nodetypes="cccc" style="color:#000000;fill-rule:evenodd;fill:#729fcf" d="m33.411 26.787s2.151 1.66 1.966 3.66c2.041-1.8 2.1-5.251 2.1-5.251l-4.066 1.591z"/>
    <path id="path4318" sodipodi:rx="8.6620579" sodipodi:ry="8.6620579" style="color:#000000;fill-rule:evenodd;fill:url(#radialGradient3822)" sodipodi:type="arc" d="m39.775 19.009a8.6621 8.6621 0 1 1 -17.324 0 8.6621 8.6621 0 1 1 17.324 0z" transform="translate(-0.125 3.5)" sodipodi:cy="19.008621" sodipodi:cx="31.112698"/>
    <path id="path4320" sodipodi:rx="8.6620579" sodipodi:ry="8.6620579" style="stroke-linejoin:round;fill-rule:evenodd;color:#000000;stroke:#c17d11;stroke-linecap:round;stroke-width:1px;fill:url(#radialGradient4171)" sodipodi:type="arc" d="m39.775 19.009a8.6621 8.6621 0 1 1 -17.324 0 8.6621 8.6621 0 1 1 17.324 0z" sodipodi:cy="19.008621" sodipodi:cx="31.112698"/>
    <path id="path4322" sodipodi:rx="8.6620579" sodipodi:ry="8.6620579" style="opacity:.19620;stroke-linejoin:round;color:#000000;stroke:#fff;stroke-linecap:round;stroke-width:1.1401px;fill:none" sodipodi:type="arc" d="m39.775 19.009a8.6621 8.6621 0 1 1 -17.324 0 8.6621 8.6621 0 1 1 17.324 0z" transform="matrix(.87710 0 0 .87710 3.8239 2.3363)" sodipodi:cy="19.008621" sodipodi:cx="31.112698"/>
    <path id="path4354" sodipodi:nodetypes="cccc" style="opacity:.22785;color:#000000;fill-rule:evenodd;fill:url(#linearGradient4362)" d="m21.852 40.775c-1.248-0.545-1.806-1.858-1.806-1.858 0.841-4.069 3.72-7.046 3.72-7.046s-2.28 6.411-1.914 8.904z"/>
    <path id="path4364" sodipodi:nodetypes="cccc" style="opacity:.22785;color:#000000;fill-rule:evenodd;fill:url(#linearGradient4366)" d="m40.757 39.917c1.232-0.581 1.805-2.002 1.805-2.002-0.959-4.043-3.976-6.843-3.976-6.843s2.464 6.342 2.171 8.845z"/>
   </g>
  </g>
 </g>
</svg>
