<?xml version="1.0" encoding="UTF-8" standalone="no"?>
<!-- Created with Inkscape (http://www.inkscape.org/) -->
<svg id="svg2" xmlns:rdf="http://www.w3.org/1999/02/22-rdf-syntax-ns#" xmlns="http://www.w3.org/2000/svg" sodipodi:docname="seahorse-key.svg" xmlns:sodipodi="http://inkscape.sourceforge.net/DTD/sodipodi-0.dtd" height="48px" sodipodi:version="0.32" width="48px" xmlns:cc="http://web.resource.org/cc/" xmlns:xlink="http://www.w3.org/1999/xlink" sodipodi:docbase="/data/Desktop/icons/scaleable" xmlns:dc="http://purl.org/dc/elements/1.1/">
 <defs id="defs4">
  <linearGradient id="linearGradient2119">
   <stop id="stop2121" style="stop-color:#d2b32a;stop-opacity:.56731" offset="0"/>
   <stop id="stop2378" style="stop-color:#ffeb3f;stop-opacity:.72157" offset=".11"/>
   <stop id="stop2123" style="stop-color:#fff493;stop-opacity:.23077" offset="1"/>
  </linearGradient>
  <linearGradient id="linearGradient2574" y2="504.34" xlink:href="#linearGradient2119" gradientUnits="userSpaceOnUse" x2="567" gradientTransform="matrix(.092745 0 0 .098484 -8.4773 -25.387)" y1="504.34" x1="336.16"/>
  <linearGradient id="linearGradient2577" y2="459.01" xlink:href="#linearGradient2119" gradientUnits="userSpaceOnUse" x2="564.29" gradientTransform="matrix(.092745 0 0 .098484 -8.4773 -25.387)" y1="459.01" x1="333.57"/>
  <radialGradient id="radialGradient3592" gradientUnits="userSpaceOnUse" cy="515.08" cx="208.84" gradientTransform="matrix(.18545 0.00499 -.0034938 .14642 -26.528 -50.894)" r="90">
   <stop id="stop2450" style="stop-color:#c8a20b" offset="0"/>
   <stop id="stop2452" style="stop-color:#f7e87b" offset="1"/>
  </radialGradient>
 </defs>
 <sodipodi:namedview id="base" gridspacingy="1.0000000px" gridspacingx="1.0000000px" borderopacity="1.0000000" showgrid="false" showguides="true" bordercolor="#666666" gridoriginy="0.0000000px" gridoriginx="0.0000000px" pagecolor="#ffffff" gridtolerance="0.40000000px" gridempspacing="10" showborder="true"/>
 <metadata id="metadata7">
  <rdf:RDF>
   <cc:Work rdf:about="">
    <dc:format>image/svg+xml</dc:format>
    <dc:type rdf:resource="http://purl.org/dc/dcmitype/StillImage"/>
    <cc:license rdf:resource="http://creativecommons.org/licenses/LGPL/2.1/"/>
   </cc:Work>
   <cc:License rdf:about="http://creativecommons.org/licenses/LGPL/2.1/">
    <cc:permits rdf:resource="http://web.resource.org/cc/Reproduction"/>
    <cc:permits rdf:resource="http://web.resource.org/cc/Distribution"/>
    <cc:requires rdf:resource="http://web.resource.org/cc/Notice"/>
    <cc:permits rdf:resource="http://web.resource.org/cc/DerivativeWorks"/>
    <cc:requires rdf:resource="http://web.resource.org/cc/ShareAlike"/>
    <cc:requires rdf:resource="http://web.resource.org/cc/SourceCode"/>
   </cc:License>
  </rdf:RDF>
 </metadata>
 <g id="layer1">
  <path id="path1306" sodipodi:nodetypes="csscccccccccccscccccccccccccc" style="fill:#dabf3c;fill-rule:evenodd" d="m13.781 11.719c-5.3387 0-9.656 4.533-9.656 10.125 0 5.591 4.3173 10.125 9.656 10.125 4.005 0 7.438-2.551 8.907-6.188h1.687l2.531-1.406 0.563 1.406 7-0.406 0.969-1.469 1.093 1.469h1.781l0.969-2.281 1.094 1.687h1.625c0.012 0 0.023 0.009 0.031 0 0.009-0.008 0.032-0.018 0.031-0.031l3.126-3-1.25-3.562-21.313-0.438c-1.5-3.56-4.892-6.031-8.844-6.031zm-3.8748 6.281h0.4058c1.07 0 1.938 0.904 1.938 2v3.219c0 1.096-0.868 1.969-1.938 1.969h-0.4058c-1.0698 0-1.9374-0.873-1.9374-1.969v-3.219c0-1.096 0.8676-2 1.9374-2z"/>
  <path id="rect2116" sodipodi:nodetypes="ccccccccc" style="fill:url(#linearGradient2577);fill-rule:evenodd" d="m22.504 18.755l21.309 0.314c0.025 0 0.044 0.017 0.044 0.037v0.99c0 0.021-0.019 0.038-0.044 0.038l-21.309-0.314c-0.024 0-0.044-0.017-0.044-0.038v-0.99c0-0.02 0.02-0.037 0.044-0.037z"/>
  <path id="path2363" sodipodi:nodetypes="ccccccccccccccscc" style="fill:url(#linearGradient2574);fill-rule:evenodd" d="m44.109 22.593l-21.372 0.046c-0.021 0-0.037 0.048-0.037 0.111v2.828h1.677l2.522-1.407 0.568 1.407 6.988-0.394 0.988-1.49 1.078 1.49h1.777l0.988-2.277 1.079 1.686h1.646c0.012 0 0.023-0.004 0.032-0.012 0.008-0.008 0.014-0.021 0.014-0.034 0 0 1.126-1.072 2.052-1.954z"/>
  <g id="g3586" transform="matrix(1.0149 0 0 1.0149 -.20474 -.32478)">
   <path id="path2380" style="fill:url(#radialGradient3592);fill-rule:evenodd" d="m13.75 12.375c-4.9861 0-9.0312 4.228-9.0312 9.437 0 5.21 4.0451 9.438 9.0312 9.438 4.986 0 9.031-4.228 9.031-9.438 0-5.209-4.045-9.437-9.031-9.437zm-3.8438 5.625h0.4058c1.07 0 1.938 0.904 1.938 2v3.219c0 1.096-0.868 1.969-1.938 1.969h-0.4058c-1.0698 0-1.9374-0.873-1.9374-1.969v-3.219c0-1.096 0.8676-2 1.9374-2z"/>
   <path id="path2440" style="opacity:.45405;fill:#c4a00f;fill-rule:evenodd" d="m21.594 17.156c-4.515 0.337-5.745 2.589-9.344 5.032v1.031c0 1.096-0.868 1.969-1.938 1.969h-0.4058c-0.6681 0-1.1847-0.381-1.5312-0.907-1.09 0.403-2.1068 0.604-3.125 0.75 1.2597 3.628 4.5946 6.219 8.5 6.219 4.986 0 9.031-4.228 9.031-9.438 0-1.694-0.438-3.28-1.187-4.656z"/>
  </g>
  <path id="rect2420" style="stroke-linejoin:round;stroke:#ac8b0b;fill:none" d="m9.8951 18.013h0.4129c1.07 0 1.932 0.883 1.932 1.979v3.22c0 1.096-0.862 1.979-1.932 1.979h-0.4129c-1.0699 0-1.9312-0.883-1.9312-1.979v-3.22c0-1.096 0.8613-1.979 1.9312-1.979z"/>
  <path id="path3594" sodipodi:nodetypes="csscccccccccccscccccccccccccc" style="stroke:#ac8b0b;fill:none" d="m13.781 11.719c-5.3387 0-9.656 4.533-9.656 10.125 0 5.591 4.3173 10.125 9.656 10.125 4.005 0 7.438-2.551 8.907-6.188h1.687l2.531-1.906 1.063 1.906 6-0.406 1.469-2.969 1.593 2.969h1.281l0.969-2.781 1.594 2.187h1.125c0.012 0 0.023 0.009 0.031 0 0.009-0.008 0.032-0.018 0.031-0.031l3.126-3-1.25-3.562-21.313-0.438c-1.5-3.56-4.892-6.031-8.844-6.031zm-3.8748 6.281h0.4058c1.07 0 1.938 0.904 1.938 2v3.219c0 1.096-0.868 1.969-1.938 1.969h-0.4058c-1.0698 0-1.9374-0.873-1.9374-1.969v-3.219c0-1.096 0.8676-2 1.9374-2z"/>
 </g>
</svg>
