<?xml version="1.0" encoding="UTF-8" standalone="no"?>
<!-- Created with Inkscape (http://www.inkscape.org/) -->
<svg id="svg3879" xmlns:rdf="http://www.w3.org/1999/02/22-rdf-syntax-ns#" xmlns="http://www.w3.org/2000/svg" height="24" width="24" version="1.0" xmlns:cc="http://creativecommons.org/ns#" xmlns:xlink="http://www.w3.org/1999/xlink" xmlns:dc="http://purl.org/dc/elements/1.1/">
 <defs id="defs3881">
  <linearGradient id="linearGradient3617">
   <stop id="stop3619" style="stop-color:#2e3436" offset="0"/>
   <stop id="stop3621" style="stop-color:#0b0c0d" offset="1"/>
  </linearGradient>
  <linearGradient id="linearGradient4984" y2="247.61" gradientUnits="userSpaceOnUse" x2="-24.687" gradientTransform="matrix(1.0339 0 0 1.0227 49.114 -252.03)" y1="245.85" x1="-24.687">
   <stop id="stop4978" style="stop-color:#555753" offset="0"/>
   <stop id="stop4980" style="stop-color:#808080" offset="1"/>
  </linearGradient>
  <radialGradient id="radialGradient5721-4" xlink:href="#linearGradient5043-9-6-1" gradientUnits="userSpaceOnUse" cy="-120.86" cx="-306.03" gradientTransform="matrix(.48374 .92162 -1.0869 .53973 10.515 359.09)" r="3.0368"/>
  <linearGradient id="linearGradient5043-9-6-1">
   <stop id="stop5045-4-8-8" style="stop-color:#fff" offset="0"/>
   <stop id="stop5047-1-2-6" style="stop-color:#fff;stop-opacity:0" offset="1"/>
  </linearGradient>
  <linearGradient id="linearGradient5719-5" y2="-114.83" xlink:href="#linearGradient5655-9" gradientUnits="userSpaceOnUse" x2="-300.83" gradientTransform="matrix(.52564 0 0 .74897 153.13 104.26)" y1="-126.31" x1="-300.83"/>
  <linearGradient id="linearGradient5655-9">
   <stop id="stop5657-5" style="stop-color:#2e3436" offset="0"/>
   <stop id="stop5659-1" style="stop-color:#707e83;stop-opacity:0" offset="1"/>
  </linearGradient>
  <linearGradient id="linearGradient5758" y2="-36.569" xlink:href="#linearGradient5853" gradientUnits="userSpaceOnUse" y1="-43.842" gradientTransform="matrix(-.78353 0 0 .63823 -176.9 41.23)" x2="-219.25" x1="-219.25"/>
  <linearGradient id="linearGradient5853">
   <stop id="stop5855" style="stop-color:#888a85" offset="0"/>
   <stop id="stop5857" style="stop-color:#555753" offset="1"/>
  </linearGradient>
  <linearGradient id="linearGradient5632" y2="-240.62" gradientUnits="userSpaceOnUse" x2="-23.909" gradientTransform="matrix(.34460 0 0 .65762 31.074 161.6)" y1="-243.1" x1="-25.743">
   <stop id="stop5628" style="stop-color:#babdb6" offset="0"/>
   <stop id="stop5630" style="stop-color:#babdb6;stop-opacity:0" offset="1"/>
  </linearGradient>
  <linearGradient id="linearGradient4977" y2="-282.2" gradientUnits="userSpaceOnUse" x2="-102.95" y1="-282.2" x1="-105.74">
   <stop id="stop4973" style="stop-color:#fff" offset="0"/>
   <stop id="stop4975" style="stop-color:#fff;stop-opacity:0" offset="1"/>
  </linearGradient>
  <linearGradient id="linearGradient4792" y2="282.32" gradientUnits="userSpaceOnUse" x2="-101.28" gradientTransform="matrix(.40916 0 0 .50231 64.795 -139.49)" y1="280.92" x1="-106.91">
   <stop id="stop4788" style="stop-color:#555753" offset="0"/>
   <stop id="stop4790" offset="1"/>
  </linearGradient>
  <linearGradient id="linearGradient5212" y2="-143.92" gradientUnits="userSpaceOnUse" x2="-262.43" y1="-142.89" x1="-304.5">
   <stop id="stop5208" style="stop-color:#fff" offset="0"/>
   <stop id="stop5210" style="stop-color:#dededd;stop-opacity:0" offset="1"/>
  </linearGradient>
  <linearGradient id="linearGradient5394" y2="-141.13" gradientUnits="userSpaceOnUse" x2="-283.8" gradientTransform="matrix(.52812 0 0 .55525 152.93 81.212)" y1="-143.75" x1="-283.8">
   <stop id="stop5390" style="stop-color:#555753" offset="0"/>
   <stop id="stop5392" offset="1"/>
  </linearGradient>
  <radialGradient id="radialGradient5382" gradientUnits="userSpaceOnUse" cy="-153.18" cx="-284.45" gradientTransform="matrix(.39680 .0046216 -.0039183 .50204 114.94 79.306)" r="17.449">
   <stop id="stop5378" style="stop-color:#babdb6" offset="0"/>
   <stop id="stop5380" style="stop-color:#434542" offset="1"/>
  </radialGradient>
  <linearGradient id="linearGradient3623" y2="34.928" xlink:href="#linearGradient3617" gradientUnits="userSpaceOnUse" x2="1.4212" gradientTransform="matrix(1.0323 0 0 .62873 -5.0368 -2.8264)" y1="19.019" x1="1.4212"/>
  <linearGradient id="linearGradient4555-8">
   <stop id="stop4557-5" style="stop-color:#545652" offset="0"/>
   <stop id="stop4559-4" style="stop-color:#80837d" offset="1"/>
  </linearGradient>
  <linearGradient id="linearGradient3017" y2="-51.44" xlink:href="#linearGradient4555-8" gradientUnits="userSpaceOnUse" x2="-257.5" gradientTransform="matrix(1 0 0 .84879 263.58 52.023)" y1="-50.302" x1="-257.51"/>
  <linearGradient id="linearGradient3052" y2="-36.569" xlink:href="#linearGradient5853" gradientUnits="userSpaceOnUse" x2="-219.25" gradientTransform="matrix(.78353 0 0 .63823 182.74 41.269)" y1="-43.842" x1="-219.25"/>
  <linearGradient id="linearGradient3054" y2="-114.83" xlink:href="#linearGradient5655-9" gradientUnits="userSpaceOnUse" x2="-300.83" gradientTransform="matrix(.52564 0 0 .74897 147.28 104.3)" y1="-126.31" x1="-300.83"/>
  <linearGradient id="linearGradient3056" y2="34.928" xlink:href="#linearGradient3617" gradientUnits="userSpaceOnUse" x2="1.4212" gradientTransform="matrix(1.0323 0 0 .62873 -10.883 -2.7881)" y1="19.019" x1="1.4212"/>
  <radialGradient id="radialGradient3058" xlink:href="#linearGradient5043-9-6-1" gradientUnits="userSpaceOnUse" cy="-120.86" cx="-306.03" gradientTransform="matrix(-.48374 .92162 1.0869 .53973 -4.6686 359.13)" r="3.0368"/>
  <linearGradient id="linearGradient3062" y2="-51.44" xlink:href="#linearGradient4555-8" gradientUnits="userSpaceOnUse" x2="-257.5" gradientTransform="matrix(.97520 0 0 .84416 263.06 51.764)" y1="-50.302" x1="-257.51"/>
 </defs>
 <metadata id="metadata3884">
  <rdf:RDF>
   <cc:Work rdf:about="">
    <dc:format>image/svg+xml</dc:format>
    <dc:type rdf:resource="http://purl.org/dc/dcmitype/StillImage"/>
    <dc:title/>
   </cc:Work>
  </rdf:RDF>
 </metadata>
 <g id="layer1" transform="translate(8.5714 -.14286)">
  <rect id="rect5861" style="fill-opacity:0" height="24.79" width="24.79" y="-.52737" x="-9.2807"/>
  <path id="rect5549" style="block-progression:tb;text-indent:0;color:#000000;text-transform:none;fill:#808080" d="m-0.48274 1.063c-3.5247 0-6.0586 2.8301-6.0586 6.3428v3.3086c0 0.37141 0.035895 0.72774 0.097163 1.0813h0.99913c-0.065659-0.35077-0.097169-0.71074-0.097169-1.0813v-3.3086c0-3.2355 2.6134-5.8264 5.86-5.8264h5.7857c3.2465 0 5.3244 2.5908 5.3244 5.8264v3.3086c0 0.37061-0.03151 0.73058-0.09716 1.0813h1.0095c0.06128-0.35361 0.09717-0.70994 0.09717-1.0813v-3.3086c0-3.5127-2.5944-6.3428-6.119-6.3428h-6.8011z"/>
  <path id="path5202" style="fill:url(#radialGradient5382)" d="m-6.1124 5.0093c-0.1813-0.152-0.2532-0.354-0.2385-0.67 0.015145-0.32463 0.074427-0.42246 0.57822-0.95429 2.4613-2.5983 7.0821-3.8001 11.435-2.9742 1.9884 0.37728 3.8596 1.2045 5.1621 2.2822 0.70093 0.57994 1.2275 1.2049 1.2871 1.5276 0.08117 0.43964-0.16548 0.88165-0.4922 0.88206-0.107 0.0002-0.204-0.0545-0.426-0.2399-2.4304-2.0307-6.2626-2.8108-10.014-2.379-2.5445 0.2928-4.7742 0.9382-6.501 2.3162-0.4261 0.3401-0.5844 0.382-0.7904 0.2093z"/>
  <path id="path5194" style="block-progression:tb;text-indent:0;color:#000000;text-transform:none;fill:url(#linearGradient5394)" d="m2.2314 0.15982c-0.6632 0.02504-1.3242 0.08586-1.9639 0.17948-2.5432 0.37221-4.8321 1.2787-6.3045 2.6563-0.00903 0.00844-0.024029 0.00944-0.033007 0.017935-0.012792 0.016513-0.023888 0.034598-0.033008 0.053804-0.44038 0.33758-0.58776 0.99116-0.31357 1.5076 0.26956 0.50775 0.83593 0.86661 1.3203 0.63911 0.00871-0.00389 0.024399 0.00444 0.033008 0 0.023394-0.00852 0.045687-0.020622 0.066015-0.035869 0.00423-0.00222 0.012306 0.00278 0.016478 0 0.00998-0.00699 0.022974-0.010993 0.033007-0.017935 0.00618-0.00389 0.010301-0.013659 0.016478-0.017935 3.3537-2.326 9.7007-2.634 14.045-0.79551 0.60823 0.25741 1.1554 0.40188 1.6339 0.72372 0.0052 0.00623 0.01073 0.012223 0.01649 0.017935 0.0063 0.00389 0.01023 0.013659 0.01649 0.017935 0.01419 0.020208 0.0309 0.038354 0.04948 0.053804 0.50248 0.31549 1.1622-0.038811 1.4523-0.58526 0.24781-0.46676 0.1467-1.0422-0.19804-1.3999-0.0047-0.012372-0.01023-0.024385-0.01649-0.035924-0.0032-0.00278-0.01325 0.00278-0.01648 0-0.0052-0.00623-0.01075-0.012222-0.01649-0.017935-0.01451-0.013159-0.01774-0.041477-0.03301-0.053804 0.000169-0.00598 0.000169-0.011958 0-0.017935-0.938-0.9055-2.2731-1.6292-3.8788-2.1357-1.2418-0.39169-2.5613-0.62751-3.8949-0.71791-0.6667-0.0452-1.3337-0.06093-1.9969-0.03587l0.0000528 0.00000552zm0.9903 0.95908c1.6217 0.0257 3.2534 0.2628 4.753 0.7358h0.016477c1.459 0.46222 2.6653 0.75041 3.5153 1.5178 0.02512 0.053659 0.06618 0.098318 0.11552 0.12564 0.25531 0.16029 0.34544 0.51207 0.19805 0.78971-0.12529 0.236-0.3816 0.5148-0.61064 0.44168-0.02417-0.023244-0.05231-0.041582-0.08252-0.053803-0.54-0.3786-1.1454-1.0057-1.832-1.2963-2.2749-0.9628-5.0153-1.2994-7.6412-1.118-2.5811 0.1782-5.0395 1.1604-6.8161 2.3784-0.00423 0.00278-0.012516-0.00278-0.016478 0-0.011369 0.00513-0.022407 0.011131-0.033007 0.017935-0.011368 0.00513-0.022407 0.011131-0.033008 0.017935-0.00629 0.00444-0.010248 0.013549-0.016478 0.017935-0.25195 0.14401-0.56595-0.1351-0.70966-0.40579-0.14149-0.26653-0.066845-0.60382 0.16504-0.77177 0.011365-0.00513 0.022402-0.011131 0.033007-0.017935 0.039117-0.020455 0.073468-0.051585 0.099022-0.089739 1.3532-1.2501 3.5501-1.7504 6.0074-2.1101 0.9334-0.1366 1.9151-0.1949 2.8882-0.1794l-0.0000265-0.0000055z"/>
  <path id="path5204" style="stroke-dashoffset:220;stroke:url(#linearGradient5212);stroke-linecap:round;stroke-width:1.9176;fill:none" d="m-300.84-141.16a18.775 9.3875 0 0 1 30.746 0.0358" transform="matrix(-.53179 0 0 .51136 -148.93 75.903)"/>
  <path id="rect5551" style="block-progression:tb;text-indent:0;color:#000000;text-transform:none;fill:#808080" d="m-6.5612 17.801v0.01611c0 3.5127 2.8301 6.3428 6.3429 6.3428l4.7773-0.619 0.1976-0.678-4.4132 0.326c-3.2356 0-5.8264-2.4701-5.8264-5.7056v-0.01611l-1.0781 0.334z"/>
  <rect id="rect4784" style="stroke-dashoffset:220;stroke:url(#linearGradient4792);stroke-linecap:round;fill:#555753" transform="matrix(0,1,1,0,0,0)" rx="1.0212" ry="1.0212" height="5.0178" width="2.0423" y="-.10165" x="21.63"/>
  <path id="path4967" style="opacity:.60811;stroke-dashoffset:220;stroke:url(#linearGradient4977);stroke-linecap:round;stroke-width:3.765;fill:none" d="m-103.47-286.5c-0.57059 0-1.0312 0.46066-1.0312 1.0312v5.9375c0 0.57059 0.46066 1.0312 1.0312 1.0312h0.9375c0.57059 0 1.0312-0.46066 1.0312-1.0312v-5.9375c0-0.57059-0.46066-1.0312-1.0312-1.0312h-0.9375z" transform="matrix(0 .18017 .39155 0 113.07 41.44)"/>
  <rect id="rect5572" ry=".99728" style="fill:url(#linearGradient5632)" rx=".99727" transform="matrix(0,1,1,0,0,0)" height="3.899" width="1.0459" y=".49657" x="22.139"/>
  <path id="path5707" style="stroke-dashoffset:220;stroke:url(#linearGradient5758);stroke-linecap:round;fill:#fff" d="m-5.3766 9.6362c-1.4908 0-2.6908 1.0643-2.6908 2.3865v4.1925c0 1.3222 1.2 2.3865 2.6908 2.3865l1.2651 0.0013 0.015891-8.9737c-0.95611 0.024323-0.39629 0.00686-1.281 0.00686v-0.0000562l1e-7 0.0000663z"/>
  <rect id="rect5709" style="fill:url(#linearGradient5719-5)" height="8.9389" width=".98005" y="9.1426" x="-5.5517"/>
  <rect id="rect5711" style="fill:url(#linearGradient3623)" rx="1.0133" ry="1.0133" height="10.002" width="2.0254" y="9.1316" x="-4.5824"/>
  <path id="path5713" style="opacity:.5;fill:url(#radialGradient5721-4)" d="m-5.8662 9.95c-0.94077 0-1.698 0.85584-1.698 1.9191v3.3714c0 1.0632 0.75727 1.9191 1.698 1.9191l1.2402-0.01722v-7.1922c-0.60336 0.019548-0.68186 0-1.2402 0v-0.0000725z"/>
  <path id="path5859" style="fill:#dee1e3" d="m-243.18-24.046a0.8374 1.374 0 1 1 -1.6748 0 0.8374 1.374 0 1 1 1.6748 0z" transform="matrix(.62336 0 0 .38010 153.07 31.796)"/>
  <rect id="rect5811-4" style="fill:url(#linearGradient4984)" transform="rotate(90)" rx=".50398" ry=".50398" height="2.3801" width="1.0421" y="-1.428" x="23.119"/>
  <rect id="rect5863" style="fill-opacity:0" height="24.79" width="24.79" y="-.52737" x="-9.2807"/>
  <rect id="rect3015" ry=".50398" style="fill:url(#linearGradient3017)" rx=".50398" transform="scale(-1,1)" height="3.0484" width="1.008" y="8.1219" x="5.5438"/>
  <path id="path3040" style="stroke-dashoffset:220;stroke:url(#linearGradient3052);stroke-linecap:round;fill:#fff" d="m11.223 9.6745c1.4908 0 2.6908 1.0643 2.6908 2.3865v4.1925c0 1.3222-1.2 2.3865-2.6908 2.3865l-1.2651 0.0013-0.015891-8.9737c0.95611 0.024323 0.39629 0.00686 1.281 0.00686v-0.0000562 0.0000663z"/>
  <rect id="rect3042" style="fill:url(#linearGradient3054)" transform="scale(-1,1)" height="8.9389" width=".98005" y="9.181" x="-11.398"/>
  <rect id="rect3044" style="fill:url(#linearGradient3056)" transform="scale(-1,1)" rx="1.0133" ry="1.0133" height="10.002" width="2.0254" y="9.1699" x="-10.429"/>
  <path id="path3046" style="opacity:.5;fill:url(#radialGradient3058)" d="m11.712 9.9883c0.94077 0 1.698 0.85584 1.698 1.9191v3.3714c0 1.0632-0.75727 1.9191-1.698 1.9191l-1.2402-0.01722v-7.1922c0.60336 0.019548 0.68186 0 1.2402 0v-0.0000725z"/>
  <rect id="rect3050" style="fill:url(#linearGradient3062)" rx=".50398" ry=".50398" height="3.0318" width=".98296" y="8.102" x="11.425"/>
 </g>
</svg>
