<?xml version="1.0" encoding="UTF-8" standalone="no"?>
<!-- Created with Inkscape (http://www.inkscape.org/) -->
<svg id="svg2" xmlns:rdf="http://www.w3.org/1999/02/22-rdf-syntax-ns#" xmlns="http://www.w3.org/2000/svg" height="48" width="48" version="1.0" xmlns:cc="http://web.resource.org/cc/" xmlns:xlink="http://www.w3.org/1999/xlink" xmlns:dc="http://purl.org/dc/elements/1.1/">
 <defs id="defs4">
  <linearGradient id="linearGradient7422">
   <stop id="stop7424" offset="0"/>
   <stop id="stop7426" style="stop-opacity:0" offset="1"/>
  </linearGradient>
  <linearGradient id="linearGradient3151" y2="16" gradientUnits="userSpaceOnUse" x2="12" gradientTransform="matrix(1 0 0 1.5 -8.9269e-8 -3)" y1="-1" x1="7">
   <stop id="stop3147" style="stop-color:#fff" offset="0"/>
   <stop id="stop3149" style="stop-color:#fff;stop-opacity:0" offset="1"/>
  </linearGradient>
  <linearGradient id="linearGradient4307" y2="30" gradientUnits="userSpaceOnUse" x2="39" gradientTransform="matrix(.91667 0 0 1 1.5 0)" y1="-7" x1="-5">
   <stop id="stop4303" style="stop-color:#fff" offset="0"/>
   <stop id="stop4305" style="stop-color:#fff;stop-opacity:0" offset="1"/>
  </linearGradient>
  <radialGradient id="radialGradient4699" gradientUnits="userSpaceOnUse" cy="39.923" cx="24" gradientTransform="matrix(1.6128 4.9537e-8 -1.7969e-8 0.65 -14.708 8.05)" r="20">
   <stop id="stop4703" style="stop-color:#729fcf" offset="0"/>
   <stop id="stop4705" style="stop-color:#3465a4" offset="1"/>
  </radialGradient>
  <linearGradient id="linearGradient5097" y2="30" gradientUnits="userSpaceOnUse" x2="19" gradientTransform="matrix(.94595 0 0 1 1.2973 .0000011192)" y1="-4" x1="2">
   <stop id="stop5090" style="stop-color:#fff;stop-opacity:.54348" offset="0"/>
   <stop id="stop5092" style="stop-color:#729fcf" offset="1"/>
  </linearGradient>
  <linearGradient id="linearGradient5872" y2="41" gradientUnits="userSpaceOnUse" x2="8" gradientTransform="matrix(4.625 0 0 1.3333 -15.312 -13.5)" y1="37" x1="8">
   <stop id="stop5865" offset="0"/>
   <stop id="stop5867" style="stop-color:#2e3436" offset="1"/>
  </linearGradient>
  <linearGradient id="linearGradient6263" y2="36.75" gradientUnits="userSpaceOnUse" x2="12.283" gradientTransform="matrix(.81081 0 0 -.66667 2.0405 64.5)" y1="41.25" x1="12.283">
   <stop id="stop6259" style="stop-color:#555753" offset="0"/>
   <stop id="stop6261" style="stop-color:#2e3436" offset="1"/>
  </linearGradient>
  <radialGradient id="radialGradient6652" gradientUnits="userSpaceOnUse" cy="8.4459" cx="12" gradientTransform="matrix(.53368 1.3433 -1.5603 .68182 19.332 -10.878)" r="22">
   <stop id="stop6648" style="stop-color:#eeeeec" offset="0"/>
   <stop id="stop6650" style="stop-color:#555753" offset="1"/>
  </radialGradient>
  <radialGradient id="radialGradient7831" xlink:href="#linearGradient7422" gradientUnits="userSpaceOnUse" cy="43.5" cx="2" gradientTransform="matrix(1 0 0 1.25 0 -10.875)" r="2"/>
  <radialGradient id="radialGradient7833" xlink:href="#linearGradient7422" gradientUnits="userSpaceOnUse" cy="43.5" cx="2" gradientTransform="matrix(1 0 0 1.25 44 -10.875)" r="2"/>
  <linearGradient id="linearGradient7835" y2="46" gradientUnits="userSpaceOnUse" x2="6" y1="41" x1="6">
   <stop id="stop7817" style="stop-opacity:0" offset="0"/>
   <stop id="stop7823" offset=".5"/>
   <stop id="stop7819" style="stop-opacity:0" offset="1"/>
  </linearGradient>
  <linearGradient id="linearGradient8234" y2="36" gradientUnits="userSpaceOnUse" x2="10" gradientTransform="translate(0,3.387501e-6)" y1="41" x1="10">
   <stop id="stop8230" offset="0"/>
   <stop id="stop8232" style="stop-opacity:0" offset="1"/>
  </linearGradient>
 </defs>
 <metadata id="metadata7">
  <rdf:RDF>
   <cc:Work rdf:about="">
    <dc:format>image/svg+xml</dc:format>
    <dc:type rdf:resource="http://purl.org/dc/dcmitype/StillImage"/>
    <dc:title>TV</dc:title>
    <dc:date>2007-06-06</dc:date>
    <dc:creator>
     <cc:Agent>
      <dc:title>Sebastian Kraft</dc:title>
     </cc:Agent>
    </dc:creator>
    <dc:subject>
     <rdf:Bag>
      <rdf:li>tv</rdf:li>
      <rdf:li>television</rdf:li>
     </rdf:Bag>
    </dc:subject>
    <cc:license rdf:resource="GPL"/>
   </cc:Work>
  </rdf:RDF>
 </metadata>
 <g id="layer1">
  <g id="g7826" style="opacity:0.46" transform="matrix(1 0 0 1.6 0 -26.6)">
   <path id="path6654" style="color:#000000;fill-rule:evenodd;fill:url(#radialGradient7831)" d="m2 46c-1.104 0-2-1.12-2-2.5s0.896-2.5 2-2.5v5z"/>
   <path id="path7037" style="color:#000000;fill-rule:evenodd;fill:url(#radialGradient7833)" d="m48 43.5c0 1.38-0.896 2.5-2 2.5v-5c1.104 0 2 1.12 2 2.5z"/>
   <path id="rect7432" style="fill:url(#linearGradient7835)" d="m2 41h44v5h-44v-5z"/>
  </g>
  <path id="rect2174" style="stroke:#000;stroke-linecap:round;fill:#2e3436" d="m6.5611 5.5l-4.0611 2v36h43v-36l-4.061-2h-34.878z"/>
  <path id="rect2761" style="fill:url(#linearGradient3151)" d="m7 6h34l4 3h-42l4-3z"/>
  <path id="path2757" style="stroke:url(#radialGradient6652);stroke-linecap:round;fill:none" d="m6.9466 6.5l-3.4466 1.5376v34.462h41v-34.462l-3.447-1.538h-34.106z"/>
  <path id="rect2759" style="stroke:#204a87;stroke-linecap:round;fill:url(#radialGradient4699)" d="m5.5 10.5h37v25h-37v-25z"/>
  <path id="rect3536" style="opacity:.4;fill:url(#linearGradient4307)" d="m7 12h33v6s-1.833-3-11.917 4c-10.083 7-21.083 2.12-21.083 2.12v-12.12z"/>
  <path id="rect3534" style="stroke:url(#linearGradient5097);stroke-linecap:round;fill:none" d="m6.5 11.5h35v23h-35v-23z"/>
  <path id="rect5099" style="stroke:url(#linearGradient8234);stroke-linecap:round;fill:url(#linearGradient5872)" d="m5.5 36.5h37v4h-37v-4z"/>
  <path id="path5874" style="stroke:url(#linearGradient6263);stroke-linecap:round;fill:none" d="m6.5 39.5h30v-2h-30v2z"/>
  <path id="path7839" style="stroke:#555753;stroke-linecap:round;fill:#2e3436" d="m37.5 37.5h4v2h-4v-2z"/>
  <rect id="rect7843" style="fill:#4e9a06" height="1" width="1" y="38" x="40"/>
  <rect id="rect7845" style="fill:#8ae234" height="1" width="1" y="38" x="39"/>
 </g>
</svg>
