<?xml version="1.0" encoding="UTF-8" standalone="no"?>
<svg id="svg3455" xmlns:rdf="http://www.w3.org/1999/02/22-rdf-syntax-ns#" xmlns="http://www.w3.org/2000/svg" height="176" width="2752" version="1.1" xmlns:cc="http://creativecommons.org/ns#" xmlns:xlink="http://www.w3.org/1999/xlink" viewBox="0 0 2752 176" xmlns:dc="http://purl.org/dc/elements/1.1/">
 <metadata id="metadata4483">
  <rdf:RDF>
   <cc:Work rdf:about="">
    <dc:format>image/svg+xml</dc:format>
    <dc:type rdf:resource="http://purl.org/dc/dcmitype/StillImage"/>
   </cc:Work>
  </rdf:RDF>
 </metadata>
 <defs id="defs3457">
  <g id="bt1">
   <path id="path3460" d="m9 0c-0.53 0-1.04 0.21-1.41 0.59l-7 7c-0.38 0.37-0.59 0.88-0.59 1.41v77c0 1.1 0.9 2 2 2h53c0.53 0 1.04-0.21 1.41-0.59l7-7c0.38-0.37 0.59-0.88 0.59-1.41v-77c0-1.1-0.9-2-2-2h-53z"/>
   <path id="path3462" d="m11.75 78.25l-9 9h52.25c0.33 0 0.65-0.13 0.88-0.37l7-7c0.23-0.23 0.37-1.3 0.37-1.63h-51.5z" fill="#9F9F9F"/>
   <path id="path3464" d="m8.12 1.12l-7 7c-0.24 0.23-0.37 0.55-0.37 0.88v76.25l2 2 7-7v-79.5c-0.33 0-1.4 0.13-1.63 0.37z" fill="#D7D7D7"/>
   <path id="path3466" d="m1.61 86.89l10.14-10.14v-0.5l-10.41 10.41c0.08 0.09 0.17 0.16 0.27 0.23z" fill="#BFBFBF"/>
   <path id="path3468" d="m1.93 87.07l9.82-9.82v-0.5l-10.14 10.14c0.1 0.07 0.21 0.13 0.32 0.18z" fill="#B7B7B7"/>
   <path id="path3470" d="m2.3 87.2l9.45-9.45v-0.5l-9.82 9.82c0.12 0.05 0.24 0.1 0.37 0.13z" fill="#AFAFAF"/>
   <path id="path3472" d="m11.75 77.75l-9.45 9.45c0.14 0.03 0.29 0.05 0.45 0.05l9-9v-0.5z" fill="#A7A7A7"/>
   <path id="path3474" d="m1.34 86.66l10.41-10.41h-0.5l-10.14 10.14c0.07 0.1 0.14 0.19 0.23 0.27z" fill="#C7C7C7"/>
   <path id="path3476" d="m1.11 86.39l10.14-10.14h-0.5l-9.82 9.82c0.05 0.11 0.11 0.22 0.18 0.32z" fill="#CDCDCD"/>
   <path id="path3478" d="m0.93 86.07l9.82-9.82h-0.5l-9.45 9.45c0.03 0.13 0.08 0.25 0.13 0.37z" fill="#D2D2D2"/>
   <path id="path3480" d="m10.25 76.25h-0.5l-9 9c0 0.15 0.02 0.3 0.05 0.45l9.45-9.45z" fill="#D7D7D7"/>
   <path id="path3482" d="m63.25 78.25v-75.5c0-1.1-0.9-2-2-2h-50.5c-1.1 0-2 0.9-2 2v75.5c0 1.1 0.9 2 2 2h50.5c1.1 0 2-0.9 2-2z" fill="#F6F6F6"/>
   <path id="path3484" d="m8.75 78.25v-75.5c0-1.1 0.9-2 2-2h-1c-1.1 0-2 0.9-2 2v75.5c0 1.1 0.9 2 2 2h1c-1.1 0-2-0.9-2-2z" fill="#fff"/>
  </g>
  <g id="bt2">
   <path id="path3487" d="m9 0c-0.53 0-1.04 0.21-1.41 0.59l-7 7c-0.38 0.37-0.59 0.88-0.59 1.41v77c0 1.1 0.9 2 2 2h53c0.53 0 1.04-0.21 1.41-0.59l7-7c0.38-0.37 0.59-0.88 0.59-1.41v-77c0-1.1-0.9-2-2-2h-53z" fill="#00f"/>
   <path id="path3489" d="m11.75 78.25l-9 9h52.25c0.33 0 0.65-0.13 0.88-0.37l7-7c0.23-0.23 0.37-1.3 0.37-1.63h-51.5z" fill="#8F8FFF"/>
   <path id="path3491" d="m8.12 1.12l-7 7c-0.24 0.23-0.37 0.55-0.37 0.88v76.25l2 2 7-7v-79.5c-0.33 0-1.4 0.13-1.63 0.37z" fill="#C7C7FF"/>
   <path id="path3493" d="m1.61 86.89l10.14-10.14v-0.5l-10.41 10.41c0.08 0.09 0.17 0.16 0.27 0.23z" fill="#AFAFFF"/>
   <path id="path3495" d="m1.93 87.07l9.82-9.82v-0.5l-10.14 10.14c0.1 0.07 0.21 0.13 0.32 0.18z" fill="#A7A7FF"/>
   <path id="path3497" d="m2.3 87.2l9.45-9.45v-0.5l-9.82 9.82c0.12 0.05 0.24 0.1 0.37 0.13z" fill="#9F9FFF"/>
   <path id="path3499" d="m11.75 77.75l-9.45 9.45c0.14 0.03 0.29 0.05 0.45 0.05l9-9v-0.5z" fill="#9797FF"/>
   <path id="path3501" d="m1.34 86.66l10.41-10.41h-0.5l-10.14 10.14c0.07 0.1 0.14 0.19 0.23 0.27z" fill="#B7B7FF"/>
   <path id="path3503" d="m1.11 86.39l10.14-10.14h-0.5l-9.82 9.82c0.05 0.11 0.11 0.22 0.18 0.32z" fill="#BDBDFF"/>
   <path id="path3505" d="m0.93 86.07l9.82-9.82h-0.5l-9.45 9.45c0.03 0.13 0.08 0.25 0.13 0.37z" fill="#C2C2FF"/>
   <path id="path3507" d="m10.25 76.25h-0.5l-9 9c0 0.15 0.02 0.3 0.05 0.45l9.45-9.45z" fill="#C7C7FF"/>
   <path id="path3509" d="m61.25 0.75h-51.5c-1.1 0-2 0.9-2 2v75.5c0 1.1 0.9 2 2 2h51.5c1.1 0 2-0.9 2-2v-75.5c0-1.1-0.9-2-2-2z" fill="#E3E3FF"/>
   <path id="path3511" stroke="#00f" stroke-width="3" d="m60 74.19c0 1.55-1.22 2.81-2.72 2.81h-43.56c-1.5 0-2.72-1.26-2.72-2.81v-67.38c0-1.55 1.22-2.81 2.72-2.81h43.56c1.5 0 2.72 1.26 2.72 2.81v67.38z" fill="#fff"/>
  </g>
  <path id="bams" d="m11 13.5c0-0.92-1.25-1.71-3.06-2.09v-6.97c1.81-0.38 3.06-1.17 3.06-2.09 0-1.3-2.46-2.35-5.5-2.35s-5.5 1.05-5.5 2.35c0 0.92 1.25 1.71 3.06 2.09v6.97c-1.81 0.38-3.06 1.17-3.06 2.09s1.25 1.71 3.06 2.09v6.96c-1.81 0.39-3.06 1.18-3.06 2.1 0 1.3 2.46 2.35 5.5 2.35s5.5-1.05 5.5-2.35c0-0.92-1.25-1.71-3.06-2.09v-6.96c1.81-0.39 3.06-1.18 3.06-2.1zm-5.5-12.03c1.35 0 2.44 0.39 2.44 0.88 0 0.41-0.78 0.75-1.83 0.85v5.94c0 0.46-0.28 0.84-0.61 0.84s-0.61-0.38-0.61-0.84v-5.94c-1.05-0.1-1.83-0.44-1.83-0.85 0-0.49 1.09-0.88 2.44-0.88zm0 24.06c-1.35 0-2.44-0.39-2.44-0.88 0-0.41 0.78-0.75 1.83-0.85v-5.94c0-0.46 0.28-0.84 0.61-0.84s0.61 0.38 0.61 0.84v5.94c1.05 0.1 1.83 0.44 1.83 0.85 0 0.49-1.09 0.88-2.44 0.88zm0-11.15c-1.86 0-3.36-0.39-3.36-0.88s1.5-0.88 3.36-0.88 3.36 0.39 3.36 0.88c0 0.49-1.5 0.88-3.36 0.88z" fill="#006C00"/>
  <path id="bams2" d="m11 13.5c0-0.92-1.25-1.71-3.06-2.09v-6.97c1.81-0.38 3.06-1.17 3.06-2.09 0-1.3-2.46-2.35-5.5-2.35s-5.5 1.05-5.5 2.35c0 0.92 1.25 1.71 3.06 2.09v6.97c-1.81 0.38-3.06 1.17-3.06 2.09s1.25 1.71 3.06 2.09v6.96c-1.81 0.39-3.06 1.18-3.06 2.1 0 1.3 2.46 2.35 5.5 2.35s5.5-1.05 5.5-2.35c0-0.92-1.25-1.71-3.06-2.09v-6.96c1.81-0.39 3.06-1.18 3.06-2.1zm-5.5-12.03c1.35 0 2.44 0.39 2.44 0.88 0 0.41-0.78 0.75-1.83 0.85v5.94c0 0.46-0.28 0.84-0.61 0.84s-0.61-0.38-0.61-0.84v-5.94c-1.05-0.1-1.83-0.44-1.83-0.85 0-0.49 1.09-0.88 2.44-0.88zm0 24.06c-1.35 0-2.44-0.39-2.44-0.88 0-0.41 0.78-0.75 1.83-0.85v-5.94c0-0.46 0.28-0.84 0.61-0.84s0.61 0.38 0.61 0.84v5.94c1.05 0.1 1.83 0.44 1.83 0.85 0 0.49-1.09 0.88-2.44 0.88zm0-11.15c-1.86 0-3.36-0.39-3.36-0.88s1.5-0.88 3.36-0.88 3.36 0.39 3.36 0.88c0 0.49-1.5 0.88-3.36 0.88z" fill="#9C0000"/>
  <g id="dots">
   <path id="path3516" d="m9 1.42c-4.18 0-7.58 3.4-7.58 7.58s3.4 7.58 7.58 7.58c4.18 0 7.58-3.4 7.58-7.58s-3.4-7.58-7.58-7.58zm0 13.69c-1.36 0-2.49-0.97-2.75-2.25 0.78 0.56 1.72 0.89 2.75 0.89s1.97-0.34 2.75-0.89c-0.26 1.28-1.39 2.25-2.75 2.25zm0-12.22c1.36 0 2.49 0.97 2.75 2.25-0.78-0.55-1.72-0.89-2.75-0.89s-1.97 0.34-2.75 0.89c0.26-1.28 1.39-2.25 2.75-2.25zm3.75 6.11c0 0.57-0.14 1.11-0.37 1.59-0.34-0.67-0.87-1.22-1.53-1.59 0.66-0.37 1.19-0.92 1.53-1.59 0.23 0.48 0.37 1.02 0.37 1.59zm-7.5 0c0-0.57 0.14-1.11 0.37-1.59 0.34 0.67 0.87 1.22 1.53 1.59-0.66 0.37-1.19 0.92-1.53 1.59-0.23-0.48-0.37-1.02-0.37-1.59zm6.34 2.7c-1.02-0.27-1.82-1.1-2.03-2.14 1.04 0.21 1.87 1.01 2.14 2.03l-0.11 0.11zm-5.29-0.11c0.27-1.02 1.1-1.82 2.15-2.03-0.21 1.04-1.01 1.87-2.03 2.14-0.05-0.04-0.08-0.07-0.12-0.11zm0.11-5.29c1.02 0.27 1.82 1.1 2.03 2.15-1.04-0.22-1.87-1.02-2.14-2.04l0.11-0.11zm5.29 0.11c-0.27 1.02-1.1 1.82-2.14 2.03 0.21-1.05 1.01-1.87 2.03-2.15 0.04 0.05 0.07 0.08 0.11 0.12zm-2.7 0.74c-0.37-0.66-0.92-1.19-1.59-1.53 0.48-0.23 1.02-0.37 1.59-0.37s1.11 0.14 1.59 0.37c-0.67 0.34-1.22 0.87-1.59 1.53zm0 3.7c0.37 0.66 0.92 1.19 1.59 1.53-0.49 0.23-1.02 0.37-1.59 0.37s-1.11-0.14-1.59-0.37c0.67-0.34 1.22-0.87 1.59-1.53zm-3.86 0.9c-1.28-0.26-2.25-1.39-2.25-2.75s0.97-2.49 2.25-2.75c-0.55 0.78-0.89 1.72-0.89 2.75s0.34 1.97 0.89 2.75zm7.72-5.5c1.28 0.26 2.25 1.39 2.25 2.75s-0.97 2.49-2.25 2.75c0.56-0.78 0.89-1.72 0.89-2.75s-0.34-1.97-0.89-2.75zm2.15 0.08c-0.59-0.6-1.38-0.99-2.25-1.09-0.11-0.88-0.49-1.66-1.09-2.25 1.48 0.66 2.68 1.86 3.34 3.34zm-8.68-3.34c-0.6 0.59-0.98 1.38-1.09 2.25-0.88 0.11-1.66 0.49-2.25 1.09 0.66-1.48 1.86-2.68 3.34-3.34zm-3.34 8.68c0.59 0.6 1.38 0.99 2.25 1.09 0.11 0.88 0.49 1.66 1.09 2.25-1.48-0.66-2.68-1.86-3.34-3.34zm8.68 3.34c0.6-0.59 0.99-1.38 1.09-2.25 0.88-0.11 1.66-0.49 2.25-1.09-0.66 1.48-1.86 2.68-3.34 3.34z" fill="#10106C"/>
   <path id="path3518" d="m9 0c-4.96 0-9 4.04-9 9s4.04 9 9 9 9-4.04 9-9-4.04-9-9-9zm0 17c-4.41 0-8-3.59-8-8s3.59-8 8-8 8 3.59 8 8-3.59 8-8 8z" fill="#10106C"/>
  </g>
  <g id="dots2">
   <path id="path3521" d="m9 1.42c-4.18 0-7.58 3.4-7.58 7.58s3.4 7.58 7.58 7.58c4.18 0 7.58-3.4 7.58-7.58s-3.4-7.58-7.58-7.58zm0 13.69c-1.36 0-2.49-0.97-2.75-2.25 0.78 0.56 1.72 0.89 2.75 0.89s1.97-0.34 2.75-0.89c-0.26 1.28-1.39 2.25-2.75 2.25zm0-12.22c1.36 0 2.49 0.97 2.75 2.25-0.78-0.55-1.72-0.89-2.75-0.89s-1.97 0.34-2.75 0.89c0.26-1.28 1.39-2.25 2.75-2.25zm3.75 6.11c0 0.57-0.14 1.11-0.37 1.59-0.34-0.67-0.87-1.22-1.53-1.59 0.66-0.37 1.19-0.92 1.53-1.59 0.23 0.48 0.37 1.02 0.37 1.59zm-7.5 0c0-0.57 0.14-1.11 0.37-1.59 0.34 0.67 0.87 1.22 1.53 1.59-0.66 0.37-1.19 0.92-1.53 1.59-0.23-0.48-0.37-1.02-0.37-1.59zm6.34 2.7c-1.02-0.27-1.82-1.1-2.03-2.14 1.04 0.21 1.87 1.01 2.14 2.03l-0.11 0.11zm-5.29-0.11c0.27-1.02 1.1-1.82 2.15-2.03-0.21 1.04-1.01 1.87-2.03 2.14-0.05-0.04-0.08-0.07-0.12-0.11zm0.11-5.29c1.02 0.27 1.82 1.1 2.03 2.15-1.04-0.22-1.87-1.02-2.14-2.04l0.11-0.11zm5.29 0.11c-0.27 1.02-1.1 1.82-2.14 2.03 0.21-1.05 1.01-1.87 2.03-2.15 0.04 0.05 0.07 0.08 0.11 0.12zm-2.7 0.74c-0.37-0.66-0.92-1.19-1.59-1.53 0.48-0.23 1.02-0.37 1.59-0.37s1.11 0.14 1.59 0.37c-0.67 0.34-1.22 0.87-1.59 1.53zm0 3.7c0.37 0.66 0.92 1.19 1.59 1.53-0.49 0.23-1.02 0.37-1.59 0.37s-1.11-0.14-1.59-0.37c0.67-0.34 1.22-0.87 1.59-1.53zm-3.86 0.9c-1.28-0.26-2.25-1.39-2.25-2.75s0.97-2.49 2.25-2.75c-0.55 0.78-0.89 1.72-0.89 2.75s0.34 1.97 0.89 2.75zm7.72-5.5c1.28 0.26 2.25 1.39 2.25 2.75s-0.97 2.49-2.25 2.75c0.56-0.78 0.89-1.72 0.89-2.75s-0.34-1.97-0.89-2.75zm2.15 0.08c-0.59-0.6-1.38-0.99-2.25-1.09-0.11-0.88-0.49-1.66-1.09-2.25 1.48 0.66 2.68 1.86 3.34 3.34zm-8.68-3.34c-0.6 0.59-0.98 1.38-1.09 2.25-0.88 0.11-1.66 0.49-2.25 1.09 0.66-1.48 1.86-2.68 3.34-3.34zm-3.34 8.68c0.59 0.6 1.38 0.99 2.25 1.09 0.11 0.88 0.49 1.66 1.09 2.25-1.48-0.66-2.68-1.86-3.34-3.34zm8.68 3.34c0.6-0.59 0.99-1.38 1.09-2.25 0.88-0.11 1.66-0.49 2.25-1.09-0.66 1.48-1.86 2.68-3.34 3.34z" fill="#9C0000"/>
   <path id="path3523" d="m9 0c-4.96 0-9 4.04-9 9s4.04 9 9 9 9-4.04 9-9-4.04-9-9-9zm0 17c-4.41 0-8-3.59-8-8s3.59-8 8-8 8 3.59 8 8-3.59 8-8 8z" fill="#9C0000"/>
  </g>
  <g id="nums">
   <path id="path3526" d="m18.01 0.14s-4.39 3.33-4.78 3.63c-0.32-0.33-3.2-3.27-3.2-3.27l2.22 8.92 0.6-0.03c0.75-4.76 4.35-6.63 5.33-7.05 0.14 0.2 0.26 0.42 0.26 0.72 0 0.09-0.01 0.18-0.02 0.28-0.21 1.67-2.39 4.64-6.68 7.21l-0.31 0.18 0.81 1.01 0.2-0.06c0.06-0.02 6.59-2.06 10.36-1.88l1.14 0.05-0.96-0.63c-0.08-0.05-1.95-1.25-3.93-1.03 0.28-0.63 2.26-2.56 4.15-4.16l0.31-0.26-5.32-3.77-0.18 0.14z" fill="#BA0000"/>
   <path id="path3528" d="m33.78 24.64c-0.17-0.17-4.21-4.28-5.63-5.01-0.53-0.27-1.71-0.18-5.75 0.16 0 0-0.17 0.01-0.43 0.04 1.19-2.79 2.72-5.86 3.57-6.25l0.55-0.25-2.13-2.09-0.21 0.03c-5.11 0.87-13.08 2.09-14.11 1.9l-0.35-0.07-0.12 0.33c-0.2 0.56 0.32 4.93 0.86 7.37-4.58 0.4-10.03 0.86-10.03 0.86l0.3 0.56 0.68 1.27 0.32-0.09c1.72-0.51 2.52-0.57 4.6-0.54 0.19 0.49 2.6 6.77 2.6 6.77l0.79-0.2s-0.69-5.69-0.8-6.52c0.78 0.02 7.99 0.22 9.67 0.26-1.09 0.92-3.56 3.02-3.56 3.02l0.4 0.71s5.15-1.76 5.41-1.85c0.25 0.1 4.3 1.65 4.3 1.65s-2.13-2.57-2.81-3.38c3.78 0.2 4.75 0.42 5.01 0.74 0.33 0.39 0.5 0.96 0.5 1.6 0 1.16-0.58 2.57-1.8 3.73-1.82-0.46-5.17-2.34-5.21-2.36l-0.52 0.62 5.08 6.35 0.24-0.05c3.82-0.78 8.44-8.48 8.63-8.81l0.17-0.27-0.22-0.23zm-12.76-7.99c-1.22 0.16-2.77 0.37-3.21 0.43v-2c1.62-0.13 3.11-0.25 3.49-0.29-0.05 0.27-0.15 0.98-0.28 1.86zm-4.93-1.43c0.02 0.84 0.04 1.75 0.05 2.06-1.41 0.16-2.6 0.26-3.55 0.3 0.1-0.62 0.19-1.31 0.3-2.1 0.24-0.02 1.62-0.13 3.2-0.26zm-4.06 5.43c0.08-0.35 0.17-0.76 0.26-1.24 1.3-0.24 2.61-0.46 3.89-0.63 0.01 0.48 0.03 1.1 0.04 1.52-0.25 0.01-1.96 0.16-4.19 0.35zm5.77-0.48v-1.6c0.98-0.1 1.36-0.08 1.96-0.02l0.96 0.06c-0.07 0.46-0.14 0.92-0.2 1.35-1.09 0.08-2.33 0.18-2.72 0.21z" fill="#BA0000"/>
  </g>
  <g id="flower">
   <rect id="rect3531" height="67" width="43" stroke="#F8F6D8" y="1" x="1" fill="#F8F6D8"/>
   <path id="path3533" d="m11.27 58.16l-0.71-8.35c1.76-0.67 2.92-1.76 2.83-2.86s-1.42-1.91-3.26-2.16l-0.71-8.36c1.76-0.67 2.92-1.76 2.83-2.86-0.13-1.56-2.69-2.54-5.71-2.19s-5.37 1.89-5.23 3.44c0.09 1.1 1.42 1.91 3.25 2.16l0.71 8.36c-1.76 0.67-2.92 1.76-2.83 2.86s1.42 1.91 3.25 2.16l0.71 8.36c-1.76 0.67-2.92 1.76-2.83 2.86 0.13 1.55 2.69 2.53 5.71 2.19 3.02-0.35 5.37-1.89 5.23-3.44-0.08-1.11-1.4-1.92-3.24-2.17zm-6.93-23.69c-0.05-0.58 1-1.18 2.34-1.34 1.34-0.15 2.47 0.2 2.52 0.78 0.04 0.49-0.7 0.99-1.74 1.23l0.61 7.13c0.05 0.56-0.19 1.04-0.52 1.08-0.34 0.04-0.65-0.38-0.7-0.94l-0.61-7.13c-1.05 0-1.86-0.32-1.9-0.81zm0.23 13.48c-0.05-0.58 1.41-1.23 3.25-1.44 1.85-0.21 3.39 0.09 3.43 0.67 0.05 0.58-1.41 1.23-3.25 1.44-1.85 0.22-3.38-0.08-3.43-0.67zm4.58 14.05c-1.34 0.15-2.47-0.19-2.52-0.78-0.04-0.49 0.7-0.99 1.74-1.23l-0.61-7.13c-0.05-0.56 0.19-1.04 0.52-1.08s0.65 0.38 0.69 0.94l0.61 7.13c1.06 0 1.87 0.32 1.91 0.81 0.05 0.59-1 1.19-2.34 1.34z" fill="#D3BB54"/>
   <path id="path3535" stroke="#7C5A2D" stroke-width=".25" d="m11.27 58.16l-0.71-8.35c1.76-0.67 2.92-1.76 2.83-2.86s-1.42-1.91-3.26-2.16l-0.71-8.36c1.76-0.67 2.92-1.76 2.83-2.86-0.13-1.56-2.69-2.54-5.71-2.19s-5.37 1.89-5.23 3.44c0.09 1.1 1.42 1.91 3.25 2.16l0.71 8.36c-1.76 0.67-2.92 1.76-2.83 2.86s1.42 1.91 3.25 2.16l0.71 8.36c-1.76 0.67-2.92 1.76-2.83 2.86 0.13 1.55 2.69 2.53 5.71 2.19 3.02-0.35 5.37-1.89 5.23-3.44-0.08-1.11-1.4-1.92-3.24-2.17zm-6.93-23.69c-0.05-0.58 1-1.18 2.34-1.34 1.34-0.15 2.47 0.2 2.52 0.78 0.04 0.49-0.7 0.99-1.74 1.23l0.61 7.13c0.05 0.56-0.19 1.04-0.52 1.08-0.34 0.04-0.65-0.38-0.7-0.94l-0.61-7.13c-1.05 0-1.86-0.32-1.9-0.81zm0.23 13.48c-0.05-0.58 1.41-1.23 3.25-1.44 1.85-0.21 3.39 0.09 3.43 0.67 0.05 0.58-1.41 1.23-3.25 1.44-1.85 0.22-3.38-0.08-3.43-0.67zm4.58 14.05c-1.34 0.15-2.47-0.19-2.52-0.78-0.04-0.49 0.7-0.99 1.74-1.23l-0.61-7.13c-0.05-0.56 0.19-1.04 0.52-1.08s0.65 0.38 0.69 0.94l0.61 7.13c1.06 0 1.87 0.32 1.91 0.81 0.05 0.59-1 1.19-2.34 1.34z" fill="none"/>
   <path id="path3537" stroke="#7C5A2D" stroke-width=".25" d="m5.23 67.99c2.49-8.18-3.33-18.78-3.33-18.78s10.4 10.59 7.48 18.78h-4.15z" fill="#EADDA7"/>
   <path id="path3539" d="m19.02 36.17c-2.92-0.98-5.59-0.56-5.97 0.94-0.27 1.06 0.7 2.38 2.33 3.41l-2.03 8.06c-1.85-0.14-3.28 0.37-3.54 1.43-0.27 1.06 0.7 2.38 2.33 3.41l-2.03 8.06c-1.84-0.14-3.27 0.37-3.54 1.43-0.38 1.5 1.68 3.51 4.6 4.5 2.92 0.98 5.59 0.56 5.96-0.94 0.27-1.06-0.7-2.38-2.32-3.41l2.03-8.06c1.85 0.14 3.28-0.37 3.55-1.43s-0.71-2.38-2.33-3.41l2.03-8.06c1.84 0.14 3.28-0.37 3.54-1.43 0.36-1.51-1.69-3.52-4.61-4.5zm-4.61 20.87l-1.73 6.88c0.98 0.45 1.63 1.1 1.51 1.58-0.14 0.56-1.31 0.66-2.6 0.23-1.3-0.44-2.23-1.25-2.09-1.81 0.12-0.47 0.97-0.62 2.01-0.39l1.73-6.88c0.13-0.54 0.51-0.88 0.83-0.77 0.32 0.1 0.47 0.62 0.34 1.16zm3.91-4.16c-0.14 0.56-1.7 0.53-3.48-0.07s-3.11-1.54-2.97-2.11c0.14-0.56 1.7-0.53 3.48 0.07s3.11 1.55 2.97 2.11zm2.36-13.21c-0.12 0.47-0.97 0.62-2.01 0.39l-1.73 6.88c-0.13 0.54-0.51 0.88-0.83 0.77s-0.48-0.63-0.34-1.17l1.73-6.88c-0.98-0.45-1.63-1.1-1.51-1.58 0.14-0.56 1.31-0.67 2.6-0.23 1.3 0.45 2.23 1.26 2.09 1.82z" fill="#DBC879"/>
   <path id="path3541" stroke="#7C5A2D" stroke-width=".25" d="m19.02 36.17c-2.92-0.98-5.59-0.56-5.97 0.94-0.27 1.06 0.7 2.38 2.33 3.41l-2.03 8.06c-1.85-0.14-3.28 0.37-3.54 1.43-0.27 1.06 0.7 2.38 2.33 3.41l-2.03 8.06c-1.84-0.14-3.27 0.37-3.54 1.43-0.38 1.5 1.68 3.51 4.6 4.5 2.92 0.98 5.59 0.56 5.96-0.94 0.27-1.06-0.7-2.38-2.32-3.41l2.03-8.06c1.85 0.14 3.28-0.37 3.55-1.43s-0.71-2.38-2.33-3.41l2.03-8.06c1.84 0.14 3.28-0.37 3.54-1.43 0.36-1.51-1.69-3.52-4.61-4.5zm-4.61 20.87l-1.73 6.88c0.98 0.45 1.63 1.1 1.51 1.58-0.14 0.56-1.31 0.66-2.6 0.23-1.3-0.44-2.23-1.25-2.09-1.81 0.12-0.47 0.97-0.62 2.01-0.39l1.73-6.88c0.13-0.54 0.51-0.88 0.83-0.77 0.32 0.1 0.47 0.62 0.34 1.16zm3.91-4.16c-0.14 0.56-1.7 0.53-3.48-0.07s-3.11-1.54-2.97-2.11c0.14-0.56 1.7-0.53 3.48 0.07s3.11 1.55 2.97 2.11zm2.36-13.21c-0.12 0.47-0.97 0.62-2.01 0.39l-1.73 6.88c-0.13 0.54-0.51 0.88-0.83 0.77s-0.48-0.63-0.34-1.17l1.73-6.88c-0.98-0.45-1.63-1.1-1.51-1.58 0.14-0.56 1.31-0.67 2.6-0.23 1.3 0.45 2.23 1.26 2.09 1.82z" fill="none"/>
   <path id="path3543" stroke="#7C5A2D" stroke-width=".25" d="m19.85 67.7c-1.77-5.79 2.35-13.28 2.35-13.28s-7.35 7.49-5.29 13.28h2.94z" fill="#EADA9B"/>
   <path id="path3545" stroke="#7C5A2D" d="m30.33 52.2c-10.89 0-12.13-1.84-15.85-5.97 4.7-3.44 10.9-3.9 16.34 4.82l-0.49 1.15z" fill="#BFAA52"/>
   <path id="path3547" d="m27.52 50.68c-6.89 0-7.68-1.16-10.03-3.78 2.98-2.18 6.9-2.47 10.34 3.05l-0.31 0.73z" fill="#DBC775"/>
   <path id="path3549" stroke="#7C5A2D" d="m42.27 47.51c-0.36 2.52-6.85 4.67-9.62 5.14s1.52-5.63 6.18-9.5c2.95-0.51 3.67 2.79 3.44 4.36z" fill="#BFAA52"/>
   <path id="path3551" d="m37.59 49.31c-0.15 1.08-2.95 2.01-4.14 2.21s0.66-2.42 2.66-4.09c1.27-0.22 1.58 1.2 1.48 1.88z" fill="#DBC775"/>
   <path id="path3553" stroke="#7C5A2D" stroke-width=".75" d="m38.25 67.92c-7.82-3.7-5.44-11.92-5.44-18.72l-2.23-0.29s-2.8 17.48 4.83 18.76l2.84 0.25z" fill="#E5D389"/>
   <path id="path3555" stroke="#7C5A2D" d="m43.33 52.91v7.75s-2.47 2.07-4.21 2.07c-1.73 0-6.93-9.55-6.44-10.59 0.51-1.04 10.16-1.29 10.65 0.77z" fill="#BFAA52"/>
   <path id="path3557" d="m40.06 53.5c1.02 0.72 0 3.43 0 3.43s-1.33 0.91-2.27 0.91c-0.93 0-3.73-4.22-3.47-4.68s4.72-0.37 5.74 0.34z" fill="#DBC775"/>
   <path id="path3559" stroke="#7C5A2D" d="m31.45 52.39c-12.87-1.29-10.89 4.39-14.11 10.07 10.15 2.84 10.89-5.42 14.11-10.07z" fill="#BFAA52"/>
   <path id="path3561" d="m30.26 53.1c-8.21-0.82-6.95 2.8-9 6.42 6.48 1.82 6.95-3.45 9-6.42z" fill="#E2CF7F"/>
   <path id="path3563" stroke="#7C5A2D" d="m32.93 50.42s3.69-9.06-0.25-11.11c-4.04-2.11-6.64-1.29-7.13 0-0.5 1.29 3.91 12.41 5.65 12.66 1.73 0.26 1.73-1.55 1.73-1.55z" fill="#BFAA52"/>
   <path id="path3565" d="m32.14 50.27s2.05-5.67-0.14-6.95c-2.24-1.32-3.68-0.81-3.96 0s2.17 7.76 3.13 7.92c0.97 0.16 0.97-0.97 0.97-0.97z" fill="#DBC775"/>
   <path id="path3567" stroke="#7C5A2D" stroke-width=".25" d="m31.45 51.12s-1.48-2.54-1.23-4.87" fill="#EADDA7"/>
   <path id="path3569" stroke="#7C5A2D" d="m30.33 52.6s-4.13 5.57-2.01 5.48c2.41-0.11 2.6 0 5.1 0.46 2.57 0.47 0.2-5.55-1.6-6.32l-1.49 0.38z" fill="#BFAA52"/>
   <path id="path3571" stroke="#7C5A2D" stroke-width=".5" d="m27.27 48.13s2.02 2.93 3.35 2.93 0.61 2.18 0 1.56c-0.62-0.63-2.47-2.43-3.57-2.62-0.82 0-1.01-2.34 0.22-1.87z" fill="#DBC879"/>
   <path id="path3573" stroke="#AF9A41" d="m44 12.51c-4.46 0-8.54 2.85-8.54 6.37s4.08 6.37 8.54 6.37v-12.74z" fill="#D3BB54"/>
   <path id="path3575" stroke="#AF9A41" d="m33.33 7.64c0-3.52-3.62-6.23-8.08-6.23s-8.08 2.71-8.08 6.23 3.62 6.37 8.08 6.37c4.46 0 8.08-2.85 8.08-6.37z" fill="#D3BB54"/>
   <ellipse id="ellipse3577" cy="17.54" rx="8.08" ry="6.37" stroke="#AF9A41" cx="29.56" fill="#D3BB54"/>
   <path id="path3579" stroke="#AF9A41" d="m44 16.35v-14.93h-13.1c-2.93 1.56-3.79 4.49-3.79 7.49 0 4.79 4.93 8.68 11.02 8.68 2.08-0.01 4.21-0.46 5.87-1.24z" fill="#DBC879"/>
   <path id="path3581" stroke="#AF9A41" d="m31.94 15.47s-0.72 1.82-3.03 1.82" fill="#D3BB54"/>
   <path id="path3583" stroke="#AF9A41" d="m27.19 6.62s-1.73 0.57-3.17-1.02" fill="#D3BB54"/>
   <path id="path3585" d="m44 0h-44v69h45v-69h-1zm-1 2v65h-41v-65h41z" fill="#633"/>
   <path id="path3587" d="m31.13 52.9s-1.71 2.31-0.83 2.27c1-0.04 1.08 0 2.11 0.19 1.06 0.2 0.08-2.3-0.66-2.62l-0.62 0.16z" fill="#E2CF7F"/>
  </g>
  <g id="season">
   <rect id="rect3590" height="67" width="43" y="1" x="1" fill="#E3E4FF"/>
   <polygon id="polygon3592" stroke="#99B9FF" points="4.69 42.38 9.02 39.76 10.2 44.33 6.26 48.26 8.62 49.89 10.2 48.26 10.98 51.52 14.91 51.19 14.52 47.93 17.27 49.24 18.85 47.28 14.13 44.01 13.34 39.44 19.24 41.4 20.81 45.97 23.56 44.99 22.77 42.7 26.71 44.33 28.28 41.07 23.96 39.44 27.11 38.45 25.92 36.17 20.42 37.8 14.91 35.84 20.03 32.9 25.92 33.88 26.31 31.27 23.17 30.94 26.31 28.98 23.96 26.37 20.81 28 20.81 26.04 18.06 25.71 17.27 30.61 12.55 33.23 11.77 28.66 15.7 24.41 12.95 23.1 11.38 25.06 10.58 21.47 7.05 22.12 7.45 25.39 4.69 24.08 3.12 25.71 7.45 28.66 8.23 33.55 3.12 31.92 1 27.81 1 34.92 1.16 34.86 6.26 36.82 1.55 39.76 1 39.66 1 45.06 1.16 44.99 1 45.91 1 47.31 3.51 47.6" fill="#CAE0FF"/>
   <path id="path3594" stroke="#678ED3" d="m40.63 26.67c1.1 0 2.17-0.13 3.21-0.35v-24.82h-14.3c-2.44 2.67-3.95 6.22-3.95 10.13 0 8.31 6.73 15.04 15.04 15.04z" fill="#99B9FF"/>
   <polygon id="polygon3596" stroke="#9EB3E8" stroke-width=".5" points="22.61 14.9 22.3 14.59 20.96 16.9 23.27 18.23 23.39 17.81" fill="#C9D3F2"/>
   <polygon id="polygon3598" stroke="#9EB3E8" stroke-width=".5" points="34.45 28.87 34.03 28.98 35.36 31.29 37.67 29.96 37.35 29.65" fill="#C9D3F2"/>
   <polygon id="polygon3600" points="43.83 30.1 43.83 29.71 43.59 29.96" fill="#798CD8"/>
   <polygon id="polygon3602" stroke="#9EB3E8" stroke-width=".5" points="23.39 5.45 23.27 5.03 20.96 6.36 22.3 8.67 22.61 8.36" fill="#C9D3F2"/>
   <polygon id="polygon3604" stroke="#678ED3" points="23.31 15.6 23.31 7.66 22.61 8.36 22.3 8.67 19.34 11.63 22.3 14.59 22.61 14.9" fill="#99B9FF"/>
   <polygon id="polygon3606" stroke="#9EB3E8" stroke-width=".5" points="26.66 23.47 26.23 23.36 26.23 26.02 28.9 26.02 28.78 25.6" fill="#C9D3F2"/>
   <polygon id="polygon3608" stroke="#678ED3" points="37.35 29.65 37.67 29.96 40.63 32.92 43.59 29.96 43.83 29.71 43.83 28.95 36.66 28.95" fill="#99B9FF"/>
   <polygon id="polygon3610" stroke="#678ED3" points="35.41 28.61 28.53 24.64 28.78 25.6 28.9 26.02 29.98 30.07 34.03 28.98 34.45 28.87" fill="#99B9FF"/>
   <polygon id="polygon3612" stroke="#678ED3" points="27.61 23.73 23.64 16.85 23.39 17.81 23.27 18.23 22.19 22.27 26.23 23.36 26.66 23.47" fill="#99B9FF"/>
   <polygon id="polygon3614" stroke="#678ED3" points="23.39 5.45 23.64 6.41 26.48 1.5 22.33 1.5 23.27 5.03" fill="#99B9FF"/>
   <path id="path3616" stroke="#678ED3" d="m30.67 46.67s2.32-3 7-3c5.67 0 5.67 9.33 5.67 9.33h-23.67s-0.33-6.67 7.67-6.67c3.67 0 6 4 6 4" fill="#99B9FF"/>
   <line id="line3618" y2="65.36" x2="24.83" stroke="#678ED3" y1="57.27" x1="29.5" fill="#99B9FF"/>
   <line id="line3620" y2="65.95" x2="28.68" stroke="#678ED3" y1="55.68" x1="34.22" fill="#99B9FF"/>
   <line id="line3622" y2="65.91" x2="20.5" stroke="#678ED3" y1="61" x1="23.33" fill="#99B9FF"/>
   <line id="line3624" y2="62.59" x2="33.25" stroke="#678ED3" y1="54.63" x1="37.46" fill="#99B9FF"/>
   <line id="line3626" y2="66.21" x2="38.13" stroke="#678ED3" y1="62.17" x1="40.46" fill="#99B9FF"/>
   <line id="line3628" y2="59.14" x2="24.44" stroke="#678ED3" y1="54.52" x1="27.11" fill="#99B9FF"/>
   <line id="line3630" y2="55.73" x2="30.67" stroke="#678ED3" y1="54" x1="31.67" fill="#99B9FF"/>
   <line id="line3632" y2="61.09" x2="37.81" stroke="#678ED3" y1="55.6" x1="40.98" fill="#99B9FF"/>
   <line id="line3634" y2="57.92" x2="22.18" stroke="#678ED3" y1="55.04" x1="23.84" fill="#99B9FF"/>
   <line id="line3636" y2="63.59" x2="16.91" stroke="#678ED3" y1="55.63" x1="21.13" fill="#99B9FF"/>
   <line id="line3638" y2="65.33" x2="35" stroke="#678ED3" y1="63.6" x1="36" fill="#99B9FF"/>
   <path id="path3640" d="m44 0h-44v69h45v-69h-1zm-1 2v65h-41v-65h41z" fill="#678ED3"/>
  </g>
 </defs>
 <use id="use3642" y="0" x="0" xlink:href="#bt1"/>
 <use id="use3644" y="0" x="64" xlink:href="#bt1"/>
 <use id="use3646" y="0" x="128" xlink:href="#bt1"/>
 <use id="use3648" y="0" x="192" xlink:href="#bt1"/>
 <use id="use3650" y="0" x="256" xlink:href="#bt1"/>
 <use id="use3652" y="0" x="320" xlink:href="#bt1"/>
 <use id="use3654" y="0" x="384" xlink:href="#bt1"/>
 <use id="use3656" y="0" x="448" xlink:href="#bt1"/>
 <use id="use3658" y="0" x="512" xlink:href="#bt1"/>
 <use id="use3660" y="0" x="576" xlink:href="#bt1"/>
 <use id="use3662" y="0" x="640" xlink:href="#bt1"/>
 <use id="use3664" y="0" x="704" xlink:href="#bt1"/>
 <use id="use3666" y="0" x="768" xlink:href="#bt1"/>
 <use id="use3668" y="0" x="832" xlink:href="#bt1"/>
 <use id="use3670" y="0" x="896" xlink:href="#bt1"/>
 <use id="use3672" y="0" x="960" xlink:href="#bt1"/>
 <use id="use3674" y="0" x="1024" xlink:href="#bt1"/>
 <use id="use3676" y="0" x="1088" xlink:href="#bt1"/>
 <use id="use3678" y="0" x="1152" xlink:href="#bt1"/>
 <use id="use3680" y="0" x="1216" xlink:href="#bt1"/>
 <use id="use3682" y="0" x="1280" xlink:href="#bt1"/>
 <use id="use3684" y="0" x="1344" xlink:href="#bt1"/>
 <use id="use3686" y="0" x="1408" xlink:href="#bt1"/>
 <use id="use3688" y="0" x="1472" xlink:href="#bt1"/>
 <use id="use3690" y="0" x="1536" xlink:href="#bt1"/>
 <use id="use3692" y="0" x="1600" xlink:href="#bt1"/>
 <use id="use3694" y="0" x="1664" xlink:href="#bt1"/>
 <use id="use3696" y="0" x="1728" xlink:href="#bt1"/>
 <use id="use3698" y="0" x="1792" xlink:href="#bt1"/>
 <use id="use3700" y="0" x="1856" xlink:href="#bt1"/>
 <use id="use3702" y="0" x="1920" xlink:href="#bt1"/>
 <use id="use3704" y="0" x="1984" xlink:href="#bt1"/>
 <use id="use3706" y="0" x="2048" xlink:href="#bt1"/>
 <use id="use3708" y="0" x="2112" xlink:href="#bt1"/>
 <use id="use3710" y="0" x="2176" xlink:href="#bt1"/>
 <use id="use3712" y="0" x="2240" xlink:href="#bt1"/>
 <use id="use3714" y="0" x="2304" xlink:href="#bt1"/>
 <use id="use3716" y="0" x="2368" xlink:href="#bt1"/>
 <use id="use3718" y="0" x="2432" xlink:href="#bt1"/>
 <use id="use3720" y="0" x="2496" xlink:href="#bt1"/>
 <use id="use3722" y="0" x="2560" xlink:href="#bt1"/>
 <use id="use3724" y="0" x="2624" xlink:href="#bt1"/>
 <use id="use3726" y="0" x="2688" xlink:href="#bt1"/>
 <use id="use3728" y="88" x="0" xlink:href="#bt2"/>
 <use id="use3730" y="88" x="64" xlink:href="#bt2"/>
 <use id="use3732" y="88" x="128" xlink:href="#bt2"/>
 <use id="use3734" y="88" x="192" xlink:href="#bt2"/>
 <use id="use3736" y="88" x="256" xlink:href="#bt2"/>
 <use id="use3738" y="88" x="320" xlink:href="#bt2"/>
 <use id="use3740" y="88" x="384" xlink:href="#bt2"/>
 <use id="use3742" y="88" x="448" xlink:href="#bt2"/>
 <use id="use3744" y="88" x="512" xlink:href="#bt2"/>
 <use id="use3746" y="88" x="576" xlink:href="#bt2"/>
 <use id="use3748" y="88" x="640" xlink:href="#bt2"/>
 <use id="use3750" y="88" x="704" xlink:href="#bt2"/>
 <use id="use3752" y="88" x="768" xlink:href="#bt2"/>
 <use id="use3754" y="88" x="832" xlink:href="#bt2"/>
 <use id="use3756" y="88" x="896" xlink:href="#bt2"/>
 <use id="use3758" y="88" x="960" xlink:href="#bt2"/>
 <use id="use3760" y="88" x="1024" xlink:href="#bt2"/>
 <use id="use3762" y="88" x="1088" xlink:href="#bt2"/>
 <use id="use3764" y="88" x="1152" xlink:href="#bt2"/>
 <use id="use3766" y="88" x="1216" xlink:href="#bt2"/>
 <use id="use3768" y="88" x="1280" xlink:href="#bt2"/>
 <use id="use3770" y="88" x="1344" xlink:href="#bt2"/>
 <use id="use3772" y="88" x="1408" xlink:href="#bt2"/>
 <use id="use3774" y="88" x="1472" xlink:href="#bt2"/>
 <use id="use3776" y="88" x="1536" xlink:href="#bt2"/>
 <use id="use3778" y="88" x="1600" xlink:href="#bt2"/>
 <use id="use3780" y="88" x="1664" xlink:href="#bt2"/>
 <use id="use3782" y="88" x="1728" xlink:href="#bt2"/>
 <use id="use3784" y="88" x="1792" xlink:href="#bt2"/>
 <use id="use3786" y="88" x="1856" xlink:href="#bt2"/>
 <use id="use3788" y="88" x="1920" xlink:href="#bt2"/>
 <use id="use3790" y="88" x="1984" xlink:href="#bt2"/>
 <use id="use3792" y="88" x="2048" xlink:href="#bt2"/>
 <use id="use3794" y="88" x="2112" xlink:href="#bt2"/>
 <use id="use3796" y="88" x="2176" xlink:href="#bt2"/>
 <use id="use3798" y="88" x="2240" xlink:href="#bt2"/>
 <use id="use3800" y="88" x="2304" xlink:href="#bt2"/>
 <use id="use3802" y="88" x="2368" xlink:href="#bt2"/>
 <use id="use3804" y="88" x="2432" xlink:href="#bt2"/>
 <use id="use3806" y="88" x="2496" xlink:href="#bt2"/>
 <use id="use3808" y="88" x="2560" xlink:href="#bt2"/>
 <use id="use3810" y="88" x="2624" xlink:href="#bt2"/>
 <use id="use3812" y="88" x="2688" xlink:href="#bt2"/>
 <use id="use3814" y="41" x="979" xlink:href="#nums"/>
 <use id="use3816" y="41" x="1043" xlink:href="#nums"/>
 <use id="use3818" y="41" x="1107" xlink:href="#nums"/>
 <use id="use3820" y="41" x="1171" xlink:href="#nums"/>
 <use id="use3822" y="41" x="1235" xlink:href="#nums"/>
 <use id="use3824" y="41" x="1299" xlink:href="#nums"/>
 <use id="use3826" y="41" x="1363" xlink:href="#nums"/>
 <use id="use3828" y="41" x="1427" xlink:href="#nums"/>
 <use id="use3830" y="41" x="1491" xlink:href="#nums"/>
 <use id="use3832" y="129" x="979" xlink:href="#nums"/>
 <use id="use3834" y="129" x="1043" xlink:href="#nums"/>
 <use id="use3836" y="129" x="1107" xlink:href="#nums"/>
 <use id="use3838" y="129" x="1171" xlink:href="#nums"/>
 <use id="use3840" y="129" x="1235" xlink:href="#nums"/>
 <use id="use3842" y="129" x="1299" xlink:href="#nums"/>
 <use id="use3844" y="129" x="1363" xlink:href="#nums"/>
 <use id="use3846" y="129" x="1427" xlink:href="#nums"/>
 <use id="use3848" y="129" x="1491" xlink:href="#nums"/>
 <use id="use3850" y="6" x="2125" xlink:href="#season"/>
 <use id="use3852" y="6" x="2189" xlink:href="#season"/>
 <use id="use3854" y="6" x="2253" xlink:href="#season"/>
 <use id="use3856" y="6" x="2317" xlink:href="#season"/>
 <use id="use3858" y="94" x="2125" xlink:href="#season"/>
 <use id="use3860" y="94" x="2189" xlink:href="#season"/>
 <use id="use3862" y="94" x="2253" xlink:href="#season"/>
 <use id="use3864" y="94" x="2317" xlink:href="#season"/>
 <use id="use3866" y="6" x="2445" xlink:href="#flower"/>
 <use id="use3868" y="6" x="2509" xlink:href="#flower"/>
 <use id="use3870" y="6" x="2573" xlink:href="#flower"/>
 <use id="use3872" y="6" x="2637" xlink:href="#flower"/>
 <use id="use3874" y="94" x="2445" xlink:href="#flower"/>
 <use id="use3876" y="94" x="2509" xlink:href="#flower"/>
 <use id="use3878" y="94" x="2573" xlink:href="#flower"/>
 <use id="use3880" y="94" x="2637" xlink:href="#flower"/>
 <use id="use3882" xlink:href="#dots" transform="translate(88.5 16.5) scale(1.22)"/>
 <use id="use3884" xlink:href="#dots" transform="translate(88.5 42.5) scale(1.22)"/>
 <use id="use3886" xlink:href="#dots" transform="translate(88.5 104.5) scale(1.22)"/>
 <use id="use3888" xlink:href="#dots" transform="translate(88.5 130.5) scale(1.22)"/>
 <use id="use3890" xlink:href="#dots" transform="translate(144.5 12.5)"/>
 <use id="use3892" xlink:href="#dots" transform="translate(144.5 100.5)"/>
 <use id="use3894" xlink:href="#dots2" transform="translate(154.5 31.5)"/>
 <use id="use3896" xlink:href="#dots2" transform="translate(154.5 119.5)"/>
 <use id="use3898" xlink:href="#dots" transform="translate(164.5 50.5)"/>
 <use id="use3900" xlink:href="#dots" transform="translate(164.5 138.5)"/>
 <use id="use3902" xlink:href="#dots" transform="translate(209 15) scale(.94)"/>
 <use id="use3904" xlink:href="#dots" transform="translate(209 49) scale(.94)"/>
 <use id="use3906" xlink:href="#dots" transform="translate(209 103) scale(.94)"/>
 <use id="use3908" xlink:href="#dots" transform="translate(209 137) scale(.94)"/>
 <use id="use3910" xlink:href="#dots" transform="translate(229 15) scale(.94)"/>
 <use id="use3912" xlink:href="#dots" transform="translate(229 49) scale(.94)"/>
 <use id="use3914" xlink:href="#dots" transform="translate(229 103) scale(.94)"/>
 <use id="use3916" xlink:href="#dots" transform="translate(229 137) scale(.94)"/>
 <use id="use3918" xlink:href="#dots" transform="translate(273.5 13.5) scale(.88)"/>
 <use id="use3920" xlink:href="#dots" transform="translate(273.5 51.5) scale(.88)"/>
 <use id="use3922" xlink:href="#dots" transform="translate(273.5 101.5) scale(.88)"/>
 <use id="use3924" xlink:href="#dots" transform="translate(273.5 139.5) scale(.88)"/>
 <use id="use3926" xlink:href="#dots2" transform="translate(283.5 32.5) scale(.88)"/>
 <use id="use3928" xlink:href="#dots2" transform="translate(283.5 120.5) scale(.88)"/>
 <use id="use3930" xlink:href="#dots" transform="translate(293.5 13.5) scale(.88)"/>
 <use id="use3932" xlink:href="#dots" transform="translate(293.5 51.5) scale(.88)"/>
 <use id="use3934" xlink:href="#dots" transform="translate(293.5 101.5) scale(.88)"/>
 <use id="use3936" xlink:href="#dots" transform="translate(293.5 139.5) scale(.88)"/>
 <use id="use3938" xlink:href="#dots" transform="translate(340 14) scale(.72)"/>
 <use id="use3940" xlink:href="#dots2" transform="translate(340 37) scale(.72)"/>
 <use id="use3942" xlink:href="#dots2" transform="translate(340 54) scale(.72)"/>
 <use id="use3944" xlink:href="#dots" transform="translate(340 102) scale(.72)"/>
 <use id="use3946" xlink:href="#dots2" transform="translate(340 125) scale(.72)"/>
 <use id="use3948" xlink:href="#dots2" transform="translate(340 142) scale(.72)"/>
 <use id="use3950" xlink:href="#dots" transform="translate(358 14) scale(.72)"/>
 <use id="use3952" xlink:href="#dots2" transform="translate(358 37) scale(.72)"/>
 <use id="use3954" xlink:href="#dots2" transform="translate(358 54) scale(.72)"/>
 <use id="use3956" xlink:href="#dots" transform="translate(358 102) scale(.72)"/>
 <use id="use3958" xlink:href="#dots2" transform="translate(358 125) scale(.72)"/>
 <use id="use3960" xlink:href="#dots2" transform="translate(358 142) scale(.72)"/>
 <use id="use3962" xlink:href="#dots" transform="translate(399 10) scale(.72)"/>
 <use id="use3964" xlink:href="#dots2" transform="translate(404 41) scale(.72)"/>
 <use id="use3966" xlink:href="#dots2" transform="translate(404 58) scale(.72)"/>
 <use id="use3968" xlink:href="#dots" transform="translate(413 17) scale(.72)"/>
 <use id="use3970" xlink:href="#dots" transform="translate(427 24) scale(.72)"/>
 <use id="use3972" xlink:href="#dots2" transform="translate(404 129) scale(.72)"/>
 <use id="use3974" xlink:href="#dots2" transform="translate(404 146) scale(.72)"/>
 <use id="use3976" xlink:href="#dots" transform="translate(399 98) scale(.72)"/>
 <use id="use3978" xlink:href="#dots2" transform="translate(422 41) scale(.72)"/>
 <use id="use3980" xlink:href="#dots2" transform="translate(422 58) scale(.72)"/>
 <use id="use3982" xlink:href="#dots" transform="translate(413 105) scale(.72)"/>
 <use id="use3984" xlink:href="#dots" transform="translate(427 112) scale(.72)"/>
 <use id="use3986" xlink:href="#dots2" transform="translate(422 129) scale(.72)"/>
 <use id="use3988" xlink:href="#dots2" transform="translate(422 146) scale(.72)"/>
 <use id="use3990" xlink:href="#dots" transform="translate(469 10) scale(.72)"/>
 <use id="use3992" xlink:href="#dots" transform="translate(469 26) scale(.72)"/>
 <use id="use3994" xlink:href="#dots" transform="translate(469 42) scale(.72)"/>
 <use id="use3996" xlink:href="#dots" transform="translate(469 58) scale(.72)"/>
 <use id="use3998" xlink:href="#dots" transform="translate(469 98) scale(.72)"/>
 <use id="use4000" xlink:href="#dots" transform="translate(469 114) scale(.72)"/>
 <use id="use4002" xlink:href="#dots" transform="translate(469 130) scale(.72)"/>
 <use id="use4004" xlink:href="#dots" transform="translate(469 146) scale(.72)"/>
 <use id="use4006" xlink:href="#dots" transform="translate(485 10) scale(.72)"/>
 <use id="use4008" xlink:href="#dots" transform="translate(485 26) scale(.72)"/>
 <use id="use4010" xlink:href="#dots" transform="translate(485 42) scale(.72)"/>
 <use id="use4012" xlink:href="#dots" transform="translate(485 58) scale(.72)"/>
 <use id="use4014" xlink:href="#dots" transform="translate(485 98) scale(.72)"/>
 <use id="use4016" xlink:href="#dots" transform="translate(485 114) scale(.72)"/>
 <use id="use4018" xlink:href="#dots" transform="translate(485 130) scale(.72)"/>
 <use id="use4020" xlink:href="#dots" transform="translate(485 146) scale(.72)"/>
 <use id="use4022" xlink:href="#dots" transform="translate(526 14) scale(.72)"/>
 <use id="use4024" xlink:href="#dots2" transform="translate(526 34) scale(.72)"/>
 <use id="use4026" xlink:href="#dots" transform="translate(526 54) scale(.72)"/>
 <use id="use4028" xlink:href="#dots" transform="translate(526 102) scale(.72)"/>
 <use id="use4030" xlink:href="#dots2" transform="translate(526 122) scale(.72)"/>
 <use id="use4032" xlink:href="#dots" transform="translate(526 142) scale(.72)"/>
 <use id="use4034" xlink:href="#dots" transform="translate(541 14) scale(.72)"/>
 <use id="use4036" xlink:href="#dots2" transform="translate(541 34) scale(.72)"/>
 <use id="use4038" xlink:href="#dots" transform="translate(541 54) scale(.72)"/>
 <use id="use4040" xlink:href="#dots" transform="translate(541 102) scale(.72)"/>
 <use id="use4042" xlink:href="#dots2" transform="translate(541 122) scale(.72)"/>
 <use id="use4044" xlink:href="#dots" transform="translate(541 142) scale(.72)"/>
 <use id="use4046" xlink:href="#dots" transform="translate(556 14) scale(.72)"/>
 <use id="use4048" xlink:href="#dots2" transform="translate(556 34) scale(.72)"/>
 <use id="use4050" xlink:href="#dots" transform="translate(556 54) scale(.72)"/>
 <use id="use4052" xlink:href="#dots" transform="translate(556 102) scale(.72)"/>
 <use id="use4054" xlink:href="#dots2" transform="translate(556 122) scale(.72)"/>
 <use id="use4056" xlink:href="#dots" transform="translate(556 142) scale(.72)"/>
 <use id="use4058" xlink:href="#bams" transform="translate(1565 25) scale(1.18 1.15)"/>
 <use id="use4060" xlink:href="#bams" transform="translate(1565 113) scale(1.18 1.15)"/>
 <use id="use4062" xlink:href="#bams" transform="translate(1630 9.5)"/>
 <use id="use4064" xlink:href="#bams" transform="translate(1630 44.5)"/>
 <use id="use4066" xlink:href="#bams" transform="translate(1630 97.5)"/>
 <use id="use4068" xlink:href="#bams" transform="translate(1630 132.5)"/>
 <use id="use4070" xlink:href="#bams" transform="translate(1682 44.5)"/>
 <use id="use4072" xlink:href="#bams" transform="translate(1682 132.5)"/>
 <use id="use4074" xlink:href="#bams" transform="translate(1694 9.5)"/>
 <use id="use4076" xlink:href="#bams" transform="translate(1694 97.5)"/>
 <use id="use4078" xlink:href="#bams" transform="translate(1705 44.5)"/>
 <use id="use4080" xlink:href="#bams" transform="translate(1705 132.5)"/>
 <use id="use4082" xlink:href="#bams" transform="translate(1746 9.5)"/>
 <use id="use4084" xlink:href="#bams" transform="translate(1746 44.5)"/>
 <use id="use4086" xlink:href="#bams" transform="translate(1746 97.5)"/>
 <use id="use4088" xlink:href="#bams" transform="translate(1746 132.5)"/>
 <use id="use4090" xlink:href="#bams" transform="translate(1770 9.5)"/>
 <use id="use4092" xlink:href="#bams" transform="translate(1770 44.5)"/>
 <use id="use4094" xlink:href="#bams" transform="translate(1770 97.5)"/>
 <use id="use4096" xlink:href="#bams" transform="translate(1770 132.5)"/>
 <use id="use4098" xlink:href="#bams" transform="translate(1810 10.5) scale(.91 .925)"/>
 <use id="use4100" xlink:href="#bams" transform="translate(1810 45.5) scale(.91 .925)"/>
 <use id="use4102" xlink:href="#bams" transform="translate(1810 98.5) scale(.91 .925)"/>
 <use id="use4104" xlink:href="#bams" transform="translate(1810 133.5) scale(.91 .925)"/>
 <use id="use4106" xlink:href="#bams2" transform="translate(1822.5 116) scale(.91 .925)"/>
 <use id="use4108" xlink:href="#bams2" transform="translate(1822.5 28) scale(.91 .925)"/>
 <use id="use4110" xlink:href="#bams" transform="translate(1835 10.5) scale(.91 .925)"/>
 <use id="use4112" xlink:href="#bams" transform="translate(1835 45.5) scale(.91 .925)"/>
 <use id="use4114" xlink:href="#bams" transform="translate(1835 98.5) scale(.91 .925)"/>
 <use id="use4116" xlink:href="#bams" transform="translate(1835 133.5) scale(.91 .925)"/>
 <use id="use4118" xlink:href="#bams" transform="translate(1875 12.5) scale(.82 .85)"/>
 <use id="use4120" xlink:href="#bams" transform="translate(1875 45.5) scale(.82 .85)"/>
 <use id="use4122" xlink:href="#bams" transform="translate(1875 100.5) scale(.82 .85)"/>
 <use id="use4124" xlink:href="#bams" transform="translate(1875 133.5) scale(.82 .85)"/>
 <use id="use4126" xlink:href="#bams" transform="translate(1887 12.5) scale(.82 .85)"/>
 <use id="use4128" xlink:href="#bams" transform="translate(1887 45.5) scale(.82 .85)"/>
 <use id="use4130" xlink:href="#bams" transform="translate(1887 100.5) scale(.82 .85)"/>
 <use id="use4132" xlink:href="#bams" transform="translate(1887 133.5) scale(.82 .85)"/>
 <use id="use4134" xlink:href="#bams" transform="translate(1899 12.5) scale(.82 .85)"/>
 <use id="use4136" xlink:href="#bams" transform="translate(1899 45.5) scale(.82 .85)"/>
 <use id="use4138" xlink:href="#bams" transform="translate(1899 100.5) scale(.82 .85)"/>
 <use id="use4140" xlink:href="#bams" transform="translate(1899 133.5) scale(.82 .85)"/>
 <use id="use4142" xlink:href="#bams" transform="translate(1939.5 31.5) scale(.73 .66)"/>
 <use id="use4144" xlink:href="#bams" transform="translate(1951.5 31.5) scale(.73 .66)"/>
 <use id="use4146" xlink:href="#bams" transform="translate(1963.5 31.5) scale(.73 .66)"/>
 <use id="use4148" xlink:href="#bams" transform="translate(1939.5 50.5) scale(.73 .66)"/>
 <use id="use4150" xlink:href="#bams" transform="translate(1951.5 50.5) scale(.73 .66)"/>
 <use id="use4152" xlink:href="#bams" transform="translate(1963.5 50.5) scale(.73 .66)"/>
 <use id="use4154" xlink:href="#bams" transform="translate(1939.5 119.5) scale(.73 .66)"/>
 <use id="use4156" xlink:href="#bams" transform="translate(1951.5 119.5) scale(.73 .66)"/>
 <use id="use4158" xlink:href="#bams" transform="translate(1963.5 119.5) scale(.73 .66)"/>
 <use id="use4160" xlink:href="#bams" transform="translate(1939.5 138.5) scale(.73 .66)"/>
 <use id="use4162" xlink:href="#bams" transform="translate(1951.5 138.5) scale(.73 .66)"/>
 <use id="use4164" xlink:href="#bams" transform="translate(1963.5 138.5) scale(.73 .66)"/>
 <use id="use4166" xlink:href="#bams2" transform="translate(1951.5 12.5) scale(.73 .66)"/>
 <use id="use4168" xlink:href="#bams2" transform="translate(1951.5 100.5) scale(.73 .66)"/>
 <use id="use4170" xlink:href="#bams" transform="translate(2003.5 13.5) scale(.73 .77)"/>
 <use id="use4172" xlink:href="#bams" transform="translate(2003.5 46.5) scale(.73 .77)"/>
 <use id="use4174" xlink:href="#bams" transform="translate(2003.5 101.5) scale(.73 .77)"/>
 <use id="use4176" xlink:href="#bams" transform="translate(2003.5 134.5) scale(.73 .77)"/>
 <use id="use4178" xlink:href="#bams" transform="translate(2027.5 13.5) scale(.73 .77)"/>
 <use id="use4180" xlink:href="#bams" transform="translate(2027.5 46.5) scale(.73 .77)"/>
 <use id="use4182" xlink:href="#bams" transform="translate(2027.5 101.5) scale(.73 .77)"/>
 <use id="use4184" xlink:href="#bams" transform="translate(2027.5 134.5) scale(.73 .77)"/>
 <use id="use4186" xlink:href="#bams" transform="translate(2067.5 12.5) scale(.73 .66)"/>
 <use id="use4188" xlink:href="#bams" transform="translate(2067.5 31.5) scale(.73 .66)"/>
 <use id="use4190" xlink:href="#bams" transform="translate(2067.5 50.5) scale(.73 .66)"/>
 <use id="use4192" xlink:href="#bams" transform="translate(2067.5 100.5) scale(.73 .66)"/>
 <use id="use4194" xlink:href="#bams" transform="translate(2067.5 119.5) scale(.73 .66)"/>
 <use id="use4196" xlink:href="#bams" transform="translate(2067.5 138.5) scale(.73 .66)"/>
 <use id="use4198" xlink:href="#bams2" transform="translate(2079.5 12.5) scale(.73 .66)"/>
 <use id="use4200" xlink:href="#bams2" transform="translate(2079.5 31.5) scale(.73 .66)"/>
 <use id="use4202" xlink:href="#bams2" transform="translate(2079.5 50.5) scale(.73 .66)"/>
 <use id="use4204" xlink:href="#bams2" transform="translate(2079.5 100.5) scale(.73 .66)"/>
 <use id="use4206" xlink:href="#bams2" transform="translate(2079.5 119.5) scale(.73 .66)"/>
 <use id="use4208" xlink:href="#bams2" transform="translate(2079.5 138.5) scale(.73 .66)"/>
 <use id="use4210" xlink:href="#bams" transform="translate(2091.5 12.5) scale(.73 .66)"/>
 <use id="use4212" xlink:href="#bams" transform="translate(2091.5 31.5) scale(.73 .66)"/>
 <use id="use4214" xlink:href="#bams" transform="translate(2091.5 50.5) scale(.73 .66)"/>
 <use id="use4216" xlink:href="#bams" transform="translate(2091.5 100.5) scale(.73 .66)"/>
 <use id="use4218" xlink:href="#bams" transform="translate(2091.5 119.5) scale(.73 .66)"/>
 <use id="use4220" xlink:href="#bams" transform="translate(2091.5 138.5) scale(.73 .66)"/>
 <path id="path4222" d="m2031.8 29.81c-0.41-0.59-1.51-0.57-2.75-0.06l-3.11-4.44c0.9-1 1.3-2.02 0.89-2.61-0.41-0.58-1.51-0.57-2.75-0.06l-3.11-4.44c0.9-1 1.3-2.02 0.89-2.61-0.58-0.83-2.51-0.47-4.32 0.8s-2.81 2.96-2.23 3.79c0.41 0.59 1.51 0.57 2.75 0.06l3.11 4.44c-0.9 1-1.3 2.02-0.89 2.61s1.51 0.57 2.75 0.06l3.11 4.44c-0.9 1-1.3 2.02-0.89 2.61 0.58 0.83 2.51 0.47 4.32-0.8s2.8-2.96 2.3-3.79zm-10.6-7.33l-2.65-3.79c-0.67 0.38-1.29 0.49-1.47 0.22-0.22-0.31 0.26-1.02 1.06-1.58s1.63-0.77 1.85-0.46c0.18 0.26-0.13 0.8-0.71 1.3l2.65 3.79c0.21 0.3 0.21 0.65 0.01 0.79-0.3 0.15-0.6 0.02-0.8-0.27zm0.3 3.92c-0.22-0.31 0.5-1.19 1.61-1.96 1.11-0.78 2.18-1.15 2.4-0.84s-0.5 1.19-1.61 1.96c-1.1 0.77-2.2 1.15-2.4 0.84zm7.4 6.27c-0.8 0.56-1.63 0.77-1.85 0.46-0.18-0.26 0.13-0.8 0.71-1.3l-2.65-3.79c-0.21-0.29-0.21-0.65-0.01-0.79s0.53-0.02 0.74 0.28l2.65 3.79c0.67-0.38 1.29-0.49 1.47-0.22 0.3 0.29-0.2 1-1 1.57z" fill="#006C00"/>
 <path id="path4224" d="m2021.5 16.4c-1.81-1.27-3.75-1.62-4.32-0.8-0.41 0.58-0.02 1.61 0.89 2.61l-3.11 4.44c-1.25-0.51-2.35-0.53-2.75 0.06-0.41 0.59-0.02 1.61 0.89 2.61l-3.11 4.44c-1.25-0.51-2.34-0.53-2.75 0.06-0.58 0.83 0.42 2.52 2.23 3.79s3.75 1.63 4.32 0.8c0.41-0.59 0.02-1.61-0.89-2.61l3.11-4.44c1.25 0.51 2.34 0.53 2.75-0.06 0.41-0.58 0.02-1.61-0.89-2.61l3.11-4.44c1.25 0.51 2.34 0.53 2.75-0.06 0.7-0.83-0.3-2.52-2.1-3.79zm-7.6 11.63l-2.65 3.79c0.58 0.5 0.9 1.04 0.71 1.31-0.22 0.31-1.04 0.11-1.85-0.46s-1.28-1.27-1.06-1.58c0.18-0.26 0.8-0.15 1.47 0.22l2.65-3.79c0.21-0.3 0.54-0.42 0.74-0.28 0.4 0.14 0.4 0.5 0.2 0.79zm3.6-1.63c-0.22 0.31-1.29-0.07-2.4-0.84s-1.83-1.65-1.61-1.96 1.29 0.07 2.4 0.84c1.1 0.77 1.8 1.65 1.6 1.96zm4.4-7.49c-0.18 0.26-0.8 0.15-1.47-0.22l-2.65 3.79c-0.21 0.3-0.54 0.42-0.74 0.28s-0.2-0.49 0.01-0.79l2.65-3.79c-0.58-0.5-0.9-1.04-0.71-1.3 0.22-0.31 1.04-0.11 1.85 0.46s1.2 1.26 0.9 1.57z" fill="#006C00"/>
 <path id="path4226" d="m2031.8 117.81c-0.41-0.59-1.51-0.57-2.75-0.06l-3.11-4.44c0.9-1 1.3-2.02 0.89-2.61-0.41-0.58-1.51-0.57-2.75-0.06l-3.11-4.44c0.9-1 1.3-2.02 0.89-2.61-0.58-0.83-2.51-0.47-4.32 0.8s-2.81 2.96-2.23 3.79c0.41 0.59 1.51 0.57 2.75 0.06l3.11 4.44c-0.9 1-1.3 2.02-0.89 2.61 0.41 0.58 1.51 0.56 2.75 0.06l3.11 4.44c-0.9 1-1.3 2.02-0.89 2.61 0.58 0.83 2.51 0.47 4.32-0.8 1.8-1.27 2.8-2.96 2.3-3.79zm-10.6-7.33l-2.65-3.79c-0.67 0.38-1.29 0.49-1.47 0.22-0.22-0.31 0.26-1.02 1.06-1.58s1.63-0.77 1.85-0.46c0.18 0.26-0.13 0.8-0.71 1.3l2.65 3.79c0.21 0.3 0.21 0.65 0.01 0.79-0.3 0.15-0.6 0.02-0.8-0.27zm0.3 3.92c-0.22-0.31 0.5-1.19 1.61-1.96 1.11-0.78 2.18-1.15 2.4-0.84s-0.5 1.19-1.61 1.96c-1.1 0.78-2.2 1.15-2.4 0.84zm7.4 6.27c-0.8 0.56-1.63 0.77-1.85 0.46-0.18-0.26 0.13-0.8 0.71-1.31l-2.65-3.79c-0.21-0.3-0.21-0.65-0.01-0.79s0.53-0.02 0.74 0.28l2.65 3.79c0.67-0.38 1.29-0.49 1.47-0.22 0.3 0.3-0.2 1.01-1 1.58z" fill="#006C00"/>
 <path id="path4228" d="m2021.5 104.4c-1.81-1.27-3.75-1.63-4.32-0.8-0.41 0.59-0.02 1.61 0.89 2.61l-3.11 4.44c-1.25-0.51-2.35-0.53-2.75 0.06-0.41 0.59-0.02 1.61 0.89 2.61l-3.11 4.44c-1.25-0.51-2.34-0.53-2.75 0.06-0.58 0.83 0.42 2.52 2.23 3.79s3.75 1.62 4.32 0.8c0.41-0.58 0.02-1.61-0.89-2.61l3.11-4.44c1.25 0.51 2.34 0.53 2.75-0.06s0.02-1.61-0.89-2.61l3.11-4.44c1.25 0.51 2.34 0.53 2.75-0.06 0.7-0.83-0.3-2.52-2.1-3.79zm-7.6 11.63l-2.65 3.79c0.58 0.5 0.9 1.04 0.71 1.31-0.22 0.31-1.04 0.11-1.85-0.46-0.8-0.56-1.28-1.27-1.06-1.58 0.18-0.26 0.8-0.15 1.47 0.22l2.65-3.79c0.21-0.29 0.54-0.42 0.74-0.28 0.4 0.14 0.4 0.5 0.2 0.79zm3.6-1.63c-0.22 0.31-1.29-0.07-2.4-0.84s-1.83-1.65-1.61-1.96 1.29 0.07 2.4 0.84c1.1 0.77 1.8 1.65 1.6 1.96zm4.4-7.49c-0.18 0.26-0.8 0.15-1.47-0.22l-2.65 3.79c-0.21 0.3-0.54 0.42-0.74 0.28s-0.2-0.49 0.01-0.79l2.65-3.79c-0.58-0.5-0.9-1.04-0.71-1.3 0.22-0.31 1.04-0.11 1.85 0.46 0.7 0.56 1.2 1.27 0.9 1.57z" fill="#006C00"/>
 <path id="path4230" d="m2023.8 148.81c-0.41-0.59-1.51-0.57-2.75-0.06l-3.11-4.44c0.9-1 1.3-2.02 0.89-2.61s-1.51-0.57-2.75-0.06l-3.11-4.44c0.9-1 1.3-2.02 0.89-2.61-0.58-0.83-2.51-0.47-4.32 0.8s-2.81 2.96-2.23 3.79c0.41 0.59 1.51 0.57 2.75 0.06l3.11 4.44c-0.9 1-1.3 2.02-0.89 2.61 0.41 0.58 1.51 0.56 2.75 0.06l3.11 4.44c-0.9 1-1.3 2.02-0.89 2.61 0.58 0.83 2.51 0.47 4.32-0.8 1.8-1.27 2.8-2.96 2.3-3.79zm-10.6-7.33l-2.65-3.79c-0.67 0.38-1.29 0.49-1.47 0.22-0.22-0.31 0.26-1.02 1.06-1.58s1.63-0.77 1.85-0.46c0.18 0.26-0.13 0.8-0.71 1.3l2.65 3.79c0.21 0.29 0.21 0.65 0.01 0.79-0.3 0.15-0.6 0.02-0.8-0.27zm0.3 3.92c-0.22-0.31 0.5-1.19 1.61-1.96 1.11-0.78 2.18-1.15 2.4-0.84s-0.5 1.19-1.61 1.96-2.2 1.15-2.4 0.84zm7.4 6.27c-0.8 0.56-1.63 0.77-1.85 0.46-0.18-0.26 0.13-0.8 0.71-1.3l-2.65-3.79c-0.21-0.3-0.21-0.65-0.01-0.79s0.53-0.02 0.74 0.28l2.65 3.79c0.67-0.38 1.29-0.49 1.47-0.22 0.3 0.3-0.2 1-1 1.57z" fill="#006C00"/>
 <path id="path4232" d="m2029.5 135.4c-1.81-1.27-3.75-1.63-4.32-0.8-0.41 0.59-0.02 1.61 0.89 2.61l-3.11 4.44c-1.25-0.51-2.34-0.53-2.75 0.06s-0.02 1.61 0.89 2.61l-3.11 4.44c-1.25-0.51-2.34-0.53-2.75 0.06-0.58 0.83 0.42 2.52 2.23 3.79s3.75 1.62 4.32 0.8c0.41-0.58 0.02-1.61-0.89-2.61l3.11-4.44c1.25 0.51 2.35 0.53 2.75-0.06 0.41-0.58 0.02-1.61-0.89-2.61l3.11-4.44c1.25 0.51 2.34 0.53 2.75-0.06 0.7-0.83-0.3-2.52-2.1-3.79zm-7.6 11.63l-2.65 3.79c0.58 0.5 0.9 1.04 0.71 1.3-0.22 0.31-1.04 0.11-1.85-0.46-0.8-0.56-1.28-1.27-1.06-1.58 0.18-0.26 0.8-0.15 1.47 0.22l2.65-3.79c0.21-0.3 0.54-0.42 0.74-0.28 0.4 0.16 0.4 0.51 0.2 0.8zm3.6-1.63c-0.22 0.31-1.29-0.07-2.4-0.84s-1.83-1.65-1.61-1.96 1.29 0.07 2.4 0.84c1.1 0.77 1.8 1.65 1.6 1.96zm4.4-7.48c-0.18 0.26-0.8 0.15-1.47-0.22l-2.65 3.79c-0.21 0.29-0.54 0.42-0.74 0.28s-0.2-0.49 0.01-0.79l2.65-3.79c-0.58-0.5-0.9-1.04-0.71-1.3 0.22-0.31 1.04-0.11 1.85 0.46 0.7 0.55 1.2 1.26 0.9 1.57z" fill="#006C00"/>
 <path id="path4234" d="m2023.8 60.81c-0.41-0.59-1.51-0.57-2.75-0.06l-3.11-4.44c0.9-1 1.3-2.02 0.89-2.61s-1.51-0.56-2.75-0.06l-3.11-4.44c0.9-1 1.3-2.02 0.89-2.61-0.58-0.83-2.51-0.47-4.32 0.8s-2.81 2.96-2.23 3.79c0.41 0.59 1.51 0.57 2.75 0.06l3.11 4.44c-0.9 1-1.3 2.02-0.89 2.61 0.41 0.58 1.51 0.56 2.75 0.06l3.11 4.44c-0.9 1-1.3 2.02-0.89 2.61 0.58 0.83 2.51 0.47 4.32-0.8 1.8-1.27 2.8-2.96 2.3-3.79zm-10.6-7.33l-2.65-3.79c-0.67 0.38-1.29 0.49-1.47 0.22-0.22-0.31 0.26-1.02 1.06-1.58s1.63-0.77 1.85-0.46c0.18 0.26-0.13 0.8-0.71 1.3l2.65 3.79c0.21 0.29 0.21 0.65 0.01 0.79-0.3 0.15-0.6 0.02-0.8-0.27zm0.3 3.92c-0.22-0.31 0.5-1.19 1.61-1.96 1.11-0.78 2.18-1.15 2.4-0.84s-0.5 1.19-1.61 1.96c-1.1 0.78-2.2 1.15-2.4 0.84zm7.4 6.27c-0.8 0.56-1.63 0.77-1.85 0.46-0.18-0.26 0.13-0.8 0.71-1.3l-2.65-3.79c-0.21-0.3-0.21-0.65-0.01-0.79s0.53-0.02 0.74 0.28l2.65 3.79c0.67-0.38 1.29-0.49 1.47-0.22 0.3 0.3-0.2 1-1 1.57z" fill="#006C00"/>
 <path id="path4236" d="m2029.5 47.4c-1.81-1.27-3.75-1.63-4.32-0.8-0.41 0.59-0.02 1.61 0.89 2.61l-3.11 4.44c-1.25-0.51-2.34-0.53-2.75 0.06s-0.02 1.61 0.89 2.61l-3.11 4.44c-1.25-0.51-2.34-0.53-2.75 0.06-0.58 0.83 0.42 2.52 2.23 3.79s3.75 1.62 4.32 0.8c0.41-0.58 0.02-1.61-0.89-2.61l3.11-4.44c1.25 0.51 2.35 0.53 2.75-0.06 0.41-0.59 0.02-1.61-0.89-2.61l3.11-4.44c1.25 0.51 2.34 0.53 2.75-0.06 0.7-0.83-0.3-2.52-2.1-3.79zm-7.6 11.63l-2.65 3.79c0.58 0.5 0.9 1.04 0.71 1.3-0.22 0.31-1.04 0.11-1.85-0.46-0.8-0.56-1.28-1.27-1.06-1.58 0.18-0.26 0.8-0.15 1.47 0.22l2.65-3.79c0.21-0.3 0.54-0.42 0.74-0.28 0.4 0.16 0.4 0.51 0.2 0.8zm3.6-1.63c-0.22 0.31-1.29-0.07-2.4-0.84s-1.83-1.65-1.61-1.96 1.29 0.07 2.4 0.84c1.1 0.77 1.8 1.65 1.6 1.96zm4.4-7.48c-0.18 0.26-0.8 0.15-1.47-0.22l-2.65 3.79c-0.21 0.29-0.54 0.42-0.74 0.28s-0.2-0.49 0.01-0.79l2.65-3.79c-0.58-0.5-0.9-1.04-0.71-1.3 0.22-0.31 1.04-0.11 1.85 0.46 0.7 0.55 1.2 1.26 0.9 1.57z" fill="#006C00"/>
 <path id="path4238" d="m1171.2 12.1l6.8 19.4 0.3-0.1c3.6-1.2 13.3-4.1 15.3-2.6 0.2 0.2 0.3 0.4 0.3 0.7l-0.1 0.8 0.6-0.5c6.8-5.3 9.4-14 9.4-14.1v-0.2l-0.1-0.1c-4.9-7.3-24.9-1.3-25.7-1l-0.2 0.1v0.2s-0.2 1.7-0.2 2.4c-0.4-1.5-1.1-4.1-1.1-4.1l-5.6-1.3 0.3 0.4zm6.9 5.7c1.2-0.3 2.6-0.7 4-1s1.9 9.3 2 9.9c-0.5 0.1-3 0.8-3.6 1-0.1-0.4-1.4-5.6-2.5-9.9 0 0.1 0.1 0 0.1 0zm11.7-2.3c0 0.1-0.4 9.6-0.4 10.2-0.4 0.1-2.1 0.4-2.6 0.5-0.1-0.6-1.8-9.6-1.8-9.9 1.7-0.4 3.3-0.6 4.8-0.8zm7.9 0.9c-0.2 2.3-1.1 8.1-2.6 9.9-0.1-0.1 0-0.2-0.1-0.3-0.5-0.5-1.6-0.7-3.3-0.6 0.3-4.5 1-7.5 1.9-7.9l0.7-0.3s-3.5-1.7-3.8-1.8c3.8-0.4 6.8-0.3 7.2 1z" fill="#20208C"/>
 <path id="path4240" d="m1003.8 18.1c-0.3 0.2-0.4 0.5-0.4 0.8s0.1 0.5 0.1 0.7c-2.6 0.2-19.7 1.8-23.9 1.4h-0.4l1.7 6 0.3-0.1c3.3-1.1 24.1-2.4 29-1.4 0.8 0.1 1.2 0 1.4-0.4 0.5-1-1.9-3.5-3.4-4.8-0.9-0.9-3.4-2.8-4.4-2.2z" fill="#20208C"/>
 <path id="path4242" d="m1067.9 23.9c-0.3 0.2-0.4 0.5-0.4 0.9 0 0.2 0 0.5 0.1 0.7-2.8 0.3-19.9 1.9-24.1 1.4l-0.5-0.1 1.7 6.2 0.4-0.1c3.3-1.2 24.3-2.4 29.3-1.4 0.8 0.2 1.3 0 1.5-0.4 0.7-1.3-3-4.6-3.4-4.9-1-1-3.5-3-4.6-2.3z" fill="#20208C"/>
 <path id="path4244" d="m1060.1 12.9c-2.6 0.9-6.2 2.2-12.3 2.2h-0.7l2.9 4.2 16.7-2.2 0.5-3.1-0.1-0.1c-2.4-2.7-4.1-2.1-7-1z" fill="#20208C"/>
 <path id="path4246" d="m1131.7 26.3c-0.3 0.2-0.4 0.5-0.4 0.9 0 0.3 0 0.5 0.1 0.7-2.7 0.3-19.3 1.9-23.4 1.4l-0.5-0.1 1.7 6.2 0.3-0.1c3.2-1.2 23.6-2.4 28.4-1.4 0.8 0.2 1.3 0 1.5-0.4 0.6-1.3-2.9-4.6-3.3-5-1-0.8-3.4-2.9-4.4-2.2z" fill="#20208C"/>
 <polygon id="polygon4248" points="1125.3 19 1114 20.4 1115.6 24.7 1127.6 23.3 1125.6 19" fill="#20208C"/>
 <path id="path4250" d="m1122.9 8.6c-3 1.1-7 2.6-14 2.6h-0.6l3.2 4.9 18.9-2.6 0.6-3.6-0.1-0.1c-2.7-3.2-4.6-2.5-8-1.2z" fill="#20208C"/>
 <path id="path4252" d="m1245.8 10.3l-10.3 10.5 0.4 0.5 7-4c-0.6 1.5-4.3 11.6-4.3 11.6l3.3 3.5s2.4-15.6 2.4-15.9c0.3-0.2 5.1-2.9 5.1-2.9l-3.4-3.7-0.2 0.4z" fill="#20208C"/>
 <path id="path4254" d="m1258.6 10.2h-1.9s-0.6 1.3-0.9 1.9l-0.1-0.1-5.9 3.5 0.2 0.7s3-0.2 3.9-0.2c-0.4 0.8-2.2 4.5-2.3 4.8-0.4 0-6.3 0.5-6.3 0.5l-0.1 0.7 4 1.6s0.7-0.3 1.3-0.5c-0.6 1.2-2.5 5.2-2.7 5.5-1.3 0.1-2.3 0.1-2.9 0h-0.4l0.5 3.7 0.3-0.1c1.4-0.2 12.2-1.6 14.1-1.7 1.8-0.1 7.3 2.1 7.4 2.1l0.7 0.3-0.2-0.7c-0.1-0.4-1.3-3.9-2.2-4.8l-0.1-0.1h-0.1c-0.8-0.2-3.6 0-7.5 0.4 0.9-1 4.3-4.6 4.3-4.6l-3.2-3.4s-2.9 7.8-3 8.2c-0.3 0-2.7 0.3-3.5 0.3 0.4-0.9 2.5-6.5 2.6-6.7 0.3-0.1 3.2-1.2 3.2-1.2l-0.2-0.7s-1.7 0.3-2.5 0.4c0.3-0.9 1.6-4.1 1.7-4.4 0.2 0 1.2-0.1 1.2-0.1s-0.6-0.9-0.7-1.1c0.1-0.3 1.7-4.4 1.7-4.4h-0.4z" fill="#20208C"/>
 <path id="path4256" d="m1313.2 9.8v1c0 1.6-0.2 3.7-0.7 6.2-5.9 0.7-11.1 1.5-11.2 1.5h-0.3v2.5s9.9-0.4 10.7-0.5c-0.2 0.7-1 4-1 4l0.6 0.3s2.9-4.1 3.1-4.4c11.7-0.3 14.4 0.2 15 0.5l0.6 0.4-0.6-3.5c-0.3-1-2-2.1-12.2-1.3 0.6-0.9 3.2-4.6 3.2-4.6l-7.2-2.7v0.6z" fill="#20208C"/>
 <path id="path4258" d="m1307.6 24.8s0.8 4.7-1.6 8.5l0.5 0.5c4.4-2.9 5.9-6.6 5.9-6.7l0.1-0.3-5-2.6 0.1 0.6z" fill="#20208C"/>
 <path id="path4260" d="m1317.1 23.7c0.2 0.3 5.9 7.7 7.9 9.6l0.1 0.1h0.2c0.4 0 0.8-0.3 1.1-0.7 0.8-1.1 1.3-3.2 1-4.3-0.4-1.3-7.6-4.3-9.8-5.2l-1.2-0.5 0.7 1z" fill="#20208C"/>
 <path id="path4262" d="m1387.2 11.7c-0.2 0.4-1.5 1.9-8.3 7.6-0.1-0.7-0.2-1.6-0.2-1.6-0.2-1.9-0.4-4.1-0.8-6.5l-0.1-0.3-3.2 0.3v0.3 1.7c0 3.3 0.3 6.2 0.9 8.9-0.3 0.2-10 8.2-10 8.2l0.3 0.3 1.9 1.8s7.9-6.9 8.6-7.6c0.7 2.2 1.6 4 2.7 5 2 2 4.2 1.7 7 1.3 2-0.3 4.3-0.6 7-0.2l0.5 0.1-0.6-2.8c0-0.6-0.3-1.1-0.7-1.5-1.3-0.9-3.8-0.4-6.5 0.1-1.3 0.3-2.7 0.5-3.9 0.6-1.3-1.2-2.1-2.8-2.6-5.2 7.5-6.2 10.3-7.8 11.3-8.1l0.2-0.1v-0.3-0.4c0-1.8-0.9-2.8-1.7-3-0.5 0.1-1.3 0.3-1.8 1.4z" fill="#20208C"/>
 <path id="path4264" d="m1432.4 19c0 3.7-4.5 9.2-4.7 9.4l-0.7 0.9 1.1-0.3c5.2-1.4 8.2-5 8.3-5.1l0.2-0.2-4.2-5.7v1z" fill="#20208C"/>
 <path id="path4266" d="m1437.9 11.3l-2 0.3 0.3 0.5c0.1 0.2 9.3 15.7 10.6 19.3l0.1 0.3 0.3-0.1c2.2-0.4 4-0.2 5.8 0 2.2 0.2 4.3 0.4 6.7-0.4l0.4-0.1-0.2-0.4c-1.2-2-2.5-2.4-4.2-2.9-3.2-0.9-8-2.3-17.3-16.3l-0.1-0.2h-0.4z" fill="#20208C"/>
 <path id="path4268" d="m1520.6 23.6s-2.9 3.2-3.1 3.4c-3.2 0.7-8.4 1.2-8.8-0.4-0.5-1.9 3.4-10.4 4.9-13.6l0.2-0.3-5.6-2.8-0.1 0.4c-0.1 0.2-0.4 1.3-0.9 3h-4.5c0-0.4-0.1-1.3-0.1-1.3-1.4-2.3-7.4-0.7-8.1-0.6l-0.4 0.1 0.2 0.4c0.2 0.4 0.4 0.9 0.5 1.4h-3.8l1.9 3.6s1.8-0.3 2.4-0.4v0.7c0 6.2-2.7 14.1-2.7 14.2l0.6 0.3c0.3-0.4 7.9-9.5 9.3-16.4 0.2 0 2.4-0.4 4.4-0.7-1.2 4.7-2.6 12.1-0.3 14.8 3.4 4 16.6 3.7 17.1 3.5l0.3-0.1-3.4-9.2z" fill="#20208C"/>
 <path id="path4270" d="m1171.2 100.1l6.8 19.4 0.3-0.1c3.6-1.2 13.3-4.1 15.3-2.6 0.2 0.2 0.3 0.4 0.3 0.7l-0.1 0.8 0.6-0.5c6.8-5.3 9.4-14 9.4-14.1v-0.2l-0.1-0.1c-4.9-7.3-24.9-1.3-25.7-1l-0.2 0.1v0.2s-0.2 1.7-0.2 2.4c-0.4-1.5-1.1-4.1-1.1-4.1l-5.6-1.3 0.3 0.4zm6.9 5.7c1.2-0.3 2.6-0.7 4-1s1.9 9.3 2 9.9c-0.5 0.1-3 0.8-3.6 1-0.1-0.4-1.4-5.6-2.5-9.9 0 0.1 0.1 0 0.1 0zm11.7-2.3c0 0.1-0.4 9.6-0.4 10.2-0.4 0.1-2.1 0.4-2.6 0.5-0.1-0.6-1.8-9.6-1.8-9.9 1.7-0.4 3.3-0.6 4.8-0.8zm7.9 0.9c-0.2 2.3-1.1 8.1-2.6 9.9-0.1-0.1 0-0.2-0.1-0.3-0.5-0.5-1.6-0.7-3.3-0.6 0.3-4.5 1-7.5 1.9-7.9l0.7-0.3s-3.5-1.7-3.8-1.8c3.8-0.4 6.8-0.3 7.2 1z" fill="#20208C"/>
 <path id="path4272" d="m1003.8 106.1c-0.3 0.2-0.4 0.5-0.4 0.8s0.1 0.5 0.1 0.7c-2.6 0.2-19.7 1.8-23.9 1.4h-0.4l1.7 6 0.3-0.1c3.3-1.1 24.1-2.4 29-1.4 0.8 0.1 1.2 0 1.4-0.4 0.5-1-1.9-3.5-3.4-4.8-0.9-0.9-3.4-2.8-4.4-2.2z" fill="#20208C"/>
 <path id="path4274" d="m1067.9 111.9c-0.3 0.2-0.4 0.5-0.4 0.9 0 0.2 0 0.5 0.1 0.7-2.8 0.3-19.9 1.9-24.1 1.4l-0.5-0.1 1.7 6.2 0.4-0.1c3.3-1.2 24.3-2.4 29.3-1.4 0.8 0.2 1.3 0 1.5-0.4 0.7-1.3-3-4.6-3.4-4.9-1-1-3.5-3-4.6-2.3z" fill="#20208C"/>
 <path id="path4276" d="m1060.1 100.9c-2.6 0.9-6.2 2.2-12.3 2.2h-0.7l2.9 4.2 16.7-2.2 0.5-3.1-0.1-0.1c-2.4-2.7-4.1-2.1-7-1z" fill="#20208C"/>
 <path id="path4278" d="m1131.7 114.3c-0.3 0.2-0.4 0.5-0.4 0.9 0 0.3 0 0.5 0.1 0.7-2.7 0.3-19.3 1.9-23.4 1.4l-0.5-0.1 1.7 6.2 0.3-0.1c3.2-1.2 23.6-2.4 28.4-1.4 0.8 0.2 1.3 0 1.5-0.4 0.6-1.3-2.9-4.6-3.3-5-1-0.8-3.4-2.9-4.4-2.2z" fill="#20208C"/>
 <polygon id="polygon4280" points="1125.3 107 1114 108.4 1115.6 112.7 1127.6 111.3 1125.6 107" fill="#20208C"/>
 <path id="path4282" d="m1122.9 96.6c-3 1.1-7 2.6-14 2.6h-0.6l3.2 4.9 18.9-2.6 0.6-3.6-0.1-0.1c-2.7-3.2-4.6-2.5-8-1.2z" fill="#20208C"/>
 <path id="path4284" d="m1245.8 98.3l-10.3 10.5 0.4 0.5 7-4c-0.6 1.5-4.3 11.6-4.3 11.6l3.3 3.5s2.4-15.6 2.4-15.9c0.3-0.2 5.1-2.9 5.1-2.9l-3.4-3.7-0.2 0.4z" fill="#20208C"/>
 <path id="path4286" d="m1258.6 98.2h-1.9s-0.6 1.3-0.9 1.9l-0.1-0.1-5.9 3.5 0.2 0.7s3-0.2 3.9-0.2c-0.4 0.8-2.2 4.5-2.3 4.8-0.4 0-6.3 0.5-6.3 0.5l-0.1 0.7 4 1.6s0.7-0.3 1.3-0.5c-0.6 1.2-2.5 5.2-2.7 5.5-1.3 0.1-2.3 0.1-2.9 0h-0.4l0.5 3.7 0.3-0.1c1.4-0.2 12.2-1.6 14.1-1.7 1.8-0.1 7.3 2.1 7.4 2.1l0.7 0.3-0.2-0.7c-0.1-0.4-1.3-3.9-2.2-4.8l-0.1-0.1h-0.1c-0.8-0.2-3.6 0-7.5 0.4 0.9-1 4.3-4.6 4.3-4.6l-3.2-3.4s-2.9 7.8-3 8.2c-0.3 0-2.7 0.3-3.5 0.3 0.4-0.9 2.5-6.5 2.6-6.7 0.3-0.1 3.2-1.2 3.2-1.2l-0.2-0.7s-1.7 0.3-2.5 0.4c0.3-0.9 1.6-4.1 1.7-4.4 0.2 0 1.2-0.1 1.2-0.1s-0.6-0.9-0.7-1.1c0.1-0.3 1.7-4.4 1.7-4.4h-0.4z" fill="#20208C"/>
 <path id="path4288" d="m1313.2 97.8v1c0 1.6-0.2 3.7-0.7 6.2-5.9 0.7-11.1 1.5-11.2 1.5h-0.3v2.5s9.9-0.4 10.7-0.5c-0.2 0.7-1 4-1 4l0.6 0.3s2.9-4.1 3.1-4.4c11.7-0.3 14.4 0.2 15 0.5l0.6 0.4-0.6-3.5c-0.3-1-2-2.1-12.2-1.3 0.6-0.9 3.2-4.6 3.2-4.6l-7.2-2.7v0.6z" fill="#20208C"/>
 <path id="path4290" d="m1307.6 112.8s0.8 4.7-1.6 8.5l0.5 0.5c4.4-2.9 5.9-6.6 5.9-6.7l0.1-0.3-5-2.6 0.1 0.6z" fill="#20208C"/>
 <path id="path4292" d="m1317.1 111.7c0.2 0.3 5.9 7.7 7.9 9.6l0.1 0.1h0.2c0.4 0 0.8-0.3 1.1-0.7 0.8-1.1 1.3-3.2 1-4.3-0.4-1.3-7.6-4.3-9.8-5.2l-1.2-0.5 0.7 1z" fill="#20208C"/>
 <path id="path4294" d="m1387.2 99.7c-0.2 0.4-1.5 1.9-8.3 7.6-0.1-0.7-0.2-1.6-0.2-1.6-0.2-1.9-0.4-4.1-0.8-6.5l-0.1-0.3-3.2 0.3v0.3 1.7c0 3.3 0.3 6.2 0.9 8.9-0.3 0.2-10 8.2-10 8.2l0.3 0.3 1.9 1.8s7.9-6.9 8.6-7.6c0.7 2.2 1.6 4 2.7 5 2 2 4.2 1.7 7 1.3 2-0.3 4.3-0.6 7-0.2l0.5 0.1-0.6-2.8c0-0.6-0.3-1.1-0.7-1.5-1.3-0.9-3.8-0.4-6.5 0.1-1.3 0.3-2.7 0.5-3.9 0.6-1.3-1.2-2.1-2.8-2.6-5.2 7.5-6.2 10.3-7.8 11.3-8.1l0.2-0.1v-0.3-0.4c0-1.8-0.9-2.8-1.7-3-0.5 0.1-1.3 0.3-1.8 1.4z" fill="#20208C"/>
 <path id="path4296" d="m1432.4 107c0 3.7-4.5 9.2-4.7 9.4l-0.7 0.9 1.1-0.3c5.2-1.4 8.2-5 8.3-5.1l0.2-0.2-4.2-5.7v1z" fill="#20208C"/>
 <path id="path4298" d="m1437.9 99.3l-2 0.3 0.3 0.5c0.1 0.2 9.3 15.7 10.6 19.3l0.1 0.3 0.3-0.1c2.2-0.4 4-0.2 5.8 0 2.2 0.2 4.3 0.4 6.7-0.4l0.4-0.1-0.2-0.4c-1.2-2-2.5-2.4-4.2-2.9-3.2-0.9-8-2.3-17.3-16.3l-0.1-0.2h-0.4z" fill="#20208C"/>
 <path id="path4300" d="m1520.6 111.6s-2.9 3.2-3.1 3.4c-3.2 0.7-8.4 1.2-8.8-0.4-0.5-1.9 3.4-10.4 4.9-13.6l0.2-0.3-5.6-2.8-0.1 0.4c-0.1 0.2-0.4 1.3-0.9 3h-4.5c0-0.4-0.1-1.3-0.1-1.3-1.4-2.3-7.4-0.7-8.1-0.6l-0.4 0.1 0.2 0.4c0.2 0.4 0.4 0.9 0.5 1.4h-3.8l1.9 3.6s1.8-0.3 2.4-0.4v0.7c0 6.2-2.7 14.1-2.7 14.2l0.6 0.3c0.3-0.4 7.9-9.5 9.3-16.4 0.2 0 2.4-0.4 4.4-0.7-1.2 4.7-2.6 12.1-0.3 14.8 3.4 4 16.6 3.7 17.1 3.5l0.3-0.1-3.4-9.2z" fill="#20208C"/>
 <path id="path4302" d="m632.3 142.7c-2-0.9-11.8 3.3-11.8 3.3l0.5-20.7s5.3-4.3 9.6-1.7l-1.2-5c-1.4-0.2-8.4 5.5-8.4 5.5s-0.6-18.8 4.8-19.9-8.9-2.6-9.7-2.2c-0.4 0.2-0.4 13.8-0.2 27.1-3.2 3.1-5.9 6.2-7.1 7.3l0.4-28.5s-4.7-2.6-5.8-1.4l0.2 14.8c-0.3-0.5-0.7-0.9-1-1.3-1-1.3-6.1-4.2-6.1-4.2s1.7 5.6 2.5 6.6c0.7 0.9 3 2.9 4.6 2.2l0.2 16.5c-3.4 3-7.9 6.8-8.5 5.4-1.5-3.2-4.7-3-5.2-1.5-0.5 1.6 4.2 10.2 5.8 10.1 0.8-0.1 4.4-4.9 8-10l0.1 5.3c1.6 2.1 3.8 0.5 4.6-0.7l0.3-11c1.1-1.6 4-4.5 7.1-7.9 0.2 12.1 0.3 22.8 0.3 22.8 4.9-5.2 16.7-4 16.7-4l-0.7-6.9z" fill="#101040"/>
 <path id="path4304" d="m688.4 14.3c-8.5 5.7-21.5 6.9-28.8 5.9l-0.9 2c11.7 3.8 26.4 1 31.2-3.2l-1.5-4.7z" fill="#101040"/>
 <path id="path4306" d="m692.5 39.2c-3.6-0.9-7.3-1.4-10.8-1.7 0.8-2.9 1.2-6 1-9.2l-7.8 2c0.6 1.7 0.6 4.3 0.2 7-1.6 0-3.1 0.1-4.5 0.3 0.2-2.7 0.4-3.3-0.5-6l-4.7 1.3c1 1.8 1.5 2.3 1.8 5.1-3.4 1-5.7 1.8-6.9 3.2-5.1 6.1 0 23.2 0 23.2s-0.2-15.4 2-17c2.2-1.6 4.7-1.8 4.7-1.8 0.1 1.5-1.6 6.7-1.6 6.7 2.2-2.7 3.2-3.6 4.3-7.2 1.6-0.5 2.5-0.8 4.1-1-1.6 6.1-4.5 10.9-4.5 10.9l7.4 2c-4.1-0.1-13.3 5.1-13.3 5.1s16.2-4 20.8-1.1l1.2-2.9c-3.4-2.7-10.5-4.9-10.5-4.9s2.2-4.1 4.6-9.4c2.3 0.1 5.6 0.3 7.7 0.9 9.2 4.1-1.7 22.4-1.7 22.4s20.2-21.2 7-27.9z" fill="#101040"/>
 <path id="path4308" d="m735.3 14.2c0.4 0.5 0.9 2.3 0.9 8.6v2.8c-3.4 0.5-6.3 1-6.8 1.2l-0.6 0.2 2.8 2.7 0.2-0.1c1.1-0.3 2.6-0.5 4.2-0.7 0 0.7-0.4 7.3-0.4 7.9-4.9 0.4-9.2 1.1-12.7 1.9-3 0.8-4.8 2.6-5.2 5.4-0.1 0.4-0.1 0.9-0.1 1.4 0 7.1 6.9 16.9 7 16.9l0.8 0.5-0.3-0.9c0-0.1-2.8-9.4-2.8-15.6 0-1.8 0.2-3.3 0.8-4.3 0.4-0.6 0.8-0.9 1.4-1 1.3-0.2 2.7-0.4 4-0.6 0 0 3.1 4 3.7 4.7-0.5 0.1-1.4 0.3-1.4 0.3v0.3l0.2 2.2 0.4-0.1c0.6-0.2 1.8-0.5 3.2-0.7 0 0.6 0.1 2.4 0.2 2.9-1.7 0.5-3.2 1.1-3.8 1.4l-0.4 0.2 1.5 1.6 0.2-0.1c0.7-0.3 1.7-0.6 2.7-0.9 0 0.7 0.3 5.6 0.3 5.6h0.7l1.2-6c1.8-0.2 3.5-0.1 4.8 0.2l0.4 0.1v-3l-0.2-0.1c-0.8-0.4-2.3-0.4-4.5 0.1 0.1-0.7 0.4-2.1 0.5-2.5 1.6-0.1 2.9-0.2 3.8-0.1l0.5 0.1-0.7-2.6s-0.9 0-1.4 0.1c0.8-0.9 3.5-4.4 3.7-4.6 0.3 0 3.9 0.1 3.9 0.1 1.6 0.1 3 0.7 4.1 2 1.3 1.5 2 3.9 2 6.3 0 0.5 0 1.1-0.1 1.6l-0.1 0.7c-0.7 5.1-1.3 8.8-3.1 9.6-1.2 0.5-3.1-0.3-5.9-2.4l-0.5 0.5 5.5 9.6 0.3-0.1c6.7-2.4 7.7-3.8 10.4-15.4 1.2-5.1 0.8-9.1-1.3-11.8-2.5-3.3-6.3-3.7-6.5-3.7-0.1 0-6.7-0.3-14.6 0.2 0.2-0.8 2-7.5 2.1-7.9 2.5 0 4.7 0.1 5.7 0.5l0.4 0.1 0.4-4.7h-0.4c-1.1 0-2.8 0.1-5.1 0.3 1.3-4.4 1.9-5.8 2.1-6.2l0.2-0.3-8.1-4.7-0.2 0.3zm4.4 25.3c-0.1 0.7-0.7 4.3-0.7 4.7h-0.1c0-0.1 0.1-0.4 0.1-0.4l-4.4 0.4v0.6c-0.4 0.1-1 0.2-1.4 0.2v-5.1c2.2-0.1 4.3-0.3 6.5-0.4z" fill="#101040"/>
 <path id="path4310" d="m804.5 41.3l0.1-6.4 4.4-0.3-0.3-2.4-4.1 1.2v-5.7c2.4 0.3 5 0.8 7.1 0.9 4.3 0.3-1.2 14.1-1.2 14.1s16.3-14.4 2.6-18.1c-1.4 0-4.9 0.2-8.4 0.4v-3.9l7.5-1.9-7.5-0.1v-4l-4.6-3.4 0.5 8.7-4 2.7 4.1-1 0.2 3.2c-1.8 0.2-3.4 0.3-4.3 0.5-11.5 2.2 1 17.2 1 17.2s-4-14 0.5-15.3c0.9-0.3 1.8-0.3 2.9-0.3l0.4 7-3 0.9 3-0.2 0.2 4.1c-9.2 12.1-19.7 16.6-19.7 16.6s10.2-1.1 20-11.9l1 18.7c-3.7-1.5-7-3.6-7-3.6s2.4 7.1 7.5 10.1l4.3-5.1c-1-0.2-2.1-0.5-3.2-0.9l0.2-18.9c2.7 3.2 9 10.5 11.7 11l9-3c-3.5-0.6-17.7-8.9-20.9-10.9z" fill="#101040"/>
 <path id="path4312" d="m688.4 102.3c-8.5 5.7-21.5 6.9-28.8 5.9l-0.9 2c11.7 3.8 26.4 1 31.2-3.2l-1.5-4.7z" fill="#101040"/>
 <path id="path4314" d="m692.5 127.2c-3.6-0.9-7.3-1.4-10.8-1.7 0.8-2.9 1.2-6 1-9.2l-7.8 2c0.6 1.7 0.6 4.3 0.2 7-1.6 0-3.1 0.1-4.5 0.3 0.2-2.7 0.4-3.3-0.5-6l-4.7 1.3c1 1.8 1.5 2.3 1.8 5.1-3.4 1-5.7 1.8-6.9 3.2-5.1 6.1 0 23.2 0 23.2s-0.2-15.4 2-17c2.2-1.6 4.7-1.8 4.7-1.8 0.1 1.5-1.6 6.7-1.6 6.7 2.2-2.7 3.2-3.6 4.3-7.2 1.6-0.5 2.5-0.8 4.1-1-1.6 6.1-4.5 10.9-4.5 10.9l7.4 2c-4.1-0.1-13.3 5.1-13.3 5.1s16.2-4 20.8-1.1l1.2-2.9c-3.4-2.7-10.5-4.9-10.5-4.9s2.2-4.1 4.6-9.4c2.3 0.1 5.6 0.3 7.7 0.9 9.2 4.1-1.7 22.4-1.7 22.4s20.2-21.2 7-27.9z" fill="#101040"/>
 <path id="path4316" d="m735.3 102.2c0.4 0.5 0.9 2.3 0.9 8.6v2.8c-3.4 0.5-6.3 1-6.8 1.2l-0.6 0.2 2.8 2.7 0.2-0.1c1.1-0.3 2.6-0.5 4.2-0.7 0 0.7-0.4 7.3-0.4 7.9-4.9 0.4-9.2 1.1-12.7 1.9-3 0.8-4.8 2.6-5.2 5.4-0.1 0.4-0.1 0.9-0.1 1.4 0 7.1 6.9 16.9 7 16.9l0.8 0.5-0.3-0.9c0-0.1-2.8-9.4-2.8-15.6 0-1.8 0.2-3.3 0.8-4.3 0.4-0.6 0.8-0.9 1.4-1 1.3-0.2 2.7-0.4 4-0.6 0 0 3.1 4 3.7 4.7-0.5 0.1-1.4 0.3-1.4 0.3v0.3l0.2 2.2 0.4-0.1c0.6-0.2 1.8-0.5 3.2-0.7 0 0.6 0.1 2.4 0.2 2.9-1.7 0.5-3.2 1.1-3.8 1.4l-0.4 0.2 1.5 1.6 0.2-0.1c0.7-0.3 1.7-0.6 2.7-0.9 0 0.7 0.3 5.6 0.3 5.6h0.7l1.2-6c1.8-0.2 3.5-0.1 4.8 0.2l0.4 0.1v-3l-0.2-0.1c-0.8-0.4-2.3-0.4-4.5 0.1 0.1-0.7 0.4-2.1 0.5-2.5 1.6-0.1 2.9-0.2 3.8-0.1l0.5 0.1-0.7-2.6s-0.9 0-1.4 0.1c0.8-0.9 3.5-4.4 3.7-4.6 0.3 0 3.9 0.1 3.9 0.1 1.6 0.1 3 0.7 4.1 2 1.3 1.5 2 3.9 2 6.3 0 0.5 0 1.1-0.1 1.6l-0.1 0.7c-0.7 5.1-1.3 8.8-3.1 9.6-1.2 0.5-3.1-0.3-5.9-2.4l-0.5 0.5 5.5 9.6 0.3-0.1c6.7-2.4 7.7-3.8 10.4-15.4 1.2-5.1 0.8-9.1-1.3-11.8-2.5-3.3-6.3-3.7-6.5-3.7-0.1 0-6.7-0.3-14.6 0.2 0.2-0.8 2-7.5 2.1-7.9 2.5 0 4.7 0.1 5.7 0.5l0.4 0.1 0.4-4.7h-0.4c-1.1 0-2.8 0.1-5.1 0.3 1.3-4.4 1.9-5.8 2.1-6.2l0.2-0.3-8.1-4.7-0.2 0.3zm4.4 25.3c-0.1 0.7-0.7 4.3-0.7 4.7h-0.1c0-0.1 0.1-0.4 0.1-0.4l-4.4 0.4v0.6c-0.4 0.1-1 0.2-1.4 0.2v-5.1c2.2-0.1 4.3-0.3 6.5-0.4z" fill="#101040"/>
 <path id="path4318" d="m804.5 129.3l0.1-6.4 4.4-0.3-0.3-2.4-4.1 1.2v-5.7c2.4 0.3 5 0.8 7.1 0.9 4.3 0.3-1.2 14.1-1.2 14.1s16.3-14.4 2.6-18.1c-1.4 0-4.9 0.2-8.4 0.4v-3.9l7.5-1.9-7.5-0.1v-4l-4.6-3.4 0.5 8.7-4 2.7 4.1-1 0.2 3.2c-1.8 0.2-3.4 0.3-4.3 0.5-11.5 2.2 1 17.2 1 17.2s-4-14 0.5-15.3c0.9-0.3 1.8-0.3 2.9-0.3l0.4 7-3 0.9 3-0.2 0.2 4.1c-9.2 12.1-19.7 16.6-19.7 16.6s10.2-1.1 20-11.9l1 18.7c-3.7-1.5-7-3.6-7-3.6s2.4 7.1 7.5 10.1l4.3-5.1c-1-0.2-2.1-0.5-3.2-0.9l0.2-18.9c2.7 3.2 9 10.5 11.7 11l9-3c-3.5-0.6-17.7-8.9-20.9-10.9z" fill="#101040"/>
 <path id="path4320" stroke="#10106C" stroke-width=".75" d="m49.4 40.5c0 7.7-6.2 13.9-13.9 13.9s-13.9-6.2-13.9-13.9 6.2-13.9 13.9-13.9 13.9 6.2 13.9 13.9z" fill="none"/>
 <circle id="circle4322" r="6.5" cy="40.5" stroke="#10106C" cx="42" stroke-width="1.6" fill="none"/>
 <circle id="circle4324" r="6.5" cy="40.5" stroke="#10106C" cx="29" stroke-width="1.6" fill="none"/>
 <circle id="circle4326" r="6.5" cy="34" stroke="#10106C" cx="35.5" stroke-width="1.6" fill="none"/>
 <circle id="circle4328" r="6.5" cy="47" stroke="#10106C" cx="35.5" stroke-width="1.6" fill="none"/>
 <path id="path4330" stroke="#10106C" stroke-width=".75" d="m44.8 40.5c0 5.1-4.2 9.3-9.3 9.3s-9.3-4.2-9.3-9.3c0-5.1 4.2-9.3 9.3-9.3s9.3 4.2 9.3 9.3z" fill="none"/>
 <path id="path4332" stroke="#BA0000" stroke-width="2" d="m52.2 40.5c0 9.2-7.5 16.7-16.7 16.7s-16.7-7.5-16.7-16.7 7.5-16.7 16.7-16.7 16.7 7.5 16.7 16.7z" fill="none"/>
 <path id="path4334" stroke="#10106C" stroke-width=".75" d="m55 40.5c0 10.8-8.7 19.5-19.5 19.5s-19.5-8.7-19.5-19.5 8.7-19.5 19.5-19.5 19.5 8.7 19.5 19.5z" fill="none"/>
 <path id="path4336" stroke="#10106C" stroke-width=".75" d="m49.4 128.5c0 7.7-6.2 13.9-13.9 13.9s-13.9-6.2-13.9-13.9 6.2-13.9 13.9-13.9c7.7 0 13.9 6.2 13.9 13.9z" fill="none"/>
 <circle id="circle4338" r="6.5" cy="128.5" stroke="#10106C" cx="42" stroke-width="1.6" fill="none"/>
 <circle id="circle4340" r="6.5" cy="128.5" stroke="#10106C" cx="29" stroke-width="1.6" fill="none"/>
 <circle id="circle4342" r="6.5" cy="122" stroke="#10106C" cx="35.5" stroke-width="1.6" fill="none"/>
 <circle id="circle4344" r="6.5" cy="135" stroke="#10106C" cx="35.5" stroke-width="1.6" fill="none"/>
 <path id="path4346" stroke="#10106C" stroke-width=".75" d="m44.8 128.5c0 5.1-4.2 9.3-9.3 9.3s-9.3-4.2-9.3-9.3c0-5.1 4.2-9.3 9.3-9.3s9.3 4.2 9.3 9.3z" fill="none"/>
 <path id="path4348" stroke="#BA0000" stroke-width="2" d="m52.2 128.5c0 9.2-7.5 16.7-16.7 16.7s-16.7-7.5-16.7-16.7 7.5-16.7 16.7-16.7 16.7 7.5 16.7 16.7z" fill="none"/>
 <path id="path4350" stroke="#10106C" stroke-width=".75" d="m55 128.5c0 10.8-8.7 19.5-19.5 19.5s-19.5-8.7-19.5-19.5 8.7-19.5 19.5-19.5 19.5 8.7 19.5 19.5z" fill="none"/>
 <path id="path4352" d="m861.8 10.2c-0.4 0.4-0.5 1-0.5 1.7 0 1.3 0.4 2.9 0.6 3.5 0 0 0.3 7 0.4 7.8-0.9 0.1-2.5 0.2-3.1 0.4h-0.8c-1.7 0.1-3.3 0.2-4 0.9l-0.3 0.3 0.3 0.4c0.5 0.6 0.7 2.3 0.9 4.1 0.5 3.7 1.1 8.3 4.1 10.1l0.6 0.3v-0.7s0.1-0.3 0.1-0.7c0-0.3-0.1-0.8-0.2-1.5 0.8 0.1 2.5 0.3 3.1 0.3 0.1 0.8 2.7 33.4 2.7 33.4h1s1.1-32.2 1.1-33.2c0.7 0 3.8 0.1 4.7 0.2-0.2 0.6-1 3.1-1 3.1l1.4-1.3c0.4-0.3 9.1-8.2 7.9-13.4-0.4-1.7-1.8-2.9-4.1-3.5h-0.1-0.1c-1.3 0-5.3 0.1-8.3 0.3 0.1-2.6 0.1-4 0.1-4.7v-0.8-0.1c0-0.5 0.5-1.2 0.9-1.7 0.4-0.6 0.9-1.1 0.9-1.7 0-0.2-0.1-0.4-0.2-0.6-0.6-0.9-5-3.2-6.9-3.4-0.6 0.1-1 0.2-1.2 0.5zm0.1 16.4h0.5c0 0.9 0.3 7.2 0.4 8.1-0.8-0.1-2.7-0.3-3.3-0.3-0.3-1.3-0.4-2.7-0.5-4.1-0.1-1.2-0.2-2.4-0.4-3.5 0.9 0 3.3-0.2 3.3-0.2zm6.1 3.1s0.1-2.4 0.1-3.2c1.3 0.2 3 0.3 4.6 0.3h1.8c0 0.4-0.1 0.9-0.1 0.9-0.2 2.2-0.5 4.8-1.4 7.4-0.6 0-4.3-0.2-5.1-0.3 0-0.7 0.1-5.1 0.1-5.1z" fill="#BA0000"/>
 <path id="path4354" d="m861.8 98.2c-0.4 0.4-0.5 1-0.5 1.7 0 1.3 0.4 2.9 0.6 3.5 0 0 0.3 7 0.4 7.8-0.9 0.1-2.5 0.2-3.1 0.4h-0.8c-1.7 0.1-3.3 0.2-4 0.9l-0.3 0.3 0.3 0.4c0.5 0.6 0.7 2.3 0.9 4.1 0.5 3.7 1.1 8.3 4.1 10.1l0.6 0.3 0.2-0.6s0.1-0.3 0.1-0.7c0-0.3-0.1-0.8-0.2-1.5 0.8 0.1 2.5 0.3 3.1 0.3 0.1 0.8 2.7 33.4 2.7 33.4h1s1.1-32.2 1.1-33.2c0.7 0 3.8 0.1 4.7 0.2-0.2 0.6-1 3.1-1 3.1l1.4-1.3c0.4-0.3 9.1-8.2 7.9-13.4-0.4-1.7-1.8-2.9-4.1-3.5h-0.1-0.1c-1.3 0-5.3 0.1-8.3 0.3 0.1-2.6 0.1-4 0.1-4.7v-0.8-0.1c0-0.5 0.5-1.2 0.9-1.7 0.4-0.6 0.9-1.1 0.9-1.7 0-0.2-0.1-0.4-0.2-0.6-0.6-0.9-5-3.2-6.9-3.4-0.8 0-1.2 0.1-1.4 0.4zm0.1 16.4h0.5c0 0.9 0.3 7.2 0.4 8.1-0.8-0.1-2.7-0.3-3.3-0.3-0.3-1.3-0.4-2.7-0.5-4.1-0.1-1.2-0.2-2.4-0.4-3.5 0.9 0 3.3-0.2 3.3-0.2zm6.1 3.1s0.1-2.4 0.1-3.2c1.3 0.2 3 0.3 4.6 0.3h1.8c0 0.4-0.1 0.9-0.1 0.9-0.2 2.2-0.5 4.8-1.4 7.4-0.6 0-4.3-0.2-5.1-0.3 0-0.7 0.1-5.1 0.1-5.1z" fill="#BA0000"/>
 <path id="path4356" d="m925 47.8c0 0.1-1.4 5.1-5.1 7.1-0.5-0.6-3.1-4.2-3.1-4.2l-0.9 0.5 4.4 11.4 1-0.2c0-2.2 1.1-3.5 2.4-4.9 1.8-2.1 3.8-4.5 2.3-9.7l-0.5-1.7-0.5 1.7z" fill="#004C00"/>
 <path id="path4358" d="m929.5 37s-0.5 4.9-1.9 7.8l-0.3 0.7 0.7 0.1c1.8 0.1 3.5-3.7 4.1-5.4 0.4 0 1.4 0.1 2 0.1-0.3 1.2-0.7 2.8-0.7 3.8 0 0.4 0 0.7 0.2 0.9l0.5 0.3c0.8 0.1 5.2-0.2 6.1-0.3v-1c-1.5-0.2-3.3-0.7-3.5-1.2-0.2-0.6 0.6-3 1.5-5l0.3-0.7-9-0.6v0.5z" fill="#004C00"/>
 <path id="path4360" d="m942 46.6l-14.7 0.4s4.9 6.3 5.4 6.9c-2.6 2.4-4.9 4.2-7 5.4l-0.6 0.4 0.6 0.5c1.4 1.1 4.2-0.2 8.6-4.2 2.3 3.2 3.8 5.5 4.3 6.9l0.2 0.7 2.7-2.2v-0.2-0.3c0-0.5 0-2.1-4.7-7.3 3-3.1 5.6-6 5.6-6.1l0.7-0.9h-1.1zm-4.7 2.8c-0.8 0.9-1.7 1.8-2.1 2.3l-1.9-1.9c1.1-0.2 2.7-0.3 4-0.4z" fill="#004C00"/>
 <path id="path4362" d="m931.1 25.2l-1.7 1.7-4.5-5.2h-0.2c-0.7 0-4.3 0.1-5.2 1.4-0.1 0.1-0.1 0.3-0.1 0.4v0.2c0.1 0.5 0.7 0.7 1.8 1.1 0.5 0.2 1.2 0.5 1.5 0.7-1.1 2.3-2.3 4.4-3.7 6.4-0.7-0.4-4.1-2.5-4.1-2.5l-0.6 0.8s2.8 3.1 3.3 3.6c-2.8 3.5-6.2 6.6-10.4 9.5l0.4 0.9c12.8-3.3 21.9-16.2 22.1-16.5l2.3 2.2c-3.2 2-6.2 3.8-6.2 3.8l0.5 0.9c2-0.8 4.8-1.9 7.6-3l11.1 10.8 10.8-3.8-0.1-1c-5.1-0.2-12-4.4-17.1-7.9 2.9-1 5.3-1.7 6.4-1.6 0.7 0 0.9-0.3 1-0.5 0.4-1.1-3.5-4.4-11.4-9.7l-0.5-0.3-0.2 0.6m1 8.8c0.7-1.2 1.6-2.9 1.9-3.3 0.5 0.3 1.8 1.1 2.5 1.6-0.4 0.2-1.9 1.1-3.7 2.3-0.2-0.2-0.4-0.4-0.7-0.6z" fill="#004C00"/>
 <path id="path4364" d="m926.9 35.4l-6.2 3.5 0.3 0.9s1.1-0.1 1.8-0.1c-0.2 0.7-0.6 1.8-1.1 3.2-0.6 0-5-0.2-5-0.2l0.8 0.9c0.3 0.3 1.6 1.7 2.7 1.7 0 0 0.3-0.1 0.6-0.1-0.8 2-1.7 3.7-2.6 5l0.7 0.7c1.5-1.2 3.2-3.4 4.8-6.4 0.3-0.1 1.2-0.4 1.2-0.4l-0.1-1h-0.4c1.8-3.6 3.1-7.1 3.1-7.1l0.5-1.3-1.1 0.7z" fill="#004C00"/>
 <path id="path4366" d="m925 135.8c0 0.1-1.4 5.1-5.1 7.1-0.5-0.6-3.1-4.2-3.1-4.2l-0.9 0.5 4.4 11.4 1-0.2c0-2.2 1.1-3.5 2.4-4.9 1.8-2.1 3.8-4.5 2.3-9.7l-0.5-1.7-0.5 1.7z" fill="#004C00"/>
 <path id="path4368" d="m929.5 125s-0.5 4.9-1.9 7.8l-0.3 0.7 0.7 0.1c1.8 0.1 3.5-3.7 4.1-5.4 0.4 0 1.4 0.1 2 0.1-0.3 1.2-0.7 2.8-0.7 3.8 0 0.4 0 0.7 0.2 0.9l0.5 0.3c0.8 0.1 5.2-0.2 6.1-0.3v-1c-1.5-0.2-3.3-0.7-3.5-1.2-0.2-0.6 0.6-3 1.5-5l0.3-0.7-9-0.6v0.5z" fill="#004C00"/>
 <path id="path4370" d="m942 134.6l-14.7 0.4s4.9 6.3 5.4 6.9c-2.6 2.4-4.9 4.2-7 5.4l-0.6 0.4 0.6 0.5c1.4 1.1 4.2-0.2 8.6-4.2 2.3 3.2 3.8 5.5 4.3 6.9l0.2 0.7 2.7-2.3v-0.2-0.3c0-0.5 0-2.1-4.7-7.3 3-3.1 5.6-6 5.6-6.1l0.7-0.9-1.1 0.1zm-4.7 2.8c-0.8 0.9-1.7 1.8-2.1 2.3l-1.9-1.9c1.1-0.2 2.7-0.3 4-0.4z" fill="#004C00"/>
 <path id="path4372" d="m931.1 113.2l-1.7 1.7-4.5-5.2h-0.2c-0.7 0-4.3 0.1-5.2 1.4-0.1 0.1-0.1 0.3-0.1 0.4v0.2c0.1 0.5 0.7 0.7 1.8 1.1 0.5 0.2 1.2 0.5 1.5 0.7-1.1 2.3-2.3 4.4-3.7 6.4-0.7-0.4-4.1-2.5-4.1-2.5l-0.6 0.8s2.8 3.1 3.3 3.6c-2.8 3.5-6.2 6.6-10.4 9.5l0.4 0.9c12.8-3.3 21.9-16.2 22.1-16.5l2.3 2.2c-3.2 2-6.2 3.8-6.2 3.8l0.5 0.9c2-0.8 4.8-1.9 7.6-3l11.4 10.9 10.8-3.8-0.1-1c-5.1-0.2-12-4.4-17.1-7.9 2.9-1 5.3-1.7 6.4-1.6 0.7 0 0.9-0.3 1-0.5 0.4-1.1-3.5-4.4-11.4-9.7l-0.5-0.3-0.2 0.6m0.7 8.7c0.7-1.2 1.6-2.9 1.9-3.3 0.5 0.3 1.8 1.1 2.5 1.6-0.4 0.2-1.9 1.1-3.7 2.3-0.2-0.2-0.4-0.4-0.7-0.6z" fill="#004C00"/>
 <path id="path4374" d="m926.9 123.4l-6.2 3.5 0.3 0.9s1.1-0.1 1.8-0.1c-0.2 0.7-0.6 1.8-1.1 3.2-0.6 0-5-0.2-5-0.2l0.8 0.9c0.3 0.3 1.6 1.7 2.7 1.7 0 0 0.3-0.1 0.6-0.1-0.8 2-1.7 3.7-2.6 5l0.7 0.7c1.5-1.2 3.2-3.4 4.8-6.4 0.3-0.1 1.2-0.4 1.2-0.4l-0.1-1h-0.4c1.8-3.6 3.1-7.1 3.1-7.1l0.5-1.3-1.1 0.7z" fill="#004C00"/>
 <rect id="rect4376" height="69" width="45" y="6" x="2381" fill="#BFBFBF"/>
 <rect id="rect4378" height="65" width="41" y="8" x="2383" fill="#F4F4F4"/>
 <rect id="rect4400" height="69" width="45" y="94" x="2381" fill="#BFBFBF"/>
 <rect id="rect4402" height="65" width="41" y="96" x="2383" fill="#fff"/>
 <path id="path4424" stroke="#678ED3" d="m2323.8 13.9l-0.1 1.3s8.9-2.4 9.4-0.6c0 0-0.4 4.1-1.4 4.9 0-0.5-0.7-0.6-1.7-0.5 0.1-1.1 0.3-3.7 1-4l-1.6-0.7-0.2 4.8-1.5 0.3-0.9-4.8-1 0.4 0.9 4.7c-1.1 0.3-2 0.5-2 0.5l-1.8-7-2.2-0.5 3.1 8.9s7.7-2.7 7.5-0.7c3.2-2.5 4.3-6.5 4.3-6.5-2.2-3.4-11.8-0.5-11.8-0.5z" fill="#99B9FF"/>
 <path id="path4426" stroke="#678ED3" d="m2267.6 19.9c-0.8-2.5 4.7 2.6 2.6 2.2s-10.6 0.1-11.9 0.6l-0.6-2.2c1.8 0.2 9.9-0.6 9.9-0.6z" fill="#99B9FF"/>
 <path id="path4428" stroke="#678ED3" d="m2139.6 16.1c-0.8-2.5 4.7 2.6 2.6 2.2s-10.6 0.1-11.9 0.6l-0.6-2.2c1.8 0.2 9.9-0.6 9.9-0.6z" fill="#99B9FF"/>
 <polygon id="polygon4430" stroke="#678ED3" points="2264.9 16.3 2265.7 17.8 2260.9 18.3 2260.4 16.8" fill="#99B9FF"/>
 <path id="path4432" stroke="#678ED3" d="m2267.1 12.5c-2-2.3-2.8 0.6-9 0.6l1.1 1.7 7.7-1 0.2-1.3z" fill="#99B9FF"/>
 <path id="path4434" stroke="#678ED3" d="m2203.6 18.9c-0.8-2.5 4.7 2.6 2.6 2.2s-10.6 0.1-11.9 0.6l-0.6-2.2c1.8 0.2 9.9-0.6 9.9-0.6z" fill="#99B9FF"/>
 <path id="path4436" stroke="#678ED3" d="m2203.1 14.5c-2-2.3-2.8 0.6-9 0.6l1.1 1.7 7.7-1 0.2-1.3z" fill="#99B9FF"/>
 <path id="path4438" stroke="#678ED3" d="m2323.8 101.9l-0.1 1.3s8.9-2.4 9.4-0.6c0 0-0.4 4.1-1.4 4.9 0-0.5-0.7-0.6-1.7-0.5 0.1-1.1 0.3-3.7 1-4l-1.6-0.7-0.2 4.8-1.5 0.3-0.9-4.8-1 0.4 0.9 4.7c-1.1 0.3-2 0.5-2 0.5l-1.8-7-2.2-0.5 3.1 8.9s7.7-2.7 7.5-0.7c3.2-2.5 4.3-6.5 4.3-6.5-2.2-3.4-11.8-0.5-11.8-0.5z" fill="#99B9FF"/>
 <path id="path4440" stroke="#678ED3" d="m2267.6 107.9c-0.8-2.5 4.7 2.6 2.6 2.2s-10.6 0.1-11.9 0.6l-0.6-2.2c1.8 0.2 9.9-0.6 9.9-0.6z" fill="#99B9FF"/>
 <path id="path4442" stroke="#678ED3" d="m2139.6 104.1c-0.8-2.5 4.7 2.6 2.6 2.2s-10.6 0.1-11.9 0.6l-0.6-2.2c1.8 0.2 9.9-0.6 9.9-0.6z" fill="#99B9FF"/>
 <polygon id="polygon4444" stroke="#678ED3" points="2264.9 104.3 2265.7 105.8 2260.9 106.3 2260.4 104.8" fill="#99B9FF"/>
 <path id="path4446" stroke="#678ED3" d="m2267.1 100.5c-2-2.3-2.8 0.6-9 0.6l1.1 1.7 7.7-1 0.2-1.3z" fill="#99B9FF"/>
 <path id="path4448" stroke="#678ED3" d="m2203.6 106.9c-0.8-2.5 4.7 2.6 2.6 2.2s-10.6 0.1-11.9 0.6l-0.6-2.2c1.8 0.2 9.9-0.6 9.9-0.6z" fill="#99B9FF"/>
 <path id="path4450" stroke="#678ED3" d="m2203.1 102.5c-2-2.3-2.8 0.6-9 0.6l1.1 1.7 7.7-1 0.2-1.3z" fill="#99B9FF"/>
 <path id="path4452" stroke="#7C5A2D" stroke-width=".5" d="m2643.1 20.3l-0.1 1.3s8.9-2.4 9.4-0.6c0 0-0.4 4.1-1.4 4.9 0-0.5-0.7-0.6-1.7-0.5 0.1-1.1 0.3-3.7 1-4l-1.6-0.7-0.2 4.8-1.5 0.3-0.9-4.8-1 0.4 0.9 4.7c-1.1 0.3-2 0.5-2 0.5l-1.8-7-2.2-0.6 3.1 8.9s7.7-2.7 7.5-0.7c3.2-2.5 4.3-6.5 4.3-6.5-2.2-3.3-11.8-0.4-11.8-0.4z" fill="#DBC879"/>
 <path id="path4454" stroke="#7C5A2D" stroke-width=".5" d="m2586.9 26.3c-0.8-2.5 4.7 2.6 2.6 2.2s-10.6 0.1-11.9 0.6l-0.6-2.2c1.9 0.2 9.9-0.6 9.9-0.6z" fill="#DBC879"/>
 <path id="path4456" stroke="#7C5A2D" stroke-width=".5" d="m2458.9 22.5c-0.8-2.5 4.7 2.6 2.6 2.2s-10.6 0.1-11.9 0.6l-0.6-2.2c1.9 0.2 9.9-0.6 9.9-0.6z" fill="#DBC879"/>
 <polygon id="polygon4458" stroke="#7C5A2D" stroke-width=".5" points="2584.3 22.6 2585 24.1 2580.3 24.7 2579.7 23.2" fill="#DBC879"/>
 <path id="path4460" stroke="#7C5A2D" stroke-width=".5" d="m2586.5 18.8c-2-2.3-2.8 0.6-9 0.6l1.1 1.7 7.7-1 0.2-1.3z" fill="#DBC879"/>
 <path id="path4462" stroke="#7C5A2D" stroke-width=".5" d="m2522.9 25.3c-0.8-2.5 4.7 2.6 2.6 2.2s-10.6 0.1-11.9 0.6l-0.6-2.2c1.9 0.2 9.9-0.6 9.9-0.6z" fill="#DBC879"/>
 <path id="path4464" stroke="#7C5A2D" stroke-width=".5" d="m2522.5 20.8c-2-2.3-2.8 0.6-9 0.6l1.1 1.7 7.7-1 0.2-1.3z" fill="#DBC879"/>
 <path id="path4466" stroke="#7C5A2D" stroke-width=".5" d="m2643.1 108.3l-0.1 1.3s8.9-2.4 9.4-0.6c0 0-0.4 4.1-1.4 4.9 0-0.5-0.7-0.6-1.7-0.5 0.1-1.1 0.3-3.7 1-4l-1.6-0.7-0.2 4.8-1.5 0.3-0.9-4.8-1 0.4 0.9 4.7c-1.1 0.3-2 0.5-2 0.5l-1.8-7-2.2-0.5 3.1 8.9s7.7-2.7 7.5-0.7c3.2-2.5 4.3-6.5 4.3-6.5-2.2-3.4-11.8-0.5-11.8-0.5z" fill="#DBC879"/>
 <path id="path4468" stroke="#7C5A2D" stroke-width=".5" d="m2586.9 114.3c-0.8-2.5 4.7 2.6 2.6 2.2s-10.6 0.1-11.9 0.6l-0.6-2.2c1.9 0.2 9.9-0.6 9.9-0.6z" fill="#DBC879"/>
 <path id="path4470" stroke="#7C5A2D" stroke-width=".5" d="m2458.9 110.5c-0.8-2.5 4.7 2.6 2.6 2.2s-10.6 0.1-11.9 0.6l-0.6-2.2c1.9 0.2 9.9-0.6 9.9-0.6z" fill="#DBC879"/>
 <polygon id="polygon4472" stroke="#7C5A2D" stroke-width=".5" points="2584.3 110.6 2585 112.1 2580.3 112.7 2579.7 111.2" fill="#DBC879"/>
 <path id="path4474" stroke="#7C5A2D" stroke-width=".5" d="m2586.5 106.8c-2-2.3-2.8 0.6-9 0.6l1.1 1.7 7.7-1 0.2-1.3z" fill="#DBC879"/>
 <path id="path4476" stroke="#7C5A2D" stroke-width=".5" d="m2522.9 113.3c-0.8-2.5 4.7 2.6 2.6 2.2s-10.6 0.1-11.9 0.6l-0.6-2.2c1.9 0.2 9.9-0.6 9.9-0.6z" fill="#DBC879"/>
 <path id="path4478" stroke="#7C5A2D" stroke-width=".5" d="m2522.5 108.8c-2-2.3-2.8 0.6-9 0.6l1.1 1.7 7.7-1 0.2-1.3z" fill="#DBC879"/>
 <path id="path4480" d="m632.3 54.7c-2-0.9-11.8 3.3-11.8 3.3l0.5-20.7s5.3-4.3 9.6-1.7l-1.2-5c-1.4-0.2-8.4 5.5-8.4 5.5s-0.6-18.8 4.8-19.9-8.9-2.6-9.7-2.2c-0.4 0.2-0.4 13.8-0.2 27.1-3.2 3.1-5.9 6.2-7.1 7.3l0.4-28.5s-4.7-2.6-5.8-1.4l0.2 14.8c-0.3-0.5-0.7-0.9-1-1.3-1-1.3-6.1-4.2-6.1-4.2s1.7 5.6 2.5 6.6c0.7 0.9 3 2.9 4.6 2.2l0.2 16.5c-3.4 3-7.9 6.8-8.5 5.4-1.5-3.2-4.7-3-5.2-1.5-0.5 1.6 4.2 10.2 5.8 10.1 0.8-0.1 4.4-4.9 8-10l0.1 5.3c1.6 2.1 3.8 0.5 4.6-0.7l0.3-11c1.1-1.6 4-4.5 7.1-7.9 0.2 12.1 0.3 22.8 0.3 22.8 4.9-5.2 16.7-4 16.7-4l-0.7-6.9z" fill="#101040"/>
 <g id="g4521" transform="translate(2256.8 16.791)">
  <g id="g4541" style="fill:#bfbfbf" transform="matrix(.40440 0 0 .40440 118.42 55.571)">
   <path id="circle4489" style="fill:#bfbfbf" d="m39.87 125.58c0.123 2.56-1.132 5.07-3.034 6.74-1.981 1.78-4.737 2.79-7.401 2.37-2.287-0.38-4.431-1.62-5.833-3.48-1.675-2.15-2.466-5.06-1.805-7.74 0.717-2.87 2.901-5.29 5.641-6.37 2.105-0.87 4.568-0.97 6.666-0.03 2.862 1.22 5.151 3.86 5.667 6.96 0.084 0.51 0.119 1.03 0.099 1.55z"/>
   <path id="circle4491" style="fill:#bfbfbf" d="m105.29 163.35c0.12 2.6-1.17 5.14-3.12 6.81-2.02 1.77-4.811 2.74-7.482 2.26-2.684-0.47-5.112-2.2-6.431-4.59-1.275-2.21-1.68-4.99-0.788-7.42 1.133-3.2 4.117-5.63 7.466-6.13 1.827-0.29 3.754 0.01 5.365 0.93 2.62 1.39 4.62 4.04 4.95 7.02 0.04 0.37 0.06 0.74 0.04 1.12z"/>
   <path id="circle4493" style="fill:#bfbfbf" d="m105.29 87.805c0.12 2.625-1.19 5.185-3.18 6.858-2.02 1.757-4.826 2.706-7.493 2.209-2.8-0.514-5.3-2.404-6.569-4.951-1.153-2.214-1.444-4.933-0.504-7.275 1.301-3.388 4.702-5.852 8.332-6.007 1.648-0.082 3.314 0.338 4.724 1.196 2.51 1.45 4.39 4.076 4.66 6.992 0.03 0.325 0.04 0.652 0.03 0.978z"/>
   <path id="path4495" style="fill:#bfbfbf" d="m74.361 103.01c10.482-0.21 20.477 7.99 22.147 18.37 1.031 1.98 3.732 0.59 5.492 1h10.34c-0.67-8.51-4.35-16.74-10.23-22.922-6.202 3.422-14.99 0.456-17.782-6.073-1.242-1.491-0.283-4.082-2.132-5.151-8.035-1.606-16.638-0.694-24.064 2.841 2.608 4.518 5.217 9.035 7.826 13.555 2.662-1.07 5.532-1.63 8.403-1.62z"/>
   <path id="path4497" style="fill:#bfbfbf" d="m51.785 125.58c-0.054-6.82 3.251-13.56 8.636-17.74-2.608-4.52-5.216-9.04-7.824-13.557-6.998 4.868-12.326 12.127-14.75 20.307 5.691 3.44 7.672 11.62 4.374 17.35-0.631 0.9-1.034 1.97-1.957 2.63-0.938 0.75-2.194 1.54-2.177 2.9 2.604 7.79 7.753 14.72 14.506 19.41 2.608-4.52 5.216-9.04 7.825-13.55-5.382-4.18-8.689-10.93-8.633-17.75z"/>
   <path id="path4499" style="fill:#bfbfbf" d="m96.71 128.78c-0.841 7.01-5.49 13.25-11.607 16.64-3.701 2.09-8.018 3.07-12.256 2.69-2.361-0.16-4.699-0.69-6.892-1.58-2.609 4.52-5.218 9.04-7.827 13.56 7.712 3.65 16.672 4.55 24.974 2.6 0.104-5.54 4.36-10.5 9.6-12 1.471-0.42 3.027-0.57 4.548-0.38 1.817-0.31 3.37 1.51 5.18 0.89 1.02-0.63 1.63-1.79 2.41-2.7 4.26-5.71 6.95-12.61 7.5-19.72h-15.63z"/>
  </g>
  <path id="path4501" style="fill:#bfbfbf" d="m159.67 134.64c-0.02-0.36 0.17-0.78 0.56-0.84 0.39-0.1 0.84 0.18 0.86 0.6 0.05 0.41 0.01 0.83 0.02 1.25 0.01 0.61-0.03 1.23 0.07 1.83 0.09 0.41 0.44 0.76 0.86 0.78 0.46 0.06 0.96-0.19 1.09-0.65 0.14-0.45 0.08-0.92 0.1-1.37 0-0.62-0.02-1.24 0.01-1.86 0.04-0.34 0.36-0.63 0.71-0.6 0.38-0.01 0.7 0.33 0.69 0.71 0.03 0.6 0 1.2 0.01 1.81-0.01 0.64-0.02 1.31-0.24 1.92-0.29 0.72-0.99 1.27-1.77 1.33-0.79 0.11-1.68-0.02-2.25-0.61-0.49-0.49-0.68-1.19-0.69-1.86-0.05-0.81-0.02-1.63-0.03-2.44z"/>
  <path id="path4503" style="fill:#bfbfbf" d="m148.63 138.73c-0.08 0.47 0.4 0.99 0.88 0.84 0.39-0.08 0.62-0.51 0.56-0.89 0.05-0.97-0.09-1.96 0.11-2.92 0.16-0.53 0.81-0.81 1.31-0.6 0.38 0.13 0.66 0.49 0.66 0.89 0.08 0.72 0.01 1.44 0.04 2.16 0 0.34-0.03 0.71 0.1 1.04 0.24 0.45 1.04 0.46 1.23-0.05 0.17-0.4 0.05-0.84 0.09-1.25-0.01-0.91 0.06-1.84-0.21-2.73-0.25-0.72-0.93-1.29-1.69-1.39-0.71-0.13-1.48-0.04-2.09 0.36-0.54 0.38-0.85 1.02-0.92 1.67-0.11 0.81-0.05 1.63-0.06 2.44 0 0.14 0 0.29-0.01 0.43z"/>
  <path id="path4505" style="fill:#bfbfbf" d="m142.13 134.64c-0.1-0.51 0.46-1.04 0.96-0.82 0.38 0.14 0.53 0.59 0.47 0.97 0.04 0.95-0.09 1.91 0.12 2.85 0.21 0.63 1.1 0.84 1.6 0.41 0.28-0.22 0.39-0.6 0.38-0.95 0.06-0.9-0.04-1.81 0.04-2.7 0.03-0.33 0.29-0.61 0.62-0.62 0.34-0.04 0.7 0.19 0.74 0.54 0.1 0.44 0.01 0.9 0.04 1.35 0 0.89 0.06 1.83-0.29 2.67-0.33 0.71-1.07 1.19-1.85 1.23-0.81 0.09-1.71-0.11-2.25-0.76-0.46-0.56-0.56-1.31-0.57-2.02-0.03-0.72 0.01-1.43-0.01-2.15z"/>
  <path id="path4507" style="fill:#bfbfbf" d="m129.25 134.64c-0.04-0.38 0.21-0.83 0.63-0.86 0.38-0.05 0.79 0.26 0.79 0.66 0.04 0.51 0 1.02 0.02 1.54 0 0.54-0.03 1.09 0.1 1.62 0.13 0.4 0.53 0.69 0.96 0.67 0.46 0.01 0.92-0.32 0.99-0.79 0.1-0.52 0.04-1.06 0.06-1.59 0-0.52-0.02-1.05 0.03-1.57 0.07-0.38 0.5-0.63 0.87-0.52 0.32 0.08 0.55 0.41 0.52 0.74 0.02 0.79 0.01 1.58-0.01 2.37-0.03 0.67-0.13 1.41-0.61 1.93-0.38 0.44-0.95 0.7-1.54 0.73-0.78 0.08-1.66-0.1-2.19-0.72-0.46-0.53-0.6-1.25-0.6-1.93-0.04-0.76-0.01-1.52-0.02-2.28z"/>
  <path id="path4509" style="fill:#bfbfbf" d="m140.47 135.16c-0.08-0.21 0.01 0.06 0 0zm-4.74 1.54c0.02-1.55-0.04-3.11 0.04-4.66 0.12-0.57 1.06-0.71 1.3-0.16 0.22 0.46 0.07 0.98 0.13 1.47-0.16 0.34 0.06 0.91 0.47 0.55 0.89-0.3 2-0.03 2.53 0.79 0.6 0.87 0.65 2.01 0.43 3.02-0.18 0.75-0.68 1.49-1.45 1.72-0.92 0.32-2.04 0.18-2.75-0.49-0.58-0.59-0.7-1.46-0.7-2.24zm3.14 1.54c0.62-0.53 0.68-1.42 0.54-2.17-0.07-0.68-0.76-1.31-1.46-1.11-0.51 0.11-0.88 0.62-0.86 1.13-0.07 0.64-0.09 1.33 0.22 1.9 0.35 0.48 1.08 0.57 1.56 0.25z"/>
  <path id="path4511" style="fill:#bfbfbf" d="m155.33 133.68c0.32 0.02 0.1-0.46 0.16-0.66 0.01-0.37-0.03-0.75 0.1-1.1 0.2-0.42 0.83-0.52 1.14-0.17 0.3 0.32 0.2 0.8 0.22 1.2 0.06 0.29-0.18 0.88 0.31 0.73 0.36-0.05 0.89 0.09 0.86 0.55 0.02 0.41-0.43 0.52-0.76 0.52-0.21 0.01-0.5-0.07-0.41 0.25 0.01 1-0.01 2.01 0.02 3.02 0.03 0.43 0.52 0.49 0.85 0.36 0.37-0.16 0.87 0.13 0.76 0.57-0.07 0.4-0.52 0.52-0.86 0.59-0.45 0.07-0.92 0.06-1.37-0.05-0.44-0.14-0.77-0.56-0.8-1.03-0.11-0.84-0.03-1.69-0.05-2.54v-1.17c-0.36 0.05-0.84-0.08-0.85-0.51 0-0.37 0.35-0.59 0.68-0.56z"/>
 </g>
 <g id="g4549" transform="translate(2256.6 -70.697)">
  <g id="g4551" style="fill:#bfbfbf" transform="matrix(.40440 0 0 .40440 118.42 55.571)">
   <path id="circle4553" style="fill:#bfbfbf" d="m39.87 125.58c0.108 4.62-3.799 8.84-8.406 9.1-4.647 0.48-9.218-3.18-9.752-7.83-0.771-4.62 2.639-9.41 7.25-10.22 4.404-0.97 9.191 1.86 10.479 6.18 0.29 0.89 0.427 1.83 0.429 2.77z"/>
   <path id="circle4555" style="fill:#bfbfbf" d="m105.29 163.35c0.11 4.61-3.8 8.83-8.402 9.09-4.647 0.48-9.218-3.18-9.752-7.82-0.771-4.63 2.639-9.41 7.25-10.23 4.404-0.97 9.194 1.86 10.474 6.18 0.29 0.89 0.43 1.84 0.43 2.78z"/>
   <path id="circle4557" style="fill:#bfbfbf" d="m105.29 87.805c0.1 4.615-3.8 8.836-8.41 9.098-4.647 0.475-9.218-3.185-9.752-7.828-0.771-4.626 2.639-9.408 7.25-10.222 4.404-0.971 9.192 1.856 10.482 6.176 0.29 0.895 0.42 1.836 0.43 2.776z"/>
   <path id="path4559" style="fill:#bfbfbf" d="m74.361 103.01c8.882-0.12 17.462 5.6 20.81 13.83 0.922 1.68 1.029 4.12 1.782 5.54h15.387c-0.67-8.51-4.35-16.74-10.23-22.922-5.327 2.842-12.517 1.322-16.185-3.501-1.681-2.125-2.708-4.775-2.829-7.486-8.299-1.946-17.254-1.049-24.964 2.604 2.608 4.518 5.217 9.035 7.826 13.555 2.662-1.07 5.532-1.63 8.403-1.62z"/>
   <path id="path4561" style="fill:#bfbfbf" d="m51.785 125.58c-0.05-6.61 3.046-13.15 8.149-17.35 0.96-0.99-1.126-2.53-1.424-3.7-1.971-3.42-3.942-6.833-5.913-10.247-6.999 4.867-12.326 12.127-14.75 20.307 5.105 3.18 7.401 10.12 5.111 15.7-0.994 2.56-2.796 4.8-5.111 6.28 2.423 8.18 7.75 15.44 14.746 20.31 2.608-4.52 5.216-9.04 7.825-13.55-5.383-4.19-8.689-10.92-8.633-17.75z"/>
   <path id="path4563" style="fill:#bfbfbf" d="m96.71 128.78c-1.193 9.16-8.594 17.1-17.664 18.89-4.343 0.94-8.945 0.48-13.072-1.08-2.686 4.43-5.219 9.01-7.846 13.5 7.712 3.66 16.672 4.55 24.974 2.6 0.195-6.04 5.106-11.52 11.123-12.29 2.68-0.39 5.488 0.04 7.895 1.29 5.88-6.18 9.55-14.41 10.22-22.91h-15.63z"/>
  </g>
  <path id="path4565" style="fill:#bfbfbf" d="m159.67 134.64c-0.02-0.34 0.14-0.73 0.49-0.83 0.36-0.11 0.81 0.08 0.9 0.46 0.09 0.34 0.04 0.69 0.05 1.04 0.01 0.66-0.02 1.32 0.04 1.97 0.02 0.44 0.32 0.88 0.77 0.96 0.43 0.1 0.95-0.07 1.15-0.49 0.19-0.38 0.14-0.82 0.16-1.23 0-0.68-0.01-1.36 0-2.04 0.01-0.34 0.27-0.68 0.62-0.69 0.36-0.06 0.72 0.2 0.77 0.56 0.06 0.37 0.02 0.76 0.03 1.14 0 0.86 0.05 1.73-0.18 2.56-0.23 0.73-0.86 1.33-1.62 1.46-0.75 0.14-1.6 0.1-2.24-0.37-0.58-0.43-0.86-1.15-0.89-1.86-0.07-0.88-0.04-1.76-0.05-2.64z"/>
  <path id="path4567" style="fill:#bfbfbf" d="m148.63 138.73c-0.01 0.33 0.14 0.73 0.49 0.82 0.36 0.12 0.81-0.07 0.9-0.45 0.09-0.34 0.04-0.7 0.05-1.05 0.01-0.65-0.02-1.31 0.04-1.96 0.03-0.43 0.3-0.86 0.73-0.95 0.44-0.12 0.98 0.04 1.19 0.47 0.19 0.38 0.14 0.81 0.16 1.22 0 0.68-0.01 1.37 0 2.06 0.01 0.34 0.27 0.68 0.62 0.69 0.36 0.05 0.72-0.2 0.78-0.56 0.05-0.38 0.01-0.76 0.02-1.14 0-0.86 0.05-1.73-0.18-2.57-0.23-0.73-0.86-1.32-1.62-1.46-0.75-0.14-1.6-0.09-2.24 0.38-0.58 0.42-0.86 1.15-0.89 1.85-0.07 0.88-0.04 1.77-0.05 2.65z"/>
  <path id="path4569" style="fill:#bfbfbf" d="m142.13 134.64c-0.02-0.34 0.13-0.73 0.48-0.83 0.36-0.11 0.81 0.08 0.9 0.46 0.09 0.34 0.04 0.69 0.05 1.04 0.01 0.66-0.02 1.32 0.04 1.97 0.03 0.42 0.3 0.86 0.73 0.95 0.43 0.11 0.96-0.03 1.17-0.44 0.21-0.38 0.16-0.83 0.18-1.24 0-0.69-0.01-1.38 0.01-2.07 0-0.34 0.26-0.68 0.62-0.69 0.35-0.06 0.72 0.2 0.77 0.56 0.05 0.37 0.02 0.76 0.03 1.14-0.01 0.86 0.04 1.73-0.18 2.56-0.24 0.73-0.86 1.33-1.63 1.46-0.75 0.14-1.6 0.1-2.23-0.37-0.58-0.43-0.87-1.15-0.9-1.86-0.07-0.88-0.03-1.76-0.04-2.64z"/>
  <path id="path4571" style="fill:#bfbfbf" d="m129.25 134.64c-0.02-0.34 0.13-0.73 0.49-0.83 0.35-0.11 0.8 0.07 0.9 0.45 0.08 0.35 0.03 0.71 0.05 1.06 0.01 0.65-0.03 1.31 0.03 1.96 0.03 0.44 0.32 0.88 0.77 0.96 0.44 0.1 0.95-0.07 1.15-0.49 0.19-0.38 0.14-0.82 0.16-1.23 0-0.68-0.01-1.36 0.01-2.04 0-0.34 0.26-0.68 0.62-0.69 0.35-0.06 0.72 0.2 0.77 0.56 0.05 0.37 0.02 0.76 0.03 1.14-0.01 0.86 0.04 1.73-0.18 2.56-0.24 0.73-0.86 1.33-1.62 1.46-0.76 0.14-1.61 0.1-2.24-0.37-0.58-0.43-0.86-1.15-0.9-1.86-0.07-0.88-0.03-1.76-0.04-2.64z"/>
  <path id="path4573" style="fill:#bfbfbf" d="m140.47 135.16c-0.11-0.23-0.01-0.03 0.03 0.08l-0.02-0.04-0.01-0.04zm-4.74 1.54c0.01-1.44-0.01-2.88 0.01-4.32-0.03-0.37 0.19-0.78 0.58-0.84 0.42-0.1 0.87 0.27 0.85 0.71 0.04 0.62 0.01 1.24 0.02 1.86 0.43-0.2 0.88-0.37 1.36-0.33 0.93 0.02 1.75 0.74 2.01 1.62 0.29 0.95 0.26 2.03-0.16 2.94-0.3 0.66-0.96 1.13-1.69 1.21-0.82 0.11-1.76-0.02-2.34-0.68-0.47-0.51-0.61-1.22-0.63-1.9 0-0.09-0.01-0.18-0.01-0.27zm3.14 1.54c0.5-0.37 0.6-1.05 0.6-1.63-0.03-0.53-0.14-1.15-0.6-1.48-0.52-0.34-1.35-0.22-1.63 0.37-0.23 0.5-0.19 1.08-0.17 1.61 0.01 0.47 0.17 1 0.63 1.2 0.37 0.16 0.83 0.15 1.17-0.07z"/>
  <path id="path4575" style="fill:#bfbfbf" d="m155.33 133.68c0.16 0.04 0.19-0.04 0.17-0.18 0.01-0.47-0.03-0.95 0.04-1.41 0.08-0.48 0.72-0.73 1.1-0.41 0.36 0.24 0.3 0.72 0.31 1.1v0.9c0.33 0.02 0.68-0.06 0.97 0.12 0.33 0.22 0.25 0.81-0.16 0.89-0.26 0.08-0.54 0.06-0.81 0.06 0.01 1.04-0.01 2.07 0.01 3.1-0.02 0.29 0.15 0.63 0.49 0.59 0.32 0.01 0.69-0.23 0.96 0.02 0.32 0.24 0.19 0.76-0.15 0.91-0.5 0.24-1.08 0.24-1.62 0.18-0.52-0.05-0.99-0.43-1.06-0.96-0.13-0.7-0.07-1.42-0.08-2.14v-1.7c-0.3 0.02-0.67-0.01-0.8-0.32-0.16-0.34 0.12-0.73 0.48-0.74 0.05 0 0.1-0.01 0.15-0.01z"/>
 </g>
</svg>
