<?xml version="1.0" encoding="UTF-8" standalone="no"?>
<!-- Generator: Adobe Illustrator 9.0, SVG Export Plug-In  -->
<svg id="svg2" xmlns:rdf="http://www.w3.org/1999/02/22-rdf-syntax-ns#" xmlns="http://www.w3.org/2000/svg" xml:space="preserve" height="48" width="48" version="1.0" xmlns:cc="http://creativecommons.org/ns#" xmlns:dc="http://purl.org/dc/elements/1.1/" viewBox="0 0 48 48"><metadata id="metadata37"><rdf:RDF><cc:Work rdf:about=""><dc:format>image/svg+xml</dc:format><dc:type rdf:resource="http://purl.org/dc/dcmitype/StillImage"/><dc:title>Dialog Information</dc:title><dc:date>November 2008</dc:date><dc:creator><cc:Agent><dc:title>Luca Ferretti &lt;elle.uca@libero.it&gt;</dc:title></cc:Agent></dc:creator><dc:subject><rdf:Bag><rdf:li>dialog</rdf:li><rdf:li>alert</rdf:li><rdf:li>notification</rdf:li><rdf:li>information</rdf:li></rdf:Bag></dc:subject><dc:coverage>Icon to show while providing info to user</dc:coverage><dc:description>A light bulb</dc:description><dc:contributor><cc:Agent><dc:title>Based on Jakub Steiner&apos;s work</dc:title></cc:Agent></dc:contributor></cc:Work></rdf:RDF></metadata>
<g id="layer1"><rect id="rect2415" style="fill:none" height="48" width="48" y="0" x="0"/><g id="g3215" style="stroke:#fff;stroke-width:10;fill:none" transform="translate(0,2)"><path id="path3217" style="stroke:#fff;stroke-linecap:round;stroke-width:10;fill:none" d="m20 33l8-1"/><path id="path3219" style="stroke:#fff;stroke-linecap:round;stroke-width:10;fill:none" d="m20 36l8-1"/><path id="path3221" style="stroke:#fff;stroke-linecap:round;stroke-width:10;fill:none" d="m20 39l8-1"/><path id="path3223" style="stroke:#fff;stroke-linecap:round;stroke-width:10;fill:none" d="m24 36v4"/></g><path id="path3213" style="stroke-linejoin:round;stroke:#fff;stroke-linecap:round;stroke-width:11.112;fill:none" d="m36 18.5a12.5 12.5 0 1 1 -25 0 12.5 12.5 0 1 1 25 0z" transform="matrix(1.0797 0 0 1.0803 -1.8608 -.50497)"/><path id="path3189" style="stroke-linejoin:round;stroke:#000;stroke-linecap:round;stroke-width:3.7038;fill:#fff" d="m36 18.5a12.5 12.5 0 1 1 -25 0 12.5 12.5 0 1 1 25 0z" transform="matrix(1.0797 0 0 1.0803 -1.8608 -.50497)"/><path id="path3193" style="stroke-linejoin:round;stroke:#000;stroke-linecap:round;stroke-width:2;fill:none" d="m23 27l-5-9c4 3 7 4 10 1"/><g id="g3207" transform="translate(0,2)"><path id="path3195" style="stroke:#000;stroke-linecap:round;stroke-width:4;fill:none" d="m20 33l8-1"/><path id="path3197" style="stroke:#000;stroke-linecap:round;stroke-width:4;fill:none" d="m20 36l8-1"/><path id="path3199" style="stroke:#000;stroke-linecap:round;stroke-width:4;fill:none" d="m20 39l8-1"/><path id="path3203" style="stroke:#000;stroke-linecap:round;stroke-width:6;fill:none" d="m24 36v4"/></g></g></svg>
