<?xml version="1.0" encoding="UTF-8" standalone="no"?>
<!-- Generator: Adobe Illustrator 9.0, SVG Export Plug-In  -->
<svg id="svg1358" xmlns:rdf="http://www.w3.org/1999/02/22-rdf-syntax-ns#" xmlns="http://www.w3.org/2000/svg" sodipodi:docname="folder-visiting.svg" xml:space="preserve" height="48px" sodipodi:version="0.32" width="48px" xmlns:cc="http://web.resource.org/cc/" xmlns:dc="http://purl.org/dc/elements/1.1/" viewBox="0 0 48 48" sodipodi:docbase="/home/luca/Desktop/blackwhite-icon-theme/scalable/status" xmlns:sodipodi="http://inkscape.sourceforge.net/DTD/sodipodi-0.dtd"><metadata id="metadata1375"><rdf:RDF><cc:Work rdf:about=""><dc:format>image/svg+xml</dc:format><dc:type rdf:resource="http://purl.org/dc/dcmitype/StillImage"/><dc:title>Folder</dc:title><dc:description>A folder</dc:description><cc:license rdf:resource="http://creativecommons.org/licenses/GPL/2.0/"/><dc:contributor><cc:Agent><dc:title>based on jimmac work</dc:title></cc:Agent></dc:contributor></cc:Work><cc:License rdf:about="http://creativecommons.org/licenses/GPL/2.0/"><cc:permits rdf:resource="http://web.resource.org/cc/Reproduction"/><cc:permits rdf:resource="http://web.resource.org/cc/Distribution"/><cc:requires rdf:resource="http://web.resource.org/cc/Notice"/><cc:permits rdf:resource="http://web.resource.org/cc/DerivativeWorks"/><cc:requires rdf:resource="http://web.resource.org/cc/ShareAlike"/><cc:requires rdf:resource="http://web.resource.org/cc/SourceCode"/></cc:License></rdf:RDF></metadata><sodipodi:namedview id="base" gridspacingy="1.0000000px" gridspacingx="1.0000000px" borderopacity="1.0" showgrid="true" bordercolor="#666666" guidetolerance="0.50000000px" gridoriginy="0.0000000px" gridoriginx="0.0000000px" pagecolor="#ffffff" gridtolerance="0.50000000px" gridempspacing="5" showguides="true"/>
	<rect id="rect4762" style="fill:none" height="48" width="48" y="0" x="0"/><path id="path9126" sodipodi:nodetypes="cccccccccccc" style="stroke-linejoin:round;stroke:#fff;stroke-linecap:round;stroke-width:8;fill:#fff" d="m7 6c-2 0-3 1-3 3v25c0 2 2 4 4 4h32c2 0 4-2 4-4v-18c0-2-2-4-4-4h-18v-3c0-2-1-3-3-3h-12z"/><path id="path1365" sodipodi:nodetypes="cccccccccccc" d="m7 6c-2 0-3 1-3 3v25c0 2 2 4 4 4h32c2 0 4-2 4-4v-18c0-2-2-4-4-4h-18v-3c0-2-1-3-3-3h-12z"/>
<path id="path3303" sodipodi:nodetypes="cccccccccccc" style="fill:#fff" d="m10 10c-1 0-2 1-2 2v20c0 1 1 2 2 2h28c1 0 2-1 2-2v-14c0-1-1-2-2-2h-19v-4c0-1-1-2-2-2h-7z"/></svg>
