<?xml version="1.0" encoding="UTF-8" standalone="no"?>
<!-- Generator: Adobe Illustrator 9.0, SVG Export Plug-In  -->
<svg id="svg2" xmlns:rdf="http://www.w3.org/1999/02/22-rdf-syntax-ns#" xmlns="http://www.w3.org/2000/svg" xml:space="preserve" height="48" width="48" version="1.0" xmlns:cc="http://creativecommons.org/ns#" xmlns:dc="http://purl.org/dc/elements/1.1/" viewBox="0 0 48 48"><metadata id="metadata31"><rdf:RDF><cc:Work rdf:about=""><dc:format>image/svg+xml</dc:format><dc:type rdf:resource="http://purl.org/dc/dcmitype/StillImage"/></cc:Work></rdf:RDF></metadata>
<rect id="rect2393" style="fill:none" rx="0" ry="0" height="48" width="48" y="0" x="0"/><g id="g2395" style="stroke:#fff;stroke-width:8;fill:#fff" transform="translate(0 -6)"><path id="path2397" style="stroke-linejoin:round;stroke:#fff;stroke-width:8;fill:#fff" d="m40 49c0 0.4-0.565 1-0.941 1h-30.118c-0.3763 0-0.941-0.6-0.941-1v-12c0-0.4 0.4706-0.7 0.8471-0.7h30.024c0.376 0 1.129 0.3 1.129 0.7v12z"/><path id="path2399" style="stroke-linejoin:round;stroke:#fff;stroke-width:8;fill:#fff" d="m44 35c0 0.4-0.6 1-1 1h-38c-0.4 0-1-0.6-1-1v-14c0-0.4 0.6-1 1-1h38c0.4 0 1 0.6 1 1v14z"/><path id="path2401" style="stroke-linejoin:round;stroke:#fff;stroke-width:8;fill:#fff" d="m12 10c-3 0-4 2-4 4v12h32v-12c0-2-1-4-4-4h-24z"/></g><g id="g2403" transform="translate(0 -10)"><path id="path2405" d="m41 42c0 0.4-0.6 1-1 1h-32c-0.4 0-1-0.6-1-1v-2c0-0.4 0.5-0.7 0.9-0.7h31.9c0.4 0 1.2 0.3 1.2 0.7v2z"/><path id="path2407" d="m44 39c0 0.4-0.6 1-1 1h-38c-0.4 0-1-0.6-1-1v-14c0-0.4 0.6-1 1-1h38c0.4 0 1 0.6 1 1v14z"/><path id="path2409" d="m12 14c-3 0-4 2-4 4v18h32v-18c0-2-1-4-4-4h-24z"/><path id="path3187" d="m12 54c-3 0-4-2-4-4v-18h32v18c0 2-1 4-4 4h-24z"/></g><path id="path2411" style="fill:#fff" d="m36 15h-24v-6s0-1 1-1h22c1 0 1 1 1 1v6z"/><path id="path3189" style="fill:#fff" d="m36 30h-24v9s0 1 1 1h22c1 0 1-1 1-1v-9z"/><path id="path2413" style="stroke:#000;stroke-width:4;fill:none" d="m16.6 35h14.4"/></svg>
