<?xml version="1.0" encoding="UTF-8" standalone="no"?>
<!-- Created with Inkscape (http://www.inkscape.org/) -->
<svg id="svg2160" xmlns:rdf="http://www.w3.org/1999/02/22-rdf-syntax-ns#" xmlns="http://www.w3.org/2000/svg" height="48px" width="48px" xmlns:cc="http://web.resource.org/cc/" xmlns:dc="http://purl.org/dc/elements/1.1/">
 <metadata id="metadata2165">
  <rdf:RDF>
   <cc:Work rdf:about="">
    <dc:format>image/svg+xml</dc:format>
    <dc:type rdf:resource="http://purl.org/dc/dcmitype/StillImage"/>
    <dc:title>Updates</dc:title>
    <dc:creator>
     <cc:Agent>
      <dc:title>Luca Ferretti &lt;elle.uca@libero.it&gt;</dc:title>
     </cc:Agent>
    </dc:creator>
    <dc:subject>
     <rdf:Bag>
      <rdf:li>updates</rdf:li>
      <rdf:li>available</rdf:li>
      <rdf:li>software</rdf:li>
     </rdf:Bag>
    </dc:subject>
    <dc:description>Based on same icon in GNOME icon theme</dc:description>
    <cc:license rdf:resource="http://creativecommons.org/licenses/LGPL/2.1/"/>
   </cc:Work>
   <cc:License rdf:about="http://creativecommons.org/licenses/LGPL/2.1/">
    <cc:permits rdf:resource="http://web.resource.org/cc/Reproduction"/>
    <cc:permits rdf:resource="http://web.resource.org/cc/Distribution"/>
    <cc:requires rdf:resource="http://web.resource.org/cc/Notice"/>
    <cc:permits rdf:resource="http://web.resource.org/cc/DerivativeWorks"/>
    <cc:requires rdf:resource="http://web.resource.org/cc/ShareAlike"/>
    <cc:requires rdf:resource="http://web.resource.org/cc/SourceCode"/>
   </cc:License>
  </rdf:RDF>
 </metadata>
 <g id="layer1">
  <path id="path2178" style="stroke-linejoin:round;stroke:#fff;stroke-linecap:round;stroke-width:4.5246" transform="matrix(.82049 .33191 -.32897 .82105 11.847 -3.8812)" d="m15.41 1.0323c-0.23 0.0899 9.618 8.0593 9.371 8.0547-0.246-0.0045 9.83-7.6093 9.604-7.7081-0.226-0.0991 1.103 12.5 0.931 12.322-0.171-0.177 12.331 1.57 12.242 1.34-0.09-0.23-8.06 9.619-8.055 9.372 0.004-0.247 7.609 9.829 7.708 9.604 0.099-0.227-12.5 1.102-12.322 0.93 0.177-0.171-1.57 12.332-1.341 12.242 0.231-0.09-9.618-8.059-9.371-8.055 0.247 0.005-9.829 7.609-9.604 7.708 0.227 0.099-1.102-12.5-0.93-12.322 0.17 0.178-12.332-1.57-12.242-1.34 0.0899 0.23 8.0592-9.618 8.0547-9.371-0.0045 0.246-7.6093-9.83-7.7081-9.604-0.0992 0.226 12.499-1.103 12.321-0.931-0.177 0.171 1.571-12.331 1.341-12.242z"/>
  <path id="path3137" style="stroke-linejoin:round;stroke:#fff;stroke-linecap:round;stroke-width:9.9205;fill:#fff" transform="matrix(.74762 .30258 -.29975 .74851 12.898 -1.4539)" d="m15.41 1.0323c1.937-0.75724 7.341 5.5376 9.421 5.5756 2.069 0.0378 7.659-6.0592 9.554-5.229 1.906 0.8344 1.276 9.1071 2.719 10.604 1.437 1.49 9.7 1.131 10.454 3.058 0.757 1.938-5.538 7.342-5.576 9.421-0.038 2.069 6.059 7.659 5.229 9.555-0.834 1.905-9.107 1.275-10.604 2.719-1.49 1.436-1.131 9.7-3.059 10.453-1.937 0.757-7.341-5.538-9.42-5.576-2.07-0.038-7.659 6.059-9.555 5.229-1.905-0.834-1.275-9.106-2.719-10.604-1.436-1.49-9.6997-1.131-10.453-3.058-0.75727-1.938 5.5376-7.342 5.5756-9.421 0.0378-2.069-6.0592-7.659-5.229-9.554 0.8344-1.906 9.1064-1.276 10.604-2.719 1.489-1.437 1.131-9.7004 3.058-10.454z"/>
  <path id="path2163" d="m15.41 1.0323c1.937-0.75724 7.341 5.5376 9.421 5.5756 2.069 0.0378 7.659-6.0592 9.554-5.229 1.906 0.8344 1.276 9.1071 2.719 10.604 1.437 1.49 9.7 1.131 10.454 3.058 0.757 1.938-5.538 7.342-5.576 9.421-0.038 2.069 6.059 7.659 5.229 9.555-0.834 1.905-9.107 1.275-10.604 2.719-1.49 1.436-1.131 9.7-3.059 10.453-1.937 0.757-7.341-5.538-9.42-5.576-2.07-0.038-7.659 6.059-9.555 5.229-1.905-0.834-1.275-9.106-2.719-10.604-1.436-1.49-9.6997-1.131-10.453-3.058-0.75727-1.938 5.5376-7.342 5.5756-9.421 0.0378-2.069-6.0592-7.659-5.229-9.554 0.8344-1.906 9.1064-1.276 10.604-2.719 1.489-1.437 1.131-9.7004 3.058-10.454z" transform="matrix(.74762 .30258 -.29975 .74851 12.898 -1.4539)"/>
  <path id="path8989" style="stroke-linejoin:round;fill-rule:evenodd;stroke:#fff;stroke-linecap:round;stroke-width:1.1475px;fill:#fff" d="m21.074 16.351c0-4.659 5.852-5.4 5.852 0 0 0-1.463 11.609-2.926 11.609s-2.926-11.609-2.926-11.609z"/>
  <path id="path5170" style="fill:#fff" d="m27 34.933a3 3 0 1 1 -6 0 3 3 0 1 1 6 0z" transform="translate(0 -2.0667)"/>
 </g>
</svg>
