<?xml version="1.0" encoding="UTF-8" standalone="no"?>
<!-- Generator: Adobe Illustrator 9.0, SVG Export Plug-In  -->
<svg id="svg2" xmlns:rdf="http://www.w3.org/1999/02/22-rdf-syntax-ns#" xmlns="http://www.w3.org/2000/svg" xml:space="preserve" height="48" width="48" version="1.0" xmlns:cc="http://creativecommons.org/ns#" xmlns:dc="http://purl.org/dc/elements/1.1/" viewBox="0 0 48 48"><metadata id="metadata23"><rdf:RDF><cc:Work rdf:about=""><dc:format>image/svg+xml</dc:format><dc:type rdf:resource="http://purl.org/dc/dcmitype/StillImage"/><dc:title>User Trash Full</dc:title><dc:date>November 2008</dc:date><dc:creator><cc:Agent><dc:title>Luca Ferretti &lt;elle.uca@libero.it&gt;</dc:title></cc:Agent></dc:creator><dc:subject><rdf:Bag><rdf:li>trash</rdf:li><rdf:li>garbage</rdf:li><rdf:li>trashed</rdf:li><rdf:li>non empty</rdf:li></rdf:Bag></dc:subject><dc:coverage>Notify there are some stuff in trash</dc:coverage><dc:description>A trashcan with a paper inside it</dc:description><dc:contributor><cc:Agent><dc:title>Based on Jakub Steiner &apos;s work </dc:title></cc:Agent></dc:contributor><cc:license rdf:resource=""/></cc:Work></rdf:RDF></metadata>
	<rect id="rect2391" style="fill:none" height="48" width="48" y="0" x="0"/><path id="path7" style="stroke-linejoin:round;stroke:#fff;stroke-width:7.9442" d="m23.967 6.2721c-7.75 0-14.029 2.8144-14.029 6.2319v24.325c0 3.417 6.279 6.232 14.029 6.232s14.029-2.815 14.029-6.232v-24.224c0-3.418-6.279-6.2324-14.029-6.2324v-0.1005z"/><path id="path9" style="stroke-linejoin:round;stroke:#fff;stroke-width:8" d="m24 4.9c-8.8 0-16 3.1-16 7v5.8c0 3.9 7.2 7 16 7s16-3.1 16-7v-5.8c0-3.9-7.2-7-16-7z"/><path id="path11" d="m24 6.4c-7.753 0-14.034 2.8-14.034 6.2l-0.0001 24.2c0 3.4 6.2811 6.2 14.034 6.2 7.753 0 14.034-2.8 14.034-6.2v-24.1c0-3.4-6.281-6.2-14.034-6.2v-0.1z"/><path id="path13" d="m24 5c-8.8 0-16 3.1-16 7v5.8c0 3.9 7.2 7 16 7s16-3.1 16-7v-5.8c0-3.9-7.2-7-16-7z"/><path id="path15" style="fill:#fff" d="m35.8 12.1c0 2.3-5.2 4.1-11.6 4.1s-11.6-1.9-11.6-4.1c0-2.3 5.2-4.1 11.6-4.1s11.6 1.9 11.6 4.1z"/>
<path id="rect4045" style="stroke-linejoin:round;stroke:#fff;stroke-linecap:round;stroke-width:3.0414" d="m14.762 11.775l13.741-9.4225 5.724 10.33c-4.573 2.101-12.976 3.434-19.465-0.907z"/></svg>
