<?xml version="1.0" encoding="UTF-8" standalone="no"?>
<!-- Created with Inkscape (http://www.inkscape.org/) -->
<svg id="svg2383" xmlns:rdf="http://www.w3.org/1999/02/22-rdf-syntax-ns#" xmlns="http://www.w3.org/2000/svg" height="48px" width="48px" xmlns:cc="http://creativecommons.org/ns#" xmlns:dc="http://purl.org/dc/elements/1.1/">
 <metadata id="metadata2388">
  <rdf:RDF>
   <cc:Work rdf:about="">
    <dc:format>image/svg+xml</dc:format>
    <dc:type rdf:resource="http://purl.org/dc/dcmitype/StillImage"/>
    <dc:title>Weather Few Clouds Night</dc:title>
    <dc:date>December 2008</dc:date>
    <dc:creator>
     <cc:Agent>
      <dc:title>Luca Ferretti &lt;elle.uca@libero.it&gt;</dc:title>
     </cc:Agent>
    </dc:creator>
    <dc:subject>
     <rdf:Bag>
      <rdf:li>weather</rdf:li>
      <rdf:li>day</rdf:li>
      <rdf:li>cloud</rdf:li>
      <rdf:li>few</rdf:li>
      <rdf:li/>
     </rdf:Bag>
    </dc:subject>
    <dc:description>A sun with a cloud over it</dc:description>
    <cc:license rdf:resource=""/>
   </cc:Work>
  </rdf:RDF>
 </metadata>
 <g id="layer1">
  <rect id="rect2393" style="fill:none" height="48" width="48" y="0" x="0"/>
  <path id="path3183" style="stroke-linejoin:round;stroke:#fff;stroke-linecap:round;stroke-width:8;fill:#fff" d="m24 4c1.882 0 3.236 7.269 4.975 7.99 1.739 0.72 7.836-3.4632 9.167-2.1321s-2.852 7.4281-2.132 9.1671c0.721 1.739 7.99 3.093 7.99 4.975s-7.269 3.236-7.99 4.975c-0.72 1.739 3.463 7.836 2.132 9.167s-7.428-2.852-9.167-2.132c-1.739 0.721-3.093 7.99-4.975 7.99s-3.236-7.269-4.975-7.99c-1.739-0.72-7.836 3.463-9.1671 2.132s2.8521-7.428 2.1321-9.167c-0.721-1.739-7.99-3.093-7.99-4.975s7.269-3.236 7.99-4.975c0.72-1.739-3.4632-7.836-2.1321-9.1671s7.4281 2.8521 9.1671 2.1321c1.739-0.721 3.093-7.99 4.975-7.99z"/>
  <path id="path3175" d="m38.193 24a14.096 14 0 1 1 -28.193 0 14.096 14 0 1 1 28.193 0z"/>
  <path id="path2387" style="stroke-linejoin:round;fill-rule:evenodd;stroke:#fff;stroke-linecap:round;stroke-width:8;fill:#fff" d="m18 44h26v-20c-4-9-26-6-25 4-11.131-4.02-16 16-1 16z"/>
  <path id="path3181" d="m24 4c1.882 0 3.236 7.269 4.975 7.99 1.739 0.72 7.836-3.4632 9.167-2.1321s-2.852 7.4281-2.132 9.1671c0.721 1.739 7.99 3.093 7.99 4.975s-7.269 3.236-7.99 4.975c-0.72 1.739 3.463 7.836 2.132 9.167s-7.428-2.852-9.167-2.132c-1.739 0.721-3.093 7.99-4.975 7.99s-3.236-7.269-4.975-7.99c-1.739-0.72-7.836 3.463-9.1671 2.132s2.8521-7.428 2.1321-9.167c-0.721-1.739-7.99-3.093-7.99-4.975s7.269-3.236 7.99-4.975c0.72-1.739-3.4632-7.836-2.1321-9.1671s7.4281 2.8521 9.1671 2.1321c1.739-0.721 3.093-7.99 4.975-7.99z"/>
  <path id="path3187" style="fill:#fff" d="m35 24a11 11 0 1 1 -22 0 11 11 0 1 1 22 0z"/>
  <path id="path3247" style="fill-rule:evenodd" d="m18 44h26v-20c-4-9-26-6-25 4-11.131-4.02-16 16-1 16z"/>
 </g>
</svg>
