<?xml version="1.0" encoding="UTF-8" standalone="no"?>
<!-- Created with Inkscape (http://www.inkscape.org/) -->
<svg id="svg2383" xmlns:rdf="http://www.w3.org/1999/02/22-rdf-syntax-ns#" xmlns="http://www.w3.org/2000/svg" height="48px" width="48px" xmlns:cc="http://creativecommons.org/ns#" xmlns:dc="http://purl.org/dc/elements/1.1/">
 <metadata id="metadata2388">
  <rdf:RDF>
   <cc:Work rdf:about="">
    <dc:format>image/svg+xml</dc:format>
    <dc:type rdf:resource="http://purl.org/dc/dcmitype/StillImage"/>
   </cc:Work>
  </rdf:RDF>
 </metadata>
 <g id="layer1">
  <rect id="rect2395" style="fill:none" height="48" width="48" y="0" x="0"/>
  <path id="path3253" style="fill-rule:evenodd;stroke:#fff;stroke-width:8;fill:#fff" d="m11.195 35c4.805 0 7.805 0 12.805-1 3 1 9 1 12.285 1 9.409 0 11.5-16.545-1.045-13 3.136-8.273-7.318-13-13.591-4.727-3.136-3.546-10.991-3.634-9.946 4.639-10.454-3.546-9.9174 13.088-0.508 13.088z"/>
  <path id="path3247" style="fill-rule:evenodd" d="m11.195 35c4.805 0 7.805 0 12.805-1 3 1 9 1 12.285 1 9.409 0 11.5-16.545-1.045-13 3.136-8.273-7.318-13-13.591-4.727-3.136-3.546-10.991-3.634-9.946 4.639-10.454-3.546-9.9174 13.088-0.508 13.088z"/>
  <path id="path3257" style="stroke:#fff;stroke-linecap:round;stroke-width:3;fill:none" d="m21 36c5-1 8.333-3.333 12-5"/>
 </g>
</svg>
