<?xml version="1.0" encoding="UTF-8" standalone="no"?>
<!-- Created with Inkscape (http://www.inkscape.org/) -->
<svg id="svg2383" xmlns:rdf="http://www.w3.org/1999/02/22-rdf-syntax-ns#" xmlns="http://www.w3.org/2000/svg" height="48px" width="48px" xmlns:cc="http://creativecommons.org/ns#" xmlns:dc="http://purl.org/dc/elements/1.1/">
 <metadata id="metadata2388">
  <rdf:RDF>
   <cc:Work rdf:about="">
    <dc:format>image/svg+xml</dc:format>
    <dc:type rdf:resource="http://purl.org/dc/dcmitype/StillImage"/>
    <dc:title>Weather Showers Scattered</dc:title>
    <dc:date>December 2008</dc:date>
    <dc:creator>
     <cc:Agent>
      <dc:title>Luca Ferretti &lt;elle.uca@libero.it&gt;</dc:title>
     </cc:Agent>
    </dc:creator>
    <dc:subject>
     <rdf:Bag>
      <rdf:li>weather</rdf:li>
      <rdf:li>showers</rdf:li>
      <rdf:li>scattered</rdf:li>
     </rdf:Bag>
    </dc:subject>
    <dc:description>Two raindrops</dc:description>
    <cc:license rdf:resource=""/>
   </cc:Work>
  </rdf:RDF>
 </metadata>
 <g id="layer1">
  <rect id="rect2393" style="fill:none" height="48" width="48" y="0" x="0"/>
  <g id="g3244" transform="translate(-1.0075 -.091287)">
   <path id="path3216" style="stroke-linejoin:round;stroke:#fff;stroke-linecap:round;stroke-width:8;fill:#fff" transform="matrix(.75760 .65272 -.65272 .75760 13.095 -35.621)" d="m28.062 28.12c1.798-1.588 7.734 2.145 10.002 2.911 2.267 0.766 9.305 1.099 9.821 3.446 0.516 2.346-6.054 5.585-7.853 7.179-1.8 1.593-5.524 7.487-7.785 6.719-2.26-0.769-1.787-7.667-2.239-10.017s-3.744-8.65-1.946-10.238z"/>
   <path id="path3218" style="stroke-linejoin:round;stroke:#fff;stroke-linecap:round;stroke-width:8;fill:#fff" d="m22.977 19.5a10.477 11.5 0 1 1 -20.954 0 10.477 11.5 0 1 1 20.954 0z" transform="matrix(.033675 -.99943 .99943 .033675 -3.4034 36.449)"/>
  </g>
  <g id="g3240" transform="translate(-1.0075 -.091287)">
   <path id="path3208" d="m22.977 19.5a10.477 11.5 0 1 1 -20.954 0 10.477 11.5 0 1 1 20.954 0z" transform="matrix(.033675 -.99943 .99943 .033675 -3.4034 36.449)"/>
   <path id="path3210" d="m28.062 28.12c1.798-1.588 7.734 2.145 10.002 2.911 2.267 0.766 9.305 1.099 9.821 3.446 0.516 2.346-6.054 5.585-7.853 7.179-1.8 1.593-5.524 7.487-7.785 6.719-2.26-0.769-1.787-7.667-2.239-10.017s-3.744-8.65-1.946-10.238z" transform="matrix(.75760 .65272 -.65272 .75760 13.095 -35.621)"/>
  </g>
  <g id="g3232" transform="translate(.0000011657 1)">
   <path id="path3220" style="stroke-linejoin:round;stroke:#fff;stroke-linecap:round;stroke-width:9.2046;fill:#fff" d="m22.977 19.5a10.477 11.5 0 1 1 -20.954 0 10.477 11.5 0 1 1 20.954 0z" transform="matrix(.029292 -.86792 .86936 .029244 16.684 44.179)"/>
   <path id="path3230" style="stroke-linejoin:round;stroke:#fff;stroke-linecap:round;stroke-width:9.2046;fill:#fff" d="m28.062 28.12c1.798-1.588 7.734 2.145 10.002 2.911 2.267 0.766 9.305 1.099 9.821 3.446 0.516 2.346-6.054 5.585-7.853 7.179-1.8 1.593-5.524 7.487-7.785 6.719-2.26-0.769-1.787-7.667-2.239-10.017s-3.744-8.65-1.946-10.238z" transform="matrix(0.659 .56683 -.56777 .65790 31.035 -18.407)"/>
  </g>
  <g id="g3236" transform="translate(-.0048279 1)">
   <path id="path3212" d="m22.977 19.5a10.477 11.5 0 1 1 -20.954 0 10.477 11.5 0 1 1 20.954 0z" transform="matrix(.029292 -.86792 .86936 .029244 16.684 44.179)"/>
   <path id="path3214" transform="matrix(0.659 .56683 -.56777 .65790 31.035 -18.407)" d="m28.062 28.12c1.798-1.588 7.734 2.145 10.002 2.911 2.267 0.766 9.305 1.099 9.821 3.446 0.516 2.346-6.054 5.585-7.853 7.179-1.8 1.593-5.524 7.487-7.785 6.719-2.26-0.769-1.787-7.667-2.239-10.017s-3.744-8.65-1.946-10.238z"/>
  </g>
  <path id="path3250" style="stroke-linejoin:round;stroke:#fff;stroke-linecap:round;stroke-width:3;fill:none" d="m9.5 24.5s0 5 5 5"/>
  <path id="path3252" style="stroke-linejoin:round;stroke:#fff;stroke-linecap:round;stroke-width:3;fill:none" d="m28.5 33.5s0 6 7 6"/>
 </g>
</svg>
