<?xml version="1.0" encoding="UTF-8" standalone="no"?>
<!-- Created with Inkscape (http://www.inkscape.org/) -->
<svg id="svg2383" xmlns:rdf="http://www.w3.org/1999/02/22-rdf-syntax-ns#" xmlns="http://www.w3.org/2000/svg" height="48px" width="48px" xmlns:cc="http://creativecommons.org/ns#" xmlns:dc="http://purl.org/dc/elements/1.1/">
 <metadata id="metadata2388">
  <rdf:RDF>
   <cc:Work rdf:about="">
    <dc:format>image/svg+xml</dc:format>
    <dc:type rdf:resource="http://purl.org/dc/dcmitype/StillImage"/>
    <dc:title>Weather Clean Night</dc:title>
    <dc:date>December 2008</dc:date>
    <dc:creator>
     <cc:Agent>
      <dc:title>Luca Ferretti &lt;elle.uca@libero.it&gt;</dc:title>
     </cc:Agent>
    </dc:creator>
    <dc:subject>
     <rdf:Bag>
      <rdf:li>weather</rdf:li>
      <rdf:li>night</rdf:li>
      <rdf:li>moon</rdf:li>
      <rdf:li>clean</rdf:li>
     </rdf:Bag>
    </dc:subject>
    <dc:description>A half moon with a twinkle-twinkle-little-star and a cloud over it</dc:description>
    <cc:license rdf:resource=""/>
   </cc:Work>
  </rdf:RDF>
 </metadata>
 <g id="layer1">
  <rect id="rect2493" style="fill:none" height="48" width="48" y="0" x="0"/>
  <g id="g3785">
   <path id="path3275" style="stroke-linejoin:round;stroke:#fff;stroke-width:17.046;fill:#fff" d="m17.114 9.5545c-0.513 1.9055-1.2 3.8505-1.2 5.9585 0 8.432 6.957 15.268 15.54 15.268 2.506 0 4.872-0.961 6.949-1.614-1.039 5.753-7.903 9.31-14.34 9.31-8.583 0-15.54-6.836-15.54-15.268 0.0001-5.97 2.887-12.769 8.591-13.654z"/>
   <path id="path3273" style="stroke-linejoin:round;stroke:#000;stroke-linecap:round;stroke-width:9" d="m17.148 9.5516c-0.514 1.9064-1.201 3.8514-1.201 5.9604 0 8.436 6.961 15.274 15.549 15.274 2.508 0 4.875-0.96 6.952-1.614-1.038 5.756-7.907 9.314-14.348 9.314-8.587 0-15.548-6.839-15.548-15.275-0.0004-5.972 2.889-12.773 8.596-13.659z"/>
   <path id="path23408" style="stroke-linejoin:round;stroke:#fff;stroke-width:3.0131;fill:#fff" d="m17.155 9.5437c-0.514 1.9073-1.203 3.8543-1.203 5.9643 0 8.44 6.974 15.282 15.576 15.282 2.513 0 4.884-0.961 6.965-1.615-1.04 5.759-7.921 9.318-14.373 9.318-8.603 0-15.576-6.842-15.576-15.282-0.0003-5.975 2.894-12.78 8.611-13.667z"/>
  </g>
  <g id="g3781">
   <path id="path3279" style="stroke-linejoin:round;stroke:#fff;stroke-linecap:round;stroke-width:11.011;fill:none" transform="matrix(1.018 0 0 .98036 28.446 6.1779)" d="m12.501 10.252c-0.672 0.869-3.5625-1.5369-4.6171-1.2286-1.0546 0.3084-2.1935 3.8926-3.2279 3.5216-1.0345-0.37 0.3608-3.8623-0.2583-4.7701-0.6192-0.9077-4.3796-0.8833-4.3469-1.9816 0.032641-1.0983 3.785-0.8505 4.457-1.7198s-0.5133-4.4382 0.5414-4.7465c1.0546-0.30831 1.9784 3.337 3.0129 3.7074 1.0344 0.3705 4.0619-1.8595 4.6819-0.9518 0.619 0.9077-2.563 2.9128-2.595 4.0111-0.033 1.0983 3.024 3.2889 2.352 4.1583z"/>
   <path id="path3277" style="stroke-linejoin:round;stroke:#000;stroke-linecap:round;stroke-width:3" d="m12.501 10.252c-0.672 0.869-3.5625-1.5369-4.6171-1.2286-1.0546 0.3084-2.1935 3.8926-3.2279 3.5216-1.0345-0.37 0.3608-3.8623-0.2583-4.7701-0.6192-0.9077-4.3796-0.8833-4.3469-1.9816 0.032641-1.0983 3.785-0.8505 4.457-1.7198s-0.5133-4.4382 0.5414-4.7465c1.0546-0.30831 1.9784 3.337 3.0129 3.7074 1.0344 0.3705 4.0619-1.8595 4.6819-0.9518 0.619 0.9077-2.563 2.9128-2.595 4.0111-0.033 1.0983 3.024 3.2889 2.352 4.1583z" transform="matrix(1.018 0 0 .98036 28.447 6.1764)"/>
  </g>
 </g>
</svg>
