<?xml version="1.0" encoding="UTF-8" standalone="no"?>
<!-- Created with Inkscape (http://www.inkscape.org/) -->
<svg id="svg2383" xmlns:rdf="http://www.w3.org/1999/02/22-rdf-syntax-ns#" xmlns="http://www.w3.org/2000/svg" height="48px" width="48px" xmlns:cc="http://creativecommons.org/ns#" xmlns:xlink="http://www.w3.org/1999/xlink" xmlns:dc="http://purl.org/dc/elements/1.1/">
 <metadata id="metadata2388">
  <rdf:RDF>
   <cc:Work rdf:about="">
    <dc:format>image/svg+xml</dc:format>
    <dc:type rdf:resource="http://purl.org/dc/dcmitype/StillImage"/>
    <cc:license rdf:resource=""/>
    <dc:title>Weather Showers</dc:title>
    <dc:date>December 2008</dc:date>
    <dc:creator>
     <cc:Agent>
      <dc:title>Luca Ferretti &lt;elle.uca@libero.it&gt;</dc:title>
     </cc:Agent>
    </dc:creator>
    <dc:subject>
     <rdf:Bag>
      <rdf:li>weather</rdf:li>
      <rdf:li>showers</rdf:li>
     </rdf:Bag>
    </dc:subject>
   </cc:Work>
  </rdf:RDF>
 </metadata>
 <g id="layer1">
  <rect id="rect2395" style="fill:none" height="48" width="48" y="0" x="0"/>
  <use id="use3989" xlink:href="#path3987" transform="translate(10)" height="48" width="48" y="0" x="0"/>
  <use id="use3991" xlink:href="#path3987" transform="translate(20)" height="48" width="48" y="0" x="0"/>
  <use id="use3993" xlink:href="#path3987" transform="translate(30)" height="48" width="48" y="0" x="0"/>
  <path id="path3987" style="stroke-linejoin:round;stroke:#fff;stroke-linecap:round;stroke-width:12;fill:none" d="m6 40l5-12"/>
  <path id="path3253" style="fill-rule:evenodd;stroke:#fff;stroke-width:8;fill:#fff" d="m11.195 26c4.805 0 7.805 0 12.805-1 3 1 9 1 12.285 1 9.409 0 11.5-16.546-1.045-13 3.136-8.2727-7.318-13-13.591-4.7273-3.136-3.5454-10.991-3.6336-9.946 4.6393-10.454-3.5456-9.9174 13.088-0.508 13.088z"/>
  <path id="path3247" style="fill-rule:evenodd" d="m11.319 26c4.787 0 7.776 0 12.757-1 2.988 1 8.966 1 12.238 1 9.374 0 11.457-16.546-1.041-13 3.124-8.2727-7.29-13-13.539-4.7273-3.125-3.5454-10.95-3.6336-9.909 4.6393-10.414-3.5456-9.8794 13.088-0.506 13.088z"/>
  <path id="path3257" style="stroke:#fff;stroke-linecap:round;stroke-width:3;fill:none" d="m20.805 27c5-1 8.334-3.333 12-5"/>
  <path id="path3979" style="stroke-linejoin:round;stroke:#000;stroke-linecap:round;stroke-width:4;fill:none" d="m6 40l6-13"/>
  <use id="use3981" xlink:href="#path3979" transform="translate(10)" height="48" width="48" y="0" x="0"/>
  <use id="use3983" xlink:href="#use3981" transform="translate(10)" height="48" width="48" y="0" x="0"/>
  <use id="use3985" xlink:href="#use3983" transform="translate(10)" height="48" width="48" y="0" x="0"/>
 </g>
</svg>
