<?xml version="1.0" encoding="UTF-8" standalone="no"?>
<!DOCTYPE svg  PUBLIC '-//W3C//DTD SVG 20010904//EN'  'http://www.w3.org/TR/2001/REC-SVG-20010904/DTD/svg10.dtd'>
<svg id="svg1" xmlns:rdf="http://www.w3.org/1999/02/22-rdf-syntax-ns#" xmlns="http://www.w3.org/2000/svg" height="161" width="161" version="1.1" xmlns:xlink="http://www.w3.org/1999/xlink" xmlns:cc="http://web.resource.org/cc/" xmlns:dc="http://purl.org/dc/elements/1.1/">
 <metadata id="metadata23">
  <rdf:RDF id="RDF25">
   <cc:Work id="Work26" rdf:about="">
    <dc:format id="format27">image/svg+xml</dc:format>
    <dc:type id="type29" rdf:resource="http://purl.org/dc/dcmitype/StillImage"/>
   </cc:Work>
  </rdf:RDF>
 </metadata>
 <path id="path1073" style="fill-opacity:0.99;fill-rule:evenodd;stroke:#000;stroke-width:5.4832;fill:#f30" d="m152.98 67.356l-30.55 23.34 10.24 34.104-30.05-7.49-3.02 30.96-26.489-22.42-28.07 18.32 1.508-31.83-29.311-6.17 19.453-21.578-26.506-25.05 32.247-6.614-9.123-36.264 31.997 20.058 15.448-31.049 14.487 33.639 30.879-17.879-8.82 36.157 35.68 9.766z"/>
 <path id="path1689" style="fill-opacity:0.99;fill-rule:evenodd;stroke:#000;stroke-width:3.1;fill:#fffd00" d="m135.3 70.107l-24.22 17.696 10 25.727-24.561-6.83-4.047 25.92-19.954-16.17-19.535 14.28 2.952-23.22-24.682-6.11 14.917-17.967-21.11-19.141 25.368-5.163-5.958-27.682 24.732 16.059 10.735-26.135 11.229 30.499 23.044-13.504-7.22 26.564 28.31 5.177z"/>
 <path id="path1067" style="fill-rule:evenodd;stroke:#000;stroke-width:2.5;fill:#232323" d="m57.81 59.544c-13.586 18.499-8.961 32.373-8.961 32.373l10.695 10.693-4.047-20.231 2.313-22.835z"/>
 <path id="path1068" style="fill-rule:evenodd;stroke:#000;stroke-width:2.5;fill:#232323" d="m70.817 55.786l11.851 13.008s13.296 0.578 14.452-0.29c1.156-0.867-4.914-19.944-4.914-19.944l-21.389 7.226z"/>
 <path id="path1069" style="fill-rule:evenodd;stroke:#000;stroke-width:2.5;fill:#232323" d="m77.465 85.269l0.867 18.791 13.007 6.07s1.084 1.8 7.949-7.37c6.212-8.024 4.982-10.12 4.482-9.975l-26.305-7.516z"/>
</svg>
