<?xml version="1.0" encoding="UTF-8" standalone="no"?>
<!-- Created with Inkscape (http://www.inkscape.org/) -->
<svg id="svg2" xmlns:rdf="http://www.w3.org/1999/02/22-rdf-syntax-ns#" xmlns="http://www.w3.org/2000/svg" height="32" width="32" version="1.0" xmlns:cc="http://web.resource.org/cc/" xmlns:xlink="http://www.w3.org/1999/xlink" xmlns:dc="http://purl.org/dc/elements/1.1/">
 <defs id="defs4">
  <linearGradient id="linearGradient7638">
   <stop id="stop7640" style="stop-color:#729fcf" offset="0"/>
   <stop id="stop7642" style="stop-color:#729fcf;stop-opacity:0" offset="1"/>
  </linearGradient>
  <linearGradient id="linearGradient7567">
   <stop id="stop7569" style="stop-color:#fff" offset="0"/>
   <stop id="stop7571" style="stop-color:#fff;stop-opacity:0" offset="1"/>
  </linearGradient>
  <linearGradient id="linearGradient7549">
   <stop id="stop7551" offset="0"/>
   <stop id="stop7553" style="stop-color:#888a85" offset="1"/>
  </linearGradient>
  <radialGradient id="radialGradient14601" gradientUnits="userSpaceOnUse" cy="10.047" cx="12.047" r="9.5469">
   <stop id="stop3736" offset="0"/>
   <stop id="stop3738" style="stop-opacity:0" offset="1"/>
  </radialGradient>
  <radialGradient id="radialGradient14603" gradientUnits="userSpaceOnUse" cy="7.8025" cx="9.3747" gradientTransform="matrix(1.2008 0 0 1.2008 -1.921 -1.5654)" r="10.049">
   <stop id="stop3754" style="stop-color:#fff" offset="0"/>
   <stop id="stop3756" style="stop-color:#fce94f" offset="0.8"/>
   <stop id="stop3758" style="stop-color:#edd400" offset="1"/>
  </radialGradient>
  <linearGradient id="linearGradient14605" y2="-134.39" gradientUnits="userSpaceOnUse" x2="19.236" y1="-140.43" x1="18.826">
   <stop id="stop8433" style="stop-color:#fff" offset="0"/>
   <stop id="stop8435" style="stop-color:#fff;stop-opacity:0" offset="1"/>
  </linearGradient>
  <radialGradient id="radialGradient14607" gradientUnits="userSpaceOnUse" cy="3.2659" cx="5.3851" gradientTransform="matrix(1.2424 0 0 1.2424 -1.2815 -.83942)" r="10.108">
   <stop id="stop3714" style="stop-color:#fff" offset="0"/>
   <stop id="stop3716" style="stop-color:#fff;stop-opacity:.50570" offset="1"/>
  </radialGradient>
  <linearGradient id="linearGradient14609" y2="17.494" xlink:href="#linearGradient7549" gradientUnits="userSpaceOnUse" x2="-3.8114" gradientTransform="scale(.66667)" y1="19" x1="22"/>
  <radialGradient id="radialGradient14611" xlink:href="#linearGradient7638" gradientUnits="userSpaceOnUse" cy="21.949" cx="11.339" gradientTransform="matrix(1.4271 0 0 .71355 -7.226 2.2589)" r="8"/>
  <linearGradient id="linearGradient14613" y2="23.001" xlink:href="#linearGradient7567" gradientUnits="userSpaceOnUse" x2="12.312" y1="17.102" x1="12.312"/>
  <linearGradient id="linearGradient14615" y2="16" xlink:href="#linearGradient7549" gradientUnits="userSpaceOnUse" x2="19.25" gradientTransform="scale(.66667)" y1="20.125" x1="40.875"/>
  <radialGradient id="radialGradient14617" xlink:href="#linearGradient7638" gradientUnits="userSpaceOnUse" cy="20.834" cx="10.472" gradientTransform="matrix(-1.4271 0 0 .71355 33.226 2.2589)" r="8"/>
  <linearGradient id="linearGradient14619" y2="23.019" xlink:href="#linearGradient7567" gradientUnits="userSpaceOnUse" x2="15.936" y1="17.34" x1="15.936"/>
  <linearGradient id="linearGradient14621" y2="14.719" gradientUnits="userSpaceOnUse" x2="4.5497" gradientTransform="matrix(.66667 0 0 .66667 0 369.33)" y1="15.219" x1="4.5497">
   <stop id="stop7622" style="stop-color:#2e3436" offset="0"/>
   <stop id="stop7624" style="stop-color:#2e3436;stop-opacity:0" offset="1"/>
  </linearGradient>
  <radialGradient id="radialGradient14623" gradientUnits="userSpaceOnUse" cy="33.075" cx="25.35" gradientTransform="matrix(.77884 0 0 .28535 -2.8311 381.63)" r="14.5">
   <stop id="stop3537" style="stop-color:#fff" offset="0"/>
   <stop id="stop3539" style="stop-color:#fff;stop-opacity:0" offset="1"/>
  </radialGradient>
  <linearGradient id="linearGradient14625" y2="13.375" gradientUnits="userSpaceOnUse" x2="44.312" gradientTransform="matrix(.66667 0 0 .66667 0 370)" y1="14.688" x1="43.781">
   <stop id="stop7521" style="stop-color:#2e3436" offset="0"/>
   <stop id="stop7523" style="stop-color:#2e3436;stop-opacity:0" offset="1"/>
  </linearGradient>
 </defs>
 <metadata id="metadata7">
  <rdf:RDF>
   <cc:Work rdf:about="">
    <dc:format>image/svg+xml</dc:format>
    <dc:type rdf:resource="http://purl.org/dc/dcmitype/StillImage"/>
    <dc:title>Emotes</dc:title>
    <dc:creator>
     <cc:Agent>
      <dc:title>Lapo Calamandrei</dc:title>
     </cc:Agent>
    </dc:creator>
    <cc:license rdf:resource="http://creativecommons.org/licenses/GPL/2.0/"/>
   </cc:Work>
   <cc:License rdf:about="http://creativecommons.org/licenses/GPL/2.0/">
    <cc:permits rdf:resource="http://web.resource.org/cc/Reproduction"/>
    <cc:permits rdf:resource="http://web.resource.org/cc/Distribution"/>
    <cc:requires rdf:resource="http://web.resource.org/cc/Notice"/>
    <cc:permits rdf:resource="http://web.resource.org/cc/DerivativeWorks"/>
    <cc:requires rdf:resource="http://web.resource.org/cc/ShareAlike"/>
    <cc:requires rdf:resource="http://web.resource.org/cc/SourceCode"/>
   </cc:License>
  </rdf:RDF>
 </metadata>
 <g id="layer1">
  <g id="g9924" transform="translate(0,-370)">
   <path id="path7722" style="opacity:.4;fill:url(#radialGradient14601)" d="m21.594 10.047a9.5469 9.5469 0 1 1 -19.094 0 9.5469 9.5469 0 1 1 19.094 0z" transform="matrix(1.6061 0 0 .80306 -3.3486 385.6)"/>
   <path id="path7724" style="stroke-linejoin:round;stroke:#2e3436;stroke-linecap:round;stroke-width:3;fill:none" d="m28.301 380.33c0.651 0 1.626-0.25 1.301-1s-2.602-1-2.602-1"/>
   <path id="path7726" style="stroke-linejoin:round;stroke:#d3d7cf;stroke-linecap:round;stroke-width:1px;fill:none" d="m28.333 380.33c0.667 0 1.667-0.28 1.334-1.14-0.334-0.87-2.667-1.15-2.667-1.15"/>
   <path id="path7728" style="stroke-linejoin:round;stroke:#2e3436;stroke-linecap:round;stroke-width:3;fill:none" d="m3.7329 380.33c-0.667 0-1.6667-0.25-1.3333-1 0.3333-0.75 2.6666-1 2.6666-1"/>
   <path id="path7730" style="stroke-linejoin:round;stroke:#d3d7cf;stroke-linecap:round;stroke-width:1px;fill:none" d="m3.7329 380.33c-0.667 0-1.6667-0.25-1.3333-1 0.3333-0.75 2.6666-1 2.6666-1"/>
   <path id="path7732" style="stroke:#c4a000;stroke-linecap:round;stroke-width:.70716;fill:url(#radialGradient14603)" d="m21.594 10.047a9.5469 9.5469 0 1 1 -19.094 0 9.5469 9.5469 0 1 1 19.094 0z" transform="matrix(1.4141 0 0 1.4141 -1.0359 370.79)"/>
   <path id="path7734" style="fill:url(#linearGradient14605);fill-rule:evenodd" d="m25.688-135.97a6.125 5.9688 0 1 1 -12.25 0 6.125 5.9688 0 1 1 12.25 0z" transform="matrix(1.4719 -.39439 .30354 1.1328 27.162 542.25)"/>
   <path id="path7738" style="opacity:.15;stroke-linejoin:round;stroke-dashoffset:.7;stroke:#000;stroke-linecap:square" d="m4.9792 380.33c-0.7265 0-1.9792 0.34-1.9792 1.98v0.69c0 2.33 2.5273 3.33 5.6667 3.33 3.1393 0 5.6663-0.97 5.6663-2.18v-1.77c0.351 0 0.645-0.28 0.667-0.63 0.016-0.01 0.005-0.01 0.063-0.02 0.196-0.05 0.58-0.06 0.937-0.06s0.741 0.01 0.938 0.06c0.057 0.01 0.046 0.01 0.062 0.02 0.022 0.35 0.316 0.63 0.667 0.63v1.77c0 1.21 2.527 2.18 5.666 2.18 3.14 0 5.667-1 5.667-3.33v-0.69c0-1.64-1.253-1.98-1.979-1.98-1.021 0-2.271 0.67-4.354 0.67h-3.021c-0.384 0-0.919 0.16-1.333 0.42-0.054-0.25-0.189-0.47-0.355-0.63-0.22-0.2-0.458-0.29-0.687-0.35-0.459-0.12-0.914-0.11-1.271-0.11s-0.812-0.01-1.271 0.11c-0.229 0.06-0.467 0.15-0.687 0.35-0.166 0.16-0.301 0.38-0.354 0.63-0.415-0.26-0.95-0.42-1.334-0.42h-3.0207c-2.0837 0-3.3333-0.67-4.3541-0.67z"/>
   <path id="path7736" style="stroke:url(#radialGradient14607);stroke-linecap:round;stroke-width:.76375;fill:none" d="m21.594 10.047a9.5469 9.5469 0 1 1 -19.094 0 9.5469 9.5469 0 1 1 19.094 0z" transform="matrix(1.3093 0 0 1.3093 .22665 371.85)"/>
   <g id="g7940" transform="matrix(1.037 0 0 1.0019 -.59259 369.8)">
    <path id="path7740" style="stroke-linejoin:round;stroke-dashoffset:.7;stroke:#000;stroke-linecap:square;stroke-width:.98104;fill:url(#linearGradient14609)" d="m12.354 10.333c0.728 0 1.979 0.585 1.979 1.313v1.833c0 1.215-2.527 2.188-5.6663 2.188-3.1394 0-5.6667-1-5.6667-3.334v-0.687c0-1.646 1.2527-1.9793 1.9792-1.9793 1.0208 0 2.2704 0.6663 4.3541 0.6663h3.0207z"/>
    <path id="path7742" style="opacity:.25;fill:url(#radialGradient14611)" d="m7.4688 16.25c-0.4313 0-1.0411 0.1-1.4688 0.406s-0.75 0.767-0.75 1.813v1.031c0 1.482 0.7239 2.432 2.0938 3.156 1.3698 0.725 3.3802 1.094 5.6562 1.094 2.278 0 4.333-0.36 5.75-0.906 0.709-0.274 1.265-0.605 1.594-0.906 0.329-0.302 0.406-0.521 0.406-0.719v-2.75c0-0.12-0.195-0.461-0.688-0.75-0.492-0.289-1.184-0.469-1.531-0.469h-4.531c-3.284 0-5.3231-1-6.5312-1z" transform="matrix(.66667 0 0 .66667 0 -.66667)"/>
    <path id="path7744" style="opacity:.15;stroke-linejoin:round;stroke-dashoffset:.7;stroke:url(#linearGradient14613);stroke-linecap:square;stroke-width:1.4716;fill:none" d="m7.4688 16c-0.3172 0-0.783 0.104-1.0313 0.281-0.2483 0.178-0.4375 0.331-0.4375 1.188v1.031c0 1.213 0.4852 1.864 1.6875 2.5s3.1165 1 5.3125 1c2.201 0 4.171-0.343 5.469-0.844 0.649-0.25 1.146-0.54 1.375-0.75 0.229-0.209 0.156-0.248 0.156-0.187v-2.75c0 0.308 0.035 0.097-0.344-0.125-0.378-0.222-0.978-0.344-1.125-0.344h-4.531c-3.443 0-5.648-1-6.5312-1z" transform="scale(.66667)"/>
    <path id="path7754" style="stroke-linejoin:round;stroke-dashoffset:.7;stroke:#000;stroke-linecap:square;stroke-width:.98104;fill:url(#linearGradient14615)" d="m19.646 10.333c-0.728 0-1.979 0.585-1.979 1.313v1.833c0 1.215 2.527 2.188 5.666 2.188 3.14 0 5.667-1 5.667-3.334v-0.687c0-1.646-1.253-1.9793-1.979-1.9793-1.021 0-2.271 0.6663-4.354 0.6663h-3.021z"/>
    <path id="path7756" style="opacity:.25;fill:url(#radialGradient14617)" d="m7.4688 16.25c-0.431 0-1.0416 0.101-1.4688 0.406-0.4272 0.306-0.75 0.767-0.75 1.813v1.031c0 1.481 0.7244 2.432 2.0938 3.156 1.3693 0.724 3.3812 1.094 5.6562 1.094 2.278 0 4.333-0.36 5.75-0.906 0.709-0.274 1.265-0.605 1.594-0.906 0.329-0.302 0.406-0.522 0.406-0.719v-2.75c0-0.119-0.195-0.461-0.688-0.75-0.492-0.289-1.185-0.469-1.531-0.469h-4.531c-3.284 0-5.324-1-6.5312-1z" transform="matrix(-.66667 0 0 .66667 32 -.66667)"/>
    <path id="path7758" style="opacity:.15;stroke-linejoin:round;stroke-dashoffset:.7;stroke:url(#linearGradient14619);stroke-linecap:square;stroke-width:1.4716;fill:none" d="m7.4688 15.969c-0.3217 0-0.7759 0.098-1.0313 0.281s-0.4687 0.355-0.4687 1.219v1.031c0 1.223 0.4786 1.892 1.6874 2.531 1.2089 0.64 3.1438 1 5.3438 1 2.204 0 4.197-0.341 5.5-0.843 0.651-0.252 1.111-0.537 1.344-0.75 0.233-0.214 0.187-0.27 0.187-0.219v-2.75c0 0.291 0.039 0.1-0.343-0.125-0.383-0.225-1.002-0.375-1.157-0.375h-4.531c-3.437 0-5.6353-1-6.5312-1z" transform="matrix(-.66667 0 0 .66667 32 0)"/>
   </g>
   <path id="path7746" style="stroke-linejoin:round;stroke:url(#linearGradient14621);stroke-linecap:round;stroke-width:3;fill:none" d="m3.7329 380.33c-0.667 0-1.6667-0.33-1.3333-1.33"/>
   <path id="path7748" style="stroke-linejoin:round;stroke:#d3d7cf;stroke-linecap:round;stroke-width:1px;fill:none" d="m3.7329 380.33c-0.667 0-1.6667-0.33-1.3333-1.33"/>
   <path id="path7750" style="stroke:url(#radialGradient14623);stroke-linecap:round;stroke-width:1.5;fill:none" d="m7.2667 387.88c-0.1588 1.5 0.6718 3.37 8.7333 3.37 8.061 0 8.732-1.86 8.732-3.37"/>
   <path id="path7752" style="stroke:#c4a000;stroke-linecap:round;stroke-width:1px;fill:none" d="m7.5526 387.57c0 1.84 0.6498 2.95 8.4474 2.95 7.797 0 8.447-1.11 8.447-2.95"/>
   <path id="path7760" style="stroke:#2e3436;stroke-linecap:round;stroke-width:3;fill:none" d="m14.333 381.17c0-0.67 0.953-0.67 1.667-0.67s1.667 0 1.667 0.67"/>
   <path id="path7762" style="stroke:#d3d7cf;stroke-linecap:round;fill:none" d="m14.333 381.17c0-0.67 0.953-0.67 1.667-0.67s1.667 0 1.667 0.67"/>
   <path id="path7764" style="stroke-linejoin:round;stroke:url(#linearGradient14625);stroke-linecap:round;stroke-width:3;fill:none" d="m28.333 380.33c0.667 0 1.667-0.33 1.334-1.33"/>
   <path id="path7766" style="stroke-linejoin:round;stroke:#d3d7cf;stroke-linecap:round;stroke-width:1px;fill:none" d="m28.333 380.33c0.667 0 1.667-0.33 1.334-1.33"/>
   <path id="path7768" style="fill:#fff" d="m22.5 16.5a0.5 0.5 0 1 1 -1 0 0.5 0.5 0 1 1 1 0z" transform="translate(-7.1667 363.83)"/>
   <path id="path7770" style="fill:#fff" d="m22.5 16.5a0.5 0.5 0 1 1 -1 0 0.5 0.5 0 1 1 1 0z" transform="translate(-19.5 363)"/>
   <path id="path7772" style="fill:#fff" d="m22.5 16.5a0.5 0.5 0 1 1 -1 0 0.5 0.5 0 1 1 1 0z" transform="translate(6.5 363.67)"/>
  </g>
 </g>
</svg>
