<?xml version="1.0" encoding="UTF-8" standalone="no"?>
<!-- Created with Inkscape (http://www.inkscape.org/) -->
<svg id="svg2" xmlns:rdf="http://www.w3.org/1999/02/22-rdf-syntax-ns#" xmlns="http://www.w3.org/2000/svg" height="32" width="32" version="1.0" xmlns:cc="http://creativecommons.org/ns#" xmlns:xlink="http://www.w3.org/1999/xlink" xmlns:dc="http://purl.org/dc/elements/1.1/">
 <defs id="defs4">
  <linearGradient id="linearGradient4140">
   <stop id="stop4142" style="stop-color:#fff" offset="0"/>
   <stop id="stop4144" style="stop-color:#fff;stop-opacity:0" offset="1"/>
  </linearGradient>
  <linearGradient id="linearGradient4148">
   <stop id="stop4150" offset="0"/>
   <stop id="stop4152" style="stop-opacity:0" offset="1"/>
  </linearGradient>
  <radialGradient id="radialGradient14219" gradientUnits="userSpaceOnUse" cy="10.047" cx="12.047" r="9.5469">
   <stop id="stop3736" offset="0"/>
   <stop id="stop3738" style="stop-opacity:0" offset="1"/>
  </radialGradient>
  <radialGradient id="radialGradient14221" gradientUnits="userSpaceOnUse" cy="7.8025" cx="9.3747" gradientTransform="matrix(1.2008 0 0 1.2008 -1.921 -1.5654)" r="10.049">
   <stop id="stop3754" style="stop-color:#fff" offset="0"/>
   <stop id="stop3756" style="stop-color:#fce94f" offset="0.8"/>
   <stop id="stop3758" style="stop-color:#edd400" offset="1"/>
  </radialGradient>
  <linearGradient id="linearGradient14223" y2="-134.39" gradientUnits="userSpaceOnUse" x2="19.236" y1="-140.43" x1="18.826">
   <stop id="stop8433" style="stop-color:#fff" offset="0"/>
   <stop id="stop8435" style="stop-color:#fff;stop-opacity:0" offset="1"/>
  </linearGradient>
  <radialGradient id="radialGradient14225" gradientUnits="userSpaceOnUse" cy="3.2659" cx="5.3851" gradientTransform="matrix(1.2424 0 0 1.2424 -1.2815 -.83942)" r="10.108">
   <stop id="stop3714" style="stop-color:#fff" offset="0"/>
   <stop id="stop3716" style="stop-color:#fff;stop-opacity:.50570" offset="1"/>
  </radialGradient>
  <linearGradient id="linearGradient7549">
   <stop id="stop7551" offset="0"/>
   <stop id="stop7553" style="stop-color:#888a85" offset="1"/>
  </linearGradient>
  <linearGradient id="linearGradient7638">
   <stop id="stop7640" style="stop-color:#729fcf" offset="0"/>
   <stop id="stop7642" style="stop-color:#729fcf;stop-opacity:0" offset="1"/>
  </linearGradient>
  <linearGradient id="linearGradient5934" y2="222.91" gradientUnits="userSpaceOnUse" x2="16.968" gradientTransform="matrix(1 0 0 .98686 0 2.9892)" y1="222.91" x1="4.9076">
   <stop id="stop3514" style="stop-color:#babdb6" offset="0"/>
   <stop id="stop3524" style="stop-color:#e9ebe7" offset=".1"/>
   <stop id="stop3520" style="stop-color:#fff" offset="0.35"/>
   <stop id="stop3522" style="stop-color:#e9ebe7" offset="0.9"/>
   <stop id="stop3516" style="stop-color:#babdb6" offset="1"/>
  </linearGradient>
  <linearGradient id="linearGradient5936" y2="182.56" xlink:href="#linearGradient4148" gradientUnits="userSpaceOnUse" x2="23.594" y1="177.88" x1="23.594"/>
  <linearGradient id="linearGradient5938" y2="181.63" xlink:href="#linearGradient4140" gradientUnits="userSpaceOnUse" x2="24.5" y1="177.88" x1="24.5"/>
  <linearGradient id="linearGradient6051" y2="13.375" gradientUnits="userSpaceOnUse" x2="44.312" gradientTransform="matrix(.66667 0 0 .66667 .0030850 -.98941)" y1="14.688" x1="43.781">
   <stop id="stop7521" style="stop-color:#2e3436" offset="0"/>
   <stop id="stop7523" style="stop-color:#2e3436;stop-opacity:0" offset="1"/>
  </linearGradient>
  <linearGradient id="linearGradient6057" y2="14.719" gradientUnits="userSpaceOnUse" x2="4.5497" gradientTransform="matrix(.66667 0 0 .66667 .0030850 -1.6561)" y1="15.219" x1="4.5497">
   <stop id="stop7622" style="stop-color:#2e3436" offset="0"/>
   <stop id="stop7624" style="stop-color:#2e3436;stop-opacity:0" offset="1"/>
  </linearGradient>
  <linearGradient id="linearGradient6097" y2="17.494" xlink:href="#linearGradient7549" gradientUnits="userSpaceOnUse" x2="-3.8114" gradientTransform="scale(.66667)" y1="19" x1="22"/>
  <radialGradient id="radialGradient6099" xlink:href="#linearGradient7638" gradientUnits="userSpaceOnUse" cy="21.949" cx="11.339" gradientTransform="matrix(1.4271 0 0 .71355 -7.226 2.2589)" r="8"/>
  <linearGradient id="linearGradient6101" y2="23.001" xlink:href="#linearGradient4140" gradientUnits="userSpaceOnUse" x2="12.312" y1="17.102" x1="12.312"/>
  <linearGradient id="linearGradient6103" y2="16" xlink:href="#linearGradient7549" gradientUnits="userSpaceOnUse" x2="19.25" gradientTransform="scale(.66667)" y1="20.125" x1="40.875"/>
  <radialGradient id="radialGradient6105" xlink:href="#linearGradient7638" gradientUnits="userSpaceOnUse" cy="20.834" cx="10.472" gradientTransform="matrix(-1.4271 0 0 .71355 33.226 2.2589)" r="8"/>
  <linearGradient id="linearGradient6107" y2="23.019" xlink:href="#linearGradient4140" gradientUnits="userSpaceOnUse" x2="15.936" y1="17.34" x1="15.936"/>
 </defs>
 <metadata id="metadata7">
  <rdf:RDF>
   <cc:Work rdf:about="">
    <dc:format>image/svg+xml</dc:format>
    <dc:type rdf:resource="http://purl.org/dc/dcmitype/StillImage"/>
    <dc:title>Emotes</dc:title>
    <dc:creator>
     <cc:Agent>
      <dc:title>Lapo Calamandrei</dc:title>
     </cc:Agent>
    </dc:creator>
    <cc:license rdf:resource="http://creativecommons.org/licenses/GPL/2.0/"/>
   </cc:Work>
   <cc:License rdf:about="http://creativecommons.org/licenses/GPL/2.0/">
    <cc:permits rdf:resource="http://web.resource.org/cc/Reproduction"/>
    <cc:permits rdf:resource="http://web.resource.org/cc/Distribution"/>
    <cc:requires rdf:resource="http://web.resource.org/cc/Notice"/>
    <cc:permits rdf:resource="http://web.resource.org/cc/DerivativeWorks"/>
    <cc:requires rdf:resource="http://web.resource.org/cc/ShareAlike"/>
    <cc:requires rdf:resource="http://web.resource.org/cc/SourceCode"/>
   </cc:License>
  </rdf:RDF>
 </metadata>
 <g id="layer1">
  <path id="path5747" style="stroke-linejoin:round;stroke:#2e3436;stroke-linecap:round;stroke-width:3;fill:none" d="m28.304 9.3439c0.651 0 1.626-0.25 1.301-1s-2.602-1-2.602-1"/>
  <path id="path5749" style="stroke-linejoin:round;stroke:#d3d7cf;stroke-linecap:round;stroke-width:1px;fill:none" d="m28.336 9.3439c0.667 0 1.667-0.287 1.334-1.1481-0.334-0.8611-2.667-1.1482-2.667-1.1482"/>
  <path id="path5751" style="stroke-linejoin:round;stroke:#2e3436;stroke-linecap:round;stroke-width:3;fill:none" d="m3.736 9.3439c-0.667 0-1.6667-0.25-1.3334-1 0.3334-0.75 2.6667-1 2.6667-1"/>
  <path id="path5753" style="stroke-linejoin:round;stroke:#d3d7cf;stroke-linecap:round;stroke-width:1px;fill:none" d="m3.736 9.3439c-0.667 0-1.6667-0.25-1.3334-1 0.3334-0.75 2.6667-1 2.6667-1"/>
  <g id="g9883" transform="translate(0,-300)">
   <g id="g7979" transform="translate(0,300)">
    <path id="path7962" style="opacity:.4;fill:url(#radialGradient14219)" d="m21.594 10.047a9.5469 9.5469 0 1 1 -19.094 0 9.5469 9.5469 0 1 1 19.094 0z" transform="matrix(1.6061 0 0 .80306 -3.3486 15.598)"/>
    <path id="path7970" style="stroke:#c4a000;stroke-linecap:round;stroke-width:.70716;fill:url(#radialGradient14221)" d="m21.594 10.047a9.5469 9.5469 0 1 1 -19.094 0 9.5469 9.5469 0 1 1 19.094 0z" transform="matrix(1.4141 0 0 1.4141 -1.0359 .79295)"/>
    <path id="path7975" style="fill:url(#linearGradient14223);fill-rule:evenodd" d="m25.688-135.97a6.125 5.9688 0 1 1 -12.25 0 6.125 5.9688 0 1 1 12.25 0z" transform="matrix(1.4719 -.39439 .30354 1.1328 27.162 172.25)"/>
    <path id="path7977" style="stroke:url(#radialGradient14225);stroke-linecap:round;stroke-width:.76375;fill:none" d="m21.594 10.047a9.5469 9.5469 0 1 1 -19.094 0 9.5469 9.5469 0 1 1 19.094 0z" transform="matrix(1.3093 0 0 1.3093 .22665 1.8453)"/>
   </g>
   <g id="g8464" transform="matrix(1 0 0 .89496 0 301.79)">
    <g id="g8112" transform="matrix(1.4022 0 0 1.494 .58096 -313.4)">
     <path id="path8114" style="stroke:#edd400;stroke-linecap:round;stroke-width:.73033;fill:url(#linearGradient5934)" d="m3.5312 221.58c-0.0129 0.16-0.0312 0.32-0.0312 0.49 0 1.98 1 5.43 7.5 5.43s7.5-3.45 7.5-5.43c0-0.17-0.018-0.33-0.031-0.49h-14.938z"/>
    </g>
    <g id="g8118" style="opacity:.76628" transform="matrix(.63767 0 0 .63647 .70283 -94.109)">
     <path id="path8120" style="opacity:0.06;stroke:url(#linearGradient5936);stroke-linecap:round;stroke-width:1.6593px;fill:none" d="m23.5 177.5v11"/>
     <path id="path8122" style="stroke:url(#linearGradient5938);stroke-linecap:square;stroke-width:1.6593px;fill:none" d="m24.5 177.5v11"/>
     <g id="g8124" style="opacity:.8;stroke-linecap:square" transform="translate(5)">
      <path id="path8126" style="opacity:0.06;stroke:url(#linearGradient5936);stroke-linecap:square;stroke-width:1.6593px;fill:none" d="m23.5 177.5v11"/>
      <path id="path8128" style="stroke:url(#linearGradient5938);stroke-linecap:square;stroke-width:1.6593px;fill:none" d="m24.5 177.5v11"/>
     </g>
     <g id="g8130" style="opacity:.8;stroke-linecap:square" transform="translate(-5)">
      <path id="path8132" style="opacity:0.06;stroke:url(#linearGradient5936);stroke-linecap:square;stroke-width:1.6593px;fill:none" d="m23.5 177.5v11"/>
      <path id="path8134" style="stroke:url(#linearGradient5938);stroke-linecap:square;stroke-width:1.6593px;fill:none" d="m24.5 177.5v11"/>
     </g>
     <g id="g8136" style="opacity:.7;stroke-linecap:square" transform="translate(-9)">
      <path id="path8138" style="opacity:0.06;stroke:url(#linearGradient5936);stroke-linecap:square;stroke-width:1.6593px;fill:none" d="m23.5 177.5v11"/>
      <path id="path8140" style="stroke:url(#linearGradient5938);stroke-linecap:square;stroke-width:1.6593px;fill:none" d="m24.5 177.5v11"/>
     </g>
     <g id="g8142" style="opacity:.7;stroke-linecap:square" transform="translate(9)">
      <path id="path8144" style="opacity:0.06;stroke:url(#linearGradient5936);stroke-linecap:square;stroke-width:1.6593px;fill:none" d="m23.5 177.5v11"/>
      <path id="path8146" style="stroke:url(#linearGradient5938);stroke-linecap:square;stroke-width:1.6593px;fill:none" d="m24.5 177.5v11"/>
     </g>
     <g id="g8148" style="opacity:.5;stroke-linecap:square" transform="translate(12)">
      <path id="path8150" style="opacity:0.06;stroke:url(#linearGradient5936);stroke-linecap:square;stroke-width:1.6593px;fill:none" d="m23.5 177.5v11"/>
      <path id="path8152" style="stroke:url(#linearGradient5938);stroke-linecap:square;stroke-width:1.6593px;fill:none" d="m24.5 177.5v11"/>
     </g>
     <g id="g8154" style="opacity:.5;stroke-linecap:square" transform="translate(-12)">
      <path id="path8156" style="opacity:0.06;stroke:url(#linearGradient5936);stroke-linecap:square;stroke-width:1.6593px;fill:none" d="m23.5 177.5v11"/>
      <path id="path8158" style="stroke:url(#linearGradient5938);stroke-linecap:square;stroke-width:1.6593px;fill:none" d="m24.5 177.5v11"/>
     </g>
    </g>
   </g>
  </g>
  <path id="path5755" style="opacity:.15;stroke-linejoin:round;stroke-dashoffset:.7;stroke:#000;stroke-linecap:square" d="m4.9823 9.3439c-0.7265 0-1.9792 0.3334-1.9792 1.9791v0.688c0 2.333 2.5273 3.333 5.6667 3.333 3.1392 0 5.6662-0.973 5.6662-2.188v-1.77c0.351 0 0.645-0.271 0.667-0.625 0.016-0.008 0.005-0.007 0.063-0.021 0.196-0.05 0.58-0.063 0.937-0.063s0.741 0.013 0.938 0.063c0.057 0.014 0.046 0.013 0.062 0.021 0.022 0.354 0.316 0.625 0.667 0.625v1.77c0 1.215 2.527 2.188 5.666 2.188 3.14 0 5.667-1 5.667-3.333v-0.688c0-1.6457-1.253-1.9791-1.979-1.9791-1.021 0-2.27 0.6671-4.354 0.6671h-3.021c-0.384 0-0.919 0.156-1.333 0.416-0.054-0.243-0.189-0.4704-0.355-0.6247-0.22-0.2058-0.458-0.2959-0.687-0.3542-0.459-0.1167-0.914-0.1042-1.271-0.1042s-0.812-0.0125-1.271 0.1042c-0.229 0.0583-0.467 0.1484-0.687 0.3542-0.166 0.1543-0.301 0.3817-0.354 0.6247-0.415-0.26-0.95-0.416-1.334-0.416h-3.0206c-2.0837 0-3.3333-0.6671-4.3541-0.6671z"/>
  <g id="g5757" transform="matrix(1.037 0 0 1.0019 -.58951 -1.1863)">
   <path id="path5759" style="stroke-linejoin:round;stroke-dashoffset:.7;stroke:#000;stroke-linecap:square;stroke-width:.98104;fill:url(#linearGradient6097)" d="m12.354 10.333c0.728 0 1.979 0.585 1.979 1.313v1.833c0 1.215-2.527 2.188-5.6663 2.188-3.1394 0-5.6667-1-5.6667-3.334v-0.687c0-1.646 1.2527-1.9793 1.9792-1.9793 1.0208 0 2.2704 0.6663 4.3541 0.6663h3.0207z"/>
   <path id="path5761" style="opacity:.25;fill:url(#radialGradient6099)" d="m7.4688 16.25c-0.4313 0-1.0411 0.1-1.4688 0.406s-0.75 0.767-0.75 1.813v1.031c0 1.482 0.7239 2.432 2.0938 3.156 1.3698 0.725 3.3802 1.094 5.6562 1.094 2.278 0 4.333-0.36 5.75-0.906 0.709-0.274 1.265-0.605 1.594-0.906 0.329-0.302 0.406-0.521 0.406-0.719v-2.75c0-0.12-0.195-0.461-0.688-0.75-0.492-0.289-1.184-0.469-1.531-0.469h-4.531c-3.284 0-5.3231-1-6.5312-1z" transform="matrix(.66667 0 0 .66667 0 -.66667)"/>
   <path id="path5763" style="opacity:.15;stroke-linejoin:round;stroke-dashoffset:.7;stroke:url(#linearGradient6101);stroke-linecap:square;stroke-width:1.4716;fill:none" d="m7.4688 16c-0.3172 0-0.783 0.104-1.0313 0.281-0.2483 0.178-0.4375 0.331-0.4375 1.188v1.031c0 1.213 0.4852 1.864 1.6875 2.5s3.1165 1 5.3125 1c2.201 0 4.171-0.343 5.469-0.844 0.649-0.25 1.146-0.54 1.375-0.75 0.229-0.209 0.156-0.248 0.156-0.187v-2.75c0 0.308 0.035 0.097-0.344-0.125-0.378-0.222-0.978-0.344-1.125-0.344h-4.531c-3.443 0-5.648-1-6.5312-1z" transform="scale(.66667)"/>
   <path id="path5765" style="stroke-linejoin:round;stroke-dashoffset:.7;stroke:#000;stroke-linecap:square;stroke-width:.98104;fill:url(#linearGradient6103)" d="m19.646 10.333c-0.728 0-1.979 0.585-1.979 1.313v1.833c0 1.215 2.527 2.188 5.666 2.188 3.14 0 5.667-1 5.667-3.334v-0.687c0-1.646-1.253-1.9793-1.979-1.9793-1.021 0-2.271 0.6663-4.354 0.6663h-3.021z"/>
   <path id="path5767" style="opacity:.25;fill:url(#radialGradient6105)" d="m7.4688 16.25c-0.431 0-1.0416 0.101-1.4688 0.406-0.4272 0.306-0.75 0.767-0.75 1.813v1.031c0 1.481 0.7244 2.432 2.0938 3.156 1.3693 0.724 3.3812 1.094 5.6562 1.094 2.278 0 4.333-0.36 5.75-0.906 0.709-0.274 1.265-0.605 1.594-0.906 0.329-0.302 0.406-0.522 0.406-0.719v-2.75c0-0.119-0.195-0.461-0.688-0.75-0.492-0.289-1.185-0.469-1.531-0.469h-4.531c-3.284 0-5.324-1-6.5312-1z" transform="matrix(-.66667 0 0 .66667 32 -.66667)"/>
   <path id="path5769" style="opacity:.15;stroke-linejoin:round;stroke-dashoffset:.7;stroke:url(#linearGradient6107);stroke-linecap:square;stroke-width:1.4716;fill:none" d="m7.4688 15.969c-0.3217 0-0.7759 0.098-1.0313 0.281s-0.4687 0.355-0.4687 1.219v1.031c0 1.223 0.4786 1.892 1.6874 2.531 1.2089 0.64 3.1438 1 5.3438 1 2.204 0 4.197-0.341 5.5-0.843 0.651-0.252 1.111-0.537 1.344-0.75 0.233-0.214 0.187-0.27 0.187-0.219v-2.75c0 0.291 0.039 0.1-0.343-0.125-0.383-0.225-1.002-0.375-1.157-0.375h-4.531c-3.437 0-5.6353-1-6.5312-1z" transform="matrix(-.66667 0 0 .66667 32 0)"/>
  </g>
  <path id="path5771" style="stroke-linejoin:round;stroke:url(#linearGradient6057);stroke-linecap:round;stroke-width:3;fill:none" d="m3.736 9.3439c-0.667 0-1.6667-0.3333-1.3334-1.3333"/>
  <path id="path5773" style="stroke-linejoin:round;stroke:#d3d7cf;stroke-linecap:round;stroke-width:1px;fill:none" d="m3.736 9.3439c-0.667 0-1.6667-0.3333-1.3334-1.3333"/>
  <path id="path5775" style="stroke:#2e3436;stroke-linecap:round;stroke-width:3;fill:none" d="m14.336 10.177c0-0.6664 0.953-0.6664 1.667-0.6664s1.667 0 1.667 0.6664"/>
  <path id="path5777" style="stroke:#d3d7cf;stroke-linecap:round;fill:none" d="m14.336 10.177c0-0.6664 0.953-0.6664 1.667-0.6664s1.667 0 1.667 0.6664"/>
  <path id="path5779" style="stroke-linejoin:round;stroke:url(#linearGradient6051);stroke-linecap:round;stroke-width:3;fill:none" d="m28.336 9.3439c0.667 0 1.667-0.3333 1.334-1.3333"/>
  <path id="path5781" style="stroke-linejoin:round;stroke:#d3d7cf;stroke-linecap:round;stroke-width:1px;fill:none" d="m28.336 9.3439c0.667 0 1.667-0.3333 1.334-1.3333"/>
  <path id="path5783" style="fill:#fff" d="m22.5 16.5a0.5 0.5 0 1 1 -1 0 0.5 0.5 0 1 1 1 0z" transform="translate(-7.1636 -7.1561)"/>
  <path id="path5785" style="fill:#fff" d="m22.5 16.5a0.5 0.5 0 1 1 -1 0 0.5 0.5 0 1 1 1 0z" transform="translate(-19.497 -7.9894)"/>
  <path id="path5787" style="fill:#fff" d="m22.5 16.5a0.5 0.5 0 1 1 -1 0 0.5 0.5 0 1 1 1 0z" transform="translate(6.5031 -7.3227)"/>
 </g>
</svg>
