<?xml version="1.0" encoding="UTF-8" standalone="no"?>
<!-- Created with Inkscape (http://www.inkscape.org/) -->
<svg id="svg2" xmlns:rdf="http://www.w3.org/1999/02/22-rdf-syntax-ns#" xmlns="http://www.w3.org/2000/svg" height="32" width="32" version="1.0" xmlns:cc="http://web.resource.org/cc/" xmlns:xlink="http://www.w3.org/1999/xlink" xmlns:dc="http://purl.org/dc/elements/1.1/">
 <defs id="defs4">
  <linearGradient id="linearGradient8035">
   <stop id="stop8037" offset="0"/>
   <stop id="stop8039" style="stop-opacity:0" offset="1"/>
  </linearGradient>
  <linearGradient id="linearGradient7988">
   <stop id="stop7990" style="stop-color:#fff" offset="0"/>
   <stop id="stop7992" style="stop-color:#fff;stop-opacity:0" offset="1"/>
  </linearGradient>
  <linearGradient id="linearGradient7856">
   <stop id="stop7858" style="stop-color:#729fcf" offset="0"/>
   <stop id="stop7860" style="stop-color:#729fcf;stop-opacity:0" offset="1"/>
  </linearGradient>
  <linearGradient id="linearGradient13908" y2="38.125" gradientUnits="userSpaceOnUse" x2="19.5" y1="46" x1="19.25">
   <stop id="stop7910" offset="0"/>
   <stop id="stop7912" style="stop-opacity:0" offset="1"/>
  </linearGradient>
  <radialGradient id="radialGradient13910" gradientUnits="userSpaceOnUse" cy="57.404" cx="9.9681" gradientTransform="matrix(2.4962 .059835 -.012136 .50631 -18.085 15.964)" r="22.98">
   <stop id="stop9246" style="stop-color:#fff;stop-opacity:0" offset="0"/>
   <stop id="stop9248" style="stop-color:#729fcf" offset="1"/>
  </radialGradient>
  <linearGradient id="linearGradient13912" y2="31.375" gradientUnits="userSpaceOnUse" x2="11.562" y1="44.062" x1="11.5">
   <stop id="stop7891" style="stop-color:#fff" offset="0"/>
   <stop id="stop7893" style="stop-color:#fff;stop-opacity:0" offset="1"/>
  </linearGradient>
  <linearGradient id="linearGradient13914" y2="44.25" gradientUnits="userSpaceOnUse" x2="23.594" y1="40.188" x1="23.281">
   <stop id="stop7888" style="stop-color:#edd400" offset="0"/>
   <stop id="stop7890" style="stop-color:#fce94f;stop-opacity:0" offset="1"/>
  </linearGradient>
  <linearGradient id="linearGradient13916" y2="-14.027" gradientUnits="userSpaceOnUse" x2="16.508" gradientTransform="matrix(2.1473 0 0 -2.1473 -1.8687 13.573)" y1="-12.744" x1="16.467">
   <stop id="stop6896" style="stop-color:#c4a000" offset="0"/>
   <stop id="stop6898" style="stop-color:#c4a000;stop-opacity:0" offset="1"/>
  </linearGradient>
  <linearGradient id="linearGradient13918" y2="-14.677" gradientUnits="userSpaceOnUse" x2="17.43" gradientTransform="matrix(2.0426 0 0 -2.0426 -.6064 12.521)" y1="-12.74" x1="17.26">
   <stop id="stop9308" style="stop-color:#fff" offset="0"/>
   <stop id="stop9310" style="stop-color:#fff;stop-opacity:0" offset="1"/>
  </linearGradient>
  <linearGradient id="linearGradient13920" y2="37.062" gradientUnits="userSpaceOnUse" x2="13.188" gradientTransform="matrix(.66662 0 0 .66667 .002335 250)" y1="43.401" x1="13.347">
   <stop id="stop7993" style="stop-color:#fff" offset="0"/>
   <stop id="stop7995" style="stop-color:#fff;stop-opacity:0" offset="1"/>
  </linearGradient>
  <radialGradient id="radialGradient13922" gradientUnits="userSpaceOnUse" cy="10.047" cx="12.047" r="9.5469">
   <stop id="stop3736" offset="0"/>
   <stop id="stop3738" style="stop-opacity:0" offset="1"/>
  </radialGradient>
  <radialGradient id="radialGradient13924" gradientUnits="userSpaceOnUse" cy="7.8025" cx="9.3747" gradientTransform="matrix(1.2008 0 0 1.2008 -1.921 -1.5654)" r="10.049">
   <stop id="stop3754" style="stop-color:#fff" offset="0"/>
   <stop id="stop3756" style="stop-color:#fce94f" offset="0.8"/>
   <stop id="stop3758" style="stop-color:#edd400" offset="1"/>
  </radialGradient>
  <linearGradient id="linearGradient13926" y2="-134.39" gradientUnits="userSpaceOnUse" x2="19.236" y1="-140.43" x1="18.826">
   <stop id="stop8433" style="stop-color:#fff" offset="0"/>
   <stop id="stop8435" style="stop-color:#fff;stop-opacity:0" offset="1"/>
  </linearGradient>
  <radialGradient id="radialGradient13928" gradientUnits="userSpaceOnUse" cy="3.2659" cx="5.3851" gradientTransform="matrix(1.2424 0 0 1.2424 -1.2815 -.83942)" r="10.108">
   <stop id="stop3714" style="stop-color:#fff" offset="0"/>
   <stop id="stop3716" style="stop-color:#fff;stop-opacity:.50570" offset="1"/>
  </radialGradient>
  <linearGradient id="linearGradient13930" y2="118.12" gradientUnits="userSpaceOnUse" x2="29.875" gradientTransform="matrix(.66662 0 0 .66667 .66895 180.67)" y1="120.94" x1="28.938">
   <stop id="stop8073" offset="0"/>
   <stop id="stop8075" style="stop-opacity:0" offset="1"/>
  </linearGradient>
  <linearGradient id="linearGradient13932" y2="-177.17" gradientUnits="userSpaceOnUse" x2="13.5" gradientTransform="matrix(.66662 0 0 -.66667 .00233 142.01)" y1="-181.48" x1="15.938">
   <stop id="stop8065" offset="0"/>
   <stop id="stop8067" style="stop-opacity:0" offset="1"/>
  </linearGradient>
  <linearGradient id="linearGradient13934" y2="-181.95" xlink:href="#linearGradient7856" gradientUnits="userSpaceOnUse" x2="19.499" gradientTransform="matrix(-.67999 0 0 -.66667 32.404 -108.66)" y1="-172.05" x1="15.24"/>
  <linearGradient id="linearGradient13936" y2="115.69" gradientUnits="userSpaceOnUse" x2="34.125" gradientTransform="matrix(.67999 0 0 .66667 .32737 -68.667)" y1="118.31" x1="34.438">
   <stop id="stop8260" style="stop-color:#729fcf" offset="0"/>
   <stop id="stop8262" style="stop-color:#729fcf;stop-opacity:0" offset="1"/>
  </linearGradient>
  <linearGradient id="linearGradient13938" y2="-181.95" xlink:href="#linearGradient7856" gradientUnits="userSpaceOnUse" x2="19.499" gradientTransform="matrix(.70259 0 0 -.66667 -.64143 -108.66)" y1="-172.05" x1="15.24"/>
  <linearGradient id="linearGradient13940" y2="115.69" gradientUnits="userSpaceOnUse" x2="11.688" gradientTransform="matrix(.70259 0 0 .66667 -.64143 -68.667)" y1="118.88" x1="12.25">
   <stop id="stop8268" style="stop-color:#729fcf" offset="0"/>
   <stop id="stop8271" style="stop-color:#729fcf;stop-opacity:0" offset="1"/>
  </linearGradient>
  <linearGradient id="linearGradient13942" y2="128.75" xlink:href="#linearGradient7856" gradientUnits="userSpaceOnUse" x2="10.125" y1="127" x1="10.125"/>
  <linearGradient id="linearGradient13950" y2="127.5" xlink:href="#linearGradient7988" gradientUnits="userSpaceOnUse" x2="9.75" y1="126.75" x1="9.75"/>
  <linearGradient id="linearGradient13952" y2="127.5" gradientUnits="userSpaceOnUse" x2="9.75" y1="126.25" x1="9.6667">
   <stop id="stop7980" style="stop-color:#fff" offset="0"/>
   <stop id="stop7982" style="stop-color:#fff;stop-opacity:0" offset="1"/>
  </linearGradient>
  <radialGradient id="radialGradient13958" gradientUnits="userSpaceOnUse" cy="33.075" cx="25.35" gradientTransform="matrix(2.0483 .022989 .0051553 -.21265 -26.972 141.42)" r="14.5">
   <stop id="stop3537" style="stop-color:#fff" offset="0"/>
   <stop id="stop3539" style="stop-color:#fff;stop-opacity:0" offset="1"/>
  </radialGradient>
  <linearGradient id="linearGradient13960" y2="127.49" xlink:href="#linearGradient8035" gradientUnits="userSpaceOnUse" x2="10.669" y1="129.13" x1="10.669"/>
 </defs>
 <metadata id="metadata7">
  <rdf:RDF>
   <cc:Work rdf:about="">
    <dc:format>image/svg+xml</dc:format>
    <dc:type rdf:resource="http://purl.org/dc/dcmitype/StillImage"/>
    <dc:title>Emotes</dc:title>
    <dc:creator>
     <cc:Agent>
      <dc:title>Lapo Calamandrei</dc:title>
     </cc:Agent>
    </dc:creator>
    <cc:license rdf:resource="http://creativecommons.org/licenses/GPL/2.0/"/>
   </cc:Work>
   <cc:License rdf:about="http://creativecommons.org/licenses/GPL/2.0/">
    <cc:permits rdf:resource="http://web.resource.org/cc/Reproduction"/>
    <cc:permits rdf:resource="http://web.resource.org/cc/Distribution"/>
    <cc:requires rdf:resource="http://web.resource.org/cc/Notice"/>
    <cc:permits rdf:resource="http://web.resource.org/cc/DerivativeWorks"/>
    <cc:requires rdf:resource="http://web.resource.org/cc/ShareAlike"/>
    <cc:requires rdf:resource="http://web.resource.org/cc/SourceCode"/>
   </cc:License>
  </rdf:RDF>
 </metadata>
 <g id="layer1">
  <g id="g9819" transform="translate(0,-250)">
   <g id="g8658" style="opacity:.9" transform="matrix(.66662 0 0 .66667 .002335 250)">
    <path id="path8660" style="opacity:.15;stroke-linejoin:round;stroke-dashoffset:0.7;stroke:url(#linearGradient13908);stroke-linecap:round;stroke-width:1.5001;fill:none" d="m16.5 35.5c-8.832 0-16.188 2.467-16 6 0.19932 3.817 7.168 6 16 6 5.52 0 10.924-1.404 15.281-3.058 2.542-0.964 4.469 1.27 8.094 1.27 5.52 0 7.17-4.027 3.937-5.135-2.409-0.826-1.167-2.423-8.312-2.308-1.312 0.021-2.571 0.098-3.719 0.289-2.876-1.842-9.761-3.058-15.281-3.058z"/>
    <g id="g8662" style="opacity:.8">
     <path id="path8664" style="opacity:1;stroke-linejoin:round;fill-rule:evenodd;stroke-dashoffset:0.7;stroke:#729fcf;stroke-linecap:round;stroke-width:1.5001;fill:url(#radialGradient13910)" d="m16.5 34.5c-8.832 0-16.188 2.467-16 6 0.19932 3.817 7.168 6 16 6 5.52 0 10.924-1.404 15.281-3.058 2.542-0.964 4.469 1.27 8.094 1.27 5.52 0 7.17-4.027 3.937-5.135-2.409-0.826-1.167-2.423-8.312-2.308-1.312 0.021-2.571 0.098-3.719 0.289-2.876-1.842-9.761-3.058-15.281-3.058z"/>
     <path id="path8666" style="stroke-linejoin:round;stroke-dashoffset:0.7;stroke:url(#linearGradient13912);stroke-linecap:round;stroke-width:1.5001;fill:none" d="m16.5 35.5c-4.323 0-8.2722 0.625-11.031 1.625-1.3798 0.5-2.4684 1.091-3.1252 1.687-0.6569 0.597-0.8721 1.092-0.8438 1.626 0.0344 0.658 0.3205 1.26 1 1.874 0.6795 0.615 1.7413 1.206 3.0938 1.688 2.7048 0.964 6.5722 1.5 10.906 1.5 5.351 0 10.66-1.377 14.938-3 1.587-0.603 3.027-0.171 4.312 0.281s2.518 0.938 4.125 0.938c2.517 0 3.965-0.961 4.406-1.688 0.221-0.363 0.213-0.593 0.125-0.812-0.087-0.219-0.298-0.511-0.906-0.719-0.719-0.246-1.252-0.583-1.625-0.875s-0.576-0.508-0.906-0.687c-0.661-0.36-1.937-0.713-5.438-0.657-1.287 0.021-2.523 0.072-3.593 0.25-0.237 0.043-0.482-0.001-0.688-0.125-1.219-0.78-3.608-1.571-6.312-2.094-2.705-0.522-5.751-0.812-8.438-0.812z"/>
    </g>
   </g>
   <g id="g8668" style="opacity:.7" transform="matrix(.66662 0 0 .66667 .002335 250)">
    <path id="path8670" style="stroke:url(#linearGradient13916);stroke-linecap:round;stroke-width:1.5001;fill:url(#linearGradient13914)" d="m24 36.5c-7.889 0-14.729 4.463-18.156 11h36.312c-3.427-6.537-10.267-11-18.156-11z"/>
    <path id="path8672" style="stroke:url(#linearGradient13918);stroke-linecap:round;stroke-width:1.5001;fill:none" d="m24 37.5c-7.311 0-13.693 4.041-17.031 10h34.062c-3.338-5.959-9.72-10-17.031-10z"/>
   </g>
   <path id="path8674" style="fill:url(#linearGradient13920);fill-rule:evenodd" d="m11.002 273.31c-0.239 0-0.474 0.02-0.709 0.02l-4.0411 6.98c0.9678 0.17 2.0228 0.28 3.1456 0.34l4.1665-7.21c-0.875-0.08-1.74-0.13-2.562-0.13zm-3.5002 0.21c-1.4155 0.18-2.692 0.45-3.7497 0.81l-2.354 4.09c0.0147 0.01 0.0264 0.02 0.0416 0.04 0.5018 0.45 1.236 0.88 2.1665 1.21 0.0923 0.03 0.1957 0.05 0.2917 0.08l3.6039-6.23zm16.165 1.65c-0.634 0.01-1.237 0.06-1.812 0.12l-2.25 3.9c0.511-0.17 1.003-0.34 1.479-0.52 0.75-0.29 1.43-0.18 2.104 0.02l2.021-3.5c-0.433-0.02-0.941-0.03-1.542-0.02z"/>
   <g id="g8490" transform="translate(0,249)">
    <path id="path8492" style="opacity:.4;fill:url(#radialGradient13922)" d="m21.594 10.047a9.5469 9.5469 0 1 1 -19.094 0 9.5469 9.5469 0 1 1 19.094 0z" transform="matrix(1.6061 0 0 .80306 -3.3486 15.598)"/>
    <path id="path8494" style="stroke:#c4a000;stroke-linecap:round;stroke-width:.70716;fill:url(#radialGradient13924)" d="m21.594 10.047a9.5469 9.5469 0 1 1 -19.094 0 9.5469 9.5469 0 1 1 19.094 0z" transform="matrix(1.4141 0 0 1.4141 -1.0359 .79295)"/>
    <path id="path8496" style="fill:url(#linearGradient13926);fill-rule:evenodd" d="m25.688-135.97a6.125 5.9688 0 1 1 -12.25 0 6.125 5.9688 0 1 1 12.25 0z" transform="matrix(1.4719 -.39439 .30354 1.1328 27.162 172.25)"/>
    <path id="path8498" style="stroke:url(#radialGradient13928);stroke-linecap:round;stroke-width:.76375;fill:none" d="m21.594 10.047a9.5469 9.5469 0 1 1 -19.094 0 9.5469 9.5469 0 1 1 19.094 0z" transform="matrix(1.3093 0 0 1.3093 .22665 1.8453)"/>
   </g>
   <path id="path8688" style="opacity:.1;stroke:url(#linearGradient13930);stroke-linecap:round;stroke-width:0.9;fill:none" d="m17.782 258.34c-0.113 1.81-0.144 6.33 0.151 6.3 1.229-0.14 1.099-4.82 1.719-4.87 0.642-0.04 1.034 1.58 1.921 1.63 1.517 0.07 1.336 1.19 1.515 3.68 0.209 2.9 1.257 2.65 1.267 2.26 0.017-0.66 0.089 0.95 0.048-6.24 0-2.1-2.147-1.48-2.621-2.09-1.308-0.86-2.639-1.61-4-0.67z"/>
   <g id="g9113" style="opacity:.1" transform="translate(0,251)">
    <path id="path9103" style="opacity:1;stroke-linejoin:round;stroke:#000;stroke-linecap:round;stroke-width:1.0116" d="m12 127.5a1.5 1.5 0 1 1 -3 0 1.5 1.5 0 1 1 3 0z" transform="matrix(.98186 0 0 .99524 -2.3312 -106.89)"/>
    <path id="path9105" style="opacity:1;stroke-linejoin:round;stroke:#000;stroke-linecap:round;stroke-width:1.5001" d="m12 127.5a1.5 1.5 0 1 1 -3 0 1.5 1.5 0 1 1 3 0z" transform="matrix(.66662 0 0 .66667 17.5 -67.5)"/>
    <path id="path9107" style="opacity:1;stroke-linejoin:round;stroke:#000;stroke-linecap:round;stroke-width:1.0075" d="m12 127.5a1.5 1.5 0 1 1 -3 0 1.5 1.5 0 1 1 3 0z" transform="matrix(.99408 0 0 .99111 8.5592 -111.41)"/>
    <path id="path9109" style="stroke-linejoin:round;stroke:#000;stroke-linecap:round;stroke-width:1.5001" d="m12 127.5a1.5 1.5 0 1 1 -3 0 1.5 1.5 0 1 1 3 0z" transform="matrix(.66662 0 0 .66667 6.5006 -72.5)"/>
    <path id="path9111" style="stroke-linejoin:round;stroke:#000;stroke-linecap:round;stroke-width:1.5001" d="m12 127.5a1.5 1.5 0 1 1 -3 0 1.5 1.5 0 1 1 3 0z" transform="matrix(.66662 0 0 .66667 6.5006 -68.5)"/>
   </g>
   <path id="path8690" style="opacity:.1;stroke:url(#linearGradient13932);stroke-linecap:round;stroke-width:0.9;fill:none" d="m14.335 258.34c0.113 1.81 0.144 3.66-0.151 3.63-1.229-0.14-1.099-2.82-1.719-2.86-0.642-0.05-1.034 2.24-1.921 2.29-1.5167 0.07-1.3363 2.52-1.5153 5.01-0.2083 2.9-1.2567 3.32-1.2667 2.93-0.0175-0.66-0.0892-1.05-0.0475-8.24 0-2.1 2.1462-1.48 2.6205-2.09 1.308-0.86 2.639-1.61 4-0.67z"/>
   <g id="g9120" style="opacity:.8" transform="translate(0,250)">
    <path id="path8692" style="fill-rule:evenodd;stroke:url(#linearGradient13936);stroke-linecap:round;stroke-width:0.9;fill:url(#linearGradient13934)" d="m17.784 7.6777c-0.116 1.8033-0.147 6.3243 0.154 6.2923 1.253-0.136 1.12-4.8194 1.753-4.8624 0.655-0.0443 1.055 1.5794 1.96 1.6224 1.547 0.073 1.363 1.194 1.545 3.682 0.213 2.897 1.282 2.648 1.292 2.265 0.018-0.667 0.091 1.608 0.049-5.58 0-2.096-2.189-2.1486-2.673-2.7526-1.335-0.8628-2.692-1.6103-4.08-0.6667z"/>
    <path id="path8694" style="fill-rule:evenodd;stroke:url(#linearGradient13940);stroke-linecap:round;stroke-width:0.9;fill:url(#linearGradient13938)" d="m14.464 7.6777c0.12 1.8033 0.152 3.6583-0.159 3.6253-1.295-0.135-1.158-2.8191-1.812-2.862-0.676-0.0444-1.089 2.246-2.024 2.289-1.5985 0.073-1.4084 3.194-1.597 5.682-0.2196 2.897-1.3245 3.315-1.3351 2.932-0.0184-0.667-0.094-1.059-0.0501-8.247 0-2.096 2.262-2.1486 2.7622-2.7526 1.378-0.8628 2.781-1.6103 4.215-0.6667z"/>
    <g id="g8714" transform="matrix(.73242 0 0 .74468 55.95 -80.907)">
     <path id="path8716" style="opacity:1;stroke-linejoin:round;stroke:#729fcf;stroke-linecap:round;stroke-width:1.0116;fill:url(#linearGradient13942)" d="m12 127.5a1.5 1.5 0 1 1 -3 0 1.5 1.5 0 1 1 3 0z" transform="matrix(1.3406 0 0 1.3365 -79.573 -34.895)"/>
     <path id="path8718" style="opacity:1;fill:#fff" d="m10.5 126.75a0.75 0.75 0 1 1 -1.5 0 0.75 0.75 0 1 1 1.5 0z" transform="matrix(1.3406 0 0 1.3365 -79.238 -34.561)"/>
    </g>
    <g id="g8720" transform="matrix(.66662 0 0 .66667 41.165 -67.167)">
     <path id="path8722" style="opacity:1;stroke-linejoin:round;stroke:#729fcf;stroke-linecap:round;stroke-width:1.5001;fill:url(#linearGradient13942)" d="m12 127.5a1.5 1.5 0 1 1 -3 0 1.5 1.5 0 1 1 3 0z" transform="translate(-35.5 -.5)"/>
     <path id="path8724" style="opacity:1;fill:#fff" d="m10.5 126.75a0.75 0.75 0 1 1 -1.5 0 0.75 0.75 0 1 1 1.5 0z" transform="translate(-35.25 -.25)"/>
    </g>
    <g id="g8730" transform="matrix(.74154 0 0 .74160 67.566 -85.536)">
     <path id="path8732" style="opacity:1;stroke-linejoin:round;stroke:#729fcf;stroke-linecap:round;stroke-width:1.0075;fill:url(#linearGradient13942)" d="m12 127.5a1.5 1.5 0 1 1 -3 0 1.5 1.5 0 1 1 3 0z" transform="matrix(1.3406 0 0 1.3365 -79.573 -34.895)"/>
     <path id="path8734" style="opacity:1;fill:#fff" d="m10.5 126.75a0.75 0.75 0 1 1 -1.5 0 0.75 0.75 0 1 1 1.5 0z" transform="matrix(1.3406 0 0 1.3365 -79.238 -34.561)"/>
    </g>
    <g id="g8756" transform="matrix(.66662 0 0 .66667 -.49890 0.5)">
     <path id="path8760" style="stroke-linejoin:round;stroke:#729fcf;stroke-linecap:round;stroke-width:1.5001;fill:url(#linearGradient13942)" d="m12 127.5a1.5 1.5 0 1 1 -3 0 1.5 1.5 0 1 1 3 0z" transform="translate(10.5,-103.5)"/>
     <path id="path8762" style="fill:#fff" d="m10.5 126.75a0.75 0.75 0 1 1 -1.5 0 0.75 0.75 0 1 1 1.5 0z" transform="translate(10.75,-103.25)"/>
    </g>
   </g>
   <g id="g8696" style="opacity:.5" transform="matrix(.66662 0 0 .66667 .00233 181.33)">
    <path id="path8698" style="stroke:#fff;stroke-linecap:round;stroke-width:1.9501;fill:none" d="m32.5 116.52c-1.962-1.3-2.959-2.42-5-1"/>
    <path id="path8700" style="stroke:#fff;stroke-linecap:round;stroke-width:1.9501;fill:none" d="m15.5 116.52c1.962-1.3 2.959-2.42 5-1"/>
   </g>
   <path id="path8702" style="fill:#fff" d="m10.5 126.75a0.75 0.75 0 1 1 -1.5 0 0.75 0.75 0 1 1 1.5 0z" transform="matrix(.99993 0 0 1 -.99760 133.83)"/>
   <path id="path8726" style="fill:url(#linearGradient13950)" d="m10.5 126.75a0.75 0.75 0 1 1 -1.5 0 0.75 0.75 0 1 1 1.5 0z" transform="matrix(.66662 0 0 .66667 12.001 174)"/>
   <path id="path8728" style="fill:url(#linearGradient13952)" d="m10.5 126.75a0.75 0.75 0 1 1 -1.5 0 0.75 0.75 0 1 1 1.5 0z" transform="matrix(.99993 0 0 1 13.001 133.17)"/>
   <path id="path8736" style="fill:url(#linearGradient13950)" d="m10.5 126.75a0.75 0.75 0 1 1 -1.5 0 0.75 0.75 0 1 1 1.5 0z" transform="matrix(.66662 0 0 .66667 6.6685 174)"/>
   <g id="g9093" transform="translate(-.50124 250.5)">
    <path id="path8738" style="stroke-linejoin:round;stroke:#729fcf;stroke-linecap:round;stroke-width:1.5001;fill:url(#linearGradient13942)" d="m12 127.5a1.5 1.5 0 1 1 -3 0 1.5 1.5 0 1 1 3 0z" transform="matrix(.66662 0 0 .66667 7.0018 -73)"/>
    <path id="path8740" style="fill:#fff" d="m10.5 126.75a0.75 0.75 0 1 1 -1.5 0 0.75 0.75 0 1 1 1.5 0z" transform="matrix(.66662 0 0 .66667 7.1685 -72.833)"/>
   </g>
   <g id="g8742" transform="matrix(.34018 0 0 0.5 7.837 205.62)">
    <path id="path8744" style="stroke:url(#radialGradient13958);stroke-linecap:round;stroke-width:3.6371;fill:none" d="m13.25 138.75c0-1.17 0.827-4 10.75-4s10.75 2.83 10.75 4"/>
    <path id="path8746" style="stroke:#c4a000;stroke-linecap:round;stroke-width:2.4247px;fill:none" d="m13.5 136.5c0-1 0.807-3 10.5-3 9.692 0 10.5 2 10.5 3"/>
   </g>
   <path id="path8748" style="stroke:#fff;stroke-linecap:round;stroke-width:1.3;fill:none" d="m21.667 257.68c-1.308-0.87-2.639-1.61-3.999-0.67"/>
   <path id="path8750" style="stroke:#fff;stroke-linecap:round;stroke-width:1.3;fill:none" d="m10.335 257.68c1.308-0.87 2.639-1.61 4-0.67"/>
   <path id="path8752" style="stroke:#555753;stroke-linecap:round;stroke-width:1.3;fill:none" d="m21.667 258.34c-1.308-0.86-2.639-1.61-3.999-0.66"/>
   <path id="path8754" style="stroke:#555753;stroke-linecap:round;stroke-width:1.3;fill:none" d="m10.335 258.34c1.308-0.86 2.639-1.61 4-0.66"/>
   <g id="g8766" transform="matrix(.66662 0 0 .66667 10.501 186.83)">
    <path id="path8768" style="opacity:.2;stroke-linejoin:round;stroke:url(#linearGradient13960);stroke-linecap:round;stroke-width:1.5001;fill:none" d="m12 127.5a1.5 1.5 0 1 1 -3 0 1.5 1.5 0 1 1 3 0z" transform="translate(10.5 .5)"/>
    <path id="path8770" style="stroke-linejoin:round;stroke:#729fcf;stroke-linecap:round;stroke-width:1.5001;fill:url(#linearGradient13942)" d="m12 127.5a1.5 1.5 0 1 1 -3 0 1.5 1.5 0 1 1 3 0z" transform="translate(10.5 -.5)"/>
    <path id="path8772" style="fill:#fff" d="m10.5 126.75a0.75 0.75 0 1 1 -1.5 0 0.75 0.75 0 1 1 1.5 0z" transform="translate(10.75 -.25)"/>
   </g>
   <g id="g8774" transform="matrix(.66662 0 0 .66667 -5.3306 190)">
    <path id="path8776" style="opacity:.2;stroke-linejoin:round;stroke:url(#linearGradient13960);stroke-linecap:round;stroke-width:1.5001;fill:none" d="m12 127.5a1.5 1.5 0 1 1 -3 0 1.5 1.5 0 1 1 3 0z" transform="translate(10.5 .5)"/>
    <path id="path8778" style="stroke-linejoin:round;stroke:#729fcf;stroke-linecap:round;stroke-width:1.5001;fill:url(#linearGradient13942)" d="m12 127.5a1.5 1.5 0 1 1 -3 0 1.5 1.5 0 1 1 3 0z" transform="translate(10.5 -.5)"/>
    <path id="path8780" style="fill:#fff" d="m10.5 126.75a0.75 0.75 0 1 1 -1.5 0 0.75 0.75 0 1 1 1.5 0z" transform="translate(10.75 -.25)"/>
   </g>
  </g>
 </g>
</svg>
