<?xml version="1.0" encoding="UTF-8" standalone="no"?>
<!-- Created with Inkscape (http://www.inkscape.org/) -->
<svg id="svg2" xmlns:rdf="http://www.w3.org/1999/02/22-rdf-syntax-ns#" xmlns="http://www.w3.org/2000/svg" height="32" width="32" version="1.0" xmlns:cc="http://creativecommons.org/ns#" xmlns:xlink="http://www.w3.org/1999/xlink" xmlns:dc="http://purl.org/dc/elements/1.1/">
 <defs id="defs4">
  <linearGradient id="linearGradient7810">
   <stop id="stop7812" style="stop-color:#fff" offset="0"/>
   <stop id="stop7814" style="stop-color:#fff;stop-opacity:0" offset="1"/>
  </linearGradient>
  <linearGradient id="linearGradient7776">
   <stop id="stop7778" style="stop-color:#2e3436" offset="0"/>
   <stop id="stop7780" offset="1"/>
  </linearGradient>
  <radialGradient id="radialGradient12559" gradientUnits="userSpaceOnUse" cy="10.047" cx="12.047" r="9.5469">
   <stop id="stop3736" offset="0"/>
   <stop id="stop3738" style="stop-opacity:0" offset="1"/>
  </radialGradient>
  <radialGradient id="radialGradient12561" gradientUnits="userSpaceOnUse" cy="7.8025" cx="9.3747" gradientTransform="matrix(1.2008 0 0 1.2008 -1.921 -1.5654)" r="10.049">
   <stop id="stop3754" style="stop-color:#fff" offset="0"/>
   <stop id="stop3756" style="stop-color:#fce94f" offset="0.8"/>
   <stop id="stop3758" style="stop-color:#edd400" offset="1"/>
  </radialGradient>
  <linearGradient id="linearGradient12563" y2="-134.39" gradientUnits="userSpaceOnUse" x2="19.236" y1="-140.43" x1="18.826">
   <stop id="stop8433" style="stop-color:#fff" offset="0"/>
   <stop id="stop8435" style="stop-color:#fff;stop-opacity:0" offset="1"/>
  </linearGradient>
  <radialGradient id="radialGradient12565" gradientUnits="userSpaceOnUse" cy="3.2659" cx="5.3851" gradientTransform="matrix(1.2424 0 0 1.2424 -1.2815 -.83942)" r="10.108">
   <stop id="stop3714" style="stop-color:#fff" offset="0"/>
   <stop id="stop3716" style="stop-color:#fff;stop-opacity:.50570" offset="1"/>
  </radialGradient>
  <radialGradient id="radialGradient12567" gradientUnits="userSpaceOnUse" cy="33.075" cx="25.35" gradientTransform="matrix(.78037 0 0 .44450 -2.8676 108.77)" r="14.5">
   <stop id="stop3537" style="stop-color:#fff" offset="0"/>
   <stop id="stop3539" style="stop-color:#fff;stop-opacity:0" offset="1"/>
  </radialGradient>
  <radialGradient id="radialGradient12569" xlink:href="#linearGradient7776" gradientUnits="userSpaceOnUse" cy="-133.19" cx="28.221" gradientTransform="matrix(1.6369 0 0 1.6258 -18.115 82.989)" r="3.2188"/>
  <linearGradient id="linearGradient12571" y2="-127.34" xlink:href="#linearGradient7810" gradientUnits="userSpaceOnUse" x2="30.316" y1="-135.66" x1="28.622"/>
  <linearGradient id="linearGradient7638">
   <stop id="stop7640" style="stop-color:#729fcf" offset="0"/>
   <stop id="stop7642" style="stop-color:#729fcf;stop-opacity:0" offset="1"/>
  </linearGradient>
  <linearGradient id="linearGradient7549">
   <stop id="stop7551" offset="0"/>
   <stop id="stop7553" style="stop-color:#888a85" offset="1"/>
  </linearGradient>
  <linearGradient id="linearGradient5822" y2="17.494" xlink:href="#linearGradient7549" gradientUnits="userSpaceOnUse" x2="-3.8114" gradientTransform="scale(.66667)" y1="19" x1="22"/>
  <radialGradient id="radialGradient5824" xlink:href="#linearGradient7638" gradientUnits="userSpaceOnUse" cy="21.949" cx="11.339" gradientTransform="matrix(1.4271 0 0 .71355 -7.226 2.2589)" r="8"/>
  <linearGradient id="linearGradient5826" y2="23.001" xlink:href="#linearGradient7810" gradientUnits="userSpaceOnUse" x2="12.312" y1="17.102" x1="12.312"/>
  <linearGradient id="linearGradient5828" y2="16" xlink:href="#linearGradient7549" gradientUnits="userSpaceOnUse" x2="19.25" gradientTransform="scale(.66667)" y1="20.125" x1="40.875"/>
  <radialGradient id="radialGradient5830" xlink:href="#linearGradient7638" gradientUnits="userSpaceOnUse" cy="20.834" cx="10.472" gradientTransform="matrix(-1.4271 0 0 .71355 33.226 2.2589)" r="8"/>
  <linearGradient id="linearGradient5832" y2="23.019" xlink:href="#linearGradient7810" gradientUnits="userSpaceOnUse" x2="15.936" y1="17.34" x1="15.936"/>
  <linearGradient id="linearGradient5834" y2="14.719" gradientUnits="userSpaceOnUse" x2="4.5497" gradientTransform="matrix(.66667 0 0 -.66667 .037035 15.29)" y1="15.219" x1="4.5497">
   <stop id="stop7622" style="stop-color:#2e3436" offset="0"/>
   <stop id="stop7624" style="stop-color:#2e3436;stop-opacity:0" offset="1"/>
  </linearGradient>
  <linearGradient id="linearGradient5836" y2="13.375" gradientUnits="userSpaceOnUse" x2="44.312" gradientTransform="matrix(.66667 0 0 -.66667 .037035 14.623)" y1="14.688" x1="43.781">
   <stop id="stop7521" style="stop-color:#2e3436" offset="0"/>
   <stop id="stop7523" style="stop-color:#2e3436;stop-opacity:0" offset="1"/>
  </linearGradient>
 </defs>
 <metadata id="metadata7">
  <rdf:RDF>
   <cc:Work rdf:about="">
    <dc:format>image/svg+xml</dc:format>
    <dc:type rdf:resource="http://purl.org/dc/dcmitype/StillImage"/>
    <dc:title>Emotes</dc:title>
    <dc:creator>
     <cc:Agent>
      <dc:title>Lapo Calamandrei</dc:title>
     </cc:Agent>
    </dc:creator>
    <cc:license rdf:resource="http://creativecommons.org/licenses/GPL/2.0/"/>
   </cc:Work>
   <cc:License rdf:about="http://creativecommons.org/licenses/GPL/2.0/">
    <cc:permits rdf:resource="http://web.resource.org/cc/Reproduction"/>
    <cc:permits rdf:resource="http://web.resource.org/cc/Distribution"/>
    <cc:requires rdf:resource="http://web.resource.org/cc/Notice"/>
    <cc:permits rdf:resource="http://web.resource.org/cc/DerivativeWorks"/>
    <cc:requires rdf:resource="http://web.resource.org/cc/ShareAlike"/>
    <cc:requires rdf:resource="http://web.resource.org/cc/SourceCode"/>
   </cc:License>
  </rdf:RDF>
 </metadata>
 <g id="layer1">
  <g id="g9787" transform="translate(0,-100)">
   <g id="g9378" transform="translate(0,100)">
    <path id="path9380" style="opacity:.4;fill:url(#radialGradient12559)" d="m21.594 10.047a9.5469 9.5469 0 1 1 -19.094 0 9.5469 9.5469 0 1 1 19.094 0z" transform="matrix(1.6061 0 0 .80306 -3.3486 15.598)"/>
    <path id="path9382" style="stroke:#c4a000;stroke-linecap:round;stroke-width:.70716;fill:url(#radialGradient12561)" d="m21.594 10.047a9.5469 9.5469 0 1 1 -19.094 0 9.5469 9.5469 0 1 1 19.094 0z" transform="matrix(1.4141 0 0 1.4141 -1.0359 .79295)"/>
    <path id="path9384" style="fill:url(#linearGradient12563);fill-rule:evenodd" d="m25.688-135.97a6.125 5.9688 0 1 1 -12.25 0 6.125 5.9688 0 1 1 12.25 0z" transform="matrix(1.4719 -.39439 .30354 1.1328 27.162 172.25)"/>
    <path id="path9386" style="stroke:url(#radialGradient12565);stroke-linecap:round;stroke-width:.76375;fill:none" d="m21.594 10.047a9.5469 9.5469 0 1 1 -19.094 0 9.5469 9.5469 0 1 1 19.094 0z" transform="matrix(1.3093 0 0 1.3093 .22665 1.8453)"/>
   </g>
   <path id="path9406" style="stroke:url(#radialGradient12567);stroke-linecap:round;stroke-width:1.5;fill:none" d="m7.25 118.5c0 1.53 0.6731 5.25 8.75 5.25 8.077 0 8.75-3.72 8.75-5.25"/>
   <path id="path9408" style="stroke:#c4a000;stroke-linecap:round;stroke-width:1px;fill:none" d="m7.4997 118.33c0 1.39 0.6539 4.17 8.5003 4.17 7.846 0 8.5-2.78 8.5-4.17"/>
   <g id="g9617" transform="translate(0,50)">
    <g id="g9547" transform="matrix(0.9 0 0 1.125 1.4 48.5)">
     <path id="path9549" style="fill:url(#radialGradient12569);fill-rule:evenodd" d="m32.688-131.5a3.2188 4.25 0 1 1 -6.438 0 3.2188 4.25 0 1 1 6.438 0z" transform="matrix(.51780 0 0 .62745 3.7411 94.51)"/>
     <path id="path9551" style="opacity:.5;fill:url(#linearGradient12571);fill-rule:evenodd" d="m32.688-131.5a3.2188 4.25 0 1 1 -6.438 0 3.2188 4.25 0 1 1 6.438 0z" transform="matrix(.16056 .040629 -.032722 .29272 9.5134 48.514)"/>
    </g>
    <g id="g9553" transform="matrix(0.9 0 0 1.125 -3.6 48.5)">
     <path id="path9555" style="fill-rule:evenodd;fill:url(#radialGradient12569)" d="m32.688-131.5a3.2188 4.25 0 1 1 -6.438 0 3.2188 4.25 0 1 1 6.438 0z" transform="matrix(.51780 0 0 .62745 3.7411 94.51)"/>
     <path id="path9557" style="opacity:.5;fill-rule:evenodd;fill:url(#linearGradient12571)" d="m32.688-131.5a3.2188 4.25 0 1 1 -6.438 0 3.2188 4.25 0 1 1 6.438 0z" transform="matrix(.16056 .040629 -.032722 .29272 9.5134 48.514)"/>
    </g>
   </g>
  </g>
  <path id="path5780" style="stroke-linejoin:round;stroke:#2e3436;stroke-linecap:round;stroke-width:3;fill:none" d="m28.338 5.2898c0.651 0 1.626 0.25 1.301 1s-2.602 1-2.602 1"/>
  <path id="path5782" style="stroke-linejoin:round;stroke:#d3d7cf;stroke-linecap:round;stroke-width:1px;fill:none" d="m28.37 4.2898c0.667 0 1.667 0.287 1.334 1.1481-0.334 0.8612-2.667 1.1482-2.667 1.1482"/>
  <path id="path5784" style="stroke-linejoin:round;stroke:#2e3436;stroke-linecap:round;stroke-width:3;fill:none" d="m3.7699 4.2898c-0.667 0-1.6666 0.25-1.3333 1s2.6667 1 2.6667 1"/>
  <path id="path5786" style="stroke-linejoin:round;stroke:#d3d7cf;stroke-linecap:round;stroke-width:1px;fill:none" d="m3.7699 4.2898c-0.667 0-1.6666 0.25-1.3333 1s2.6667 1 2.6667 1"/>
  <path id="path5788" style="opacity:.15;stroke-linejoin:round;stroke-dashoffset:.7;stroke:#000;stroke-linecap:square" d="m5.0162 3.2898c-0.7264 0-1.9792 1.3333-1.9792 2.9792v0.6875c0 2.3333 2.5274 1.3333 5.6667 1.3333s5.6663 0.0271 5.6663-1.1875v-1.7708c0.351 0.0005 0.645-0.2707 0.667-0.625 0.016-0.0081 0.005-0.0062 0.063-0.0209 0.196-0.0499 0.58-0.0625 0.937-0.0625s0.741 0.0126 0.938 0.0625c0.057 0.0147 0.046 0.0128 0.062 0.0209 0.022 0.3543 0.316 0.6255 0.667 0.625v1.7708c0 1.2146 2.527 1.1875 5.666 1.1875 3.14 0 5.667 1 5.667-1.3333v0.3125c0-1.6459-1.253-3.9792-1.979-3.9792-1.021 0-2.271 0.6667-4.354 0.6667h-3.021c-0.384 0-0.919 0.1561-1.333 0.4166-0.054-0.2436-0.189-0.4706-0.355-0.625-0.22-0.2058-0.458-0.2958-0.687-0.3541-0.459-0.1167-0.914-0.1042-1.271-0.1042s-0.812-0.0125-1.271 0.1042c-0.229 0.0583-0.467 0.1483-0.687 0.3541-0.166 0.1544-0.301 0.3814-0.354 0.625-0.415-0.2605-0.95-0.4166-1.334-0.4166h-3.0206c-2.0838 0-3.3334-0.6667-4.3542-0.6667z"/>
  <g id="g5790" transform="matrix(1.037 0 0 -1.0019 -.55556 18.142)">
   <path id="path5792" style="stroke-linejoin:round;stroke-dashoffset:.7;stroke:#000;stroke-linecap:square;stroke-width:.98104;fill:url(#linearGradient5822)" d="m12.354 10.333c0.728 0 1.979 0.585 1.979 1.313v1.833c0 1.215-2.527 2.188-5.6663 2.188-3.1394 0-5.6667-1-5.6667-3.334v-0.687c0-1.646 1.2527-1.9793 1.9792-1.9793 1.0208 0 2.2704 0.6663 4.3541 0.6663h3.0207z"/>
   <path id="path5794" style="opacity:.25;fill:url(#radialGradient5824)" d="m7.4688 16.25c-0.4313 0-1.0411 0.1-1.4688 0.406s-0.75 0.767-0.75 1.813v1.031c0 1.482 0.7239 2.432 2.0938 3.156 1.3698 0.725 3.3802 1.094 5.6562 1.094 2.278 0 4.333-0.36 5.75-0.906 0.709-0.274 1.265-0.605 1.594-0.906 0.329-0.302 0.406-0.521 0.406-0.719v-2.75c0-0.12-0.195-0.461-0.688-0.75-0.492-0.289-1.184-0.469-1.531-0.469h-4.531c-3.284 0-5.3231-1-6.5312-1z" transform="matrix(.66667 0 0 .66667 0 -.66667)"/>
   <path id="path5796" style="opacity:.15;stroke-linejoin:round;stroke-dashoffset:.7;stroke:url(#linearGradient5826);stroke-linecap:square;stroke-width:1.4716;fill:none" d="m7.4688 16c-0.3172 0-0.783 0.104-1.0313 0.281-0.2483 0.178-0.4375 0.331-0.4375 1.188v1.031c0 1.213 0.4852 1.864 1.6875 2.5s3.1165 1 5.3125 1c2.201 0 4.171-0.343 5.469-0.844 0.649-0.25 1.146-0.54 1.375-0.75 0.229-0.209 0.156-0.248 0.156-0.187v-2.75c0 0.308 0.035 0.097-0.344-0.125-0.378-0.222-0.978-0.344-1.125-0.344h-4.531c-3.443 0-5.648-1-6.5312-1z" transform="scale(.66667)"/>
   <path id="path5798" style="stroke-linejoin:round;stroke-dashoffset:.7;stroke:#000;stroke-linecap:square;stroke-width:.98104;fill:url(#linearGradient5828)" d="m19.646 10.333c-0.728 0-1.979 0.585-1.979 1.313v1.833c0 1.215 2.527 2.188 5.666 2.188 3.14 0 5.667-1 5.667-3.334v-0.687c0-1.646-1.253-1.9793-1.979-1.9793-1.021 0-2.271 0.6663-4.354 0.6663h-3.021z"/>
   <path id="path5800" style="opacity:.25;fill:url(#radialGradient5830)" d="m7.4688 16.25c-0.431 0-1.0416 0.101-1.4688 0.406-0.4272 0.306-0.75 0.767-0.75 1.813v1.031c0 1.481 0.7244 2.432 2.0938 3.156 1.3693 0.724 3.3812 1.094 5.6562 1.094 2.278 0 4.333-0.36 5.75-0.906 0.709-0.274 1.265-0.605 1.594-0.906 0.329-0.302 0.406-0.522 0.406-0.719v-2.75c0-0.119-0.195-0.461-0.688-0.75-0.492-0.289-1.185-0.469-1.531-0.469h-4.531c-3.284 0-5.324-1-6.5312-1z" transform="matrix(-.66667 0 0 .66667 32 -.66667)"/>
   <path id="path5802" style="opacity:.15;stroke-linejoin:round;stroke-dashoffset:.7;stroke:url(#linearGradient5832);stroke-linecap:square;stroke-width:1.4716;fill:none" d="m7.4688 15.969c-0.3217 0-0.7759 0.098-1.0313 0.281s-0.4687 0.355-0.4687 1.219v1.031c0 1.223 0.4786 1.892 1.6874 2.531 1.2089 0.64 3.1438 1 5.3438 1 2.204 0 4.197-0.341 5.5-0.843 0.651-0.252 1.111-0.537 1.344-0.75 0.233-0.214 0.187-0.27 0.187-0.219v-2.75c0 0.291 0.039 0.1-0.343-0.125-0.383-0.225-1.002-0.375-1.157-0.375h-4.531c-3.437 0-5.6353-1-6.5312-1z" transform="matrix(-.66667 0 0 .66667 32 0)"/>
  </g>
  <path id="path5804" style="stroke-linejoin:round;stroke:url(#linearGradient5834);stroke-linecap:round;stroke-width:3;fill:none" d="m3.7699 4.2898c-0.667 0-1.6666 0.3333-1.3333 1.3333"/>
  <path id="path5806" style="stroke-linejoin:round;stroke:#d3d7cf;stroke-linecap:round;stroke-width:1px;fill:none" d="m3.7699 4.2898c-0.667 0-1.6666 0.3333-1.3333 1.3333"/>
  <path id="path5808" style="stroke:#2e3436;stroke-linecap:round;stroke-width:3;fill:none" d="m14.37 4.1231c0-0.6666 0.953-0.6666 1.667-0.6666s1.667 0 1.667 0.6666"/>
  <path id="path5810" style="stroke:#d3d7cf;stroke-linecap:round;fill:none" d="m14.37 4.1231c0-0.6666 0.953-0.6666 1.667-0.6666s1.667 0 1.667 0.6666"/>
  <path id="path5812" style="stroke-linejoin:round;stroke:url(#linearGradient5836);stroke-linecap:round;stroke-width:3;fill:none" d="m28.37 4.2898c0.667 0 1.667 0.3333 1.334 1.3333"/>
  <path id="path5814" style="stroke-linejoin:round;stroke:#d3d7cf;stroke-linecap:round;stroke-width:1px;fill:none" d="m28.37 4.2898c0.667 0 1.667 0.3333 1.334 1.3333"/>
  <path id="path5816" style="fill:#fff" d="m22.5 16.5a0.5 0.5 0 1 1 -1 0 0.5 0.5 0 1 1 1 0z" transform="translate(-7.1296 -13.21)"/>
  <path id="path5818" style="fill:#fff" d="m22.5 16.5a0.5 0.5 0 1 1 -1 0 0.5 0.5 0 1 1 1 0z" transform="matrix(1 0 0 -1 -19.463 21.623)"/>
  <path id="path5820" style="fill:#fff" d="m22.5 16.5a0.5 0.5 0 1 1 -1 0 0.5 0.5 0 1 1 1 0z" transform="matrix(1 0 0 -1 6.537 20.956)"/>
 </g>
</svg>
