<?xml version="1.0" encoding="UTF-8" standalone="no"?>
<!DOCTYPE svg  PUBLIC '-//W3C//DTD SVG 1.1//EN'  'http://www.w3.org/Graphics/SVG/1.1/DTD/svg11.dtd'>
<svg width="161" xmlns="http://www.w3.org/2000/svg" version="1.1" height="161">
 <rect height="8" width="36.67" stroke="#000" y="19" x="102.67" stroke-width="3" fill="#777"/>
 <rect height="8" width="42.31" stroke="#000" y="60" x="98.67" stroke-width="3" fill="#777"/>
 <rect height="8" width="50.9" stroke="#000" y="99" x="94.67" stroke-width="3" fill="#777"/>
 <polygon points="151.64 126.87 144.6 126.87 132.03 27.19 139.07 27.19" fill="#404040"/>
 <polygon points="148.1 127.17 144.6 126.87 132.03 27.19 135.53 27.48" fill="#777"/>
 <polygon stroke="#000" stroke-width="3" points="151.64 126.87 144.6 126.87 132.03 27.19 139.07 27.19" fill="none"/>
 <polygon points="90.86 126.87 97.9 126.87 110.47 27.19 103.43 27.19" fill="#404040"/>
 <polygon points="90.86 126.87 94.9 126.87 107.47 27.19 103.43 27.19" fill="#777"/>
 <polygon stroke="#000" stroke-width="3" points="90.86 126.87 97.9 126.87 110.47 27.19 103.43 27.19" fill="none"/>
 <path stroke="#404040" d="m154.18 121.94h-5.24s0.98 24.81-4.89 24.81h-50.86c-4.33 0-4.93-13.47-4.95-20.56-0.02 8.28 0.51 25.81 5.38 25.81h55.24c6.39 0 5.32-30.06 5.32-30.06z" fill="#404040"/>
 <path stroke="#777" d="m93.2 146.75h50.86c5.87 0 4.89-24.81 4.89-24.81h-60.64s-0.07 1.72-0.06 4.25c0.02 7.08 0.63 20.56 4.95 20.56z" fill="#777"/>
 <path stroke="#000" stroke-width="3.5" d="m93.63 152h55.24c6.37 0 5.31-30.06 5.31-30.06h-65.86s-1.07 30.06 5.31 30.06z" fill="none"/>
 <rect height="80" width="7" stroke="#000" y="23" x="118.5" stroke-width="2" fill="#777"/>
 <path d="m91.57 137.06c-1.31-13.13-1.31-13.43 24.89-11.81-24.89 1.91-22.98 0.3-24.89 11.81z" fill="#fff"/>
 <linearGradient id="paint" y2="99" gradientUnits="userSpaceOnUse" x2="119.5" y1="99" x1="14.5">
  <stop style="stop-color:#DA1800" offset="0"/>
  <stop style="stop-color:#B42D2D" offset=".33"/>
  <stop style="stop-color:#FA1818" offset=".66"/>
  <stop style="stop-color:#B42D2D" offset="1"/>
 </linearGradient>
 <path stroke="#000" stroke-width="6" d="m67.35 13.97c-13.99 13.43-51.85 0-51.85 0v94.56s37.86 13.43 51.85 0c14-13.43 53.15 0 53.15 0v-94.56s-39.15-13.43-53.15 0z" fill="url(#paint)"/>
</svg>
