<?xml version="1.0" encoding="UTF-8" standalone="no"?>
<!DOCTYPE svg  PUBLIC '-//W3C//DTD SVG 1.1//EN'  'http://www.w3.org/Graphics/SVG/1.1/DTD/svg11.dtd'>
<svg width="161" xmlns="http://www.w3.org/2000/svg" version="1.1" height="161">
 <rect height="8" width="36.67" stroke="#000" y="19" x="102.67" stroke-width="3" fill="#777"/>
 <rect height="8" width="42.31" stroke="#000" y="60" x="98.67" stroke-width="3" fill="#777"/>
 <rect height="8" width="50.9" stroke="#000" y="99" x="94.67" stroke-width="3" fill="#777"/>
 <polygon points="151.64 126.87 144.6 126.87 132.03 27.19 139.07 27.19" fill="#404040"/>
 <polygon points="148.1 127.17 144.6 126.87 132.03 27.19 135.53 27.48" fill="#777"/>
 <polygon stroke="#000" stroke-width="3" points="151.64 126.87 144.6 126.87 132.03 27.19 139.07 27.19" fill="none"/>
 <polygon points="90.86 126.87 97.9 126.87 110.47 27.19 103.43 27.19" fill="#404040"/>
 <polygon points="90.86 126.87 94.9 126.87 107.47 27.19 103.43 27.19" fill="#777"/>
 <polygon stroke="#000" stroke-width="3" points="90.86 126.87 97.9 126.87 110.47 27.19 103.43 27.19" fill="none"/>
 <path stroke="#404040" d="m154.18 121.94h-5.24s0.98 24.81-4.89 24.81h-50.86c-4.33 0-4.93-13.47-4.95-20.56-0.02 8.28 0.51 25.81 5.38 25.81h55.24c6.39 0 5.32-30.06 5.32-30.06z" fill="#404040"/>
 <path stroke="#777" d="m93.2 146.75h50.86c5.87 0 4.89-24.81 4.89-24.81h-60.64s-0.07 1.72-0.06 4.25c0.02 7.08 0.63 20.56 4.95 20.56z" fill="#777"/>
 <path stroke="#000" stroke-width="3.5" d="m93.63 152h55.24c6.37 0 5.31-30.06 5.31-30.06h-65.86s-1.07 30.06 5.31 30.06z" fill="none"/>
 <rect height="80" width="7" stroke="#000" y="23" x="118.5" stroke-width="2" fill="#777"/>
 <path d="m91.57 137.06c-1.31-13.13-1.31-13.43 24.89-11.81-24.89 1.91-22.98 0.3-24.89 11.81z" fill="#fff"/>
 <linearGradient id="paint" y2="99" gradientUnits="userSpaceOnUse" x2="119.5" y1="99" x1="14.5">
  <stop style="stop-color:#185888" offset="0"/>
  <stop style="stop-color:#2D55B4" offset=".33"/>
  <stop style="stop-color:#5050FF" offset=".66"/>
  <stop style="stop-color:#105080" offset="1"/>
 </linearGradient>
 <path stroke="#000" stroke-width="6" d="m67.35 13.97c-13.99 13.43-51.85 0-51.85 0v94.56s37.86 13.43 51.85 0c14-13.43 53.15 0 53.15 0v-94.56s-39.15-13.43-53.15 0z" fill="url(#paint)"/>
 <path stroke="#142359" stroke-width="3" d="m92 46.99c0 2.75-0.41 5.12-1.21 7.11-0.81 1.99-2.23 4.04-4.26 6.13-0.92 0.95-2.54 2.27-4.89 3.96-2.35 1.66-3.95 3.05-4.8 4.11-0.66 0.84-1.22 1.9-1.64 3.17-0.43 1.27-0.67 1.98-0.73 2.11-0.51 1.1-1.25 1.94-2.2 2.5-0.95 0.57-2.09 0.86-3.42 0.86-2.15 0-3.81-0.55-5-1.62-1.17-1.06-1.76-2.57-1.76-4.5 0-1.68 0.44-3.4 1.33-5.13 0.88-1.75 2.14-3.35 3.76-4.82 0.77-0.71 1.92-1.66 3.48-2.9 4.58-3.56 6.87-6.97 6.87-10.24 0-2.8-0.83-5.04-2.47-6.71-1.66-1.66-3.9-2.5-6.72-2.5-2.09 0-3.89 0.41-5.38 1.2-1.5 0.78-2.72 1.98-3.67 3.6-0.26 0.41-0.6 1.04-1.05 1.87-1.83 3.45-4.24 5.16-7.27 5.16-1.87 0-3.35-0.55-4.4-1.62-1.06-1.1-1.57-2.61-1.57-4.53 0-1.86 0.5-3.77 1.52-5.75 1.02-1.96 2.46-3.78 4.34-5.46 2.26-2.05 4.78-3.55 7.57-4.53 2.79-0.96 5.99-1.46 9.57-1.46 7.34 0 13.17 1.82 17.5 5.42 4.34 3.64 6.5 8.49 6.5 14.57zm-31.33 42.65c0-2.07 0.76-3.83 2.23-5.29 1.49-1.47 3.29-2.2 5.43-2.2 2.22 0 4.07 0.73 5.56 2.16 1.49 1.47 2.23 3.22 2.23 5.32 0 2.05-0.77 3.78-2.29 5.22-1.5 1.43-3.35 2.15-5.5 2.15-2.09 0-3.9-0.73-5.4-2.17-1.51-1.43-2.26-3.17-2.26-5.19z" fill="#fff"/>
</svg>
