<?xml version="1.0" encoding="UTF-8" standalone="no"?>
<!DOCTYPE svg  PUBLIC '-//W3C//DTD SVG 1.1//EN'  'http://www.w3.org/Graphics/SVG/1.1/DTD/svg11.dtd'>
<svg width="160" xmlns="http://www.w3.org/2000/svg" version="1.1" height="160">
 <radialGradient id="paint" gradientUnits="userSpaceOnUse" cy="67" cx="67" r="100">
  <stop style="stop-color:#808080" offset="0"/>
  <stop style="stop-color:#606060" offset=".12"/>
  <stop style="stop-color:#202020" offset=".45"/>
  <stop offset="1"/>
 </radialGradient>
 <path stroke="#000" stroke-width="5" d="m155 84.839v-9.678h-21.033c-1.003-11.329-5.486-21.655-12.383-29.901l14.87-14.871-6.842-6.843-14.88 14.871c-8.246-6.897-18.573-11.38-29.901-12.384v-21.033h-9.678v21.033c-11.33 1.003-21.657 5.486-29.903 12.383l-14.87-14.87-6.843 6.843 14.87 14.87c-6.896 8.247-11.379 18.574-12.383 29.903h-21.032v9.678h21.033c1.003 11.331 5.485 21.658 12.382 29.903l-14.869 14.87 6.843 6.842 14.869-14.868c8.246 6.896 18.573 11.378 29.904 12.381v21.04h9.678v-21.033c11.329-1.003 21.656-5.485 29.902-12.382l14.871 14.869 6.842-6.842-14.869-14.871c6.896-8.245 11.379-18.572 12.382-29.902h21.04v-0.848z" fill="url(#paint)"/>
 <circle r="6" cy="80" stroke="#000" cx="80" stroke-width="4" fill="none"/>
 <circle r="50" cy="80" stroke="#000" cx="80" stroke-width="5" fill="none"/>
</svg>
