<?xml version="1.0" encoding="UTF-8" standalone="no"?>
<!-- Created with Inkscape (http://www.inkscape.org/) -->
<svg id="svg1886" xmlns:rdf="http://www.w3.org/1999/02/22-rdf-syntax-ns#" xmlns="http://www.w3.org/2000/svg" height="160" width="160" version="1.0" xmlns:cc="http://web.resource.org/cc/" xmlns:xlink="http://www.w3.org/1999/xlink" xmlns:dc="http://purl.org/dc/elements/1.1/">
 <defs id="defs1888">
  <linearGradient id="linearGradient2791" y2="135.03" gradientUnits="userSpaceOnUse" x2="128.93" y1="34.709" x1="28.533">
   <stop id="stop2787" style="stop-color:#ff0" offset="0"/>
   <stop id="stop2789" style="stop-color:#ffb900" offset="1"/>
  </linearGradient>
  <linearGradient id="linearGradient2799" y2="138.41" gradientUnits="userSpaceOnUse" x2="135.7" y1="24.974" x1="28.11">
   <stop id="stop2803" style="stop-color:#ffa500" offset="0"/>
   <stop id="stop2805" style="stop-color:red" offset="1"/>
  </linearGradient>
  <radialGradient id="radialGradient2884" gradientUnits="userSpaceOnUse" cy="67" cx="67" gradientTransform="translate(-2.5397 -5.9259)" r="100">
   <stop id="stop5" style="stop-color:#808080" offset="0"/>
   <stop id="stop7" style="stop-color:#606060" offset=".12"/>
   <stop id="stop9" style="stop-color:#202020" offset=".45"/>
   <stop id="stop11" offset="1"/>
  </radialGradient>
 </defs>
 <metadata id="metadata1891">
  <rdf:RDF>
   <cc:Work rdf:about="">
    <dc:format>image/svgxml</dc:format>
    <dc:type rdf:resource="http://purl.org/dc/dcmitype/StillImage"/>
   </cc:Work>
  </rdf:RDF>
 </metadata>
 <g id="layer1">
  <path id="path1894" style="stroke-linejoin:round;stroke:#000;stroke-width:.5;fill:url(#linearGradient2799)" d="m160.42 81.27a77.884 77.884 0 1 1 -155.76 0 77.884 77.884 0 1 1 155.76 0z" transform="translate(-2.5397 -1.2698)"/>
  <path id="path1896" style="opacity:0.98;fill:url(#linearGradient2791)" d="m150.26 84.233a70.688 70.688 0 1 1 -141.37 0 70.688 70.688 0 1 1 141.37 0z" transform="translate(.42328 -4.2328)"/>
  <g id="g2857" transform="matrix(.23263 0 0 .23263 114.93 114.93)">
   <path id="path13" style="stroke:#000;stroke-width:5;fill:url(#radialGradient2884)" d="m155 84.839v-9.678h-21.03c-1.01-11.329-5.49-21.655-12.39-29.901l14.87-14.871-6.84-6.843-14.87 14.871c-8.25-6.897-18.573-11.38-29.901-12.384v-21.033h-9.678v21.033c-11.33 1.003-21.657 5.486-29.903 12.383l-14.87-14.87-6.843 6.843 14.87 14.87c-6.896 8.247-11.379 18.574-12.383 29.903h-21.032v9.678h21.033c1.003 11.331 5.485 21.66 12.382 29.9l-14.869 14.87 6.843 6.85 14.869-14.87c8.246 6.89 18.573 11.37 29.904 12.38v21.03h9.678v-21.03c11.329-1.01 21.66-5.49 29.9-12.39l14.87 14.87 6.85-6.84-14.87-14.87c6.89-8.24 11.37-18.571 12.38-29.901h21.03v-0.839 0.839z"/>
   <circle id="circle15" style="stroke:#000;stroke-width:4;fill:none" cy="80" cx="80" r="6"/>
   <circle id="circle17" style="stroke:#000;stroke-width:5;fill:none" cy="80" cx="80" r="50"/>
  </g>
 </g>
</svg>
