/* XPM */
static char * gnu_32x32_xpm[] = {
"32 32 24 1",
" 	c None",
".	c #000000",
"+	c #7F7F7F",
"@	c #CCCCCC",
"#	c #0000FF",
"$	c #FFFF00",
"%	c #007F7F",
"&	c #333333",
"*	c #B2B2B2",
"=	c #FFFFFF",
"-	c #7F007F",
";	c #00FF00",
">	c #00007F",
",	c #7F7F00",
"'	c #191919",
")	c #FF0000",
"!	c #007F00",
"~	c #666667",
"{	c #E5E5E5",
"]	c #00FFFF",
"^	c #FF00FF",
"/	c #4C4C4C",
"(	c #999999",
"_	c #7F0000",
"                                ",
"                       _        ",
"                        _       ",
"                         __     ",
"       _          _       __    ",
"      _       __ ____      __   ",
"     __    ___________     __   ",
"    __    _____________   ___   ",
"   ___   _______________ ____   ",
"   ___  ______+(/+(~/~(+/&_&_   ",
"   ___  _____+++@==@((@{@@@~~   ",
"   _________++*=={{@@++*@*{==(  ",
"   ________(+(~+*@@*@@+~   ~+   ",
"   _______(@+(~{=*+*@@@+/       ",
"     ___~{{/*/*##*(+@@@(/       ",
"      _@==(+{+*#/@/+@@@*/       ",
"     +=@~/~=+@===*{@@@@*~       ",
"     +*//~+***=*++{@@@@@~/      ",
"       /++(**~@=({{{@@@@(/      ",
"       ~*~((((*@{===@@@@@(      ",
"      /+@(/~{(*=*{==={@@(~      ",
"      /~@@+(*@+(*+*/~~*(/_/     ",
"      /+@@~*~((*(+*___//_//     ",
"       /(@++((*~(+/&_____//     ",
"       /+@@++~+@/*//____&/      ",
"        /*@(~++(+///&___&/      ",
"        /+@@@+*~~*(//___//      ",
"         /+*@@(*/@+///_&/       ",
"          //(@@@+~/  ///        ",
"            /~@@//              ",
"              /~                ",
"                                "};
