<?xml version="1.0" encoding="UTF-8" standalone="no"?>
<!DOCTYPE svg  PUBLIC '-//W3C//DTD SVG 20010904//EN'  'http://www.w3.org/TR/2001/REC-SVG-20010904/DTD/svg10.dtd'>
<!-- Created with Inkscape (http://www.inkscape.org/) -->
<svg id="svg1" xmlns="http://www.w3.org/2000/svg" height="550pt" width="550pt" xmlns:xlink="http://www.w3.org/1999/xlink">
 <defs id="defs3">
  <linearGradient id="linearGradient854">
   <stop id="stop855" offset="0"/>
   <stop id="stop877" style="stop-color:#f5f5f5" offset=".87779"/>
   <stop id="stop856" style="stop-color:#fff" offset="1"/>
  </linearGradient>
  <linearGradient id="linearGradient857" y2=".46324" xlink:href="#linearGradient854" x2=".49630" y1=".56618" x1="0.6"/>
  <linearGradient id="linearGradient863" y2=".64706" xlink:href="#linearGradient854" x2="-.78947" y1=".63971" x1="1.3684"/>
  <linearGradient id="linearGradient875" y2=".066176" xlink:href="#linearGradient854" x2=".86792" y1="1.1691" x1=".88050"/>
  <linearGradient id="linearGradient881" y2="-.11765" xlink:href="#linearGradient854" x2=".12548" y1=".125" x1="1.1293"/>
  <linearGradient id="linearGradient904" y2=".66912" xlink:href="#linearGradient854" x2=".38095" y1=".18382" x1=".54286"/>
  <linearGradient id="linearGradient907" y2=".21324" xlink:href="#linearGradient854" x2=".29185" y1=".56618" x1=".81974"/>
  <linearGradient id="linearGradient908" y2=".69853" xlink:href="#linearGradient854" x2=".51163" y1=".26470" x1=".54286"/>
 </defs>
 <rect id="rect830" style="stroke-width:0;fill-rule:evenodd" transform="matrix(9.6582 9.6582 -9.6582 9.6582 -4673.6 -6842)" height="34.898" width="34.898" y="94.687" x="614.47"/>
 <rect id="rect827" style="stroke-width:0;fill:#0f0;fill-rule:evenodd" transform="matrix(9.2272 9.2272 -9.2272 9.2272 2203.2 -7269)" height="35.989" width="35.989" y="495.16" x="293.94"/>
 <path id="path829" style="stroke-width:0;fill:#000084;fill-rule:evenodd" transform="matrix(13.659 0 0 13.659 -4673.6 -6842)" d="m391.86 526.14l-24.33 24.35-24.31-24.34 48.64-0.01z"/>
 <rect id="rect826" style="stroke-width:0;fill:#008200;fill-rule:evenodd" transform="matrix(9.2272 9.2272 -9.2272 9.2272 2203.2 -7269)" height="33.65" width="33.65" y="496.33" x="295.11"/>
 <path id="path844" style="stroke:#000;stroke-width:.5;fill:#fff;fill-rule:evenodd" transform="matrix(13.659 0 0 13.659 -3345.6 -7154.4)" d="m258.65 568.45c0.64-0.05 1.22-0.51 1.71-1l32.12-33.11c0.55-0.57 0.95-1.07 0.9-1.89v-1.9c0.01-1.78-0.33-2.23-2.07-2.24h-13.68c-1.35 0.02-2.26 0.92-2.25 2.34l0.03 1.63c0.1 1.61 1.6 2.01 3.03 2.06l-12.05 11.96v-12.23c1.1 0.04 1.92-0.59 1.98-1.89l-0.01-1.68c-0.07-1.61-0.82-2.05-2.51-2.1l-13.14 0.09c-1.38 0.11-2.23 0.58-2.4 2.19l-0.03 1.14c0.08 1.6 0.67 2.44 2.34 2.52l0.69 0.02 0.03 32.01c0.15 1.23 0.86 2.05 2.25 2.07l3.06 0.01z"/>
 <path id="path853" style="fill-opacity:.75;stroke-width:.375;fill:url(#linearGradient857);fill-rule:evenodd" transform="matrix(13.659 0 0 13.659 -3345.6 -7154.4)" d="m292.5 528.68l-38.45 38.72c0.37 0.44 0.76 0.83 1.54 0.84l3.04 0.03c0.64-0.05 1.2-0.51 1.68-1l31.97-32.96c0.55-0.56 0.95-1.05 0.9-1.87v-1.89c0.01-1.06-0.22-1.57-0.68-1.87z"/>
 <path id="path865" style="fill-opacity:.75;stroke-width:.375;fill:url(#linearGradient863);fill-rule:evenodd" transform="matrix(13.659 0 0 13.659 -3345.6 -7154.4)" d="m263.93 551.31l2.32-4.59-0.06-12.85-2.32-0.74 0.06 18.18z"/>
 <path id="path874" style="fill-opacity:.75;stroke-width:.25;fill:url(#linearGradient875);fill-rule:evenodd" transform="matrix(13.659 0 0 13.659 -3345.6 -7154.4)" d="m267.62 528.98l-5.18 3.66 3.87 1.31h0.03c1.06 0.02 1.83-0.61 1.88-1.85v-1.64c-0.03-0.73-0.25-1.17-0.6-1.48z"/>
 <path id="path903" style="fill-opacity:.75;stroke-width:.125;fill:url(#linearGradient904);fill-rule:evenodd" transform="matrix(13.659 0 0 13.659 -4673.6 -6842)" d="m380.73 507.58l-1.09 0.69 0.81 0.31 0.28-1zm-0.28 1l-3.5 2.13c-0.27-0.02-0.57-0.11-0.87-0.16l-0.22 0.16c0.26 0.04 0.48 0.15 0.75 0.15l-2.66 2.63 4.38 3 2.12-7.91z"/>
 <path id="path880" style="fill-opacity:.75;stroke-width:.375;fill:url(#linearGradient881);fill-rule:evenodd" transform="matrix(13.659 0 0 13.659 -3345.6 -7154.4)" d="m279.3 530.99l-3.63 1.62c0.27 1.22 1.5 1.51 3.14 1.6l3.52-2.15-3.03-1.07z"/>
 <path id="path905" style="fill-opacity:.75;stroke-width:.375;fill:url(#linearGradient907);fill-rule:evenodd" transform="matrix(13.659 0 0 13.659 -3345.6 -7154.4)" d="m254.11 531.07l-3.5 1.56c0.26 1.22 0.99 1.57 2.88 1.56l3.4-3.67-2.78 0.55z"/>
 <path id="path906" style="fill-opacity:.75;stroke-width:.125;fill:url(#linearGradient908);fill-rule:evenodd" transform="matrix(13.659 0 0 13.659 -3345.6 -7154.4)" d="m255.59 531.64l-2.15 2.6 0.11 2.52c-0.02 0.35 0.53 4.8 1.05 3.04s0.63-8.35 0.99-8.16z"/>
 <path id="path846" style="stroke-width:.25;fill:#c6c3c6;fill-rule:evenodd" transform="matrix(13.659 0 0 13.659 -3345.6 -7154.4)" d="m257.55 567.38c0.37-0.03 0.87-0.49 1.31-0.98l31.77-32.3c0.35-0.38 0.73-0.82 0.72-1.21l-0.06-2.58c0-0.34-0.26-0.58-0.69-0.56l-12.92-0.03c-0.56-0.02-1.05 0.32-0.98 0.92v1.35c0.02 0.82 0.65 0.93 1.1 0.91h1.57c0.42 0.18 0.57 0.42 0.59 0.92-0.05 1.03-0.07 1.01-1.05 2.01l-14.84 15.26-0.07-17.87h1.71c0.32-0.03 0.73-0.39 0.78-0.78v-2c-0.01-0.38-0.25-0.67-0.71-0.66h-13.41c-0.49-0.02-0.82 0.42-0.78 0.92l-0.03 1.48c-0.01 0.5 0.35 0.9 0.81 0.94h2.11l-0.03 33.61c-0.03 0.35 0.03 0.53 0.29 0.65h2.81z"/>
 <g id="g1043" style="fill:#575757" transform="matrix(13.659 0 0 13.659 -4672.1 -6838.2)">
  <path id="path1044" style="fill:#575757;fill-rule:evenodd" d="m385.8 513.51a2.0694 2.2493 0 1 0 -4.13 0 2.0694 2.2493 0 1 0 4.13 0z" transform="matrix(1.0536 0 0 1.0536 -34.647 -9.3238)"/>
  <path id="path1045" style="fill:#575757;fill-rule:evenodd" transform="translate(46.57 -30.92)" d="m316.99 575.2c3.67-6.66 3.13-7.22 3.11-7.96-0.05-0.99 0.16-1.37 1.26-1.35l1.66-0.05c1.02-0.04 1.35 0.32 1.08 1.08-0.43 1.17-3.69 6.47-3.08 7.54l0.66 0.82c0.28 0.58-0.37 1.42-0.73 1.42l-3.1 0.03c-0.76 0.01-1.2-0.77-0.86-1.53z"/>
  <path id="path1046" style="fill:#575757;fill-rule:evenodd" transform="translate(46.57 -30.92)" d="m329.57 565.57c-1.14-0.21-2.31-0.14-3.36-0.01-0.41-0.03-0.57 0.64-0.42 1.1l0.43 0.88c0.06 0.7 0.41 1.45-3.09 7.81-0.35 0.76 0.12 1.54 0.87 1.53l3.1-0.03c0.36-0.01 0.99-0.83 0.72-1.41l-0.66-0.81c-0.3-0.52 0.34-2.05 1.09-3.59 1.1-1.44 2.36-1.52 3.16-1.54 0.24 0.06 0.34 0.33 0.41 0.63-0.41 1.11-0.93 2.41-2.47 5.22-0.35 0.76 0.08 1.54 0.84 1.53l3.13-0.03c0.36-0.01 0.99-0.83 0.72-1.41l-0.66-0.81c-0.3-0.53 0.35-2.08 1.12-3.66 1.02-1.45 2.24-1.47 3-1.47 0.31 0.1 0.38 0.48 0.38 0.88-0.42 1.11-0.84 2.3-2.31 4.97-0.35 0.76 0.08 1.54 0.84 1.53l3.09-0.03c0.36-0.01 1.03-0.83 0.75-1.41l-0.65-0.81c-0.62-1.07 1.86-4.19 2.59-6.15 0.45-1.39-1.1-2.61-1.95-2.88l-2.35-0.04c-0.43 0.1-0.52 0.34-0.63 0.79l-1.61-0.01c0.03-0.42-0.08-0.69-0.38-0.72l-2.47-0.03c-0.79-0.02-0.72 0.27-0.82 0.75l-2.4 0.01c0.13-0.26 0.13-0.61-0.01-0.78z"/>
 </g>
 <path id="path960" style="fill:#c6c3c6;fill-rule:evenodd" transform="matrix(13.659 0 0 13.659 -4041 -7266)" d="m329.57 565.57c-1.14-0.21-2.31-0.14-3.36-0.01-0.41-0.03-0.57 0.64-0.42 1.1l0.43 0.88c0.06 0.7 0.41 1.45-3.09 7.81-0.35 0.76 0.12 1.54 0.87 1.53l3.1-0.03c0.36-0.01 0.99-0.83 0.72-1.41l-0.66-0.81c-0.3-0.52 0.34-2.05 1.09-3.59 1.1-1.44 2.36-1.52 3.16-1.54 0.24 0.06 0.34 0.33 0.41 0.63-0.41 1.11-0.93 2.41-2.47 5.22-0.35 0.76 0.08 1.54 0.84 1.53l3.13-0.03c0.36-0.01 0.99-0.83 0.72-1.41l-0.66-0.81c-0.3-0.53 0.35-2.08 1.12-3.66 1.02-1.45 2.24-1.47 3-1.47 0.31 0.1 0.38 0.48 0.38 0.88-0.42 1.11-0.84 2.3-2.31 4.97-0.35 0.76 0.08 1.54 0.84 1.53l3.09-0.03c0.36-0.01 1.03-0.83 0.75-1.41l-0.65-0.81c-0.62-1.07 1.86-4.19 2.59-6.15 0.45-1.39-1.1-2.61-1.95-2.88l-2.35-0.04c-0.43 0.1-0.52 0.34-0.63 0.79l-1.61-0.01c0.03-0.42-0.08-0.69-0.38-0.72l-2.47-0.03c-0.79-0.02-0.72 0.27-0.82 0.75l-2.4 0.01c0.13-0.26 0.13-0.61-0.01-0.78z"/>
 <path id="path934" style="stroke:#000;stroke-width:5;fill:none" d="m437.7 457.11c-7.73 0.08-15.3 0.73-22.5 1.62-5.63-0.41-7.83 8.72-5.78 15.07l5.97 11.96c0.77 9.65 5.61 19.78-42.25 106.69-3.52 7.72-2.29 13.79 1.72 20.01 4.47 3.46 9.68 6.48 15.18 6.43l42.25-0.41c4.91-0.11 13.6-11.28 9.82-19.22l-8.97-11.09c-4.08-7.07 4.6-27.94 14.93-49.09 14.76-19.38 30.83-23.42 41.77-23.63-1.03 8.79-10.66 38.68-31.77 77-3.55 7.8-1.99 14.85 2.49 20.57 3.91 3.4 8.52 5.92 13.98 5.87l42.69-0.41c4.91-0.11 13.59-11.28 9.81-19.22l-8.97-11.09c-4.13-7.17 4.84-28.46 15.38-49.94 13.58-19.46 28.99-21.85 39.46-21.86-2.25 21.67-9.82 39.63-29.9 76.08-3.55 7.8-2.45 14.4 2.49 20.11 3.91 3.4 8.52 6.38 13.98 6.33l42.25-0.41c4.91-0.11 14.03-11.28 10.25-19.22l-8.97-11.09c-8.43-14.63 21.84-54.04 31.74-80.72 4.57-14.55 2.64-22.66-3.89-31.46-7.86-8.82-17.72-14.7-24.04-16.69l-32.15-0.47c-5.8 1.32-7 4.64-8.6 10.72 0 0-19.19-0.88-21.66-1.17-0.5-3.21-2.51-8.48-5.49-8.77l-33.69-0.5c-10.86-0.23-9.79 3.69-11.19 10.37 0 0-28.79 1.22-29.77 0.02-1.18-0.21-2.15-9.38-3.13-10.58-7.81-1.41-15.71-1.9-23.44-1.81z"/>
 <g id="g937">
  <path id="path955" style="fill:#c6c3c6;fill-rule:evenodd" transform="matrix(13.659 0 0 13.659 -4041 -7266)" d="m316.99 575.2c3.67-6.66 3.13-7.22 3.11-7.96-0.05-0.99 0.16-1.37 1.26-1.35l1.66-0.05c1.02-0.04 1.35 0.32 1.08 1.08-0.43 1.17-3.69 6.47-3.08 7.54l0.66 0.82c0.28 0.58-0.37 1.42-0.73 1.42l-3.1 0.03c-0.76 0.01-1.2-0.77-0.86-1.53z"/>
  <path id="path935" style="stroke:#000;stroke-width:5;fill:none" d="m372.97 462.64l-22.75 0.62c-14.96-0.3-17.91 4.92-17.19 18.44 0.31 10.14 7.67 17.81-42.41 108.75-9.04 18.32 6.59 26 16.66 26.41l42.37-0.35c4.91-0.11 13.72-11.53 9.94-19.46l-8.97-11.16c-8.43-14.63 33.41-85.66 39.31-101.59 2.46-6.96 1.61-10.96-0.36-14.85-3.31-4.91-6.99-7.24-16.6-6.81z"/>
 </g>
 <g id="g940">
  <path id="path866" style="fill:#c6c3c6;fill-rule:evenodd" d="m385.8 513.51a2.0694 2.2493 0 1 0 -4.13 0 2.0694 2.2493 0 1 0 4.13 0z" transform="matrix(14.391 0 0 14.391 -5150.3 -6971.1)"/>
  <path id="path936" style="stroke:#000;stroke-width:5;fill:none" d="m372.94 388.65c-13.06 0-27.95 15.61-27.95 29.62 0 14.02 0.91 16.85 6.08 26.44 4.71 9.6 12.41 11.47 25.46 11.47s29.78-17.46 29.78-31.46c-1.83-13.54-4.3-18.79-10.2-25.46-6.26-7.06-10.11-10.61-23.17-10.61z"/>
 </g>
</svg>
