/* XPM */
static char * adblock_plus_xpm[] = {
"64 64 59 1",
" 	c None",
".	c #343434",
"+	c #A6B5B5",
"@	c #A0AEAE",
"#	c #A5B4B4",
"$	c #A1AFAF",
"%	c #353535",
"&	c #343434",
"*	c #3E3E3E",
"=	c #848787",
"-	c #919898",
";	c #969D9D",
">	c #979E9E",
",	c #9BA2A2",
"'	c #353535",
")	c #A6B4B4",
"!	c #FFFFFF",
"~	c #F00000",
"{	c #FFF9F9",
"]	c #F10606",
"^	c #F10909",
"/	c #F64848",
"(	c #F10D0D",
"_	c #EF0000",
":	c #F11A1A",
"<	c #F78484",
"[	c #FBC1C1",
"}	c #FDD8D8",
"|	c #FDDADA",
"1	c #FDE4E4",
"2	c #F10303",
"3	c #F10A0A",
"4	c #F9A3A3",
"5	c #FDD7D7",
"6	c #FEFCFC",
"7	c #F77F7F",
"8	c #FAADAD",
"9	c #F10F0F",
"0	c #F33333",
"a	c #F33838",
"b	c #FEEEEE",
"c	c #F21111",
"d	c #F21919",
"e	c #F65959",
"f	c #FFFBFB",
"g	c #F64D4D",
"h	c #F54444",
"i	c #FFF7F7",
"j	c #F00303",
"k	c #F00707",
"l	c #F11010",
"m	c #F66363",
"n	c #FCC9C9",
"o	c #FCD1D1",
"p	c #FEEAEA",
"q	c #FEF4F4",
"r	c #F54E4E",
"s	c #FFFAFA",
"t	c #F54646",
"                  ==++++++++++++++++++++++))==                  ",
"                  ==++++++++++++++++++++++))==                  ",
"                ,,{{ss{{{{{{{{{{{{{{{{{{{{{{{{>>                ",
"                ,,{{ss{{{{{{{{{{{{{{{{{{{{{{{{>>                ",
"              ,,{{hh~~~~~~~~~~~~~~~~~~~~~~~~//{{>>              ",
"              ,,{{hh~~~~~~~~~~~~~~~~~~~~~~~~//{{>>              ",
"            ,,iihh~~^^^^^^^^^^^^^^^^^^^^^^^^~~//{{>>            ",
"            ,,iihh~~^^^^^^^^^^^^^^^^^^^^^^^^~~//{{>>            ",
"          ,,{{hh~~^^^^^^^^^^^^^^^^^^^^^^^^^^^^~~//{{>>          ",
"          ,,{{hh~~^^^^^^^^^^^^^^^^^^^^^^^^^^^^~~//{{>>          ",
"        ,,iihh~~^^^^^^^^^^^^^^^^^^^^^^^^^^^^^^^^~~//{{>>        ",
"        ,,iihh~~^^^^^^^^^^^^^^^^^^^^^^^^^^^^^^^^~~//{{>>        ",
"      ,,{{hh~~^^^^^^^^^^^^^^^^^^^^^^^^^^^^^^^^^^^^~~//{{>>      ",
"      ,,{{hh~~^^^^^^^^^^^^^^^^^^^^^^^^^^^^^^^^^^^^~~//{{>>      ",
"    ,,iihh~~^^^^^^^^^^^^^^^^^^^^^^^^^^^^^^^^^^^^^^^^~~//{{>>    ",
"    ,,iihh~~^^^^^^^^^^^^^^^^^^^^^^^^^^^^^^^^^^^^^^^^~~//{{>>    ",
"  ,,{{hh~~3322~~~~]]^^^^^^~~~~~~~~~~~~^^^^^^~~~~~~~~~~~~//{{>>  ",
"  ,,{{hh~~3322~~~~]]^^^^^^~~~~~~~~~~~~^^^^^^~~~~~~~~~~~~//{{>>  ",
"==qqhh~~^^]]00eeee::]]^^33ggeeeeeeeehhkk]]((eeeeeeeeee::__//qq==",
"==qqhh~~^^]]00eeee::]]^^33ggeeeeeeeehhkk]]((eeeeeeeeee::__//qq==",
"++ff__^^^^~~[[!!!!77~~]]((11!!!!!!!!!!<<]]::{{!!!!!!!!1100__{{##",
"++ff__^^^^~~[[!!!!77~~]]((11!!!!!!!!!!<<]]::{{!!!!!!!!1100__{{##",
"++{{~~^^22ddpp!!!!88~~]]((55!!!!!!!!!!!!00ddbb!!!!!!!!!!88__{{$$",
"++{{~~^^22ddpp!!!!88~~]]((55!!!!!!!!!!!!00ddbb!!!!!!!!!!88__{{$$",
"##{{~~^^~~tt!!!!!!11cc22((}}!![[00<<!!!!gg((bb!!44aaoo!!}}~~{{$$",
"##{{~~^^~~tt!!!!!!11cc22((}}!![[00<<!!!!gg((bb!!44aaoo!!}}~~{{$$",
"##{{~~^^~~77!!oopp!!aa~~((}}6644__00!!!!hhccbb!!<<jj<<!!1122{{$$",
"##{{~~^^~~77!!oopp!!aa~~((}}6644__00!!!!hhccbb!!<<jj<<!!1122{{$$",
"##{{~~^^jj[[!!77[[!!77~~((}}!!55<<nn!!nn33::bb!!4400oo!!55~~{{$$",
"##{{~~^^jj[[!!77[[!!77~~((}}!!55<<nn!!nn33::bb!!4400oo!!55~~{{$$",
"##{{~~22ddbb!!aa44!!88~~((}}!!!!!!!!{{77~~::bb!!{{66!!6644__{{$$",
"##{{~~22ddbb!!aa44!!88~~((}}!!!!!!!!{{77~~::bb!!{{66!!6644__{{$$",
"##{{~~~~//!!qqccmm6611cc33}}!!bbnn1166{{hhccbb!!!!!!!!||::jj{{$$",
"##{{~~~~//!!qqccmm6611cc33}}!!bbnn1166{{hhccbb!!!!!!!!||::jj{{$$",
"##{{~~~~<<!!{{[[oo!!!!aa22}}6688~~dd11ff44llbbff[[eeee::]]~~{{$$",
"##{{~~~~<<!!{{[[oo!!!!aa22}}6688~~dd11ff44llbbff[[eeee::]]~~{{$$",
"##{{~~jj[[66!!!!!!!!!!77~~}}!!44__cc11!!88((bb!!<<__~~22^^~~{{$$",
"##{{~~jj[[66!!!!!!!!!!77~~}}!!44__cc11!!88((bb!!<<__~~22^^~~{{$$",
"##{{~~ddbb!!pp5555qq!!8822}}!!11[[55!!!!<<((bb!!<<~~^^^^^^~~{{$$",
"##{{~~ddbb!!pp5555qq!!8822}}!!11[[55!!!!<<((bb!!<<~~^^^^^^~~{{$$",
"##{{__rr!!!!rr]]]]44!!pp::||!!!!66!!!!!!aaddii!!<<kk^^^^^^~~{{$$",
"##{{__rr!!!!rr]]]]44!!pp::||!!!!66!!!!!!aaddii!!<<kk^^^^^^~~{{$$",
"++{{]]mm||55::~~~~mm||||aa88||||||55[[mm~~::nn||77~~^^^^^^__{{##",
"++{{]]mm||55::~~~~mm||||aa88||||||55[[mm~~::nn||77~~^^^^^^__{{##",
"==ii//]]ll((3333^^^^99ll((ll999999((~~~~^^33999933^^^^^^~~ggii==",
"==ii//]]ll((3333^^^^99ll((ll999999((~~~~^^33999933^^^^^^~~ggii==",
"  ;;ss//~~]]^^^^^^^^]]]]^^kk]]]]]]]]^^^^^^^^]]]]kk^^^^~~ggff--  ",
"  ;;ss//~~]]^^^^^^^^]]]]^^kk]]]]]]]]^^^^^^^^]]]]kk^^^^~~ggff--  ",
"    ;;{{//~~^^^^^^^^^^^^^^^^^^^^^^^^^^^^^^^^^^^^^^^^~~ggff--    ",
"    ;;{{//~~^^^^^^^^^^^^^^^^^^^^^^^^^^^^^^^^^^^^^^^^~~ggff--    ",
"      ;;ss//~~^^^^^^^^^^^^^^^^^^^^^^^^^^^^^^^^^^^^~~ggff--      ",
"      ;;ss//~~^^^^^^^^^^^^^^^^^^^^^^^^^^^^^^^^^^^^~~ggff--      ",
"        ;;{{//~~^^^^^^^^^^^^^^^^^^^^^^^^^^^^^^^^~~ggff--        ",
"        ;;{{//~~^^^^^^^^^^^^^^^^^^^^^^^^^^^^^^^^~~ggff--        ",
"          ;;ss//~~^^^^^^^^^^^^^^^^^^^^^^^^^^^^~~ggff--          ",
"          ;;ss//~~^^^^^^^^^^^^^^^^^^^^^^^^^^^^~~ggff--          ",
"            ;;{{//~~^^^^^^^^^^^^^^^^^^^^^^^^~~ggff--            ",
"            ;;{{//~~^^^^^^^^^^^^^^^^^^^^^^^^~~ggff--            ",
"              ;;ss//~~~~~~~~~~~~~~~~~~~~~~~~ggff--              ",
"              ;;ss//~~~~~~~~~~~~~~~~~~~~~~~~ggff--              ",
"                ;;{{{{{{{{{{{{{{{{{{{{{{{{{{{{--                ",
"                ;;{{{{{{{{{{{{{{{{{{{{{{{{{{{{--                ",
"                  ==@@@@@@@@@@@@@@@@@@@@@@@@==                  ",
"                  ==@@@@@@@@@@@@@@@@@@@@@@@@==                  "};
