/* XPM */
static char * all_in_one_sidebar_xpm[] = {
"64 64 269 2",
"  	c None",
". 	c #003A9F",
"+ 	c #00399F",
"@ 	c #003AA0",
"# 	c #0041A3",
"$ 	c #0043A6",
"% 	c #0044A8",
"& 	c #0044A9",
"* 	c #00409D",
"= 	c #00398C",
"- 	c #0046A8",
"; 	c #005BBB",
"> 	c #006CCB",
", 	c #006ECC",
"' 	c #006DCB",
") 	c #006ACA",
"! 	c #0069C9",
"~ 	c #006BCA",
"{ 	c #006ECA",
"] 	c #006FCD",
"^ 	c #0058B7",
"/ 	c #003FA2",
"( 	c #0049AB",
"_ 	c #006ECB",
": 	c #0098F0",
"< 	c #009DF4",
"[ 	c #006DCC",
"} 	c #003085",
"| 	c #0040A3",
"1 	c #076DCA",
"2 	c #1096ED",
"3 	c #119BF2",
"4 	c #0D94EC",
"5 	c #2BA7F5",
"6 	c #40B3FC",
"7 	c #2C9FF8",
"8 	c #138AF1",
"9 	c #0C8BEE",
"0 	c #2BA8F5",
"a 	c #1093F3",
"b 	c #076DCB",
"c 	c #002F81",
"d 	c #0040A4",
"e 	c #0048AB",
"f 	c #0F66C3",
"g 	c #2088DF",
"h 	c #228CE2",
"i 	c #1A84DD",
"j 	c #55AAEF",
"k 	c #80C2FD",
"l 	c #5D9EF6",
"m 	c #2C76E9",
"n 	c #1B77E1",
"o 	c #54ABEF",
"p 	c #237EE6",
"q 	c #0F67C4",
"r 	c #002E7C",
"s 	c #003EA4",
"t 	c #0046AA",
"u 	c #1062BD",
"v 	c #2281D3",
"w 	c #2485D6",
"x 	c #1B7DD0",
"y 	c #5FA6E8",
"z 	c #94C3FA",
"A 	c #7BACF6",
"B 	c #4E8CE9",
"C 	c #2D7FDB",
"D 	c #5DA5E6",
"E 	c #3687E0",
"F 	c #0E62BE",
"G 	c #002E7B",
"H 	c #003DA4",
"I 	c #0E5EB8",
"J 	c #1D7BC9",
"K 	c #1F7ECB",
"L 	c #1677C6",
"M 	c #549ADE",
"N 	c #87B6F1",
"O 	c #7EB0F0",
"P 	c #5F9FE7",
"Q 	c #3588D5",
"R 	c #5098DC",
"S 	c #3D8FD9",
"T 	c #0A5DB9",
"U 	c #003FA4",
"V 	c #0056B6",
"W 	c #006AC5",
"X 	c #006DC7",
"Y 	c #0069C4",
"Z 	c #1B7AD0",
"` 	c #3588DA",
" .	c #3287DA",
"..	c #2480D5",
"+.	c #0D73CC",
"@.	c #1978CF",
"#.	c #1077CF",
"$.	c #0056B8",
"%.	c #00307C",
"&.	c #0057B8",
"*.	c #006CC9",
"=.	c #0058BB",
"-.	c #0036A1",
";.	c #3977C2",
">.	c #7AB0E0",
",.	c #81B7E3",
"'.	c #7AB1E0",
").	c #76AEDF",
"!.	c #73ADDD",
"~.	c #75AEDE",
"{.	c #78B0DF",
"].	c #76AFDF",
"^.	c #7FB6E2",
"/.	c #3A79C6",
"(.	c #00297A",
"_.	c #002E9F",
":.	c #7195CA",
"<.	c #F1F1F1",
"[.	c #FFFCF6",
"}.	c #7398CE",
"|.	c #002378",
"1.	c #0031A2",
"2.	c #6C8DBF",
"3.	c #E6DFD9",
"4.	c #F4E9DC",
"5.	c #E5DFD9",
"6.	c #EAE2DB",
"7.	c #EEE5DC",
"8.	c #F5EADD",
"9.	c #E8E1DB",
"0.	c #6F90C4",
"a.	c #00257A",
"b.	c #0034A4",
"c.	c #5C80B5",
"d.	c #C4C4C4",
"e.	c #D0CCC6",
"f.	c #5E83B8",
"g.	c #00277C",
"h.	c #0031A1",
"i.	c #698CC1",
"j.	c #DFDFDF",
"k.	c #EDECE9",
"l.	c #DFE5ED",
"m.	c #DFE6EE",
"n.	c #E3E5E7",
"o.	c #BAC6D3",
"p.	c #9EB3CC",
"q.	c #BAC6D4",
"r.	c #E3E1E0",
"s.	c #E0E0E0",
"t.	c #E5E1DB",
"u.	c #D1D1D1",
"v.	c #6388BD",
"w.	c #0044A6",
"x.	c #00267A",
"y.	c #002D9D",
"z.	c #789CD1",
"A.	c #FFFFFF",
"B.	c #B6CEEA",
"C.	c #7DA7D9",
"D.	c #FFFCF5",
"E.	c #E4E4E4",
"F.	c #6C90C5",
"G.	c #0043A5",
"H.	c #002377",
"I.	c #002C9D",
"J.	c #7AA1D9",
"K.	c #FFF4D0",
"L.	c #FFCD92",
"M.	c #FECA8B",
"N.	c #FFEECD",
"O.	c #B5D1F3",
"P.	c #79A5DA",
"Q.	c #B5CEEC",
"R.	c #FFFFF8",
"S.	c #E6E6E6",
"T.	c #6C91C5",
"U.	c #002376",
"V.	c #78A2DE",
"W.	c #FFD593",
"X.	c #F7941D",
"Y.	c #F68D0F",
"Z.	c #FFCF90",
"`.	c #B6D4F8",
" +	c #78A3DF",
".+	c #FFD28C",
"++	c #F68600",
"@+	c #FFCC89",
"#+	c #B6D5F9",
"$+	c #E7E7E7",
"%+	c #CECECE",
"&+	c #CBCBCB",
"*+	c #D4D4D4",
"=+	c #A8A8A8",
"-+	c #A3A3A3",
";+	c #E9E9E9",
">+	c #002478",
",+	c #789FD7",
"'+	c #FFF3CF",
")+	c #FFD094",
"!+	c #FFCD8E",
"~+	c #FFEDCC",
"{+	c #B6D0F0",
"]+	c #6C8EC0",
"^+	c #002170",
"/+	c #6C8CBC",
"(+	c #003D96",
"_+	c #001E6A",
":+	c #7B9FD3",
"<+	c #F3F2EF",
"[+	c #C7CDD4",
"}+	c #C3CAD2",
"|+	c #EBEBEC",
"1+	c #B9D1EC",
"2+	c #6C8EBF",
"3+	c #003F9B",
"4+	c #00206E",
"5+	c #7EA2D7",
"6+	c #DCD8D2",
"7+	c #9A9A9A",
"8+	c #949494",
"9+	c #D5D2CF",
"0+	c #BCD4F0",
"a+	c #6C8FC3",
"b+	c #0042A2",
"c+	c #002374",
"d+	c #6C90C4",
"e+	c #0043A4",
"f+	c #0044A7",
"g+	c #6C90C6",
"h+	c #002479",
"i+	c #FFFBF5",
"j+	c #6C91C6",
"k+	c #0030A2",
"l+	c #6E91C3",
"m+	c #EEEAE3",
"n+	c #FDF7EE",
"o+	c #EEF0F1",
"p+	c #EEF1F2",
"q+	c #F2F0EC",
"r+	c #C9D0D8",
"s+	c #ADBED0",
"t+	c #C9D1D9",
"u+	c #F2ECE4",
"v+	c #EFEAE4",
"w+	c #F5ECDF",
"x+	c #E0DCD6",
"y+	c #6A8DC1",
"z+	c #0045AA",
"A+	c #00267C",
"B+	c #2F61A9",
"C+	c #5A7EB4",
"D+	c #5E81B5",
"E+	c #5A7FB5",
"F+	c #5F82B6",
"G+	c #6284B7",
"H+	c #6084B8",
"I+	c #5C81B6",
"J+	c #2E5DA3",
"K+	c #00388A",
"L+	c #002263",
"M+	c #0045AB",
"N+	c #002965",
"O+	c #001A42",
"P+	c #002B89",
"Q+	c #002A85",
"R+	c #00287F",
"S+	c #00277D",
"T+	c #002262",
"                                                                                                                                ",
"                                                                                                                                ",
"                                                                                                                                ",
"                                                                                                                                ",
"              . + . . . . . . . . . . . . . . . . . . . . . . . . . . . . . . . . . . . . . . . . . . . . . . . @ .             ",
"          # $ % % % % % % % % % % % % % % % % % % % % % % % % % % % % % % % % % % % % % % % % % % % % % % % % % & % * =         ",
"          - ; > , > > > > > > > > > > > > > > > > > > > > > > > > > > > > > ' > ) ! ~ { ' > ) ! ~ { ' > ) ! ~ { ] > ^ *         ",
"        / ( _ : < : : : : : : : : : : : : : : : : : : : : : : : : : : : : : : : : : : : : : : : : : : : : : : : < : [ % }       ",
"        | ( 1 2 3 2 2 2 2 2 2 2 2 2 2 2 2 2 2 2 2 2 2 2 2 2 2 2 2 2 2 2 2 2 4 2 5 6 7 8 9 2 0 6 7 8 9 2 0 6 7 8 a 2 b & c       ",
"        d e f g h g g g g g g g g g g g g g g g g g g g g g g g g g g g g g i g j k l m n g o k l m n g o k l m p g q % r       ",
"        s t u v w v v v v v v v v v v v v v v v v v v v v v v v v v v v v v x v y z A B C v D z A B C v D z A B E v F % G       ",
"        H % I J K J J J J J J J J J J J J J J J J J J J J J J J J J J J J J L J M N O P Q J R N O P Q J R N O P S J T % r       ",
"        U % V W X W W W W W W W W W W W W W W W W W W W W W W W W W W W W W Y W Z `  ...+.W @.`  ...+.W @.`  ...#.W $.% %.      ",
"        U % &.*._ *.*.*.*.*.*.*.*.*.*.*.*.*.*.*.*.*.*.*.*.*.*.*.*.*.*.*.*.*.*.*.*.*.*.*.*.*.*.*.*.*.*.*.*.*.*.*._ *.=.% %.      ",
"        -.% ;.>.,.>.>.>.>.>.>.>.>.>.>.>.>.>.>.>.>.>.>.>.>.>.>.>.>.>.>.>.>.>.'.>.).!.!.~.{.>.].!.!.~.{.>.].!.!.~.^.>./.% (.      ",
"        _.% :.<.[.<.<.<.<.<.<.<.<.<.<.<.<.<.<.<.<.<.<.<.<.<.<.<.<.<.<.<.<.<.<.<.<.<.<.<.<.<.<.<.<.<.<.<.<.<.<.<.[.<.}.% |.      ",
"        1.% 2.3.4.3.3.3.3.3.3.3.3.3.3.3.3.3.5.3.6.7.6.3.5.3.3.3.3.3.3.3.3.3.3.3.3.3.3.3.3.3.3.3.3.3.3.3.3.3.3.3.8.9.0.% a.      ",
"        b.% c.d.e.d.d.d.d.d.d.d.d.d.d.d.d.d.d.d.d.d.d.d.d.d.d.d.d.d.d.d.d.d.d.d.d.d.d.d.d.d.d.d.d.d.d.d.d.d.d.d.e.d.f.% g.      ",
"        h.% i.j.k.l.m.l.l.l.l.l.l.l.l.l.m.l.n.j.o.p.q.j.r.j.j.j.j.j.j.j.j.j.j.j.j.j.j.j.j.j.j.j.j.j.j.j.j.j.s.j.t.u.v.w.x.      ",
"        y.% z.A.A.A.A.A.A.A.A.A.A.A.A.A.A.A.A.A.B.C.B.A.A.A.A.A.A.A.A.A.A.A.A.A.A.A.A.A.A.A.A.A.A.A.A.A.A.A.A.A.D.E.F.G.H.      ",
"        I.% J.A.K.L.M.L.L.L.L.L.L.L.L.L.M.L.N.A.O.P.Q.A.A.A.A.A.A.A.A.A.A.A.A.A.A.A.A.A.A.A.A.A.A.A.A.A.A.A.A.A.R.S.T.G.U.      ",
"        y.% V.A.W.X.Y.X.X.X.X.X.X.X.X.X.Y.X.Z.A.`.C.B.A.A.A.A.A.A.A.A.A.A.A.A.A.A.A.A.A.A.A.A.A.A.A.A.A.A.A.A.A.D.E.F.G.H.      ",
"        y.%  +A..+Y.++Y.Y.Y.Y.Y.Y.Y.Y.Y.++Y.@+A.#+C.B.A.A.A.$+%+&+%+%+%+%+%+%+%+%+%+%+%+%+%+%+%+%+%+&+%+$+A.A.A.D.E.F.G.H.      ",
"        y.% V.A.W.X.Y.X.X.X.X.X.X.X.X.X.Y.X.Z.A.`.C.B.A.A.A.*+=+-+=+=+=+=+=+=+=+=+=+=+=+=+=+=+=+=+=+-+=+*+A.A.A.D.E.F.G.H.      ",
"        y.% V.A.W.X.Y.X.X.X.X.X.X.X.X.X.Y.X.Z.A.`.C.B.A.A.A.;+*+u.*+*+*+*+*+*+*+*+*+*+*+*+*+*+*+*+*+u.*+;+A.A.A.D.E.F.G.H.      ",
"        y.% V.A.W.X.Y.X.X.X.X.X.X.X.X.X.Y.X.Z.A.`.C.B.A.A.A.A.A.A.A.A.A.A.A.A.A.A.A.A.A.A.A.A.A.A.A.A.A.A.A.A.A.D.E.F.G.H.      ",
"        y.% V.A.W.X.Y.X.X.X.X.X.X.X.X.X.Y.X.Z.A.`.C.B.A.A.A.;+*+u.*+*+*+*+*+*+*+*+*+*+*+*+*+*+*+*+*+u.*+;+A.A.A.D.E.F.G.H.      ",
"        y.% V.A.W.X.Y.X.X.X.X.X.X.X.X.X.Y.X.Z.A.`.C.B.A.A.A.*+=+-+=+=+=+=+=+=+=+=+=+=+=+=+=+=+=+=+=+-+=+*+A.A.A.D.E.F.G.H.      ",
"        y.% V.A.W.X.Y.X.X.X.X.X.X.X.X.X.Y.X.Z.A.`.C.B.A.A.A.;+*+u.*+*+*+*+*+*+*+*+*+*+*+*+*+*+*+*+*+u.*+;+A.A.A.D.E.F.G.H.      ",
"        y.% V.A.W.X.Y.X.X.X.X.X.X.X.X.X.Y.X.Z.A.`.C.B.A.A.A.A.A.A.A.A.A.A.A.A.A.A.A.A.A.A.A.A.A.A.A.A.A.A.A.A.A.D.E.F.G.H.      ",
"        y.%  +A..+Y.++Y.Y.Y.Y.Y.Y.Y.Y.Y.++Y.@+A.#+C.B.A.A.A.;+*+u.*+*+*+*+*+*+*+*+*+*+*+*+*+*+*+*+*+u.*+;+A.A.A.D.E.F.$ >+      ",
"        y.% V.A.W.X.Y.X.X.X.X.X.X.X.X.X.Y.X.Z.A.`.C.B.A.A.A.*+=+-+=+=+=+=+=+=+=+=+=+=+=+=+=+=+=+=+=+-+=+*+A.A.A.D.E.F.G.H.      ",
"        y.% ,+A.'+)+!+)+)+)+)+)+)+)+)+)+!+)+~+A.{+C.B.A.A.A.$+%+&+%+%+%+%+%+%+%+%+%+%+%+%+%+%+%+%+%+&+%+$+A.A.A.[.E.]+* ^+      ",
"        y.% z.A.A.A.A.A.A.A.A.A.A.A.A.A.A.A.A.A.B.C.B.A.A.A.A.A.A.A.A.A.A.A.A.A.A.A.A.A.A.A.A.A.A.A.A.A.A.A.A.A.[.E./+(+_+      ",
"        y.% :+A.<+[+}+[+[+[+[+[+[+[+[+[+}+[+|+A.1+C.B.A.A.A.A.A.A.A.A.A.A.A.A.A.A.A.A.A.A.A.A.A.A.A.A.A.A.A.A.A.[.E.2+3+4+      ",
"        y.% 5+A.6+7+8+7+7+7+7+7+7+7+7+7+8+7+9+A.0+C.B.A.A.A.A.A.A.A.A.A.A.A.A.A.A.A.A.A.A.A.A.A.A.A.A.A.A.A.A.A.[.E.a+b+c+      ",
"        y.% :+A.<+[+}+[+[+[+[+[+[+[+[+[+}+[+|+A.1+C.B.A.A.A.A.A.A.A.A.A.A.A.A.A.A.A.A.A.A.A.A.A.A.A.A.A.A.A.A.A.D.E.d+e+U.      ",
"        y.% z.A.A.A.A.A.A.A.A.A.A.A.A.A.A.A.A.A.B.C.B.A.A.A.A.A.A.A.A.A.A.A.A.A.A.A.A.A.A.A.A.A.A.A.A.A.A.A.A.A.D.E.F.G.H.      ",
"        y.% ,+A.'+)+!+)+)+)+)+)+)+)+)+)+!+)+~+A.{+C.B.A.A.A.$+%+&+%+%+%+%+%+%+%+%+%+%+%+%+%+%+%+%+%+&+%+$+A.A.A.D.E.F.f+>+      ",
"        y.% V.A.W.X.Y.X.X.X.X.X.X.X.X.X.Y.X.Z.A.`.C.B.A.A.A.*+=+-+=+=+=+=+=+=+=+=+=+=+=+=+=+=+=+=+=+-+=+*+A.A.A.D.E.g+% h+      ",
"        y.%  +A..+Y.++Y.Y.Y.Y.Y.Y.Y.Y.Y.++Y.@+A.#+C.B.A.A.A.;+*+u.*+*+*+*+*+*+*+*+*+*+*+*+*+*+*+*+*+u.*+;+A.A.A.i+E.g+% h+      ",
"        y.% V.A.W.X.Y.X.X.X.X.X.X.X.X.X.Y.X.Z.A.`.C.B.A.A.A.A.A.A.A.A.A.A.A.A.A.A.A.A.A.A.A.A.A.A.A.A.A.A.A.A.A.D.E.g+% h+      ",
"        y.% V.A.W.X.Y.X.X.X.X.X.X.X.X.X.Y.X.Z.A.`.C.B.A.A.A.;+*+u.*+*+*+*+*+*+*+*+*+*+*+*+*+*+*+*+*+u.*+;+A.A.A.D.E.g+% h+      ",
"        y.% V.A.W.X.Y.X.X.X.X.X.X.X.X.X.Y.X.Z.A.`.C.B.A.A.A.*+=+-+=+=+=+=+=+=+=+=+=+=+=+=+=+=+=+=+=+-+=+*+A.A.A.D.E.g+% h+      ",
"        y.% V.A.W.X.Y.X.X.X.X.X.X.X.X.X.Y.X.Z.A.`.C.B.A.A.A.;+*+u.*+*+*+*+*+*+*+*+*+*+*+*+*+*+*+*+*+u.*+;+A.A.A.D.E.g+% h+      ",
"        y.% V.A.W.X.Y.X.X.X.X.X.X.X.X.X.Y.X.Z.A.`.C.B.A.A.A.A.A.A.A.A.A.A.A.A.A.A.A.A.A.A.A.A.A.A.A.A.A.A.A.A.A.D.E.g+% h+      ",
"        y.% V.A.W.X.Y.X.X.X.X.X.X.X.X.X.Y.X.Z.A.`.C.B.A.A.A.;+*+u.*+*+*+*+*+*+*+*+*+*+*+*+*+*+*+*+*+u.*+;+A.A.A.D.E.g+% h+      ",
"        y.% V.A.W.X.Y.X.X.X.X.X.X.X.X.X.Y.X.Z.A.`.C.B.A.A.A.*+=+-+=+=+=+=+=+=+=+=+=+=+=+=+=+=+=+=+=+-+=+*+A.A.A.D.E.g+% h+      ",
"        y.%  +A..+Y.++Y.Y.Y.Y.Y.Y.Y.Y.Y.++Y.@+A.#+C.B.A.A.A.$+%+&+%+%+%+%+%+%+%+%+%+%+%+%+%+%+%+%+%+&+%+$+A.A.A.i+E.g+% h+      ",
"        y.% V.A.W.X.Y.X.X.X.X.X.X.X.X.X.Y.X.Z.A.`.C.B.A.A.A.A.A.A.A.A.A.A.A.A.A.A.A.A.A.A.A.A.A.A.A.A.A.A.A.A.A.D.E.g+% h+      ",
"        I.% J.A.K.L.M.L.L.L.L.L.L.L.L.L.M.L.N.A.O.P.Q.A.A.A.A.A.A.A.A.A.A.A.A.A.A.A.A.A.A.A.A.A.A.A.A.A.A.A.A.A.R.S.j+$ >+      ",
"        y.% z.A.A.A.A.A.A.A.A.A.A.A.A.A.A.A.A.A.B.C.B.A.A.A.A.A.A.A.A.A.A.A.A.A.A.A.A.A.A.A.A.A.A.A.A.A.A.A.A.A.D.E.F.G.H.      ",
"        k+& l+m+n+o+p+o+o+o+o+o+o+o+o+o+p+o+q+m+r+s+t+m+u+m+m+m+m+m+m+m+m+m+m+m+m+m+m+m+m+m+m+m+m+m+m+m+m+m+v+m+w+x+y+z+A+      ",
"        b.% c.d.e.d.d.d.d.d.d.d.d.d.d.d.d.d.d.d.d.d.d.d.d.d.d.d.d.d.d.d.d.d.d.d.d.d.d.d.d.d.d.d.d.d.d.d.d.d.d.d.e.d.f.% g.      ",
"          * B+C+D+E+E+E+E+E+E+E+E+E+E+E+E+E+E+E+F+G+F+E+E+E+E+E+E+E+E+E+E+E+E+E+E+E+E+E+E+E+E+E+E+E+E+E+E+E+E+E+H+I+J+K+L+      ",
"          = * % & % % % % % % % % % % % % % % % % % % % % % % % % % % % % % % % % % % % % % % % % % % % % % % % M+% K+N+O+      ",
"              P+Q+R+S+g.g.g.g.g.g.g.g.g.g.g.g.g.g.g.g.g.g.g.g.g.g.g.g.g.g.g.g.g.g.g.g.g.g.g.g.g.g.g.g.g.g.g.g.g.R+g.T+O+        ",
"                                                                                                                                ",
"                                                                                                                                ",
"                                                                                                                                ",
"                                                                                                                                ",
"                                                                                                                                ",
"                                                                                                                                ",
"                                                                                                                                "};
