/* XPM */
static char * mozilla_thunderbird_enigmail_xpm[] = {
"32 32 413 2",
"  	c None",
". 	c #7A8093",
"+ 	c #7E8598",
"@ 	c #81879B",
"# 	c #7E8599",
"$ 	c #7B8194",
"% 	c #757B8E",
"& 	c #81889C",
"* 	c #98A0B8",
"= 	c #B0B9D3",
"- 	c #C0CBE3",
"; 	c #C6D1E9",
"> 	c #BFC9E4",
", 	c #ADB6D1",
"' 	c #929AB1",
") 	c #7B8295",
"! 	c #787F92",
"~ 	c #9299B0",
"{ 	c #C4CEE5",
"] 	c #EAF2FC",
"^ 	c #F6FCFF",
"/ 	c #F4FEFF",
"( 	c #EEFAFF",
"_ 	c #E5F1FF",
": 	c #DAE5FE",
"< 	c #C4CEED",
"[ 	c #9CA4BD",
"} 	c #777C8E",
"| 	c #D3DDF2",
"1 	c #F9FDFF",
"2 	c #EEF6FE",
"3 	c #D3DEF3",
"4 	c #C1CBE5",
"5 	c #BCC6E1",
"6 	c #C2CCE8",
"7 	c #CCD7F5",
"8 	c #CCD6F6",
"9 	c #B9C3DF",
"0 	c #8E96AC",
"a 	c #757D8F",
"b 	c #848A9F",
"c 	c #C4CFE7",
"d 	c #F3FCFF",
"e 	c #DBE6F8",
"f 	c #AAB3CD",
"g 	c #8A91A7",
"h 	c #7F869A",
"i 	c #7E8498",
"j 	c #878EA3",
"k 	c #A0A9C2",
"l 	c #BAC4E1",
"m 	c #BBC5E2",
"n 	c #A0A8C1",
"o 	c #787E91",
"p 	c #A1A9C2",
"q 	c #E3EEFD",
"r 	c #DEE9FB",
"s 	c #A2ABC4",
"t 	c #7C8296",
"u 	c #7D8599",
"v 	c #9FA7C0",
"w 	c #B3BCD8",
"x 	c #A6AFC9",
"y 	c #838A9F",
"z 	c #BAC4E0",
"A 	c #E2EDFE",
"B 	c #B9C2DE",
"C 	c #757C8E",
"D 	c #8991A6",
"E 	c #A5ADC7",
"F 	c #8990A5",
"G 	c #767D8E",
"H 	c #8A91A6",
"I 	c #C7D2EF",
"J 	c #D3DEFA",
"K 	c #9DA5BE",
"L 	c #787D90",
"M 	c #828799",
"N 	c #A0A7BB",
"O 	c #A8AEC2",
"P 	c #9499A9",
"Q 	c #80838F",
"R 	c #747A8D",
"S 	c #949CB3",
"T 	c #C9D4F3",
"U 	c #C3CEEC",
"V 	c #8E95AB",
"W 	c #878A95",
"X 	c #A4A7B2",
"Y 	c #AFB1BC",
"Z 	c #9FA1A9",
"` 	c #8A8B91",
" .	c #7A8090",
"..	c #A0A6BC",
"+.	c #CDD5EE",
"@.	c #C0C7DD",
"#.	c #8E93A2",
"$.	c #8E8E92",
"%.	c #A8A8AB",
"&.	c #B5B4B6",
"*.	c #A8A7A8",
"=.	c #949292",
"-.	c #858792",
";.	c #B0B3C1",
">.	c #D5D9E7",
",.	c #C4C7D2",
"'.	c #95969D",
").	c #CD9B6E",
"!.	c #CE9B6E",
"~.	c #9A958F",
"{.	c #AFABA7",
"].	c #BAB6B0",
"^.	c #B0ACA5",
"/.	c #9E9992",
"(.	c #8F9095",
"_.	c #BCBCC1",
":.	c #DCDBDF",
"<.	c #C9C8CA",
"[.	c #9C9B9B",
"}.	c #C09772",
"|.	c #CC9B6F",
"1.	c #D4A87B",
"2.	c #DBB487",
"3.	c #E1BF91",
"4.	c #E6C899",
"5.	c #EACEA0",
"6.	c #A9A294",
"7.	c #B5AFA4",
"8.	c #BFB8AB",
"9.	c #B6AFA1",
"0.	c #A6A092",
"a.	c #CA996F",
"b.	c #9B9793",
"c.	c #C6C3BF",
"d.	c #E1DDD6",
"e.	c #CEC9C2",
"f.	c #A39F98",
"g.	c #E9DBB5",
"h.	c #FFF5CA",
"i.	c #B4AC99",
"j.	c #BBB29F",
"k.	c #BEB4A1",
"l.	c #B9AF9B",
"m.	c #AFA692",
"n.	c #F0DFB5",
"o.	c #D0A57A",
"p.	c #C69469",
"q.	c #C39066",
"r.	c #CDA179",
"s.	c #A59F95",
"t.	c #CDC7BA",
"u.	c #E3DBCC",
"v.	c #D2CABB",
"w.	c #ACA698",
"x.	c #F2EACA",
"y.	c #FFF7D3",
"z.	c #C1B89F",
"A.	c #B6AC94",
"B.	c #B7AC93",
"C.	c #BCB197",
"D.	c #DBD2B4",
"E.	c #F7EAC4",
"F.	c #D8BE91",
"G.	c #C39167",
"H.	c #C08D64",
"I.	c #E5CEAB",
"J.	c #FEF8DB",
"K.	c #B0A898",
"L.	c #C9C0AD",
"M.	c #CAC0AC",
"N.	c #C1B7A3",
"O.	c #B4AB97",
"P.	c #F8F1D6",
"Q.	c #FFF8DC",
"R.	c #FDF6DA",
"S.	c #F3ECD0",
"T.	c #F2E9CE",
"U.	c #F3E4C2",
"V.	c #E8CB9E",
"W.	c #D6B382",
"X.	c #CAA776",
"Y.	c #BF8D64",
"Z.	c #BB8A62",
"`.	c #D7B689",
" +	c #EDDCBC",
".+	c #D4CDB8",
"++	c #C5BCA7",
"@+	c #C9C0AA",
"#+	c #D6CFB9",
"$+	c #F2EDD7",
"%+	c #FFFAE4",
"&+	c #FEF8E2",
"*+	c #F7EDD2",
"=+	c #EDDEBD",
"-+	c #E3CEA8",
";+	c #E5CAA0",
">+	c #E9D1AD",
",+	c #E5DFD6",
"'+	c #ECD3B1",
")+	c #EAC696",
"!+	c #DDBA89",
"~+	c #D0AD7C",
"{+	c #B8865F",
"]+	c #D3AF83",
"^+	c #FECC71",
"/+	c #FECF86",
"(+	c #FBD090",
"_+	c #F6CF95",
":+	c #F1CC94",
"<+	c #EBC68E",
"[+	c #E4BD84",
"}+	c #DCB378",
"|+	c #D3A86B",
"1+	c #CEA469",
"2+	c #CAA269",
"3+	c #CBA46E",
"4+	c #E0BB87",
"5+	c #F0D5B0",
"6+	c #EFE8DF",
"7+	c #F5DCBA",
"8+	c #F2CE9E",
"9+	c #E4C090",
"0+	c #D3B07F",
"a+	c #B4825C",
"b+	c #D1AC80",
"c+	c #FFD576",
"d+	c #FFCE75",
"e+	c #FEC875",
"f+	c #FBC374",
"g+	c #F3BE74",
"h+	c #ECB973",
"i+	c #E6B672",
"j+	c #E0B272",
"k+	c #DBAF71",
"l+	c #C79D62",
"m+	c #A47B43",
"n+	c #A67F49",
"o+	c #E1BC88",
"p+	c #F8DEB9",
"q+	c #F8F1E8",
"r+	c #FCE4C1",
"s+	c #F6D3A2",
"t+	c #E5C191",
"u+	c #B07E5A",
"v+	c #CFA87E",
"w+	c #1D1AED",
"x+	c #997AAE",
"y+	c #F5C37C",
"z+	c #EFBE7B",
"A+	c #8E73AC",
"B+	c #3029DD",
"C+	c #2821D5",
"D+	c #483592",
"E+	c #9D7844",
"F+	c #FEE6C1",
"G+	c #6864ED",
"H+	c #453BD4",
"I+	c #AC7B57",
"J+	c #CDA57B",
"K+	c #9276A1",
"L+	c #CDB8A2",
"M+	c #FFDE8A",
"N+	c #9A83B5",
"O+	c #FDCC85",
"P+	c #967AB2",
"Q+	c #352DE0",
"R+	c #84605E",
"S+	c #8A6026",
"T+	c #6E4F51",
"U+	c #564081",
"V+	c #FBE5C0",
"W+	c #8275DA",
"X+	c #CFAE9B",
"Y+	c #7C5A89",
"Z+	c #A87754",
"`+	c #CBA179",
" @	c #6A56B9",
".@	c #FFF198",
"+@	c #FFE995",
"@@	c #9A89BA",
"#@	c #362FE2",
"$@	c #FFD58F",
"%@	c #987CB6",
"&@	c #9A6E30",
"*@	c #8F652A",
"=@	c #8A622A",
"-@	c #87602A",
";@	c #997440",
">@	c #CCBBCD",
",@	c #B3A2D1",
"'@	c #896275",
")@	c #A47452",
"!@	c #C99D77",
"~@	c #5645C5",
"{@	c #6865D4",
"]@	c #4F4ADB",
"^@	c #B3A1B6",
"/@	c #B39CB4",
"(@	c #FED494",
"_@	c #BF9355",
":@	c #B2949A",
"<@	c #B3A4D1",
"[@	c #4F47E3",
"}@	c #6557D4",
"|@	c #594CC8",
"1@	c #A0704F",
"2@	c #C79A74",
"3@	c #6866DA",
"4@	c #B3B2C3",
"5@	c #B3B1C1",
"6@	c #E6DDAF",
"7@	c #FFEFA4",
"8@	c #B3A3BA",
"9@	c #FFDA99",
"0@	c #FACF92",
"a@	c #AF854A",
"b@	c #6A4E6F",
"c@	c #F7D29E",
"d@	c #685FDF",
"e@	c #3633ED",
"f@	c #AD95BB",
"g@	c #B99CA5",
"h@	c #9C6C4D",
"i@	c #B1887F",
"j@	c #B3B2CF",
"k@	c #FFFFBB",
"l@	c #FFFFB6",
"m@	c #FFFEB2",
"n@	c #FFF8AE",
"o@	c #E6D7B0",
"p@	c #B39AB5",
"q@	c #FCD093",
"r@	c #987355",
"s@	c #372CC3",
"t@	c #362BC3",
"u@	c #E9C490",
"v@	c #4F48E3",
"w@	c #FFE6C3",
"x@	c #99684A",
"y@	c #8B6A99",
"z@	c #E6E5D0",
"A@	c #FFFFC7",
"B@	c #FFFFC1",
"C@	c #FFFCB3",
"D@	c #FFF0A9",
"E@	c #B3A1BA",
"F@	c #362FE3",
"G@	c #4C3CB6",
"H@	c #6D5275",
"I@	c #C8A36F",
"J@	c #9A95EE",
"K@	c #956547",
"L@	c #C08F6D",
"M@	c #FFFFDA",
"N@	c #FFFFD2",
"O@	c #FFFFC8",
"P@	c #FFFFBD",
"Q@	c #FFE5A1",
"R@	c #FFDA9A",
"S@	c #B1874C",
"T@	c #B48B53",
"U@	c #B48D57",
"V@	c #B5905C",
"W@	c #FEE9C4",
"X@	c #FFF8EF",
"Y@	c #D1AD7D",
"Z@	c #916145",
"`@	c #BE8B6B",
" #	c #FFFFE3",
".#	c #FFFFD5",
"+#	c #C89C5F",
"@#	c #C69C61",
"##	c #CDA56C",
"$#	c #D5AE78",
"%#	c #EFCA95",
"&#	c #EBC698",
"*#	c #BC936C",
"=#	c #97694A",
"-#	c #916144",
";#	c #8D5D41",
">#	c #A77557",
",#	c #BC8768",
"'#	c #F2C78D",
")#	c #E8BF87",
"!#	c #E3BD87",
"~#	c #F3CD9A",
"{#	c #E4C7A3",
"]#	c #C7AC98",
"^#	c #A67C5F",
"/#	c #8D5D43",
"(#	c #8D5E42",
"_#	c #89593F",
":#	c #966549",
"<#	c #DCCCAE",
"[#	c #EFE8BF",
"}#	c #FBF6C0",
"|#	c #FEF9B8",
"1#	c #FDF6AE",
"2#	c #F7E5A2",
"3#	c #EFD194",
"4#	c #E3BC85",
"5#	c #D4A776",
"6#	c #BE9267",
"7#	c #AB7E59",
"8#	c #996B4C",
"9#	c #8B5C41",
"0#	c #8A593F",
"a#	c #8A5A40",
"b#	c #86573D",
"c#	c #85563C",
"d#	c #85553C",
"e#	c #85563D",
"f#	c #86563C",
"                                                                ",
"                              . + @ # $ %                       ",
"                          & * = - ; > , ' )                     ",
"                      ! ~ { ] ^ / ( _ : < [ $                   ",
"                    } ' | 1 2 3 4 5 6 7 8 9 0 a                 ",
"                    b c d e f g h i j k l m n )                 ",
"                  o p q r s t         u v w x y                 ",
"                  # z A B &           C D x E F G               ",
"                  H I J K L             M N O P Q               ",
"                R S T U V               W X Y Z `               ",
"                 ...+.@.#.              $.%.&.*.=.              ",
"                -.;.>.,.'.          ).!.~.{.].^./.              ",
"                (._.:.<.[.}.|.1.2.3.4.5.6.7.8.9.0.a.            ",
"                b.c.d.e.f.g.h.h.h.h.h.h.i.j.k.l.m.n.o.p.        ",
"            q.r.s.t.u.v.w.x.y.y.y.y.y.y.z.A.B.C.D.E.F.G.        ",
"          H.I.J.K.L.M.N.O.P.Q.Q.Q.Q.Q.Q.R.S.T.U.V.W.X.Y.        ",
"          Z.`. +.+++@+#+$+%+%+%+&+*+=+-+;+>+,+'+)+!+~+Z.        ",
"          {+]+]+^+/+(+_+:+<+[+}+|+1+2+3+4+5+6+7+8+9+0+{+        ",
"          a+b+b+c+d+e+f+g+h+i+j+k+l+m+n+o+p+q+r+s+t+0+a+        ",
"          u+v+v+w+w+w+w+x+y+z+A+B+w+C+D+E+F+G+w+w+w+H+u+        ",
"          I+J+K+w+L+M+N+w+O+P+Q+R+S+T+w+U+V+w+W+s+X+w+Y+        ",
"          Z+`+ @w+.@+@@@#@$@w+%@&@*@=@-@;@>@w+,@s+X+w+'@        ",
"          )@!@~@w+{@]@w+^@/@w+(@_@w+w+w+:@<@w+[@}@w+|@)@        ",
"          1@2@w+3@4@5@6@7@8@w+9@0@a@b@w+c@d@e@,@f@g@0+1@        ",
"          h@i@w+j@k@l@m@n@o@w+p@q@r@s@t@u@v@G+w@s+t+0+h@        ",
"          x@y@w+z@A@B@k@C@D@E@F@w+w+G@H@I@w+J@w@s+t+0+x@        ",
"          K@L@L@M@N@O@P@C@D@Q@R@|+S@T@U@V@W@X@w@s+t+Y@K@        ",
"          Z@`@`@ #.#O@P@C@D@Q@R@+#@###$#%#W@X@w@&#*#=#-#        ",
"          ;#>#,# #.#O@P@C@D@Q@R@q@'#)#!#~#{#]#^#/#(#            ",
"            _#:#<#[#}#|#1#2#3#4#5#6#7#8#9#0#a#                  ",
"                b#c#d#c#c#e#f#f#c#b#                            ",
"                                                                "};
