/* XPM */
static char * firefox_webdeveloper_xpm[] = {
"32 32 125 2",
"  	c None",
". 	c #DCDDE1",
"+ 	c #DEDEDE",
"@ 	c #777E9D",
"# 	c #A5AABA",
"$ 	c #E0E0E2",
"% 	c #656565",
"& 	c #5B5C66",
"* 	c #AEB3C9",
"= 	c #5C5F6E",
"- 	c #3D3D3D",
"; 	c #F1F3F9",
"> 	c #53576B",
", 	c #414141",
"' 	c #8692A5",
") 	c #737D96",
"! 	c #5F5F5F",
"~ 	c #565858",
"{ 	c #A1A4B6",
"] 	c #E3E7EB",
"^ 	c #8E94A4",
"/ 	c #DFE5EC",
"( 	c #C0C6CD",
"_ 	c #8990A3",
": 	c #E5F2FA",
"< 	c #474A5B",
"[ 	c #7B8092",
"} 	c #9097AB",
"| 	c #4F5568",
"1 	c #9FA3AF",
"2 	c #FBFFFF",
"3 	c #F4FBFD",
"4 	c #D7E0E6",
"5 	c #C9D1DA",
"6 	c #BFC9D0",
"7 	c #B9C5D0",
"8 	c #4B5262",
"9 	c #626B81",
"0 	c #7E86A7",
"a 	c #ADB0B0",
"b 	c #CECECE",
"c 	c #585B66",
"d 	c #DADEE9",
"e 	c #E9F0F4",
"f 	c #F7FCFF",
"g 	c #F1F4FB",
"h 	c #9299AD",
"i 	c #B0B6C5",
"j 	c #D9E1E8",
"k 	c #9EA8B6",
"l 	c #BFCBDB",
"m 	c #707A92",
"n 	c #9D9D9D",
"o 	c #2C2C37",
"p 	c #C8CDD4",
"q 	c #D7DBE5",
"r 	c #565B6C",
"s 	c #868786",
"t 	c #777880",
"u 	c #7E8497",
"v 	c #AEB9CB",
"w 	c #57607B",
"x 	c #939393",
"y 	c #C5C5C5",
"z 	c #B3B6BE",
"A 	c #949CB1",
"B 	c #B5B9C6",
"C 	c #D0D7DD",
"D 	c #E4EBF1",
"E 	c #60677C",
"F 	c #C9C9C9",
"G 	c #80848D",
"H 	c #AAAFC0",
"I 	c #AAB5C8",
"J 	c #838FAD",
"K 	c #6F7894",
"L 	c #AFB2BA",
"M 	c #C5CCD5",
"N 	c #5E6478",
"O 	c #AAAAAA",
"P 	c #848992",
"Q 	c #AEB3C3",
"R 	c #ADB8C4",
"S 	c #B0BDCD",
"T 	c #B4B4B4",
"U 	c #242838",
"V 	c #BCC1CB",
"W 	c #BDC5CE",
"X 	c #5E6373",
"Y 	c #A1A2A1",
"Z 	c #5E6378",
"` 	c #8F8F8F",
" .	c #565966",
"..	c #CFD8E3",
"+.	c #A2A7B8",
"@.	c #BFC3D0",
"#.	c #E4EFF8",
"$.	c #E8EDF6",
"%.	c #6E7788",
"&.	c #7D859C",
"*.	c #393E52",
"=.	c #8E99A7",
"-.	c #A4AFBC",
";.	c #B6C0CC",
">.	c #4A4D5E",
",.	c #98989B",
"'.	c #636363",
").	c #5A5A5A",
"!.	c #949495",
"~.	c #8B95AC",
"{.	c #7C83A0",
"].	c #BCBCBC",
"^.	c #B9B9B9",
"/.	c #C1C1C1",
"(.	c #999CA6",
"_.	c #909DBF",
":.	c #626878",
"<.	c #6D6D6D",
"[.	c #C9D6F4",
"}.	c #797979",
"|.	c #7A87A8",
"1.	c #9EA0A4",
"2.	c #ACACAC",
"3.	c #5B6487",
"4.	c #767C8C",
"                                                                ",
"          .   + @ #   . $                                       ",
"    % % & * = - ; > , ' ) ! % % % % % % % % % % % % % % % %     ",
"    % % ~ { ] ^ / ( _ : < ! % % % % % % % % % % % % % % % %     ",
"    [ } | 1 2 3 4 5 6 7 8 9 0 a b b b b b b b b b b b b % %     ",
"    c d 2 e f g h i j k l : m n b b b b b b b b b b b b % %     ",
"    % o p / q r s t u 5 v w x y b b b b b b b b b b b b % %     ",
"  z A B C D E n F b G H # I J K F b b b b b b b b b b b % %     ",
"  L } B M / N O b b P Q R S J 9 T b % % % % % % % % b b % %     ",
"    ! U V W . X Y P _ e q Z ` T F b % % % % % % % % b b % %     ",
"     ...f R V ; +.@.2 #.$.f m T b b % % % % % % % % b b % %     ",
"    %.&.*.=.R Q -.;.q q >.Z @ ,.b b % % % % % % % % b b % %     ",
"    '.).!.~.l {.v Q ' #.E ].^./.b b % % % % % % % % b b % %     ",
"    % % (._.:.<.[.Z }.|.@ ].b b b b % % % % % % % % b b % %     ",
"    % % F 1.2.2.3.4.].O ,./.b b b b % % % % % % % % b b % %     ",
"    % % b b b b /.T F b b b b b b b % % % % % % % % b b % %     ",
"    % % b b b b b b b b b b b b b b b b b b b b b b b b % %     ",
"    % % b b b b b b b b b b b b b b b b b b b b b b b b % %     ",
"    % % b b b b % % % % % % % % b b % % % % % % % % b b % %     ",
"    % % b b b b % % % % % % % % b b % % % % % % % % b b % %     ",
"    % % b b b b % % % % % % % % b b % % % % % % % % b b % %     ",
"    % % b b b b % % % % % % % % b b % % % % % % % % b b % %     ",
"    % % b b b b % % % % % % % % b b % % % % % % % % b b % %     ",
"    % % b b b b % % % % % % % % b b % % % % % % % % b b % %     ",
"    % % b b b b % % % % % % % % b b % % % % % % % % b b % %     ",
"    % % b b b b % % % % % % % % b b % % % % % % % % b b % %     ",
"    % % b b b b b b b b b b b b b b b b b b b b b b b b % %     ",
"    % % b b b b b b b b b b b b b b b b b b b b b b b b % %     ",
"    % % % % % % % % % % % % % % % % % % % % % % % % % % % %     ",
"    % % % % % % % % % % % % % % % % % % % % % % % % % % % %     ",
"                                                                ",
"                                                                "};
