/* XPM */
static char * firefox_greasemonkey_xpm[] = {
"64 64 32 1",
" 	c None",
".	c #94532B",
"+	c #963E02",
"@	c #A04F1D",
"#	c #A84701",
"$	c #B17051",
"%	c #DE988C",
"&	c #D48E89",
"*	c #B76536",
"=	c #8C6B56",
"-	c #EDB5B7",
";	c #FFCFCE",
">	c #E7A6A5",
",	c #965E42",
"'	c #C07A6B",
")	c #8F4A1B",
"!	c #BD4F00",
"~	c #F7C3C6",
"{	c #CC836F",
"]	c #B54D00",
"^	c #888786",
"/	c #CD7959",
"(	c #000000",
"_	c #B85610",
":	c #DA9C9C",
"<	c #CB5D10",
"[	c #A9A8A9",
"}	c #BD9A9C",
"|	c #CEA6A5",
"1	c #FFC7C6",
"2	c #6B595A",
"3	c #886D6B",
"                                                                ",
"                                                                ",
"                    ....++++++++++++@@@@                        ",
"                    ....++++++++++++@@@@                        ",
"                    ....++++++++++++@@@@                        ",
"                    ....++++++++++++@@@@                        ",
"                ++++########################....                ",
"                ++++########################....                ",
"                ++++########################....                ",
"                ++++########################....                ",
"            $$$$%%%%&&&&****####****&&&&%%%%$$$$====            ",
"            $$$$%%%%&&&&****####****&&&&%%%%$$$$====            ",
"            $$$$%%%%&&&&****####****&&&&%%%%$$$$====            ",
"            $$$$%%%%&&&&****####****&&&&%%%%$$$$====            ",
"        $$$$----;;;;;;;;>>>>****>>>>;;;;;;;;----,,,,$$$$        ",
"        $$$$----;;;;;;;;>>>>****>>>>;;;;;;;;----,,,,$$$$        ",
"        $$$$----;;;;;;;;>>>>****>>>>;;;;;;;;----,,,,$$$$        ",
"        $$$$----;;;;;;;;>>>>****>>>>;;;;;;;;----,,,,$$$$        ",
"$$$$####'''';;;;;;;;;;;;;;;;&&&&;;;;;;;;;;;;;;;;''''####))))    ",
"$$$$####'''';;;;;;;;;;;;;;;;&&&&;;;;;;;;;;;;;;;;''''####))))    ",
"$$$$####'''';;;;;;;;;;;;;;;;&&&&;;;;;;;;;;;;;;;;''''####))))    ",
"$$$$####'''';;;;;;;;;;;;;;;;&&&&;;;;;;;;;;;;;;;;''''####))))    ",
"****!!!!'''';;;;;;;;;;;;;;;;~~~~;;;;;;;;;;;;;;;;{{{{]]]]####^^^^",
"****!!!!'''';;;;;;;;;;;;;;;;~~~~;;;;;;;;;;;;;;;;{{{{]]]]####^^^^",
"****!!!!'''';;;;;;;;;;;;;;;;~~~~;;;;;;;;;;;;;;;;{{{{]]]]####^^^^",
"****!!!!'''';;;;;;;;;;;;;;;;~~~~;;;;;;;;;;;;;;;;{{{{]]]]####^^^^",
"$$$$####////;;;;;;;;((((((((;;;;((((((((;;;;;;;;////####@@@@^^^^",
"$$$$####////;;;;;;;;((((((((;;;;((((((((;;;;;;;;////####@@@@^^^^",
"$$$$####////;;;;;;;;((((((((;;;;((((((((;;;;;;;;////####@@@@^^^^",
"$$$$####////;;;;;;;;((((((((;;;;((((((((;;;;;;;;////####@@@@^^^^",
"    ++++____::::;;;;((((((((;;;;((((((((;;;;::::<<<<####,,,,^^^^",
"    ++++____::::;;;;((((((((;;;;((((((((;;;;::::<<<<####,,,,^^^^",
"    ++++____::::;;;;((((((((;;;;((((((((;;;;::::<<<<####,,,,^^^^",
"    ++++____::::;;;;((((((((;;;;((((((((;;;;::::<<<<####,,,,^^^^",
"    ____{{{{>>>>;;;;;;;;;;;;;;;;;;;;;;;;;;;;>>>>////<<<<....[[[[",
"    ____{{{{>>>>;;;;;;;;;;;;;;;;;;;;;;;;;;;;>>>>////<<<<....[[[[",
"    ____{{{{>>>>;;;;;;;;;;;;;;;;;;;;;;;;;;;;>>>>////<<<<....[[[[",
"    ____{{{{>>>>;;;;;;;;;;;;;;;;;;;;;;;;;;;;>>>>////<<<<....[[[[",
"    &&&&;;;;;;;;;;;;;;;;;;;;;;;;;;;;;;;;;;;;;;;;;;;;&&&&****[[[[",
"    &&&&;;;;;;;;;;;;;;;;;;;;;;;;;;;;;;;;;;;;;;;;;;;;&&&&****[[[[",
"    &&&&;;;;;;;;;;;;;;;;;;;;;;;;;;;;;;;;;;;;;;;;;;;;&&&&****[[[[",
"    &&&&;;;;;;;;;;;;;;;;;;;;;;;;;;;;;;;;;;;;;;;;;;;;&&&&****[[[[",
"    --------((((}}}};;;;;;;;;;;;;;;;;;;;||||((((||||----))))[[[[",
"    --------((((}}}};;;;;;;;;;;;;;;;;;;;||||((((||||----))))[[[[",
"    --------((((}}}};;;;;;;;;;;;;;;;;;;;||||((((||||----))))[[[[",
"    --------((((}}}};;;;;;;;;;;;;;;;;;;;||||((((||||----))))[[[[",
"    {{{{11112222((((((((((((((((((((((((((((22221111{{{{,,,,[[[[",
"    {{{{11112222((((((((((((((((((((((((((((22221111{{{{,,,,[[[[",
"    {{{{11112222((((((((((((((((((((((((((((22221111{{{{,,,,[[[[",
"    {{{{11112222((((((((((((((((((((((((((((22221111{{{{,,,,[[[[",
"    ....////::::;;;;;;;;;;;;;;;;;;;;;;;;;;;;::::////@@@@3333    ",
"    ....////::::;;;;;;;;;;;;;;;;;;;;;;;;;;;;::::////@@@@3333    ",
"    ....////::::;;;;;;;;;;;;;;;;;;;;;;;;;;;;::::////@@@@3333    ",
"    ....////::::;;;;;;;;;;;;;;;;;;;;;;;;;;;;::::////@@@@3333    ",
"        ))))____////%%%%------------%%%%////<<<<))))3333        ",
"        ))))____////%%%%------------%%%%////<<<<))))3333        ",
"        ))))____////%%%%------------%%%%////<<<<))))3333        ",
"        ))))____////%%%%------------%%%%////<<<<))))3333        ",
"            ====@@@@####]]]]]]]]!!!!####@@@@,,,,^^^^            ",
"            ====@@@@####]]]]]]]]!!!!####@@@@,,,,^^^^            ",
"            ====@@@@####]]]]]]]]!!!!####@@@@,,,,^^^^            ",
"            ====@@@@####]]]]]]]]!!!!####@@@@,,,,^^^^            ",
"                                                                ",
"                                                                "};
