/* XPM */
static char * firefox_themes_ubuntu_xpm[] = {
"78 78 4 1",
" 	c None",
".	c #C90016",
"+	c #FF6309",
"@	c #FFB515",
"                                                            ......            ",
"                                                          ..........          ",
"                                                         ............         ",
"                                                         .............        ",
"                                                        ..............        ",
"                                                        ..............        ",
"                                                        ...............       ",
"                                         ++++++++      ................       ",
"                                    ++++++++++++++++    ...............       ",
"                                 +++++++++++++++++++    ..............        ",
"                                +++++++++++++++++++++   ..............        ",
"                                +++++++++++++++++++++    .............        ",
"                                 ++++++++++++++++++++    ............         ",
"                          @      +++++++++++++++++++++    ..........          ",
"                         @@@      +++++++++++++++++++++     ......            ",
"                        @@@@      ++++++++++++++++++++++                      ",
"                       @@@@@@      ++++++++++++++++++++++                     ",
"                      @@@@@@@       +++++++++++++++++++++++        +          ",
"                     @@@@@@@@@      +++++++++++++++++++++++++++++++++         ",
"                    @@@@@@@@@@@      +++++++++++++++++++++++++++++++++        ",
"                   @@@@@@@@@@@@      +++++      +++++++++++++++++++++++       ",
"                  @@@@@@@@@@@@@@                    +++++++++++++++++++       ",
"                  @@@@@@@@@@@@@@                      ++++++++++++++++++      ",
"                 @@@@@@@@@@@@@@@@                      ++++++++++++++++++     ",
"                 @@@@@@@@@@@@@@@@                        ++++++++++++++++     ",
"                @@@@@@@@@@@@@@@@                          ++++++++++++++++    ",
"                @@@@@@@@@@@@@@@                            +++++++++++++++    ",
"               @@@@@@@@@@@@@@@                              +++++++++++++++   ",
"               @@@@@@@@@@@@@@                               +++++++++++++++   ",
"               @@@@@@@@@@@@@@                                ++++++++++++++   ",
"               @@@@@@@@@@@@@                                  ++++++++++++++  ",
"       +++      @@@@@@@@@@@@                                  ++++++++++++++  ",
"     ++++++++    @@@@@@@@@@                                    +++++++++++++  ",
"   +++++++++++    @@@@@@@@@                                    +++++++++++++  ",
"  +++++++++++++   @@@@@@@@@                                    +++++++++++++  ",
"  +++++++++++++    @@@@@@@                                     +++++++++++++  ",
" +++++++++++++++   @@@@@@@                                                    ",
" +++++++++++++++   @@@@@@@                                                    ",
" +++++++++++++++   @@@@@@@                                                    ",
" +++++++++++++++   @@@@@@@                                                    ",
" +++++++++++++++   @@@@@@@                                                    ",
" +++++++++++++++   @@@@@@@                                                    ",
"  +++++++++++++    @@@@@@@                                     .............  ",
"  +++++++++++++   @@@@@@@@@                                    .............  ",
"   +++++++++++    @@@@@@@@@                                    .............  ",
"     ++++++++    @@@@@@@@@@                                    .............  ",
"       +++      @@@@@@@@@@@@                                  ..............  ",
"               @@@@@@@@@@@@@                                  ..............  ",
"               @@@@@@@@@@@@@@                                ..............   ",
"               @@@@@@@@@@@@@@                               ...............   ",
"               @@@@@@@@@@@@@@@                              ...............   ",
"                @@@@@@@@@@@@@@@                            ...............    ",
"                @@@@@@@@@@@@@@@@                          ................    ",
"                 @@@@@@@@@@@@@@@@                        ................     ",
"                 @@@@@@@@@@@@@@@@                      ..................     ",
"                  @@@@@@@@@@@@@@                      ..................      ",
"                  @@@@@@@@@@@@@@                    ...................       ",
"                   @@@@@@@@@@@@      .....      .......................       ",
"                    @@@@@@@@@@@      .................................        ",
"                     @@@@@@@@@      .................................         ",
"                      @@@@@@@       .......................                   ",
"                       @@@@@@      ......................                     ",
"                        @@@@      ......................                      ",
"                         @@@      .....................     @@@@@@            ",
"                          @      .....................    @@@@@@@@@@          ",
"                                 ....................    @@@@@@@@@@@@         ",
"                                .....................    @@@@@@@@@@@@@        ",
"                                .....................   @@@@@@@@@@@@@@        ",
"                                 ...................    @@@@@@@@@@@@@@        ",
"                                    ................    @@@@@@@@@@@@@@@       ",
"                                         .......       @@@@@@@@@@@@@@@@       ",
"                                                        @@@@@@@@@@@@@@@       ",
"                                                        @@@@@@@@@@@@@@        ",
"                                                        @@@@@@@@@@@@@@        ",
"                                                         @@@@@@@@@@@@         ",
"                                                         @@@@@@@@@@@@         ",
"                                                           @@@@@@@@@          ",
"                                                            @@@@@@            "};
