/* XPM */
static char * flashblock_xpm[] = {
"64 64 367 2",
"  	c None",
". 	c #FD7F5F",
"+ 	c #FD6D48",
"@ 	c #FD5329",
"# 	c #FE3B0B",
"$ 	c #FF2900",
"% 	c #FF2800",
"& 	c #FF2C00",
"* 	c #FF3000",
"= 	c #FF3300",
"- 	c #FF3401",
"; 	c #FD8465",
"> 	c #FD6F4B",
", 	c #FD582F",
"' 	c #FE4314",
") 	c #FF3100",
"! 	c #FF3200",
"~ 	c #FF2400",
"{ 	c #FE5D34",
"] 	c #FE7856",
"^ 	c #FE7B5A",
"/ 	c #FE7958",
"( 	c #FE7C5B",
"_ 	c #FF7C5C",
": 	c #FF7754",
"< 	c #FF6A44",
"[ 	c #FF4C1F",
"} 	c #FF4010",
"| 	c #FF3C0B",
"1 	c #FF5E35",
"2 	c #FF8060",
"3 	c #FF957A",
"4 	c #FFA68F",
"5 	c #FFBEAD",
"6 	c #FFCCBF",
"7 	c #FFC3B3",
"8 	c #FF6740",
"9 	c #FF2500",
"0 	c #FE4618",
"a 	c #FE3807",
"b 	c #FF3806",
"c 	c #FF5B32",
"d 	c #FF724E",
"e 	c #FF8566",
"f 	c #FF9A80",
"g 	c #FFAD99",
"h 	c #FFC0B0",
"i 	c #FFCDC0",
"j 	c #FFD7CD",
"k 	c #FFE8E1",
"l 	c #FFEFEB",
"m 	c #FFE2DA",
"n 	c #FF734F",
"o 	c #FF2100",
"p 	c #FE4C20",
"q 	c #FE4619",
"r 	c #FF4D20",
"s 	c #FF7B5A",
"t 	c #FFB39F",
"u 	c #FFDFD7",
"v 	c #FFFFFF",
"w 	c #FF7856",
"x 	c #FF2000",
"y 	c #FF4B1E",
"z 	c #FE5D35",
"A 	c #FFBDAC",
"B 	c #FFE0D8",
"C 	c #FFFBF9",
"D 	c #FFF2EE",
"E 	c #FFCEC2",
"F 	c #FF7957",
"G 	c #FF572D",
"H 	c #FFBCAC",
"I 	c #FFF2EF",
"J 	c #FF4415",
"K 	c #FF572C",
"L 	c #FF8668",
"M 	c #FFC3B4",
"N 	c #FFEAE5",
"O 	c #FFC4B4",
"P 	c #FE5A32",
"Q 	c #FF5025",
"R 	c #FFEDE8",
"S 	c #FFF9F7",
"T 	c #FFD4C9",
"U 	c #FF7C5B",
"V 	c #FF1F00",
"W 	c #FE542A",
"X 	c #FE5930",
"Y 	c #FE643D",
"Z 	c #FFC2B2",
"` 	c #FE977E",
" .	c #FE4C1F",
"..	c #FF7A59",
"+.	c #FFEAE4",
"@.	c #FFFFFE",
"#.	c #FFF1ED",
"$.	c #FFD8CE",
"%.	c #FFC2B3",
"&.	c #FFAE9A",
"*.	c #FF9E86",
"=.	c #FF896B",
"-.	c #FF5930",
";.	c #FE947A",
">.	c #FE8C70",
",.	c #FE653E",
"'.	c #FF9B82",
").	c #FFFDFD",
"!.	c #FFCFC3",
"~.	c #FF8364",
"{.	c #FF6640",
"].	c #FF3E0D",
"^.	c #FE592F",
"/.	c #FE5F38",
"(.	c #FF6B46",
"_.	c #FF896A",
":.	c #FFC7B9",
"<.	c #FFFCFB",
"[.	c #FFE8E2",
"}.	c #FF9378",
"|.	c #FD7C5C",
"1.	c #FB6F4C",
"2.	c #FC643E",
"3.	c #FF5328",
"4.	c #FF3D0C",
"5.	c #FF3604",
"6.	c #FFE7E1",
"7.	c #FFBFAF",
"8.	c #FB3D0E",
"9.	c #F8481D",
"0.	c #F7491F",
"a.	c #FE7A5A",
"b.	c #FF471A",
"c.	c #FF4111",
"d.	c #FF9276",
"e.	c #FFEDE9",
"f.	c #FFF8F6",
"g.	c #FFA58F",
"h.	c #FF714E",
"i.	c #FF5125",
"j.	c #FF2A00",
"k.	c #FB2B00",
"l.	c #F73C0F",
"m.	c #FE7452",
"n.	c #FE7250",
"o.	c #FE633D",
"p.	c #FFB29E",
"q.	c #FFE1D9",
"r.	c #FF6B45",
"s.	c #FF2300",
"t.	c #FE4517",
"u.	c #FE5127",
"v.	c #FF6C48",
"w.	c #FF9980",
"x.	c #FFD3C8",
"y.	c #FFFAF9",
"z.	c #FFB7A4",
"A.	c #FF4B1D",
"B.	c #FF2200",
"C.	c #FFFDFC",
"D.	c #FFE6DF",
"E.	c #FF8D70",
"F.	c #FF2B00",
"G.	c #FE886C",
"H.	c #FF4F23",
"I.	c #FF4314",
"J.	c #FFECE7",
"K.	c #FFDCD2",
"L.	c #FFA892",
"M.	c #F8491E",
"N.	c #F63F11",
"O.	c #FE8264",
"P.	c #FE7F60",
"Q.	c #FE6A46",
"R.	c #FFB19E",
"S.	c #FFB3A0",
"T.	c #F85932",
"U.	c #F15E3A",
"V.	c #EF5D39",
"W.	c #FE5329",
"X.	c #FE5A31",
"Y.	c #FF6D49",
"Z.	c #FF4416",
"`.	c #F94215",
" +	c #FF3705",
".+	c #FF8769",
"++	c #FFE5DE",
"@+	c #FFCCC0",
"#+	c #FF8C70",
"$+	c #FF4F24",
"%+	c #FF1400",
"&+	c #FF1A00",
"*+	c #FF1C00",
"=+	c #FF3704",
"-+	c #FFA189",
";+	c #FFB6A4",
">+	c #FE4F24",
",+	c #FF6843",
"'+	c #FFB4A2",
")+	c #FFAC98",
"!+	c #FF9479",
"~+	c #FF8C6F",
"{+	c #FF5329",
"]+	c #FE4416",
"^+	c #FFCABC",
"/+	c #FE2900",
"(+	c #FE3D0D",
"_+	c #FF7350",
":+	c #FFBBAA",
"<+	c #FFFEFE",
"[+	c #FFFBFA",
"}+	c #FFD6CB",
"|+	c #FF1D00",
"1+	c #FF8667",
"2+	c #FFFEFD",
"3+	c #FE876A",
"4+	c #FF4618",
"5+	c #FF9A81",
"6+	c #FE5C34",
"7+	c #FE613A",
"8+	c #FE6D49",
"9+	c #FF8B6E",
"0+	c #FFC9BB",
"a+	c #FE3000",
"b+	c #FE3F10",
"c+	c #FE714E",
"d+	c #FE3604",
"e+	c #FFDED5",
"f+	c #FFF6F4",
"g+	c #FFEFEA",
"h+	c #FFD9CF",
"i+	c #FFD0C4",
"j+	c #FFCBBE",
"k+	c #FE4E22",
"l+	c #FF5126",
"m+	c #FF6741",
"n+	c #FFB4A1",
"o+	c #FFF7F5",
"p+	c #FF8263",
"q+	c #FF7653",
"r+	c #FF7755",
"s+	c #FF4A1D",
"t+	c #FF2D00",
"u+	c #FE4214",
"v+	c #FFD1C6",
"w+	c #FE4112",
"x+	c #FFCABE",
"y+	c #FFEEEA",
"z+	c #FFEBE6",
"A+	c #FD7553",
"B+	c #FB3403",
"C+	c #FC2200",
"D+	c #FB6844",
"E+	c #F73E11",
"F+	c #FF3B0A",
"G+	c #FF653F",
"H+	c #FFB19D",
"I+	c #FFB5A2",
"J+	c #FF6842",
"K+	c #FC5126",
"L+	c #F74B21",
"M+	c #FF3502",
"N+	c #FF643D",
"O+	c #FFD2C6",
"P+	c #FE6842",
"Q+	c #FF4A1C",
"R+	c #FE8464",
"S+	c #FD3A08",
"T+	c #FD2400",
"U+	c #FE6640",
"V+	c #FFB2A0",
"W+	c #FD714D",
"X+	c #FB3E0E",
"Y+	c #FA2F00",
"Z+	c #FE572D",
"`+	c #FF7A5A",
" @	c #FFB9A7",
".@	c #FF7451",
"+@	c #FE562B",
"@@	c #FA3E0E",
"#@	c #FE5025",
"$@	c #FFA58E",
"%@	c #FD4E23",
"&@	c #FF7F5F",
"*@	c #FFA48E",
"=@	c #FFF0EC",
"-@	c #FD7B5B",
";@	c #FB2C00",
">@	c #FD5D35",
",@	c #FE4213",
"'@	c #FF5024",
")@	c #FF481A",
"!@	c #FE7351",
"~@	c #FE7756",
"{@	c #FFA088",
"]@	c #FFE6E0",
"^@	c #FFF6F3",
"/@	c #FF5E36",
"(@	c #FC4B1F",
"_@	c #FF4E22",
":@	c #FFC8B9",
"<@	c #FF1E00",
"[@	c #FF2600",
"}@	c #FF623A",
"|@	c #FF9D84",
"1@	c #FFEEE9",
"2@	c #FFC7B8",
"3@	c #FF5C32",
"4@	c #FF7B59",
"5@	c #FFF5F3",
"6@	c #FFDBD2",
"7@	c #FD6944",
"8@	c #FA4113",
"9@	c #F93605",
"0@	c #FA4D22",
"a@	c #F5532B",
"b@	c #F4522A",
"c@	c #FB6D49",
"d@	c #F8532A",
"e@	c #F64E25",
"f@	c #F4552E",
"g@	c #FF8161",
"h@	c #F8481C",
"i@	c #EF623F",
"j@	c #FFD1C5",
"k@	c #FFF5F2",
"l@	c #FFB29F",
"m@	c #FF9277",
"n@	c #FF582E",
"o@	c #F63D10",
"p@	c #EF5F3B",
"q@	c #FF4517",
"r@	c #FFC5B6",
"s@	c #FFB8A6",
"t@	c #FFA994",
"u@	c #FA6A47",
"v@	c #F65E39",
"w@	c #F8461B",
"x@	c #FF562B",
"y@	c #EE6848",
"z@	c #EC6F51",
"A@	c #FE491C",
"B@	c #FD4D21",
"C@	c #FC5A32",
"D@	c #FA6B47",
"E@	c #F97150",
"F@	c #F87453",
"G@	c #F57556",
"H@	c #F37151",
"I@	c #F65A33",
"J@	c #F5461B",
"K@	c #EC6849",
"L@	c #FD643E",
"M@	c #F9623D",
"N@	c #F5603C",
"O@	c #F45D38",
"P@	c #F25E3A",
"Q@	c #ED6F51",
"R@	c #E87F66",
"S@	c #E7836C",
"T@	c #FC6A46",
"U@	c #F8643F",
"V@	c #F45C38",
"W@	c #F25630",
"X@	c #F05731",
"Y@	c #EA6C4E",
"Z@	c #E58069",
"                                                                                              . + @ # $ % & * = -               ",
"                                                                                            ; . > , ' = ) = = = =               ",
"                                                                                      ! ~ % { ] ^ / ( _ : < [ = &               ",
"                                                                                    } } | } 1 2 3 4 5 6 7 4 8 = 9               ",
"                                                                              0 a b c d e f g h i j k l m h n = o               ",
"                                                                            p p q r s t u v v v v v v v l 6 w = x               ",
"                                                                          b y z w f A B C v v v v v v v D E F = x               ",
"                                                                        b } G 2 H I v v v v v v v v v v l 6 w = x               ",
"                                                                      b J K L M N v v v v v v v v v v v l 6 w = x               ",
"                                                                    b } K 2 O v v v v v v v v v v v v v l 6 w = x               ",
"                                                                  P Q G L O R v v v v v v v v v v v v v S T U = V               ",
"                                                                W X Y 2 Z v v v v v v v v v v v v v v v l 6 w = x               ",
"                                                              ` z  ...H +.v v v @.v v v v v v v #.$.%.&.*.=.-.= %               ",
"                                                            ;.>.,.r '.I v v v v v v v v v v ).I !.4 ~.{.G r ].= *               ",
"                                                            ^./.(._.:.v v v v v v v v v <.[.A }.|.1.2.3.  4.5.=                 ",
"                                                            x = w 6 l v v v v v v v v v 6.7.s } 8.9.0.                          ",
"                                                          a.b.c.d.e.v v v v v v v v f.B g.h.i.j.k.l.                            ",
"                                                        m.n.o.{.p.v v v v v v v v v q.t r.= s.                                  ",
"                                                        t.u.v.w.x.v v v v v v v v y.z.n A.B.                                    ",
"                                                        x = w 6 l v v v v v v v C.D.E.} F.                                      ",
"                                                      G.H.I.d.J.v v v v v v v v K.L.1.M.N.                                      ",
"                                                    O.P.Q.{.R.v v v v v v v v v S.{.T.U.V.                                      ",
"                                                    W.X.Y.d.E v v v v v v v v J.}.Z.`.                                          ",
"                                                    B.= h.7.[.v v v v v v v l 6 w = x                                           ",
"                                                       +.+++C.v v v v v v v @+#+$+s.%+    &+*+x j.=                             ",
"                                                    =+r -+v v v v v v v v v ;+{.I.= * = = = = = = = =                           ",
"                                                  >+3.,+'+v v v v v v v v v j )+*.w.3 }.!+}.~+s {+= j.                          ",
"                                                ]+p o.#+^+v v v v v v v v v v v v v v v v v l 6 w = x                           ",
"                                                /+(+_+:+D.v v v v v v v <+v v v v v v v v v [+}+_ = V                           ",
"                                                |+= 1+D.2+v v v v v v v v v v v v v v v v v l 6 w = x                           ",
"                                              3+$+4+5+f.v v v v v v v v v v v v v v v v v v l 6 w = x                           ",
"                                            O.P.Q.{.R.v v v v v v v v v v v v v v v v v v v l 6 w = x                           ",
"                                            6+7+8+9+0+v v v v v v v v v v v v v v v v v v v I E F = x                           ",
"                                            a+b+c+t B v v v v v v v v v v v v v v v v v v v l 6 w = x                           ",
"                                              d+~.e+S v v v v v v v <.f+I l g+l l l l l I l B h n = o                           ",
"                                            % } f v v v v v v v v v R h+i+6 j+6 6 6 6 6 E 6 h 4 8 = 9                           ",
"                                          k+l+m+n+v v v v v v v v o+A p+q+w r+w w w w w F w n 8 s+= t+                          ",
"                                        u+p Q.w.v+v v v v v v v 2+D.9+= % = = = = = = = = = = = = = =                           ",
"                                        a+w+_ x+y+v v v v v v v z+O A+B+C+x   x x x x x x x o 9 t+=                             ",
"                                        j.} }.I v v v v v v v v v+w.D+9.E+                                                      ",
"                                      F+s+G+H+<+v v v v v v v v I+J+K+L+                                                        ",
"                                    M+} N+w.O+v v v v v v v v v f } %                                                           ",
"                                  P+Q+Q+L O+I v v v v v v v [+B R+S+T+                                                          ",
"                                U+U+z {.V+v v v v v v v v v B t W+X+Y+                                                          ",
"                              W >+Z+`+&.B v v v v v v v v <+ @.@+@@@                                                            ",
"                            X X #@-.$@I v v v v v v v v v I }.} j.                                                              ",
"                      %@a+|+4+Y &@*@j v v v v v v v v v =@j+-@8.;@                                                              ",
"                    >@, ,@= '@2 A I v v v v v v v v v v v+w.D+9.E+                                                              ",
"              = )@J+!@~@^ 1+{@Z ]@v v v v v v v v v v ^@$@/@(@0.                                                                ",
"            F.= _@_+#+4 :@D.f+v v v v v v v v v v v f+h+&@= <@                                                                  ",
"            [@= }@|@5 j 1@2+v v v v v v v v v v v v 2@=.3@[@                                                                    ",
"            x = w 6 l v v v v v v v v v v v v v v I }.} j.                                                                      ",
"            V = 4@O+5@v v v v v v v v v v v v v 6@*@7@8@9@                                                                      ",
"            x = w 6 l v v v v v v v v v v v v I g.-.0@a@b@                                                                      ",
"            x = w 6 l v v v v v v v v v v l %.}.c@d@e@f@                                                                        ",
"            x = w 6 l v v v v v v v v v y+6 g@} h@U.i@                                                                          ",
"            V = ..j@k@v v v v v v l x.l@m@w n@j.o@p@                                                                            ",
"            x = w 6 l v v v v v J.6 w.{.q@= t+                                                                                  ",
"            o * {.L.r@i+0+s@t@f =.w u@v@w@x                                                                                     ",
"            $ = x@2 !+w.9+_+n@} = = e@y@z@                                                                                      ",
"            A@B@C@D@E@F@G@H@I@%   x J@K@                                                                                        ",
"            L@2.M@N@O@P@Q@R@S@                                                                                                  ",
"              T@U@V@W@X@Y@Z@                                                                                                    ",
"                                                                                                                                "};
