<?xml version="1.0" encoding="UTF-8" standalone="no"?>
<!-- Created with Inkscape (http://www.inkscape.org/) -->
<svg id="svg2" xmlns="http://www.w3.org/2000/svg" height="48" width="48" version="1.0" xmlns:xlink="http://www.w3.org/1999/xlink">
 <defs id="defs4">
  <linearGradient id="linearGradient4400" y2="7.1352" gradientUnits="userSpaceOnUse" x2="22.036" y1="15.984" x1="27.217">
   <stop id="stop4404" style="stop-color:#e80000" offset="0"/>
   <stop id="stop4406" style="stop-color:#490000" offset="1"/>
  </linearGradient>
  <linearGradient id="linearGradient3198">
   <stop id="stop3200" style="stop-color:#fff" offset="0"/>
   <stop id="stop3202" style="stop-color:#fff;stop-opacity:0" offset="1"/>
  </linearGradient>
  <radialGradient id="radialGradient3187" gradientUnits="userSpaceOnUse" cy="26.577" cx="26.625" gradientTransform="matrix(1.4717 -.48362 .17840 .52763 -15.854 25.129)" r="12.5">
   <stop id="stop3191" style="stop-color:#e40000" offset="0"/>
   <stop id="stop3193" style="stop-color:#490000" offset="1"/>
  </radialGradient>
  <linearGradient id="linearGradient3206" y2="19" xlink:href="#linearGradient3198" gradientUnits="userSpaceOnUse" x2="22" gradientTransform="matrix(1.544 0 0 1.5428 -13.003 -11.785)" y1="25.27" x1="30.376"/>
  <linearGradient id="linearGradient3226" y2="27" gradientUnits="userSpaceOnUse" x2="19" gradientTransform="matrix(1.5513 0 0 1.5293 -13.232 -11.863)" y1="33" x1="29">
   <stop id="stop3222" style="stop-color:#373737" offset="0"/>
   <stop id="stop3224" style="stop-color:#fff" offset="1"/>
  </linearGradient>
  <linearGradient id="linearGradient3234" y2="9.277" gradientUnits="userSpaceOnUse" x2="21.44" y1="19.122" x1="29.455">
   <stop id="stop3230" style="stop-color:#373737" offset="0"/>
   <stop id="stop3232" style="stop-color:#373737;stop-opacity:0" offset="1"/>
  </linearGradient>
  <linearGradient id="linearGradient3244" y2="5.0354" xlink:href="#linearGradient3198" gradientUnits="userSpaceOnUse" x2="17.799" y1="12.038" x1="25.269"/>
  <linearGradient id="linearGradient3274" y2="18.312" xlink:href="#linearGradient3198" gradientUnits="userSpaceOnUse" x2="23" gradientTransform="matrix(1.5513 0 0 1.5293 -11.905 -12.882)" y1="18.312" x1="17.605"/>
  <radialGradient id="radialGradient3361" gradientUnits="userSpaceOnUse" cy="22.614" cx="27.5" gradientTransform="matrix(2.3867 -.11764 .14898 2.9374 -39.573 -38.35)" r="6.5">
   <stop id="stop3348" style="stop-color:#737373" offset="0"/>
   <stop id="stop3350" style="stop-opacity:0" offset="1"/>
  </radialGradient>
  <filter id="filter3391" y="-.168" width="1.1344" x="-0.0672" height="1.336">
   <feGaussianBlur id="feGaussianBlur3393" stdDeviation="0.14"/>
  </filter>
  <filter id="filter3436" y="-.14008" width="1.158" x="-.079005" height="1.2802">
   <feGaussianBlur id="feGaussianBlur3438" stdDeviation="0.3190069"/>
  </filter>
  <linearGradient id="linearGradient3440" y2="25.5" gradientUnits="userSpaceOnUse" x2="20.5" gradientTransform="translate(-8 15.968)" y1="27.5" x1="16">
   <stop id="stop3375" offset="0"/>
   <stop id="stop3377" style="stop-color:#373737;stop-opacity:0" offset="1"/>
  </linearGradient>
  <linearGradient id="linearGradient3448" y2="27" gradientUnits="userSpaceOnUse" x2="21.5" gradientTransform="translate(-8 15.968)" y1="27" x1="16">
   <stop id="stop3444" offset="0"/>
   <stop id="stop3446" style="stop-opacity:0" offset="1"/>
  </linearGradient>
  <radialGradient id="radialGradient3458" gradientUnits="userSpaceOnUse" cy="14.19" cx="18" gradientTransform="matrix(1.5513 0 0 .28118 -.84028 14.54)" r="5.5055">
   <stop id="stop3454" style="stop-color:#fff" offset="0"/>
   <stop id="stop3456" style="stop-color:#fff;stop-opacity:0" offset="1"/>
  </radialGradient>
  <radialGradient id="radialGradient5790" gradientUnits="userSpaceOnUse" cy="13.192" cx="25.017" gradientTransform="matrix(1 0 0 0.495 0 5.555)" r="9.7513">
   <stop id="stop3173" style="stop-color:#fd0000" offset="0"/>
   <stop id="stop3175" style="stop-color:#6a0000" offset="1"/>
  </radialGradient>
  <radialGradient id="radialGradient7042" gradientUnits="userSpaceOnUse" cy="33.188" cx="37.375" gradientTransform="matrix(1 0 0 .22650 0 25.671)" r="14.625">
   <stop id="stop4335" offset="0"/>
   <stop id="stop4337" style="stop-opacity:0" offset="1"/>
  </radialGradient>
 </defs>
 <g id="layer8">
  <path id="path4331" style="opacity:0.07;fill:url(#radialGradient7042)" d="m52 33.188a14.625 3.3125 0 1 1 -29.25 0 14.625 3.3125 0 1 1 29.25 0z" transform="matrix(.63105 0 0 .68990 -.60062 -1.7902)"/>
 </g>
 <g id="layer4">
  <path id="path3420" style="opacity:.2;stroke-linejoin:round;filter:url(#filter3436);stroke:#000;stroke-linecap:round;stroke-miterlimit:0;stroke-width:.61406" d="m27.438 11a4.4375 2.1843 0 1 1 -8.876 0 4.4375 2.1843 0 1 1 8.876 0z" transform="matrix(1.9228 0 0 1.4097 -20.224 28.472)"/>
 </g>
 <g id="layer1">
  <path id="path3159" style="fill:url(#radialGradient3361);fill-rule:evenodd" d="m31.757 4.1952c-0.776-1.5293-14.738-1.5293-15.514 0 0 2.2941-2.327 9.1758-2.327 15.294 0 6.117 7.757 9.94 10.084 9.94s10.084-3.823 10.084-9.94c0-6.118-2.327-13-2.327-15.294z"/>
  <path id="path2385" style="stroke-linejoin:round;stroke:#919191;stroke-linecap:round;stroke-miterlimit:0;stroke-width:.61406;fill:none" d="m27.034 11a4.0341 1.0994 0 1 1 -8.068 0 4.0341 1.0994 0 1 1 8.068 0z" transform="matrix(1.9228 0 0 1.4097 -20.224 -11.291)"/>
  <path id="path3157" style="stroke-linejoin:round;stroke:#888a85;stroke-linecap:round;stroke-miterlimit:0;stroke-width:.61406;fill:url(#linearGradient3234)" d="m27.438 11a4.4375 2.1843 0 1 1 -8.876 0 4.4375 2.1843 0 1 1 8.876 0z" transform="matrix(1.9228 0 0 1.4097 -20.224 26.922)"/>
  <path id="path3236" style="stroke-linejoin:round;stroke:url(#linearGradient3244);stroke-linecap:round;stroke-miterlimit:0;stroke-width:.61406;fill:none" d="m26.901 11a3.9006 1.3537 0 1 1 -7.802 0 3.9006 1.3537 0 1 1 7.802 0z" transform="matrix(1.9228 0 0 1.4097 -20.224 26.901)"/>
  <path id="path3163" style="fill-rule:evenodd;stroke:#888a85;stroke-linecap:round;stroke-width:1px;fill:url(#linearGradient3226)" d="m20.122 27.9c1.551 1.529 3.102 3.824 3.102 12.235 0 1.529 0.21 2.294 0.776 2.294s0.776-0.765 0.776-2.294c0-8.411 1.551-10.706 3.102-12.235"/>
  <path id="path3179" style="fill:url(#radialGradient3187);fill-rule:evenodd" d="m14 17c0 9 7.673 12.429 10 12.429s10-3.429 10-12.429"/>
  <path id="path5788" style="stroke-linejoin:round;stroke:url(#linearGradient4400);stroke-linecap:round;stroke-miterlimit:0;stroke-width:.61406;fill:url(#radialGradient5790)" d="m27.941 11a4.9408 1.6273 0 1 1 -9.882 0 4.9408 1.6273 0 1 1 9.882 0z" transform="matrix(1.9228 0 0 1.4097 -20.224 1.6878)"/>
  <path id="path3196" style="stroke:url(#linearGradient3206);stroke-linecap:round;stroke-width:1px;fill:none" d="m15 17.5c-1.5 6.5 6.5 11 9 11s11-4.5 9-12c-0.5-4-1-6-2-9.5"/>
  <path id="path3266" style="fill:url(#linearGradient3274);fill-rule:evenodd" d="m18.346 7h4.654s-2.327 9.176-2.327 12.999c0 2.294 1.551 3.824 0.776 4.589-0.776 0.764-4.654-2.219-4.654-6.118 0-1.529 0.775-6.117 1.551-11.47z"/>
  <path id="path3358" style="stroke-linejoin:round;stroke:#fff;stroke-linecap:round;stroke-miterlimit:0;stroke-width:1.011;fill:none" d="m31.5 5.5c-0.5 0.5-3.462 1.0499-7.743 1.0499-4.282 0-6.757-0.5499-7.257-1.0499"/>
  <path id="path3450" style="stroke-linejoin:round;stroke:url(#radialGradient3458);stroke-linecap:round;stroke-miterlimit:0;stroke-width:1.011;fill:none" d="m33 16.5c0 0.856-3.5 2-9.019 2.05s-8.981-1.194-8.981-2.05"/>
 </g>
 <g id="layer3">
  <path id="path3395" style="opacity:.35;stroke-linejoin:round;stroke:#000;stroke-linecap:round;stroke-width:1px;fill:none" d="m22 30s0.5 1 2 0.959 2-0.959 2-0.959"/>
  <path id="path3363" style="stroke-linejoin:round;fill-rule:evenodd;filter:url(#filter3391);stroke:url(#linearGradient3448);stroke-linecap:round;stroke-width:.64922px;fill:url(#linearGradient3440)" d="m8 43.468l2.5-1 2.469 0.125-4.969 0.875z" transform="matrix(1.5513 0 0 1.5293 11.589 -24.477)"/>
 </g>
 <g id="layer2">
  <path id="path3354" style="stroke:#919191;stroke-linecap:round;stroke-width:1px;fill:none" d="m31.757 4.1952c-0.776-2.294-14.738-2.294-15.514 0 0 2.2941-2.327 9.1758-2.327 15.294 0 6.117 7.757 9.94 10.084 9.94s10.084-3.823 10.084-9.94c0-6.118-2.327-13-2.327-15.294z"/>
 </g>
</svg>
