<?xml version="1.0" encoding="UTF-8" standalone="no"?>
<!-- Generator: Adobe Illustrator 13.0.0, SVG Export Plug-In . SVG Version: 6.00 Build 14948)  -->
<svg id="Layer_1" xmlns:rdf="http://www.w3.org/1999/02/22-rdf-syntax-ns#" xmlns="http://www.w3.org/2000/svg" enable-background="new 0 0 64 64" xml:space="preserve" height="24" viewBox="0 0 24 24" width="24" version="1.1" y="0px" x="0px" xmlns:cc="http://creativecommons.org/ns#" xmlns:xlink="http://www.w3.org/1999/xlink" xmlns:dc="http://purl.org/dc/elements/1.1/"><metadata id="metadata3896"><rdf:RDF><cc:Work rdf:about=""><dc:format>image/svg+xml</dc:format><dc:type rdf:resource="http://purl.org/dc/dcmitype/StillImage"/><dc:title/></cc:Work></rdf:RDF></metadata><defs id="defs3894">
<radialGradient id="radialGradient5631" fx="266.97" fy="-259.14" gradientUnits="userSpaceOnUse" cy="-255.16" cx="267.72" gradientTransform="matrix(1.6668 0 0 -1.1769 -333.81 -248.47)" r="17.212"><stop id="stop3846" style="stop-color:#5E90D2" offset="0"/><stop id="stop3848" style="stop-color:#265899" offset=".4529"/><stop id="stop3850" style="stop-color:#133055" offset="1"/></radialGradient><radialGradient id="radialGradient5639" gradientUnits="userSpaceOnUse" cy="-357.43" cx="281.32" gradientTransform="matrix(1.5368 0 0 -.8903 -319.69 -271.83)" r="5.3999"><stop id="stop3873" offset="0"/><stop id="stop3875" offset="1"/></radialGradient><radialGradient id="radialGradient5641" gradientUnits="userSpaceOnUse" cy="-98.468" cx="221.7" gradientTransform="matrix(1.6211 0 .18446 -1.9038 -230.7 -151.23)" r="6.7893"><stop id="stop3879" style="stop-color:#EBCD9F" offset="0"/><stop id="stop3881" style="stop-color:#DBA756" offset="1"/></radialGradient><radialGradient id="radialGradient5643" gradientUnits="userSpaceOnUse" cy="-341.65" cx="379.5" gradientTransform="matrix(.97392 0 0 -.85204 -258.52 -263.72)" r="12.466"><stop id="stop3886" style="stop-color:#868983" offset="0"/><stop id="stop3888" style="stop-color:#4C4E4A" offset="1"/></radialGradient><linearGradient id="linearGradient6536" y2="25.33" gradientUnits="userSpaceOnUse" x2="22.982" y1="57.911" x1="22.982"><stop id="stop6370" style="stop-color:#ac8c5a" offset="0"/><stop id="stop6372" style="stop-color:#e1bd83" offset="1"/></linearGradient><linearGradient id="linearGradient6642" y2="22.946" gradientUnits="userSpaceOnUse" x2="13.049" y1="61.089" x1="13.447"><stop id="stop6540" style="stop-color:#7c6342" offset="0"/><stop id="stop6542" style="stop-color:#b18d5a" offset="1"/></linearGradient></defs>
<use id="use5663" xlink:href="#g5108" transform="translate(2 -8)" height="24" width="24" y="0" x="0"/><g id="g5108" transform="matrix(.31460 0 0 .31460 .76977 2.7812)"><path id="path4182" style="stroke:url(#linearGradient6642);stroke-width:3.1786;fill:url(#linearGradient6536)" d="m40.449 35.773 0.01561 23.727h-34.965l0.015609-23.727 3.2936-11.237h28.346l3.2936 11.237z"/><path id="path5020" style="opacity:.4;stroke:#fff;stroke-width:3.4075;fill:none" d="m6.5312 39.5-0.0312 19h33v-19h-32.969z" transform="matrix(.86690 0 0 1.0038 3.0435 -2.3994)"/><path id="path5106" style="opacity:.3;stroke:#fff;stroke-width:3.1768;fill:none" d="m11.219 27.688-1.625 6.4062h26.781l-1.6562-6.4062h-23.5z" transform="matrix(1.0088 0 0 .99235 -.36457 .23818)"/></g><g id="g3267" transform="matrix(.29629 0 0 .29143 -16.314 3.1398)">
		<path id="path2411" style="stroke:#1c447a;stroke-width:3.4031;stroke-linecap:square;fill:url(#radialGradient5631)" d="m131 55.019c0 5.5145-7.561 7.981-16.875 7.981s-16.875-2.4665-16.875-7.981 7.561-12.607 16.875-12.607 16.875 7.0935 16.875 12.607z" nodetypes="csssc"/><path id="path5659" style="opacity:.4;stroke:#fff;stroke-linecap:square;stroke-width:1.7015;fill:none" nodetypes="csssc" d="m128.47 54.659c0 4.1441-6.4268 5.9976-14.344 5.9976-7.9169 0-14.344-1.8535-14.344-5.9976s6.4268-9.474 14.344-9.474c7.9169 0 14.344 5.3306 14.344 9.474z"/>
		<path id="path3201" style="stroke:#204a87;stroke-width:3.4031;fill:#eeeeec" d="m106.02 45.331s0.763 8.219 4.338 8.219c4.913 0 10.233-8.774 10.233-8.774l-14.571 0.555z" nodetypes="cscc"/>
			<path id="path3247" style="opacity:.5;fill:url(#radialGradient5639)" d="m120.94 46.38c0 2.655-3.716 4.808-8.298 4.808-4.584 0-8.299-2.152-8.299-4.808s3.715-4.808 8.299-4.808c4.582 0 8.298 2.153 8.298 4.808z" rx="8" ry="8" cy="40.75" cx="96.75" type="arc"/><path id="path5649" style="stroke-opacity:.99220;stroke:#976615;stroke-linecap:square;stroke-width:1.7015;fill:url(#radialGradient5641)" d="m123.77 36.235c-0.6759 6.9704-5.9941 12.621-11.878 12.621-5.8832 0-10.107-5.6511-9.431-12.621 0.67591-6.9695 5.9931-12.62 11.877-12.62 5.8842 0 10.107 5.6502 9.432 12.62z" rx="9.7371426" ry="13.257143" cy="26.422857" cx="27.108572" type="arc"/><path id="path5657" style="opacity:.5;stroke-opacity:.99220;stroke:#fff;stroke-linecap:square;stroke-width:1.7015;fill:none" d="m122.26 36.235c-0.58489 6.1595-5.187 11.152-10.279 11.152-5.0911 0-8.746-4.9936-8.1611-11.152 0.5849-6.1586 5.1861-11.151 10.278-11.151s8.746 4.9928 8.162 11.151z" rx="9.7371426" ry="13.257143" cy="26.422857" cx="27.108572" type="arc"/>
			<path id="path3196" style="stroke:#3e4648;stroke-width:3.4031;stroke-linecap:square;stroke-opacity:.97250;fill:url(#radialGradient5643)" d="m124.17 34.938c-0.29218 2.777-1.3596 5.3539-2.9373 7.4743 3.4818-12.963-21.958-5.1353-20.552-10.372 1.828-5.8463 7.0911-10.216 12.826-10.216 6.6489 0.000971 11.426 5.8755 10.662 13.114z" nodetypes="cccsc"/>
	<path id="path5647" style="opacity:.3;stroke-opacity:.97250;stroke:#fff;stroke-linecap:square;stroke-width:3.3772;fill:none" d="m113.5 24.875c-3.5448 0-7.0412 2.5277-8.9375 6.125 1.8089 0.13619 4.4806 0.09108 7.3438 0.25 3.0461 0.16907 6.2237 0.45001 9 2.1875 0.0421 0.02634 0.0831 0.06648 0.125 0.09375 0.0609-5.1022-3.0327-8.6556-7.5312-8.6562z" transform="matrix(1.0246 0 0 0.991 -3.1378 .60423)"/></g></svg>
