<?xml version="1.0" encoding="UTF-8" standalone="no"?>
<!-- Created with Inkscape (http://www.inkscape.org/) -->
<svg id="svg2" xmlns="http://www.w3.org/2000/svg" height="24" width="24" version="1.0" xmlns:xlink="http://www.w3.org/1999/xlink">
 <defs id="defs4">
  <linearGradient id="linearGradient2886" y2="17.5" spreadMethod="reflect" gradientUnits="userSpaceOnUse" x2="3.0052" gradientTransform="matrix(.51232 0 0 .49974 -.29581 -.24551)" y1="17.5" x1="44.995">
   <stop id="stop3277" style="stop-color:#fff;stop-opacity:0" offset="0"/>
   <stop id="stop3283" style="stop-color:#fff" offset=".245"/>
   <stop id="stop3285" style="stop-color:#fff" offset=".77350"/>
   <stop id="stop3279" style="stop-color:#fff;stop-opacity:0" offset="1"/>
  </linearGradient>
  <linearGradient id="linearGradient2889" y2="8" gradientUnits="userSpaceOnUse" x2="26" gradientTransform="matrix(.5 0 0 .57143 .0000010587 -1.5714)" y1="22" x1="26">
   <stop id="stop2931" style="stop-color:#fff" offset="0"/>
   <stop id="stop2933" style="stop-color:#fff" offset=".27127"/>
   <stop id="stop2935" style="stop-color:#fff;stop-opacity:.69020" offset=".38989"/>
   <stop id="stop2937" style="stop-color:#fff;stop-opacity:0" offset="1"/>
  </linearGradient>
  <linearGradient id="linearGradient2892" y2="45.934" gradientUnits="userSpaceOnUse" x2="43.007" gradientTransform="matrix(.65684 0 0 .58704 -3.4029 -3.3875)" y1="30.555" x1="23.452">
   <stop id="stop4561" style="stop-color:#fff;stop-opacity:0" offset="0"/>
   <stop id="stop4563" style="stop-color:#fff;stop-opacity:0" offset="1"/>
  </linearGradient>
  <linearGradient id="linearGradient2895" y2="37.277" gradientUnits="userSpaceOnUse" x2="24.997" gradientTransform="matrix(.65684 0 0 .77823 -3.4039 -8.3787)" y1="15.378" x1="24.823">
   <stop id="stop2921" style="stop-color:#dac197" offset="0"/>
   <stop id="stop2923" style="stop-color:#c1a581" offset=".26124"/>
   <stop id="stop2925" style="stop-color:#dbc298" offset=".31580"/>
   <stop id="stop2927" style="stop-color:#a68b60" offset="1"/>
  </linearGradient>
  <linearGradient id="linearGradient2897" y2="45.042" gradientUnits="userSpaceOnUse" x2="15.464" gradientTransform="matrix(.51226 0 0 .49974 -.29433 -.73724)" y1="7.9757" x1="15.464">
   <stop id="stop2911" style="stop-color:#c9af8b" offset="0"/>
   <stop id="stop2913" style="stop-color:#ad8757" offset=".24941"/>
   <stop id="stop2915" style="stop-color:#c2a57f" offset=".31247"/>
   <stop id="stop2917" style="stop-color:#9d7d53" offset="1"/>
  </linearGradient>
  <radialGradient id="radialGradient2903" xlink:href="#linearGradient3681" gradientUnits="userSpaceOnUse" cy="41.5" cx="5" gradientTransform="matrix(.59382 0 0 1.5367 -6.6595 -103.94)" r="5"/>
  <linearGradient id="linearGradient3681">
   <stop id="stop3683" offset="0"/>
   <stop id="stop3685" style="stop-opacity:0" offset="1"/>
  </linearGradient>
  <linearGradient id="linearGradient2905" y2="35" gradientUnits="userSpaceOnUse" x2="17.554" gradientTransform="matrix(1.757 0 0 1.397 -17.394 -16.412)" y1="46" x1="17.554">
   <stop id="stop3705" style="stop-opacity:0" offset="0"/>
   <stop id="stop3711" offset=".5"/>
   <stop id="stop3707" style="stop-opacity:0" offset="1"/>
  </linearGradient>
  <radialGradient id="radialGradient3003" xlink:href="#linearGradient3681" gradientUnits="userSpaceOnUse" cy="41.5" cx="5" gradientTransform="matrix(.59382 0 0 1.5367 41.141 -103.94)" r="5"/>
  <linearGradient id="linearGradient2866" y2="43.144" xlink:href="#linearGradient3341" gradientUnits="userSpaceOnUse" x2="29.956" gradientTransform="matrix(.42809 0 0 .42297 -2.8238 -3.2486)" y1="21.866" x1="29.956"/>
  <linearGradient id="linearGradient2864" y2="25.793" xlink:href="#linearGradient3341" gradientUnits="userSpaceOnUse" x2="30" gradientTransform="matrix(.33686 0 0 .32161 -.10572 -.29530)" y1=".91818" x1="30"/>
  <linearGradient id="linearGradient2862" y2="44.679" xlink:href="#linearGradient3785" gradientUnits="userSpaceOnUse" x2="30" gradientTransform="matrix(.33686 0 0 .32161 -.10572 -.29530)" y1="5" x1="30"/>
  <radialGradient id="radialGradient2860" xlink:href="#linearGradient6954" gradientUnits="userSpaceOnUse" cy="12.313" cx="26.376" gradientTransform="matrix(.55250 -.042640 .043156 .50972 -6.3027 -1.9765)" r="8"/>
  <linearGradient id="linearGradient2858" y2="45" xlink:href="#linearGradient3785" gradientUnits="userSpaceOnUse" x2="30" gradientTransform="matrix(.42809 0 0 .42297 -2.8238 -3.2486)" y1="25.085" x1="30"/>
  <radialGradient id="radialGradient2856" xlink:href="#linearGradient6954" gradientUnits="userSpaceOnUse" cy="28.66" cx="25" gradientTransform="matrix(.56187 0 0 .15788 -6.1683 5.3385)" r="16"/>
  <linearGradient id="linearGradient3341">
   <stop id="stop3343" style="stop-color:#fff" offset="0"/>
   <stop id="stop3345" style="stop-color:#fff;stop-opacity:0" offset="1"/>
  </linearGradient>
  <linearGradient id="linearGradient6954">
   <stop id="stop6960" style="stop-color:#f5f5f5" offset="0"/>
   <stop id="stop6962" style="stop-color:#d2d2d2" offset="1"/>
  </linearGradient>
  <linearGradient id="linearGradient3785">
   <stop id="stop3787" style="stop-color:#b8b8b8" offset="0"/>
   <stop id="stop3789" style="stop-color:#878787" offset="1"/>
  </linearGradient>
 </defs>
 <g id="layer1">
  <g id="g3305" style="opacity:.4" transform="matrix(.51791 0 0 .45554 -.37816 2.2034)">
   <rect id="rect2484" style="fill:url(#radialGradient2903)" transform="scale(-1)" height="15.367" width="2.9602" y="-47.848" x="-3.6904"/>
   <rect id="rect2486" style="fill:url(#linearGradient2905)" height="15.367" width="40.412" y="32.482" x="3.6904"/>
   <rect id="rect3444" style="fill:url(#radialGradient3003)" transform="scale(1,-1)" height="15.367" width="2.9602" y="-47.848" x="44.11"/>
  </g>
  <path id="path2488" style="stroke:url(#linearGradient2897);stroke-linecap:round;stroke-width:.99420;display:block;fill:url(#linearGradient2895)" d="m4.3215 3.5106h15.11c0.882 0 1.279-0.1432 1.533 0.4997l1.537 4.4897v12.339c0 0.776 0.053 0.657-0.829 0.657h-19.346c-0.882 0-0.8293 0.119-0.8293-0.657v-12.339l1.5377-4.4897c0.2463-0.6299 0.404-0.4997 1.2861-0.4997z"/>
  <path id="path2490" style="opacity:.50549;stroke:url(#linearGradient2892);stroke-width:.74212;display:block;fill:none" d="m4.8028 4.0168h14.165c0.827 0 1.339 0.2781 1.685 1.0425l1.193 3.2082v11.566c0 0.73-0.419 1.097-1.246 1.097h-17.28c-0.8271 0-1.1645-0.404-1.1645-1.134v-11.53l1.1546-3.2765c0.2309-0.5924 0.6657-0.9737 1.4927-0.9737z"/>
  <path id="rect3326" style="opacity:.4;fill:url(#linearGradient2889)" d="m11 3h2v8h-0.591-0.604-0.487-0.318v-8z"/>
  <path id="path3273" style="opacity:.4;stroke:url(#linearGradient2886);stroke-linecap:square;stroke-width:1px;fill:none" d="m1.5 8.5h21"/>
 </g>
 <g id="g3743" transform="translate(8.0624 7.9984)">
  <path id="path2880" style="stroke-linejoin:round;stroke:url(#linearGradient2858);stroke-width:1.0001;fill:url(#radialGradient2856)" d="m8.8438 6.5c-0.0807 0.6801 0.5901 2.1001 0.2187 2.7188-1.4448 0.5048-4.0489 1.4262-4.1875 2.0312-0.1024 0.94-0.2559 2.311-0.375 3.25 2.5329 1.368 8.492 1.302 10.938 0-0.087-0.666-0.164-2.584-0.25-3.25-0.654-0.781-2.375-1.237-4.188-2.0312-0.474-0.6162 0.243-1.9932 0.094-2.6876-0.287-0.0492-1.9602-0.0237-2.2502-0.0312z"/>
  <path id="path2870" style="stroke:url(#linearGradient2862);stroke-width:.94714;fill:url(#radialGradient2860)" d="m10 1.4688c-1.3953 0-2.5312 1.0066-2.5312 2.25 0.0109 0.4601 0.0589 1.0054 0.3437 2.25 0.1684 0.4824 1.6739 1.7766 1.6875 1.9374 0.3266 0.1609 0.851 0.1609 1.188 0 0-0.1608 1.331-1.455 1.5-1.9374 0.32-1.2935 0.326-1.7676 0.343-2.25 0-1.2434-1.136-2.25-2.531-2.25z"/>
  <path id="path2866" style="stroke:url(#linearGradient2864);stroke-width:.94714;fill:none" d="m10 2.4688c-0.6124-0.0149-1.267 0.3305-1.4688 0.9374-0.1135 0.4105-0.0101 0.8369 0.0313 1.25 0.0522 0.3382 0.1133 0.6661 0.1875 1 0.1941 0.1715 0.3611 0.3975 0.5625 0.5626 0.2633 0.256 0.4908 0.5212 0.7495 0.7812 0.269-0.2173 0.449-0.5033 0.688-0.75 0.153-0.1798 0.31-0.3876 0.469-0.5625 0.157-0.7103 0.339-1.4222 0.281-2.1563-0.125-0.6867-0.847-1.0796-1.5-1.0624z"/>
  <path id="path2876" style="stroke-linejoin:round;stroke:url(#linearGradient2866);stroke-width:1.0001;fill:none" d="m10 9.0625c0.041 0.6185-0.4845 1.1015-1.0625 1.1875-1.0618 0.378-2.1651 0.707-3.125 1.312-0.2247 0.541-0.1042 1.161-0.25 1.719-0.3309 0.709 0.5691 0.776 1.0313 0.907 2.2561 0.54 4.6522 0.499 6.9062-0.032 0.336-0.168 1.138-0.085 0.938-0.625-0.063-0.587-0.092-1.191-0.126-1.781-0.92-0.708-2.086-0.957-3.124-1.438-0.823-0.116-0.853-0.7191-1.188-1.2495z"/>
 </g>
</svg>
